solid ABC
facet normal 0.34594825252129086 -0.9382535939592587 0.0
  outer loop
    vertex -17.427191813420222 -205.1340074941706 5.0
    vertex -19.33144708943822 -205.83613513784204 0.0
    vertex -17.427191813420222 -205.1340074941706 0.0
  endloop
endfacet
facet normal 0.34594825252129086 -0.9382535939592587 0.0
  outer loop
    vertex -19.33144708943822 -205.83613513784204 0.0
    vertex -17.427191813420222 -205.1340074941706 5.0
    vertex -19.33144708943822 -205.83613513784204 5.0
  endloop
endfacet
facet normal -0.0 -0.0 -1.0
  outer loop
    vertex -21.522938050439762 -186.3254970691151 0.0
    vertex -21.810170437551037 -187.49571002133345 0.0
    vertex -21.85272362807658 -187.04890152081526 0.0
  endloop
endfacet
facet normal -0.0 -0.0 -1.0
  outer loop
    vertex -21.810170437551037 -187.49571002133345 0.0
    vertex -21.522938050439762 -186.3254970691151 0.0
    vertex -21.554851294397785 -190.43188016759586 0.0
  endloop
endfacet
facet normal -0.0 -0.0 -1.0
  outer loop
    vertex -21.554851294397785 -190.43188016759586 0.0
    vertex -21.522938050439762 -186.3254970691151 0.0
    vertex -21.554851294397785 -191.81485885967598 0.0
  endloop
endfacet
facet normal -0.0 -0.0 -1.0
  outer loop
    vertex -21.554851294397785 -191.81485885967598 0.0
    vertex -21.522938050439762 -186.3254970691151 0.0
    vertex -21.554851294397785 -199.11273103480642 0.0
  endloop
endfacet
facet normal -0.0 -0.0 -1.0
  outer loop
    vertex -21.554851294397785 -199.11273103480642 0.0
    vertex -21.522938050439762 -186.3254970691151 0.0
    vertex -21.554851294397785 -200.53826291741208 0.0
  endloop
endfacet
facet normal -0.0 -0.0 -1.0
  outer loop
    vertex -28.991021338736235 -195.5914545188178 0.0
    vertex -29.161234100838403 -197.84677361667153 0.0
    vertex -29.44846813688581 -197.26166724694534 0.0
  endloop
endfacet
facet normal -0.0 -0.0 -1.0
  outer loop
    vertex -29.161234100838403 -197.84677361667153 0.0
    vertex -28.991021338736235 -195.5914545188178 0.0
    vertex -28.46974475479835 -198.0914544621934 0.0
  endloop
endfacet
facet normal -0.0 -0.0 -1.0
  outer loop
    vertex -28.46974475479835 -198.0914544621934 0.0
    vertex -28.991021338736235 -195.5914545188178 0.0
    vertex -28.214425611645094 -193.70847583806258 0.0
  endloop
endfacet
facet normal -0.0 -0.0 -1.0
  outer loop
    vertex -28.46974475479835 -198.0914544621934 0.0
    vertex -28.214425611645094 -193.70847583806258 0.0
    vertex -28.00165965901739 -198.07017786693063 0.0
  endloop
endfacet
facet normal -0.0 -0.0 -1.0
  outer loop
    vertex -28.00165965901739 -198.07017786693063 0.0
    vertex -28.214425611645094 -193.70847583806258 0.0
    vertex -27.58676642373377 -192.97443207809275 0.0
  endloop
endfacet
facet normal -0.0 -0.0 -1.0
  outer loop
    vertex -28.00165965901739 -198.07017786693063 0.0
    vertex -27.58676642373377 -192.97443207809275 0.0
    vertex -23.767617201725965 -197.942518295354 0.0
  endloop
endfacet
facet normal -0.0 -0.0 -1.0
  outer loop
    vertex -23.767617201725965 -197.942518295354 0.0
    vertex -27.58676642373377 -192.97443207809275 0.0
    vertex -26.810170324302213 -192.72975245597513 0.0
  endloop
endfacet
facet normal -0.0 -0.0 -1.0
  outer loop
    vertex -23.767617201725965 -197.942518295354 0.0
    vertex -26.810170324302213 -192.72975245597513 0.0
    vertex -26.171872466419085 -192.77230564650066 0.0
  endloop
endfacet
facet normal -0.0 -0.0 -1.0
  outer loop
    vertex -23.767617201725965 -197.942518295354 0.0
    vertex -26.171872466419085 -192.77230564650066 0.0
    vertex -23.25697891541946 -192.9637950038656 0.0
  endloop
endfacet
facet normal -0.0 -0.0 -1.0
  outer loop
    vertex -23.767617201725965 -197.942518295354 0.0
    vertex -23.25697891541946 -192.9637950038656 0.0
    vertex -22.725064033850188 -197.942518295354 0.0
  endloop
endfacet
facet normal -0.0 -0.0 -1.0
  outer loop
    vertex -22.725064033850188 -197.942518295354 0.0
    vertex -23.25697891541946 -192.9637950038656 0.0
    vertex -22.725064033850188 -192.9637950038656 0.0
  endloop
endfacet
facet normal -0.0 -0.0 -1.0
  outer loop
    vertex -22.725064033850188 -197.942518295354 0.0
    vertex -22.725064033850188 -192.9637950038656 0.0
    vertex -22.682510843324646 -192.9637950038656 0.0
  endloop
endfacet
facet normal -0.0 -0.0 -1.0
  outer loop
    vertex -22.725064033850188 -197.942518295354 0.0
    vertex -22.682510843324646 -192.9637950038656 0.0
    vertex -21.815487964026342 -198.20315496498256 0.0
  endloop
endfacet
facet normal -0.0 -0.0 -1.0
  outer loop
    vertex -21.815487964026342 -198.20315496498256 0.0
    vertex -22.682510843324646 -192.9637950038656 0.0
    vertex -21.82612642123219 -192.67656240398838 0.0
  endloop
endfacet
facet normal -0.0 -0.0 -1.0
  outer loop
    vertex -21.815487964026342 -198.20315496498256 0.0
    vertex -21.82612642123219 -192.67656240398838 0.0
    vertex -21.554851294397785 -191.81485885967598 0.0
  endloop
endfacet
facet normal -0.0 -0.0 -1.0
  outer loop
    vertex -21.815487964026342 -198.20315496498256 0.0
    vertex -21.554851294397785 -191.81485885967598 0.0
    vertex -21.554851294397785 -199.11273103480642 0.0
  endloop
endfacet
facet normal -0.0 -0.0 -1.0
  outer loop
    vertex -21.682510865974415 -204.77230537470348 0.0
    vertex -21.459106615715317 -205.9318798165245 0.0
    vertex -21.70378746123718 -205.21911387522167 0.0
  endloop
endfacet
facet normal -0.0 -0.0 -1.0
  outer loop
    vertex -21.459106615715317 -205.9318798165245 0.0
    vertex -21.682510865974415 -204.77230537470348 0.0
    vertex -21.554851294397785 -200.53826291741208 0.0
  endloop
endfacet
facet normal -0.0 -0.0 -1.0
  outer loop
    vertex -21.459106615715317 -205.9318798165245 0.0
    vertex -21.554851294397785 -200.53826291741208 0.0
    vertex -21.522938050439762 -186.3254970691151 0.0
  endloop
endfacet
facet normal -0.0 -0.0 -1.0
  outer loop
    vertex -21.459106615715317 -205.9318798165245 0.0
    vertex -21.522938050439762 -186.3254970691151 0.0
    vertex -20.53357472178478 -185.68719942399792 0.0
  endloop
endfacet
facet normal -0.0 -0.0 -1.0
  outer loop
    vertex -21.459106615715317 -205.9318798165245 0.0
    vertex -20.53357472178478 -185.68719942399792 0.0
    vertex -20.831447055463574 -206.21911385257192 0.0
  endloop
endfacet
facet normal -0.0 -0.0 -1.0
  outer loop
    vertex -20.831447055463574 -206.21911385257192 0.0
    vertex -20.53357472178478 -185.68719942399792 0.0
    vertex -19.33144708943822 -205.83613513784204 0.0
  endloop
endfacet
facet normal -0.0 -0.0 -1.0
  outer loop
    vertex -19.33144708943822 -205.83613513784204 0.0
    vertex -20.53357472178478 -185.68719942399792 0.0
    vertex -18.661234338660936 -185.03826326848343 0.0
  endloop
endfacet
facet normal -0.0 -0.0 -1.0
  outer loop
    vertex -19.33144708943822 -205.83613513784204 0.0
    vertex -18.661234338660936 -185.03826326848343 0.0
    vertex -17.427191813420222 -205.1340074941706 0.0
  endloop
endfacet
facet normal -0.0 -0.0 -1.0
  outer loop
    vertex -17.427191813420222 -205.1340074941706 0.0
    vertex -18.661234338660936 -185.03826326848343 0.0
    vertex -17.1505960750042 -184.72975263717325 0.0
  endloop
endfacet
facet normal -0.0 -0.0 -1.0
  outer loop
    vertex -17.427191813420222 -205.1340074941706 0.0
    vertex -17.1505960750042 -184.72975263717325 0.0
    vertex -16.453785957808062 -204.43719939825098 0.0
  endloop
endfacet
facet normal -0.0 -0.0 -1.0
  outer loop
    vertex -16.453785957808062 -204.43719939825098 0.0
    vertex -17.1505960750042 -184.72975263717325 0.0
    vertex -16.496339680248482 -184.93719840375124 0.0
  endloop
endfacet
facet normal -0.0 -0.0 -1.0
  outer loop
    vertex -16.453785957808062 -204.43719939825098 0.0
    vertex -16.496339680248482 -184.93719840375124 0.0
    vertex -16.384638645544445 -188.11273128395382 0.0
  endloop
endfacet
facet normal -0.0 -0.0 -1.0
  outer loop
    vertex -16.384638645544445 -188.11273128395382 0.0
    vertex -16.496339680248482 -184.93719840375124 0.0
    vertex -16.342085455018903 -186.0914547339906 0.0
  endloop
endfacet
facet normal -0.0 -0.0 -1.0
  outer loop
    vertex -16.342085455018903 -186.0914547339906 0.0
    vertex -16.496339680248482 -184.93719840375124 0.0
    vertex -16.27825566923059 -185.55953985242132 0.0
  endloop
endfacet
facet normal -0.0 -0.0 -1.0
  outer loop
    vertex -16.081448572624392 -192.6659240531655 0.0
    vertex -16.384638645544445 -199.11273103480642 0.0
    vertex -16.384638645544445 -191.81485885967598 0.0
  endloop
endfacet
facet normal -0.0 -0.0 -1.0
  outer loop
    vertex -16.384638645544445 -199.11273103480642 0.0
    vertex -16.081448572624392 -192.6659240531655 0.0
    vertex -16.13464032673876 -198.19251661415967 0.0
  endloop
endfacet
facet normal -0.0 -0.0 -1.0
  outer loop
    vertex -16.13464032673876 -198.19251661415967 0.0
    vertex -16.081448572624392 -192.6659240531655 0.0
    vertex -15.214425906092043 -197.942518295354 0.0
  endloop
endfacet
facet normal -0.0 -0.0 -1.0
  outer loop
    vertex -15.214425906092043 -197.942518295354 0.0
    vertex -16.081448572624392 -192.6659240531655 0.0
    vertex -15.214425906092043 -192.9637950038656 0.0
  endloop
endfacet
facet normal -0.0 -0.0 -1.0
  outer loop
    vertex -15.214425906092043 -197.942518295354 0.0
    vertex -15.214425906092043 -192.9637950038656 0.0
    vertex -11.916553640362544 -192.9637950038656 0.0
  endloop
endfacet
facet normal -0.0 -0.0 -1.0
  outer loop
    vertex -15.214425906092043 -197.942518295354 0.0
    vertex -11.916553640362544 -192.9637950038656 0.0
    vertex -14.235702524004576 -197.942518295354 0.0
  endloop
endfacet
facet normal -0.0 -0.0 -1.0
  outer loop
    vertex -14.235702524004576 -197.942518295354 0.0
    vertex -11.916553640362544 -192.9637950038656 0.0
    vertex -10.852723877223996 -198.24039062903282 0.0
  endloop
endfacet
facet normal -0.0 -0.0 -1.0
  outer loop
    vertex -10.852723877223996 -198.24039062903282 0.0
    vertex -11.916553640362544 -192.9637950038656 0.0
    vertex -9.916553685662072 -192.92124181334006 0.0
  endloop
endfacet
facet normal -0.0 -0.0 -1.0
  outer loop
    vertex -10.852723877223996 -198.24039062903282 0.0
    vertex -9.916553685662072 -192.92124181334006 0.0
    vertex -10.198468333532091 -197.9903918846952 0.0
  endloop
endfacet
facet normal -0.0 -0.0 -1.0
  outer loop
    vertex -10.198468333532091 -197.9903918846952 0.0
    vertex -9.916553685662072 -192.92124181334006 0.0
    vertex -9.639957947246051 -197.24039065168256 0.0
  endloop
endfacet
facet normal -0.0 -0.0 -1.0
  outer loop
    vertex -9.639957947246051 -197.24039065168256 0.0
    vertex -9.916553685662072 -192.92124181334006 0.0
    vertex -9.36336220883003 -192.85741202755176 0.0
  endloop
endfacet
facet normal -0.0 -0.0 -1.0
  outer loop
    vertex -9.639957947246051 -197.24039065168256 0.0
    vertex -9.36336220883003 -192.85741202755176 0.0
    vertex -8.895277113049069 -195.35741197092733 0.0
  endloop
endfacet
facet normal -0.0 -0.0 -1.0
  outer loop
    vertex -8.895277113049069 -195.35741197092733 0.0
    vertex -9.36336220883003 -192.85741202755176 0.0
    vertex -8.741020760159957 -193.0701769163497 0.0
  endloop
endfacet
facet normal -0.0 -0.0 -1.0
  outer loop
    vertex -8.895277113049069 -195.35741197092733 0.0
    vertex -8.741020760159957 -193.0701769163497 0.0
    vertex -8.533574993581961 -193.70847583806258 0.0
  endloop
endfacet
facet normal -0.0 -0.0 -1.0
  outer loop
    vertex -16.453785957808062 -204.43719939825098 0.0
    vertex -16.171872692916732 -202.94251818210518 0.0
    vertex -16.129319502391194 -203.58081603998832 0.0
  endloop
endfacet
facet normal -0.0 -0.0 -1.0
  outer loop
    vertex -16.171872692916732 -202.94251818210518 0.0
    vertex -16.453785957808062 -204.43719939825098 0.0
    vertex -16.384638645544445 -199.45315655901075 0.0
  endloop
endfacet
facet normal -0.0 -0.0 -1.0
  outer loop
    vertex -16.384638645544445 -199.45315655901075 0.0
    vertex -16.453785957808062 -204.43719939825098 0.0
    vertex -16.384638645544445 -188.11273128395382 0.0
  endloop
endfacet
facet normal -0.0 -0.0 -1.0
  outer loop
    vertex -16.384638645544445 -199.45315655901075 0.0
    vertex -16.384638645544445 -188.11273128395382 0.0
    vertex -16.384638645544445 -191.81485885967598 0.0
  endloop
endfacet
facet normal -0.0 -0.0 -1.0
  outer loop
    vertex -16.384638645544445 -199.45315655901075 0.0
    vertex -16.384638645544445 -191.81485885967598 0.0
    vertex -16.384638645544445 -199.11273103480642 0.0
  endloop
endfacet
facet normal 0.24738324526582053 -0.9689177106244632 0.0
  outer loop
    vertex -19.33144708943822 -205.83613513784204 5.0
    vertex -20.831447055463574 -206.21911385257192 0.0
    vertex -19.33144708943822 -205.83613513784204 0.0
  endloop
endfacet
facet normal 0.24738324526582053 -0.9689177106244632 0.0
  outer loop
    vertex -20.831447055463574 -206.21911385257192 0.0
    vertex -19.33144708943822 -205.83613513784204 5.0
    vertex -20.831447055463574 -206.21911385257192 5.0
  endloop
endfacet
facet normal -0.4161239537603088 -0.9093078989577118 0.0
  outer loop
    vertex -20.831447055463574 -206.21911385257192 5.0
    vertex -21.459106615715317 -205.9318798165245 0.0
    vertex -20.831447055463574 -206.21911385257192 0.0
  endloop
endfacet
facet normal -0.4161239537603088 -0.9093078989577118 0.0
  outer loop
    vertex -21.459106615715317 -205.9318798165245 0.0
    vertex -20.831447055463574 -206.21911385257192 5.0
    vertex -21.459106615715317 -205.9318798165245 5.0
  endloop
endfacet
facet normal -0.9458221364244436 -0.3246852110113757 0.0
  outer loop
    vertex -21.70378746123718 -205.21911387522167 5.0
    vertex -21.459106615715317 -205.9318798165245 0.0
    vertex -21.459106615715317 -205.9318798165245 5.0
  endloop
endfacet
facet normal -0.9458221364244436 -0.3246852110113757 0.0
  outer loop
    vertex -21.459106615715317 -205.9318798165245 0.0
    vertex -21.70378746123718 -205.21911387522167 5.0
    vertex -21.70378746123718 -205.21911387522167 0.0
  endloop
endfacet
facet normal -0.9988681377244376 0.047565149415448774 0.0
  outer loop
    vertex -21.682510865974415 -204.77230537470348 5.0
    vertex -21.70378746123718 -205.21911387522167 0.0
    vertex -21.70378746123718 -205.21911387522167 5.0
  endloop
endfacet
facet normal -0.9988681377244376 0.047565149415448774 0.0
  outer loop
    vertex -21.70378746123718 -205.21911387522167 0.0
    vertex -21.682510865974415 -204.77230537470348 5.0
    vertex -21.682510865974415 -204.77230537470348 0.0
  endloop
endfacet
facet normal -0.9995457756907075 0.03013705856353886 0.0
  outer loop
    vertex -21.554851294397785 -200.53826291741208 5.0
    vertex -21.682510865974415 -204.77230537470348 0.0
    vertex -21.682510865974415 -204.77230537470348 5.0
  endloop
endfacet
facet normal -0.9995457756907075 0.03013705856353886 0.0
  outer loop
    vertex -21.682510865974415 -204.77230537470348 0.0
    vertex -21.554851294397785 -200.53826291741208 5.0
    vertex -21.554851294397785 -200.53826291741208 0.0
  endloop
endfacet
facet normal -1.0 0.0 0.0
  outer loop
    vertex -21.554851294397785 -199.11273103480642 5.0
    vertex -21.554851294397785 -200.53826291741208 0.0
    vertex -21.554851294397785 -200.53826291741208 5.0
  endloop
endfacet
facet normal -1.0 0.0 0.0
  outer loop
    vertex -21.554851294397785 -200.53826291741208 0.0
    vertex -21.554851294397785 -199.11273103480642 5.0
    vertex -21.554851294397785 -199.11273103480642 0.0
  endloop
endfacet
facet normal -0.961312105306507 -0.275461496748949 0.0
  outer loop
    vertex -21.815487964026342 -198.20315496498256 5.0
    vertex -21.554851294397785 -199.11273103480642 0.0
    vertex -21.554851294397785 -199.11273103480642 5.0
  endloop
endfacet
facet normal -0.961312105306507 -0.275461496748949 0.0
  outer loop
    vertex -21.554851294397785 -199.11273103480642 0.0
    vertex -21.815487964026342 -198.20315496498256 5.0
    vertex -21.815487964026342 -198.20315496498256 0.0
  endloop
endfacet
facet normal -0.2754614967489494 -0.961312105306507 0.0
  outer loop
    vertex -21.815487964026342 -198.20315496498256 5.0
    vertex -22.725064033850188 -197.942518295354 0.0
    vertex -21.815487964026342 -198.20315496498256 0.0
  endloop
endfacet
facet normal -0.2754614967489494 -0.961312105306507 0.0
  outer loop
    vertex -22.725064033850188 -197.942518295354 0.0
    vertex -21.815487964026342 -198.20315496498256 5.0
    vertex -22.725064033850188 -197.942518295354 5.0
  endloop
endfacet
facet normal 0.0 0.0 1.0
  outer loop
    vertex -16.453785957808062 -204.43719939825098 5.0
    vertex -16.171872692916732 -202.94251818210518 5.0
    vertex -16.384638645544445 -199.45315655901075 5.0
  endloop
endfacet
facet normal 0.0 0.0 1.0
  outer loop
    vertex -16.171872692916732 -202.94251818210518 5.0
    vertex -16.453785957808062 -204.43719939825098 5.0
    vertex -16.129319502391194 -203.58081603998832 5.0
  endloop
endfacet
facet normal 0.0 0.0 1.0
  outer loop
    vertex -16.13464032673876 -198.19251661415967 5.0
    vertex -16.384638645544445 -191.81485885967598 5.0
    vertex -16.384638645544445 -199.11273103480642 5.0
  endloop
endfacet
facet normal 0.0 0.0 1.0
  outer loop
    vertex -16.384638645544445 -191.81485885967598 5.0
    vertex -16.13464032673876 -198.19251661415967 5.0
    vertex -16.081448572624392 -192.6659240531655 5.0
  endloop
endfacet
facet normal 0.0 0.0 1.0
  outer loop
    vertex -16.081448572624392 -192.6659240531655 5.0
    vertex -16.13464032673876 -198.19251661415967 5.0
    vertex -15.214425906092043 -197.942518295354 5.0
  endloop
endfacet
facet normal 0.0 0.0 1.0
  outer loop
    vertex -16.081448572624392 -192.6659240531655 5.0
    vertex -15.214425906092043 -197.942518295354 5.0
    vertex -15.214425906092043 -192.9637950038656 5.0
  endloop
endfacet
facet normal 0.0 0.0 1.0
  outer loop
    vertex -15.214425906092043 -192.9637950038656 5.0
    vertex -15.214425906092043 -197.942518295354 5.0
    vertex -14.235702524004576 -197.942518295354 5.0
  endloop
endfacet
facet normal 0.0 0.0 1.0
  outer loop
    vertex -15.214425906092043 -192.9637950038656 5.0
    vertex -14.235702524004576 -197.942518295354 5.0
    vertex -11.916553640362544 -192.9637950038656 5.0
  endloop
endfacet
facet normal 0.0 0.0 1.0
  outer loop
    vertex -11.916553640362544 -192.9637950038656 5.0
    vertex -14.235702524004576 -197.942518295354 5.0
    vertex -10.852723877223996 -198.24039062903282 5.0
  endloop
endfacet
facet normal 0.0 0.0 1.0
  outer loop
    vertex -11.916553640362544 -192.9637950038656 5.0
    vertex -10.852723877223996 -198.24039062903282 5.0
    vertex -9.916553685662072 -192.92124181334006 5.0
  endloop
endfacet
facet normal 0.0 0.0 1.0
  outer loop
    vertex -9.916553685662072 -192.92124181334006 5.0
    vertex -10.852723877223996 -198.24039062903282 5.0
    vertex -10.198468333532091 -197.9903918846952 5.0
  endloop
endfacet
facet normal 0.0 0.0 1.0
  outer loop
    vertex -9.916553685662072 -192.92124181334006 5.0
    vertex -10.198468333532091 -197.9903918846952 5.0
    vertex -9.639957947246051 -197.24039065168256 5.0
  endloop
endfacet
facet normal 0.0 0.0 1.0
  outer loop
    vertex -9.916553685662072 -192.92124181334006 5.0
    vertex -9.639957947246051 -197.24039065168256 5.0
    vertex -9.36336220883003 -192.85741202755176 5.0
  endloop
endfacet
facet normal 0.0 0.0 1.0
  outer loop
    vertex -9.36336220883003 -192.85741202755176 5.0
    vertex -9.639957947246051 -197.24039065168256 5.0
    vertex -8.895277113049069 -195.35741197092733 5.0
  endloop
endfacet
facet normal 0.0 0.0 1.0
  outer loop
    vertex -9.36336220883003 -192.85741202755176 5.0
    vertex -8.895277113049069 -195.35741197092733 5.0
    vertex -8.741020760159957 -193.0701769163497 5.0
  endloop
endfacet
facet normal 0.0 0.0 1.0
  outer loop
    vertex -8.741020760159957 -193.0701769163497 5.0
    vertex -8.895277113049069 -195.35741197092733 5.0
    vertex -8.533574993581961 -193.70847583806258 5.0
  endloop
endfacet
facet normal 0.0 0.0 1.0
  outer loop
    vertex -20.831447055463574 -206.21911385257192 5.0
    vertex -21.190328795251197 -195.39034368429827 4.999999999999995
    vertex -21.459106615715317 -205.9318798165245 5.0
  endloop
endfacet
facet normal 0.0 0.0 1.0
  outer loop
    vertex -21.190328795251197 -195.39034368429827 4.999999999999995
    vertex -20.831447055463574 -206.21911385257192 5.0
    vertex -21.11536561308715 -195.95974558352384 4.999999999999995
  endloop
endfacet
facet normal 0.0 0.0 1.0
  outer loop
    vertex -21.11536561308715 -195.95974558352384 4.999999999999995
    vertex -20.831447055463574 -206.21911385257192 5.0
    vertex -20.89558468357696 -196.4903436842983 4.999999999999995
  endloop
endfacet
facet normal 0.0 0.0 1.0
  outer loop
    vertex -20.89558468357696 -196.4903436842983 4.999999999999995
    vertex -20.831447055463574 -206.21911385257192 5.0
    vertex -20.545963713861603 -196.9459786029087 4.999999999999995
  endloop
endfacet
facet normal 0.0 0.0 1.0
  outer loop
    vertex -20.545963713861603 -196.9459786029087 4.999999999999995
    vertex -20.831447055463574 -206.21911385257192 5.0
    vertex -19.33144708943822 -205.83613513784204 5.0
  endloop
endfacet
facet normal 0.0 0.0 1.0
  outer loop
    vertex -20.545963713861603 -196.9459786029087 4.999999999999995
    vertex -19.33144708943822 -205.83613513784204 5.0
    vertex -20.0903287952512 -197.29559957262404 4.999999999999995
  endloop
endfacet
facet normal 0.0 0.0 1.0
  outer loop
    vertex -20.0903287952512 -197.29559957262404 4.999999999999995
    vertex -19.33144708943822 -205.83613513784204 5.0
    vertex -19.55973069447674 -197.51538050213424 4.999999999999995
  endloop
endfacet
facet normal 0.0 0.0 1.0
  outer loop
    vertex -19.55973069447674 -197.51538050213424 4.999999999999995
    vertex -19.33144708943822 -205.83613513784204 5.0
    vertex -18.9903287952512 -197.5903436842983 4.999999999999995
  endloop
endfacet
facet normal 0.0 0.0 1.0
  outer loop
    vertex -18.9903287952512 -197.5903436842983 4.999999999999995
    vertex -19.33144708943822 -205.83613513784204 5.0
    vertex -17.427191813420222 -205.1340074941706 5.0
  endloop
endfacet
facet normal 0.0 0.0 1.0
  outer loop
    vertex -18.9903287952512 -197.5903436842983 4.999999999999995
    vertex -17.427191813420222 -205.1340074941706 5.0
    vertex -18.42092689602566 -197.51538050213424 4.999999999999995
  endloop
endfacet
facet normal 0.0 0.0 1.0
  outer loop
    vertex -18.42092689602566 -197.51538050213424 4.999999999999995
    vertex -17.427191813420222 -205.1340074941706 5.0
    vertex -17.890328795251204 -197.29559957262404 4.999999999999995
  endloop
endfacet
facet normal 0.0 0.0 1.0
  outer loop
    vertex -17.890328795251204 -197.29559957262404 4.999999999999995
    vertex -17.427191813420222 -205.1340074941706 5.0
    vertex -17.4346938766408 -196.94597860290867 4.999999999999995
  endloop
endfacet
facet normal 0.0 0.0 1.0
  outer loop
    vertex -17.4346938766408 -196.94597860290867 4.999999999999995
    vertex -17.427191813420222 -205.1340074941706 5.0
    vertex -17.085072906925443 -196.4903436842983 4.999999999999995
  endloop
endfacet
facet normal 0.0 0.0 1.0
  outer loop
    vertex -17.085072906925443 -196.4903436842983 4.999999999999995
    vertex -17.427191813420222 -205.1340074941706 5.0
    vertex -16.453785957808062 -204.43719939825098 5.0
  endloop
endfacet
facet normal 0.0 0.0 1.0
  outer loop
    vertex -17.085072906925443 -196.4903436842983 4.999999999999995
    vertex -16.453785957808062 -204.43719939825098 5.0
    vertex -16.865291977415257 -195.95974558352384 4.999999999999995
  endloop
endfacet
facet normal 0.0 0.0 1.0
  outer loop
    vertex -16.865291977415257 -195.95974558352384 4.999999999999995
    vertex -16.453785957808062 -204.43719939825098 5.0
    vertex -16.790328795251206 -195.39034368429827 4.999999999999995
  endloop
endfacet
facet normal 0.0 0.0 1.0
  outer loop
    vertex -16.790328795251206 -195.39034368429827 4.999999999999995
    vertex -16.453785957808062 -204.43719939825098 5.0
    vertex -16.496339680248482 -184.93719840375124 5.0
  endloop
endfacet
facet normal 0.0 0.0 1.0
  outer loop
    vertex -16.496339680248482 -184.93719840375124 5.0
    vertex -16.453785957808062 -204.43719939825098 5.0
    vertex -16.384638645544445 -188.11273128395382 5.0
  endloop
endfacet
facet normal 0.0 0.0 1.0
  outer loop
    vertex -16.496339680248482 -184.93719840375124 5.0
    vertex -16.384638645544445 -188.11273128395382 5.0
    vertex -16.342085455018903 -186.0914547339906 5.0
  endloop
endfacet
facet normal 0.0 0.0 1.0
  outer loop
    vertex -16.496339680248482 -184.93719840375124 5.0
    vertex -16.342085455018903 -186.0914547339906 5.0
    vertex -16.27825566923059 -185.55953985242132 5.0
  endloop
endfacet
facet normal 0.0 0.0 1.0
  outer loop
    vertex -16.384638645544445 -188.11273128395382 5.0
    vertex -16.453785957808062 -204.43719939825098 5.0
    vertex -16.384638645544445 -199.45315655901075 5.0
  endloop
endfacet
facet normal 0.0 0.0 1.0
  outer loop
    vertex -16.384638645544445 -188.11273128395382 5.0
    vertex -16.384638645544445 -199.45315655901075 5.0
    vertex -16.384638645544445 -199.11273103480642 5.0
  endloop
endfacet
facet normal 0.0 0.0 1.0
  outer loop
    vertex -16.384638645544445 -188.11273128395382 5.0
    vertex -16.384638645544445 -199.11273103480642 5.0
    vertex -16.384638645544445 -191.81485885967598 5.0
  endloop
endfacet
facet normal 0.0 0.0 1.0
  outer loop
    vertex -21.459106615715317 -205.9318798165245 5.0
    vertex -21.682510865974415 -204.77230537470348 5.0
    vertex -21.70378746123718 -205.21911387522167 5.0
  endloop
endfacet
facet normal 0.0 0.0 1.0
  outer loop
    vertex -21.682510865974415 -204.77230537470348 5.0
    vertex -21.459106615715317 -205.9318798165245 5.0
    vertex -21.554851294397785 -200.53826291741208 5.0
  endloop
endfacet
facet normal 0.0 0.0 1.0
  outer loop
    vertex -21.554851294397785 -200.53826291741208 5.0
    vertex -21.459106615715317 -205.9318798165245 5.0
    vertex -21.554851294397785 -199.11273103480642 5.0
  endloop
endfacet
facet normal 0.0 0.0 1.0
  outer loop
    vertex -21.554851294397785 -199.11273103480642 5.0
    vertex -21.459106615715317 -205.9318798165245 5.0
    vertex -21.554851294397785 -191.81485885967598 5.0
  endloop
endfacet
facet normal 0.0 0.0 1.0
  outer loop
    vertex -21.554851294397785 -191.81485885967598 5.0
    vertex -21.459106615715317 -205.9318798165245 5.0
    vertex -21.554851294397785 -190.43188016759586 5.0
  endloop
endfacet
facet normal 0.0 0.0 1.0
  outer loop
    vertex -21.554851294397785 -190.43188016759586 5.0
    vertex -21.459106615715317 -205.9318798165245 5.0
    vertex -21.522938050439762 -186.3254970691151 5.0
  endloop
endfacet
facet normal 0.0 0.0 1.0
  outer loop
    vertex -21.522938050439762 -186.3254970691151 5.0
    vertex -21.459106615715317 -205.9318798165245 5.0
    vertex -21.190328795251197 -195.39034368429827 4.999999999999995
  endloop
endfacet
facet normal 0.0 0.0 1.0
  outer loop
    vertex -21.522938050439762 -186.3254970691151 5.0
    vertex -21.190328795251197 -195.39034368429827 4.999999999999995
    vertex -20.53357472178478 -185.68719942399792 5.0
  endloop
endfacet
facet normal 0.0 0.0 1.0
  outer loop
    vertex -20.53357472178478 -185.68719942399792 5.0
    vertex -21.190328795251197 -195.39034368429827 4.999999999999995
    vertex -21.11536561308715 -194.82094178507273 4.999999999999995
  endloop
endfacet
facet normal 0.0 0.0 1.0
  outer loop
    vertex -20.53357472178478 -185.68719942399792 5.0
    vertex -21.11536561308715 -194.82094178507273 4.999999999999995
    vertex -20.895584683576967 -194.29034368429828 4.999999999999995
  endloop
endfacet
facet normal 0.0 0.0 1.0
  outer loop
    vertex -20.53357472178478 -185.68719942399792 5.0
    vertex -20.895584683576967 -194.29034368429828 4.999999999999995
    vertex -20.545963713861603 -193.8347087656879 4.999999999999995
  endloop
endfacet
facet normal 0.0 0.0 1.0
  outer loop
    vertex -20.53357472178478 -185.68719942399792 5.0
    vertex -20.545963713861603 -193.8347087656879 4.999999999999995
    vertex -20.0903287952512 -193.48508779597253 4.999999999999995
  endloop
endfacet
facet normal 0.0 0.0 1.0
  outer loop
    vertex -20.53357472178478 -185.68719942399792 5.0
    vertex -20.0903287952512 -193.48508779597253 4.999999999999995
    vertex -18.661234338660936 -185.03826326848343 5.0
  endloop
endfacet
facet normal 0.0 0.0 1.0
  outer loop
    vertex -18.661234338660936 -185.03826326848343 5.0
    vertex -20.0903287952512 -193.48508779597253 4.999999999999995
    vertex -19.55973069447674 -193.26530686646234 4.999999999999995
  endloop
endfacet
facet normal 0.0 0.0 1.0
  outer loop
    vertex -18.661234338660936 -185.03826326848343 5.0
    vertex -19.55973069447674 -193.26530686646234 4.999999999999995
    vertex -18.9903287952512 -193.19034368429828 4.999999999999995
  endloop
endfacet
facet normal 0.0 0.0 1.0
  outer loop
    vertex -18.661234338660936 -185.03826326848343 5.0
    vertex -18.9903287952512 -193.19034368429828 4.999999999999995
    vertex -18.42092689602566 -193.26530686646234 4.999999999999995
  endloop
endfacet
facet normal 0.0 0.0 1.0
  outer loop
    vertex -18.661234338660936 -185.03826326848343 5.0
    vertex -18.42092689602566 -193.26530686646234 4.999999999999995
    vertex -17.1505960750042 -184.72975263717325 5.0
  endloop
endfacet
facet normal 0.0 0.0 1.0
  outer loop
    vertex -17.1505960750042 -184.72975263717325 5.0
    vertex -18.42092689602566 -193.26530686646234 4.999999999999995
    vertex -17.890328795251204 -193.48508779597253 4.999999999999995
  endloop
endfacet
facet normal 0.0 0.0 1.0
  outer loop
    vertex -17.1505960750042 -184.72975263717325 5.0
    vertex -17.890328795251204 -193.48508779597253 4.999999999999995
    vertex -17.4346938766408 -193.83470876568788 4.999999999999995
  endloop
endfacet
facet normal 0.0 0.0 1.0
  outer loop
    vertex -17.1505960750042 -184.72975263717325 5.0
    vertex -17.4346938766408 -193.83470876568788 4.999999999999995
    vertex -17.085072906925443 -194.29034368429828 4.999999999999995
  endloop
endfacet
facet normal 0.0 0.0 1.0
  outer loop
    vertex -17.1505960750042 -184.72975263717325 5.0
    vertex -17.085072906925443 -194.29034368429828 4.999999999999995
    vertex -16.496339680248482 -184.93719840375124 5.0
  endloop
endfacet
facet normal 0.0 0.0 1.0
  outer loop
    vertex -16.496339680248482 -184.93719840375124 5.0
    vertex -17.085072906925443 -194.29034368429828 4.999999999999995
    vertex -16.865291977415257 -194.82094178507273 4.999999999999995
  endloop
endfacet
facet normal 0.0 0.0 1.0
  outer loop
    vertex -16.496339680248482 -184.93719840375124 5.0
    vertex -16.865291977415257 -194.82094178507273 4.999999999999995
    vertex -16.790328795251206 -195.39034368429827 4.999999999999995
  endloop
endfacet
facet normal 0.0 0.0 1.0
  outer loop
    vertex -21.810170437551037 -187.49571002133345 5.0
    vertex -21.522938050439762 -186.3254970691151 5.0
    vertex -21.85272362807658 -187.04890152081526 5.0
  endloop
endfacet
facet normal 0.0 0.0 1.0
  outer loop
    vertex -21.522938050439762 -186.3254970691151 5.0
    vertex -21.810170437551037 -187.49571002133345 5.0
    vertex -21.554851294397785 -190.43188016759586 5.0
  endloop
endfacet
facet normal 0.0 0.0 1.0
  outer loop
    vertex -29.161234100838403 -197.84677361667153 5.0
    vertex -28.991021338736235 -195.5914545188178 5.0
    vertex -29.44846813688581 -197.26166724694534 5.0
  endloop
endfacet
facet normal 0.0 0.0 1.0
  outer loop
    vertex -28.991021338736235 -195.5914545188178 5.0
    vertex -29.161234100838403 -197.84677361667153 5.0
    vertex -28.46974475479835 -198.0914544621934 5.0
  endloop
endfacet
facet normal 0.0 0.0 1.0
  outer loop
    vertex -28.991021338736235 -195.5914545188178 5.0
    vertex -28.46974475479835 -198.0914544621934 5.0
    vertex -28.214425611645094 -193.70847583806258 5.0
  endloop
endfacet
facet normal 0.0 0.0 1.0
  outer loop
    vertex -28.214425611645094 -193.70847583806258 5.0
    vertex -28.46974475479835 -198.0914544621934 5.0
    vertex -28.00165965901739 -198.07017786693063 5.0
  endloop
endfacet
facet normal 0.0 0.0 1.0
  outer loop
    vertex -28.214425611645094 -193.70847583806258 5.0
    vertex -28.00165965901739 -198.07017786693063 5.0
    vertex -27.58676642373377 -192.97443207809275 5.0
  endloop
endfacet
facet normal 0.0 0.0 1.0
  outer loop
    vertex -27.58676642373377 -192.97443207809275 5.0
    vertex -28.00165965901739 -198.07017786693063 5.0
    vertex -23.767617201725965 -197.942518295354 5.0
  endloop
endfacet
facet normal 0.0 0.0 1.0
  outer loop
    vertex -27.58676642373377 -192.97443207809275 5.0
    vertex -23.767617201725965 -197.942518295354 5.0
    vertex -26.810170324302213 -192.72975245597513 5.0
  endloop
endfacet
facet normal 0.0 0.0 1.0
  outer loop
    vertex -26.810170324302213 -192.72975245597513 5.0
    vertex -23.767617201725965 -197.942518295354 5.0
    vertex -26.171872466419085 -192.77230564650066 5.0
  endloop
endfacet
facet normal 0.0 0.0 1.0
  outer loop
    vertex -26.171872466419085 -192.77230564650066 5.0
    vertex -23.767617201725965 -197.942518295354 5.0
    vertex -23.25697891541946 -192.9637950038656 5.0
  endloop
endfacet
facet normal 0.0 0.0 1.0
  outer loop
    vertex -23.25697891541946 -192.9637950038656 5.0
    vertex -23.767617201725965 -197.942518295354 5.0
    vertex -22.725064033850188 -197.942518295354 5.0
  endloop
endfacet
facet normal 0.0 0.0 1.0
  outer loop
    vertex -23.25697891541946 -192.9637950038656 5.0
    vertex -22.725064033850188 -197.942518295354 5.0
    vertex -22.725064033850188 -192.9637950038656 5.0
  endloop
endfacet
facet normal 0.0 0.0 1.0
  outer loop
    vertex -22.725064033850188 -192.9637950038656 5.0
    vertex -22.725064033850188 -197.942518295354 5.0
    vertex -21.815487964026342 -198.20315496498256 5.0
  endloop
endfacet
facet normal 0.0 0.0 1.0
  outer loop
    vertex -22.725064033850188 -192.9637950038656 5.0
    vertex -21.815487964026342 -198.20315496498256 5.0
    vertex -22.682510843324646 -192.9637950038656 5.0
  endloop
endfacet
facet normal 0.0 0.0 1.0
  outer loop
    vertex -22.682510843324646 -192.9637950038656 5.0
    vertex -21.815487964026342 -198.20315496498256 5.0
    vertex -21.82612642123219 -192.67656240398838 5.0
  endloop
endfacet
facet normal 0.0 0.0 1.0
  outer loop
    vertex -21.82612642123219 -192.67656240398838 5.0
    vertex -21.815487964026342 -198.20315496498256 5.0
    vertex -21.554851294397785 -191.81485885967598 5.0
  endloop
endfacet
facet normal 0.0 0.0 1.0
  outer loop
    vertex -21.554851294397785 -191.81485885967598 5.0
    vertex -21.815487964026342 -198.20315496498256 5.0
    vertex -21.554851294397785 -199.11273103480642 5.0
  endloop
endfacet
facet normal 0.0 -1.0 0.0
  outer loop
    vertex -22.725064033850188 -197.942518295354 5.0
    vertex -23.767617201725965 -197.942518295354 0.0
    vertex -22.725064033850188 -197.942518295354 0.0
  endloop
endfacet
facet normal 0.0 -1.0 0.0
  outer loop
    vertex -23.767617201725965 -197.942518295354 0.0
    vertex -22.725064033850188 -197.942518295354 5.0
    vertex -23.767617201725965 -197.942518295354 5.0
  endloop
endfacet
facet normal 0.030137058563539192 -0.9995457756907075 0.0
  outer loop
    vertex -23.767617201725965 -197.942518295354 5.0
    vertex -28.00165965901739 -198.07017786693063 0.0
    vertex -23.767617201725965 -197.942518295354 0.0
  endloop
endfacet
facet normal 0.030137058563539192 -0.9995457756907075 0.0
  outer loop
    vertex -28.00165965901739 -198.07017786693063 0.0
    vertex -23.767617201725965 -197.942518295354 5.0
    vertex -28.00165965901739 -198.07017786693063 5.0
  endloop
endfacet
facet normal 0.045407660918649395 -0.9989685402102996 0.0
  outer loop
    vertex -28.00165965901739 -198.07017786693063 5.0
    vertex -28.46974475479835 -198.0914544621934 0.0
    vertex -28.00165965901739 -198.07017786693063 0.0
  endloop
endfacet
facet normal 0.045407660918649395 -0.9989685402102996 0.0
  outer loop
    vertex -28.46974475479835 -198.0914544621934 0.0
    vertex -28.00165965901739 -198.07017786693063 5.0
    vertex -28.46974475479835 -198.0914544621934 5.0
  endloop
endfacet
facet normal -0.3335786504388541 -0.9427222729793716 0.0
  outer loop
    vertex -28.46974475479835 -198.0914544621934 5.0
    vertex -29.161234100838403 -197.84677361667153 0.0
    vertex -28.46974475479835 -198.0914544621934 0.0
  endloop
endfacet
facet normal -0.3335786504388541 -0.9427222729793716 0.0
  outer loop
    vertex -29.161234100838403 -197.84677361667153 0.0
    vertex -28.46974475479835 -198.0914544621934 5.0
    vertex -29.161234100838403 -197.84677361667153 5.0
  endloop
endfacet
facet normal -0.8976676105617707 -0.440673190639414 0.0
  outer loop
    vertex -29.44846813688581 -197.26166724694534 5.0
    vertex -29.161234100838403 -197.84677361667153 0.0
    vertex -29.161234100838403 -197.84677361667153 5.0
  endloop
endfacet
facet normal -0.8976676105617707 -0.440673190639414 0.0
  outer loop
    vertex -29.161234100838403 -197.84677361667153 0.0
    vertex -29.44846813688581 -197.26166724694534 5.0
    vertex -29.44846813688581 -197.26166724694534 0.0
  endloop
endfacet
facet normal -0.9644797295775297 0.26415686861040627 0.0
  outer loop
    vertex -28.991021338736235 -195.5914545188178 5.0
    vertex -29.44846813688581 -197.26166724694534 0.0
    vertex -29.44846813688581 -197.26166724694534 5.0
  endloop
endfacet
facet normal -0.9644797295775297 0.26415686861040627 0.0
  outer loop
    vertex -29.44846813688581 -197.26166724694534 0.0
    vertex -28.991021338736235 -195.5914545188178 5.0
    vertex -28.991021338736235 -195.5914545188178 0.0
  endloop
endfacet
facet normal -0.9244616141358674 0.38127512899388893 0.0
  outer loop
    vertex -28.214425611645094 -193.70847583806258 5.0
    vertex -28.991021338736235 -195.5914545188178 0.0
    vertex -28.991021338736235 -195.5914545188178 5.0
  endloop
endfacet
facet normal -0.9244616141358674 0.38127512899388893 0.0
  outer loop
    vertex -28.991021338736235 -195.5914545188178 0.0
    vertex -28.214425611645094 -193.70847583806258 5.0
    vertex -28.214425611645094 -193.70847583806258 0.0
  endloop
endfacet
facet normal -0.7600343138692773 0.649882944645616 0.0
  outer loop
    vertex -27.58676642373377 -192.97443207809275 5.0
    vertex -28.214425611645094 -193.70847583806258 0.0
    vertex -28.214425611645094 -193.70847583806258 5.0
  endloop
endfacet
facet normal -0.7600343138692773 0.649882944645616 0.0
  outer loop
    vertex -28.214425611645094 -193.70847583806258 0.0
    vertex -27.58676642373377 -192.97443207809275 5.0
    vertex -27.58676642373377 -192.97443207809275 0.0
  endloop
endfacet
facet normal -0.30050450530768363 0.9537803952114893 0.0
  outer loop
    vertex -27.58676642373377 -192.97443207809275 5.0
    vertex -26.810170324302213 -192.72975245597513 0.0
    vertex -27.58676642373377 -192.97443207809275 0.0
  endloop
endfacet
facet normal -0.30050450530768363 0.9537803952114893 0.0
  outer loop
    vertex -26.810170324302213 -192.72975245597513 0.0
    vertex -27.58676642373377 -192.97443207809275 5.0
    vertex -26.810170324302213 -192.72975245597513 5.0
  endloop
endfacet
facet normal 0.0665190105237731 0.997785157856609 0.0
  outer loop
    vertex -26.810170324302213 -192.72975245597513 5.0
    vertex -26.171872466419085 -192.77230564650066 0.0
    vertex -26.810170324302213 -192.72975245597513 0.0
  endloop
endfacet
facet normal 0.0665190105237731 0.997785157856609 0.0
  outer loop
    vertex -26.171872466419085 -192.77230564650066 0.0
    vertex -26.810170324302213 -192.72975245597513 5.0
    vertex -26.171872466419085 -192.77230564650066 5.0
  endloop
endfacet
facet normal 0.06555213366563079 0.9978491457990448 0.0
  outer loop
    vertex -26.171872466419085 -192.77230564650066 5.0
    vertex -23.25697891541946 -192.9637950038656 0.0
    vertex -26.171872466419085 -192.77230564650066 0.0
  endloop
endfacet
facet normal 0.06555213366563079 0.9978491457990448 0.0
  outer loop
    vertex -23.25697891541946 -192.9637950038656 0.0
    vertex -26.171872466419085 -192.77230564650066 5.0
    vertex -23.25697891541946 -192.9637950038656 5.0
  endloop
endfacet
facet normal 0.0 1.0 0.0
  outer loop
    vertex -23.25697891541946 -192.9637950038656 5.0
    vertex -22.725064033850188 -192.9637950038656 0.0
    vertex -23.25697891541946 -192.9637950038656 0.0
  endloop
endfacet
facet normal 0.0 1.0 0.0
  outer loop
    vertex -22.725064033850188 -192.9637950038656 0.0
    vertex -23.25697891541946 -192.9637950038656 5.0
    vertex -22.725064033850188 -192.9637950038656 5.0
  endloop
endfacet
facet normal 0.0 1.0 0.0
  outer loop
    vertex -22.725064033850188 -192.9637950038656 5.0
    vertex -22.682510843324646 -192.9637950038656 0.0
    vertex -22.725064033850188 -192.9637950038656 0.0
  endloop
endfacet
facet normal 0.0 1.0 0.0
  outer loop
    vertex -22.682510843324646 -192.9637950038656 0.0
    vertex -22.725064033850188 -192.9637950038656 5.0
    vertex -22.682510843324646 -192.9637950038656 5.0
  endloop
endfacet
facet normal -0.3179919327922462 0.9480934187510488 0.0
  outer loop
    vertex -22.682510843324646 -192.9637950038656 5.0
    vertex -21.82612642123219 -192.67656240398838 0.0
    vertex -22.682510843324646 -192.9637950038656 0.0
  endloop
endfacet
facet normal -0.3179919327922462 0.9480934187510488 0.0
  outer loop
    vertex -21.82612642123219 -192.67656240398838 0.0
    vertex -22.682510843324646 -192.9637950038656 5.0
    vertex -21.82612642123219 -192.67656240398838 5.0
  endloop
endfacet
facet normal -0.9538498578668774 0.30028394670267966 0.0
  outer loop
    vertex -21.554851294397785 -191.81485885967598 5.0
    vertex -21.82612642123219 -192.67656240398838 0.0
    vertex -21.82612642123219 -192.67656240398838 5.0
  endloop
endfacet
facet normal -0.9538498578668774 0.30028394670267966 0.0
  outer loop
    vertex -21.82612642123219 -192.67656240398838 0.0
    vertex -21.554851294397785 -191.81485885967598 5.0
    vertex -21.554851294397785 -191.81485885967598 0.0
  endloop
endfacet
facet normal -1.0 0.0 0.0
  outer loop
    vertex -21.554851294397785 -190.43188016759586 5.0
    vertex -21.554851294397785 -191.81485885967598 0.0
    vertex -21.554851294397785 -191.81485885967598 5.0
  endloop
endfacet
facet normal -1.0 0.0 0.0
  outer loop
    vertex -21.554851294397785 -191.81485885967598 0.0
    vertex -21.554851294397785 -190.43188016759586 5.0
    vertex -21.554851294397785 -190.43188016759586 0.0
  endloop
endfacet
facet normal -0.996240588195683 -0.08662961636484179 0.0
  outer loop
    vertex -21.810170437551037 -187.49571002133345 5.0
    vertex -21.554851294397785 -190.43188016759586 0.0
    vertex -21.554851294397785 -190.43188016759586 5.0
  endloop
endfacet
facet normal -0.996240588195683 -0.08662961636484179 0.0
  outer loop
    vertex -21.554851294397785 -190.43188016759586 0.0
    vertex -21.810170437551037 -187.49571002133345 5.0
    vertex -21.810170437551037 -187.49571002133345 0.0
  endloop
endfacet
facet normal -0.9954954725939523 -0.09480909262799427 0.0
  outer loop
    vertex -21.85272362807658 -187.04890152081526 5.0
    vertex -21.810170437551037 -187.49571002133345 0.0
    vertex -21.810170437551037 -187.49571002133345 5.0
  endloop
endfacet
facet normal -0.9954954725939523 -0.09480909262799427 0.0
  outer loop
    vertex -21.810170437551037 -187.49571002133345 0.0
    vertex -21.85272362807658 -187.04890152081526 5.0
    vertex -21.85272362807658 -187.04890152081526 0.0
  endloop
endfacet
facet normal -0.9099084948574482 0.4148090295379951 0.0
  outer loop
    vertex -21.522938050439762 -186.3254970691151 5.0
    vertex -21.85272362807658 -187.04890152081526 0.0
    vertex -21.85272362807658 -187.04890152081526 5.0
  endloop
endfacet
facet normal -0.9099084948574482 0.4148090295379951 0.0
  outer loop
    vertex -21.85272362807658 -187.04890152081526 0.0
    vertex -21.522938050439762 -186.3254970691151 5.0
    vertex -21.522938050439762 -186.3254970691151 0.0
  endloop
endfacet
facet normal -0.5421261042328019 0.8402971421523252 0.0
  outer loop
    vertex -21.522938050439762 -186.3254970691151 5.0
    vertex -20.53357472178478 -185.68719942399792 0.0
    vertex -21.522938050439762 -186.3254970691151 0.0
  endloop
endfacet
facet normal -0.5421261042328019 0.8402971421523252 0.0
  outer loop
    vertex -20.53357472178478 -185.68719942399792 0.0
    vertex -21.522938050439762 -186.3254970691151 5.0
    vertex -20.53357472178478 -185.68719942399792 5.0
  endloop
endfacet
facet normal -0.32747931400025576 0.9448583485908997 0.0
  outer loop
    vertex -20.53357472178478 -185.68719942399792 5.0
    vertex -18.661234338660936 -185.03826326848343 0.0
    vertex -20.53357472178478 -185.68719942399792 0.0
  endloop
endfacet
facet normal -0.32747931400025576 0.9448583485908997 0.0
  outer loop
    vertex -18.661234338660936 -185.03826326848343 0.0
    vertex -20.53357472178478 -185.68719942399792 5.0
    vertex -18.661234338660936 -185.03826326848343 5.0
  endloop
endfacet
facet normal -0.2000951927707382 0.9797764611532781 0.0
  outer loop
    vertex -18.661234338660936 -185.03826326848343 5.0
    vertex -17.1505960750042 -184.72975263717325 0.0
    vertex -18.661234338660936 -185.03826326848343 0.0
  endloop
endfacet
facet normal -0.2000951927707382 0.9797764611532781 0.0
  outer loop
    vertex -17.1505960750042 -184.72975263717325 0.0
    vertex -18.661234338660936 -185.03826326848343 5.0
    vertex -17.1505960750042 -184.72975263717325 5.0
  endloop
endfacet
facet normal 0.30224202984547277 0.9532312182229914 0.0
  outer loop
    vertex -17.1505960750042 -184.72975263717325 5.0
    vertex -16.496339680248482 -184.93719840375124 0.0
    vertex -17.1505960750042 -184.72975263717325 0.0
  endloop
endfacet
facet normal 0.30224202984547277 0.9532312182229914 0.0
  outer loop
    vertex -16.496339680248482 -184.93719840375124 0.0
    vertex -17.1505960750042 -184.72975263717325 5.0
    vertex -16.496339680248482 -184.93719840375124 5.0
  endloop
endfacet
facet normal 0.9437332241182126 0.33070772850878993 0.0
  outer loop
    vertex -16.496339680248482 -184.93719840375124 0.0
    vertex -16.27825566923059 -185.55953985242132 5.0
    vertex -16.27825566923059 -185.55953985242132 0.0
  endloop
endfacet
facet normal 0.9437332241182126 0.33070772850878993 0.0
  outer loop
    vertex -16.27825566923059 -185.55953985242132 5.0
    vertex -16.496339680248482 -184.93719840375124 0.0
    vertex -16.496339680248482 -184.93719840375124 5.0
  endloop
endfacet
facet normal 0.9928768384869223 -0.11914522061842878 0.0
  outer loop
    vertex -16.27825566923059 -185.55953985242132 0.0
    vertex -16.342085455018903 -186.0914547339906 5.0
    vertex -16.342085455018903 -186.0914547339906 0.0
  endloop
endfacet
facet normal 0.9928768384869223 -0.11914522061842878 0.0
  outer loop
    vertex -16.342085455018903 -186.0914547339906 5.0
    vertex -16.27825566923059 -185.55953985242132 0.0
    vertex -16.27825566923059 -185.55953985242132 5.0
  endloop
endfacet
facet normal 0.9997784669888634 -0.02104796772608107 0.0
  outer loop
    vertex -16.342085455018903 -186.0914547339906 0.0
    vertex -16.384638645544445 -188.11273128395382 5.0
    vertex -16.384638645544445 -188.11273128395382 0.0
  endloop
endfacet
facet normal 0.9997784669888634 -0.02104796772608107 0.0
  outer loop
    vertex -16.384638645544445 -188.11273128395382 5.0
    vertex -16.342085455018903 -186.0914547339906 0.0
    vertex -16.342085455018903 -186.0914547339906 5.0
  endloop
endfacet
facet normal 1.0 0.0 0.0
  outer loop
    vertex -16.384638645544445 -188.11273128395382 0.0
    vertex -16.384638645544445 -191.81485885967598 5.0
    vertex -16.384638645544445 -191.81485885967598 0.0
  endloop
endfacet
facet normal 1.0 0.0 0.0
  outer loop
    vertex -16.384638645544445 -191.81485885967598 5.0
    vertex -16.384638645544445 -188.11273128395382 0.0
    vertex -16.384638645544445 -188.11273128395382 5.0
  endloop
endfacet
facet normal 0.9420086867766986 0.3355884891310188 0.0
  outer loop
    vertex -16.384638645544445 -191.81485885967598 0.0
    vertex -16.081448572624392 -192.6659240531655 5.0
    vertex -16.081448572624392 -192.6659240531655 0.0
  endloop
endfacet
facet normal 0.9420086867766986 0.3355884891310188 0.0
  outer loop
    vertex -16.081448572624392 -192.6659240531655 5.0
    vertex -16.384638645544445 -191.81485885967598 0.0
    vertex -16.384638645544445 -191.81485885967598 5.0
  endloop
endfacet
facet normal 0.32491578720919856 0.9457429519812595 0.0
  outer loop
    vertex -16.081448572624392 -192.6659240531655 5.0
    vertex -15.214425906092043 -192.9637950038656 0.0
    vertex -16.081448572624392 -192.6659240531655 0.0
  endloop
endfacet
facet normal 0.32491578720919856 0.9457429519812595 0.0
  outer loop
    vertex -15.214425906092043 -192.9637950038656 0.0
    vertex -16.081448572624392 -192.6659240531655 5.0
    vertex -15.214425906092043 -192.9637950038656 5.0
  endloop
endfacet
facet normal 0.0 1.0 0.0
  outer loop
    vertex -15.214425906092043 -192.9637950038656 5.0
    vertex -11.916553640362544 -192.9637950038656 0.0
    vertex -15.214425906092043 -192.9637950038656 0.0
  endloop
endfacet
facet normal 0.0 1.0 0.0
  outer loop
    vertex -11.916553640362544 -192.9637950038656 0.0
    vertex -15.214425906092043 -192.9637950038656 5.0
    vertex -11.916553640362544 -192.9637950038656 5.0
  endloop
endfacet
facet normal -0.021271781490575552 0.9997737300570652 0.0
  outer loop
    vertex -11.916553640362544 -192.9637950038656 5.0
    vertex -9.916553685662072 -192.92124181334006 0.0
    vertex -11.916553640362544 -192.9637950038656 0.0
  endloop
endfacet
facet normal -0.021271781490575552 0.9997737300570652 0.0
  outer loop
    vertex -9.916553685662072 -192.92124181334006 0.0
    vertex -11.916553640362544 -192.9637950038656 5.0
    vertex -9.916553685662072 -192.92124181334006 5.0
  endloop
endfacet
facet normal -0.11462410798512936 0.9934089358711312 0.0
  outer loop
    vertex -9.916553685662072 -192.92124181334006 5.0
    vertex -9.36336220883003 -192.85741202755176 0.0
    vertex -9.916553685662072 -192.92124181334006 0.0
  endloop
endfacet
facet normal -0.11462410798512936 0.9934089358711312 0.0
  outer loop
    vertex -9.36336220883003 -192.85741202755176 0.0
    vertex -9.916553685662072 -192.92124181334006 5.0
    vertex -9.36336220883003 -192.85741202755176 5.0
  endloop
endfacet
facet normal 0.32349521316172114 0.946229806686226 0.0
  outer loop
    vertex -9.36336220883003 -192.85741202755176 5.0
    vertex -8.741020760159957 -193.0701769163497 0.0
    vertex -9.36336220883003 -192.85741202755176 0.0
  endloop
endfacet
facet normal 0.32349521316172114 0.946229806686226 0.0
  outer loop
    vertex -8.741020760159957 -193.0701769163497 0.0
    vertex -9.36336220883003 -192.85741202755176 5.0
    vertex -8.741020760159957 -193.0701769163497 5.0
  endloop
endfacet
facet normal 0.9510346744370256 0.3090842086203383 0.0
  outer loop
    vertex -8.741020760159957 -193.0701769163497 0.0
    vertex -8.533574993581961 -193.70847583806258 5.0
    vertex -8.533574993581961 -193.70847583806258 0.0
  endloop
endfacet
facet normal 0.9510346744370256 0.3090842086203383 0.0
  outer loop
    vertex -8.533574993581961 -193.70847583806258 5.0
    vertex -8.741020760159957 -193.0701769163497 0.0
    vertex -8.741020760159957 -193.0701769163497 5.0
  endloop
endfacet
facet normal 0.9767765206188558 -0.2142606561357496 0.0
  outer loop
    vertex -8.533574993581961 -193.70847583806258 0.0
    vertex -8.895277113049069 -195.35741197092733 5.0
    vertex -8.895277113049069 -195.35741197092733 0.0
  endloop
endfacet
facet normal 0.9767765206188558 -0.2142606561357496 0.0
  outer loop
    vertex -8.895277113049069 -195.35741197092733 5.0
    vertex -8.533574993581961 -193.70847583806258 0.0
    vertex -8.533574993581961 -193.70847583806258 5.0
  endloop
endfacet
facet normal 0.9299189394990457 -0.36776455234425487 0.0
  outer loop
    vertex -8.895277113049069 -195.35741197092733 0.0
    vertex -9.639957947246051 -197.24039065168256 5.0
    vertex -9.639957947246051 -197.24039065168256 0.0
  endloop
endfacet
facet normal 0.9299189394990457 -0.36776455234425487 0.0
  outer loop
    vertex -9.639957947246051 -197.24039065168256 5.0
    vertex -8.895277113049069 -195.35741197092733 0.0
    vertex -8.895277113049069 -195.35741197092733 5.0
  endloop
endfacet
facet normal 0.8020437098086654 -0.5972653409970761 0.0
  outer loop
    vertex -9.639957947246051 -197.24039065168256 0.0
    vertex -10.198468333532091 -197.9903918846952 5.0
    vertex -10.198468333532091 -197.9903918846952 0.0
  endloop
endfacet
facet normal 0.8020437098086654 -0.5972653409970761 0.0
  outer loop
    vertex -10.198468333532091 -197.9903918846952 5.0
    vertex -9.639957947246051 -197.24039065168256 0.0
    vertex -9.639957947246051 -197.24039065168256 5.0
  endloop
endfacet
facet normal 0.3569409088899844 -0.9341269654392769 0.0
  outer loop
    vertex -10.198468333532091 -197.9903918846952 5.0
    vertex -10.852723877223996 -198.24039062903282 0.0
    vertex -10.198468333532091 -197.9903918846952 0.0
  endloop
endfacet
facet normal 0.3569409088899844 -0.9341269654392769 0.0
  outer loop
    vertex -10.852723877223996 -198.24039062903282 0.0
    vertex -10.198468333532091 -197.9903918846952 5.0
    vertex -10.852723877223996 -198.24039062903282 5.0
  endloop
endfacet
facet normal -0.08771096560108252 -0.9961459664694355 0.0
  outer loop
    vertex -10.852723877223996 -198.24039062903282 5.0
    vertex -14.235702524004576 -197.942518295354 0.0
    vertex -10.852723877223996 -198.24039062903282 0.0
  endloop
endfacet
facet normal -0.08771096560108252 -0.9961459664694355 0.0
  outer loop
    vertex -14.235702524004576 -197.942518295354 0.0
    vertex -10.852723877223996 -198.24039062903282 5.0
    vertex -14.235702524004576 -197.942518295354 5.0
  endloop
endfacet
facet normal 0.0 -1.0 0.0
  outer loop
    vertex -14.235702524004576 -197.942518295354 5.0
    vertex -15.214425906092043 -197.942518295354 0.0
    vertex -14.235702524004576 -197.942518295354 0.0
  endloop
endfacet
facet normal 0.0 -1.0 0.0
  outer loop
    vertex -15.214425906092043 -197.942518295354 0.0
    vertex -14.235702524004576 -197.942518295354 5.0
    vertex -15.214425906092043 -197.942518295354 5.0
  endloop
endfacet
facet normal 0.26217120347985495 -0.9650213780357015 0.0
  outer loop
    vertex -15.214425906092043 -197.942518295354 5.0
    vertex -16.13464032673876 -198.19251661415967 0.0
    vertex -15.214425906092043 -197.942518295354 0.0
  endloop
endfacet
facet normal 0.26217120347985495 -0.9650213780357015 0.0
  outer loop
    vertex -16.13464032673876 -198.19251661415967 0.0
    vertex -15.214425906092043 -197.942518295354 5.0
    vertex -16.13464032673876 -198.19251661415967 5.0
  endloop
endfacet
facet normal 0.9650213780357021 -0.2621712034798536 0.0
  outer loop
    vertex -16.13464032673876 -198.19251661415967 0.0
    vertex -16.384638645544445 -199.11273103480642 5.0
    vertex -16.384638645544445 -199.11273103480642 0.0
  endloop
endfacet
facet normal 0.9650213780357021 -0.2621712034798536 0.0
  outer loop
    vertex -16.384638645544445 -199.11273103480642 5.0
    vertex -16.13464032673876 -198.19251661415967 0.0
    vertex -16.13464032673876 -198.19251661415967 5.0
  endloop
endfacet
facet normal 1.0 0.0 0.0
  outer loop
    vertex -16.384638645544445 -199.11273103480642 0.0
    vertex -16.384638645544445 -199.45315655901075 5.0
    vertex -16.384638645544445 -199.45315655901075 0.0
  endloop
endfacet
facet normal 1.0 0.0 0.0
  outer loop
    vertex -16.384638645544445 -199.45315655901075 5.0
    vertex -16.384638645544445 -199.11273103480642 0.0
    vertex -16.384638645544445 -199.11273103480642 5.0
  endloop
endfacet
facet normal 0.9981461553891549 0.060862570450558234 0.0
  outer loop
    vertex -16.384638645544445 -199.45315655901075 0.0
    vertex -16.171872692916732 -202.94251818210518 5.0
    vertex -16.171872692916732 -202.94251818210518 0.0
  endloop
endfacet
facet normal 0.9981461553891549 0.060862570450558234 0.0
  outer loop
    vertex -16.171872692916732 -202.94251818210518 5.0
    vertex -16.384638645544445 -199.45315655901075 0.0
    vertex -16.384638645544445 -199.45315655901075 5.0
  endloop
endfacet
facet normal 0.997785157856609 0.06651901052377313 0.0
  outer loop
    vertex -16.171872692916732 -202.94251818210518 0.0
    vertex -16.129319502391194 -203.58081603998832 5.0
    vertex -16.129319502391194 -203.58081603998832 0.0
  endloop
endfacet
facet normal 0.997785157856609 0.06651901052377313 0.0
  outer loop
    vertex -16.129319502391194 -203.58081603998832 5.0
    vertex -16.171872692916732 -202.94251818210518 0.0
    vertex -16.171872692916732 -202.94251818210518 5.0
  endloop
endfacet
facet normal 0.9351309316550048 -0.3543023294617784 0.0
  outer loop
    vertex -16.129319502391194 -203.58081603998832 0.0
    vertex -16.453785957808062 -204.43719939825098 5.0
    vertex -16.453785957808062 -204.43719939825098 0.0
  endloop
endfacet
facet normal 0.9351309316550048 -0.3543023294617784 0.0
  outer loop
    vertex -16.453785957808062 -204.43719939825098 5.0
    vertex -16.129319502391194 -203.58081603998832 0.0
    vertex -16.129319502391194 -203.58081603998832 5.0
  endloop
endfacet
facet normal 0.5820776550952498 -0.8131332015351579 0.0
  outer loop
    vertex -16.453785957808062 -204.43719939825098 5.0
    vertex -17.427191813420222 -205.1340074941706 0.0
    vertex -16.453785957808062 -204.43719939825098 0.0
  endloop
endfacet
facet normal 0.5820776550952498 -0.8131332015351579 0.0
  outer loop
    vertex -17.427191813420222 -205.1340074941706 0.0
    vertex -16.453785957808062 -204.43719939825098 5.0
    vertex -17.427191813420222 -205.1340074941706 5.0
  endloop
endfacet
facet normal 0.6087614290087049 0.7933533402912475 0.0
  outer loop
    vertex -20.545963713861603 -196.9459786029087 4.999999999999995
    vertex -20.0903287952512 -197.29559957262404 2.8999999999999946
    vertex -20.545963713861603 -196.9459786029087 2.8999999999999946
  endloop
endfacet
facet normal 0.6087614290087049 0.7933533402912475 0.0
  outer loop
    vertex -20.0903287952512 -197.29559957262404 2.8999999999999946
    vertex -20.545963713861603 -196.9459786029087 4.999999999999995
    vertex -20.0903287952512 -197.29559957262404 4.999999999999995
  endloop
endfacet
facet normal 0.1305261922200586 0.9914448613738096 0.0
  outer loop
    vertex -19.55973069447674 -197.51538050213424 4.999999999999995
    vertex -18.9903287952512 -197.5903436842983 2.8999999999999946
    vertex -19.55973069447674 -197.51538050213424 2.8999999999999946
  endloop
endfacet
facet normal 0.1305261922200586 0.9914448613738096 0.0
  outer loop
    vertex -18.9903287952512 -197.5903436842983 2.8999999999999946
    vertex -19.55973069447674 -197.51538050213424 4.999999999999995
    vertex -18.9903287952512 -197.5903436842983 4.999999999999995
  endloop
endfacet
facet normal 0.3826834323650871 0.923879532511288 0.0
  outer loop
    vertex -20.0903287952512 -197.29559957262404 4.999999999999995
    vertex -19.55973069447674 -197.51538050213424 2.8999999999999946
    vertex -20.0903287952512 -197.29559957262404 2.8999999999999946
  endloop
endfacet
facet normal 0.3826834323650871 0.923879532511288 0.0
  outer loop
    vertex -19.55973069447674 -197.51538050213424 2.8999999999999946
    vertex -20.0903287952512 -197.29559957262404 4.999999999999995
    vertex -19.55973069447674 -197.51538050213424 4.999999999999995
  endloop
endfacet
facet normal -0.7933533402912306 0.6087614290087267 0.0
  outer loop
    vertex -17.085072906925443 -196.4903436842983 4.999999999999995
    vertex -17.4346938766408 -196.94597860290867 2.8999999999999946
    vertex -17.4346938766408 -196.94597860290867 4.999999999999995
  endloop
endfacet
facet normal -0.7933533402912306 0.6087614290087267 0.0
  outer loop
    vertex -17.4346938766408 -196.94597860290867 2.8999999999999946
    vertex -17.085072906925443 -196.4903436842983 4.999999999999995
    vertex -17.085072906925443 -196.4903436842983 2.8999999999999946
  endloop
endfacet
facet normal 0.1305261922200586 -0.9914448613738096 0.0
  outer loop
    vertex -18.9903287952512 -193.19034368429828 4.999999999999995
    vertex -19.55973069447674 -193.26530686646234 2.8999999999999946
    vertex -18.9903287952512 -193.19034368429828 2.8999999999999946
  endloop
endfacet
facet normal 0.1305261922200586 -0.9914448613738096 0.0
  outer loop
    vertex -19.55973069447674 -193.26530686646234 2.8999999999999946
    vertex -18.9903287952512 -193.19034368429828 4.999999999999995
    vertex -19.55973069447674 -193.26530686646234 4.999999999999995
  endloop
endfacet
facet normal -0.1305261922200586 -0.9914448613738096 0.0
  outer loop
    vertex -18.42092689602566 -193.26530686646234 4.999999999999995
    vertex -18.9903287952512 -193.19034368429828 2.8999999999999946
    vertex -18.42092689602566 -193.26530686646234 2.8999999999999946
  endloop
endfacet
facet normal -0.1305261922200586 -0.9914448613738096 0.0
  outer loop
    vertex -18.9903287952512 -193.19034368429828 2.8999999999999946
    vertex -18.42092689602566 -193.26530686646234 4.999999999999995
    vertex -18.9903287952512 -193.19034368429828 4.999999999999995
  endloop
endfacet
facet normal -0.3826834323650871 0.923879532511288 0.0
  outer loop
    vertex -18.42092689602566 -197.51538050213424 4.999999999999995
    vertex -17.890328795251204 -197.29559957262404 2.8999999999999946
    vertex -18.42092689602566 -197.51538050213424 2.8999999999999946
  endloop
endfacet
facet normal -0.3826834323650871 0.923879532511288 0.0
  outer loop
    vertex -17.890328795251204 -197.29559957262404 2.8999999999999946
    vertex -18.42092689602566 -197.51538050213424 4.999999999999995
    vertex -17.890328795251204 -197.29559957262404 4.999999999999995
  endloop
endfacet
facet normal -0.1305261922200586 0.9914448613738096 0.0
  outer loop
    vertex -18.9903287952512 -197.5903436842983 4.999999999999995
    vertex -18.42092689602566 -197.51538050213424 2.8999999999999946
    vertex -18.9903287952512 -197.5903436842983 2.8999999999999946
  endloop
endfacet
facet normal -0.1305261922200586 0.9914448613738096 0.0
  outer loop
    vertex -18.42092689602566 -197.51538050213424 2.8999999999999946
    vertex -18.9903287952512 -197.5903436842983 4.999999999999995
    vertex -18.42092689602566 -197.51538050213424 4.999999999999995
  endloop
endfacet
facet normal 0.7933533402912258 -0.6087614290087329 0.0
  outer loop
    vertex -20.545963713861603 -193.8347087656879 2.8999999999999946
    vertex -20.895584683576967 -194.29034368429828 4.999999999999995
    vertex -20.895584683576967 -194.29034368429828 2.8999999999999946
  endloop
endfacet
facet normal 0.7933533402912258 -0.6087614290087329 0.0
  outer loop
    vertex -20.895584683576967 -194.29034368429828 4.999999999999995
    vertex -20.545963713861603 -193.8347087656879 2.8999999999999946
    vertex -20.545963713861603 -193.8347087656879 4.999999999999995
  endloop
endfacet
facet normal 0.9238795325112851 -0.382683432365094 0.0
  outer loop
    vertex -20.895584683576967 -194.29034368429828 2.8999999999999946
    vertex -21.11536561308715 -194.82094178507273 4.999999999999995
    vertex -21.11536561308715 -194.82094178507273 2.8999999999999946
  endloop
endfacet
facet normal 0.9238795325112851 -0.382683432365094 0.0
  outer loop
    vertex -21.11536561308715 -194.82094178507273 4.999999999999995
    vertex -20.895584683576967 -194.29034368429828 2.8999999999999946
    vertex -20.895584683576967 -194.29034368429828 4.999999999999995
  endloop
endfacet
facet normal 0.7933533402912453 0.6087614290087077 0.0
  outer loop
    vertex -20.89558468357696 -196.4903436842983 2.8999999999999946
    vertex -20.545963713861603 -196.9459786029087 4.999999999999995
    vertex -20.545963713861603 -196.9459786029087 2.8999999999999946
  endloop
endfacet
facet normal 0.7933533402912453 0.6087614290087077 0.0
  outer loop
    vertex -20.545963713861603 -196.9459786029087 4.999999999999995
    vertex -20.89558468357696 -196.4903436842983 2.8999999999999946
    vertex -20.89558468357696 -196.4903436842983 4.999999999999995
  endloop
endfacet
facet normal 0.3826834323650871 -0.923879532511288 0.0
  outer loop
    vertex -19.55973069447674 -193.26530686646234 4.999999999999995
    vertex -20.0903287952512 -193.48508779597253 2.8999999999999946
    vertex -19.55973069447674 -193.26530686646234 2.8999999999999946
  endloop
endfacet
facet normal 0.3826834323650871 -0.923879532511288 0.0
  outer loop
    vertex -20.0903287952512 -193.48508779597253 2.8999999999999946
    vertex -19.55973069447674 -193.26530686646234 4.999999999999995
    vertex -20.0903287952512 -193.48508779597253 4.999999999999995
  endloop
endfacet
facet normal 0.9238795325112817 0.38268343236510244 0.0
  outer loop
    vertex -21.11536561308715 -195.95974558352384 2.8999999999999946
    vertex -20.89558468357696 -196.4903436842983 4.999999999999995
    vertex -20.89558468357696 -196.4903436842983 2.8999999999999946
  endloop
endfacet
facet normal 0.9238795325112817 0.38268343236510244 0.0
  outer loop
    vertex -20.89558468357696 -196.4903436842983 4.999999999999995
    vertex -21.11536561308715 -195.95974558352384 2.8999999999999946
    vertex -21.11536561308715 -195.95974558352384 4.999999999999995
  endloop
endfacet
facet normal -0.9238795325112851 -0.382683432365094 0.0
  outer loop
    vertex -17.085072906925443 -194.29034368429828 4.999999999999995
    vertex -16.865291977415257 -194.82094178507273 2.8999999999999946
    vertex -16.865291977415257 -194.82094178507273 4.999999999999995
  endloop
endfacet
facet normal -0.9238795325112851 -0.382683432365094 0.0
  outer loop
    vertex -16.865291977415257 -194.82094178507273 2.8999999999999946
    vertex -17.085072906925443 -194.29034368429828 4.999999999999995
    vertex -17.085072906925443 -194.29034368429828 2.8999999999999946
  endloop
endfacet
facet normal -0.9238795325112851 0.382683432365094 0.0
  outer loop
    vertex -16.865291977415257 -195.95974558352384 4.999999999999995
    vertex -17.085072906925443 -196.4903436842983 2.8999999999999946
    vertex -17.085072906925443 -196.4903436842983 4.999999999999995
  endloop
endfacet
facet normal -0.9238795325112851 0.382683432365094 0.0
  outer loop
    vertex -17.085072906925443 -196.4903436842983 2.8999999999999946
    vertex -16.865291977415257 -195.95974558352384 4.999999999999995
    vertex -16.865291977415257 -195.95974558352384 2.8999999999999946
  endloop
endfacet
facet normal -0.7933533402912453 -0.6087614290087077 0.0
  outer loop
    vertex -17.4346938766408 -193.83470876568788 4.999999999999995
    vertex -17.085072906925443 -194.29034368429828 2.8999999999999946
    vertex -17.085072906925443 -194.29034368429828 4.999999999999995
  endloop
endfacet
facet normal -0.7933533402912453 -0.6087614290087077 0.0
  outer loop
    vertex -17.085072906925443 -194.29034368429828 2.8999999999999946
    vertex -17.4346938766408 -193.83470876568788 4.999999999999995
    vertex -17.4346938766408 -193.83470876568788 2.8999999999999946
  endloop
endfacet
facet normal -0.3826834323650871 -0.923879532511288 0.0
  outer loop
    vertex -17.890328795251204 -193.48508779597253 4.999999999999995
    vertex -18.42092689602566 -193.26530686646234 2.8999999999999946
    vertex -17.890328795251204 -193.48508779597253 2.8999999999999946
  endloop
endfacet
facet normal -0.3826834323650871 -0.923879532511288 0.0
  outer loop
    vertex -18.42092689602566 -193.26530686646234 2.8999999999999946
    vertex -17.890328795251204 -193.48508779597253 4.999999999999995
    vertex -18.42092689602566 -193.26530686646234 4.999999999999995
  endloop
endfacet
facet normal -0.9914448613738099 0.13052619222005604 0.0
  outer loop
    vertex -16.790328795251206 -195.39034368429827 4.999999999999995
    vertex -16.865291977415257 -195.95974558352384 2.8999999999999946
    vertex -16.865291977415257 -195.95974558352384 4.999999999999995
  endloop
endfacet
facet normal -0.9914448613738099 0.13052619222005604 0.0
  outer loop
    vertex -16.865291977415257 -195.95974558352384 2.8999999999999946
    vertex -16.790328795251206 -195.39034368429827 4.999999999999995
    vertex -16.790328795251206 -195.39034368429827 2.8999999999999946
  endloop
endfacet
facet normal -0.9914448613738099 -0.13052619222005604 0.0
  outer loop
    vertex -16.865291977415257 -194.82094178507273 4.999999999999995
    vertex -16.790328795251206 -195.39034368429827 2.8999999999999946
    vertex -16.790328795251206 -195.39034368429827 4.999999999999995
  endloop
endfacet
facet normal -0.9914448613738099 -0.13052619222005604 0.0
  outer loop
    vertex -16.790328795251206 -195.39034368429827 2.8999999999999946
    vertex -16.865291977415257 -194.82094178507273 4.999999999999995
    vertex -16.865291977415257 -194.82094178507273 2.8999999999999946
  endloop
endfacet
facet normal -0.6087614290087295 0.7933533402912283 0.0
  outer loop
    vertex -17.890328795251204 -197.29559957262404 4.999999999999995
    vertex -17.4346938766408 -196.94597860290867 2.8999999999999946
    vertex -17.890328795251204 -197.29559957262404 2.8999999999999946
  endloop
endfacet
facet normal -0.6087614290087295 0.7933533402912283 0.0
  outer loop
    vertex -17.4346938766408 -196.94597860290867 2.8999999999999946
    vertex -17.890328795251204 -197.29559957262404 4.999999999999995
    vertex -17.4346938766408 -196.94597860290867 4.999999999999995
  endloop
endfacet
facet normal 0.9914448613738113 -0.1305261922200464 0.0
  outer loop
    vertex -21.11536561308715 -194.82094178507273 2.8999999999999946
    vertex -21.190328795251197 -195.39034368429827 4.999999999999995
    vertex -21.190328795251197 -195.39034368429827 2.8999999999999946
  endloop
endfacet
facet normal 0.9914448613738113 -0.1305261922200464 0.0
  outer loop
    vertex -21.190328795251197 -195.39034368429827 4.999999999999995
    vertex -21.11536561308715 -194.82094178507273 2.8999999999999946
    vertex -21.11536561308715 -194.82094178507273 4.999999999999995
  endloop
endfacet
facet normal -0.6087614290087049 -0.7933533402912475 0.0
  outer loop
    vertex -17.4346938766408 -193.83470876568788 4.999999999999995
    vertex -17.890328795251204 -193.48508779597253 2.8999999999999946
    vertex -17.4346938766408 -193.83470876568788 2.8999999999999946
  endloop
endfacet
facet normal -0.6087614290087049 -0.7933533402912475 0.0
  outer loop
    vertex -17.890328795251204 -193.48508779597253 2.8999999999999946
    vertex -17.4346938766408 -193.83470876568788 4.999999999999995
    vertex -17.890328795251204 -193.48508779597253 4.999999999999995
  endloop
endfacet
facet normal 0.0 0.0 1.0
  outer loop
    vertex -21.11536561308715 -195.95974558352384 2.8999999999999946
    vertex -21.11536561308715 -194.82094178507273 2.8999999999999946
    vertex -21.190328795251197 -195.39034368429827 2.8999999999999946
  endloop
endfacet
facet normal 0.0 0.0 1.0
  outer loop
    vertex -21.11536561308715 -194.82094178507273 2.8999999999999946
    vertex -21.11536561308715 -195.95974558352384 2.8999999999999946
    vertex -20.89558468357696 -196.4903436842983 2.8999999999999946
  endloop
endfacet
facet normal 0.0 0.0 1.0
  outer loop
    vertex -21.11536561308715 -194.82094178507273 2.8999999999999946
    vertex -20.89558468357696 -196.4903436842983 2.8999999999999946
    vertex -20.895584683576967 -194.29034368429828 2.8999999999999946
  endloop
endfacet
facet normal 0.0 0.0 1.0
  outer loop
    vertex -20.895584683576967 -194.29034368429828 2.8999999999999946
    vertex -20.89558468357696 -196.4903436842983 2.8999999999999946
    vertex -20.545963713861603 -193.8347087656879 2.8999999999999946
  endloop
endfacet
facet normal 0.0 0.0 1.0
  outer loop
    vertex -20.545963713861603 -193.8347087656879 2.8999999999999946
    vertex -20.89558468357696 -196.4903436842983 2.8999999999999946
    vertex -20.545963713861603 -196.9459786029087 2.8999999999999946
  endloop
endfacet
facet normal 0.0 0.0 1.0
  outer loop
    vertex -20.545963713861603 -193.8347087656879 2.8999999999999946
    vertex -20.545963713861603 -196.9459786029087 2.8999999999999946
    vertex -20.0903287952512 -197.29559957262404 2.8999999999999946
  endloop
endfacet
facet normal 0.0 0.0 1.0
  outer loop
    vertex -20.545963713861603 -193.8347087656879 2.8999999999999946
    vertex -20.0903287952512 -197.29559957262404 2.8999999999999946
    vertex -20.0903287952512 -193.48508779597253 2.8999999999999946
  endloop
endfacet
facet normal 0.0 0.0 1.0
  outer loop
    vertex -20.0903287952512 -193.48508779597253 2.8999999999999946
    vertex -20.0903287952512 -197.29559957262404 2.8999999999999946
    vertex -19.55973069447674 -197.51538050213424 2.8999999999999946
  endloop
endfacet
facet normal 0.0 0.0 1.0
  outer loop
    vertex -20.0903287952512 -193.48508779597253 2.8999999999999946
    vertex -19.55973069447674 -197.51538050213424 2.8999999999999946
    vertex -19.55973069447674 -193.26530686646234 2.8999999999999946
  endloop
endfacet
facet normal 0.0 0.0 1.0
  outer loop
    vertex -19.55973069447674 -193.26530686646234 2.8999999999999946
    vertex -19.55973069447674 -197.51538050213424 2.8999999999999946
    vertex -18.9903287952512 -197.5903436842983 2.8999999999999946
  endloop
endfacet
facet normal 0.0 0.0 1.0
  outer loop
    vertex -19.55973069447674 -193.26530686646234 2.8999999999999946
    vertex -18.9903287952512 -197.5903436842983 2.8999999999999946
    vertex -18.9903287952512 -193.19034368429828 2.8999999999999946
  endloop
endfacet
facet normal 0.0 0.0 1.0
  outer loop
    vertex -18.9903287952512 -193.19034368429828 2.8999999999999946
    vertex -18.9903287952512 -197.5903436842983 2.8999999999999946
    vertex -18.42092689602566 -197.51538050213424 2.8999999999999946
  endloop
endfacet
facet normal 0.0 0.0 1.0
  outer loop
    vertex -18.9903287952512 -193.19034368429828 2.8999999999999946
    vertex -18.42092689602566 -197.51538050213424 2.8999999999999946
    vertex -18.42092689602566 -193.26530686646234 2.8999999999999946
  endloop
endfacet
facet normal 0.0 0.0 1.0
  outer loop
    vertex -18.42092689602566 -193.26530686646234 2.8999999999999946
    vertex -18.42092689602566 -197.51538050213424 2.8999999999999946
    vertex -17.890328795251204 -197.29559957262404 2.8999999999999946
  endloop
endfacet
facet normal 0.0 0.0 1.0
  outer loop
    vertex -18.42092689602566 -193.26530686646234 2.8999999999999946
    vertex -17.890328795251204 -197.29559957262404 2.8999999999999946
    vertex -17.890328795251204 -193.48508779597253 2.8999999999999946
  endloop
endfacet
facet normal 0.0 0.0 1.0
  outer loop
    vertex -17.890328795251204 -193.48508779597253 2.8999999999999946
    vertex -17.890328795251204 -197.29559957262404 2.8999999999999946
    vertex -17.4346938766408 -196.94597860290867 2.8999999999999946
  endloop
endfacet
facet normal 0.0 0.0 1.0
  outer loop
    vertex -17.890328795251204 -193.48508779597253 2.8999999999999946
    vertex -17.4346938766408 -196.94597860290867 2.8999999999999946
    vertex -17.4346938766408 -193.83470876568788 2.8999999999999946
  endloop
endfacet
facet normal 0.0 0.0 1.0
  outer loop
    vertex -17.4346938766408 -193.83470876568788 2.8999999999999946
    vertex -17.4346938766408 -196.94597860290867 2.8999999999999946
    vertex -17.085072906925443 -196.4903436842983 2.8999999999999946
  endloop
endfacet
facet normal 0.0 0.0 1.0
  outer loop
    vertex -17.4346938766408 -193.83470876568788 2.8999999999999946
    vertex -17.085072906925443 -196.4903436842983 2.8999999999999946
    vertex -17.085072906925443 -194.29034368429828 2.8999999999999946
  endloop
endfacet
facet normal 0.0 0.0 1.0
  outer loop
    vertex -17.085072906925443 -194.29034368429828 2.8999999999999946
    vertex -17.085072906925443 -196.4903436842983 2.8999999999999946
    vertex -16.865291977415257 -195.95974558352384 2.8999999999999946
  endloop
endfacet
facet normal 0.0 0.0 1.0
  outer loop
    vertex -17.085072906925443 -194.29034368429828 2.8999999999999946
    vertex -16.865291977415257 -195.95974558352384 2.8999999999999946
    vertex -16.865291977415257 -194.82094178507273 2.8999999999999946
  endloop
endfacet
facet normal 0.0 0.0 1.0
  outer loop
    vertex -16.865291977415257 -194.82094178507273 2.8999999999999946
    vertex -16.865291977415257 -195.95974558352384 2.8999999999999946
    vertex -16.790328795251206 -195.39034368429827 2.8999999999999946
  endloop
endfacet
facet normal 0.6087614290087295 -0.7933533402912283 0.0
  outer loop
    vertex -20.0903287952512 -193.48508779597253 4.999999999999995
    vertex -20.545963713861603 -193.8347087656879 2.8999999999999946
    vertex -20.0903287952512 -193.48508779597253 2.8999999999999946
  endloop
endfacet
facet normal 0.6087614290087295 -0.7933533402912283 0.0
  outer loop
    vertex -20.545963713861603 -193.8347087656879 2.8999999999999946
    vertex -20.0903287952512 -193.48508779597253 4.999999999999995
    vertex -20.545963713861603 -193.8347087656879 4.999999999999995
  endloop
endfacet
facet normal 0.9914448613738113 0.1305261922200464 0.0
  outer loop
    vertex -21.190328795251197 -195.39034368429827 2.8999999999999946
    vertex -21.11536561308715 -195.95974558352384 4.999999999999995
    vertex -21.11536561308715 -195.95974558352384 2.8999999999999946
  endloop
endfacet
facet normal 0.9914448613738113 0.1305261922200464 0.0
  outer loop
    vertex -21.11536561308715 -195.95974558352384 4.999999999999995
    vertex -21.190328795251197 -195.39034368429827 2.8999999999999946
    vertex -21.190328795251197 -195.39034368429827 4.999999999999995
  endloop
endfacet
endsolid ABC
