solid ABC
facet normal -0.0 -0.0 -1.0
  outer loop
    vertex 5.477062986952711 -197.02762469905485 0.0
    vertex 5.19514700929549 -200.0914556934896 0.0
    vertex 4.977062998277596 -199.32549698743412 0.0
  endloop
endfacet
facet normal -0.0 -0.0 -1.0
  outer loop
    vertex 5.19514700929549 -200.0914556934896 0.0
    vertex 5.477062986952711 -197.02762469905485 0.0
    vertex 5.849403404051207 -200.34677356004713 0.0
  endloop
endfacet
facet normal -0.0 -0.0 -1.0
  outer loop
    vertex 5.849403404051207 -200.34677356004713 0.0
    vertex 5.477062986952711 -197.02762469905485 0.0
    vertex 6.445148071408792 -194.53826305331066 0.0
  endloop
endfacet
facet normal -0.0 -0.0 -1.0
  outer loop
    vertex 5.849403404051207 -200.34677356004713 0.0
    vertex 6.445148071408792 -194.53826305331066 0.0
    vertex 6.913233167189753 -200.28294377425883 0.0
  endloop
endfacet
facet normal -0.0 -0.0 -1.0
  outer loop
    vertex 6.913233167189753 -200.28294377425883 0.0
    vertex 6.445148071408792 -194.53826305331066 0.0
    vertex 7.477062941653183 -193.13400776596777 0.0
  endloop
endfacet
facet normal -0.0 -0.0 -1.0
  outer loop
    vertex 6.913233167189753 -200.28294377425883 0.0
    vertex 7.477062941653183 -193.13400776596777 0.0
    vertex 8.828126740839137 -200.19783739320772 0.0
  endloop
endfacet
facet normal -0.0 -0.0 -1.0
  outer loop
    vertex 8.828126740839137 -200.19783739320772 0.0
    vertex 7.477062941653183 -193.13400776596777 0.0
    vertex 8.679190573999744 -192.72975245597513 0.0
  endloop
endfacet
facet normal -0.0 -0.0 -1.0
  outer loop
    vertex 8.828126740839137 -200.19783739320772 0.0
    vertex 8.679190573999744 -192.72975245597513 0.0
    vertex 9.806850122926605 -192.79358224176343 0.0
  endloop
endfacet
facet normal -0.0 -0.0 -1.0
  outer loop
    vertex 8.828126740839137 -200.19783739320772 0.0
    vertex 9.806850122926605 -192.79358224176343 0.0
    vertex 13.189828769707185 -200.51698632214928 0.0
  endloop
endfacet
facet normal -0.0 -0.0 -1.0
  outer loop
    vertex 13.189828769707185 -200.51698632214928 0.0
    vertex 9.806850122926605 -192.79358224176343 0.0
    vertex 13.743020246539228 -193.07017798017947 0.0
  endloop
endfacet
facet normal -0.0 -0.0 -1.0
  outer loop
    vertex 13.189828769707185 -200.51698632214928 0.0
    vertex 13.743020246539228 -193.07017798017947 0.0
    vertex 14.232381937582963 -200.62336929846313 0.0
  endloop
endfacet
facet normal -0.0 -0.0 -1.0
  outer loop
    vertex 14.232381937582963 -200.62336929846313 0.0
    vertex 13.743020246539228 -193.07017798017947 0.0
    vertex 15.7430202012397 -192.9637950038656 0.0
  endloop
endfacet
facet normal -0.0 -0.0 -1.0
  outer loop
    vertex 14.232381937582963 -200.62336929846313 0.0
    vertex 15.7430202012397 -192.9637950038656 0.0
    vertex 15.05153085519964 -200.26166717899605 0.0
  endloop
endfacet
facet normal -0.0 -0.0 -1.0
  outer loop
    vertex 15.05153085519964 -200.26166717899605 0.0
    vertex 15.7430202012397 -192.9637950038656 0.0
    vertex 15.913232963341866 -198.8999650821787 0.0
  endloop
endfacet
facet normal -0.0 -0.0 -1.0
  outer loop
    vertex 15.913232963341866 -198.8999650821787 0.0
    vertex 15.7430202012397 -192.9637950038656 0.0
    vertex 16.700466988064388 -192.85741202755176 0.0
  endloop
endfacet
facet normal -0.0 -0.0 -1.0
  outer loop
    vertex 15.913232963341866 -198.8999650821787 0.0
    vertex 16.700466988064388 -192.85741202755176 0.0
    vertex 16.955786131217643 -196.176560888544 0.0
  endloop
endfacet
facet normal -0.0 -0.0 -1.0
  outer loop
    vertex 16.955786131217643 -196.176560888544 0.0
    vertex 16.700466988064388 -192.85741202755176 0.0
    vertex 17.195148652391875 -193.1020916496694 0.0
  endloop
endfacet
facet normal -0.0 -0.0 -1.0
  outer loop
    vertex 16.955786131217643 -196.176560888544 0.0
    vertex 17.195148652391875 -193.1020916496694 0.0
    vertex 17.36004144121029 -193.8361354096392 0.0
  endloop
endfacet
facet normal -0.9320046715412956 0.36244626115494954 0.0
  outer loop
    vertex 6.445148071408792 -194.53826305331066 5.0
    vertex 5.477062986952711 -197.02762469905485 0.0
    vertex 5.477062986952711 -197.02762469905485 5.0
  endloop
endfacet
facet normal -0.9320046715412956 0.36244626115494954 0.0
  outer loop
    vertex 5.477062986952711 -197.02762469905485 0.0
    vertex 6.445148071408792 -194.53826305331066 5.0
    vertex 6.445148071408792 -194.53826305331066 0.0
  endloop
endfacet
facet normal -0.8058223634043065 0.5921573428046787 0.0
  outer loop
    vertex 7.477062941653183 -193.13400776596777 5.0
    vertex 6.445148071408792 -194.53826305331066 0.0
    vertex 6.445148071408792 -194.53826305331066 5.0
  endloop
endfacet
facet normal -0.8058223634043065 0.5921573428046787 0.0
  outer loop
    vertex 6.445148071408792 -194.53826305331066 0.0
    vertex 7.477062941653183 -193.13400776596777 5.0
    vertex 7.477062941653183 -193.13400776596777 0.0
  endloop
endfacet
facet normal -0.31874304602389003 0.9478411631763057 0.0
  outer loop
    vertex 7.477062941653183 -193.13400776596777 5.0
    vertex 8.679190573999744 -192.72975245597513 0.0
    vertex 7.477062941653183 -193.13400776596777 0.0
  endloop
endfacet
facet normal -0.31874304602389003 0.9478411631763057 0.0
  outer loop
    vertex 8.679190573999744 -192.72975245597513 0.0
    vertex 7.477062941653183 -193.13400776596777 5.0
    vertex 8.679190573999744 -192.72975245597513 5.0
  endloop
endfacet
facet normal 0.0 0.0 1.0
  outer loop
    vertex 8.828126740839137 -200.19783739320772 5.0
    vertex 9.168278918945516 -196.93307153070987 4.999999999999995
    vertex 9.093315736781468 -196.36366963148433 4.999999999999995
  endloop
endfacet
facet normal 0.0 0.0 1.0
  outer loop
    vertex 9.168278918945516 -196.93307153070987 4.999999999999995
    vertex 8.828126740839137 -200.19783739320772 5.0
    vertex 9.388059848455706 -197.46366963148432 4.999999999999995
  endloop
endfacet
facet normal 0.0 0.0 1.0
  outer loop
    vertex 9.388059848455706 -197.46366963148432 4.999999999999995
    vertex 8.828126740839137 -200.19783739320772 5.0
    vertex 9.737680818171063 -197.91930455009472 4.999999999999995
  endloop
endfacet
facet normal 0.0 0.0 1.0
  outer loop
    vertex 9.737680818171063 -197.91930455009472 4.999999999999995
    vertex 8.828126740839137 -200.19783739320772 5.0
    vertex 10.193315736781466 -198.26892551981007 4.999999999999995
  endloop
endfacet
facet normal 0.0 0.0 1.0
  outer loop
    vertex 10.193315736781466 -198.26892551981007 4.999999999999995
    vertex 8.828126740839137 -200.19783739320772 5.0
    vertex 13.189828769707185 -200.51698632214928 5.0
  endloop
endfacet
facet normal 0.0 0.0 1.0
  outer loop
    vertex 10.193315736781466 -198.26892551981007 4.999999999999995
    vertex 13.189828769707185 -200.51698632214928 5.0
    vertex 10.723913837555923 -198.48870644932026 4.999999999999995
  endloop
endfacet
facet normal 0.0 0.0 1.0
  outer loop
    vertex 10.723913837555923 -198.48870644932026 4.999999999999995
    vertex 13.189828769707185 -200.51698632214928 5.0
    vertex 11.293315736781464 -198.56366963148432 4.999999999999995
  endloop
endfacet
facet normal 0.0 0.0 1.0
  outer loop
    vertex 11.293315736781464 -198.56366963148432 4.999999999999995
    vertex 13.189828769707185 -200.51698632214928 5.0
    vertex 11.862717636007005 -198.48870644932026 4.999999999999995
  endloop
endfacet
facet normal 0.0 0.0 1.0
  outer loop
    vertex 11.862717636007005 -198.48870644932026 4.999999999999995
    vertex 13.189828769707185 -200.51698632214928 5.0
    vertex 12.393315736781462 -198.26892551981007 4.999999999999995
  endloop
endfacet
facet normal 0.0 0.0 1.0
  outer loop
    vertex 12.393315736781462 -198.26892551981007 4.999999999999995
    vertex 13.189828769707185 -200.51698632214928 5.0
    vertex 12.848950655391866 -197.91930455009472 4.999999999999995
  endloop
endfacet
facet normal 0.0 0.0 1.0
  outer loop
    vertex 12.848950655391866 -197.91930455009472 4.999999999999995
    vertex 13.189828769707185 -200.51698632214928 5.0
    vertex 13.198571625107222 -197.46366963148432 4.999999999999995
  endloop
endfacet
facet normal 0.0 0.0 1.0
  outer loop
    vertex 13.198571625107222 -197.46366963148432 4.999999999999995
    vertex 13.189828769707185 -200.51698632214928 5.0
    vertex 14.232381937582963 -200.62336929846313 5.0
  endloop
endfacet
facet normal 0.0 0.0 1.0
  outer loop
    vertex 13.198571625107222 -197.46366963148432 4.999999999999995
    vertex 14.232381937582963 -200.62336929846313 5.0
    vertex 13.418352554617407 -196.93307153070987 4.999999999999995
  endloop
endfacet
facet normal 0.0 0.0 1.0
  outer loop
    vertex 13.418352554617407 -196.93307153070987 4.999999999999995
    vertex 14.232381937582963 -200.62336929846313 5.0
    vertex 13.49331573678146 -196.36366963148433 4.999999999999995
  endloop
endfacet
facet normal 0.0 0.0 1.0
  outer loop
    vertex 13.49331573678146 -196.36366963148433 4.999999999999995
    vertex 14.232381937582963 -200.62336929846313 5.0
    vertex 13.743020246539228 -193.07017798017947 5.0
  endloop
endfacet
facet normal 0.0 0.0 1.0
  outer loop
    vertex 13.743020246539228 -193.07017798017947 5.0
    vertex 14.232381937582963 -200.62336929846313 5.0
    vertex 15.7430202012397 -192.9637950038656 5.0
  endloop
endfacet
facet normal 0.0 0.0 1.0
  outer loop
    vertex 15.7430202012397 -192.9637950038656 5.0
    vertex 14.232381937582963 -200.62336929846313 5.0
    vertex 15.05153085519964 -200.26166717899605 5.0
  endloop
endfacet
facet normal 0.0 0.0 1.0
  outer loop
    vertex 15.7430202012397 -192.9637950038656 5.0
    vertex 15.05153085519964 -200.26166717899605 5.0
    vertex 15.913232963341866 -198.8999650821787 5.0
  endloop
endfacet
facet normal 0.0 0.0 1.0
  outer loop
    vertex 15.7430202012397 -192.9637950038656 5.0
    vertex 15.913232963341866 -198.8999650821787 5.0
    vertex 16.700466988064388 -192.85741202755176 5.0
  endloop
endfacet
facet normal 0.0 0.0 1.0
  outer loop
    vertex 16.700466988064388 -192.85741202755176 5.0
    vertex 15.913232963341866 -198.8999650821787 5.0
    vertex 16.955786131217643 -196.176560888544 5.0
  endloop
endfacet
facet normal 0.0 0.0 1.0
  outer loop
    vertex 16.700466988064388 -192.85741202755176 5.0
    vertex 16.955786131217643 -196.176560888544 5.0
    vertex 17.195148652391875 -193.1020916496694 5.0
  endloop
endfacet
facet normal 0.0 0.0 1.0
  outer loop
    vertex 17.195148652391875 -193.1020916496694 5.0
    vertex 16.955786131217643 -196.176560888544 5.0
    vertex 17.36004144121029 -193.8361354096392 5.0
  endloop
endfacet
facet normal 0.0 0.0 1.0
  outer loop
    vertex 5.19514700929549 -200.0914556934896 5.0
    vertex 5.477062986952711 -197.02762469905485 5.0
    vertex 4.977062998277596 -199.32549698743412 5.0
  endloop
endfacet
facet normal 0.0 0.0 1.0
  outer loop
    vertex 5.477062986952711 -197.02762469905485 5.0
    vertex 5.19514700929549 -200.0914556934896 5.0
    vertex 5.849403404051207 -200.34677356004713 5.0
  endloop
endfacet
facet normal 0.0 0.0 1.0
  outer loop
    vertex 5.477062986952711 -197.02762469905485 5.0
    vertex 5.849403404051207 -200.34677356004713 5.0
    vertex 6.445148071408792 -194.53826305331066 5.0
  endloop
endfacet
facet normal 0.0 0.0 1.0
  outer loop
    vertex 6.445148071408792 -194.53826305331066 5.0
    vertex 5.849403404051207 -200.34677356004713 5.0
    vertex 6.913233167189753 -200.28294377425883 5.0
  endloop
endfacet
facet normal 0.0 0.0 1.0
  outer loop
    vertex 6.445148071408792 -194.53826305331066 5.0
    vertex 6.913233167189753 -200.28294377425883 5.0
    vertex 7.477062941653183 -193.13400776596777 5.0
  endloop
endfacet
facet normal 0.0 0.0 1.0
  outer loop
    vertex 7.477062941653183 -193.13400776596777 5.0
    vertex 6.913233167189753 -200.28294377425883 5.0
    vertex 8.828126740839137 -200.19783739320772 5.0
  endloop
endfacet
facet normal 0.0 0.0 1.0
  outer loop
    vertex 7.477062941653183 -193.13400776596777 5.0
    vertex 8.828126740839137 -200.19783739320772 5.0
    vertex 8.679190573999744 -192.72975245597513 5.0
  endloop
endfacet
facet normal 0.0 0.0 1.0
  outer loop
    vertex 8.679190573999744 -192.72975245597513 5.0
    vertex 8.828126740839137 -200.19783739320772 5.0
    vertex 9.093315736781468 -196.36366963148433 4.999999999999995
  endloop
endfacet
facet normal 0.0 0.0 1.0
  outer loop
    vertex 8.679190573999744 -192.72975245597513 5.0
    vertex 9.093315736781468 -196.36366963148433 4.999999999999995
    vertex 9.168278918945516 -195.79426773225876 4.999999999999995
  endloop
endfacet
facet normal 0.0 0.0 1.0
  outer loop
    vertex 8.679190573999744 -192.72975245597513 5.0
    vertex 9.168278918945516 -195.79426773225876 4.999999999999995
    vertex 9.806850122926605 -192.79358224176343 5.0
  endloop
endfacet
facet normal 0.0 0.0 1.0
  outer loop
    vertex 9.806850122926605 -192.79358224176343 5.0
    vertex 9.168278918945516 -195.79426773225876 4.999999999999995
    vertex 9.3880598484557 -195.26366963148433 4.999999999999995
  endloop
endfacet
facet normal 0.0 0.0 1.0
  outer loop
    vertex 9.806850122926605 -192.79358224176343 5.0
    vertex 9.3880598484557 -195.26366963148433 4.999999999999995
    vertex 9.737680818171063 -194.80803471287393 4.999999999999995
  endloop
endfacet
facet normal 0.0 0.0 1.0
  outer loop
    vertex 9.806850122926605 -192.79358224176343 5.0
    vertex 9.737680818171063 -194.80803471287393 4.999999999999995
    vertex 10.193315736781466 -194.45841374315856 4.999999999999995
  endloop
endfacet
facet normal 0.0 0.0 1.0
  outer loop
    vertex 9.806850122926605 -192.79358224176343 5.0
    vertex 10.193315736781466 -194.45841374315856 4.999999999999995
    vertex 10.723913837555923 -194.23863281364837 4.999999999999995
  endloop
endfacet
facet normal 0.0 0.0 1.0
  outer loop
    vertex 9.806850122926605 -192.79358224176343 5.0
    vertex 10.723913837555923 -194.23863281364837 4.999999999999995
    vertex 13.743020246539228 -193.07017798017947 5.0
  endloop
endfacet
facet normal 0.0 0.0 1.0
  outer loop
    vertex 13.743020246539228 -193.07017798017947 5.0
    vertex 10.723913837555923 -194.23863281364837 4.999999999999995
    vertex 11.293315736781464 -194.1636696314843 4.999999999999995
  endloop
endfacet
facet normal 0.0 0.0 1.0
  outer loop
    vertex 13.743020246539228 -193.07017798017947 5.0
    vertex 11.293315736781464 -194.1636696314843 4.999999999999995
    vertex 11.862717636007005 -194.23863281364837 4.999999999999995
  endloop
endfacet
facet normal 0.0 0.0 1.0
  outer loop
    vertex 13.743020246539228 -193.07017798017947 5.0
    vertex 11.862717636007005 -194.23863281364837 4.999999999999995
    vertex 12.393315736781462 -194.45841374315856 4.999999999999995
  endloop
endfacet
facet normal 0.0 0.0 1.0
  outer loop
    vertex 13.743020246539228 -193.07017798017947 5.0
    vertex 12.393315736781462 -194.45841374315856 4.999999999999995
    vertex 12.848950655391866 -194.8080347128739 4.999999999999995
  endloop
endfacet
facet normal 0.0 0.0 1.0
  outer loop
    vertex 13.743020246539228 -193.07017798017947 5.0
    vertex 12.848950655391866 -194.8080347128739 4.999999999999995
    vertex 13.198571625107222 -195.26366963148433 4.999999999999995
  endloop
endfacet
facet normal 0.0 0.0 1.0
  outer loop
    vertex 13.743020246539228 -193.07017798017947 5.0
    vertex 13.198571625107222 -195.26366963148433 4.999999999999995
    vertex 13.418352554617407 -195.79426773225876 4.999999999999995
  endloop
endfacet
facet normal 0.0 0.0 1.0
  outer loop
    vertex 13.743020246539228 -193.07017798017947 5.0
    vertex 13.418352554617407 -195.79426773225876 4.999999999999995
    vertex 13.49331573678146 -196.36366963148433 4.999999999999995
  endloop
endfacet
facet normal 0.05651331202265756 0.9984018457335853 0.0
  outer loop
    vertex 8.679190573999744 -192.72975245597513 5.0
    vertex 9.806850122926605 -192.79358224176343 0.0
    vertex 8.679190573999744 -192.72975245597513 0.0
  endloop
endfacet
facet normal 0.05651331202265756 0.9984018457335853 0.0
  outer loop
    vertex 9.806850122926605 -192.79358224176343 0.0
    vertex 8.679190573999744 -192.72975245597513 5.0
    vertex 9.806850122926605 -192.79358224176343 5.0
  endloop
endfacet
facet normal 0.07009741599556352 0.9975401507060982 0.0
  outer loop
    vertex 9.806850122926605 -192.79358224176343 5.0
    vertex 13.743020246539228 -193.07017798017947 0.0
    vertex 9.806850122926605 -192.79358224176343 0.0
  endloop
endfacet
facet normal 0.07009741599556352 0.9975401507060982 0.0
  outer loop
    vertex 13.743020246539228 -193.07017798017947 0.0
    vertex 9.806850122926605 -192.79358224176343 5.0
    vertex 13.743020246539228 -193.07017798017947 5.0
  endloop
endfacet
facet normal -0.05311640040396729 0.9985883275945727 0.0
  outer loop
    vertex 13.743020246539228 -193.07017798017947 5.0
    vertex 15.7430202012397 -192.9637950038656 0.0
    vertex 13.743020246539228 -193.07017798017947 0.0
  endloop
endfacet
facet normal -0.05311640040396729 0.9985883275945727 0.0
  outer loop
    vertex 15.7430202012397 -192.9637950038656 0.0
    vertex 13.743020246539228 -193.07017798017947 5.0
    vertex 15.7430202012397 -192.9637950038656 5.0
  endloop
endfacet
facet normal -0.11043152607484559 0.9938837346736191 0.0
  outer loop
    vertex 15.7430202012397 -192.9637950038656 5.0
    vertex 16.700466988064388 -192.85741202755176 0.0
    vertex 15.7430202012397 -192.9637950038656 0.0
  endloop
endfacet
facet normal -0.11043152607484559 0.9938837346736191 0.0
  outer loop
    vertex 16.700466988064388 -192.85741202755176 0.0
    vertex 15.7430202012397 -192.9637950038656 5.0
    vertex 16.700466988064388 -192.85741202755176 5.0
  endloop
endfacet
facet normal 0.44335181263262136 0.8963476837898166 0.0
  outer loop
    vertex 16.700466988064388 -192.85741202755176 5.0
    vertex 17.195148652391875 -193.1020916496694 0.0
    vertex 16.700466988064388 -192.85741202755176 0.0
  endloop
endfacet
facet normal 0.44335181263262136 0.8963476837898166 0.0
  outer loop
    vertex 17.195148652391875 -193.1020916496694 0.0
    vertex 16.700466988064388 -192.85741202755176 5.0
    vertex 17.195148652391875 -193.1020916496694 5.0
  endloop
endfacet
facet normal 0.9756857174484301 0.2191743159385749 0.0
  outer loop
    vertex 17.195148652391875 -193.1020916496694 0.0
    vertex 17.36004144121029 -193.8361354096392 5.0
    vertex 17.36004144121029 -193.8361354096392 0.0
  endloop
endfacet
facet normal 0.9756857174484301 0.2191743159385749 0.0
  outer loop
    vertex 17.36004144121029 -193.8361354096392 5.0
    vertex 17.195148652391875 -193.1020916496694 0.0
    vertex 17.195148652391875 -193.1020916496694 5.0
  endloop
endfacet
facet normal 0.9854083480418964 -0.17020689647996284 0.0
  outer loop
    vertex 17.36004144121029 -193.8361354096392 0.0
    vertex 16.955786131217643 -196.176560888544 5.0
    vertex 16.955786131217643 -196.176560888544 0.0
  endloop
endfacet
facet normal 0.9854083480418964 -0.17020689647996284 0.0
  outer loop
    vertex 16.955786131217643 -196.176560888544 5.0
    vertex 17.36004144121029 -193.8361354096392 0.0
    vertex 17.36004144121029 -193.8361354096392 5.0
  endloop
endfacet
facet normal 0.9339085898481578 -0.3575118820512481 0.0
  outer loop
    vertex 16.955786131217643 -196.176560888544 0.0
    vertex 15.913232963341866 -198.8999650821787 5.0
    vertex 15.913232963341866 -198.8999650821787 0.0
  endloop
endfacet
facet normal 0.9339085898481578 -0.3575118820512481 0.0
  outer loop
    vertex 15.913232963341866 -198.8999650821787 5.0
    vertex 16.955786131217643 -196.176560888544 0.0
    vertex 16.955786131217643 -196.176560888544 5.0
  endloop
endfacet
facet normal 0.8450179582407703 -0.5347379266992381 0.0
  outer loop
    vertex 15.913232963341866 -198.8999650821787 0.0
    vertex 15.05153085519964 -200.26166717899605 5.0
    vertex 15.05153085519964 -200.26166717899605 0.0
  endloop
endfacet
facet normal 0.8450179582407703 -0.5347379266992381 0.0
  outer loop
    vertex 15.05153085519964 -200.26166717899605 5.0
    vertex 15.913232963341866 -198.8999650821787 0.0
    vertex 15.913232963341866 -198.8999650821787 5.0
  endloop
endfacet
facet normal 0.4039326788379093 -0.9147887138387917 0.0
  outer loop
    vertex 15.05153085519964 -200.26166717899605 5.0
    vertex 14.232381937582963 -200.62336929846313 0.0
    vertex 15.05153085519964 -200.26166717899605 0.0
  endloop
endfacet
facet normal 0.4039326788379093 -0.9147887138387917 0.0
  outer loop
    vertex 14.232381937582963 -200.62336929846313 0.0
    vertex 15.05153085519964 -200.26166717899605 5.0
    vertex 14.232381937582963 -200.62336929846313 5.0
  endloop
endfacet
facet normal -0.10151368801339446 -0.994834142531266 0.0
  outer loop
    vertex 14.232381937582963 -200.62336929846313 5.0
    vertex 13.189828769707185 -200.51698632214928 0.0
    vertex 14.232381937582963 -200.62336929846313 0.0
  endloop
endfacet
facet normal -0.10151368801339446 -0.994834142531266 0.0
  outer loop
    vertex 13.189828769707185 -200.51698632214928 0.0
    vertex 14.232381937582963 -200.62336929846313 5.0
    vertex 13.189828769707185 -200.51698632214928 5.0
  endloop
endfacet
facet normal -0.07297563831157797 -0.9973337235915659 0.0
  outer loop
    vertex 13.189828769707185 -200.51698632214928 5.0
    vertex 8.828126740839137 -200.19783739320772 0.0
    vertex 13.189828769707185 -200.51698632214928 0.0
  endloop
endfacet
facet normal -0.07297563831157797 -0.9973337235915659 0.0
  outer loop
    vertex 8.828126740839137 -200.19783739320772 0.0
    vertex 13.189828769707185 -200.51698632214928 5.0
    vertex 8.828126740839137 -200.19783739320772 5.0
  endloop
endfacet
facet normal 0.044400613620720605 -0.9990138064662089 0.0
  outer loop
    vertex 8.828126740839137 -200.19783739320772 5.0
    vertex 6.913233167189753 -200.28294377425883 0.0
    vertex 8.828126740839137 -200.19783739320772 0.0
  endloop
endfacet
facet normal 0.044400613620720605 -0.9990138064662089 0.0
  outer loop
    vertex 6.913233167189753 -200.28294377425883 0.0
    vertex 8.828126740839137 -200.19783739320772 5.0
    vertex 6.913233167189753 -200.28294377425883 5.0
  endloop
endfacet
facet normal 0.059892290727946086 -0.9982048454657787 0.0
  outer loop
    vertex 6.913233167189753 -200.28294377425883 5.0
    vertex 5.849403404051207 -200.34677356004713 0.0
    vertex 6.913233167189753 -200.28294377425883 0.0
  endloop
endfacet
facet normal 0.059892290727946086 -0.9982048454657787 0.0
  outer loop
    vertex 5.849403404051207 -200.34677356004713 0.0
    vertex 6.913233167189753 -200.28294377425883 5.0
    vertex 5.849403404051207 -200.34677356004713 5.0
  endloop
endfacet
facet normal -0.3635403823496338 -0.9315784402835234 0.0
  outer loop
    vertex 5.849403404051207 -200.34677356004713 5.0
    vertex 5.19514700929549 -200.0914556934896 0.0
    vertex 5.849403404051207 -200.34677356004713 0.0
  endloop
endfacet
facet normal -0.3635403823496338 -0.9315784402835234 0.0
  outer loop
    vertex 5.19514700929549 -200.0914556934896 0.0
    vertex 5.849403404051207 -200.34677356004713 5.0
    vertex 5.19514700929549 -200.0914556934896 5.0
  endloop
endfacet
facet normal -0.961776061426382 -0.2738371918990489 0.0
  outer loop
    vertex 4.977062998277596 -199.32549698743412 5.0
    vertex 5.19514700929549 -200.0914556934896 0.0
    vertex 5.19514700929549 -200.0914556934896 5.0
  endloop
endfacet
facet normal -0.961776061426382 -0.2738371918990489 0.0
  outer loop
    vertex 5.19514700929549 -200.0914556934896 0.0
    vertex 4.977062998277596 -199.32549698743412 5.0
    vertex 4.977062998277596 -199.32549698743412 0.0
  endloop
endfacet
facet normal -0.9771355175754065 0.21261745058353657 0.0
  outer loop
    vertex 5.477062986952711 -197.02762469905485 5.0
    vertex 4.977062998277596 -199.32549698743412 0.0
    vertex 4.977062998277596 -199.32549698743412 5.0
  endloop
endfacet
facet normal -0.9771355175754065 0.21261745058353657 0.0
  outer loop
    vertex 4.977062998277596 -199.32549698743412 0.0
    vertex 5.477062986952711 -197.02762469905485 5.0
    vertex 5.477062986952711 -197.02762469905485 0.0
  endloop
endfacet
facet normal 0.1305261922200586 -0.9914448613738096 0.0
  outer loop
    vertex 11.293315736781464 -194.1636696314843 4.999999999999995
    vertex 10.723913837555923 -194.23863281364837 2.8999999999999946
    vertex 11.293315736781464 -194.1636696314843 2.8999999999999946
  endloop
endfacet
facet normal 0.1305261922200586 -0.9914448613738096 0.0
  outer loop
    vertex 10.723913837555923 -194.23863281364837 2.8999999999999946
    vertex 11.293315736781464 -194.1636696314843 4.999999999999995
    vertex 10.723913837555923 -194.23863281364837 4.999999999999995
  endloop
endfacet
facet normal -0.9238795325112851 0.382683432365094 0.0
  outer loop
    vertex 13.418352554617407 -196.93307153070987 4.999999999999995
    vertex 13.198571625107222 -197.46366963148432 2.8999999999999946
    vertex 13.198571625107222 -197.46366963148432 4.999999999999995
  endloop
endfacet
facet normal -0.9238795325112851 0.382683432365094 0.0
  outer loop
    vertex 13.198571625107222 -197.46366963148432 2.8999999999999946
    vertex 13.418352554617407 -196.93307153070987 4.999999999999995
    vertex 13.418352554617407 -196.93307153070987 2.8999999999999946
  endloop
endfacet
facet normal -0.1305261922200586 -0.9914448613738096 0.0
  outer loop
    vertex 11.862717636007005 -194.23863281364837 4.999999999999995
    vertex 11.293315736781464 -194.1636696314843 2.8999999999999946
    vertex 11.862717636007005 -194.23863281364837 2.8999999999999946
  endloop
endfacet
facet normal -0.1305261922200586 -0.9914448613738096 0.0
  outer loop
    vertex 11.293315736781464 -194.1636696314843 2.8999999999999946
    vertex 11.862717636007005 -194.23863281364837 4.999999999999995
    vertex 11.293315736781464 -194.1636696314843 4.999999999999995
  endloop
endfacet
facet normal -0.7933533402912453 -0.6087614290087077 0.0
  outer loop
    vertex 12.848950655391866 -194.8080347128739 4.999999999999995
    vertex 13.198571625107222 -195.26366963148433 2.8999999999999946
    vertex 13.198571625107222 -195.26366963148433 4.999999999999995
  endloop
endfacet
facet normal -0.7933533402912453 -0.6087614290087077 0.0
  outer loop
    vertex 13.198571625107222 -195.26366963148433 2.8999999999999946
    vertex 12.848950655391866 -194.8080347128739 4.999999999999995
    vertex 12.848950655391866 -194.8080347128739 2.8999999999999946
  endloop
endfacet
facet normal 0.3826834323650871 0.923879532511288 0.0
  outer loop
    vertex 10.193315736781466 -198.26892551981007 4.999999999999995
    vertex 10.723913837555923 -198.48870644932026 2.8999999999999946
    vertex 10.193315736781466 -198.26892551981007 2.8999999999999946
  endloop
endfacet
facet normal 0.3826834323650871 0.923879532511288 0.0
  outer loop
    vertex 10.723913837555923 -198.48870644932026 2.8999999999999946
    vertex 10.193315736781466 -198.26892551981007 4.999999999999995
    vertex 10.723913837555923 -198.48870644932026 4.999999999999995
  endloop
endfacet
facet normal -0.7933533402912306 0.6087614290087267 0.0
  outer loop
    vertex 13.198571625107222 -197.46366963148432 4.999999999999995
    vertex 12.848950655391866 -197.91930455009472 2.8999999999999946
    vertex 12.848950655391866 -197.91930455009472 4.999999999999995
  endloop
endfacet
facet normal -0.7933533402912306 0.6087614290087267 0.0
  outer loop
    vertex 12.848950655391866 -197.91930455009472 2.8999999999999946
    vertex 13.198571625107222 -197.46366963148432 4.999999999999995
    vertex 13.198571625107222 -197.46366963148432 2.8999999999999946
  endloop
endfacet
facet normal -0.6087614290087295 0.7933533402912283 0.0
  outer loop
    vertex 12.393315736781462 -198.26892551981007 4.999999999999995
    vertex 12.848950655391866 -197.91930455009472 2.8999999999999946
    vertex 12.393315736781462 -198.26892551981007 2.8999999999999946
  endloop
endfacet
facet normal -0.6087614290087295 0.7933533402912283 0.0
  outer loop
    vertex 12.848950655391866 -197.91930455009472 2.8999999999999946
    vertex 12.393315736781462 -198.26892551981007 4.999999999999995
    vertex 12.848950655391866 -197.91930455009472 4.999999999999995
  endloop
endfacet
facet normal 0.9238795325112851 -0.382683432365094 0.0
  outer loop
    vertex 9.3880598484557 -195.26366963148433 2.8999999999999946
    vertex 9.168278918945516 -195.79426773225876 4.999999999999995
    vertex 9.168278918945516 -195.79426773225876 2.8999999999999946
  endloop
endfacet
facet normal 0.9238795325112851 -0.382683432365094 0.0
  outer loop
    vertex 9.168278918945516 -195.79426773225876 4.999999999999995
    vertex 9.3880598484557 -195.26366963148433 2.8999999999999946
    vertex 9.3880598484557 -195.26366963148433 4.999999999999995
  endloop
endfacet
facet normal 0.7933533402912258 -0.6087614290087329 0.0
  outer loop
    vertex 9.737680818171063 -194.80803471287393 2.8999999999999946
    vertex 9.3880598484557 -195.26366963148433 4.999999999999995
    vertex 9.3880598484557 -195.26366963148433 2.8999999999999946
  endloop
endfacet
facet normal 0.7933533402912258 -0.6087614290087329 0.0
  outer loop
    vertex 9.3880598484557 -195.26366963148433 4.999999999999995
    vertex 9.737680818171063 -194.80803471287393 2.8999999999999946
    vertex 9.737680818171063 -194.80803471287393 4.999999999999995
  endloop
endfacet
facet normal -0.6087614290087049 -0.7933533402912475 0.0
  outer loop
    vertex 12.848950655391866 -194.8080347128739 4.999999999999995
    vertex 12.393315736781462 -194.45841374315856 2.8999999999999946
    vertex 12.848950655391866 -194.8080347128739 2.8999999999999946
  endloop
endfacet
facet normal -0.6087614290087049 -0.7933533402912475 0.0
  outer loop
    vertex 12.393315736781462 -194.45841374315856 2.8999999999999946
    vertex 12.848950655391866 -194.8080347128739 4.999999999999995
    vertex 12.393315736781462 -194.45841374315856 4.999999999999995
  endloop
endfacet
facet normal 0.6087614290087295 -0.7933533402912283 0.0
  outer loop
    vertex 10.193315736781466 -194.45841374315856 4.999999999999995
    vertex 9.737680818171063 -194.80803471287393 2.8999999999999946
    vertex 10.193315736781466 -194.45841374315856 2.8999999999999946
  endloop
endfacet
facet normal 0.6087614290087295 -0.7933533402912283 0.0
  outer loop
    vertex 9.737680818171063 -194.80803471287393 2.8999999999999946
    vertex 10.193315736781466 -194.45841374315856 4.999999999999995
    vertex 9.737680818171063 -194.80803471287393 4.999999999999995
  endloop
endfacet
facet normal 0.1305261922200586 0.9914448613738096 0.0
  outer loop
    vertex 10.723913837555923 -198.48870644932026 4.999999999999995
    vertex 11.293315736781464 -198.56366963148432 2.8999999999999946
    vertex 10.723913837555923 -198.48870644932026 2.8999999999999946
  endloop
endfacet
facet normal 0.1305261922200586 0.9914448613738096 0.0
  outer loop
    vertex 11.293315736781464 -198.56366963148432 2.8999999999999946
    vertex 10.723913837555923 -198.48870644932026 4.999999999999995
    vertex 11.293315736781464 -198.56366963148432 4.999999999999995
  endloop
endfacet
facet normal -0.1305261922200586 0.9914448613738096 0.0
  outer loop
    vertex 11.293315736781464 -198.56366963148432 4.999999999999995
    vertex 11.862717636007005 -198.48870644932026 2.8999999999999946
    vertex 11.293315736781464 -198.56366963148432 2.8999999999999946
  endloop
endfacet
facet normal -0.1305261922200586 0.9914448613738096 0.0
  outer loop
    vertex 11.862717636007005 -198.48870644932026 2.8999999999999946
    vertex 11.293315736781464 -198.56366963148432 4.999999999999995
    vertex 11.862717636007005 -198.48870644932026 4.999999999999995
  endloop
endfacet
facet normal -0.3826834323650871 0.923879532511288 0.0
  outer loop
    vertex 11.862717636007005 -198.48870644932026 4.999999999999995
    vertex 12.393315736781462 -198.26892551981007 2.8999999999999946
    vertex 11.862717636007005 -198.48870644932026 2.8999999999999946
  endloop
endfacet
facet normal -0.3826834323650871 0.923879532511288 0.0
  outer loop
    vertex 12.393315736781462 -198.26892551981007 2.8999999999999946
    vertex 11.862717636007005 -198.48870644932026 4.999999999999995
    vertex 12.393315736781462 -198.26892551981007 4.999999999999995
  endloop
endfacet
facet normal 0.6087614290087049 0.7933533402912475 0.0
  outer loop
    vertex 9.737680818171063 -197.91930455009472 4.999999999999995
    vertex 10.193315736781466 -198.26892551981007 2.8999999999999946
    vertex 9.737680818171063 -197.91930455009472 2.8999999999999946
  endloop
endfacet
facet normal 0.6087614290087049 0.7933533402912475 0.0
  outer loop
    vertex 10.193315736781466 -198.26892551981007 2.8999999999999946
    vertex 9.737680818171063 -197.91930455009472 4.999999999999995
    vertex 10.193315736781466 -198.26892551981007 4.999999999999995
  endloop
endfacet
facet normal 0.7933533402912453 0.6087614290087077 0.0
  outer loop
    vertex 9.388059848455706 -197.46366963148432 2.8999999999999946
    vertex 9.737680818171063 -197.91930455009472 4.999999999999995
    vertex 9.737680818171063 -197.91930455009472 2.8999999999999946
  endloop
endfacet
facet normal 0.7933533402912453 0.6087614290087077 0.0
  outer loop
    vertex 9.737680818171063 -197.91930455009472 4.999999999999995
    vertex 9.388059848455706 -197.46366963148432 2.8999999999999946
    vertex 9.388059848455706 -197.46366963148432 4.999999999999995
  endloop
endfacet
facet normal 0.9238795325112817 0.38268343236510244 0.0
  outer loop
    vertex 9.168278918945516 -196.93307153070987 2.8999999999999946
    vertex 9.388059848455706 -197.46366963148432 4.999999999999995
    vertex 9.388059848455706 -197.46366963148432 2.8999999999999946
  endloop
endfacet
facet normal 0.9238795325112817 0.38268343236510244 0.0
  outer loop
    vertex 9.388059848455706 -197.46366963148432 4.999999999999995
    vertex 9.168278918945516 -196.93307153070987 2.8999999999999946
    vertex 9.168278918945516 -196.93307153070987 4.999999999999995
  endloop
endfacet
facet normal 0.9914448613738113 0.1305261922200464 0.0
  outer loop
    vertex 9.093315736781468 -196.36366963148433 2.8999999999999946
    vertex 9.168278918945516 -196.93307153070987 4.999999999999995
    vertex 9.168278918945516 -196.93307153070987 2.8999999999999946
  endloop
endfacet
facet normal 0.9914448613738113 0.1305261922200464 0.0
  outer loop
    vertex 9.168278918945516 -196.93307153070987 4.999999999999995
    vertex 9.093315736781468 -196.36366963148433 2.8999999999999946
    vertex 9.093315736781468 -196.36366963148433 4.999999999999995
  endloop
endfacet
facet normal -0.3826834323650871 -0.923879532511288 0.0
  outer loop
    vertex 12.393315736781462 -194.45841374315856 4.999999999999995
    vertex 11.862717636007005 -194.23863281364837 2.8999999999999946
    vertex 12.393315736781462 -194.45841374315856 2.8999999999999946
  endloop
endfacet
facet normal -0.3826834323650871 -0.923879532511288 0.0
  outer loop
    vertex 11.862717636007005 -194.23863281364837 2.8999999999999946
    vertex 12.393315736781462 -194.45841374315856 4.999999999999995
    vertex 11.862717636007005 -194.23863281364837 4.999999999999995
  endloop
endfacet
facet normal 0.9914448613738113 -0.1305261922200464 0.0
  outer loop
    vertex 9.168278918945516 -195.79426773225876 2.8999999999999946
    vertex 9.093315736781468 -196.36366963148433 4.999999999999995
    vertex 9.093315736781468 -196.36366963148433 2.8999999999999946
  endloop
endfacet
facet normal 0.9914448613738113 -0.1305261922200464 0.0
  outer loop
    vertex 9.093315736781468 -196.36366963148433 4.999999999999995
    vertex 9.168278918945516 -195.79426773225876 2.8999999999999946
    vertex 9.168278918945516 -195.79426773225876 4.999999999999995
  endloop
endfacet
facet normal 0.0 0.0 1.0
  outer loop
    vertex 9.168278918945516 -196.93307153070987 2.8999999999999946
    vertex 9.168278918945516 -195.79426773225876 2.8999999999999946
    vertex 9.093315736781468 -196.36366963148433 2.8999999999999946
  endloop
endfacet
facet normal 0.0 0.0 1.0
  outer loop
    vertex 9.168278918945516 -195.79426773225876 2.8999999999999946
    vertex 9.168278918945516 -196.93307153070987 2.8999999999999946
    vertex 9.388059848455706 -197.46366963148432 2.8999999999999946
  endloop
endfacet
facet normal 0.0 0.0 1.0
  outer loop
    vertex 9.168278918945516 -195.79426773225876 2.8999999999999946
    vertex 9.388059848455706 -197.46366963148432 2.8999999999999946
    vertex 9.3880598484557 -195.26366963148433 2.8999999999999946
  endloop
endfacet
facet normal 0.0 0.0 1.0
  outer loop
    vertex 9.3880598484557 -195.26366963148433 2.8999999999999946
    vertex 9.388059848455706 -197.46366963148432 2.8999999999999946
    vertex 9.737680818171063 -194.80803471287393 2.8999999999999946
  endloop
endfacet
facet normal 0.0 0.0 1.0
  outer loop
    vertex 9.737680818171063 -194.80803471287393 2.8999999999999946
    vertex 9.388059848455706 -197.46366963148432 2.8999999999999946
    vertex 9.737680818171063 -197.91930455009472 2.8999999999999946
  endloop
endfacet
facet normal 0.0 0.0 1.0
  outer loop
    vertex 9.737680818171063 -194.80803471287393 2.8999999999999946
    vertex 9.737680818171063 -197.91930455009472 2.8999999999999946
    vertex 10.193315736781466 -198.26892551981007 2.8999999999999946
  endloop
endfacet
facet normal 0.0 0.0 1.0
  outer loop
    vertex 9.737680818171063 -194.80803471287393 2.8999999999999946
    vertex 10.193315736781466 -198.26892551981007 2.8999999999999946
    vertex 10.193315736781466 -194.45841374315856 2.8999999999999946
  endloop
endfacet
facet normal 0.0 0.0 1.0
  outer loop
    vertex 10.193315736781466 -194.45841374315856 2.8999999999999946
    vertex 10.193315736781466 -198.26892551981007 2.8999999999999946
    vertex 10.723913837555923 -198.48870644932026 2.8999999999999946
  endloop
endfacet
facet normal 0.0 0.0 1.0
  outer loop
    vertex 10.193315736781466 -194.45841374315856 2.8999999999999946
    vertex 10.723913837555923 -198.48870644932026 2.8999999999999946
    vertex 10.723913837555923 -194.23863281364837 2.8999999999999946
  endloop
endfacet
facet normal 0.0 0.0 1.0
  outer loop
    vertex 10.723913837555923 -194.23863281364837 2.8999999999999946
    vertex 10.723913837555923 -198.48870644932026 2.8999999999999946
    vertex 11.293315736781464 -198.56366963148432 2.8999999999999946
  endloop
endfacet
facet normal 0.0 0.0 1.0
  outer loop
    vertex 10.723913837555923 -194.23863281364837 2.8999999999999946
    vertex 11.293315736781464 -198.56366963148432 2.8999999999999946
    vertex 11.293315736781464 -194.1636696314843 2.8999999999999946
  endloop
endfacet
facet normal 0.0 0.0 1.0
  outer loop
    vertex 11.293315736781464 -194.1636696314843 2.8999999999999946
    vertex 11.293315736781464 -198.56366963148432 2.8999999999999946
    vertex 11.862717636007005 -198.48870644932026 2.8999999999999946
  endloop
endfacet
facet normal 0.0 0.0 1.0
  outer loop
    vertex 11.293315736781464 -194.1636696314843 2.8999999999999946
    vertex 11.862717636007005 -198.48870644932026 2.8999999999999946
    vertex 11.862717636007005 -194.23863281364837 2.8999999999999946
  endloop
endfacet
facet normal 0.0 0.0 1.0
  outer loop
    vertex 11.862717636007005 -194.23863281364837 2.8999999999999946
    vertex 11.862717636007005 -198.48870644932026 2.8999999999999946
    vertex 12.393315736781462 -198.26892551981007 2.8999999999999946
  endloop
endfacet
facet normal 0.0 0.0 1.0
  outer loop
    vertex 11.862717636007005 -194.23863281364837 2.8999999999999946
    vertex 12.393315736781462 -198.26892551981007 2.8999999999999946
    vertex 12.393315736781462 -194.45841374315856 2.8999999999999946
  endloop
endfacet
facet normal 0.0 0.0 1.0
  outer loop
    vertex 12.393315736781462 -194.45841374315856 2.8999999999999946
    vertex 12.393315736781462 -198.26892551981007 2.8999999999999946
    vertex 12.848950655391866 -197.91930455009472 2.8999999999999946
  endloop
endfacet
facet normal 0.0 0.0 1.0
  outer loop
    vertex 12.393315736781462 -194.45841374315856 2.8999999999999946
    vertex 12.848950655391866 -197.91930455009472 2.8999999999999946
    vertex 12.848950655391866 -194.8080347128739 2.8999999999999946
  endloop
endfacet
facet normal 0.0 0.0 1.0
  outer loop
    vertex 12.848950655391866 -194.8080347128739 2.8999999999999946
    vertex 12.848950655391866 -197.91930455009472 2.8999999999999946
    vertex 13.198571625107222 -197.46366963148432 2.8999999999999946
  endloop
endfacet
facet normal 0.0 0.0 1.0
  outer loop
    vertex 12.848950655391866 -194.8080347128739 2.8999999999999946
    vertex 13.198571625107222 -197.46366963148432 2.8999999999999946
    vertex 13.198571625107222 -195.26366963148433 2.8999999999999946
  endloop
endfacet
facet normal 0.0 0.0 1.0
  outer loop
    vertex 13.198571625107222 -195.26366963148433 2.8999999999999946
    vertex 13.198571625107222 -197.46366963148432 2.8999999999999946
    vertex 13.418352554617407 -196.93307153070987 2.8999999999999946
  endloop
endfacet
facet normal 0.0 0.0 1.0
  outer loop
    vertex 13.198571625107222 -195.26366963148433 2.8999999999999946
    vertex 13.418352554617407 -196.93307153070987 2.8999999999999946
    vertex 13.418352554617407 -195.79426773225876 2.8999999999999946
  endloop
endfacet
facet normal 0.0 0.0 1.0
  outer loop
    vertex 13.418352554617407 -195.79426773225876 2.8999999999999946
    vertex 13.418352554617407 -196.93307153070987 2.8999999999999946
    vertex 13.49331573678146 -196.36366963148433 2.8999999999999946
  endloop
endfacet
facet normal -0.9914448613738099 0.13052619222005604 0.0
  outer loop
    vertex 13.49331573678146 -196.36366963148433 4.999999999999995
    vertex 13.418352554617407 -196.93307153070987 2.8999999999999946
    vertex 13.418352554617407 -196.93307153070987 4.999999999999995
  endloop
endfacet
facet normal -0.9914448613738099 0.13052619222005604 0.0
  outer loop
    vertex 13.418352554617407 -196.93307153070987 2.8999999999999946
    vertex 13.49331573678146 -196.36366963148433 4.999999999999995
    vertex 13.49331573678146 -196.36366963148433 2.8999999999999946
  endloop
endfacet
facet normal -0.9914448613738099 -0.13052619222005604 0.0
  outer loop
    vertex 13.418352554617407 -195.79426773225876 4.999999999999995
    vertex 13.49331573678146 -196.36366963148433 2.8999999999999946
    vertex 13.49331573678146 -196.36366963148433 4.999999999999995
  endloop
endfacet
facet normal -0.9914448613738099 -0.13052619222005604 0.0
  outer loop
    vertex 13.49331573678146 -196.36366963148433 2.8999999999999946
    vertex 13.418352554617407 -195.79426773225876 4.999999999999995
    vertex 13.418352554617407 -195.79426773225876 2.8999999999999946
  endloop
endfacet
facet normal -0.9238795325112851 -0.382683432365094 0.0
  outer loop
    vertex 13.198571625107222 -195.26366963148433 4.999999999999995
    vertex 13.418352554617407 -195.79426773225876 2.8999999999999946
    vertex 13.418352554617407 -195.79426773225876 4.999999999999995
  endloop
endfacet
facet normal -0.9238795325112851 -0.382683432365094 0.0
  outer loop
    vertex 13.418352554617407 -195.79426773225876 2.8999999999999946
    vertex 13.198571625107222 -195.26366963148433 4.999999999999995
    vertex 13.198571625107222 -195.26366963148433 2.8999999999999946
  endloop
endfacet
facet normal 0.3826834323650871 -0.923879532511288 0.0
  outer loop
    vertex 10.723913837555923 -194.23863281364837 4.999999999999995
    vertex 10.193315736781466 -194.45841374315856 2.8999999999999946
    vertex 10.723913837555923 -194.23863281364837 2.8999999999999946
  endloop
endfacet
facet normal 0.3826834323650871 -0.923879532511288 0.0
  outer loop
    vertex 10.193315736781466 -194.45841374315856 2.8999999999999946
    vertex 10.723913837555923 -194.23863281364837 4.999999999999995
    vertex 10.193315736781466 -194.45841374315856 4.999999999999995
  endloop
endfacet
endsolid ABC
