solid ABC
facet normal 0.9684438416701509 0.2492318710180536 0.0
  outer loop
    vertex 126.39314637998544 -160.32498999335442 5.0
    vertex 126.39314637998544 -160.32498999335442 0.0
    vertex 126.02080596288695 -158.878181515486 5.0
  endloop
endfacet
facet normal 0.9684438416701509 0.2492318710180536 0.0
  outer loop
    vertex 126.02080596288695 -158.878181515486 0.0
    vertex 126.02080596288695 -158.878181515486 5.0
    vertex 126.39314637998544 -160.32498999335442 0.0
  endloop
endfacet
facet normal 0.9627161344585978 -0.2705136677750221 0.0
  outer loop
    vertex 126.02080596288695 -158.878181515486 5.0
    vertex 126.02080596288695 -158.878181515486 0.0
    vertex 126.20165611836518 -158.23456389708505 5.0
  endloop
endfacet
facet normal 0.9627161344585978 -0.2705136677750221 0.0
  outer loop
    vertex 126.20165611836518 -158.23456389708505 0.0
    vertex 126.20165611836518 -158.23456389708505 5.0
    vertex 126.02080596288695 -158.878181515486 0.0
  endloop
endfacet
facet normal 0.965450928249136 -0.2605849288483155 0.0
  outer loop
    vertex 127.9011258804045 -164.2877560472157 5.0
    vertex 127.9011258804045 -164.2877560472157 0.0
    vertex 128.06335910811296 -163.68669204487222 5.0
  endloop
endfacet
facet normal 0.965450928249136 -0.2605849288483155 0.0
  outer loop
    vertex 128.06335910811296 -163.68669204487222 0.0
    vertex 128.06335910811296 -163.68669204487222 5.0
    vertex 127.9011258804045 -164.2877560472157 0.0
  endloop
endfacet
facet normal 0.8967442656864346 0.442549118130968 0.0
  outer loop
    vertex 128.06335910811296 -163.68669204487222 5.0
    vertex 128.06335910811296 -163.68669204487222 0.0
    vertex 127.25484848812765 -162.04839420963887 5.0
  endloop
endfacet
facet normal 0.8967442656864346 0.442549118130968 0.0
  outer loop
    vertex 127.25484848812765 -162.04839420963887 0.0
    vertex 127.25484848812765 -162.04839420963887 5.0
    vertex 128.06335910811296 -163.68669204487222 0.0
  endloop
endfacet
facet normal 0.894427190999916 0.4472135954999577 0.0
  outer loop
    vertex 127.25484848812765 -162.04839420963887 5.0
    vertex 127.25484848812765 -162.04839420963887 0.0
    vertex 126.39314637998544 -160.32498999335442 5.0
  endloop
endfacet
facet normal 0.894427190999916 0.4472135954999577 0.0
  outer loop
    vertex 126.39314637998544 -160.32498999335442 0.0
    vertex 126.39314637998544 -160.32498999335442 5.0
    vertex 127.25484848812765 -162.04839420963887 0.0
  endloop
endfacet
facet normal 0.5923892200615758 -0.8056519173655816 0.0
  outer loop
    vertex 126.20165611836518 -158.23456389708505 0.0
    vertex 126.74421020182116 -157.83562834761022 0.0
    vertex 126.20165611836518 -158.23456389708505 5.0
  endloop
endfacet
facet normal 0.5923892200615758 -0.8056519173655816 0.0
  outer loop
    vertex 126.74421020182116 -157.83562834761022 5.0
    vertex 126.20165611836518 -158.23456389708505 5.0
    vertex 126.74421020182116 -157.83562834761022 0.0
  endloop
endfacet
facet normal 0.45840460329884697 -0.8887436186406217 0.0
  outer loop
    vertex 126.74421020182116 -157.83562834761022 0.0
    vertex 128.76548675178438 -156.79307517973444 0.0
    vertex 126.74421020182116 -157.83562834761022 5.0
  endloop
endfacet
facet normal 0.45840460329884697 -0.8887436186406217 0.0
  outer loop
    vertex 128.76548675178438 -156.79307517973444 5.0
    vertex 126.74421020182116 -157.83562834761022 5.0
    vertex 128.76548675178438 -156.79307517973444 0.0
  endloop
endfacet
facet normal 1.0711170112048897e-32 4.3998163856200007e-32 1.0
  outer loop
    vertex 128.06335910811296 -163.68669204487222 5.0
    vertex 127.25484848812765 -162.04839420963887 5.0
    vertex 127.9011258804045 -164.2877560472157 5.0
  endloop
endfacet
facet normal 1.0711170112048897e-32 4.3998163856200007e-32 1.0
  outer loop
    vertex 127.41442295259843 -164.8143515937991 5.0
    vertex 127.9011258804045 -164.2877560472157 5.0
    vertex 127.25484848812765 -162.04839420963887 5.0
  endloop
endfacet
facet normal 1.0711170112048897e-32 4.3998163856200007e-32 1.0
  outer loop
    vertex 125.95697617709862 -165.30371328484281 5.0
    vertex 127.41442295259843 -164.8143515937991 5.0
    vertex 127.25484848812765 -162.04839420963887 5.0
  endloop
endfacet
facet normal 1.0711170112048897e-32 4.3998163856200007e-32 1.0
  outer loop
    vertex 126.39314637998544 -160.32498999335442 5.0
    vertex 125.95697617709862 -165.30371328484281 5.0
    vertex 127.25484848812765 -162.04839420963887 5.0
  endloop
endfacet
facet normal 1.0711170112048897e-32 4.3998163856200007e-32 1.0
  outer loop
    vertex 126.02080596288695 -158.878181515486 5.0
    vertex 125.95697617709862 -165.30371328484281 5.0
    vertex 126.39314637998544 -160.32498999335442 5.0
  endloop
endfacet
facet normal 1.0711170112048897e-32 4.3998163856200007e-32 1.0
  outer loop
    vertex 126.56867868983947 -148.09094665343133 5.0
    vertex 127.41015826284193 -152.25243837860074 4.999999999999995
    vertex 127.58463651257293 -148.3037115422293 5.0
  endloop
endfacet
facet normal 1.0711170112048897e-32 4.3998163856200007e-32 1.0
  outer loop
    vertex 127.48512144500599 -152.8218402778263 4.999999999999995
    vertex 127.58463651257293 -148.3037115422293 5.0
    vertex 127.41015826284193 -152.25243837860074 4.999999999999995
  endloop
endfacet
facet normal 1.0711170112048897e-32 4.3998163856200007e-32 1.0
  outer loop
    vertex 127.19037733333175 -151.7218402778263 4.999999999999995
    vertex 127.41015826284193 -152.25243837860074 4.999999999999995
    vertex 126.56867868983947 -148.09094665343133 5.0
  endloop
endfacet
facet normal 1.0711170112048897e-32 4.3998163856200007e-32 1.0
  outer loop
    vertex 126.8407563636164 -151.26620535921592 4.999999999999995
    vertex 127.19037733333175 -151.7218402778263 4.999999999999995
    vertex 126.56867868983947 -148.09094665343133 5.0
  endloop
endfacet
facet normal 1.0711170112048897e-32 4.3998163856200007e-32 1.0
  outer loop
    vertex 126.38512144500599 -150.91658438950054 4.999999999999995
    vertex 126.8407563636164 -151.26620535921592 4.999999999999995
    vertex 126.56867868983947 -148.09094665343133 5.0
  endloop
endfacet
facet normal 1.0711170112048897e-32 4.3998163856200007e-32 1.0
  outer loop
    vertex 125.94422764472165 -147.9601722706752 5.0
    vertex 126.38512144500599 -150.91658438950054 4.999999999999995
    vertex 126.56867868983947 -148.09094665343133 5.0
  endloop
endfacet
facet normal 1.0711170112048897e-32 4.3998163856200007e-32 1.0
  outer loop
    vertex 125.85452334423155 -150.69680345999035 4.999999999999995
    vertex 126.38512144500599 -150.91658438950054 4.999999999999995
    vertex 125.94422764472165 -147.9601722706752 5.0
  endloop
endfacet
facet normal 1.0711170112048897e-32 4.3998163856200007e-32 1.0
  outer loop
    vertex 125.66945990144423 -145.82674144333433 5.0
    vertex 125.85452334423155 -150.69680345999035 4.999999999999995
    vertex 125.94422764472165 -147.9601722706752 5.0
  endloop
endfacet
facet normal 1.0711170112048897e-32 4.3998163856200007e-32 1.0
  outer loop
    vertex 125.285121445006 -150.6218402778263 4.999999999999995
    vertex 125.85452334423155 -150.69680345999035 4.999999999999995
    vertex 125.66945990144423 -145.82674144333433 5.0
  endloop
endfacet
facet normal 1.0711170112048897e-32 4.3998163856200007e-32 1.0
  outer loop
    vertex 130.55272075385716 -152.8569050561218 5.0
    vertex 130.23889254288017 -151.0803086601911 5.0
    vertex 130.10591448738148 -155.04307630979704 5.0
  endloop
endfacet
facet normal 1.0711170112048897e-32 4.3998163856200007e-32 1.0
  outer loop
    vertex 129.29740163335367 -149.58030938565508 5.0
    vertex 130.10591448738148 -155.04307630979704 5.0
    vertex 130.23889254288017 -151.0803086601911 5.0
  endloop
endfacet
facet normal 1.0711170112048897e-32 4.3998163856200007e-32 1.0
  outer loop
    vertex 128.76548675178438 -156.79307517973444 5.0
    vertex 130.10591448738148 -155.04307630979704 5.0
    vertex 129.29740163335367 -149.58030938565508 5.0
  endloop
endfacet
facet normal 1.0711170112048897e-32 4.3998163856200007e-32 1.0
  outer loop
    vertex 127.58463651257293 -148.3037115422293 5.0
    vertex 128.76548675178438 -156.79307517973444 5.0
    vertex 129.29740163335367 -149.58030938565508 5.0
  endloop
endfacet
facet normal 1.0711170112048897e-32 4.3998163856200007e-32 1.0
  outer loop
    vertex 127.48512144500599 -152.8218402778263 4.999999999999995
    vertex 128.76548675178438 -156.79307517973444 5.0
    vertex 127.58463651257293 -148.3037115422293 5.0
  endloop
endfacet
facet normal 1.0711170112048897e-32 4.3998163856200007e-32 1.0
  outer loop
    vertex 127.41015826284193 -153.39124217705185 4.999999999999995
    vertex 128.76548675178438 -156.79307517973444 5.0
    vertex 127.48512144500599 -152.8218402778263 4.999999999999995
  endloop
endfacet
facet normal 1.0711170112048897e-32 4.3998163856200007e-32 1.0
  outer loop
    vertex 126.74421020182116 -157.83562834761022 5.0
    vertex 128.76548675178438 -156.79307517973444 5.0
    vertex 127.41015826284193 -153.39124217705185 4.999999999999995
  endloop
endfacet
facet normal 1.0711170112048897e-32 4.3998163856200007e-32 1.0
  outer loop
    vertex 127.19037733333175 -153.9218402778263 4.999999999999995
    vertex 126.74421020182116 -157.83562834761022 5.0
    vertex 127.41015826284193 -153.39124217705185 4.999999999999995
  endloop
endfacet
facet normal 1.0711170112048897e-32 4.3998163856200007e-32 1.0
  outer loop
    vertex 126.8407563636164 -154.3774751964367 4.999999999999995
    vertex 126.74421020182116 -157.83562834761022 5.0
    vertex 127.19037733333175 -153.9218402778263 4.999999999999995
  endloop
endfacet
facet normal 1.0711170112048897e-32 4.3998163856200007e-32 1.0
  outer loop
    vertex 126.38512144500599 -154.72709616615205 4.999999999999995
    vertex 126.74421020182116 -157.83562834761022 5.0
    vertex 126.8407563636164 -154.3774751964367 4.999999999999995
  endloop
endfacet
facet normal 1.0711170112048897e-32 4.3998163856200007e-32 1.0
  outer loop
    vertex 126.20165611836518 -158.23456389708505 5.0
    vertex 126.74421020182116 -157.83562834761022 5.0
    vertex 126.38512144500599 -154.72709616615205 4.999999999999995
  endloop
endfacet
facet normal 1.0711170112048897e-32 4.3998163856200007e-32 1.0
  outer loop
    vertex 125.85452334423155 -154.94687709566224 4.999999999999995
    vertex 126.20165611836518 -158.23456389708505 5.0
    vertex 126.38512144500599 -154.72709616615205 4.999999999999995
  endloop
endfacet
facet normal 1.0711170112048897e-32 4.3998163856200007e-32 1.0
  outer loop
    vertex 126.02080596288695 -158.878181515486 5.0
    vertex 126.20165611836518 -158.23456389708505 5.0
    vertex 125.85452334423155 -154.94687709566224 4.999999999999995
  endloop
endfacet
facet normal 1.0711170112048897e-32 4.3998163856200007e-32 1.0
  outer loop
    vertex 125.95697617709862 -165.30371328484281 5.0
    vertex 126.02080596288695 -158.878181515486 5.0
    vertex 125.85452334423155 -154.94687709566224 4.999999999999995
  endloop
endfacet
facet normal 1.0711170112048897e-32 4.3998163856200007e-32 1.0
  outer loop
    vertex 125.05138930598761 -165.1281826904143 5.0
    vertex 125.95697617709862 -165.30371328484281 5.0
    vertex 125.85452334423155 -154.94687709566224 4.999999999999995
  endloop
endfacet
facet normal 1.0711170112048897e-32 4.3998163856200007e-32 1.0
  outer loop
    vertex 125.285121445006 -155.0218402778263 4.999999999999995
    vertex 125.05138930598761 -165.1281826904143 5.0
    vertex 125.85452334423155 -154.94687709566224 4.999999999999995
  endloop
endfacet
facet normal 1.0711170112048897e-32 4.3998163856200007e-32 1.0
  outer loop
    vertex 124.71571954578044 -154.94687709566224 4.999999999999995
    vertex 125.05138930598761 -165.1281826904143 5.0
    vertex 125.285121445006 -155.0218402778263 4.999999999999995
  endloop
endfacet
facet normal 1.0711170112048897e-32 4.3998163856200007e-32 1.0
  outer loop
    vertex 124.16442284003996 -164.6015891518096 5.0
    vertex 125.05138930598761 -165.1281826904143 5.0
    vertex 124.71571954578044 -154.94687709566224 4.999999999999995
  endloop
endfacet
facet normal 1.0711170112048897e-32 4.3998163856200007e-32 1.0
  outer loop
    vertex 124.18512144500599 -154.72709616615205 4.999999999999995
    vertex 124.16442284003996 -164.6015891518096 5.0
    vertex 124.71571954578044 -154.94687709566224 4.999999999999995
  endloop
endfacet
facet normal 1.0711170112048897e-32 4.3998163856200007e-32 1.0
  outer loop
    vertex 123.72948652639558 -154.37747519643668 4.999999999999995
    vertex 124.16442284003996 -164.6015891518096 5.0
    vertex 124.18512144500599 -154.72709616615205 4.999999999999995
  endloop
endfacet
facet normal 1.0711170112048897e-32 4.3998163856200007e-32 1.0
  outer loop
    vertex 122.44633795874144 -162.49520271015706 5.0
    vertex 124.16442284003996 -164.6015891518096 5.0
    vertex 123.72948652639558 -154.37747519643668 4.999999999999995
  endloop
endfacet
facet normal 1.0711170112048897e-32 4.3998163856200007e-32 1.0
  outer loop
    vertex 123.37986555668023 -153.9218402778263 4.999999999999995
    vertex 122.44633795874144 -162.49520271015706 5.0
    vertex 123.72948652639558 -154.37747519643668 4.999999999999995
  endloop
endfacet
facet normal 1.0711170112048897e-32 4.3998163856200007e-32 1.0
  outer loop
    vertex 123.16008462717005 -153.39124217705185 4.999999999999995
    vertex 122.44633795874144 -162.49520271015706 5.0
    vertex 123.37986555668023 -153.9218402778263 4.999999999999995
  endloop
endfacet
facet normal 1.0711170112048897e-32 4.3998163856200007e-32 1.0
  outer loop
    vertex 123.085121445006 -152.8218402778263 4.999999999999995
    vertex 122.44633795874144 -162.49520271015706 5.0
    vertex 123.16008462717005 -153.39124217705185 4.999999999999995
  endloop
endfacet
facet normal 1.0711170112048897e-32 4.3998163856200007e-32 1.0
  outer loop
    vertex 130.2974016107039 -140.81435213739346 5.0
    vertex 129.97825427750698 -139.01115991759704 5.0
    vertex 129.91974393308755 -142.8515871178463 5.0
  endloop
endfacet
facet normal 1.0711170112048897e-32 4.3998163856200007e-32 1.0
  outer loop
    vertex 129.02080589493764 -137.51647987166396 5.0
    vertex 129.91974393308755 -142.8515871178463 5.0
    vertex 129.97825427750698 -139.01115991759704 5.0
  endloop
endfacet
facet normal 1.0711170112048897e-32 4.3998163856200007e-32 1.0
  outer loop
    vertex 128.78676334704716 -144.4952031178528 5.0
    vertex 129.91974393308755 -142.8515871178463 5.0
    vertex 129.02080589493764 -137.51647987166396 5.0
  endloop
endfacet
facet normal 1.0711170112048897e-32 4.3998163856200007e-32 1.0
  outer loop
    vertex 127.30272175831993 -136.2717969743238 5.0
    vertex 128.78676334704716 -144.4952031178528 5.0
    vertex 129.02080589493764 -137.51647987166396 5.0
  endloop
endfacet
facet normal 1.0711170112048897e-32 4.3998163856200007e-32 1.0
  outer loop
    vertex 127.17506197397735 -145.5483963386791 5.0
    vertex 128.78676334704716 -144.4952031178528 5.0
    vertex 127.30272175831993 -136.2717969743238 5.0
  endloop
endfacet
facet normal 1.0711170112048897e-32 4.3998163856200007e-32 1.0
  outer loop
    vertex 125.21229534290165 -135.8569054411678 5.0
    vertex 127.17506197397735 -145.5483963386791 5.0
    vertex 127.30272175831993 -136.2717969743238 5.0
  endloop
endfacet
facet normal 1.0711170112048897e-32 4.3998163856200007e-32 1.0
  outer loop
    vertex 125.66945990144423 -145.82674144333433 5.0
    vertex 127.17506197397735 -145.5483963386791 5.0
    vertex 125.21229534290165 -135.8569054411678 5.0
  endloop
endfacet
facet normal 1.0711170112048897e-32 4.3998163856200007e-32 1.0
  outer loop
    vertex 125.285121445006 -150.6218402778263 4.999999999999995
    vertex 125.66945990144423 -145.82674144333433 5.0
    vertex 125.21229534290165 -135.8569054411678 5.0
  endloop
endfacet
facet normal 1.0711170112048897e-32 4.3998163856200007e-32 1.0
  outer loop
    vertex 125.16396692525353 -147.97236442064923 5.0
    vertex 125.285121445006 -150.6218402778263 4.999999999999995
    vertex 125.21229534290165 -135.8569054411678 5.0
  endloop
endfacet
facet normal 1.0711170112048897e-32 4.3998163856200007e-32 1.0
  outer loop
    vertex 124.71571954578044 -150.69680345999035 4.999999999999995
    vertex 125.285121445006 -150.6218402778263 4.999999999999995
    vertex 125.16396692525353 -147.97236442064923 5.0
  endloop
endfacet
facet normal 1.0711170112048897e-32 4.3998163856200007e-32 1.0
  outer loop
    vertex 123.48889112661719 -148.37818175330852 5.0
    vertex 124.71571954578044 -150.69680345999035 4.999999999999995
    vertex 125.16396692525353 -147.97236442064923 5.0
  endloop
endfacet
facet normal 1.0711170112048897e-32 4.3998163856200007e-32 1.0
  outer loop
    vertex 124.18512144500599 -150.91658438950054 4.999999999999995
    vertex 124.71571954578044 -150.69680345999035 4.999999999999995
    vertex 123.48889112661719 -148.37818175330852 5.0
  endloop
endfacet
facet normal 1.0711170112048897e-32 4.3998163856200007e-32 1.0
  outer loop
    vertex 123.72948652639558 -151.2662053592159 4.999999999999995
    vertex 124.18512144500599 -150.91658438950054 4.999999999999995
    vertex 123.48889112661719 -148.37818175330852 5.0
  endloop
endfacet
facet normal 1.0711170112048897e-32 4.3998163856200007e-32 1.0
  outer loop
    vertex 123.37986555668023 -151.7218402778263 4.999999999999995
    vertex 123.72948652639558 -151.2662053592159 4.999999999999995
    vertex 123.48889112661719 -148.37818175330852 5.0
  endloop
endfacet
facet normal 1.0711170112048897e-32 4.3998163856200007e-32 1.0
  outer loop
    vertex 121.78676350559552 -149.72924555249446 5.0
    vertex 123.37986555668023 -151.7218402778263 4.999999999999995
    vertex 123.48889112661719 -148.37818175330852 5.0
  endloop
endfacet
facet normal 1.0711170112048897e-32 4.3998163856200007e-32 1.0
  outer loop
    vertex 123.16008462717005 -152.25243837860074 4.999999999999995
    vertex 123.37986555668023 -151.7218402778263 4.999999999999995
    vertex 121.78676350559552 -149.72924555249446 5.0
  endloop
endfacet
facet normal 1.0711170112048897e-32 4.3998163856200007e-32 1.0
  outer loop
    vertex 123.085121445006 -152.8218402778263 4.999999999999995
    vertex 123.16008462717005 -152.25243837860074 4.999999999999995
    vertex 121.78676350559552 -149.72924555249446 5.0
  endloop
endfacet
facet normal 1.0711170112048897e-32 4.3998163856200007e-32 1.0
  outer loop
    vertex 122.44633795874144 -162.49520271015706 5.0
    vertex 123.085121445006 -152.8218402778263 4.999999999999995
    vertex 121.78676350559552 -149.72924555249446 5.0
  endloop
endfacet
facet normal 1.0711170112048897e-32 4.3998163856200007e-32 1.0
  outer loop
    vertex 120.79740182587668 -158.6547772652269 5.0
    vertex 122.44633795874144 -162.49520271015706 5.0
    vertex 121.78676350559552 -149.72924555249446 5.0
  endloop
endfacet
facet normal 1.0711170112048897e-32 4.3998163856200007e-32 1.0
  outer loop
    vertex 120.57399555434104 -152.01647821345517 5.0
    vertex 120.79740182587668 -158.6547772652269 5.0
    vertex 121.78676350559552 -149.72924555249446 5.0
  endloop
endfacet
facet normal 1.0711170112048897e-32 4.3998163856200007e-32 1.0
  outer loop
    vertex 120.16974226562493 -154.8356284155595 5.0
    vertex 120.79740182587668 -158.6547772652269 5.0
    vertex 120.57399555434104 -152.01647821345517 5.0
  endloop
endfacet
facet normal 1.0711170112048897e-32 4.3998163856200007e-32 1.0
  outer loop
    vertex 123.31601805872423 -136.2212653132343 5.0
    vertex 124.88286377646477 -145.82634541834645 5.0
    vertex 125.21229534290165 -135.8569054411678 5.0
  endloop
endfacet
facet normal 1.0711170112048897e-32 4.3998163856200007e-32 1.0
  outer loop
    vertex 125.16396692525353 -147.97236442064923 5.0
    vertex 125.21229534290165 -135.8569054411678 5.0
    vertex 124.88286377646477 -145.82634541834645 5.0
  endloop
endfacet
facet normal 1.0711170112048897e-32 4.3998163856200007e-32 1.0
  outer loop
    vertex 123.38782663422543 -145.5483963386791 5.0
    vertex 124.88286377646477 -145.82634541834645 5.0
    vertex 123.31601805872423 -136.2212653132343 5.0
  endloop
endfacet
facet normal 1.0711170112048897e-32 4.3998163856200007e-32 1.0
  outer loop
    vertex 121.76548691033275 -144.4952031178528 5.0
    vertex 123.38782663422543 -145.5483963386791 5.0
    vertex 123.31601805872423 -136.2212653132343 5.0
  endloop
endfacet
facet normal 1.0711170112048897e-32 4.3998163856200007e-32 1.0
  outer loop
    vertex 121.71229542217583 -137.31435221666763 5.0
    vertex 121.76548691033275 -144.4952031178528 5.0
    vertex 123.31601805872423 -136.2212653132343 5.0
  endloop
endfacet
facet normal 1.0711170112048897e-32 4.3998163856200007e-32 1.0
  outer loop
    vertex 120.63250632429236 -142.8515871178463 5.0
    vertex 121.76548691033275 -144.4952031178528 5.0
    vertex 121.71229542217583 -137.31435221666763 5.0
  endloop
endfacet
facet normal 1.0711170112048897e-32 4.3998163856200007e-32 1.0
  outer loop
    vertex 120.6192085187425 -138.91807485321604 5.0
    vertex 120.63250632429236 -142.8515871178463 5.0
    vertex 121.71229542217583 -137.31435221666763 5.0
  endloop
endfacet
facet normal 1.0711170112048897e-32 4.3998163856200007e-32 1.0
  outer loop
    vertex 120.25484864667602 -140.81435213739346 5.0
    vertex 120.63250632429236 -142.8515871178463 5.0
    vertex 120.6192085187425 -138.91807485321604 5.0
  endloop
endfacet
facet normal 0.0 0.0 -1.0
  outer loop
    vertex 130.2974016107039 -140.81435213739346 0.0
    vertex 129.91974393308755 -142.8515871178463 0.0
    vertex 129.97825427750698 -139.01115991759704 0.0
  endloop
endfacet
facet normal 0.0 0.0 -1.0
  outer loop
    vertex 129.02080589493764 -137.51647987166396 0.0
    vertex 129.97825427750698 -139.01115991759704 0.0
    vertex 129.91974393308755 -142.8515871178463 0.0
  endloop
endfacet
facet normal 0.0 0.0 -1.0
  outer loop
    vertex 128.78676334704716 -144.4952031178528 0.0
    vertex 129.02080589493764 -137.51647987166396 0.0
    vertex 129.91974393308755 -142.8515871178463 0.0
  endloop
endfacet
facet normal 0.0 0.0 -1.0
  outer loop
    vertex 127.30272175831993 -136.2717969743238 0.0
    vertex 129.02080589493764 -137.51647987166396 0.0
    vertex 128.78676334704716 -144.4952031178528 0.0
  endloop
endfacet
facet normal 0.0 0.0 -1.0
  outer loop
    vertex 127.17506197397735 -145.5483963386791 0.0
    vertex 127.30272175831993 -136.2717969743238 0.0
    vertex 128.78676334704716 -144.4952031178528 0.0
  endloop
endfacet
facet normal 0.0 0.0 -1.0
  outer loop
    vertex 125.21229534290165 -135.8569054411678 0.0
    vertex 127.30272175831993 -136.2717969743238 0.0
    vertex 127.17506197397735 -145.5483963386791 0.0
  endloop
endfacet
facet normal 0.0 0.0 -1.0
  outer loop
    vertex 125.66945990144423 -145.82674144333433 0.0
    vertex 125.21229534290165 -135.8569054411678 0.0
    vertex 127.17506197397735 -145.5483963386791 0.0
  endloop
endfacet
facet normal 0.0 0.0 -1.0
  outer loop
    vertex 125.16396692525353 -147.97236442064923 0.0
    vertex 124.88286377646477 -145.82634541834645 0.0
    vertex 125.21229534290165 -135.8569054411678 0.0
  endloop
endfacet
facet normal 0.0 0.0 -1.0
  outer loop
    vertex 123.31601805872423 -136.2212653132343 0.0
    vertex 125.21229534290165 -135.8569054411678 0.0
    vertex 124.88286377646477 -145.82634541834645 0.0
  endloop
endfacet
facet normal 0.0 0.0 -1.0
  outer loop
    vertex 123.38782663422543 -145.5483963386791 0.0
    vertex 123.31601805872423 -136.2212653132343 0.0
    vertex 124.88286377646477 -145.82634541834645 0.0
  endloop
endfacet
facet normal 0.0 0.0 -1.0
  outer loop
    vertex 121.76548691033275 -144.4952031178528 0.0
    vertex 123.31601805872423 -136.2212653132343 0.0
    vertex 123.38782663422543 -145.5483963386791 0.0
  endloop
endfacet
facet normal 0.0 0.0 -1.0
  outer loop
    vertex 121.71229542217583 -137.31435221666763 0.0
    vertex 123.31601805872423 -136.2212653132343 0.0
    vertex 121.76548691033275 -144.4952031178528 0.0
  endloop
endfacet
facet normal 0.0 0.0 -1.0
  outer loop
    vertex 120.63250632429236 -142.8515871178463 0.0
    vertex 121.71229542217583 -137.31435221666763 0.0
    vertex 121.76548691033275 -144.4952031178528 0.0
  endloop
endfacet
facet normal 0.0 0.0 -1.0
  outer loop
    vertex 120.6192085187425 -138.91807485321604 0.0
    vertex 121.71229542217583 -137.31435221666763 0.0
    vertex 120.63250632429236 -142.8515871178463 0.0
  endloop
endfacet
facet normal 0.0 0.0 -1.0
  outer loop
    vertex 120.25484864667602 -140.81435213739346 0.0
    vertex 120.6192085187425 -138.91807485321604 0.0
    vertex 120.63250632429236 -142.8515871178463 0.0
  endloop
endfacet
facet normal 0.0 0.0 -1.0
  outer loop
    vertex 130.55272075385716 -152.8569050561218 0.0
    vertex 130.10591448738148 -155.04307630979704 0.0
    vertex 130.23889254288017 -151.0803086601911 0.0
  endloop
endfacet
facet normal 0.0 0.0 -1.0
  outer loop
    vertex 129.29740163335367 -149.58030938565508 0.0
    vertex 130.23889254288017 -151.0803086601911 0.0
    vertex 130.10591448738148 -155.04307630979704 0.0
  endloop
endfacet
facet normal 0.0 0.0 -1.0
  outer loop
    vertex 128.76548675178438 -156.79307517973444 0.0
    vertex 129.29740163335367 -149.58030938565508 0.0
    vertex 130.10591448738148 -155.04307630979704 0.0
  endloop
endfacet
facet normal 0.0 0.0 -1.0
  outer loop
    vertex 127.58463651257293 -148.3037115422293 0.0
    vertex 129.29740163335367 -149.58030938565508 0.0
    vertex 128.76548675178438 -156.79307517973444 0.0
  endloop
endfacet
facet normal 0.0 0.0 -1.0
  outer loop
    vertex 126.74421020182116 -157.83562834761022 0.0
    vertex 127.58463651257293 -148.3037115422293 0.0
    vertex 128.76548675178438 -156.79307517973444 0.0
  endloop
endfacet
facet normal 0.0 0.0 -1.0
  outer loop
    vertex 125.94422764472165 -147.96017227067523 0.0
    vertex 127.58463651257293 -148.3037115422293 0.0
    vertex 126.74421020182116 -157.83562834761022 0.0
  endloop
endfacet
facet normal 0.0 0.0 -1.0
  outer loop
    vertex 126.20165611836518 -158.23456389708505 0.0
    vertex 125.94422764472165 -147.96017227067523 0.0
    vertex 126.74421020182116 -157.83562834761022 0.0
  endloop
endfacet
facet normal 0.0 0.0 -1.0
  outer loop
    vertex 126.02080596288695 -158.878181515486 0.0
    vertex 125.94422764472165 -147.96017227067523 0.0
    vertex 126.20165611836518 -158.23456389708505 0.0
  endloop
endfacet
facet normal 0.0 0.0 -1.0
  outer loop
    vertex 125.95697617709862 -165.30371328484281 0.0
    vertex 125.94422764472165 -147.96017227067523 0.0
    vertex 126.02080596288695 -158.878181515486 0.0
  endloop
endfacet
facet normal 0.0 0.0 -1.0
  outer loop
    vertex 125.05138930598761 -165.1281826904143 0.0
    vertex 125.94422764472165 -147.96017227067523 0.0
    vertex 125.95697617709862 -165.30371328484281 0.0
  endloop
endfacet
facet normal 0.0 0.0 -1.0
  outer loop
    vertex 125.66945990144423 -145.82674144333433 0.0
    vertex 125.94422764472165 -147.96017227067523 0.0
    vertex 125.05138930598761 -165.1281826904143 0.0
  endloop
endfacet
facet normal 0.0 0.0 -1.0
  outer loop
    vertex 125.16396692525353 -147.97236442064923 0.0
    vertex 125.66945990144423 -145.82674144333433 0.0
    vertex 125.05138930598761 -165.1281826904143 0.0
  endloop
endfacet
facet normal 0.0 0.0 -1.0
  outer loop
    vertex 125.21229534290165 -135.8569054411678 0.0
    vertex 125.66945990144423 -145.82674144333433 0.0
    vertex 125.16396692525353 -147.97236442064923 0.0
  endloop
endfacet
facet normal 0.0 0.0 -1.0
  outer loop
    vertex 123.48889112661719 -148.37818175330852 0.0
    vertex 125.16396692525353 -147.97236442064923 0.0
    vertex 125.05138930598761 -165.1281826904143 0.0
  endloop
endfacet
facet normal 0.0 0.0 -1.0
  outer loop
    vertex 124.16442284003996 -164.6015891518096 0.0
    vertex 123.48889112661719 -148.37818175330852 0.0
    vertex 125.05138930598761 -165.1281826904143 0.0
  endloop
endfacet
facet normal 0.0 0.0 -1.0
  outer loop
    vertex 122.44633795874144 -162.49520271015706 0.0
    vertex 123.48889112661719 -148.37818175330852 0.0
    vertex 124.16442284003996 -164.6015891518096 0.0
  endloop
endfacet
facet normal 0.0 0.0 -1.0
  outer loop
    vertex 121.78676350559552 -149.72924555249446 0.0
    vertex 123.48889112661719 -148.37818175330852 0.0
    vertex 122.44633795874144 -162.49520271015706 0.0
  endloop
endfacet
facet normal 0.0 0.0 -1.0
  outer loop
    vertex 120.79740182587668 -158.6547772652269 0.0
    vertex 121.78676350559552 -149.72924555249446 0.0
    vertex 122.44633795874144 -162.49520271015706 0.0
  endloop
endfacet
facet normal 0.0 0.0 -1.0
  outer loop
    vertex 120.57399555434104 -152.01647821345517 0.0
    vertex 121.78676350559552 -149.72924555249446 0.0
    vertex 120.79740182587668 -158.6547772652269 0.0
  endloop
endfacet
facet normal 0.0 0.0 -1.0
  outer loop
    vertex 120.16974226562493 -154.8356284155595 0.0
    vertex 120.57399555434104 -152.01647821345517 0.0
    vertex 120.79740182587668 -158.6547772652269 0.0
  endloop
endfacet
facet normal 0.0 0.0 -1.0
  outer loop
    vertex 128.06335910811296 -163.68669204487222 0.0
    vertex 127.9011258804045 -164.2877560472157 0.0
    vertex 127.25484848812765 -162.04839420963887 0.0
  endloop
endfacet
facet normal 0.0 0.0 -1.0
  outer loop
    vertex 127.41442295259843 -164.8143515937991 0.0
    vertex 127.25484848812765 -162.04839420963887 0.0
    vertex 127.9011258804045 -164.2877560472157 0.0
  endloop
endfacet
facet normal 0.0 0.0 -1.0
  outer loop
    vertex 125.95697617709862 -165.30371328484281 0.0
    vertex 127.25484848812765 -162.04839420963887 0.0
    vertex 127.41442295259843 -164.8143515937991 0.0
  endloop
endfacet
facet normal 0.0 0.0 -1.0
  outer loop
    vertex 126.39314637998544 -160.32498999335442 0.0
    vertex 127.25484848812765 -162.04839420963887 0.0
    vertex 125.95697617709862 -165.30371328484281 0.0
  endloop
endfacet
facet normal 0.0 0.0 -1.0
  outer loop
    vertex 126.02080596288695 -158.878181515486 0.0
    vertex 126.39314637998544 -160.32498999335442 0.0
    vertex 125.95697617709862 -165.30371328484281 0.0
  endloop
endfacet
facet normal -0.2354566400394836 0.9718848546311013 0.0
  outer loop
    vertex 125.16396692525353 -147.97236442064923 0.0
    vertex 123.48889112661719 -148.37818175330852 0.0
    vertex 125.16396692525353 -147.97236442064923 5.0
  endloop
endfacet
facet normal -0.2354566400394836 0.9718848546311013 0.0
  outer loop
    vertex 123.48889112661719 -148.37818175330852 5.0
    vertex 125.16396692525353 -147.97236442064923 5.0
    vertex 123.48889112661719 -148.37818175330852 0.0
  endloop
endfacet
facet normal -0.6217055327218447 0.7832510648464177 0.0
  outer loop
    vertex 123.48889112661719 -148.37818175330852 0.0
    vertex 121.78676350559552 -149.72924555249446 0.0
    vertex 123.48889112661719 -148.37818175330852 5.0
  endloop
endfacet
facet normal -0.6217055327218447 0.7832510648464177 0.0
  outer loop
    vertex 121.78676350559552 -149.72924555249446 5.0
    vertex 123.48889112661719 -148.37818175330852 5.0
    vertex 121.78676350559552 -149.72924555249446 0.0
  endloop
endfacet
facet normal -0.8834874350972642 0.4684548559095716 0.0
  outer loop
    vertex 120.57399555434104 -152.01647821345517 0.0
    vertex 120.57399555434104 -152.01647821345517 5.0
    vertex 121.78676350559552 -149.72924555249446 0.0
  endloop
endfacet
facet normal -0.8834874350972642 0.4684548559095716 0.0
  outer loop
    vertex 121.78676350559552 -149.72924555249446 5.0
    vertex 121.78676350559552 -149.72924555249446 0.0
    vertex 120.57399555434104 -152.01647821345517 5.0
  endloop
endfacet
facet normal -0.9898747571407281 0.1419435281215199 0.0
  outer loop
    vertex 120.16974226562493 -154.8356284155595 0.0
    vertex 120.16974226562493 -154.8356284155595 5.0
    vertex 120.57399555434104 -152.01647821345517 0.0
  endloop
endfacet
facet normal -0.9898747571407281 0.1419435281215199 0.0
  outer loop
    vertex 120.57399555434104 -152.01647821345517 5.0
    vertex 120.57399555434104 -152.01647821345517 0.0
    vertex 120.16974226562493 -154.8356284155595 5.0
  endloop
endfacet
facet normal -0.9867628444249601 -0.1621699382202578 0.0
  outer loop
    vertex 120.79740182587668 -158.6547772652269 0.0
    vertex 120.79740182587668 -158.6547772652269 5.0
    vertex 120.16974226562493 -154.8356284155595 0.0
  endloop
endfacet
facet normal -0.9867628444249601 -0.1621699382202578 0.0
  outer loop
    vertex 120.16974226562493 -154.8356284155595 5.0
    vertex 120.16974226562493 -154.8356284155595 0.0
    vertex 120.79740182587668 -158.6547772652269 5.0
  endloop
endfacet
facet normal -0.9188815096896161 -0.39453361219360283 0.0
  outer loop
    vertex 122.44633795874144 -162.49520271015706 0.0
    vertex 122.44633795874144 -162.49520271015706 5.0
    vertex 120.79740182587668 -158.6547772652269 0.0
  endloop
endfacet
facet normal -0.9188815096896161 -0.39453361219360283 0.0
  outer loop
    vertex 120.79740182587668 -158.6547772652269 5.0
    vertex 120.79740182587668 -158.6547772652269 0.0
    vertex 122.44633795874144 -162.49520271015706 5.0
  endloop
endfacet
facet normal -0.7749160148692996 -0.6320642134301573 0.0
  outer loop
    vertex 124.16442284003996 -164.6015891518096 0.0
    vertex 124.16442284003996 -164.6015891518096 5.0
    vertex 122.44633795874144 -162.49520271015706 0.0
  endloop
endfacet
facet normal -0.7749160148692996 -0.6320642134301573 0.0
  outer loop
    vertex 122.44633795874144 -162.49520271015706 5.0
    vertex 122.44633795874144 -162.49520271015706 0.0
    vertex 124.16442284003996 -164.6015891518096 5.0
  endloop
endfacet
facet normal -0.5105080758588766 -0.8598729583391185 0.0
  outer loop
    vertex 124.16442284003996 -164.6015891518096 0.0
    vertex 125.05138930598761 -165.1281826904143 0.0
    vertex 124.16442284003996 -164.6015891518096 5.0
  endloop
endfacet
facet normal -0.5105080758588766 -0.8598729583391185 0.0
  outer loop
    vertex 125.05138930598761 -165.1281826904143 5.0
    vertex 124.16442284003996 -164.6015891518096 5.0
    vertex 125.05138930598761 -165.1281826904143 0.0
  endloop
endfacet
facet normal -0.19028910631671855 -0.9817280967850439 0.0
  outer loop
    vertex 125.05138930598761 -165.1281826904143 0.0
    vertex 125.95697617709862 -165.30371328484281 0.0
    vertex 125.05138930598761 -165.1281826904143 5.0
  endloop
endfacet
facet normal -0.19028910631671855 -0.9817280967850439 0.0
  outer loop
    vertex 125.95697617709862 -165.30371328484281 5.0
    vertex 125.05138930598761 -165.1281826904143 5.0
    vertex 125.95697617709862 -165.30371328484281 0.0
  endloop
endfacet
facet normal 0.3183028974081828 -0.9479890640200211 0.0
  outer loop
    vertex 125.95697617709862 -165.30371328484281 0.0
    vertex 127.41442295259843 -164.8143515937991 0.0
    vertex 125.95697617709862 -165.30371328484281 5.0
  endloop
endfacet
facet normal 0.3183028974081828 -0.9479890640200211 0.0
  outer loop
    vertex 127.41442295259843 -164.8143515937991 5.0
    vertex 125.95697617709862 -165.30371328484281 5.0
    vertex 127.41442295259843 -164.8143515937991 0.0
  endloop
endfacet
facet normal 0.7343760246491116 -0.6787428485225959 0.0
  outer loop
    vertex 127.41442295259843 -164.8143515937991 5.0
    vertex 127.41442295259843 -164.8143515937991 0.0
    vertex 127.9011258804045 -164.2877560472157 5.0
  endloop
endfacet
facet normal 0.7343760246491116 -0.6787428485225959 0.0
  outer loop
    vertex 127.9011258804045 -164.2877560472157 0.0
    vertex 127.9011258804045 -164.2877560472157 5.0
    vertex 127.41442295259843 -164.8143515937991 0.0
  endloop
endfacet
facet normal 0.7938774738576362 -0.6080777553088244 0.0
  outer loop
    vertex 128.76548675178438 -156.79307517973444 5.0
    vertex 128.76548675178438 -156.79307517973444 0.0
    vertex 130.10591448738148 -155.04307630979704 5.0
  endloop
endfacet
facet normal 0.7938774738576362 -0.6080777553088244 0.0
  outer loop
    vertex 130.10591448738148 -155.04307630979704 0.0
    vertex 130.10591448738148 -155.04307630979704 5.0
    vertex 128.76548675178438 -156.79307517973444 0.0
  endloop
endfacet
facet normal 0.9797470461040126 -0.20023917111909392 0.0
  outer loop
    vertex 130.10591448738148 -155.04307630979704 5.0
    vertex 130.10591448738148 -155.04307630979704 0.0
    vertex 130.55272075385716 -152.8569050561218 5.0
  endloop
endfacet
facet normal 0.9797470461040126 -0.20023917111909392 0.0
  outer loop
    vertex 130.55272075385716 -152.8569050561218 0.0
    vertex 130.55272075385716 -152.8569050561218 5.0
    vertex 130.10591448738148 -155.04307630979704 0.0
  endloop
endfacet
facet normal 0.9847540235192949 0.17395261757892574 0.0
  outer loop
    vertex 130.55272075385716 -152.8569050561218 5.0
    vertex 130.55272075385716 -152.8569050561218 0.0
    vertex 130.23889254288017 -151.0803086601911 5.0
  endloop
endfacet
facet normal 0.9847540235192949 0.17395261757892574 0.0
  outer loop
    vertex 130.23889254288017 -151.0803086601911 0.0
    vertex 130.23889254288017 -151.0803086601911 5.0
    vertex 130.55272075385716 -152.8569050561218 0.0
  endloop
endfacet
facet normal 0.8469838350024901 0.5316186445606235 0.0
  outer loop
    vertex 130.23889254288017 -151.0803086601911 5.0
    vertex 130.23889254288017 -151.0803086601911 0.0
    vertex 129.29740163335367 -149.58030938565508 5.0
  endloop
endfacet
facet normal 0.8469838350024901 0.5316186445606235 0.0
  outer loop
    vertex 129.29740163335367 -149.58030938565508 0.0
    vertex 129.29740163335367 -149.58030938565508 5.0
    vertex 130.23889254288017 -151.0803086601911 0.0
  endloop
endfacet
facet normal 0.5976077131811147 0.8017886386987775 0.0
  outer loop
    vertex 129.29740163335367 -149.58030938565508 0.0
    vertex 127.58463651257293 -148.3037115422293 0.0
    vertex 129.29740163335367 -149.58030938565508 5.0
  endloop
endfacet
facet normal 0.5976077131811147 0.8017886386987775 0.0
  outer loop
    vertex 127.58463651257293 -148.3037115422293 5.0
    vertex 129.29740163335367 -149.58030938565508 5.0
    vertex 127.58463651257293 -148.3037115422293 0.0
  endloop
endfacet
facet normal 0.20497626510449243 0.9787669440391891 -2.584533900115336e-15
  outer loop
    vertex 127.58463651257293 -148.3037115422293 0.0
    vertex 125.94422764472165 -147.96017227067523 0.0
    vertex 127.58463651257293 -148.3037115422293 5.0
  endloop
endfacet
facet normal 0.20497626510449243 0.9787669440391891 -2.584533900115336e-15
  outer loop
    vertex 125.94422764472165 -147.9601722706752 5.0
    vertex 127.58463651257293 -148.3037115422293 5.0
    vertex 125.94422764472165 -147.96017227067523 0.0
  endloop
endfacet
facet normal 0.20497626510449243 0.9787669440391891 -2.584533900115336e-15
  outer loop
    vertex 126.56867868983947 -148.09094665343133 5.0
    vertex 127.58463651257293 -148.3037115422293 5.0
    vertex 125.94422764472165 -147.9601722706752 5.0
  endloop
endfacet
facet normal -0.188693156366719 0.9820360954366011 0.0
  outer loop
    vertex 125.21229534290165 -135.8569054411678 0.0
    vertex 123.31601805872423 -136.2212653132343 0.0
    vertex 125.21229534290165 -135.8569054411678 5.0
  endloop
endfacet
facet normal -0.188693156366719 0.9820360954366011 0.0
  outer loop
    vertex 123.31601805872423 -136.2212653132343 5.0
    vertex 125.21229534290165 -135.8569054411678 5.0
    vertex 123.31601805872423 -136.2212653132343 0.0
  endloop
endfacet
facet normal -0.5632100709577915 0.8263137515325033 0.0
  outer loop
    vertex 123.31601805872423 -136.2212653132343 0.0
    vertex 121.71229542217583 -137.31435221666763 0.0
    vertex 123.31601805872423 -136.2212653132343 5.0
  endloop
endfacet
facet normal -0.5632100709577915 0.8263137515325033 0.0
  outer loop
    vertex 121.71229542217583 -137.31435221666763 5.0
    vertex 123.31601805872423 -136.2212653132343 5.0
    vertex 121.71229542217583 -137.31435221666763 0.0
  endloop
endfacet
facet normal -0.826313751532503 0.5632100709577919 0.0
  outer loop
    vertex 120.6192085187425 -138.91807485321604 0.0
    vertex 120.6192085187425 -138.91807485321604 5.0
    vertex 121.71229542217583 -137.31435221666763 0.0
  endloop
endfacet
facet normal -0.826313751532503 0.5632100709577919 0.0
  outer loop
    vertex 121.71229542217583 -137.31435221666763 5.0
    vertex 121.71229542217583 -137.31435221666763 0.0
    vertex 120.6192085187425 -138.91807485321604 5.0
  endloop
endfacet
facet normal -0.9820360954366011 0.1886931563667194 0.0
  outer loop
    vertex 120.25484864667602 -140.81435213739346 0.0
    vertex 120.25484864667602 -140.81435213739346 5.0
    vertex 120.6192085187425 -138.91807485321604 0.0
  endloop
endfacet
facet normal -0.9820360954366011 0.1886931563667194 0.0
  outer loop
    vertex 120.6192085187425 -138.91807485321604 5.0
    vertex 120.6192085187425 -138.91807485321604 0.0
    vertex 120.25484864667602 -140.81435213739346 5.0
  endloop
endfacet
facet normal -0.9832481188046478 -0.18227215055274115 0.0
  outer loop
    vertex 120.63250632429236 -142.8515871178463 0.0
    vertex 120.63250632429236 -142.8515871178463 5.0
    vertex 120.25484864667602 -140.81435213739346 0.0
  endloop
endfacet
facet normal -0.9832481188046478 -0.18227215055274115 0.0
  outer loop
    vertex 120.25484864667602 -140.81435213739346 5.0
    vertex 120.25484864667602 -140.81435213739346 0.0
    vertex 120.63250632429236 -142.8515871178463 5.0
  endloop
endfacet
facet normal -0.8233409891973753 -0.56754701612068 0.0
  outer loop
    vertex 121.76548691033275 -144.4952031178528 0.0
    vertex 121.76548691033275 -144.4952031178528 5.0
    vertex 120.63250632429236 -142.8515871178463 0.0
  endloop
endfacet
facet normal -0.8233409891973753 -0.56754701612068 0.0
  outer loop
    vertex 120.63250632429236 -142.8515871178463 5.0
    vertex 120.63250632429236 -142.8515871178463 0.0
    vertex 121.76548691033275 -144.4952031178528 5.0
  endloop
endfacet
facet normal -0.5445057470537876 -0.8387571111027295 0.0
  outer loop
    vertex 121.76548691033275 -144.4952031178528 0.0
    vertex 123.38782663422543 -145.5483963386791 0.0
    vertex 121.76548691033275 -144.4952031178528 5.0
  endloop
endfacet
facet normal -0.5445057470537876 -0.8387571111027295 0.0
  outer loop
    vertex 123.38782663422543 -145.5483963386791 5.0
    vertex 121.76548691033275 -144.4952031178528 5.0
    vertex 123.38782663422543 -145.5483963386791 0.0
  endloop
endfacet
facet normal -0.18278246712318844 -0.983153380562952 0.0
  outer loop
    vertex 123.38782663422543 -145.5483963386791 0.0
    vertex 124.88286377646477 -145.82634541834645 0.0
    vertex 123.38782663422543 -145.5483963386791 5.0
  endloop
endfacet
facet normal -0.18278246712318844 -0.983153380562952 0.0
  outer loop
    vertex 124.88286377646477 -145.82634541834645 5.0
    vertex 123.38782663422543 -145.5483963386791 5.0
    vertex 124.88286377646477 -145.82634541834645 0.0
  endloop
endfacet
facet normal 0.18179240465347388 -0.9833369318856623 0.0
  outer loop
    vertex 125.66945990144423 -145.82674144333433 0.0
    vertex 127.17506197397735 -145.5483963386791 0.0
    vertex 125.66945990144423 -145.82674144333433 5.0
  endloop
endfacet
facet normal 0.18179240465347388 -0.9833369318856623 0.0
  outer loop
    vertex 127.17506197397735 -145.5483963386791 5.0
    vertex 125.66945990144423 -145.82674144333433 5.0
    vertex 127.17506197397735 -145.5483963386791 0.0
  endloop
endfacet
facet normal 0.5470268422006692 -0.8371150661121589 0.0
  outer loop
    vertex 127.17506197397735 -145.5483963386791 0.0
    vertex 128.78676334704716 -144.4952031178528 0.0
    vertex 127.17506197397735 -145.5483963386791 5.0
  endloop
endfacet
facet normal 0.5470268422006692 -0.8371150661121589 0.0
  outer loop
    vertex 128.78676334704716 -144.4952031178528 5.0
    vertex 127.17506197397735 -145.5483963386791 5.0
    vertex 128.78676334704716 -144.4952031178528 0.0
  endloop
endfacet
facet normal 0.8233409891973755 -0.5675470161206798 0.0
  outer loop
    vertex 128.78676334704716 -144.4952031178528 5.0
    vertex 128.78676334704716 -144.4952031178528 0.0
    vertex 129.91974393308755 -142.8515871178463 5.0
  endloop
endfacet
facet normal 0.8233409891973755 -0.5675470161206798 0.0
  outer loop
    vertex 129.91974393308755 -142.8515871178463 0.0
    vertex 129.91974393308755 -142.8515871178463 5.0
    vertex 128.78676334704716 -144.4952031178528 0.0
  endloop
endfacet
facet normal 0.9832481188046478 -0.18227215055274143 0.0
  outer loop
    vertex 129.91974393308755 -142.8515871178463 5.0
    vertex 129.91974393308755 -142.8515871178463 0.0
    vertex 130.2974016107039 -140.81435213739346 5.0
  endloop
endfacet
facet normal 0.9832481188046478 -0.18227215055274143 0.0
  outer loop
    vertex 130.2974016107039 -140.81435213739346 0.0
    vertex 130.2974016107039 -140.81435213739346 5.0
    vertex 129.91974393308755 -142.8515871178463 0.0
  endloop
endfacet
facet normal 0.9846958696342192 0.17428150884505453 0.0
  outer loop
    vertex 130.2974016107039 -140.81435213739346 5.0
    vertex 130.2974016107039 -140.81435213739346 0.0
    vertex 129.97825427750698 -139.01115991759704 5.0
  endloop
endfacet
facet normal 0.9846958696342192 0.17428150884505453 0.0
  outer loop
    vertex 129.97825427750698 -139.01115991759704 0.0
    vertex 129.97825427750698 -139.01115991759704 5.0
    vertex 130.2974016107039 -140.81435213739346 0.0
  endloop
endfacet
facet normal 0.8420531077303386 0.5393946271160648 0.0
  outer loop
    vertex 129.97825427750698 -139.01115991759704 5.0
    vertex 129.97825427750698 -139.01115991759704 0.0
    vertex 129.02080589493764 -137.51647987166396 5.0
  endloop
endfacet
facet normal 0.8420531077303386 0.5393946271160648 0.0
  outer loop
    vertex 129.02080589493764 -137.51647987166396 0.0
    vertex 129.02080589493764 -137.51647987166396 5.0
    vertex 129.97825427750698 -139.01115991759704 0.0
  endloop
endfacet
facet normal 0.5866807929023429 0.8098182803811472 0.0
  outer loop
    vertex 129.02080589493764 -137.51647987166396 0.0
    vertex 127.30272175831993 -136.2717969743238 0.0
    vertex 129.02080589493764 -137.51647987166396 5.0
  endloop
endfacet
facet normal 0.5866807929023429 0.8098182803811472 0.0
  outer loop
    vertex 127.30272175831993 -136.2717969743238 5.0
    vertex 129.02080589493764 -137.51647987166396 5.0
    vertex 127.30272175831993 -136.2717969743238 0.0
  endloop
endfacet
facet normal 0.1946749924710549 0.9808678031755323 0.0
  outer loop
    vertex 127.30272175831993 -136.2717969743238 0.0
    vertex 125.21229534290165 -135.8569054411678 0.0
    vertex 127.30272175831993 -136.2717969743238 5.0
  endloop
endfacet
facet normal 0.1946749924710549 0.9808678031755323 0.0
  outer loop
    vertex 125.21229534290165 -135.8569054411678 5.0
    vertex 127.30272175831993 -136.2717969743238 5.0
    vertex 125.21229534290165 -135.8569054411678 0.0
  endloop
endfacet
facet normal 0.7933533402912453 -0.6087614290087077 0.0
  outer loop
    vertex 123.37986555668023 -151.7218402778263 4.999999999999995
    vertex 123.37986555668023 -151.7218402778263 2.8999999999999946
    vertex 123.72948652639558 -151.2662053592159 4.999999999999995
  endloop
endfacet
facet normal 0.7933533402912453 -0.6087614290087077 0.0
  outer loop
    vertex 123.72948652639558 -151.2662053592159 2.8999999999999946
    vertex 123.72948652639558 -151.2662053592159 4.999999999999995
    vertex 123.37986555668023 -151.7218402778263 2.8999999999999946
  endloop
endfacet
facet normal 0.1305261922200586 -0.9914448613738096 0.0
  outer loop
    vertex 124.71571954578044 -150.69680345999035 2.8999999999999946
    vertex 125.285121445006 -150.6218402778263 2.8999999999999946
    vertex 124.71571954578044 -150.69680345999035 4.999999999999995
  endloop
endfacet
facet normal 0.1305261922200586 -0.9914448613738096 0.0
  outer loop
    vertex 125.285121445006 -150.6218402778263 4.999999999999995
    vertex 124.71571954578044 -150.69680345999035 4.999999999999995
    vertex 125.285121445006 -150.6218402778263 2.8999999999999946
  endloop
endfacet
facet normal 0.6087614290087049 -0.7933533402912475 0.0
  outer loop
    vertex 123.72948652639558 -151.2662053592159 2.8999999999999946
    vertex 124.18512144500599 -150.91658438950054 2.8999999999999946
    vertex 123.72948652639558 -151.2662053592159 4.999999999999995
  endloop
endfacet
facet normal 0.6087614290087049 -0.7933533402912475 0.0
  outer loop
    vertex 124.18512144500599 -150.91658438950054 4.999999999999995
    vertex 123.72948652639558 -151.2662053592159 4.999999999999995
    vertex 124.18512144500599 -150.91658438950054 2.8999999999999946
  endloop
endfacet
facet normal -0.1305261922200586 -0.9914448613738096 0.0
  outer loop
    vertex 125.285121445006 -150.6218402778263 2.8999999999999946
    vertex 125.85452334423155 -150.69680345999035 2.8999999999999946
    vertex 125.285121445006 -150.6218402778263 4.999999999999995
  endloop
endfacet
facet normal -0.1305261922200586 -0.9914448613738096 0.0
  outer loop
    vertex 125.85452334423155 -150.69680345999035 4.999999999999995
    vertex 125.285121445006 -150.6218402778263 4.999999999999995
    vertex 125.85452334423155 -150.69680345999035 2.8999999999999946
  endloop
endfacet
facet normal 0.7933533402912306 0.6087614290087267 0.0
  outer loop
    vertex 123.72948652639558 -154.37747519643668 4.999999999999995
    vertex 123.72948652639558 -154.37747519643668 2.8999999999999946
    vertex 123.37986555668023 -153.9218402778263 4.999999999999995
  endloop
endfacet
facet normal 0.7933533402912306 0.6087614290087267 0.0
  outer loop
    vertex 123.37986555668023 -153.9218402778263 2.8999999999999946
    vertex 123.37986555668023 -153.9218402778263 4.999999999999995
    vertex 123.72948652639558 -154.37747519643668 2.8999999999999946
  endloop
endfacet
facet normal -0.1305261922200586 0.9914448613738096 0.0
  outer loop
    vertex 125.85452334423155 -154.94687709566224 2.8999999999999946
    vertex 125.285121445006 -155.0218402778263 2.8999999999999946
    vertex 125.85452334423155 -154.94687709566224 4.999999999999995
  endloop
endfacet
facet normal -0.1305261922200586 0.9914448613738096 0.0
  outer loop
    vertex 125.285121445006 -155.0218402778263 4.999999999999995
    vertex 125.85452334423155 -154.94687709566224 4.999999999999995
    vertex 125.285121445006 -155.0218402778263 2.8999999999999946
  endloop
endfacet
facet normal 0.1305261922200586 0.9914448613738096 0.0
  outer loop
    vertex 125.285121445006 -155.0218402778263 2.8999999999999946
    vertex 124.71571954578044 -154.94687709566224 2.8999999999999946
    vertex 125.285121445006 -155.0218402778263 4.999999999999995
  endloop
endfacet
facet normal 0.1305261922200586 0.9914448613738096 0.0
  outer loop
    vertex 124.71571954578044 -154.94687709566224 4.999999999999995
    vertex 125.285121445006 -155.0218402778263 4.999999999999995
    vertex 124.71571954578044 -154.94687709566224 2.8999999999999946
  endloop
endfacet
facet normal 0.3826834323650871 0.923879532511288 0.0
  outer loop
    vertex 124.71571954578044 -154.94687709566224 2.8999999999999946
    vertex 124.18512144500599 -154.72709616615205 2.8999999999999946
    vertex 124.71571954578044 -154.94687709566224 4.999999999999995
  endloop
endfacet
facet normal 0.3826834323650871 0.923879532511288 0.0
  outer loop
    vertex 124.18512144500599 -154.72709616615205 4.999999999999995
    vertex 124.71571954578044 -154.94687709566224 4.999999999999995
    vertex 124.18512144500599 -154.72709616615205 2.8999999999999946
  endloop
endfacet
facet normal -0.6087614290087049 0.7933533402912475 0.0
  outer loop
    vertex 126.8407563636164 -154.3774751964367 2.8999999999999946
    vertex 126.38512144500599 -154.72709616615205 2.8999999999999946
    vertex 126.8407563636164 -154.3774751964367 4.999999999999995
  endloop
endfacet
facet normal -0.6087614290087049 0.7933533402912475 0.0
  outer loop
    vertex 126.38512144500599 -154.72709616615205 4.999999999999995
    vertex 126.8407563636164 -154.3774751964367 4.999999999999995
    vertex 126.38512144500599 -154.72709616615205 2.8999999999999946
  endloop
endfacet
facet normal -0.7933533402912453 0.6087614290087077 0.0
  outer loop
    vertex 126.8407563636164 -154.3774751964367 2.8999999999999946
    vertex 126.8407563636164 -154.3774751964367 4.999999999999995
    vertex 127.19037733333175 -153.9218402778263 2.8999999999999946
  endloop
endfacet
facet normal -0.7933533402912453 0.6087614290087077 0.0
  outer loop
    vertex 127.19037733333175 -153.9218402778263 4.999999999999995
    vertex 127.19037733333175 -153.9218402778263 2.8999999999999946
    vertex 126.8407563636164 -154.3774751964367 4.999999999999995
  endloop
endfacet
facet normal -0.9238795325112817 0.38268343236510244 0.0
  outer loop
    vertex 127.19037733333175 -153.9218402778263 2.8999999999999946
    vertex 127.19037733333175 -153.9218402778263 4.999999999999995
    vertex 127.41015826284193 -153.39124217705185 2.8999999999999946
  endloop
endfacet
facet normal -0.9238795325112817 0.38268343236510244 0.0
  outer loop
    vertex 127.41015826284193 -153.39124217705185 4.999999999999995
    vertex 127.41015826284193 -153.39124217705185 2.8999999999999946
    vertex 127.19037733333175 -153.9218402778263 4.999999999999995
  endloop
endfacet
facet normal -0.9914448613738113 0.1305261922200464 0.0
  outer loop
    vertex 127.41015826284193 -153.39124217705185 2.8999999999999946
    vertex 127.41015826284193 -153.39124217705185 4.999999999999995
    vertex 127.48512144500599 -152.8218402778263 2.8999999999999946
  endloop
endfacet
facet normal -0.9914448613738113 0.1305261922200464 0.0
  outer loop
    vertex 127.48512144500599 -152.8218402778263 4.999999999999995
    vertex 127.48512144500599 -152.8218402778263 2.8999999999999946
    vertex 127.41015826284193 -153.39124217705185 4.999999999999995
  endloop
endfacet
facet normal 0.3826834323650871 -0.923879532511288 0.0
  outer loop
    vertex 124.18512144500599 -150.91658438950054 2.8999999999999946
    vertex 124.71571954578044 -150.69680345999035 2.8999999999999946
    vertex 124.18512144500599 -150.91658438950054 4.999999999999995
  endloop
endfacet
facet normal 0.3826834323650871 -0.923879532511288 0.0
  outer loop
    vertex 124.71571954578044 -150.69680345999035 4.999999999999995
    vertex 124.18512144500599 -150.91658438950054 4.999999999999995
    vertex 124.71571954578044 -150.69680345999035 2.8999999999999946
  endloop
endfacet
facet normal -0.9914448613738113 -0.1305261922200464 0.0
  outer loop
    vertex 127.48512144500599 -152.8218402778263 2.8999999999999946
    vertex 127.48512144500599 -152.8218402778263 4.999999999999995
    vertex 127.41015826284193 -152.25243837860074 2.8999999999999946
  endloop
endfacet
facet normal -0.9914448613738113 -0.1305261922200464 0.0
  outer loop
    vertex 127.41015826284193 -152.25243837860074 4.999999999999995
    vertex 127.41015826284193 -152.25243837860074 2.8999999999999946
    vertex 127.48512144500599 -152.8218402778263 4.999999999999995
  endloop
endfacet
facet normal 0.0 0.0 1.0
  outer loop
    vertex 127.48512144500599 -152.8218402778263 2.8999999999999946
    vertex 127.41015826284193 -152.25243837860074 2.8999999999999946
    vertex 127.41015826284193 -153.39124217705185 2.8999999999999946
  endloop
endfacet
facet normal 0.0 0.0 1.0
  outer loop
    vertex 127.19037733333175 -153.9218402778263 2.8999999999999946
    vertex 127.41015826284193 -153.39124217705185 2.8999999999999946
    vertex 127.41015826284193 -152.25243837860074 2.8999999999999946
  endloop
endfacet
facet normal 0.0 0.0 1.0
  outer loop
    vertex 127.19037733333175 -151.7218402778263 2.8999999999999946
    vertex 127.19037733333175 -153.9218402778263 2.8999999999999946
    vertex 127.41015826284193 -152.25243837860074 2.8999999999999946
  endloop
endfacet
facet normal 0.0 0.0 1.0
  outer loop
    vertex 126.8407563636164 -154.3774751964367 2.8999999999999946
    vertex 127.19037733333175 -153.9218402778263 2.8999999999999946
    vertex 127.19037733333175 -151.7218402778263 2.8999999999999946
  endloop
endfacet
facet normal 0.0 0.0 1.0
  outer loop
    vertex 126.8407563636164 -151.26620535921592 2.8999999999999946
    vertex 126.8407563636164 -154.3774751964367 2.8999999999999946
    vertex 127.19037733333175 -151.7218402778263 2.8999999999999946
  endloop
endfacet
facet normal 0.0 0.0 1.0
  outer loop
    vertex 126.38512144500599 -154.72709616615205 2.8999999999999946
    vertex 126.8407563636164 -154.3774751964367 2.8999999999999946
    vertex 126.8407563636164 -151.26620535921592 2.8999999999999946
  endloop
endfacet
facet normal 0.0 0.0 1.0
  outer loop
    vertex 126.38512144500599 -150.91658438950054 2.8999999999999946
    vertex 126.38512144500599 -154.72709616615205 2.8999999999999946
    vertex 126.8407563636164 -151.26620535921592 2.8999999999999946
  endloop
endfacet
facet normal 0.0 0.0 1.0
  outer loop
    vertex 125.85452334423155 -154.94687709566224 2.8999999999999946
    vertex 126.38512144500599 -154.72709616615205 2.8999999999999946
    vertex 126.38512144500599 -150.91658438950054 2.8999999999999946
  endloop
endfacet
facet normal 0.0 0.0 1.0
  outer loop
    vertex 125.85452334423155 -150.69680345999035 2.8999999999999946
    vertex 125.85452334423155 -154.94687709566224 2.8999999999999946
    vertex 126.38512144500599 -150.91658438950054 2.8999999999999946
  endloop
endfacet
facet normal 0.0 0.0 1.0
  outer loop
    vertex 125.285121445006 -155.0218402778263 2.8999999999999946
    vertex 125.85452334423155 -154.94687709566224 2.8999999999999946
    vertex 125.85452334423155 -150.69680345999035 2.8999999999999946
  endloop
endfacet
facet normal 0.0 0.0 1.0
  outer loop
    vertex 125.285121445006 -150.6218402778263 2.8999999999999946
    vertex 125.285121445006 -155.0218402778263 2.8999999999999946
    vertex 125.85452334423155 -150.69680345999035 2.8999999999999946
  endloop
endfacet
facet normal 0.0 0.0 1.0
  outer loop
    vertex 124.71571954578044 -154.94687709566224 2.8999999999999946
    vertex 125.285121445006 -155.0218402778263 2.8999999999999946
    vertex 125.285121445006 -150.6218402778263 2.8999999999999946
  endloop
endfacet
facet normal 0.0 0.0 1.0
  outer loop
    vertex 124.71571954578044 -150.69680345999035 2.8999999999999946
    vertex 124.71571954578044 -154.94687709566224 2.8999999999999946
    vertex 125.285121445006 -150.6218402778263 2.8999999999999946
  endloop
endfacet
facet normal 0.0 0.0 1.0
  outer loop
    vertex 124.18512144500599 -154.72709616615205 2.8999999999999946
    vertex 124.71571954578044 -154.94687709566224 2.8999999999999946
    vertex 124.71571954578044 -150.69680345999035 2.8999999999999946
  endloop
endfacet
facet normal 0.0 0.0 1.0
  outer loop
    vertex 124.18512144500599 -150.91658438950054 2.8999999999999946
    vertex 124.18512144500599 -154.72709616615205 2.8999999999999946
    vertex 124.71571954578044 -150.69680345999035 2.8999999999999946
  endloop
endfacet
facet normal 0.0 0.0 1.0
  outer loop
    vertex 123.72948652639558 -154.37747519643668 2.8999999999999946
    vertex 124.18512144500599 -154.72709616615205 2.8999999999999946
    vertex 124.18512144500599 -150.91658438950054 2.8999999999999946
  endloop
endfacet
facet normal 0.0 0.0 1.0
  outer loop
    vertex 123.72948652639558 -151.2662053592159 2.8999999999999946
    vertex 123.72948652639558 -154.37747519643668 2.8999999999999946
    vertex 124.18512144500599 -150.91658438950054 2.8999999999999946
  endloop
endfacet
facet normal 0.0 0.0 1.0
  outer loop
    vertex 123.37986555668023 -153.9218402778263 2.8999999999999946
    vertex 123.72948652639558 -154.37747519643668 2.8999999999999946
    vertex 123.72948652639558 -151.2662053592159 2.8999999999999946
  endloop
endfacet
facet normal 0.0 0.0 1.0
  outer loop
    vertex 123.37986555668023 -151.7218402778263 2.8999999999999946
    vertex 123.37986555668023 -153.9218402778263 2.8999999999999946
    vertex 123.72948652639558 -151.2662053592159 2.8999999999999946
  endloop
endfacet
facet normal 0.0 0.0 1.0
  outer loop
    vertex 123.16008462717005 -153.39124217705185 2.8999999999999946
    vertex 123.37986555668023 -153.9218402778263 2.8999999999999946
    vertex 123.37986555668023 -151.7218402778263 2.8999999999999946
  endloop
endfacet
facet normal 0.0 0.0 1.0
  outer loop
    vertex 123.16008462717005 -152.25243837860074 2.8999999999999946
    vertex 123.16008462717005 -153.39124217705185 2.8999999999999946
    vertex 123.37986555668023 -151.7218402778263 2.8999999999999946
  endloop
endfacet
facet normal 0.0 0.0 1.0
  outer loop
    vertex 123.085121445006 -152.8218402778263 2.8999999999999946
    vertex 123.16008462717005 -153.39124217705185 2.8999999999999946
    vertex 123.16008462717005 -152.25243837860074 2.8999999999999946
  endloop
endfacet
facet normal 0.9914448613738099 0.13052619222005604 0.0
  outer loop
    vertex 123.16008462717005 -153.39124217705185 4.999999999999995
    vertex 123.16008462717005 -153.39124217705185 2.8999999999999946
    vertex 123.085121445006 -152.8218402778263 4.999999999999995
  endloop
endfacet
facet normal 0.9914448613738099 0.13052619222005604 0.0
  outer loop
    vertex 123.085121445006 -152.8218402778263 2.8999999999999946
    vertex 123.085121445006 -152.8218402778263 4.999999999999995
    vertex 123.16008462717005 -153.39124217705185 2.8999999999999946
  endloop
endfacet
facet normal 0.9914448613738099 -0.13052619222005604 0.0
  outer loop
    vertex 123.085121445006 -152.8218402778263 4.999999999999995
    vertex 123.085121445006 -152.8218402778263 2.8999999999999946
    vertex 123.16008462717005 -152.25243837860074 4.999999999999995
  endloop
endfacet
facet normal 0.9914448613738099 -0.13052619222005604 0.0
  outer loop
    vertex 123.16008462717005 -152.25243837860074 2.8999999999999946
    vertex 123.16008462717005 -152.25243837860074 4.999999999999995
    vertex 123.085121445006 -152.8218402778263 2.8999999999999946
  endloop
endfacet
facet normal 0.9238795325112851 -0.382683432365094 0.0
  outer loop
    vertex 123.16008462717005 -152.25243837860074 4.999999999999995
    vertex 123.16008462717005 -152.25243837860074 2.8999999999999946
    vertex 123.37986555668023 -151.7218402778263 4.999999999999995
  endloop
endfacet
facet normal 0.9238795325112851 -0.382683432365094 0.0
  outer loop
    vertex 123.37986555668023 -151.7218402778263 2.8999999999999946
    vertex 123.37986555668023 -151.7218402778263 4.999999999999995
    vertex 123.16008462717005 -152.25243837860074 2.8999999999999946
  endloop
endfacet
facet normal 0.6087614290087295 0.7933533402912283 0.0
  outer loop
    vertex 124.18512144500599 -154.72709616615205 2.8999999999999946
    vertex 123.72948652639558 -154.37747519643668 2.8999999999999946
    vertex 124.18512144500599 -154.72709616615205 4.999999999999995
  endloop
endfacet
facet normal 0.6087614290087295 0.7933533402912283 0.0
  outer loop
    vertex 123.72948652639558 -154.37747519643668 4.999999999999995
    vertex 124.18512144500599 -154.72709616615205 4.999999999999995
    vertex 123.72948652639558 -154.37747519643668 2.8999999999999946
  endloop
endfacet
facet normal -0.7933533402912258 -0.6087614290087329 0.0
  outer loop
    vertex 127.19037733333175 -151.7218402778263 2.8999999999999946
    vertex 127.19037733333175 -151.7218402778263 4.999999999999995
    vertex 126.8407563636164 -151.26620535921592 2.8999999999999946
  endloop
endfacet
facet normal -0.7933533402912258 -0.6087614290087329 0.0
  outer loop
    vertex 126.8407563636164 -151.26620535921592 4.999999999999995
    vertex 126.8407563636164 -151.26620535921592 2.8999999999999946
    vertex 127.19037733333175 -151.7218402778263 4.999999999999995
  endloop
endfacet
facet normal -0.9238795325112851 -0.382683432365094 0.0
  outer loop
    vertex 127.41015826284193 -152.25243837860074 2.8999999999999946
    vertex 127.41015826284193 -152.25243837860074 4.999999999999995
    vertex 127.19037733333175 -151.7218402778263 2.8999999999999946
  endloop
endfacet
facet normal -0.9238795325112851 -0.382683432365094 0.0
  outer loop
    vertex 127.19037733333175 -151.7218402778263 4.999999999999995
    vertex 127.19037733333175 -151.7218402778263 2.8999999999999946
    vertex 127.41015826284193 -152.25243837860074 4.999999999999995
  endloop
endfacet
facet normal -0.3826834323650871 0.923879532511288 0.0
  outer loop
    vertex 126.38512144500599 -154.72709616615205 2.8999999999999946
    vertex 125.85452334423155 -154.94687709566224 2.8999999999999946
    vertex 126.38512144500599 -154.72709616615205 4.999999999999995
  endloop
endfacet
facet normal -0.3826834323650871 0.923879532511288 0.0
  outer loop
    vertex 125.85452334423155 -154.94687709566224 4.999999999999995
    vertex 126.38512144500599 -154.72709616615205 4.999999999999995
    vertex 125.85452334423155 -154.94687709566224 2.8999999999999946
  endloop
endfacet
facet normal 0.9238795325112851 0.382683432365094 0.0
  outer loop
    vertex 123.37986555668023 -153.9218402778263 4.999999999999995
    vertex 123.37986555668023 -153.9218402778263 2.8999999999999946
    vertex 123.16008462717005 -153.39124217705185 4.999999999999995
  endloop
endfacet
facet normal 0.9238795325112851 0.382683432365094 0.0
  outer loop
    vertex 123.16008462717005 -153.39124217705185 2.8999999999999946
    vertex 123.16008462717005 -153.39124217705185 4.999999999999995
    vertex 123.37986555668023 -153.9218402778263 2.8999999999999946
  endloop
endfacet
facet normal -0.3826834323650871 -0.923879532511288 0.0
  outer loop
    vertex 125.85452334423155 -150.69680345999035 2.8999999999999946
    vertex 126.38512144500599 -150.91658438950054 2.8999999999999946
    vertex 125.85452334423155 -150.69680345999035 4.999999999999995
  endloop
endfacet
facet normal -0.3826834323650871 -0.923879532511288 0.0
  outer loop
    vertex 126.38512144500599 -150.91658438950054 4.999999999999995
    vertex 125.85452334423155 -150.69680345999035 4.999999999999995
    vertex 126.38512144500599 -150.91658438950054 2.8999999999999946
  endloop
endfacet
facet normal -0.6087614290087295 -0.7933533402912283 0.0
  outer loop
    vertex 126.38512144500599 -150.91658438950054 2.8999999999999946
    vertex 126.8407563636164 -151.26620535921592 2.8999999999999946
    vertex 126.38512144500599 -150.91658438950054 4.999999999999995
  endloop
endfacet
facet normal -0.6087614290087295 -0.7933533402912283 0.0
  outer loop
    vertex 126.8407563636164 -151.26620535921592 4.999999999999995
    vertex 126.38512144500599 -150.91658438950054 4.999999999999995
    vertex 126.8407563636164 -151.26620535921592 2.8999999999999946
  endloop
endfacet
facet normal 0.9918081460846281 0.12773645274616413 -2.8877787089463953e-16
  outer loop
    vertex 125.94422764472165 -147.96017227067523 0.0
    vertex 125.66945990144423 -145.82674144333433 0.0
    vertex 125.94422764472165 -147.9601722706752 5.0
  endloop
endfacet
facet normal 0.9918081460846281 0.12773645274616413 -2.8877787089463953e-16
  outer loop
    vertex 125.66945990144423 -145.82674144333433 5.0
    vertex 125.94422764472165 -147.9601722706752 5.0
    vertex 125.66945990144423 -145.82674144333433 0.0
  endloop
endfacet
facet normal -0.9915298892989364 -0.12987870736513824 0.0
  outer loop
    vertex 125.16396692525353 -147.97236442064923 0.0
    vertex 125.16396692525353 -147.97236442064923 5.0
    vertex 124.88286377646477 -145.82634541834645 0.0
  endloop
endfacet
facet normal -0.9915298892989364 -0.12987870736513824 0.0
  outer loop
    vertex 124.88286377646477 -145.82634541834645 5.0
    vertex 124.88286377646477 -145.82634541834645 0.0
    vertex 125.16396692525353 -147.97236442064923 5.0
  endloop
endfacet
endsolid ABC
