solid ABC
facet normal 0.0 0.0 1.0
  outer loop
    vertex 95.22864536021336 -162.53780047676514 5.0
    vertex 93.77119682939447 -147.88354163314875 5.0
    vertex 93.13024448353951 -163.11625550023243 5.0
  endloop
endfacet
facet normal 0.0 0.0 1.0
  outer loop
    vertex 93.3509861740185 -152.0643937193045 5.0
    vertex 93.13024448353951 -163.11625550023243 5.0
    vertex 93.77119682939447 -147.88354163314875 5.0
  endloop
endfacet
facet normal 0.0 0.0 1.0
  outer loop
    vertex 92.09034580363556 -155.79843507089956 5.0
    vertex 93.13024448353951 -163.11625550023243 5.0
    vertex 93.3509861740185 -152.0643937193045 5.0
  endloop
endfacet
facet normal 0.0 0.0 1.0
  outer loop
    vertex 90.85630327839485 -163.3090731986577 5.0
    vertex 93.13024448353951 -163.11625550023243 5.0
    vertex 92.09034580363556 -155.79843507089956 5.0
  endloop
endfacet
facet normal 0.0 0.0 1.0
  outer loop
    vertex 91.31906978387075 -156.8197133456402 5.0
    vertex 90.85630327839485 -163.3090731986577 5.0
    vertex 92.09034580363556 -155.79843507089956 5.0
  endloop
endfacet
facet normal 0.0 0.0 1.0
  outer loop
    vertex 90.32438839682557 -157.1601371677169 5.0
    vertex 90.85630327839485 -163.3090731986577 5.0
    vertex 91.31906978387075 -156.8197133456402 5.0
  endloop
endfacet
facet normal 0.0 0.0 1.0
  outer loop
    vertex 88.77651164332079 -163.1362021586902 5.0
    vertex 90.85630327839485 -163.3090731986577 5.0
    vertex 90.32438839682557 -157.1601371677169 5.0
  endloop
endfacet
facet normal 0.0 0.0 1.0
  outer loop
    vertex 89.4773112251872 -156.9460430336033 5.0
    vertex 88.77651164332079 -163.1362021586902 5.0
    vertex 90.32438839682557 -157.1601371677169 5.0
  endloop
endfacet
facet normal 0.0 0.0 1.0
  outer loop
    vertex 88.87225834992873 -156.30375849030517 5.0
    vertex 88.77651164332079 -163.1362021586902 5.0
    vertex 89.4773112251872 -156.9460430336033 5.0
  endloop
endfacet
facet normal 0.0 0.0 1.0
  outer loop
    vertex 88.50922795589064 -155.23328032638634 5.0
    vertex 88.77651164332079 -163.1362021586902 5.0
    vertex 88.87225834992873 -156.30375849030517 5.0
  endloop
endfacet
facet normal 0.0 0.0 1.0
  outer loop
    vertex 86.81374900825563 -162.61758731006438 5.0
    vertex 88.77651164332079 -163.1362021586902 5.0
    vertex 88.50922795589064 -155.23328032638634 5.0
  endloop
endfacet
facet normal 0.0 0.0 1.0
  outer loop
    vertex 88.38821822791341 -153.73460533041077 5.0
    vertex 86.81374900825563 -162.61758731006438 5.0
    vertex 88.50922795589064 -155.23328032638634 5.0
  endloop
endfacet
facet normal 0.0 0.0 1.0
  outer loop
    vertex 86.81374900825563 -162.61758731006438 5.0
    vertex 86.49674956761933 -150.00182271397344 4.9999999999999725
    vertex 84.96800823224206 -161.75322605969515 5.0
  endloop
endfacet
facet normal 0.0 0.0 1.0
  outer loop
    vertex 86.42178638545528 -150.571224613199 4.9999999999999725
    vertex 84.96800823224206 -161.75322605969515 5.0
    vertex 86.49674956761933 -150.00182271397344 4.9999999999999725
  endloop
endfacet
facet normal 0.0 0.0 1.0
  outer loop
    vertex 86.20200545594508 -151.10182271397343 4.9999999999999725
    vertex 84.96800823224206 -161.75322605969515 5.0
    vertex 86.42178638545528 -150.571224613199 4.9999999999999725
  endloop
endfacet
facet normal 0.0 0.0 1.0
  outer loop
    vertex 85.85238448622974 -151.55745763258383 4.9999999999999725
    vertex 84.96800823224206 -161.75322605969515 5.0
    vertex 86.20200545594508 -151.10182271397343 4.9999999999999725
  endloop
endfacet
facet normal 0.0 0.0 1.0
  outer loop
    vertex 85.39674956761932 -151.9070786022992 4.9999999999999725
    vertex 84.96800823224206 -161.75322605969515 5.0
    vertex 85.85238448622974 -151.55745763258383 4.9999999999999725
  endloop
endfacet
facet normal 0.0 0.0 1.0
  outer loop
    vertex 84.86615146684487 -152.1268595318094 4.9999999999999725
    vertex 84.96800823224206 -161.75322605969515 5.0
    vertex 85.39674956761932 -151.9070786022992 4.9999999999999725
  endloop
endfacet
facet normal 0.0 0.0 1.0
  outer loop
    vertex 83.23928217432284 -160.54311581449747 5.0
    vertex 84.96800823224206 -161.75322605969515 5.0
    vertex 84.86615146684487 -152.1268595318094 4.9999999999999725
  endloop
endfacet
facet normal 0.0 0.0 1.0
  outer loop
    vertex 84.29674956761933 -152.20182271397346 4.9999999999999725
    vertex 83.23928217432284 -160.54311581449747 5.0
    vertex 84.86615146684487 -152.1268595318094 4.9999999999999725
  endloop
endfacet
facet normal 0.0 0.0 1.0
  outer loop
    vertex 83.72734766839379 -152.1268595318094 4.9999999999999725
    vertex 83.23928217432284 -160.54311581449747 5.0
    vertex 84.29674956761933 -152.20182271397346 4.9999999999999725
  endloop
endfacet
facet normal 0.0 0.0 1.0
  outer loop
    vertex 83.19674956761934 -151.9070786022992 4.9999999999999725
    vertex 83.23928217432284 -160.54311581449747 5.0
    vertex 83.72734766839379 -152.1268595318094 4.9999999999999725
  endloop
endfacet
facet normal 0.0 0.0 1.0
  outer loop
    vertex 81.3310314030496 -158.59497511726602 5.0
    vertex 83.23928217432284 -160.54311581449747 5.0
    vertex 83.19674956761934 -151.9070786022992 4.9999999999999725
  endloop
endfacet
facet normal 0.0 0.0 1.0
  outer loop
    vertex 82.74111464900894 -151.55745763258386 4.9999999999999725
    vertex 81.3310314030496 -158.59497511726602 5.0
    vertex 83.19674956761934 -151.9070786022992 4.9999999999999725
  endloop
endfacet
facet normal 0.0 0.0 1.0
  outer loop
    vertex 82.39149367929357 -151.10182271397343 4.9999999999999725
    vertex 81.3310314030496 -158.59497511726602 5.0
    vertex 82.74111464900894 -151.55745763258386 4.9999999999999725
  endloop
endfacet
facet normal 0.0 0.0 1.0
  outer loop
    vertex 82.1717127497834 -150.571224613199 4.9999999999999725
    vertex 81.3310314030496 -158.59497511726602 5.0
    vertex 82.39149367929357 -151.10182271397343 4.9999999999999725
  endloop
endfacet
facet normal 0.0 0.0 1.0
  outer loop
    vertex 82.09674956761934 -150.00182271397344 4.9999999999999725
    vertex 81.3310314030496 -158.59497511726602 5.0
    vertex 82.1717127497834 -150.571224613199 4.9999999999999725
  endloop
endfacet
facet normal 0.0 0.0 1.0
  outer loop
    vertex 102.8350264113349 -150.50056285046958 5.0
    vertex 102.61029405937715 -147.69204551381588 5.0
    vertex 102.58901762368886 -153.39019729632324 5.0
  endloop
endfacet
facet normal 0.0 0.0 1.0
  outer loop
    vertex 101.93609475616356 -145.20268743855033 5.0
    vertex 102.58901762368886 -153.39019729632324 5.0
    vertex 102.61029405937715 -147.69204551381588 5.0
  endloop
endfacet
facet normal 0.0 0.0 1.0
  outer loop
    vertex 101.85098880064439 -155.97397004032797 5.0
    vertex 102.58901762368886 -153.39019729632324 5.0
    vertex 101.93609475616356 -145.20268743855033 5.0
  endloop
endfacet
facet normal 0.0 0.0 1.0
  outer loop
    vertex 100.81242513068358 -143.03247988797096 5.0
    vertex 101.85098880064439 -155.97397004032797 5.0
    vertex 101.93609475616356 -145.20268743855033 5.0
  endloop
endfacet
facet normal 0.0 0.0 1.0
  outer loop
    vertex 100.62093625204203 -158.25189019817512 5.0
    vertex 101.85098880064439 -155.97397004032797 5.0
    vertex 100.81242513068358 -143.03247988797096 5.0
  endloop
endfacet
facet normal 0.0 0.0 1.0
  outer loop
    vertex 99.23928181192659 -141.1814141253759 5.0
    vertex 100.62093625204203 -158.25189019817512 5.0
    vertex 100.81242513068358 -143.03247988797096 5.0
  endloop
endfacet
facet normal 0.0 0.0 1.0
  outer loop
    vertex 98.89885628772225 -160.2239668855559 5.0
    vertex 100.62093625204203 -158.25189019817512 5.0
    vertex 99.23928181192659 -141.1814141253759 5.0
  endloop
endfacet
facet normal 0.0 0.0 1.0
  outer loop
    vertex 97.5544392004868 -139.86890993635382 5.0
    vertex 98.89885628772225 -160.2239668855559 5.0
    vertex 99.23928181192659 -141.1814141253759 5.0
  endloop
endfacet
facet normal 0.0 0.0 1.0
  outer loop
    vertex 97.15151344830979 -161.5737052359687 5.0
    vertex 98.89885628772225 -160.2239668855559 5.0
    vertex 97.5544392004868 -139.86890993635382 5.0
  endloop
endfacet
facet normal 0.0 0.0 1.0
  outer loop
    vertex 95.67013495127756 -138.93141042633795 5.0
    vertex 97.15151344830979 -161.5737052359687 5.0
    vertex 97.5544392004868 -139.86890993635382 5.0
  endloop
endfacet
facet normal 0.0 0.0 1.0
  outer loop
    vertex 95.22864536021336 -162.53780047676514 5.0
    vertex 97.15151344830979 -161.5737052359687 5.0
    vertex 95.67013495127756 -138.93141042633795 5.0
  endloop
endfacet
facet normal 0.0 0.0 1.0
  outer loop
    vertex 93.58636162413943 -138.3689127828284 5.0
    vertex 95.22864536021336 -162.53780047676514 5.0
    vertex 95.67013495127756 -138.93141042633795 5.0
  endloop
endfacet
facet normal 0.0 0.0 1.0
  outer loop
    vertex 93.77119682939447 -147.88354163314875 5.0
    vertex 95.22864536021336 -162.53780047676514 5.0
    vertex 93.58636162413943 -138.3689127828284 5.0
  endloop
endfacet
facet normal 0.0 0.0 1.0
  outer loop
    vertex 93.64752754695618 -146.4127922582162 5.0
    vertex 93.77119682939447 -147.88354163314875 5.0
    vertex 93.58636162413943 -138.3689127828284 5.0
  endloop
endfacet
facet normal 0.0 0.0 1.0
  outer loop
    vertex 93.27651846293924 -145.36226089238284 5.0
    vertex 93.64752754695618 -146.4127922582162 5.0
    vertex 93.58636162413943 -138.3689127828284 5.0
  endloop
endfacet
facet normal 0.0 0.0 1.0
  outer loop
    vertex 91.30311177891303 -138.1814141933252 5.0
    vertex 93.27651846293924 -145.36226089238284 5.0
    vertex 93.58636162413943 -138.3689127828284 5.0
  endloop
endfacet
facet normal 0.0 0.0 1.0
  outer loop
    vertex 92.65816772229047 -144.73194438405295 5.0
    vertex 93.27651846293924 -145.36226089238284 5.0
    vertex 91.30311177891303 -138.1814141933252 5.0
  endloop
endfacet
facet normal 0.0 0.0 1.0
  outer loop
    vertex 91.79247346995678 -144.52183958163096 5.0
    vertex 92.65816772229047 -144.73194438405295 5.0
    vertex 91.30311177891303 -138.1814141933252 5.0
  endloop
endfacet
facet normal 0.0 0.0 1.0
  outer loop
    vertex 90.69140900021476 -144.94736967837576 5.0
    vertex 91.79247346995678 -144.52183958163096 5.0
    vertex 91.30311177891303 -138.1814141933252 5.0
  endloop
endfacet
facet normal 0.0 0.0 1.0
  outer loop
    vertex 88.44140945011291 -138.53779538206177 5.0
    vertex 90.69140900021476 -144.94736967837576 5.0
    vertex 91.30311177891303 -138.1814141933252 5.0
  endloop
endfacet
facet normal 0.0 0.0 1.0
  outer loop
    vertex 89.85630330104459 -146.096307631076 5.0
    vertex 90.69140900021476 -144.94736967837576 5.0
    vertex 88.44140945011291 -138.53779538206177 5.0
  endloop
endfacet
facet normal 0.0 0.0 1.0
  outer loop
    vertex 88.80311183553745 -149.63886074232735 5.0
    vertex 89.85630330104459 -146.096307631076 5.0
    vertex 88.44140945011291 -138.53779538206177 5.0
  endloop
endfacet
facet normal 0.0 0.0 1.0
  outer loop
    vertex 88.38821822791341 -153.73460533041077 5.0
    vertex 88.80311183553745 -149.63886074232735 5.0
    vertex 88.44140945011291 -138.53779538206177 5.0
  endloop
endfacet
facet normal 0.0 0.0 1.0
  outer loop
    vertex 85.68609062954148 -139.60694607593086 5.0
    vertex 88.38821822791341 -153.73460533041077 5.0
    vertex 88.44140945011291 -138.53779538206177 5.0
  endloop
endfacet
facet normal 0.0 0.0 1.0
  outer loop
    vertex 86.49674956761933 -150.00182271397344 4.9999999999999725
    vertex 88.38821822791341 -153.73460533041077 5.0
    vertex 85.68609062954148 -139.60694607593086 5.0
  endloop
endfacet
facet normal 0.0 0.0 1.0
  outer loop
    vertex 86.81374900825563 -162.61758731006438 5.0
    vertex 88.38821822791341 -153.73460533041077 5.0
    vertex 86.49674956761933 -150.00182271397344 4.9999999999999725
  endloop
endfacet
facet normal 0.0 0.0 1.0
  outer loop
    vertex 86.42178638545528 -149.4324208147479 4.9999999999999725
    vertex 86.49674956761933 -150.00182271397344 4.9999999999999725
    vertex 85.68609062954148 -139.60694607593086 5.0
  endloop
endfacet
facet normal 0.0 0.0 1.0
  outer loop
    vertex 86.20200545594508 -148.90182271397344 4.9999999999999725
    vertex 86.42178638545528 -149.4324208147479 4.9999999999999725
    vertex 85.68609062954148 -139.60694607593086 5.0
  endloop
endfacet
facet normal 0.0 0.0 1.0
  outer loop
    vertex 85.85238448622974 -148.44618779536304 4.9999999999999725
    vertex 86.20200545594508 -148.90182271397344 4.9999999999999725
    vertex 85.68609062954148 -139.60694607593086 5.0
  endloop
endfacet
facet normal 0.0 0.0 1.0
  outer loop
    vertex 85.39674956761932 -148.0965668256477 4.9999999999999725
    vertex 85.85238448622974 -148.44618779536304 4.9999999999999725
    vertex 85.68609062954148 -139.60694607593086 5.0
  endloop
endfacet
facet normal 0.0 0.0 1.0
  outer loop
    vertex 83.97199062514736 -140.68141505425396 5.0
    vertex 85.39674956761932 -148.0965668256477 4.9999999999999725
    vertex 85.68609062954148 -139.60694607593086 5.0
  endloop
endfacet
facet normal 0.0 0.0 1.0
  outer loop
    vertex 84.86615146684487 -147.8767858961375 4.9999999999999725
    vertex 85.39674956761932 -148.0965668256477 4.9999999999999725
    vertex 83.97199062514736 -140.68141505425396 5.0
  endloop
endfacet
facet normal 0.0 0.0 1.0
  outer loop
    vertex 84.29674956761933 -147.80182271397345 4.9999999999999725
    vertex 84.86615146684487 -147.8767858961375 4.9999999999999725
    vertex 83.97199062514736 -140.68141505425396 5.0
  endloop
endfacet
facet normal 0.0 0.0 1.0
  outer loop
    vertex 83.72734766839379 -147.8767858961375 4.9999999999999725
    vertex 84.29674956761933 -147.80182271397345 4.9999999999999725
    vertex 83.97199062514736 -140.68141505425396 5.0
  endloop
endfacet
facet normal 0.0 0.0 1.0
  outer loop
    vertex 82.48927987748041 -141.98992240493573 5.0
    vertex 83.72734766839379 -147.8767858961375 4.9999999999999725
    vertex 83.97199062514736 -140.68141505425396 5.0
  endloop
endfacet
facet normal 0.0 0.0 1.0
  outer loop
    vertex 83.19674956761934 -148.0965668256477 4.9999999999999725
    vertex 83.72734766839379 -147.8767858961375 4.9999999999999725
    vertex 82.48927987748041 -141.98992240493573 5.0
  endloop
endfacet
facet normal 0.0 0.0 1.0
  outer loop
    vertex 82.74111464900894 -148.44618779536307 4.9999999999999725
    vertex 83.19674956761934 -148.0965668256477 4.9999999999999725
    vertex 82.48927987748041 -141.98992240493573 5.0
  endloop
endfacet
facet normal 0.0 0.0 1.0
  outer loop
    vertex 82.39149367929357 -148.90182271397344 4.9999999999999725
    vertex 82.74111464900894 -148.44618779536307 4.9999999999999725
    vertex 82.48927987748041 -141.98992240493573 5.0
  endloop
endfacet
facet normal 0.0 0.0 1.0
  outer loop
    vertex 81.23795326021097 -143.53247347372073 5.0
    vertex 82.39149367929357 -148.90182271397344 4.9999999999999725
    vertex 82.48927987748041 -141.98992240493573 5.0
  endloop
endfacet
facet normal 0.0 0.0 1.0
  outer loop
    vertex 82.1717127497834 -149.4324208147479 4.9999999999999725
    vertex 82.39149367929357 -148.90182271397344 4.9999999999999725
    vertex 81.23795326021097 -143.53247347372073 5.0
  endloop
endfacet
facet normal 0.0 0.0 1.0
  outer loop
    vertex 82.09674956761934 -150.00182271397344 4.9999999999999725
    vertex 82.1717127497834 -149.4324208147479 4.9999999999999725
    vertex 81.23795326021097 -143.53247347372073 5.0
  endloop
endfacet
facet normal 0.0 0.0 1.0
  outer loop
    vertex 81.3310314030496 -158.59497511726602 5.0
    vertex 82.09674956761934 -150.00182271397344 4.9999999999999725
    vertex 81.23795326021097 -143.53247347372073 5.0
  endloop
endfacet
facet normal 0.0 0.0 1.0
  outer loop
    vertex 79.96800020054427 -156.3888631692286 5.0
    vertex 81.3310314030496 -158.59497511726602 5.0
    vertex 81.23795326021097 -143.53247347372073 5.0
  endloop
endfacet
facet normal 0.0 0.0 1.0
  outer loop
    vertex 80.21800564700936 -145.30907360635348 5.0
    vertex 79.96800020054427 -156.3888631692286 5.0
    vertex 81.23795326021097 -143.53247347372073 5.0
  endloop
endfacet
facet normal 0.0 0.0 1.0
  outer loop
    vertex 79.21268484531156 -148.1654560682528 5.0
    vertex 79.96800020054427 -156.3888631692286 5.0
    vertex 80.21800564700936 -145.30907360635348 5.0
  endloop
endfacet
facet normal 0.0 0.0 1.0
  outer loop
    vertex 79.15018447771125 -153.92477121373653 5.0
    vertex 79.96800020054427 -156.3888631692286 5.0
    vertex 79.21268484531156 -148.1654560682528 5.0
  endloop
endfacet
facet normal 0.0 0.0 1.0
  outer loop
    vertex 78.8775801454548 -151.20269049414102 5.0
    vertex 79.15018447771125 -153.92477121373653 5.0
    vertex 79.21268484531156 -148.1654560682528 5.0
  endloop
endfacet
facet normal 0.7619926547274241 0.6475856654848475 0.0
  outer loop
    vertex 100.81242513068358 -143.03247988797096 5.0
    vertex 100.81242513068358 -143.03247988797096 0.0
    vertex 99.23928181192659 -141.1814141253759 5.0
  endloop
endfacet
facet normal 0.7619926547274241 0.6475856654848475 0.0
  outer loop
    vertex 99.23928181192659 -141.1814141253759 0.0
    vertex 99.23928181192659 -141.1814141253759 5.0
    vertex 100.81242513068358 -143.03247988797096 0.0
  endloop
endfacet
facet normal 0.6145446386577739 0.7888820489128816 0.0
  outer loop
    vertex 99.23928181192659 -141.1814141253759 0.0
    vertex 97.5544392004868 -139.86890993635382 0.0
    vertex 99.23928181192659 -141.1814141253759 5.0
  endloop
endfacet
facet normal 0.6145446386577739 0.7888820489128816 0.0
  outer loop
    vertex 97.5544392004868 -139.86890993635382 5.0
    vertex 99.23928181192659 -141.1814141253759 5.0
    vertex 97.5544392004868 -139.86890993635382 0.0
  endloop
endfacet
facet normal 0.44544420393024176 0.8953097012682 0.0
  outer loop
    vertex 97.5544392004868 -139.86890993635382 0.0
    vertex 95.67013495127756 -138.93141042633795 0.0
    vertex 97.5544392004868 -139.86890993635382 5.0
  endloop
endfacet
facet normal 0.44544420393024176 0.8953097012682 0.0
  outer loop
    vertex 95.67013495127756 -138.93141042633795 5.0
    vertex 97.5544392004868 -139.86890993635382 5.0
    vertex 95.67013495127756 -138.93141042633795 0.0
  endloop
endfacet
facet normal 0.2606135331169682 0.9654432072143296 0.0
  outer loop
    vertex 95.67013495127756 -138.93141042633795 0.0
    vertex 93.58636162413943 -138.3689127828284 0.0
    vertex 95.67013495127756 -138.93141042633795 5.0
  endloop
endfacet
facet normal 0.2606135331169682 0.9654432072143296 0.0
  outer loop
    vertex 93.58636162413943 -138.3689127828284 5.0
    vertex 95.67013495127756 -138.93141042633795 5.0
    vertex 93.58636162413943 -138.3689127828284 0.0
  endloop
endfacet
facet normal 0.08184367805605186 0.9966451787683808 0.0
  outer loop
    vertex 93.58636162413943 -138.3689127828284 0.0
    vertex 91.30311177891303 -138.1814141933252 0.0
    vertex 93.58636162413943 -138.3689127828284 5.0
  endloop
endfacet
facet normal 0.08184367805605186 0.9966451787683808 0.0
  outer loop
    vertex 91.30311177891303 -138.1814141933252 5.0
    vertex 93.58636162413943 -138.3689127828284 5.0
    vertex 91.30311177891303 -138.1814141933252 0.0
  endloop
endfacet
facet normal -0.2358539768836822 -0.9717885066145574 0.0
  outer loop
    vertex 91.79247346995678 -144.52183958163096 0.0
    vertex 92.65816772229047 -144.73194438405295 0.0
    vertex 91.79247346995678 -144.52183958163096 5.0
  endloop
endfacet
facet normal -0.2358539768836822 -0.9717885066145574 0.0
  outer loop
    vertex 92.65816772229047 -144.73194438405295 5.0
    vertex 91.79247346995678 -144.52183958163096 5.0
    vertex 92.65816772229047 -144.73194438405295 0.0
  endloop
endfacet
facet normal -0.713850090320518 -0.700298542444141 0.0
  outer loop
    vertex 93.27651846293924 -145.36226089238284 0.0
    vertex 93.27651846293924 -145.36226089238284 5.0
    vertex 92.65816772229047 -144.73194438405295 0.0
  endloop
endfacet
facet normal -0.713850090320518 -0.700298542444141 0.0
  outer loop
    vertex 92.65816772229047 -144.73194438405295 5.0
    vertex 92.65816772229047 -144.73194438405295 0.0
    vertex 93.27651846293924 -145.36226089238284 5.0
  endloop
endfacet
facet normal -0.942924592695624 -0.333006324999679 0.0
  outer loop
    vertex 93.64752754695618 -146.4127922582162 0.0
    vertex 93.64752754695618 -146.4127922582162 5.0
    vertex 93.27651846293924 -145.36226089238284 0.0
  endloop
endfacet
facet normal -0.942924592695624 -0.333006324999679 0.0
  outer loop
    vertex 93.27651846293924 -145.36226089238284 5.0
    vertex 93.27651846293924 -145.36226089238284 0.0
    vertex 93.64752754695618 -146.4127922582162 5.0
  endloop
endfacet
facet normal -0.9964834177341381 -0.08379020337062858 0.0
  outer loop
    vertex 93.77119682939447 -147.88354163314875 0.0
    vertex 93.77119682939447 -147.88354163314875 5.0
    vertex 93.64752754695618 -146.4127922582162 0.0
  endloop
endfacet
facet normal -0.9964834177341381 -0.08379020337062858 0.0
  outer loop
    vertex 93.64752754695618 -146.4127922582162 5.0
    vertex 93.64752754695618 -146.4127922582162 0.0
    vertex 93.77119682939447 -147.88354163314875 5.0
  endloop
endfacet
facet normal -0.9949869821986029 0.10000452617415392 0.0
  outer loop
    vertex 93.3509861740185 -152.0643937193045 0.0
    vertex 93.3509861740185 -152.0643937193045 5.0
    vertex 93.77119682939447 -147.88354163314875 0.0
  endloop
endfacet
facet normal -0.9949869821986029 0.10000452617415392 0.0
  outer loop
    vertex 93.77119682939447 -147.88354163314875 5.0
    vertex 93.77119682939447 -147.88354163314875 0.0
    vertex 93.3509861740185 -152.0643937193045 5.0
  endloop
endfacet
facet normal -0.9474614142640875 0.31987008062758165 0.0
  outer loop
    vertex 92.09034580363556 -155.79843507089956 0.0
    vertex 92.09034580363556 -155.79843507089956 5.0
    vertex 93.3509861740185 -152.0643937193045 0.0
  endloop
endfacet
facet normal -0.9474614142640875 0.31987008062758165 0.0
  outer loop
    vertex 93.3509861740185 -152.0643937193045 5.0
    vertex 93.3509861740185 -152.0643937193045 0.0
    vertex 92.09034580363556 -155.79843507089956 5.0
  endloop
endfacet
facet normal -0.7980012692162077 0.6026557676894178 0.0
  outer loop
    vertex 91.31906978387075 -156.8197133456402 0.0
    vertex 91.31906978387075 -156.8197133456402 5.0
    vertex 92.09034580363556 -155.79843507089956 0.0
  endloop
endfacet
facet normal -0.7980012692162077 0.6026557676894178 0.0
  outer loop
    vertex 92.09034580363556 -155.79843507089956 5.0
    vertex 92.09034580363556 -155.79843507089956 0.0
    vertex 91.31906978387075 -156.8197133456402 5.0
  endloop
endfacet
facet normal -0.32380525871644067 0.9461237521738787 0.0
  outer loop
    vertex 91.31906978387075 -156.8197133456402 0.0
    vertex 90.32438839682557 -157.1601371677169 0.0
    vertex 91.31906978387075 -156.8197133456402 5.0
  endloop
endfacet
facet normal -0.32380525871644067 0.9461237521738787 0.0
  outer loop
    vertex 90.32438839682557 -157.1601371677169 5.0
    vertex 91.31906978387075 -156.8197133456402 5.0
    vertex 90.32438839682557 -157.1601371677169 0.0
  endloop
endfacet
facet normal 0.24503916734360523 0.9695131801412257 0.0
  outer loop
    vertex 90.32438839682557 -157.1601371677169 0.0
    vertex 89.4773112251872 -156.9460430336033 0.0
    vertex 90.32438839682557 -157.1601371677169 5.0
  endloop
endfacet
facet normal 0.24503916734360523 0.9695131801412257 0.0
  outer loop
    vertex 89.4773112251872 -156.9460430336033 5.0
    vertex 90.32438839682557 -157.1601371677169 5.0
    vertex 89.4773112251872 -156.9460430336033 0.0
  endloop
endfacet
facet normal 0.7278889641404259 0.6856950166674525 0.0
  outer loop
    vertex 89.4773112251872 -156.9460430336033 5.0
    vertex 89.4773112251872 -156.9460430336033 0.0
    vertex 88.87225834992873 -156.30375849030517 5.0
  endloop
endfacet
facet normal 0.7278889641404259 0.6856950166674525 0.0
  outer loop
    vertex 88.87225834992873 -156.30375849030517 0.0
    vertex 88.87225834992873 -156.30375849030517 5.0
    vertex 89.4773112251872 -156.9460430336033 0.0
  endloop
endfacet
facet normal 0.947023791863584 0.3211634126800862 0.0
  outer loop
    vertex 88.87225834992873 -156.30375849030517 5.0
    vertex 88.87225834992873 -156.30375849030517 0.0
    vertex 88.50922795589064 -155.23328032638634 5.0
  endloop
endfacet
facet normal 0.947023791863584 0.3211634126800862 0.0
  outer loop
    vertex 88.50922795589064 -155.23328032638634 0.0
    vertex 88.50922795589064 -155.23328032638634 5.0
    vertex 88.87225834992873 -156.30375849030517 0.0
  endloop
endfacet
facet normal 0.9967560184363109 0.08048254289591573 0.0
  outer loop
    vertex 88.50922795589064 -155.23328032638634 5.0
    vertex 88.50922795589064 -155.23328032638634 0.0
    vertex 88.38821822791341 -153.73460533041077 5.0
  endloop
endfacet
facet normal 0.9967560184363109 0.08048254289591573 0.0
  outer loop
    vertex 88.38821822791341 -153.73460533041077 0.0
    vertex 88.38821822791341 -153.73460533041077 5.0
    vertex 88.50922795589064 -155.23328032638634 0.0
  endloop
endfacet
facet normal 0.9949084382371435 -0.10078293270454151 0.0
  outer loop
    vertex 88.38821822791341 -153.73460533041077 5.0
    vertex 88.38821822791341 -153.73460533041077 0.0
    vertex 88.80311183553745 -149.63886074232735 5.0
  endloop
endfacet
facet normal 0.9949084382371435 -0.10078293270454151 0.0
  outer loop
    vertex 88.80311183553745 -149.63886074232735 0.0
    vertex 88.80311183553745 -149.63886074232735 5.0
    vertex 88.38821822791341 -153.73460533041077 0.0
  endloop
endfacet
facet normal 0.9585363562790548 -0.28497026808295833 0.0
  outer loop
    vertex 88.80311183553745 -149.63886074232735 5.0
    vertex 88.80311183553745 -149.63886074232735 0.0
    vertex 89.85630330104459 -146.096307631076 5.0
  endloop
endfacet
facet normal 0.9585363562790548 -0.28497026808295833 0.0
  outer loop
    vertex 89.85630330104459 -146.096307631076 0.0
    vertex 89.85630330104459 -146.096307631076 5.0
    vertex 88.80311183553745 -149.63886074232735 0.0
  endloop
endfacet
facet normal 0.8088986579662725 -0.5879480939167703 0.0
  outer loop
    vertex 89.85630330104459 -146.096307631076 5.0
    vertex 89.85630330104459 -146.096307631076 0.0
    vertex 90.69140900021476 -144.94736967837576 5.0
  endloop
endfacet
facet normal 0.8088986579662725 -0.5879480939167703 0.0
  outer loop
    vertex 90.69140900021476 -144.94736967837576 0.0
    vertex 90.69140900021476 -144.94736967837576 5.0
    vertex 89.85630330104459 -146.096307631076 0.0
  endloop
endfacet
facet normal 0.3604868646690734 -0.9327642898401831 0.0
  outer loop
    vertex 90.69140900021476 -144.94736967837576 0.0
    vertex 91.79247346995678 -144.52183958163096 0.0
    vertex 90.69140900021476 -144.94736967837576 5.0
  endloop
endfacet
facet normal 0.3604868646690734 -0.9327642898401831 0.0
  outer loop
    vertex 91.79247346995678 -144.52183958163096 5.0
    vertex 90.69140900021476 -144.94736967837576 5.0
    vertex 91.79247346995678 -144.52183958163096 0.0
  endloop
endfacet
facet normal 0.0 0.0 -1.0
  outer loop
    vertex 102.8350264113349 -150.50056285046958 0.0
    vertex 102.58901762368886 -153.39019729632324 0.0
    vertex 102.61029405937715 -147.69204551381588 0.0
  endloop
endfacet
facet normal 0.0 0.0 -1.0
  outer loop
    vertex 101.93609475616356 -145.20268743855033 0.0
    vertex 102.61029405937715 -147.69204551381588 0.0
    vertex 102.58901762368886 -153.39019729632324 0.0
  endloop
endfacet
facet normal 0.0 0.0 -1.0
  outer loop
    vertex 101.85098880064439 -155.97397004032797 0.0
    vertex 101.93609475616356 -145.20268743855033 0.0
    vertex 102.58901762368886 -153.39019729632324 0.0
  endloop
endfacet
facet normal 0.0 0.0 -1.0
  outer loop
    vertex 100.81242513068358 -143.03247988797096 0.0
    vertex 101.93609475616356 -145.20268743855033 0.0
    vertex 101.85098880064439 -155.97397004032797 0.0
  endloop
endfacet
facet normal 0.0 0.0 -1.0
  outer loop
    vertex 100.62093625204203 -158.25189019817512 0.0
    vertex 100.81242513068358 -143.03247988797096 0.0
    vertex 101.85098880064439 -155.97397004032797 0.0
  endloop
endfacet
facet normal 0.0 0.0 -1.0
  outer loop
    vertex 99.23928181192659 -141.1814141253759 0.0
    vertex 100.81242513068358 -143.03247988797096 0.0
    vertex 100.62093625204203 -158.25189019817512 0.0
  endloop
endfacet
facet normal 0.0 0.0 -1.0
  outer loop
    vertex 98.89885628772225 -160.2239668855559 0.0
    vertex 99.23928181192659 -141.1814141253759 0.0
    vertex 100.62093625204203 -158.25189019817512 0.0
  endloop
endfacet
facet normal 0.0 0.0 -1.0
  outer loop
    vertex 97.5544392004868 -139.86890993635382 0.0
    vertex 99.23928181192659 -141.1814141253759 0.0
    vertex 98.89885628772225 -160.2239668855559 0.0
  endloop
endfacet
facet normal 0.0 0.0 -1.0
  outer loop
    vertex 97.15151344830979 -161.5737052359687 0.0
    vertex 97.5544392004868 -139.86890993635382 0.0
    vertex 98.89885628772225 -160.2239668855559 0.0
  endloop
endfacet
facet normal 0.0 0.0 -1.0
  outer loop
    vertex 95.67013495127756 -138.93141042633795 0.0
    vertex 97.5544392004868 -139.86890993635382 0.0
    vertex 97.15151344830979 -161.5737052359687 0.0
  endloop
endfacet
facet normal 0.0 0.0 -1.0
  outer loop
    vertex 95.22864536021336 -162.53780047676514 0.0
    vertex 95.67013495127756 -138.93141042633795 0.0
    vertex 97.15151344830979 -161.5737052359687 0.0
  endloop
endfacet
facet normal 0.0 0.0 -1.0
  outer loop
    vertex 93.58636162413943 -138.3689127828284 0.0
    vertex 95.67013495127756 -138.93141042633795 0.0
    vertex 95.22864536021336 -162.53780047676514 0.0
  endloop
endfacet
facet normal 0.0 0.0 -1.0
  outer loop
    vertex 93.77119682939447 -147.88354163314875 0.0
    vertex 93.58636162413943 -138.3689127828284 0.0
    vertex 95.22864536021336 -162.53780047676514 0.0
  endloop
endfacet
facet normal 0.0 0.0 -1.0
  outer loop
    vertex 93.64752754695618 -146.4127922582162 0.0
    vertex 93.58636162413943 -138.3689127828284 0.0
    vertex 93.77119682939447 -147.88354163314875 0.0
  endloop
endfacet
facet normal 0.0 0.0 -1.0
  outer loop
    vertex 93.27651846293924 -145.36226089238284 0.0
    vertex 93.58636162413943 -138.3689127828284 0.0
    vertex 93.64752754695618 -146.4127922582162 0.0
  endloop
endfacet
facet normal 0.0 0.0 -1.0
  outer loop
    vertex 91.30311177891303 -138.1814141933252 0.0
    vertex 93.58636162413943 -138.3689127828284 0.0
    vertex 93.27651846293924 -145.36226089238284 0.0
  endloop
endfacet
facet normal 0.0 0.0 -1.0
  outer loop
    vertex 92.65816772229047 -144.73194438405295 0.0
    vertex 91.30311177891303 -138.1814141933252 0.0
    vertex 93.27651846293924 -145.36226089238284 0.0
  endloop
endfacet
facet normal 0.0 0.0 -1.0
  outer loop
    vertex 91.79247346995678 -144.52183958163096 0.0
    vertex 91.30311177891303 -138.1814141933252 0.0
    vertex 92.65816772229047 -144.73194438405295 0.0
  endloop
endfacet
facet normal 0.0 0.0 -1.0
  outer loop
    vertex 90.69140900021476 -144.94736967837576 0.0
    vertex 91.30311177891303 -138.1814141933252 0.0
    vertex 91.79247346995678 -144.52183958163096 0.0
  endloop
endfacet
facet normal 0.0 0.0 -1.0
  outer loop
    vertex 88.44140945011291 -138.53779538206177 0.0
    vertex 91.30311177891303 -138.1814141933252 0.0
    vertex 90.69140900021476 -144.94736967837576 0.0
  endloop
endfacet
facet normal 0.0 0.0 -1.0
  outer loop
    vertex 89.85630330104459 -146.096307631076 0.0
    vertex 88.44140945011291 -138.53779538206177 0.0
    vertex 90.69140900021476 -144.94736967837576 0.0
  endloop
endfacet
facet normal 0.0 0.0 -1.0
  outer loop
    vertex 88.80311183553745 -149.63886074232735 0.0
    vertex 88.44140945011291 -138.53779538206177 0.0
    vertex 89.85630330104459 -146.096307631076 0.0
  endloop
endfacet
facet normal 0.0 0.0 -1.0
  outer loop
    vertex 88.38821822791341 -153.73460533041077 0.0
    vertex 88.44140945011291 -138.53779538206177 0.0
    vertex 88.80311183553745 -149.63886074232735 0.0
  endloop
endfacet
facet normal 0.0 0.0 -1.0
  outer loop
    vertex 85.68609062954148 -139.60694607593086 0.0
    vertex 88.44140945011291 -138.53779538206177 0.0
    vertex 88.38821822791341 -153.73460533041077 0.0
  endloop
endfacet
facet normal 0.0 0.0 -1.0
  outer loop
    vertex 86.81374900825563 -162.61758731006438 0.0
    vertex 85.68609062954148 -139.60694607593086 0.0
    vertex 88.38821822791341 -153.73460533041077 0.0
  endloop
endfacet
facet normal 0.0 0.0 -1.0
  outer loop
    vertex 84.96800823224206 -161.75322605969515 0.0
    vertex 85.68609062954148 -139.60694607593086 0.0
    vertex 86.81374900825563 -162.61758731006438 0.0
  endloop
endfacet
facet normal 0.0 0.0 -1.0
  outer loop
    vertex 83.97199062514736 -140.68141505425396 0.0
    vertex 85.68609062954148 -139.60694607593086 0.0
    vertex 84.96800823224206 -161.75322605969515 0.0
  endloop
endfacet
facet normal 0.0 0.0 -1.0
  outer loop
    vertex 83.23928217432284 -160.54311581449747 0.0
    vertex 83.97199062514736 -140.68141505425396 0.0
    vertex 84.96800823224206 -161.75322605969515 0.0
  endloop
endfacet
facet normal 0.0 0.0 -1.0
  outer loop
    vertex 82.48927987748041 -141.98992240493573 0.0
    vertex 83.97199062514736 -140.68141505425396 0.0
    vertex 83.23928217432284 -160.54311581449747 0.0
  endloop
endfacet
facet normal 0.0 0.0 -1.0
  outer loop
    vertex 81.3310314030496 -158.59497511726602 0.0
    vertex 82.48927987748041 -141.98992240493573 0.0
    vertex 83.23928217432284 -160.54311581449747 0.0
  endloop
endfacet
facet normal 0.0 0.0 -1.0
  outer loop
    vertex 81.23795326021097 -143.53247347372073 0.0
    vertex 82.48927987748041 -141.98992240493573 0.0
    vertex 81.3310314030496 -158.59497511726602 0.0
  endloop
endfacet
facet normal 0.0 0.0 -1.0
  outer loop
    vertex 79.96800020054427 -156.3888631692286 0.0
    vertex 81.23795326021097 -143.53247347372073 0.0
    vertex 81.3310314030496 -158.59497511726602 0.0
  endloop
endfacet
facet normal 0.0 0.0 -1.0
  outer loop
    vertex 80.21800564700936 -145.30907360635348 0.0
    vertex 81.23795326021097 -143.53247347372073 0.0
    vertex 79.96800020054427 -156.3888631692286 0.0
  endloop
endfacet
facet normal 0.0 0.0 -1.0
  outer loop
    vertex 79.21268484531156 -148.1654560682528 0.0
    vertex 80.21800564700936 -145.30907360635348 0.0
    vertex 79.96800020054427 -156.3888631692286 0.0
  endloop
endfacet
facet normal 0.0 0.0 -1.0
  outer loop
    vertex 79.15018447771125 -153.92477121373653 0.0
    vertex 79.21268484531156 -148.1654560682528 0.0
    vertex 79.96800020054427 -156.3888631692286 0.0
  endloop
endfacet
facet normal 0.0 0.0 -1.0
  outer loop
    vertex 78.8775801454548 -151.20269049414102 0.0
    vertex 79.21268484531156 -148.1654560682528 0.0
    vertex 79.15018447771125 -153.92477121373653 0.0
  endloop
endfacet
facet normal 0.0 0.0 -1.0
  outer loop
    vertex 95.22864536021336 -162.53780047676514 0.0
    vertex 93.13024448353951 -163.11625550023243 0.0
    vertex 93.77119682939447 -147.88354163314875 0.0
  endloop
endfacet
facet normal 0.0 0.0 -1.0
  outer loop
    vertex 93.3509861740185 -152.0643937193045 0.0
    vertex 93.77119682939447 -147.88354163314875 0.0
    vertex 93.13024448353951 -163.11625550023243 0.0
  endloop
endfacet
facet normal 0.0 0.0 -1.0
  outer loop
    vertex 92.09034580363556 -155.79843507089956 0.0
    vertex 93.3509861740185 -152.0643937193045 0.0
    vertex 93.13024448353951 -163.11625550023243 0.0
  endloop
endfacet
facet normal 0.0 0.0 -1.0
  outer loop
    vertex 90.85630327839485 -163.3090731986577 0.0
    vertex 92.09034580363556 -155.79843507089956 0.0
    vertex 93.13024448353951 -163.11625550023243 0.0
  endloop
endfacet
facet normal 0.0 0.0 -1.0
  outer loop
    vertex 91.31906978387075 -156.8197133456402 0.0
    vertex 92.09034580363556 -155.79843507089956 0.0
    vertex 90.85630327839485 -163.3090731986577 0.0
  endloop
endfacet
facet normal 0.0 0.0 -1.0
  outer loop
    vertex 90.32438839682557 -157.1601371677169 0.0
    vertex 91.31906978387075 -156.8197133456402 0.0
    vertex 90.85630327839485 -163.3090731986577 0.0
  endloop
endfacet
facet normal 0.0 0.0 -1.0
  outer loop
    vertex 88.77651164332079 -163.1362021586902 0.0
    vertex 90.32438839682557 -157.1601371677169 0.0
    vertex 90.85630327839485 -163.3090731986577 0.0
  endloop
endfacet
facet normal 0.0 0.0 -1.0
  outer loop
    vertex 89.4773112251872 -156.9460430336033 0.0
    vertex 90.32438839682557 -157.1601371677169 0.0
    vertex 88.77651164332079 -163.1362021586902 0.0
  endloop
endfacet
facet normal 0.0 0.0 -1.0
  outer loop
    vertex 88.87225834992873 -156.30375849030517 0.0
    vertex 89.4773112251872 -156.9460430336033 0.0
    vertex 88.77651164332079 -163.1362021586902 0.0
  endloop
endfacet
facet normal 0.0 0.0 -1.0
  outer loop
    vertex 88.50922795589064 -155.23328032638634 0.0
    vertex 88.87225834992873 -156.30375849030517 0.0
    vertex 88.77651164332079 -163.1362021586902 0.0
  endloop
endfacet
facet normal 0.0 0.0 -1.0
  outer loop
    vertex 86.81374900825563 -162.61758731006438 0.0
    vertex 88.50922795589064 -155.23328032638634 0.0
    vertex 88.77651164332079 -163.1362021586902 0.0
  endloop
endfacet
facet normal 0.0 0.0 -1.0
  outer loop
    vertex 88.38821822791341 -153.73460533041077 0.0
    vertex 88.50922795589064 -155.23328032638634 0.0
    vertex 86.81374900825563 -162.61758731006438 0.0
  endloop
endfacet
facet normal 0.08449128935983867 -0.996424217902351 0.0
  outer loop
    vertex 90.85630327839485 -163.3090731986577 0.0
    vertex 93.13024448353951 -163.11625550023243 0.0
    vertex 90.85630327839485 -163.3090731986577 5.0
  endloop
endfacet
facet normal 0.08449128935983867 -0.996424217902351 0.0
  outer loop
    vertex 93.13024448353951 -163.11625550023243 5.0
    vertex 90.85630327839485 -163.3090731986577 5.0
    vertex 93.13024448353951 -163.11625550023243 0.0
  endloop
endfacet
facet normal -0.7766056034837939 0.6299870924372755 0.0
  outer loop
    vertex 81.23795326021097 -143.53247347372073 0.0
    vertex 81.23795326021097 -143.53247347372073 5.0
    vertex 82.48927987748041 -141.98992240493573 0.0
  endloop
endfacet
facet normal -0.7766056034837939 0.6299870924372755 0.0
  outer loop
    vertex 82.48927987748041 -141.98992240493573 5.0
    vertex 82.48927987748041 -141.98992240493573 0.0
    vertex 81.23795326021097 -143.53247347372073 5.0
  endloop
endfacet
facet normal 0.8880257963891381 0.4597936330001071 0.0
  outer loop
    vertex 101.93609475616356 -145.20268743855033 5.0
    vertex 101.93609475616356 -145.20268743855033 0.0
    vertex 100.81242513068358 -143.03247988797096 5.0
  endloop
endfacet
facet normal 0.8880257963891381 0.4597936330001071 0.0
  outer loop
    vertex 100.81242513068358 -143.03247988797096 0.0
    vertex 100.81242513068358 -143.03247988797096 5.0
    vertex 101.93609475616356 -145.20268743855033 0.0
  endloop
endfacet
facet normal -0.36175190208230923 0.9322744023836712 0.0
  outer loop
    vertex 88.44140945011291 -138.53779538206177 0.0
    vertex 85.68609062954148 -139.60694607593086 0.0
    vertex 88.44140945011291 -138.53779538206177 5.0
  endloop
endfacet
facet normal -0.36175190208230923 0.9322744023836712 0.0
  outer loop
    vertex 85.68609062954148 -139.60694607593086 5.0
    vertex 88.44140945011291 -138.53779538206177 5.0
    vertex 85.68609062954148 -139.60694607593086 0.0
  endloop
endfacet
facet normal -0.9939684170457428 0.10966670376910362 0.0
  outer loop
    vertex 78.8775801454548 -151.20269049414102 0.0
    vertex 78.8775801454548 -151.20269049414102 5.0
    vertex 79.21268484531156 -148.1654560682528 0.0
  endloop
endfacet
facet normal -0.9939684170457428 0.10966670376910362 0.0
  outer loop
    vertex 79.21268484531156 -148.1654560682528 5.0
    vertex 79.21268484531156 -148.1654560682528 0.0
    vertex 78.8775801454548 -151.20269049414102 5.0
  endloop
endfacet
facet normal 0.9963956045626927 -0.0848280567273964 0.0
  outer loop
    vertex 102.58901762368886 -153.39019729632324 5.0
    vertex 102.58901762368886 -153.39019729632324 0.0
    vertex 102.8350264113349 -150.50056285046958 5.0
  endloop
endfacet
facet normal 0.9963956045626927 -0.0848280567273964 0.0
  outer loop
    vertex 102.8350264113349 -150.50056285046958 0.0
    vertex 102.8350264113349 -150.50056285046958 5.0
    vertex 102.58901762368886 -153.39019729632324 0.0
  endloop
endfacet
facet normal -0.8672430772265867 0.49788497165767176 0.0
  outer loop
    vertex 80.21800564700936 -145.30907360635348 0.0
    vertex 80.21800564700936 -145.30907360635348 5.0
    vertex 81.23795326021097 -143.53247347372073 0.0
  endloop
endfacet
facet normal -0.8672430772265867 0.49788497165767176 0.0
  outer loop
    vertex 81.23795326021097 -143.53247347372073 5.0
    vertex 81.23795326021097 -143.53247347372073 0.0
    vertex 80.21800564700936 -145.30907360635348 5.0
  endloop
endfacet
facet normal 0.265752166953653 -0.9640413817671095 0.0
  outer loop
    vertex 93.13024448353951 -163.11625550023243 0.0
    vertex 95.22864536021336 -162.53780047676514 0.0
    vertex 93.13024448353951 -163.11625550023243 5.0
  endloop
endfacet
facet normal 0.265752166953653 -0.9640413817671095 0.0
  outer loop
    vertex 95.22864536021336 -162.53780047676514 5.0
    vertex 93.13024448353951 -163.11625550023243 5.0
    vertex 95.22864536021336 -162.53780047676514 0.0
  endloop
endfacet
facet normal -0.5734629819416396 -0.8192314742138531 0.0
  outer loop
    vertex 83.23928217432284 -160.54311581449747 0.0
    vertex 84.96800823224206 -161.75322605969515 0.0
    vertex 83.23928217432284 -160.54311581449747 5.0
  endloop
endfacet
facet normal -0.5734629819416396 -0.8192314742138531 0.0
  outer loop
    vertex 84.96800823224206 -161.75322605969515 5.0
    vertex 83.23928217432284 -160.54311581449747 5.0
    vertex 84.96800823224206 -161.75322605969515 0.0
  endloop
endfacet
facet normal -0.2554598433242699 -0.9668196669745293 0.0
  outer loop
    vertex 86.81374900825563 -162.61758731006438 0.0
    vertex 88.77651164332079 -163.1362021586902 0.0
    vertex 86.81374900825563 -162.61758731006438 5.0
  endloop
endfacet
facet normal -0.2554598433242699 -0.9668196669745293 0.0
  outer loop
    vertex 88.77651164332079 -163.1362021586902 5.0
    vertex 86.81374900825563 -162.61758731006438 5.0
    vertex 88.77651164332079 -163.1362021586902 0.0
  endloop
endfacet
facet normal 0.9615428156978034 -0.274655081110727 0.0
  outer loop
    vertex 101.85098880064439 -155.97397004032797 5.0
    vertex 101.85098880064439 -155.97397004032797 0.0
    vertex 102.58901762368886 -153.39019729632324 5.0
  endloop
endfacet
facet normal 0.9615428156978034 -0.274655081110727 0.0
  outer loop
    vertex 102.58901762368886 -153.39019729632324 0.0
    vertex 102.58901762368886 -153.39019729632324 5.0
    vertex 101.85098880064439 -155.97397004032797 0.0
  endloop
endfacet
facet normal -0.42410007396516497 -0.9056153307352641 0.0
  outer loop
    vertex 84.96800823224206 -161.75322605969515 0.0
    vertex 86.81374900825563 -162.61758731006438 0.0
    vertex 84.96800823224206 -161.75322605969515 5.0
  endloop
endfacet
facet normal -0.42410007396516497 -0.9056153307352641 0.0
  outer loop
    vertex 86.81374900825563 -162.61758731006438 5.0
    vertex 84.96800823224206 -161.75322605969515 5.0
    vertex 86.81374900825563 -162.61758731006438 0.0
  endloop
endfacet
facet normal 0.8799093279268746 -0.4751416363856948 0.0
  outer loop
    vertex 100.62093625204203 -158.25189019817512 5.0
    vertex 100.62093625204203 -158.25189019817512 0.0
    vertex 101.85098880064439 -155.97397004032797 5.0
  endloop
endfacet
facet normal 0.8799093279268746 -0.4751416363856948 0.0
  outer loop
    vertex 101.85098880064439 -155.97397004032797 0.0
    vertex 101.85098880064439 -155.97397004032797 5.0
    vertex 100.62093625204203 -158.25189019817512 0.0
  endloop
endfacet
facet normal -0.8507233976583936 -0.5256136420190772 0.0
  outer loop
    vertex 81.3310314030496 -158.59497511726602 0.0
    vertex 81.3310314030496 -158.59497511726602 5.0
    vertex 79.96800020054427 -156.3888631692286 0.0
  endloop
endfacet
facet normal -0.8507233976583936 -0.5256136420190772 0.0
  outer loop
    vertex 79.96800020054427 -156.3888631692286 5.0
    vertex 79.96800020054427 -156.3888631692286 0.0
    vertex 81.3310314030496 -158.59497511726602 5.0
  endloop
endfacet
facet normal -0.9490925051503094 -0.31499748676379924 0.0
  outer loop
    vertex 79.96800020054427 -156.3888631692286 0.0
    vertex 79.96800020054427 -156.3888631692286 5.0
    vertex 79.15018447771125 -153.92477121373653 0.0
  endloop
endfacet
facet normal -0.9490925051503094 -0.31499748676379924 0.0
  outer loop
    vertex 79.15018447771125 -153.92477121373653 5.0
    vertex 79.15018447771125 -153.92477121373653 0.0
    vertex 79.96800020054427 -156.3888631692286 5.0
  endloop
endfacet
facet normal -0.7143827692911003 -0.6997551421318593 0.0
  outer loop
    vertex 83.23928217432284 -160.54311581449747 0.0
    vertex 83.23928217432284 -160.54311581449747 5.0
    vertex 81.3310314030496 -158.59497511726602 0.0
  endloop
endfacet
facet normal -0.7143827692911003 -0.6997551421318593 0.0
  outer loop
    vertex 81.3310314030496 -158.59497511726602 5.0
    vertex 81.3310314030496 -158.59497511726602 0.0
    vertex 83.23928217432284 -160.54311581449747 5.0
  endloop
endfacet
facet normal 0.9652265521518634 0.2614148102557048 0.0
  outer loop
    vertex 102.61029405937715 -147.69204551381588 5.0
    vertex 102.61029405937715 -147.69204551381588 0.0
    vertex 101.93609475616356 -145.20268743855033 5.0
  endloop
endfacet
facet normal 0.9652265521518634 0.2614148102557048 0.0
  outer loop
    vertex 101.93609475616356 -145.20268743855033 0.0
    vertex 101.93609475616356 -145.20268743855033 5.0
    vertex 102.61029405937715 -147.69204551381588 0.0
  endloop
endfacet
facet normal -0.9950228384852468 -0.09964713188427901 0.0
  outer loop
    vertex 79.15018447771125 -153.92477121373653 0.0
    vertex 79.15018447771125 -153.92477121373653 5.0
    vertex 78.8775801454548 -151.20269049414102 0.0
  endloop
endfacet
facet normal -0.9950228384852468 -0.09964713188427901 0.0
  outer loop
    vertex 78.8775801454548 -151.20269049414102 5.0
    vertex 78.8775801454548 -151.20269049414102 0.0
    vertex 79.15018447771125 -153.92477121373653 5.0
  endloop
endfacet
facet normal -0.0828337535810405 -0.9965633794534473 0.0
  outer loop
    vertex 88.77651164332079 -163.1362021586902 0.0
    vertex 90.85630327839485 -163.3090731986577 0.0
    vertex 88.77651164332079 -163.1362021586902 5.0
  endloop
endfacet
facet normal -0.0828337535810405 -0.9965633794534473 0.0
  outer loop
    vertex 90.85630327839485 -163.3090731986577 5.0
    vertex 88.77651164332079 -163.1362021586902 5.0
    vertex 90.85630327839485 -163.3090731986577 0.0
  endloop
endfacet
facet normal 0.4482030633604765 -0.8939317725611305 0.0
  outer loop
    vertex 95.22864536021336 -162.53780047676514 0.0
    vertex 97.15151344830979 -161.5737052359687 0.0
    vertex 95.22864536021336 -162.53780047676514 5.0
  endloop
endfacet
facet normal 0.4482030633604765 -0.8939317725611305 0.0
  outer loop
    vertex 97.15151344830979 -161.5737052359687 5.0
    vertex 95.22864536021336 -162.53780047676514 5.0
    vertex 97.15151344830979 -161.5737052359687 0.0
  endloop
endfacet
facet normal -0.9432816432778177 0.331993586466817 0.0
  outer loop
    vertex 79.21268484531156 -148.1654560682528 0.0
    vertex 79.21268484531156 -148.1654560682528 5.0
    vertex 80.21800564700936 -145.30907360635348 0.0
  endloop
endfacet
facet normal -0.9432816432778177 0.331993586466817 0.0
  outer loop
    vertex 80.21800564700936 -145.30907360635348 5.0
    vertex 80.21800564700936 -145.30907360635348 0.0
    vertex 79.21268484531156 -148.1654560682528 5.0
  endloop
endfacet
facet normal 0.9968138404745087 0.07976319601458214 0.0
  outer loop
    vertex 102.8350264113349 -150.50056285046958 5.0
    vertex 102.8350264113349 -150.50056285046958 0.0
    vertex 102.61029405937715 -147.69204551381588 5.0
  endloop
endfacet
facet normal 0.9968138404745087 0.07976319601458214 0.0
  outer loop
    vertex 102.61029405937715 -147.69204551381588 0.0
    vertex 102.61029405937715 -147.69204551381588 5.0
    vertex 102.8350264113349 -150.50056285046958 0.0
  endloop
endfacet
facet normal 0.7532363807139482 -0.6577499181063822 0.0
  outer loop
    vertex 98.89885628772225 -160.2239668855559 5.0
    vertex 98.89885628772225 -160.2239668855559 0.0
    vertex 100.62093625204203 -158.25189019817512 5.0
  endloop
endfacet
facet normal 0.7532363807139482 -0.6577499181063822 0.0
  outer loop
    vertex 100.62093625204203 -158.25189019817512 0.0
    vertex 100.62093625204203 -158.25189019817512 5.0
    vertex 98.89885628772225 -160.2239668855559 0.0
  endloop
endfacet
facet normal -0.531120472741907 0.8472963138326599 0.0
  outer loop
    vertex 85.68609062954148 -139.60694607593086 0.0
    vertex 83.97199062514736 -140.68141505425396 0.0
    vertex 85.68609062954148 -139.60694607593086 5.0
  endloop
endfacet
facet normal -0.531120472741907 0.8472963138326599 0.0
  outer loop
    vertex 83.97199062514736 -140.68141505425396 5.0
    vertex 85.68609062954148 -139.60694607593086 5.0
    vertex 83.97199062514736 -140.68141505425396 0.0
  endloop
endfacet
facet normal -0.12358007402128521 0.9923346035007012 0.0
  outer loop
    vertex 91.30311177891303 -138.1814141933252 0.0
    vertex 88.44140945011291 -138.53779538206177 0.0
    vertex 91.30311177891303 -138.1814141933252 5.0
  endloop
endfacet
facet normal -0.12358007402128521 0.9923346035007012 0.0
  outer loop
    vertex 88.44140945011291 -138.53779538206177 5.0
    vertex 91.30311177891303 -138.1814141933252 5.0
    vertex 88.44140945011291 -138.53779538206177 0.0
  endloop
endfacet
facet normal -0.6616879276621449 0.749779358468994 0.0
  outer loop
    vertex 83.97199062514736 -140.68141505425396 0.0
    vertex 82.48927987748041 -141.98992240493573 0.0
    vertex 83.97199062514736 -140.68141505425396 5.0
  endloop
endfacet
facet normal -0.6616879276621449 0.749779358468994 0.0
  outer loop
    vertex 82.48927987748041 -141.98992240493573 5.0
    vertex 83.97199062514736 -140.68141505425396 5.0
    vertex 82.48927987748041 -141.98992240493573 0.0
  endloop
endfacet
facet normal 0.6113110560750997 -0.7913904173796561 0.0
  outer loop
    vertex 97.15151344830979 -161.5737052359687 0.0
    vertex 98.89885628772225 -160.2239668855559 0.0
    vertex 97.15151344830979 -161.5737052359687 5.0
  endloop
endfacet
facet normal 0.6113110560750997 -0.7913904173796561 0.0
  outer loop
    vertex 98.89885628772225 -160.2239668855559 5.0
    vertex 97.15151344830979 -161.5737052359687 5.0
    vertex 98.89885628772225 -160.2239668855559 0.0
  endloop
endfacet
facet normal 0.1305261922200586 -0.9914448613738096 0.0
  outer loop
    vertex 83.72734766839379 -147.8767858961375 2.899999999999972
    vertex 84.29674956761933 -147.80182271397345 2.899999999999972
    vertex 83.72734766839379 -147.8767858961375 4.9999999999999725
  endloop
endfacet
facet normal 0.1305261922200586 -0.9914448613738096 0.0
  outer loop
    vertex 84.29674956761933 -147.80182271397345 4.9999999999999725
    vertex 83.72734766839379 -147.8767858961375 4.9999999999999725
    vertex 84.29674956761933 -147.80182271397345 2.899999999999972
  endloop
endfacet
facet normal 0.7933533402912453 0.6087614290087077 0.0
  outer loop
    vertex 82.74111464900894 -151.55745763258386 4.9999999999999725
    vertex 82.74111464900894 -151.55745763258386 2.899999999999972
    vertex 82.39149367929357 -151.10182271397343 4.9999999999999725
  endloop
endfacet
facet normal 0.7933533402912453 0.6087614290087077 0.0
  outer loop
    vertex 82.39149367929357 -151.10182271397343 2.899999999999972
    vertex 82.39149367929357 -151.10182271397343 4.9999999999999725
    vertex 82.74111464900894 -151.55745763258386 2.899999999999972
  endloop
endfacet
facet normal 0.9914448613738113 0.1305261922200464 0.0
  outer loop
    vertex 82.1717127497834 -150.571224613199 4.9999999999999725
    vertex 82.1717127497834 -150.571224613199 2.899999999999972
    vertex 82.09674956761934 -150.00182271397344 4.9999999999999725
  endloop
endfacet
facet normal 0.9914448613738113 0.1305261922200464 0.0
  outer loop
    vertex 82.09674956761934 -150.00182271397344 2.899999999999972
    vertex 82.09674956761934 -150.00182271397344 4.9999999999999725
    vertex 82.1717127497834 -150.571224613199 2.899999999999972
  endloop
endfacet
facet normal 0.3826834323650871 0.923879532511288 0.0
  outer loop
    vertex 83.72734766839379 -152.1268595318094 2.899999999999972
    vertex 83.19674956761934 -151.9070786022992 2.899999999999972
    vertex 83.72734766839379 -152.1268595318094 4.9999999999999725
  endloop
endfacet
facet normal 0.3826834323650871 0.923879532511288 0.0
  outer loop
    vertex 83.19674956761934 -151.9070786022992 4.9999999999999725
    vertex 83.72734766839379 -152.1268595318094 4.9999999999999725
    vertex 83.19674956761934 -151.9070786022992 2.899999999999972
  endloop
endfacet
facet normal 0.1305261922200586 0.9914448613738096 0.0
  outer loop
    vertex 84.29674956761933 -152.20182271397346 2.899999999999972
    vertex 83.72734766839379 -152.1268595318094 2.899999999999972
    vertex 84.29674956761933 -152.20182271397346 4.9999999999999725
  endloop
endfacet
facet normal 0.1305261922200586 0.9914448613738096 0.0
  outer loop
    vertex 83.72734766839379 -152.1268595318094 4.9999999999999725
    vertex 84.29674956761933 -152.20182271397346 4.9999999999999725
    vertex 83.72734766839379 -152.1268595318094 2.899999999999972
  endloop
endfacet
facet normal -0.9914448613738099 -0.13052619222005604 0.0
  outer loop
    vertex 86.49674956761933 -150.00182271397344 2.899999999999972
    vertex 86.49674956761933 -150.00182271397344 4.9999999999999725
    vertex 86.42178638545528 -149.4324208147479 2.899999999999972
  endloop
endfacet
facet normal -0.9914448613738099 -0.13052619222005604 0.0
  outer loop
    vertex 86.42178638545528 -149.4324208147479 4.9999999999999725
    vertex 86.42178638545528 -149.4324208147479 2.899999999999972
    vertex 86.49674956761933 -150.00182271397344 4.9999999999999725
  endloop
endfacet
facet normal 0.9238795325112817 0.38268343236510244 0.0
  outer loop
    vertex 82.39149367929357 -151.10182271397343 4.9999999999999725
    vertex 82.39149367929357 -151.10182271397343 2.899999999999972
    vertex 82.1717127497834 -150.571224613199 4.9999999999999725
  endloop
endfacet
facet normal 0.9238795325112817 0.38268343236510244 0.0
  outer loop
    vertex 82.1717127497834 -150.571224613199 2.899999999999972
    vertex 82.1717127497834 -150.571224613199 4.9999999999999725
    vertex 82.39149367929357 -151.10182271397343 2.899999999999972
  endloop
endfacet
facet normal -0.7933533402912453 -0.6087614290087077 0.0
  outer loop
    vertex 86.20200545594508 -148.90182271397344 2.899999999999972
    vertex 86.20200545594508 -148.90182271397344 4.9999999999999725
    vertex 85.85238448622974 -148.44618779536304 2.899999999999972
  endloop
endfacet
facet normal -0.7933533402912453 -0.6087614290087077 0.0
  outer loop
    vertex 85.85238448622974 -148.44618779536304 4.9999999999999725
    vertex 85.85238448622974 -148.44618779536304 2.899999999999972
    vertex 86.20200545594508 -148.90182271397344 4.9999999999999725
  endloop
endfacet
facet normal -0.6087614290087295 0.7933533402912283 0.0
  outer loop
    vertex 85.85238448622974 -151.55745763258383 2.899999999999972
    vertex 85.39674956761932 -151.9070786022992 2.899999999999972
    vertex 85.85238448622974 -151.55745763258383 4.9999999999999725
  endloop
endfacet
facet normal -0.6087614290087295 0.7933533402912283 0.0
  outer loop
    vertex 85.39674956761932 -151.9070786022992 4.9999999999999725
    vertex 85.85238448622974 -151.55745763258383 4.9999999999999725
    vertex 85.39674956761932 -151.9070786022992 2.899999999999972
  endloop
endfacet
facet normal -0.9238795325112851 0.382683432365094 0.0
  outer loop
    vertex 86.20200545594508 -151.10182271397343 2.899999999999972
    vertex 86.20200545594508 -151.10182271397343 4.9999999999999725
    vertex 86.42178638545528 -150.571224613199 2.899999999999972
  endloop
endfacet
facet normal -0.9238795325112851 0.382683432365094 0.0
  outer loop
    vertex 86.42178638545528 -150.571224613199 4.9999999999999725
    vertex 86.42178638545528 -150.571224613199 2.899999999999972
    vertex 86.20200545594508 -151.10182271397343 4.9999999999999725
  endloop
endfacet
facet normal -0.7933533402912306 0.6087614290087267 0.0
  outer loop
    vertex 85.85238448622974 -151.55745763258383 2.899999999999972
    vertex 85.85238448622974 -151.55745763258383 4.9999999999999725
    vertex 86.20200545594508 -151.10182271397343 2.899999999999972
  endloop
endfacet
facet normal -0.7933533402912306 0.6087614290087267 0.0
  outer loop
    vertex 86.20200545594508 -151.10182271397343 4.9999999999999725
    vertex 86.20200545594508 -151.10182271397343 2.899999999999972
    vertex 85.85238448622974 -151.55745763258383 4.9999999999999725
  endloop
endfacet
facet normal 0.9238795325112851 -0.382683432365094 0.0
  outer loop
    vertex 82.1717127497834 -149.4324208147479 4.9999999999999725
    vertex 82.1717127497834 -149.4324208147479 2.899999999999972
    vertex 82.39149367929357 -148.90182271397344 4.9999999999999725
  endloop
endfacet
facet normal 0.9238795325112851 -0.382683432365094 0.0
  outer loop
    vertex 82.39149367929357 -148.90182271397344 2.899999999999972
    vertex 82.39149367929357 -148.90182271397344 4.9999999999999725
    vertex 82.1717127497834 -149.4324208147479 2.899999999999972
  endloop
endfacet
facet normal 0.7933533402912258 -0.6087614290087329 0.0
  outer loop
    vertex 82.39149367929357 -148.90182271397344 4.9999999999999725
    vertex 82.39149367929357 -148.90182271397344 2.899999999999972
    vertex 82.74111464900894 -148.44618779536307 4.9999999999999725
  endloop
endfacet
facet normal 0.7933533402912258 -0.6087614290087329 0.0
  outer loop
    vertex 82.74111464900894 -148.44618779536307 2.899999999999972
    vertex 82.74111464900894 -148.44618779536307 4.9999999999999725
    vertex 82.39149367929357 -148.90182271397344 2.899999999999972
  endloop
endfacet
facet normal -0.9914448613738099 0.13052619222005604 0.0
  outer loop
    vertex 86.42178638545528 -150.571224613199 2.899999999999972
    vertex 86.42178638545528 -150.571224613199 4.9999999999999725
    vertex 86.49674956761933 -150.00182271397344 2.899999999999972
  endloop
endfacet
facet normal -0.9914448613738099 0.13052619222005604 0.0
  outer loop
    vertex 86.49674956761933 -150.00182271397344 4.9999999999999725
    vertex 86.49674956761933 -150.00182271397344 2.899999999999972
    vertex 86.42178638545528 -150.571224613199 4.9999999999999725
  endloop
endfacet
facet normal -0.3826834323650871 -0.923879532511288 0.0
  outer loop
    vertex 84.86615146684487 -147.8767858961375 2.899999999999972
    vertex 85.39674956761932 -148.0965668256477 2.899999999999972
    vertex 84.86615146684487 -147.8767858961375 4.9999999999999725
  endloop
endfacet
facet normal -0.3826834323650871 -0.923879532511288 0.0
  outer loop
    vertex 85.39674956761932 -148.0965668256477 4.9999999999999725
    vertex 84.86615146684487 -147.8767858961375 4.9999999999999725
    vertex 85.39674956761932 -148.0965668256477 2.899999999999972
  endloop
endfacet
facet normal 0.9914448613738113 -0.1305261922200464 0.0
  outer loop
    vertex 82.09674956761934 -150.00182271397344 4.9999999999999725
    vertex 82.09674956761934 -150.00182271397344 2.899999999999972
    vertex 82.1717127497834 -149.4324208147479 4.9999999999999725
  endloop
endfacet
facet normal 0.9914448613738113 -0.1305261922200464 0.0
  outer loop
    vertex 82.1717127497834 -149.4324208147479 2.899999999999972
    vertex 82.1717127497834 -149.4324208147479 4.9999999999999725
    vertex 82.09674956761934 -150.00182271397344 2.899999999999972
  endloop
endfacet
facet normal 0.0 0.0 1.0
  outer loop
    vertex 86.49674956761933 -150.00182271397344 2.899999999999972
    vertex 86.42178638545528 -149.4324208147479 2.899999999999972
    vertex 86.42178638545528 -150.571224613199 2.899999999999972
  endloop
endfacet
facet normal 0.0 0.0 1.0
  outer loop
    vertex 86.20200545594508 -151.10182271397343 2.899999999999972
    vertex 86.42178638545528 -150.571224613199 2.899999999999972
    vertex 86.42178638545528 -149.4324208147479 2.899999999999972
  endloop
endfacet
facet normal 0.0 0.0 1.0
  outer loop
    vertex 86.20200545594508 -148.90182271397344 2.899999999999972
    vertex 86.20200545594508 -151.10182271397343 2.899999999999972
    vertex 86.42178638545528 -149.4324208147479 2.899999999999972
  endloop
endfacet
facet normal 0.0 0.0 1.0
  outer loop
    vertex 85.85238448622974 -151.55745763258383 2.899999999999972
    vertex 86.20200545594508 -151.10182271397343 2.899999999999972
    vertex 86.20200545594508 -148.90182271397344 2.899999999999972
  endloop
endfacet
facet normal 0.0 0.0 1.0
  outer loop
    vertex 85.85238448622974 -148.44618779536304 2.899999999999972
    vertex 85.85238448622974 -151.55745763258383 2.899999999999972
    vertex 86.20200545594508 -148.90182271397344 2.899999999999972
  endloop
endfacet
facet normal 0.0 0.0 1.0
  outer loop
    vertex 85.39674956761932 -151.9070786022992 2.899999999999972
    vertex 85.85238448622974 -151.55745763258383 2.899999999999972
    vertex 85.85238448622974 -148.44618779536304 2.899999999999972
  endloop
endfacet
facet normal 0.0 0.0 1.0
  outer loop
    vertex 85.39674956761932 -148.0965668256477 2.899999999999972
    vertex 85.39674956761932 -151.9070786022992 2.899999999999972
    vertex 85.85238448622974 -148.44618779536304 2.899999999999972
  endloop
endfacet
facet normal 0.0 0.0 1.0
  outer loop
    vertex 84.86615146684487 -152.1268595318094 2.899999999999972
    vertex 85.39674956761932 -151.9070786022992 2.899999999999972
    vertex 85.39674956761932 -148.0965668256477 2.899999999999972
  endloop
endfacet
facet normal 0.0 0.0 1.0
  outer loop
    vertex 84.86615146684487 -147.8767858961375 2.899999999999972
    vertex 84.86615146684487 -152.1268595318094 2.899999999999972
    vertex 85.39674956761932 -148.0965668256477 2.899999999999972
  endloop
endfacet
facet normal 0.0 0.0 1.0
  outer loop
    vertex 84.29674956761933 -152.20182271397346 2.899999999999972
    vertex 84.86615146684487 -152.1268595318094 2.899999999999972
    vertex 84.86615146684487 -147.8767858961375 2.899999999999972
  endloop
endfacet
facet normal 0.0 0.0 1.0
  outer loop
    vertex 84.29674956761933 -147.80182271397345 2.899999999999972
    vertex 84.29674956761933 -152.20182271397346 2.899999999999972
    vertex 84.86615146684487 -147.8767858961375 2.899999999999972
  endloop
endfacet
facet normal 0.0 0.0 1.0
  outer loop
    vertex 83.72734766839379 -152.1268595318094 2.899999999999972
    vertex 84.29674956761933 -152.20182271397346 2.899999999999972
    vertex 84.29674956761933 -147.80182271397345 2.899999999999972
  endloop
endfacet
facet normal 0.0 0.0 1.0
  outer loop
    vertex 83.72734766839379 -147.8767858961375 2.899999999999972
    vertex 83.72734766839379 -152.1268595318094 2.899999999999972
    vertex 84.29674956761933 -147.80182271397345 2.899999999999972
  endloop
endfacet
facet normal 0.0 0.0 1.0
  outer loop
    vertex 83.19674956761934 -151.9070786022992 2.899999999999972
    vertex 83.72734766839379 -152.1268595318094 2.899999999999972
    vertex 83.72734766839379 -147.8767858961375 2.899999999999972
  endloop
endfacet
facet normal 0.0 0.0 1.0
  outer loop
    vertex 83.19674956761934 -148.0965668256477 2.899999999999972
    vertex 83.19674956761934 -151.9070786022992 2.899999999999972
    vertex 83.72734766839379 -147.8767858961375 2.899999999999972
  endloop
endfacet
facet normal 0.0 0.0 1.0
  outer loop
    vertex 82.74111464900894 -151.55745763258386 2.899999999999972
    vertex 83.19674956761934 -151.9070786022992 2.899999999999972
    vertex 83.19674956761934 -148.0965668256477 2.899999999999972
  endloop
endfacet
facet normal 0.0 0.0 1.0
  outer loop
    vertex 82.74111464900894 -148.44618779536307 2.899999999999972
    vertex 82.74111464900894 -151.55745763258386 2.899999999999972
    vertex 83.19674956761934 -148.0965668256477 2.899999999999972
  endloop
endfacet
facet normal 0.0 0.0 1.0
  outer loop
    vertex 82.39149367929357 -151.10182271397343 2.899999999999972
    vertex 82.74111464900894 -151.55745763258386 2.899999999999972
    vertex 82.74111464900894 -148.44618779536307 2.899999999999972
  endloop
endfacet
facet normal 0.0 0.0 1.0
  outer loop
    vertex 82.39149367929357 -148.90182271397344 2.899999999999972
    vertex 82.39149367929357 -151.10182271397343 2.899999999999972
    vertex 82.74111464900894 -148.44618779536307 2.899999999999972
  endloop
endfacet
facet normal 0.0 0.0 1.0
  outer loop
    vertex 82.1717127497834 -150.571224613199 2.899999999999972
    vertex 82.39149367929357 -151.10182271397343 2.899999999999972
    vertex 82.39149367929357 -148.90182271397344 2.899999999999972
  endloop
endfacet
facet normal 0.0 0.0 1.0
  outer loop
    vertex 82.1717127497834 -149.4324208147479 2.899999999999972
    vertex 82.1717127497834 -150.571224613199 2.899999999999972
    vertex 82.39149367929357 -148.90182271397344 2.899999999999972
  endloop
endfacet
facet normal 0.0 0.0 1.0
  outer loop
    vertex 82.09674956761934 -150.00182271397344 2.899999999999972
    vertex 82.1717127497834 -150.571224613199 2.899999999999972
    vertex 82.1717127497834 -149.4324208147479 2.899999999999972
  endloop
endfacet
facet normal 0.3826834323650871 -0.923879532511288 0.0
  outer loop
    vertex 83.19674956761934 -148.0965668256477 2.899999999999972
    vertex 83.72734766839379 -147.8767858961375 2.899999999999972
    vertex 83.19674956761934 -148.0965668256477 4.9999999999999725
  endloop
endfacet
facet normal 0.3826834323650871 -0.923879532511288 0.0
  outer loop
    vertex 83.72734766839379 -147.8767858961375 4.9999999999999725
    vertex 83.19674956761934 -148.0965668256477 4.9999999999999725
    vertex 83.72734766839379 -147.8767858961375 2.899999999999972
  endloop
endfacet
facet normal -0.1305261922200586 -0.9914448613738096 0.0
  outer loop
    vertex 84.29674956761933 -147.80182271397345 2.899999999999972
    vertex 84.86615146684487 -147.8767858961375 2.899999999999972
    vertex 84.29674956761933 -147.80182271397345 4.9999999999999725
  endloop
endfacet
facet normal -0.1305261922200586 -0.9914448613738096 0.0
  outer loop
    vertex 84.86615146684487 -147.8767858961375 4.9999999999999725
    vertex 84.29674956761933 -147.80182271397345 4.9999999999999725
    vertex 84.86615146684487 -147.8767858961375 2.899999999999972
  endloop
endfacet
facet normal -0.6087614290087049 -0.7933533402912475 0.0
  outer loop
    vertex 85.39674956761932 -148.0965668256477 2.899999999999972
    vertex 85.85238448622974 -148.44618779536304 2.899999999999972
    vertex 85.39674956761932 -148.0965668256477 4.9999999999999725
  endloop
endfacet
facet normal -0.6087614290087049 -0.7933533402912475 0.0
  outer loop
    vertex 85.85238448622974 -148.44618779536304 4.9999999999999725
    vertex 85.39674956761932 -148.0965668256477 4.9999999999999725
    vertex 85.85238448622974 -148.44618779536304 2.899999999999972
  endloop
endfacet
facet normal 0.6087614290087295 -0.7933533402912283 0.0
  outer loop
    vertex 82.74111464900894 -148.44618779536307 2.899999999999972
    vertex 83.19674956761934 -148.0965668256477 2.899999999999972
    vertex 82.74111464900894 -148.44618779536307 4.9999999999999725
  endloop
endfacet
facet normal 0.6087614290087295 -0.7933533402912283 0.0
  outer loop
    vertex 83.19674956761934 -148.0965668256477 4.9999999999999725
    vertex 82.74111464900894 -148.44618779536307 4.9999999999999725
    vertex 83.19674956761934 -148.0965668256477 2.899999999999972
  endloop
endfacet
facet normal -0.9238795325112851 -0.382683432365094 0.0
  outer loop
    vertex 86.42178638545528 -149.4324208147479 2.899999999999972
    vertex 86.42178638545528 -149.4324208147479 4.9999999999999725
    vertex 86.20200545594508 -148.90182271397344 2.899999999999972
  endloop
endfacet
facet normal -0.9238795325112851 -0.382683432365094 0.0
  outer loop
    vertex 86.20200545594508 -148.90182271397344 4.9999999999999725
    vertex 86.20200545594508 -148.90182271397344 2.899999999999972
    vertex 86.42178638545528 -149.4324208147479 4.9999999999999725
  endloop
endfacet
facet normal -0.1305261922200586 0.9914448613738096 0.0
  outer loop
    vertex 84.86615146684487 -152.1268595318094 2.899999999999972
    vertex 84.29674956761933 -152.20182271397346 2.899999999999972
    vertex 84.86615146684487 -152.1268595318094 4.9999999999999725
  endloop
endfacet
facet normal -0.1305261922200586 0.9914448613738096 0.0
  outer loop
    vertex 84.29674956761933 -152.20182271397346 4.9999999999999725
    vertex 84.86615146684487 -152.1268595318094 4.9999999999999725
    vertex 84.29674956761933 -152.20182271397346 2.899999999999972
  endloop
endfacet
facet normal -0.3826834323650871 0.923879532511288 0.0
  outer loop
    vertex 85.39674956761932 -151.9070786022992 2.899999999999972
    vertex 84.86615146684487 -152.1268595318094 2.899999999999972
    vertex 85.39674956761932 -151.9070786022992 4.9999999999999725
  endloop
endfacet
facet normal -0.3826834323650871 0.923879532511288 0.0
  outer loop
    vertex 84.86615146684487 -152.1268595318094 4.9999999999999725
    vertex 85.39674956761932 -151.9070786022992 4.9999999999999725
    vertex 84.86615146684487 -152.1268595318094 2.899999999999972
  endloop
endfacet
facet normal 0.6087614290087049 0.7933533402912475 0.0
  outer loop
    vertex 83.19674956761934 -151.9070786022992 2.899999999999972
    vertex 82.74111464900894 -151.55745763258386 2.899999999999972
    vertex 83.19674956761934 -151.9070786022992 4.9999999999999725
  endloop
endfacet
facet normal 0.6087614290087049 0.7933533402912475 0.0
  outer loop
    vertex 82.74111464900894 -151.55745763258386 4.9999999999999725
    vertex 83.19674956761934 -151.9070786022992 4.9999999999999725
    vertex 82.74111464900894 -151.55745763258386 2.899999999999972
  endloop
endfacet
endsolid ABC
