solid ABC
facet normal 0.0 0.0 -1.0
  outer loop
    vertex 46.44211407708946 -108.0825612551204 5.0
    vertex 46.14424174341066 -101.61447629523805 5.0
    vertex 46.78253960129379 -96.84851895637735 5.0
  endloop
endfacet
facet normal 0.0 0.0 -1.0
  outer loop
    vertex 44.09105030055327 -97.28468915926415 5.0
    vertex 46.78253960129379 -96.84851895637735 5.0
    vertex 46.14424174341066 -101.61447629523805 5.0
  endloop
endfacet
facet normal 0.0 0.0 -1.0
  outer loop
    vertex 45.67083890838845 -100.84851854662935 5.0
    vertex 44.09105030055327 -97.28468915926415 5.0
    vertex 46.14424174341066 -101.61447629523805 5.0
  endloop
endfacet
facet normal 0.0 0.0 -1.0
  outer loop
    vertex 44.63360347975392 -100.21022100789516 5.0
    vertex 44.09105030055327 -97.28468915926415 5.0
    vertex 45.67083890838845 -100.84851854662935 5.0
  endloop
endfacet
facet normal 0.0 0.0 -1.0
  outer loop
    vertex 43.527220526089835 -99.54000825711788 5.0
    vertex 44.09105030055327 -97.28468915926415 5.0
    vertex 44.63360347975392 -100.21022100789516 5.0
  endloop
endfacet
facet normal 0.0 0.0 -1.0
  outer loop
    vertex 43.460730115361784 -97.85117785653969 5.0
    vertex 44.09105030055327 -97.28468915926415 5.0
    vertex 43.527220526089835 -99.54000825711788 5.0
  endloop
endfacet
facet normal 0.0 0.0 -1.0
  outer loop
    vertex 43.250624787673814 -98.67830614897564 5.0
    vertex 43.460730115361784 -97.85117785653969 5.0
    vertex 43.527220526089835 -99.54000825711788 5.0
  endloop
endfacet
facet normal 0.0 0.0 -1.0
  outer loop
    vertex 62.165517976277194 -101.9336252241796 5.0
    vertex 61.718709475759 -102.965540094424 5.0
    vertex 61.99530606523884 -101.2554337368809 5.0
  endloop
endfacet
facet normal 0.0 0.0 -1.0
  outer loop
    vertex 61.484666927868524 -100.58256142499366 5.0
    vertex 61.99530606523884 -101.2554337368809 5.0
    vertex 61.718709475759 -102.965540094424 5.0
  endloop
endfacet
facet normal 0.0 0.0 -1.0
  outer loop
    vertex 60.5484967363066 -103.35915710678525 5.0
    vertex 61.484666927868524 -100.58256142499366 5.0
    vertex 61.718709475759 -102.965540094424 5.0
  endloop
endfacet
facet normal 0.0 0.0 -1.0
  outer loop
    vertex 59.591049949481906 -99.40171038790986 5.0
    vertex 61.484666927868524 -100.58256142499366 5.0
    vertex 60.5484967363066 -103.35915710678525 5.0
  endloop
endfacet
facet normal 0.0 0.0 -1.0
  outer loop
    vertex 59.80381590210962 -103.31660391625972 5.0
    vertex 59.591049949481906 -99.40171038790986 5.0
    vertex 60.5484967363066 -103.35915710678525 5.0
  endloop
endfacet
facet normal 0.0 0.0 -1.0
  outer loop
    vertex 58.95275209159878 -103.2527741304714 5.0
    vertex 59.591049949481906 -99.40171038790986 5.0
    vertex 59.80381590210962 -103.31660391625972 5.0
  endloop
endfacet
facet normal 0.0 0.0 -1.0
  outer loop
    vertex 56.53253409455445 -98.28468554618892 5.0
    vertex 59.591049949481906 -99.40171038790986 5.0
    vertex 58.95275209159878 -103.2527741304714 5.0
  endloop
endfacet
facet normal 0.0 0.0 -1.0
  outer loop
    vertex 57.91019796627622 -103.36447569709031 5.0
    vertex 56.53253409455445 -98.28468554618892 5.0
    vertex 58.95275209159878 -103.2527741304714 5.0
  endloop
endfacet
facet normal 0.0 0.0 -1.0
  outer loop
    vertex 57.2506244705771 -103.69958263098958 5.0
    vertex 56.53253409455445 -98.28468554618892 5.0
    vertex 57.91019796627622 -103.36447569709031 5.0
  endloop
endfacet
facet normal 0.0 0.0 -1.0
  outer loop
    vertex 56.89956006363501 -104.32192216476608 5.0
    vertex 56.53253409455445 -98.28468554618892 5.0
    vertex 57.2506244705771 -103.69958263098958 5.0
  endloop
endfacet
facet normal 0.0 0.0 -1.0
  outer loop
    vertex 56.782539374796144 -105.29532727569742 5.0
    vertex 56.53253409455445 -98.28468554618892 5.0
    vertex 56.89956006363501 -104.32192216476608 5.0
  endloop
endfacet
facet normal 0.0 0.0 -1.0
  outer loop
    vertex 56.71870958900784 -121.52936946119165 5.0
    vertex 56.53253409455445 -98.28468554618892 5.0
    vertex 56.782539374796144 -105.29532727569742 5.0
  endloop
endfacet
facet normal 0.0 0.0 -1.0
  outer loop
    vertex 51.569773535417255 -121.84851839013322 5.0
    vertex 56.53253409455445 -98.28468554618892 5.0
    vertex 56.71870958900784 -121.52936946119165 5.0
  endloop
endfacet
facet normal 0.0 0.0 -1.0
  outer loop
    vertex 53.378285090199576 -97.48681362277118 5.0
    vertex 56.53253409455445 -98.28468554618892 5.0
    vertex 51.569773535417255 -121.84851839013322 5.0
  endloop
endfacet
facet normal 0.0 0.0 -1.0
  outer loop
    vertex 50.128290928438844 -97.00809222403964 5.0
    vertex 53.378285090199576 -97.48681362277118 5.0
    vertex 51.569773535417255 -121.84851839013322 5.0
  endloop
endfacet
facet normal 0.0 0.0 -1.0
  outer loop
    vertex 47.47402868137641 -121.6729873568749 5.0
    vertex 50.128290928438844 -97.00809222403964 5.0
    vertex 51.569773535417255 -121.84851839013322 5.0
  endloop
endfacet
facet normal 0.0 0.0 -1.0
  outer loop
    vertex 46.78253960129379 -96.84851895637735 5.0
    vertex 50.128290928438844 -97.00809222403964 5.0
    vertex 47.47402868137641 -121.6729873568749 5.0
  endloop
endfacet
facet normal 0.0 0.0 -1.0
  outer loop
    vertex 46.44211407708946 -108.0825612551204 5.0
    vertex 46.78253960129379 -96.84851895637735 5.0
    vertex 47.47402868137641 -121.6729873568749 5.0
  endloop
endfacet
facet normal 0.0 0.0 -1.0
  outer loop
    vertex 46.25062471972452 -114.18894409553566 5.0
    vertex 46.44211407708946 -108.0825612551204 5.0
    vertex 47.47402868137641 -121.6729873568749 5.0
  endloop
endfacet
facet normal 0.0 0.0 -1.0
  outer loop
    vertex 46.080411957622346 -115.31660364446253 5.0
    vertex 46.25062471972452 -114.18894409553566 5.0
    vertex 47.47402868137641 -121.6729873568749 5.0
  endloop
endfacet
facet normal 0.0 0.0 -1.0
  outer loop
    vertex 45.713391247850176 -116.2687321601311 5.0
    vertex 46.080411957622346 -115.31660364446253 5.0
    vertex 47.47402868137641 -121.6729873568749 5.0
  endloop
endfacet
facet normal 0.0 0.0 -1.0
  outer loop
    vertex 43.484667335564296 -121.14639074646178 5.0
    vertex 45.713391247850176 -116.2687321601311 5.0
    vertex 47.47402868137641 -121.6729873568749 5.0
  endloop
endfacet
facet normal 0.0 0.0 -1.0
  outer loop
    vertex 45.122965170797656 -116.86979509864481 5.0
    vertex 45.713391247850176 -116.2687321601311 5.0
    vertex 43.484667335564296 -121.14639074646178 5.0
  endloop
endfacet
facet normal 0.0 0.0 -1.0
  outer loop
    vertex 42.65488012031623 -117.38043338495133 5.0
    vertex 45.122965170797656 -116.86979509864481 5.0
    vertex 43.484667335564296 -121.14639074646178 5.0
  endloop
endfacet
facet normal 0.0 0.0 -1.0
  outer loop
    vertex 41.362323420868925 -120.35915810471793 5.0
    vertex 42.65488012031623 -117.38043338495133 5.0
    vertex 43.484667335564296 -121.14639074646178 5.0
  endloop
endfacet
facet normal 0.0 0.0 -1.0
  outer loop
    vertex 41.15487765429093 -117.83255919917885 5.0
    vertex 42.65488012031623 -117.38043338495133 5.0
    vertex 41.362323420868925 -120.35915810471793 5.0
  endloop
endfacet
facet normal 0.0 0.0 -1.0
  outer loop
    vertex 40.83174053727481 -119.75809494014038 5.0
    vertex 41.15487765429093 -117.83255919917885 5.0
    vertex 41.362323420868925 -120.35915810471793 5.0
  endloop
endfacet
facet normal 0.0 0.0 -1.0
  outer loop
    vertex 40.77987922528455 -118.33388866588237 5.0
    vertex 41.15487765429093 -117.83255919917885 5.0
    vertex 40.83174053727481 -119.75809494014038 5.0
  endloop
endfacet
facet normal 0.0 0.0 -1.0
  outer loop
    vertex 40.65488016561576 -119.01873122018468 5.0
    vertex 40.77987922528455 -118.33388866588237 5.0
    vertex 40.83174053727481 -119.75809494014038 5.0
  endloop
endfacet
facet normal 0.0 0.0 -1.0
  outer loop
    vertex 63.080411572576345 -118.69958229124313 5.0
    vertex 62.6708391616403 -119.74213620379973 5.0
    vertex 62.548496691007074 -117.59319933757902 5.0
  endloop
endfacet
facet normal 0.0 0.0 -1.0
  outer loop
    vertex 61.44211373734298 -120.48681629331587 5.0
    vertex 62.548496691007074 -117.59319933757902 5.0
    vertex 62.6708391616403 -119.74213620379973 5.0
  endloop
endfacet
facet normal 0.0 0.0 -1.0
  outer loop
    vertex 61.22934778471527 -117.10383764653528 5.0
    vertex 62.548496691007074 -117.59319933757902 5.0
    vertex 61.44211373734298 -120.48681629331587 5.0
  endloop
endfacet
facet normal 0.0 0.0 -1.0
  outer loop
    vertex 56.71870958900784 -121.52936946119165 5.0
    vertex 61.22934778471527 -117.10383764653528 5.0
    vertex 61.44211373734298 -120.48681629331587 5.0
  endloop
endfacet
facet normal 0.0 0.0 -1.0
  outer loop
    vertex 59.82509249737238 -117.25277381337469 5.0
    vertex 61.22934778471527 -117.10383764653528 5.0
    vertex 56.71870958900784 -121.52936946119165 5.0
  endloop
endfacet
facet normal 0.0 0.0 -1.0
  outer loop
    vertex 59.01658187738709 -117.33788019442578 5.0
    vertex 59.82509249737238 -117.25277381337469 5.0
    vertex 56.71870958900784 -121.52936946119165 5.0
  endloop
endfacet
facet normal 0.0 0.0 -1.0
  outer loop
    vertex 58.20806884383802 -117.15969004553622 5.0
    vertex 59.01658187738709 -117.33788019442578 5.0
    vertex 56.71870958900784 -121.52936946119165 5.0
  endloop
endfacet
facet normal 0.0 0.0 -1.0
  outer loop
    vertex 57.59104807988786 -116.62511781695265 5.0
    vertex 58.20806884383802 -117.15969004553622 5.0
    vertex 56.71870958900784 -121.52936946119165 5.0
  endloop
endfacet
facet normal 0.0 0.0 -1.0
  outer loop
    vertex 56.931475541635535 -114.48681642921447 5.0
    vertex 57.59104807988786 -116.62511781695265 5.0
    vertex 56.71870958900784 -121.52936946119165 5.0
  endloop
endfacet
facet normal 0.0 0.0 -1.0
  outer loop
    vertex 56.782539374796144 -105.29532727569742 5.0
    vertex 56.931475541635535 -114.48681642921447 5.0
    vertex 56.71870958900784 -121.52936946119165 5.0
  endloop
endfacet
facet normal -0.10546906201345378 0.9944225846982774 0.0
  outer loop
    vertex 61.22934778471527 -117.10383764653528 5.0
    vertex 59.82509249737238 -117.25277381337469 5.0
    vertex 61.22934778471527 -117.10383764653528 10.0
  endloop
endfacet
facet normal -0.10546906201345378 0.9944225846982774 0.0
  outer loop
    vertex 59.82509249737238 -117.25277381337469 10.0
    vertex 61.22934778471527 -117.10383764653528 10.0
    vertex 59.82509249737238 -117.25277381337469 5.0
  endloop
endfacet
facet normal -0.10468478451804225 0.9945054529214061 0.0
  outer loop
    vertex 59.82509249737238 -117.25277381337469 5.0
    vertex 59.01658187738709 -117.33788019442578 5.0
    vertex 59.82509249737238 -117.25277381337469 10.0
  endloop
endfacet
facet normal -0.10468478451804225 0.9945054529214061 0.0
  outer loop
    vertex 59.01658187738709 -117.33788019442578 10.0
    vertex 59.82509249737238 -117.25277381337469 10.0
    vertex 59.01658187738709 -117.33788019442578 5.0
  endloop
endfacet
facet normal 0.21522730469548956 0.976563980143398 0.0
  outer loop
    vertex 59.01658187738709 -117.33788019442578 5.0
    vertex 58.20806884383802 -117.15969004553622 5.0
    vertex 59.01658187738709 -117.33788019442578 10.0
  endloop
endfacet
facet normal 0.21522730469548956 0.976563980143398 0.0
  outer loop
    vertex 58.20806884383802 -117.15969004553622 10.0
    vertex 59.01658187738709 -117.33788019442578 10.0
    vertex 58.20806884383802 -117.15969004553622 5.0
  endloop
endfacet
facet normal 0.6548052475957162 0.7557976499838516 0.0
  outer loop
    vertex 58.20806884383802 -117.15969004553622 5.0
    vertex 57.59104807988786 -116.62511781695265 5.0
    vertex 58.20806884383802 -117.15969004553622 10.0
  endloop
endfacet
facet normal 0.6548052475957162 0.7557976499838516 0.0
  outer loop
    vertex 57.59104807988786 -116.62511781695265 10.0
    vertex 58.20806884383802 -117.15969004553622 10.0
    vertex 57.59104807988786 -116.62511781695265 5.0
  endloop
endfacet
facet normal 0.9555735720712035 0.29475269016428085 0.0
  outer loop
    vertex 57.59104807988786 -116.62511781695265 10.0
    vertex 57.59104807988786 -116.62511781695265 5.0
    vertex 56.931475541635535 -114.48681642921447 10.0
  endloop
endfacet
facet normal 0.9555735720712035 0.29475269016428085 0.0
  outer loop
    vertex 56.931475541635535 -114.48681642921447 5.0
    vertex 56.931475541635535 -114.48681642921447 10.0
    vertex 57.59104807988786 -116.62511781695265 5.0
  endloop
endfacet
facet normal 0.9998687458391466 0.016201576900171377 0.0
  outer loop
    vertex 56.931475541635535 -114.48681642921447 10.0
    vertex 56.931475541635535 -114.48681642921447 5.0
    vertex 56.782539374796144 -105.29532727569742 10.0
  endloop
endfacet
facet normal 0.9998687458391466 0.016201576900171377 0.0
  outer loop
    vertex 56.782539374796144 -105.29532727569742 5.0
    vertex 56.782539374796144 -105.29532727569742 10.0
    vertex 56.931475541635535 -114.48681642921447 5.0
  endloop
endfacet
facet normal 0.9928512265995615 -0.11935845943939721 0.0
  outer loop
    vertex 56.782539374796144 -105.29532727569742 10.0
    vertex 56.782539374796144 -105.29532727569742 5.0
    vertex 56.89956006363501 -104.32192216476608 10.0
  endloop
endfacet
facet normal 0.9928512265995615 -0.11935845943939721 0.0
  outer loop
    vertex 56.89956006363501 -104.32192216476608 5.0
    vertex 56.89956006363501 -104.32192216476608 10.0
    vertex 56.782539374796144 -105.29532727569742 5.0
  endloop
endfacet
facet normal 0.870977820815093 -0.4913223337567628 0.0
  outer loop
    vertex 56.89956006363501 -104.32192216476608 10.0
    vertex 56.89956006363501 -104.32192216476608 5.0
    vertex 57.2506244705771 -103.69958263098958 10.0
  endloop
endfacet
facet normal 0.870977820815093 -0.4913223337567628 0.0
  outer loop
    vertex 57.2506244705771 -103.69958263098958 5.0
    vertex 57.2506244705771 -103.69958263098958 10.0
    vertex 56.89956006363501 -104.32192216476608 5.0
  endloop
endfacet
facet normal 0.45295729535912477 -0.8915322139894593 0.0
  outer loop
    vertex 57.2506244705771 -103.69958263098958 5.0
    vertex 57.91019796627622 -103.36447569709031 5.0
    vertex 57.2506244705771 -103.69958263098958 10.0
  endloop
endfacet
facet normal 0.45295729535912477 -0.8915322139894593 0.0
  outer loop
    vertex 57.91019796627622 -103.36447569709031 10.0
    vertex 57.2506244705771 -103.69958263098958 10.0
    vertex 57.91019796627622 -103.36447569709031 5.0
  endloop
endfacet
facet normal 0.10653250028837719 -0.9943092207066709 0.0
  outer loop
    vertex 57.91019796627622 -103.36447569709031 5.0
    vertex 58.95275209159878 -103.2527741304714 5.0
    vertex 57.91019796627622 -103.36447569709031 10.0
  endloop
endfacet
facet normal 0.10653250028837719 -0.9943092207066709 0.0
  outer loop
    vertex 58.95275209159878 -103.2527741304714 10.0
    vertex 57.91019796627622 -103.36447569709031 10.0
    vertex 58.95275209159878 -103.2527741304714 5.0
  endloop
endfacet
facet normal -0.07478994824163654 -0.9971993098884563 0.0
  outer loop
    vertex 58.95275209159878 -103.2527741304714 5.0
    vertex 59.80381590210962 -103.31660391625972 5.0
    vertex 58.95275209159878 -103.2527741304714 10.0
  endloop
endfacet
facet normal -0.07478994824163654 -0.9971993098884563 0.0
  outer loop
    vertex 59.80381590210962 -103.31660391625972 10.0
    vertex 58.95275209159878 -103.2527741304714 10.0
    vertex 59.80381590210962 -103.31660391625972 5.0
  endloop
endfacet
facet normal -0.05704979053851223 -0.9983713344239767 0.0
  outer loop
    vertex 59.80381590210962 -103.31660391625972 5.0
    vertex 60.5484967363066 -103.35915710678525 5.0
    vertex 59.80381590210962 -103.31660391625972 10.0
  endloop
endfacet
facet normal -0.05704979053851223 -0.9983713344239767 0.0
  outer loop
    vertex 60.5484967363066 -103.35915710678525 10.0
    vertex 59.80381590210962 -103.31660391625972 10.0
    vertex 60.5484967363066 -103.35915710678525 5.0
  endloop
endfacet
facet normal 0.3188115506236359 -0.9478181234756765 0.0
  outer loop
    vertex 60.5484967363066 -103.35915710678525 5.0
    vertex 61.718709475759 -102.965540094424 5.0
    vertex 60.5484967363066 -103.35915710678525 10.0
  endloop
endfacet
facet normal 0.3188115506236359 -0.9478181234756765 0.0
  outer loop
    vertex 61.718709475759 -102.965540094424 10.0
    vertex 60.5484967363066 -103.35915710678525 10.0
    vertex 61.718709475759 -102.965540094424 5.0
  endloop
endfacet
facet normal 0.9176706353425599 -0.3973419245813138 0.0
  outer loop
    vertex 61.718709475759 -102.965540094424 10.0
    vertex 61.718709475759 -102.965540094424 5.0
    vertex 62.165517976277194 -101.9336252241796 10.0
  endloop
endfacet
facet normal 0.9176706353425599 -0.3973419245813138 0.0
  outer loop
    vertex 62.165517976277194 -101.9336252241796 5.0
    vertex 62.165517976277194 -101.9336252241796 10.0
    vertex 61.718709475759 -102.965540094424 5.0
  endloop
endfacet
facet normal 0.9699186345878003 0.24342933734317496 0.0
  outer loop
    vertex 62.165517976277194 -101.9336252241796 10.0
    vertex 62.165517976277194 -101.9336252241796 5.0
    vertex 61.99530606523884 -101.2554337368809 10.0
  endloop
endfacet
facet normal 0.9699186345878003 0.24342933734317496 0.0
  outer loop
    vertex 61.99530606523884 -101.2554337368809 5.0
    vertex 61.99530606523884 -101.2554337368809 10.0
    vertex 62.165517976277194 -101.9336252241796 5.0
  endloop
endfacet
facet normal 0.796586211951601 0.6045249431815027 0.0
  outer loop
    vertex 61.99530606523884 -101.2554337368809 10.0
    vertex 61.99530606523884 -101.2554337368809 5.0
    vertex 61.484666927868524 -100.58256142499366 10.0
  endloop
endfacet
facet normal 0.796586211951601 0.6045249431815027 0.0
  outer loop
    vertex 61.484666927868524 -100.58256142499366 5.0
    vertex 61.484666927868524 -100.58256142499366 10.0
    vertex 61.99530606523884 -101.2554337368809 5.0
  endloop
endfacet
facet normal 0.5291416730175857 0.84853349366784 0.0
  outer loop
    vertex 61.484666927868524 -100.58256142499366 5.0
    vertex 59.591049949481906 -99.40171038790986 5.0
    vertex 61.484666927868524 -100.58256142499366 10.0
  endloop
endfacet
facet normal 0.5291416730175857 0.84853349366784 0.0
  outer loop
    vertex 59.591049949481906 -99.40171038790986 10.0
    vertex 61.484666927868524 -100.58256142499366 10.0
    vertex 59.591049949481906 -99.40171038790986 5.0
  endloop
endfacet
facet normal 0.3430548234540997 0.9393153826616897 0.0
  outer loop
    vertex 59.591049949481906 -99.40171038790986 5.0
    vertex 56.53253409455445 -98.28468554618892 5.0
    vertex 59.591049949481906 -99.40171038790986 10.0
  endloop
endfacet
facet normal 0.3430548234540997 0.9393153826616897 0.0
  outer loop
    vertex 56.53253409455445 -98.28468554618892 10.0
    vertex 59.591049949481906 -99.40171038790986 10.0
    vertex 56.53253409455445 -98.28468554618892 5.0
  endloop
endfacet
facet normal 0.24522772461679582 0.9694655038108727 0.0
  outer loop
    vertex 56.53253409455445 -98.28468554618892 5.0
    vertex 53.378285090199576 -97.48681362277118 5.0
    vertex 56.53253409455445 -98.28468554618892 10.0
  endloop
endfacet
facet normal 0.24522772461679582 0.9694655038108727 0.0
  outer loop
    vertex 53.378285090199576 -97.48681362277118 10.0
    vertex 56.53253409455445 -98.28468554618892 10.0
    vertex 53.378285090199576 -97.48681362277118 5.0
  endloop
endfacet
facet normal 0.14572672069999096 0.9893248823687933 0.0
  outer loop
    vertex 53.378285090199576 -97.48681362277118 5.0
    vertex 50.128290928438844 -97.00809222403964 5.0
    vertex 53.378285090199576 -97.48681362277118 10.0
  endloop
endfacet
facet normal 0.14572672069999096 0.9893248823687933 0.0
  outer loop
    vertex 50.128290928438844 -97.00809222403964 10.0
    vertex 53.378285090199576 -97.48681362277118 10.0
    vertex 50.128290928438844 -97.00809222403964 5.0
  endloop
endfacet
facet normal 0.04764014619881422 0.9988645636271996 0.0
  outer loop
    vertex 50.128290928438844 -97.00809222403964 5.0
    vertex 46.78253960129379 -96.84851895637735 5.0
    vertex 50.128290928438844 -97.00809222403964 10.0
  endloop
endfacet
facet normal 0.04764014619881422 0.9988645636271996 0.0
  outer loop
    vertex 46.78253960129379 -96.84851895637735 10.0
    vertex 50.128290928438844 -97.00809222403964 10.0
    vertex 46.78253960129379 -96.84851895637735 5.0
  endloop
endfacet
facet normal -0.15996840912060636 0.9871221343295987 0.0
  outer loop
    vertex 46.78253960129379 -96.84851895637735 5.0
    vertex 44.09105030055327 -97.28468915926415 5.0
    vertex 46.78253960129379 -96.84851895637735 10.0
  endloop
endfacet
facet normal -0.15996840912060636 0.9871221343295987 0.0
  outer loop
    vertex 44.09105030055327 -97.28468915926415 10.0
    vertex 46.78253960129379 -96.84851895637735 10.0
    vertex 44.09105030055327 -97.28468915926415 5.0
  endloop
endfacet
facet normal -0.6684433764844121 0.7437630351355993 0.0
  outer loop
    vertex 44.09105030055327 -97.28468915926415 5.0
    vertex 43.460730115361784 -97.85117785653969 5.0
    vertex 44.09105030055327 -97.28468915926415 10.0
  endloop
endfacet
facet normal -0.6684433764844121 0.7437630351355993 0.0
  outer loop
    vertex 43.460730115361784 -97.85117785653969 10.0
    vertex 44.09105030055327 -97.28468915926415 10.0
    vertex 43.460730115361784 -97.85117785653969 5.0
  endloop
endfacet
facet normal -0.9692193061634201 0.24619897757728113 0.0
  outer loop
    vertex 43.250624787673814 -98.67830614897564 5.0
    vertex 43.250624787673814 -98.67830614897564 10.0
    vertex 43.460730115361784 -97.85117785653969 5.0
  endloop
endfacet
facet normal -0.9692193061634201 0.24619897757728113 0.0
  outer loop
    vertex 43.460730115361784 -97.85117785653969 10.0
    vertex 43.460730115361784 -97.85117785653969 5.0
    vertex 43.250624787673814 -98.67830614897564 10.0
  endloop
endfacet
facet normal -0.9521507910624369 -0.30562864898300307 0.0
  outer loop
    vertex 43.527220526089835 -99.54000825711788 5.0
    vertex 43.527220526089835 -99.54000825711788 10.0
    vertex 43.250624787673814 -98.67830614897564 5.0
  endloop
endfacet
facet normal -0.9521507910624369 -0.30562864898300307 0.0
  outer loop
    vertex 43.250624787673814 -98.67830614897564 10.0
    vertex 43.250624787673814 -98.67830614897564 5.0
    vertex 43.527220526089835 -99.54000825711788 10.0
  endloop
endfacet
facet normal -0.5181194370983259 -0.8553082771146986 0.0
  outer loop
    vertex 43.527220526089835 -99.54000825711788 5.0
    vertex 44.63360347975392 -100.21022100789516 5.0
    vertex 43.527220526089835 -99.54000825711788 10.0
  endloop
endfacet
facet normal -0.5181194370983259 -0.8553082771146986 0.0
  outer loop
    vertex 44.63360347975392 -100.21022100789516 10.0
    vertex 43.527220526089835 -99.54000825711788 10.0
    vertex 44.63360347975392 -100.21022100789516 5.0
  endloop
endfacet
facet normal -0.5240967189954786 -0.8516587515772821 0.0
  outer loop
    vertex 44.63360347975392 -100.21022100789516 5.0
    vertex 45.67083890838845 -100.84851854662935 5.0
    vertex 44.63360347975392 -100.21022100789516 10.0
  endloop
endfacet
facet normal -0.5240967189954786 -0.8516587515772821 0.0
  outer loop
    vertex 45.67083890838845 -100.84851854662935 10.0
    vertex 44.63360347975392 -100.21022100789516 10.0
    vertex 45.67083890838845 -100.84851854662935 5.0
  endloop
endfacet
facet normal -0.8506434018822544 -0.5257430958502314 0.0
  outer loop
    vertex 46.14424174341066 -101.61447629523805 5.0
    vertex 46.14424174341066 -101.61447629523805 10.0
    vertex 45.67083890838845 -100.84851854662935 5.0
  endloop
endfacet
facet normal -0.8506434018822544 -0.5257430958502314 0.0
  outer loop
    vertex 45.67083890838845 -100.84851854662935 10.0
    vertex 45.67083890838845 -100.84851854662935 5.0
    vertex 46.14424174341066 -101.61447629523805 10.0
  endloop
endfacet
facet normal -0.9989412613303666 -0.04600387387705663 0.0
  outer loop
    vertex 46.44211407708946 -108.0825612551204 5.0
    vertex 46.44211407708946 -108.0825612551204 10.0
    vertex 46.14424174341066 -101.61447629523805 5.0
  endloop
endfacet
facet normal -0.9989412613303666 -0.04600387387705663 0.0
  outer loop
    vertex 46.14424174341066 -101.61447629523805 10.0
    vertex 46.14424174341066 -101.61447629523805 5.0
    vertex 46.44211407708946 -108.0825612551204 10.0
  endloop
endfacet
facet normal -0.9995086725066521 0.03134347753505187 0.0
  outer loop
    vertex 46.25062471972452 -114.18894409553566 5.0
    vertex 46.25062471972452 -114.18894409553566 10.0
    vertex 46.44211407708946 -108.0825612551204 5.0
  endloop
endfacet
facet normal -0.9995086725066521 0.03134347753505187 0.0
  outer loop
    vertex 46.44211407708946 -108.0825612551204 10.0
    vertex 46.44211407708946 -108.0825612551204 5.0
    vertex 46.25062471972452 -114.18894409553566 10.0
  endloop
endfacet
facet normal -0.9887990866865883 0.1492526923300516 0.0
  outer loop
    vertex 46.080411957622346 -115.31660364446253 5.0
    vertex 46.080411957622346 -115.31660364446253 10.0
    vertex 46.25062471972452 -114.18894409553566 5.0
  endloop
endfacet
facet normal -0.9887990866865883 0.1492526923300516 0.0
  outer loop
    vertex 46.25062471972452 -114.18894409553566 10.0
    vertex 46.25062471972452 -114.18894409553566 5.0
    vertex 46.080411957622346 -115.31660364446253 10.0
  endloop
endfacet
facet normal -0.9330769428644061 0.35967682535133405 0.0
  outer loop
    vertex 45.713391247850176 -116.2687321601311 5.0
    vertex 45.713391247850176 -116.2687321601311 10.0
    vertex 46.080411957622346 -115.31660364446253 5.0
  endloop
endfacet
facet normal -0.9330769428644061 0.35967682535133405 0.0
  outer loop
    vertex 46.080411957622346 -115.31660364446253 10.0
    vertex 46.080411957622346 -115.31660364446253 5.0
    vertex 45.713391247850176 -116.2687321601311 10.0
  endloop
endfacet
facet normal -0.7133909566477566 0.7007662541626835 0.0
  outer loop
    vertex 45.122965170797656 -116.86979509864481 5.0
    vertex 45.122965170797656 -116.86979509864481 10.0
    vertex 45.713391247850176 -116.2687321601311 5.0
  endloop
endfacet
facet normal -0.7133909566477566 0.7007662541626835 0.0
  outer loop
    vertex 45.713391247850176 -116.2687321601311 10.0
    vertex 45.713391247850176 -116.2687321601311 5.0
    vertex 45.122965170797656 -116.86979509864481 10.0
  endloop
endfacet
facet normal -0.20260560403595207 0.9792604195071029 0.0
  outer loop
    vertex 45.122965170797656 -116.86979509864481 5.0
    vertex 42.65488012031623 -117.38043338495133 5.0
    vertex 45.122965170797656 -116.86979509864481 10.0
  endloop
endfacet
facet normal -0.20260560403595207 0.9792604195071029 0.0
  outer loop
    vertex 42.65488012031623 -117.38043338495133 10.0
    vertex 45.122965170797656 -116.86979509864481 10.0
    vertex 42.65488012031623 -117.38043338495133 5.0
  endloop
endfacet
facet normal -0.2885920795699454 0.957452145858734 0.0
  outer loop
    vertex 42.65488012031623 -117.38043338495133 5.0
    vertex 41.15487765429093 -117.83255919917885 5.0
    vertex 42.65488012031623 -117.38043338495133 10.0
  endloop
endfacet
facet normal -0.2885920795699454 0.957452145858734 0.0
  outer loop
    vertex 41.15487765429093 -117.83255919917885 10.0
    vertex 42.65488012031623 -117.38043338495133 10.0
    vertex 41.15487765429093 -117.83255919917885 5.0
  endloop
endfacet
facet normal -0.8007650255073501 0.5989786089037012 0.0
  outer loop
    vertex 40.77987922528455 -118.33388866588237 5.0
    vertex 40.77987922528455 -118.33388866588237 10.0
    vertex 41.15487765429093 -117.83255919917885 5.0
  endloop
endfacet
facet normal -0.8007650255073501 0.5989786089037012 0.0
  outer loop
    vertex 41.15487765429093 -117.83255919917885 10.0
    vertex 41.15487765429093 -117.83255919917885 5.0
    vertex 40.77987922528455 -118.33388866588237 10.0
  endloop
endfacet
facet normal -0.9837477654173052 0.1795559356759302 0.0
  outer loop
    vertex 40.65488016561576 -119.01873122018468 5.0
    vertex 40.65488016561576 -119.01873122018468 10.0
    vertex 40.77987922528455 -118.33388866588237 5.0
  endloop
endfacet
facet normal -0.9837477654173052 0.1795559356759302 0.0
  outer loop
    vertex 40.77987922528455 -118.33388866588237 10.0
    vertex 40.77987922528455 -118.33388866588237 5.0
    vertex 40.65488016561576 -119.01873122018468 10.0
  endloop
endfacet
facet normal -0.972562225834523 -0.23264289561428325 0.0
  outer loop
    vertex 40.83174053727481 -119.75809494014038 5.0
    vertex 40.83174053727481 -119.75809494014038 10.0
    vertex 40.65488016561576 -119.01873122018468 5.0
  endloop
endfacet
facet normal -0.972562225834523 -0.23264289561428325 0.0
  outer loop
    vertex 40.65488016561576 -119.01873122018468 10.0
    vertex 40.65488016561576 -119.01873122018468 5.0
    vertex 40.83174053727481 -119.75809494014038 10.0
  endloop
endfacet
facet normal -0.7496936402120965 -0.6617850450301334 0.0
  outer loop
    vertex 41.362323420868925 -120.35915810471793 5.0
    vertex 41.362323420868925 -120.35915810471793 10.0
    vertex 40.83174053727481 -119.75809494014038 5.0
  endloop
endfacet
facet normal -0.7496936402120965 -0.6617850450301334 0.0
  outer loop
    vertex 40.83174053727481 -119.75809494014038 10.0
    vertex 40.83174053727481 -119.75809494014038 5.0
    vertex 41.362323420868925 -120.35915810471793 10.0
  endloop
endfacet
facet normal -0.3477724606096105 -0.9375789650165671 0.0
  outer loop
    vertex 41.362323420868925 -120.35915810471793 5.0
    vertex 43.484667335564296 -121.14639074646178 5.0
    vertex 41.362323420868925 -120.35915810471793 10.0
  endloop
endfacet
facet normal -0.3477724606096105 -0.9375789650165671 0.0
  outer loop
    vertex 43.484667335564296 -121.14639074646178 10.0
    vertex 41.362323420868925 -120.35915810471793 10.0
    vertex 43.484667335564296 -121.14639074646178 5.0
  endloop
endfacet
facet normal -0.13086505200764403 -0.9914001907217068 0.0
  outer loop
    vertex 43.484667335564296 -121.14639074646178 5.0
    vertex 47.47402868137641 -121.6729873568749 5.0
    vertex 43.484667335564296 -121.14639074646178 10.0
  endloop
endfacet
facet normal -0.13086505200764403 -0.9914001907217068 0.0
  outer loop
    vertex 47.47402868137641 -121.6729873568749 10.0
    vertex 43.484667335564296 -121.14639074646178 10.0
    vertex 47.47402868137641 -121.6729873568749 5.0
  endloop
endfacet
facet normal -0.04281762192022741 -0.9990829050950158 0.0
  outer loop
    vertex 47.47402868137641 -121.6729873568749 5.0
    vertex 51.569773535417255 -121.84851839013322 5.0
    vertex 47.47402868137641 -121.6729873568749 10.0
  endloop
endfacet
facet normal -0.04281762192022741 -0.9990829050950158 0.0
  outer loop
    vertex 51.569773535417255 -121.84851839013322 10.0
    vertex 47.47402868137641 -121.6729873568749 10.0
    vertex 51.569773535417255 -121.84851839013322 5.0
  endloop
endfacet
facet normal 0.06186474435209873 -0.9980845422138596 0.0
  outer loop
    vertex 51.569773535417255 -121.84851839013322 5.0
    vertex 56.71870958900784 -121.52936946119165 5.0
    vertex 51.569773535417255 -121.84851839013322 10.0
  endloop
endfacet
facet normal 0.06186474435209873 -0.9980845422138596 0.0
  outer loop
    vertex 56.71870958900784 -121.52936946119165 10.0
    vertex 51.569773535417255 -121.84851839013322 10.0
    vertex 56.71870958900784 -121.52936946119165 5.0
  endloop
endfacet
facet normal 0.2155330227431802 -0.9764965520201225 0.0
  outer loop
    vertex 56.71870958900784 -121.52936946119165 5.0
    vertex 61.44211373734298 -120.48681629331587 5.0
    vertex 56.71870958900784 -121.52936946119165 10.0
  endloop
endfacet
facet normal 0.2155330227431802 -0.9764965520201225 0.0
  outer loop
    vertex 61.44211373734298 -120.48681629331587 10.0
    vertex 56.71870958900784 -121.52936946119165 10.0
    vertex 61.44211373734298 -120.48681629331587 5.0
  endloop
endfacet
facet normal 0.5183007052489573 -0.8551984441861629 0.0
  outer loop
    vertex 61.44211373734298 -120.48681629331587 5.0
    vertex 62.6708391616403 -119.74213620379973 5.0
    vertex 61.44211373734298 -120.48681629331587 10.0
  endloop
endfacet
facet normal 0.5183007052489573 -0.8551984441861629 0.0
  outer loop
    vertex 62.6708391616403 -119.74213620379973 10.0
    vertex 61.44211373734298 -120.48681629331587 10.0
    vertex 62.6708391616403 -119.74213620379973 5.0
  endloop
endfacet
facet normal 0.9307522045415788 -0.3656505623419597 0.0
  outer loop
    vertex 62.6708391616403 -119.74213620379973 10.0
    vertex 62.6708391616403 -119.74213620379973 5.0
    vertex 63.080411572576345 -118.69958229124313 10.0
  endloop
endfacet
facet normal 0.9307522045415788 -0.3656505623419597 0.0
  outer loop
    vertex 63.080411572576345 -118.69958229124313 5.0
    vertex 63.080411572576345 -118.69958229124313 10.0
    vertex 62.6708391616403 -119.74213620379973 5.0
  endloop
endfacet
facet normal 0.9012524245251861 0.433294434867878 0.0
  outer loop
    vertex 63.080411572576345 -118.69958229124313 10.0
    vertex 63.080411572576345 -118.69958229124313 5.0
    vertex 62.548496691007074 -117.59319933757902 10.0
  endloop
endfacet
facet normal 0.9012524245251861 0.433294434867878 0.0
  outer loop
    vertex 62.548496691007074 -117.59319933757902 5.0
    vertex 62.548496691007074 -117.59319933757902 10.0
    vertex 63.080411572576345 -118.69958229124313 5.0
  endloop
endfacet
facet normal 0.3478068229585229 0.9375662184099314 0.0
  outer loop
    vertex 62.548496691007074 -117.59319933757902 5.0
    vertex 61.22934778471527 -117.10383764653528 5.0
    vertex 62.548496691007074 -117.59319933757902 10.0
  endloop
endfacet
facet normal 0.3478068229585229 0.9375662184099314 0.0
  outer loop
    vertex 61.22934778471527 -117.10383764653528 10.0
    vertex 62.548496691007074 -117.59319933757902 10.0
    vertex 61.22934778471527 -117.10383764653528 5.0
  endloop
endfacet
facet normal 0.0 0.0 1.0
  outer loop
    vertex 62.165517976277194 -101.9336252241796 10.0
    vertex 61.99530606523884 -101.2554337368809 10.0
    vertex 61.718709475759 -102.965540094424 10.0
  endloop
endfacet
facet normal 0.0 0.0 1.0
  outer loop
    vertex 61.484666927868524 -100.58256142499366 10.0
    vertex 61.718709475759 -102.965540094424 10.0
    vertex 61.99530606523884 -101.2554337368809 10.0
  endloop
endfacet
facet normal 0.0 0.0 1.0
  outer loop
    vertex 60.5484967363066 -103.35915710678525 10.0
    vertex 61.718709475759 -102.965540094424 10.0
    vertex 61.484666927868524 -100.58256142499366 10.0
  endloop
endfacet
facet normal 0.0 0.0 1.0
  outer loop
    vertex 59.591049949481906 -99.40171038790986 10.0
    vertex 60.5484967363066 -103.35915710678525 10.0
    vertex 61.484666927868524 -100.58256142499366 10.0
  endloop
endfacet
facet normal 0.0 0.0 1.0
  outer loop
    vertex 59.80381590210962 -103.31660391625972 10.0
    vertex 60.5484967363066 -103.35915710678525 10.0
    vertex 59.591049949481906 -99.40171038790986 10.0
  endloop
endfacet
facet normal 0.0 0.0 1.0
  outer loop
    vertex 58.95275209159878 -103.2527741304714 10.0
    vertex 59.80381590210962 -103.31660391625972 10.0
    vertex 59.591049949481906 -99.40171038790986 10.0
  endloop
endfacet
facet normal 0.0 0.0 1.0
  outer loop
    vertex 56.53253409455445 -98.28468554618892 10.0
    vertex 58.95275209159878 -103.2527741304714 10.0
    vertex 59.591049949481906 -99.40171038790986 10.0
  endloop
endfacet
facet normal 0.0 0.0 1.0
  outer loop
    vertex 57.91019796627622 -103.36447569709031 10.0
    vertex 58.95275209159878 -103.2527741304714 10.0
    vertex 56.53253409455445 -98.28468554618892 10.0
  endloop
endfacet
facet normal 0.0 0.0 1.0
  outer loop
    vertex 57.2506244705771 -103.69958263098958 10.0
    vertex 57.91019796627622 -103.36447569709031 10.0
    vertex 56.53253409455445 -98.28468554618892 10.0
  endloop
endfacet
facet normal 0.0 0.0 1.0
  outer loop
    vertex 56.89956006363501 -104.32192216476608 10.0
    vertex 57.2506244705771 -103.69958263098958 10.0
    vertex 56.53253409455445 -98.28468554618892 10.0
  endloop
endfacet
facet normal 0.0 0.0 1.0
  outer loop
    vertex 56.782539374796144 -105.29532727569742 10.0
    vertex 56.89956006363501 -104.32192216476608 10.0
    vertex 56.53253409455445 -98.28468554618892 10.0
  endloop
endfacet
facet normal 0.0 0.0 1.0
  outer loop
    vertex 56.71870958900784 -121.52936946119165 10.0
    vertex 56.782539374796144 -105.29532727569742 10.0
    vertex 56.53253409455445 -98.28468554618892 10.0
  endloop
endfacet
facet normal 0.0 0.0 1.0
  outer loop
    vertex 51.569773535417255 -121.84851839013322 10.0
    vertex 56.71870958900784 -121.52936946119165 10.0
    vertex 56.53253409455445 -98.28468554618892 10.0
  endloop
endfacet
facet normal 0.0 0.0 1.0
  outer loop
    vertex 53.599122918655006 -109.7292207298893 10.000000000000004
    vertex 51.569773535417255 -121.84851839013322 10.0
    vertex 56.53253409455445 -98.28468554618892 10.0
  endloop
endfacet
facet normal 0.0 0.0 1.0
  outer loop
    vertex 53.67408610081906 -109.15981883066377 10.000000000000004
    vertex 53.599122918655006 -109.7292207298893 10.000000000000004
    vertex 56.53253409455445 -98.28468554618892 10.0
  endloop
endfacet
facet normal 0.0 0.0 1.0
  outer loop
    vertex 53.37934198914482 -110.25981883066376 10.000000000000004
    vertex 51.569773535417255 -121.84851839013322 10.0
    vertex 53.599122918655006 -109.7292207298893 10.000000000000004
  endloop
endfacet
facet normal 0.0 0.0 1.0
  outer loop
    vertex 53.029721019429466 -110.71545374927415 10.000000000000004
    vertex 51.569773535417255 -121.84851839013322 10.0
    vertex 53.37934198914482 -110.25981883066376 10.000000000000004
  endloop
endfacet
facet normal 0.0 0.0 1.0
  outer loop
    vertex 52.57408610081906 -111.06507471898952 10.000000000000004
    vertex 51.569773535417255 -121.84851839013322 10.0
    vertex 53.029721019429466 -110.71545374927415 10.000000000000004
  endloop
endfacet
facet normal 0.0 0.0 1.0
  outer loop
    vertex 52.043488000044604 -111.2848556484997 10.000000000000004
    vertex 51.569773535417255 -121.84851839013322 10.0
    vertex 52.57408610081906 -111.06507471898952 10.000000000000004
  endloop
endfacet
facet normal 0.0 0.0 1.0
  outer loop
    vertex 51.474086100819065 -111.35981883066376 10.000000000000004
    vertex 51.569773535417255 -121.84851839013322 10.0
    vertex 52.043488000044604 -111.2848556484997 10.000000000000004
  endloop
endfacet
facet normal 0.0 0.0 1.0
  outer loop
    vertex 47.47402868137641 -121.6729873568749 10.0
    vertex 51.569773535417255 -121.84851839013322 10.0
    vertex 51.474086100819065 -111.35981883066376 10.000000000000004
  endloop
endfacet
facet normal 0.0 0.0 1.0
  outer loop
    vertex 50.90468420159352 -111.2848556484997 10.000000000000004
    vertex 47.47402868137641 -121.6729873568749 10.0
    vertex 51.474086100819065 -111.35981883066376 10.000000000000004
  endloop
endfacet
facet normal 0.0 0.0 1.0
  outer loop
    vertex 50.37408610081906 -111.06507471898952 10.000000000000004
    vertex 47.47402868137641 -121.6729873568749 10.0
    vertex 50.90468420159352 -111.2848556484997 10.000000000000004
  endloop
endfacet
facet normal 0.0 0.0 1.0
  outer loop
    vertex 49.91845118220866 -110.71545374927418 10.000000000000004
    vertex 47.47402868137641 -121.6729873568749 10.0
    vertex 50.37408610081906 -111.06507471898952 10.000000000000004
  endloop
endfacet
facet normal 0.0 0.0 1.0
  outer loop
    vertex 49.5688302124933 -110.25981883066376 10.000000000000004
    vertex 47.47402868137641 -121.6729873568749 10.0
    vertex 49.91845118220866 -110.71545374927418 10.000000000000004
  endloop
endfacet
facet normal 0.0 0.0 1.0
  outer loop
    vertex 49.34904928298312 -109.7292207298893 10.000000000000004
    vertex 47.47402868137641 -121.6729873568749 10.0
    vertex 49.5688302124933 -110.25981883066376 10.000000000000004
  endloop
endfacet
facet normal 0.0 0.0 1.0
  outer loop
    vertex 49.27408610081907 -109.15981883066377 10.000000000000004
    vertex 47.47402868137641 -121.6729873568749 10.0
    vertex 49.34904928298312 -109.7292207298893 10.000000000000004
  endloop
endfacet
facet normal 0.0 0.0 1.0
  outer loop
    vertex 63.080411572576345 -118.69958229124313 10.0
    vertex 62.548496691007074 -117.59319933757902 10.0
    vertex 62.6708391616403 -119.74213620379973 10.0
  endloop
endfacet
facet normal 0.0 0.0 1.0
  outer loop
    vertex 61.44211373734298 -120.48681629331587 10.0
    vertex 62.6708391616403 -119.74213620379973 10.0
    vertex 62.548496691007074 -117.59319933757902 10.0
  endloop
endfacet
facet normal 0.0 0.0 1.0
  outer loop
    vertex 61.22934778471527 -117.10383764653528 10.0
    vertex 61.44211373734298 -120.48681629331587 10.0
    vertex 62.548496691007074 -117.59319933757902 10.0
  endloop
endfacet
facet normal 0.0 0.0 1.0
  outer loop
    vertex 56.71870958900784 -121.52936946119165 10.0
    vertex 61.44211373734298 -120.48681629331587 10.0
    vertex 61.22934778471527 -117.10383764653528 10.0
  endloop
endfacet
facet normal 0.0 0.0 1.0
  outer loop
    vertex 59.82509249737238 -117.25277381337469 10.0
    vertex 56.71870958900784 -121.52936946119165 10.0
    vertex 61.22934778471527 -117.10383764653528 10.0
  endloop
endfacet
facet normal 0.0 0.0 1.0
  outer loop
    vertex 59.01658187738709 -117.33788019442578 10.0
    vertex 56.71870958900784 -121.52936946119165 10.0
    vertex 59.82509249737238 -117.25277381337469 10.0
  endloop
endfacet
facet normal 0.0 0.0 1.0
  outer loop
    vertex 58.20806884383802 -117.15969004553622 10.0
    vertex 56.71870958900784 -121.52936946119165 10.0
    vertex 59.01658187738709 -117.33788019442578 10.0
  endloop
endfacet
facet normal 0.0 0.0 1.0
  outer loop
    vertex 57.59104807988786 -116.62511781695265 10.0
    vertex 56.71870958900784 -121.52936946119165 10.0
    vertex 58.20806884383802 -117.15969004553622 10.0
  endloop
endfacet
facet normal 0.0 0.0 1.0
  outer loop
    vertex 56.931475541635535 -114.48681642921447 10.0
    vertex 56.71870958900784 -121.52936946119165 10.0
    vertex 57.59104807988786 -116.62511781695265 10.0
  endloop
endfacet
facet normal 0.0 0.0 1.0
  outer loop
    vertex 56.782539374796144 -105.29532727569742 10.0
    vertex 56.71870958900784 -121.52936946119165 10.0
    vertex 56.931475541635535 -114.48681642921447 10.0
  endloop
endfacet
facet normal 0.0 0.0 1.0
  outer loop
    vertex 56.53253409455445 -98.28468554618892 10.0
    vertex 53.378285090199576 -97.48681362277118 10.0
    vertex 53.67408610081906 -109.15981883066377 10.000000000000004
  endloop
endfacet
facet normal 0.0 0.0 1.0
  outer loop
    vertex 53.599122918655006 -108.59041693143821 10.000000000000004
    vertex 53.67408610081906 -109.15981883066377 10.000000000000004
    vertex 53.378285090199576 -97.48681362277118 10.0
  endloop
endfacet
facet normal 0.0 0.0 1.0
  outer loop
    vertex 53.37934198914482 -108.05981883066376 10.000000000000004
    vertex 53.599122918655006 -108.59041693143821 10.000000000000004
    vertex 53.378285090199576 -97.48681362277118 10.0
  endloop
endfacet
facet normal 0.0 0.0 1.0
  outer loop
    vertex 53.029721019429466 -107.60418391205334 10.000000000000004
    vertex 53.37934198914482 -108.05981883066376 10.000000000000004
    vertex 53.378285090199576 -97.48681362277118 10.0
  endloop
endfacet
facet normal 0.0 0.0 1.0
  outer loop
    vertex 50.128290928438844 -97.00809222403964 10.0
    vertex 53.029721019429466 -107.60418391205334 10.000000000000004
    vertex 53.378285090199576 -97.48681362277118 10.0
  endloop
endfacet
facet normal 0.0 0.0 1.0
  outer loop
    vertex 52.57408610081906 -107.254562942338 10.000000000000004
    vertex 53.029721019429466 -107.60418391205334 10.000000000000004
    vertex 50.128290928438844 -97.00809222403964 10.0
  endloop
endfacet
facet normal 0.0 0.0 1.0
  outer loop
    vertex 52.043488000044604 -107.03478201282782 10.000000000000004
    vertex 52.57408610081906 -107.254562942338 10.000000000000004
    vertex 50.128290928438844 -97.00809222403964 10.0
  endloop
endfacet
facet normal 0.0 0.0 1.0
  outer loop
    vertex 51.474086100819065 -106.95981883066376 10.000000000000004
    vertex 52.043488000044604 -107.03478201282782 10.000000000000004
    vertex 50.128290928438844 -97.00809222403964 10.0
  endloop
endfacet
facet normal 0.0 0.0 1.0
  outer loop
    vertex 50.90468420159352 -107.03478201282782 10.000000000000004
    vertex 51.474086100819065 -106.95981883066376 10.000000000000004
    vertex 50.128290928438844 -97.00809222403964 10.0
  endloop
endfacet
facet normal 0.0 0.0 1.0
  outer loop
    vertex 50.37408610081906 -107.254562942338 10.000000000000004
    vertex 50.90468420159352 -107.03478201282782 10.000000000000004
    vertex 50.128290928438844 -97.00809222403964 10.0
  endloop
endfacet
facet normal 0.0 0.0 1.0
  outer loop
    vertex 49.91845118220866 -107.60418391205337 10.000000000000004
    vertex 50.37408610081906 -107.254562942338 10.000000000000004
    vertex 50.128290928438844 -97.00809222403964 10.0
  endloop
endfacet
facet normal 0.0 0.0 1.0
  outer loop
    vertex 46.78253960129379 -96.84851895637735 10.0
    vertex 49.91845118220866 -107.60418391205337 10.000000000000004
    vertex 50.128290928438844 -97.00809222403964 10.0
  endloop
endfacet
facet normal 0.0 0.0 1.0
  outer loop
    vertex 49.568830212493296 -108.05981883066376 10.000000000000004
    vertex 49.91845118220866 -107.60418391205337 10.000000000000004
    vertex 46.78253960129379 -96.84851895637735 10.0
  endloop
endfacet
facet normal 0.0 0.0 1.0
  outer loop
    vertex 49.34904928298312 -108.59041693143821 10.000000000000004
    vertex 49.568830212493296 -108.05981883066376 10.000000000000004
    vertex 46.78253960129379 -96.84851895637735 10.0
  endloop
endfacet
facet normal 0.0 0.0 1.0
  outer loop
    vertex 49.27408610081907 -109.15981883066377 10.000000000000004
    vertex 49.34904928298312 -108.59041693143821 10.000000000000004
    vertex 46.78253960129379 -96.84851895637735 10.0
  endloop
endfacet
facet normal 0.0 0.0 1.0
  outer loop
    vertex 47.47402868137641 -121.6729873568749 10.0
    vertex 49.27408610081907 -109.15981883066377 10.000000000000004
    vertex 46.78253960129379 -96.84851895637735 10.0
  endloop
endfacet
facet normal 0.0 0.0 1.0
  outer loop
    vertex 46.44211407708946 -108.0825612551204 10.0
    vertex 47.47402868137641 -121.6729873568749 10.0
    vertex 46.78253960129379 -96.84851895637735 10.0
  endloop
endfacet
facet normal 0.0 0.0 1.0
  outer loop
    vertex 46.25062471972452 -114.18894409553566 10.0
    vertex 47.47402868137641 -121.6729873568749 10.0
    vertex 46.44211407708946 -108.0825612551204 10.0
  endloop
endfacet
facet normal 0.0 0.0 1.0
  outer loop
    vertex 46.080411957622346 -115.31660364446253 10.0
    vertex 47.47402868137641 -121.6729873568749 10.0
    vertex 46.25062471972452 -114.18894409553566 10.0
  endloop
endfacet
facet normal 0.0 0.0 1.0
  outer loop
    vertex 45.713391247850176 -116.2687321601311 10.0
    vertex 47.47402868137641 -121.6729873568749 10.0
    vertex 46.080411957622346 -115.31660364446253 10.0
  endloop
endfacet
facet normal 0.0 0.0 1.0
  outer loop
    vertex 43.484667335564296 -121.14639074646178 10.0
    vertex 47.47402868137641 -121.6729873568749 10.0
    vertex 45.713391247850176 -116.2687321601311 10.0
  endloop
endfacet
facet normal 0.0 0.0 1.0
  outer loop
    vertex 45.122965170797656 -116.86979509864481 10.0
    vertex 43.484667335564296 -121.14639074646178 10.0
    vertex 45.713391247850176 -116.2687321601311 10.0
  endloop
endfacet
facet normal 0.0 0.0 1.0
  outer loop
    vertex 42.65488012031623 -117.38043338495133 10.0
    vertex 43.484667335564296 -121.14639074646178 10.0
    vertex 45.122965170797656 -116.86979509864481 10.0
  endloop
endfacet
facet normal 0.0 0.0 1.0
  outer loop
    vertex 41.362323420868925 -120.35915810471793 10.0
    vertex 43.484667335564296 -121.14639074646178 10.0
    vertex 42.65488012031623 -117.38043338495133 10.0
  endloop
endfacet
facet normal 0.0 0.0 1.0
  outer loop
    vertex 41.15487765429093 -117.83255919917885 10.0
    vertex 41.362323420868925 -120.35915810471793 10.0
    vertex 42.65488012031623 -117.38043338495133 10.0
  endloop
endfacet
facet normal 0.0 0.0 1.0
  outer loop
    vertex 40.83174053727481 -119.75809494014038 10.0
    vertex 41.362323420868925 -120.35915810471793 10.0
    vertex 41.15487765429093 -117.83255919917885 10.0
  endloop
endfacet
facet normal 0.0 0.0 1.0
  outer loop
    vertex 40.77987922528455 -118.33388866588237 10.0
    vertex 40.83174053727481 -119.75809494014038 10.0
    vertex 41.15487765429093 -117.83255919917885 10.0
  endloop
endfacet
facet normal 0.0 0.0 1.0
  outer loop
    vertex 40.65488016561576 -119.01873122018468 10.0
    vertex 40.83174053727481 -119.75809494014038 10.0
    vertex 40.77987922528455 -118.33388866588237 10.0
  endloop
endfacet
facet normal 0.0 0.0 1.0
  outer loop
    vertex 44.09105030055327 -97.28468915926415 10.0
    vertex 46.14424174341066 -101.61447629523805 10.0
    vertex 46.78253960129379 -96.84851895637735 10.0
  endloop
endfacet
facet normal 0.0 0.0 1.0
  outer loop
    vertex 46.44211407708946 -108.0825612551204 10.0
    vertex 46.78253960129379 -96.84851895637735 10.0
    vertex 46.14424174341066 -101.61447629523805 10.0
  endloop
endfacet
facet normal 0.0 0.0 1.0
  outer loop
    vertex 45.67083890838845 -100.84851854662935 10.0
    vertex 46.14424174341066 -101.61447629523805 10.0
    vertex 44.09105030055327 -97.28468915926415 10.0
  endloop
endfacet
facet normal 0.0 0.0 1.0
  outer loop
    vertex 44.63360347975392 -100.21022100789516 10.0
    vertex 45.67083890838845 -100.84851854662935 10.0
    vertex 44.09105030055327 -97.28468915926415 10.0
  endloop
endfacet
facet normal 0.0 0.0 1.0
  outer loop
    vertex 43.527220526089835 -99.54000825711788 10.0
    vertex 44.63360347975392 -100.21022100789516 10.0
    vertex 44.09105030055327 -97.28468915926415 10.0
  endloop
endfacet
facet normal 0.0 0.0 1.0
  outer loop
    vertex 43.460730115361784 -97.85117785653969 10.0
    vertex 43.527220526089835 -99.54000825711788 10.0
    vertex 44.09105030055327 -97.28468915926415 10.0
  endloop
endfacet
facet normal 0.0 0.0 1.0
  outer loop
    vertex 43.250624787673814 -98.67830614897564 10.0
    vertex 43.527220526089835 -99.54000825711788 10.0
    vertex 43.460730115361784 -97.85117785653969 10.0
  endloop
endfacet
facet normal 0.0 0.0 1.0
  outer loop
    vertex 53.67408610081906 -109.15981883066377 7.900000000000004
    vertex 53.599122918655006 -108.59041693143821 7.900000000000004
    vertex 53.599122918655006 -109.7292207298893 7.900000000000004
  endloop
endfacet
facet normal 0.0 0.0 1.0
  outer loop
    vertex 53.37934198914482 -110.25981883066376 7.900000000000004
    vertex 53.599122918655006 -109.7292207298893 7.900000000000004
    vertex 53.599122918655006 -108.59041693143821 7.900000000000004
  endloop
endfacet
facet normal 0.0 0.0 1.0
  outer loop
    vertex 53.37934198914482 -108.05981883066376 7.900000000000004
    vertex 53.37934198914482 -110.25981883066376 7.900000000000004
    vertex 53.599122918655006 -108.59041693143821 7.900000000000004
  endloop
endfacet
facet normal 0.0 0.0 1.0
  outer loop
    vertex 53.029721019429466 -110.71545374927415 7.900000000000004
    vertex 53.37934198914482 -110.25981883066376 7.900000000000004
    vertex 53.37934198914482 -108.05981883066376 7.900000000000004
  endloop
endfacet
facet normal 0.0 0.0 1.0
  outer loop
    vertex 53.029721019429466 -107.60418391205334 7.900000000000004
    vertex 53.029721019429466 -110.71545374927415 7.900000000000004
    vertex 53.37934198914482 -108.05981883066376 7.900000000000004
  endloop
endfacet
facet normal 0.0 0.0 1.0
  outer loop
    vertex 52.57408610081906 -111.06507471898952 7.900000000000004
    vertex 53.029721019429466 -110.71545374927415 7.900000000000004
    vertex 53.029721019429466 -107.60418391205334 7.900000000000004
  endloop
endfacet
facet normal 0.0 0.0 1.0
  outer loop
    vertex 52.57408610081906 -107.254562942338 7.900000000000004
    vertex 52.57408610081906 -111.06507471898952 7.900000000000004
    vertex 53.029721019429466 -107.60418391205334 7.900000000000004
  endloop
endfacet
facet normal 0.0 0.0 1.0
  outer loop
    vertex 52.043488000044604 -111.2848556484997 7.900000000000004
    vertex 52.57408610081906 -111.06507471898952 7.900000000000004
    vertex 52.57408610081906 -107.254562942338 7.900000000000004
  endloop
endfacet
facet normal 0.0 0.0 1.0
  outer loop
    vertex 52.043488000044604 -107.03478201282782 7.900000000000004
    vertex 52.043488000044604 -111.2848556484997 7.900000000000004
    vertex 52.57408610081906 -107.254562942338 7.900000000000004
  endloop
endfacet
facet normal 0.0 0.0 1.0
  outer loop
    vertex 51.474086100819065 -111.35981883066376 7.900000000000004
    vertex 52.043488000044604 -111.2848556484997 7.900000000000004
    vertex 52.043488000044604 -107.03478201282782 7.900000000000004
  endloop
endfacet
facet normal 0.0 0.0 1.0
  outer loop
    vertex 51.474086100819065 -106.95981883066376 7.900000000000004
    vertex 51.474086100819065 -111.35981883066376 7.900000000000004
    vertex 52.043488000044604 -107.03478201282782 7.900000000000004
  endloop
endfacet
facet normal 0.0 0.0 1.0
  outer loop
    vertex 50.90468420159352 -111.2848556484997 7.900000000000004
    vertex 51.474086100819065 -111.35981883066376 7.900000000000004
    vertex 51.474086100819065 -106.95981883066376 7.900000000000004
  endloop
endfacet
facet normal 0.0 0.0 1.0
  outer loop
    vertex 50.90468420159352 -107.03478201282782 7.900000000000004
    vertex 50.90468420159352 -111.2848556484997 7.900000000000004
    vertex 51.474086100819065 -106.95981883066376 7.900000000000004
  endloop
endfacet
facet normal 0.0 0.0 1.0
  outer loop
    vertex 50.37408610081906 -111.06507471898952 7.900000000000004
    vertex 50.90468420159352 -111.2848556484997 7.900000000000004
    vertex 50.90468420159352 -107.03478201282782 7.900000000000004
  endloop
endfacet
facet normal 0.0 0.0 1.0
  outer loop
    vertex 50.37408610081906 -107.254562942338 7.900000000000004
    vertex 50.37408610081906 -111.06507471898952 7.900000000000004
    vertex 50.90468420159352 -107.03478201282782 7.900000000000004
  endloop
endfacet
facet normal 0.0 0.0 1.0
  outer loop
    vertex 49.91845118220866 -110.71545374927418 7.900000000000004
    vertex 50.37408610081906 -111.06507471898952 7.900000000000004
    vertex 50.37408610081906 -107.254562942338 7.900000000000004
  endloop
endfacet
facet normal 0.0 0.0 1.0
  outer loop
    vertex 49.91845118220866 -107.60418391205337 7.900000000000004
    vertex 49.91845118220866 -110.71545374927418 7.900000000000004
    vertex 50.37408610081906 -107.254562942338 7.900000000000004
  endloop
endfacet
facet normal 0.0 0.0 1.0
  outer loop
    vertex 49.5688302124933 -110.25981883066376 7.900000000000004
    vertex 49.91845118220866 -110.71545374927418 7.900000000000004
    vertex 49.91845118220866 -107.60418391205337 7.900000000000004
  endloop
endfacet
facet normal 0.0 0.0 1.0
  outer loop
    vertex 49.568830212493296 -108.05981883066376 7.900000000000004
    vertex 49.5688302124933 -110.25981883066376 7.900000000000004
    vertex 49.91845118220866 -107.60418391205337 7.900000000000004
  endloop
endfacet
facet normal 0.0 0.0 1.0
  outer loop
    vertex 49.34904928298312 -109.7292207298893 7.900000000000004
    vertex 49.5688302124933 -110.25981883066376 7.900000000000004
    vertex 49.568830212493296 -108.05981883066376 7.900000000000004
  endloop
endfacet
facet normal 0.0 0.0 1.0
  outer loop
    vertex 49.34904928298312 -108.59041693143821 7.900000000000004
    vertex 49.34904928298312 -109.7292207298893 7.900000000000004
    vertex 49.568830212493296 -108.05981883066376 7.900000000000004
  endloop
endfacet
facet normal 0.0 0.0 1.0
  outer loop
    vertex 49.27408610081907 -109.15981883066377 7.900000000000004
    vertex 49.34904928298312 -109.7292207298893 7.900000000000004
    vertex 49.34904928298312 -108.59041693143821 7.900000000000004
  endloop
endfacet
facet normal -0.9914448613738099 0.13052619222005604 0.0
  outer loop
    vertex 53.599122918655006 -109.7292207298893 7.900000000000004
    vertex 53.599122918655006 -109.7292207298893 10.000000000000004
    vertex 53.67408610081906 -109.15981883066377 7.900000000000004
  endloop
endfacet
facet normal -0.9914448613738099 0.13052619222005604 0.0
  outer loop
    vertex 53.67408610081906 -109.15981883066377 10.000000000000004
    vertex 53.67408610081906 -109.15981883066377 7.900000000000004
    vertex 53.599122918655006 -109.7292207298893 10.000000000000004
  endloop
endfacet
facet normal -0.9914448613738099 -0.13052619222005604 0.0
  outer loop
    vertex 53.67408610081906 -109.15981883066377 7.900000000000004
    vertex 53.67408610081906 -109.15981883066377 10.000000000000004
    vertex 53.599122918655006 -108.59041693143821 7.900000000000004
  endloop
endfacet
facet normal -0.9914448613738099 -0.13052619222005604 0.0
  outer loop
    vertex 53.599122918655006 -108.59041693143821 10.000000000000004
    vertex 53.599122918655006 -108.59041693143821 7.900000000000004
    vertex 53.67408610081906 -109.15981883066377 10.000000000000004
  endloop
endfacet
facet normal -0.9238795325112851 -0.382683432365094 0.0
  outer loop
    vertex 53.599122918655006 -108.59041693143821 7.900000000000004
    vertex 53.599122918655006 -108.59041693143821 10.000000000000004
    vertex 53.37934198914482 -108.05981883066376 7.900000000000004
  endloop
endfacet
facet normal -0.9238795325112851 -0.382683432365094 0.0
  outer loop
    vertex 53.37934198914482 -108.05981883066376 10.000000000000004
    vertex 53.37934198914482 -108.05981883066376 7.900000000000004
    vertex 53.599122918655006 -108.59041693143821 10.000000000000004
  endloop
endfacet
facet normal -0.7933533402912453 -0.6087614290087077 0.0
  outer loop
    vertex 53.37934198914482 -108.05981883066376 7.900000000000004
    vertex 53.37934198914482 -108.05981883066376 10.000000000000004
    vertex 53.029721019429466 -107.60418391205334 7.900000000000004
  endloop
endfacet
facet normal -0.7933533402912453 -0.6087614290087077 0.0
  outer loop
    vertex 53.029721019429466 -107.60418391205334 10.000000000000004
    vertex 53.029721019429466 -107.60418391205334 7.900000000000004
    vertex 53.37934198914482 -108.05981883066376 10.000000000000004
  endloop
endfacet
facet normal -0.6087614290087048 -0.7933533402912473 0.0
  outer loop
    vertex 52.57408610081906 -107.254562942338 7.900000000000004
    vertex 53.029721019429466 -107.60418391205334 7.900000000000004
    vertex 52.57408610081906 -107.254562942338 10.000000000000004
  endloop
endfacet
facet normal -0.6087614290087048 -0.7933533402912473 0.0
  outer loop
    vertex 53.029721019429466 -107.60418391205334 10.000000000000004
    vertex 52.57408610081906 -107.254562942338 10.000000000000004
    vertex 53.029721019429466 -107.60418391205334 7.900000000000004
  endloop
endfacet
facet normal -0.3826834323650871 -0.923879532511288 0.0
  outer loop
    vertex 52.043488000044604 -107.03478201282782 7.900000000000004
    vertex 52.57408610081906 -107.254562942338 7.900000000000004
    vertex 52.043488000044604 -107.03478201282782 10.000000000000004
  endloop
endfacet
facet normal -0.3826834323650871 -0.923879532511288 0.0
  outer loop
    vertex 52.57408610081906 -107.254562942338 10.000000000000004
    vertex 52.043488000044604 -107.03478201282782 10.000000000000004
    vertex 52.57408610081906 -107.254562942338 7.900000000000004
  endloop
endfacet
facet normal -0.1305261922200586 -0.9914448613738096 0.0
  outer loop
    vertex 51.474086100819065 -106.95981883066376 7.900000000000004
    vertex 52.043488000044604 -107.03478201282782 7.900000000000004
    vertex 51.474086100819065 -106.95981883066376 10.000000000000004
  endloop
endfacet
facet normal -0.1305261922200586 -0.9914448613738096 0.0
  outer loop
    vertex 52.043488000044604 -107.03478201282782 10.000000000000004
    vertex 51.474086100819065 -106.95981883066376 10.000000000000004
    vertex 52.043488000044604 -107.03478201282782 7.900000000000004
  endloop
endfacet
facet normal 0.1305261922200586 -0.9914448613738096 0.0
  outer loop
    vertex 50.90468420159352 -107.03478201282782 7.900000000000004
    vertex 51.474086100819065 -106.95981883066376 7.900000000000004
    vertex 50.90468420159352 -107.03478201282782 10.000000000000004
  endloop
endfacet
facet normal 0.1305261922200586 -0.9914448613738096 0.0
  outer loop
    vertex 51.474086100819065 -106.95981883066376 10.000000000000004
    vertex 50.90468420159352 -107.03478201282782 10.000000000000004
    vertex 51.474086100819065 -106.95981883066376 7.900000000000004
  endloop
endfacet
facet normal 0.3826834323650871 -0.923879532511288 0.0
  outer loop
    vertex 50.37408610081906 -107.254562942338 7.900000000000004
    vertex 50.90468420159352 -107.03478201282782 7.900000000000004
    vertex 50.37408610081906 -107.254562942338 10.000000000000004
  endloop
endfacet
facet normal 0.3826834323650871 -0.923879532511288 0.0
  outer loop
    vertex 50.90468420159352 -107.03478201282782 10.000000000000004
    vertex 50.37408610081906 -107.254562942338 10.000000000000004
    vertex 50.90468420159352 -107.03478201282782 7.900000000000004
  endloop
endfacet
facet normal 0.6087614290087295 -0.7933533402912283 0.0
  outer loop
    vertex 49.91845118220866 -107.60418391205337 7.900000000000004
    vertex 50.37408610081906 -107.254562942338 7.900000000000004
    vertex 49.91845118220866 -107.60418391205337 10.000000000000004
  endloop
endfacet
facet normal 0.6087614290087295 -0.7933533402912283 0.0
  outer loop
    vertex 50.37408610081906 -107.254562942338 10.000000000000004
    vertex 49.91845118220866 -107.60418391205337 10.000000000000004
    vertex 50.37408610081906 -107.254562942338 7.900000000000004
  endloop
endfacet
facet normal 0.7933533402912258 -0.6087614290087329 0.0
  outer loop
    vertex 49.568830212493296 -108.05981883066376 10.000000000000004
    vertex 49.568830212493296 -108.05981883066376 7.900000000000004
    vertex 49.91845118220866 -107.60418391205337 10.000000000000004
  endloop
endfacet
facet normal 0.7933533402912258 -0.6087614290087329 0.0
  outer loop
    vertex 49.91845118220866 -107.60418391205337 7.900000000000004
    vertex 49.91845118220866 -107.60418391205337 10.000000000000004
    vertex 49.568830212493296 -108.05981883066376 7.900000000000004
  endloop
endfacet
facet normal 0.9238795325112851 -0.382683432365094 0.0
  outer loop
    vertex 49.34904928298312 -108.59041693143821 10.000000000000004
    vertex 49.34904928298312 -108.59041693143821 7.900000000000004
    vertex 49.568830212493296 -108.05981883066376 10.000000000000004
  endloop
endfacet
facet normal 0.9238795325112851 -0.382683432365094 0.0
  outer loop
    vertex 49.568830212493296 -108.05981883066376 7.900000000000004
    vertex 49.568830212493296 -108.05981883066376 10.000000000000004
    vertex 49.34904928298312 -108.59041693143821 7.900000000000004
  endloop
endfacet
facet normal 0.991444861373811 -0.13052619222004638 0.0
  outer loop
    vertex 49.27408610081907 -109.15981883066377 10.000000000000004
    vertex 49.27408610081907 -109.15981883066377 7.900000000000004
    vertex 49.34904928298312 -108.59041693143821 10.000000000000004
  endloop
endfacet
facet normal 0.991444861373811 -0.13052619222004638 0.0
  outer loop
    vertex 49.34904928298312 -108.59041693143821 7.900000000000004
    vertex 49.34904928298312 -108.59041693143821 10.000000000000004
    vertex 49.27408610081907 -109.15981883066377 7.900000000000004
  endloop
endfacet
facet normal 0.991444861373811 0.13052619222004638 0.0
  outer loop
    vertex 49.34904928298312 -109.7292207298893 10.000000000000004
    vertex 49.34904928298312 -109.7292207298893 7.900000000000004
    vertex 49.27408610081907 -109.15981883066377 10.000000000000004
  endloop
endfacet
facet normal 0.991444861373811 0.13052619222004638 0.0
  outer loop
    vertex 49.27408610081907 -109.15981883066377 7.900000000000004
    vertex 49.27408610081907 -109.15981883066377 10.000000000000004
    vertex 49.34904928298312 -109.7292207298893 7.900000000000004
  endloop
endfacet
facet normal 0.9238795325112815 0.3826834323651023 0.0
  outer loop
    vertex 49.5688302124933 -110.25981883066376 10.000000000000004
    vertex 49.5688302124933 -110.25981883066376 7.900000000000004
    vertex 49.34904928298312 -109.7292207298893 10.000000000000004
  endloop
endfacet
facet normal 0.9238795325112815 0.3826834323651023 0.0
  outer loop
    vertex 49.34904928298312 -109.7292207298893 7.900000000000004
    vertex 49.34904928298312 -109.7292207298893 10.000000000000004
    vertex 49.5688302124933 -110.25981883066376 7.900000000000004
  endloop
endfacet
facet normal 0.7933533402912453 0.6087614290087077 0.0
  outer loop
    vertex 49.91845118220866 -110.71545374927418 10.000000000000004
    vertex 49.91845118220866 -110.71545374927418 7.900000000000004
    vertex 49.5688302124933 -110.25981883066376 10.000000000000004
  endloop
endfacet
facet normal 0.7933533402912453 0.6087614290087077 0.0
  outer loop
    vertex 49.5688302124933 -110.25981883066376 7.900000000000004
    vertex 49.5688302124933 -110.25981883066376 10.000000000000004
    vertex 49.91845118220866 -110.71545374927418 7.900000000000004
  endloop
endfacet
facet normal 0.6087614290087048 0.7933533402912473 0.0
  outer loop
    vertex 50.37408610081906 -111.06507471898952 7.900000000000004
    vertex 49.91845118220866 -110.71545374927418 7.900000000000004
    vertex 50.37408610081906 -111.06507471898952 10.000000000000004
  endloop
endfacet
facet normal 0.6087614290087048 0.7933533402912473 0.0
  outer loop
    vertex 49.91845118220866 -110.71545374927418 10.000000000000004
    vertex 50.37408610081906 -111.06507471898952 10.000000000000004
    vertex 49.91845118220866 -110.71545374927418 7.900000000000004
  endloop
endfacet
facet normal 0.3826834323650871 0.923879532511288 0.0
  outer loop
    vertex 50.90468420159352 -111.2848556484997 7.900000000000004
    vertex 50.37408610081906 -111.06507471898952 7.900000000000004
    vertex 50.90468420159352 -111.2848556484997 10.000000000000004
  endloop
endfacet
facet normal 0.3826834323650871 0.923879532511288 0.0
  outer loop
    vertex 50.37408610081906 -111.06507471898952 10.000000000000004
    vertex 50.90468420159352 -111.2848556484997 10.000000000000004
    vertex 50.37408610081906 -111.06507471898952 7.900000000000004
  endloop
endfacet
facet normal 0.1305261922200586 0.9914448613738096 0.0
  outer loop
    vertex 51.474086100819065 -111.35981883066376 7.900000000000004
    vertex 50.90468420159352 -111.2848556484997 7.900000000000004
    vertex 51.474086100819065 -111.35981883066376 10.000000000000004
  endloop
endfacet
facet normal 0.1305261922200586 0.9914448613738096 0.0
  outer loop
    vertex 50.90468420159352 -111.2848556484997 10.000000000000004
    vertex 51.474086100819065 -111.35981883066376 10.000000000000004
    vertex 50.90468420159352 -111.2848556484997 7.900000000000004
  endloop
endfacet
facet normal -0.1305261922200586 0.9914448613738096 0.0
  outer loop
    vertex 52.043488000044604 -111.2848556484997 7.900000000000004
    vertex 51.474086100819065 -111.35981883066376 7.900000000000004
    vertex 52.043488000044604 -111.2848556484997 10.000000000000004
  endloop
endfacet
facet normal -0.1305261922200586 0.9914448613738096 0.0
  outer loop
    vertex 51.474086100819065 -111.35981883066376 10.000000000000004
    vertex 52.043488000044604 -111.2848556484997 10.000000000000004
    vertex 51.474086100819065 -111.35981883066376 7.900000000000004
  endloop
endfacet
facet normal -0.3826834323650871 0.923879532511288 0.0
  outer loop
    vertex 52.57408610081906 -111.06507471898952 7.900000000000004
    vertex 52.043488000044604 -111.2848556484997 7.900000000000004
    vertex 52.57408610081906 -111.06507471898952 10.000000000000004
  endloop
endfacet
facet normal -0.3826834323650871 0.923879532511288 0.0
  outer loop
    vertex 52.043488000044604 -111.2848556484997 10.000000000000004
    vertex 52.57408610081906 -111.06507471898952 10.000000000000004
    vertex 52.043488000044604 -111.2848556484997 7.900000000000004
  endloop
endfacet
facet normal -0.6087614290087295 0.7933533402912283 0.0
  outer loop
    vertex 53.029721019429466 -110.71545374927415 7.900000000000004
    vertex 52.57408610081906 -111.06507471898952 7.900000000000004
    vertex 53.029721019429466 -110.71545374927415 10.000000000000004
  endloop
endfacet
facet normal -0.6087614290087295 0.7933533402912283 0.0
  outer loop
    vertex 52.57408610081906 -111.06507471898952 10.000000000000004
    vertex 53.029721019429466 -110.71545374927415 10.000000000000004
    vertex 52.57408610081906 -111.06507471898952 7.900000000000004
  endloop
endfacet
facet normal -0.7933533402912306 0.6087614290087267 0.0
  outer loop
    vertex 53.029721019429466 -110.71545374927415 7.900000000000004
    vertex 53.029721019429466 -110.71545374927415 10.000000000000004
    vertex 53.37934198914482 -110.25981883066376 7.900000000000004
  endloop
endfacet
facet normal -0.7933533402912306 0.6087614290087267 0.0
  outer loop
    vertex 53.37934198914482 -110.25981883066376 10.000000000000004
    vertex 53.37934198914482 -110.25981883066376 7.900000000000004
    vertex 53.029721019429466 -110.71545374927415 10.000000000000004
  endloop
endfacet
facet normal -0.9238795325112851 0.382683432365094 0.0
  outer loop
    vertex 53.37934198914482 -110.25981883066376 7.900000000000004
    vertex 53.37934198914482 -110.25981883066376 10.000000000000004
    vertex 53.599122918655006 -109.7292207298893 7.900000000000004
  endloop
endfacet
facet normal -0.9238795325112851 0.382683432365094 0.0
  outer loop
    vertex 53.599122918655006 -109.7292207298893 10.000000000000004
    vertex 53.599122918655006 -109.7292207298893 7.900000000000004
    vertex 53.37934198914482 -110.25981883066376 10.000000000000004
  endloop
endfacet
endsolid ABC
