solid ABC
facet normal 0.0 0.0 -1.0
  outer loop
    vertex 105.14272878317338 -99.49498107444842 0.0
    vertex 104.9326234554854 -100.3753003763179 0.0
    vertex 104.95124038325523 -98.60934307589088 0.0
  endloop
endfacet
facet normal 0.0 0.0 -1.0
  outer loop
    vertex 104.37677135371362 -97.61200239369319 0.0
    vertex 104.95124038325523 -98.60934307589088 0.0
    vertex 104.9326234554854 -100.3753003763179 0.0
  endloop
endfacet
facet normal 0.0 0.0 -1.0
  outer loop
    vertex 104.30230327029392 -101.1864703978387 0.0
    vertex 104.37677135371362 -97.61200239369319 0.0
    vertex 104.9326234554854 -100.3753003763179 0.0
  endloop
endfacet
facet normal 0.0 0.0 -1.0
  outer loop
    vertex 102.35549480375037 -95.6226407366241 0.0
    vertex 104.37677135371362 -97.61200239369319 0.0
    vertex 104.30230327029392 -101.1864703978387 0.0
  endloop
endfacet
facet normal 0.0 0.0 -1.0
  outer loop
    vertex 103.42198434076484 -101.76891816390172 0.0
    vertex 102.35549480375037 -95.6226407366241 0.0
    vertex 104.30230327029392 -101.1864703978387 0.0
  endloop
endfacet
facet normal 0.0 0.0 -1.0
  outer loop
    vertex 102.46187778006423 -101.96306612492984 0.0
    vertex 102.35549480375037 -95.6226407366241 0.0
    vertex 103.42198434076484 -101.76891816390172 0.0
  endloop
endfacet
facet normal 0.0 0.0 -1.0
  outer loop
    vertex 101.22783525482352 -101.58008741019997 0.0
    vertex 102.35549480375037 -95.6226407366241 0.0
    vertex 102.46187778006423 -101.96306612492984 0.0
  endloop
endfacet
facet normal 0.0 0.0 -1.0
  outer loop
    vertex 99.99511867702617 -94.17981698273458 0.0
    vertex 102.35549480375037 -95.6226407366241 0.0
    vertex 101.22783525482352 -101.58008741019997 0.0
  endloop
endfacet
facet normal 0.0 0.0 -1.0
  outer loop
    vertex 98.97251615696979 -99.84604489628413 0.0
    vertex 99.99511867702617 -94.17981698273458 0.0
    vertex 101.22783525482352 -101.58008741019997 0.0
  endloop
endfacet
facet normal 0.0 0.0 -1.0
  outer loop
    vertex 97.50975148265425 -93.14923241498666 0.0
    vertex 99.99511867702617 -94.17981698273458 0.0
    vertex 98.97251615696979 -99.84604489628413 0.0
  endloop
endfacet
facet normal 0.0 0.0 -1.0
  outer loop
    vertex 97.48315448857582 -99.5800874554995 0.0
    vertex 97.50975148265425 -93.14923241498666 0.0
    vertex 98.97251615696979 -99.84604489628413 0.0
  endloop
endfacet
facet normal 0.0 0.0 -1.0
  outer loop
    vertex 94.8993836661136 -92.53088394162506 0.0
    vertex 97.50975148265425 -93.14923241498666 0.0
    vertex 97.48315448857582 -99.5800874554995 0.0
  endloop
endfacet
facet normal 0.0 0.0 -1.0
  outer loop
    vertex 96.54698376509901 -99.73700156098799 0.0
    vertex 94.8993836661136 -92.53088394162506 0.0
    vertex 97.48315448857582 -99.5800874554995 0.0
  endloop
endfacet
facet normal 0.0 0.0 -1.0
  outer loop
    vertex 95.82358005807968 -100.20774701575125 0.0
    vertex 94.8993836661136 -92.53088394162506 0.0
    vertex 96.54698376509901 -99.73700156098799 0.0
  endloop
endfacet
facet normal 0.0 0.0 -1.0
  outer loop
    vertex 95.36081333983785 -100.94444858151194 0.0
    vertex 94.8993836661136 -92.53088394162506 0.0
    vertex 95.82358005807968 -100.20774701575125 0.0
  endloop
endfacet
facet normal 0.0 0.0 -1.0
  outer loop
    vertex 95.20655879545933 -101.89923633914154 0.0
    vertex 94.8993836661136 -92.53088394162506 0.0
    vertex 95.36081333983785 -100.94444858151194 0.0
  endloop
endfacet
facet normal 0.0 0.0 -1.0
  outer loop
    vertex 92.16400567288309 -92.32476847089461 0.0
    vertex 89.31294190767179 -109.23966170479753 0.0
    vertex 88.27570605350535 -92.73434088183065 0.0
  endloop
endfacet
facet normal 0.0 0.0 -1.0
  outer loop
    vertex 88.85549739675619 -108.28221587541961 0.0
    vertex 88.27570605350535 -92.73434088183065 0.0
    vertex 89.31294190767179 -109.23966170479753 0.0
  endloop
endfacet
facet normal 0.0 0.0 -1.0
  outer loop
    vertex 87.48315471507347 -106.94178941641826 0.0
    vertex 88.27570605350535 -92.73434088183065 0.0
    vertex 88.85549739675619 -108.28221587541961 0.0
  endloop
endfacet
facet normal 0.0 0.0 -1.0
  outer loop
    vertex 85.1214526409059 -93.96306630612797 0.0
    vertex 88.27570605350535 -92.73434088183065 0.0
    vertex 87.48315471507347 -106.94178941641826 0.0
  endloop
endfacet
facet normal 0.0 0.0 -1.0
  outer loop
    vertex 85.23048795093628 -104.80082762980415 0.0
    vertex 85.1214526409059 -93.96306630612797 0.0
    vertex 87.48315471507347 -106.94178941641826 0.0
  endloop
endfacet
facet normal 0.0 0.0 -1.0
  outer loop
    vertex 83.62144623871048 -102.73966105414866 0.0
    vertex 85.1214526409059 -93.96306630612797 0.0
    vertex 85.23048795093628 -104.80082762980415 0.0
  endloop
endfacet
facet normal 0.0 0.0 -1.0
  outer loop
    vertex 83.98847333146122 -94.85668256248351 0.0
    vertex 85.1214526409059 -93.96306630612797 0.0
    vertex 83.62144623871048 -102.73966105414866 0.0
  endloop
endfacet
facet normal 0.0 0.0 -1.0
  outer loop
    vertex 83.10017609094267 -96.04817264187952 0.0
    vertex 83.98847333146122 -94.85668256248351 0.0
    vertex 83.62144623871048 -102.73966105414866 0.0
  endloop
endfacet
facet normal 0.0 0.0 -1.0
  outer loop
    vertex 82.65602475126853 -100.75828210966472 0.0
    vertex 83.10017609094267 -96.04817264187952 0.0
    vertex 83.62144623871048 -102.73966105414866 0.0
  endloop
endfacet
facet normal 0.0 0.0 -1.0
  outer loop
    vertex 82.52570706140106 -97.42051287675379 0.0
    vertex 83.10017609094267 -96.04817264187952 0.0
    vertex 82.65602475126853 -100.75828210966472 0.0
  endloop
endfacet
facet normal 0.0 0.0 -1.0
  outer loop
    vertex 82.33421866148291 -98.85668321656529 0.0
    vertex 82.52570706140106 -97.42051287675379 0.0
    vertex 82.65602475126853 -100.75828210966472 0.0
  endloop
endfacet
facet normal 0.0 0.0 -1.0
  outer loop
    vertex 105.33421814053831 -115.64391687889156 0.0
    vertex 104.85549714074293 -116.45774800407551 0.0
    vertex 104.92996283054566 -114.61200200864718 0.0
  endloop
endfacet
facet normal 0.0 0.0 -1.0
  outer loop
    vertex 102.31294161322484 -112.04817227948328 0.0
    vertex 104.92996283054566 -114.61200200864718 0.0
    vertex 104.85549714074293 -116.45774800407551 0.0
  endloop
endfacet
facet normal 0.0 0.0 -1.0
  outer loop
    vertex 103.41932456688892 -116.72902323729289 0.0
    vertex 102.31294161322484 -112.04817227948328 0.0
    vertex 104.85549714074293 -116.45774800407551 0.0
  endloop
endfacet
facet normal 0.0 0.0 -1.0
  outer loop
    vertex 88.9299631929419 -116.72902323729289 0.0
    vertex 102.31294161322484 -112.04817227948328 0.0
    vertex 103.41932456688892 -116.72902323729289 0.0
  endloop
endfacet
facet normal 0.0 0.0 -1.0
  outer loop
    vertex 98.7384709495049 -108.30880999715768 0.0
    vertex 102.31294161322484 -112.04817227948328 0.0
    vertex 88.9299631929419 -116.72902323729289 0.0
  endloop
endfacet
facet normal 0.0 0.0 -1.0
  outer loop
    vertex 96.22783536807233 -104.83540648540394 0.0
    vertex 98.7384709495049 -108.30880999715768 0.0
    vertex 88.9299631929419 -116.72902323729289 0.0
  endloop
endfacet
facet normal 0.0 0.0 -1.0
  outer loop
    vertex 95.46187666201686 -103.25029955322113 0.0
    vertex 96.22783536807233 -104.83540648540394 0.0
    vertex 88.9299631929419 -116.72902323729289 0.0
  endloop
endfacet
facet normal 0.0 0.0 -1.0
  outer loop
    vertex 95.20655879545933 -101.89923633914154 0.0
    vertex 95.46187666201686 -103.25029955322113 0.0
    vertex 88.9299631929419 -116.72902323729289 0.0
  endloop
endfacet
facet normal 0.0 0.0 -1.0
  outer loop
    vertex 94.8993836661136 -92.53088394162506 0.0
    vertex 95.20655879545933 -101.89923633914154 0.0
    vertex 88.9299631929419 -116.72902323729289 0.0
  endloop
endfacet
facet normal 0.0 0.0 -1.0
  outer loop
    vertex 92.16400567288309 -92.32476847089461 0.0
    vertex 94.8993836661136 -92.53088394162506 0.0
    vertex 88.9299631929419 -116.72902323729289 0.0
  endloop
endfacet
facet normal 0.0 0.0 -1.0
  outer loop
    vertex 89.31294190767179 -109.23966170479753 0.0
    vertex 92.16400567288309 -92.32476847089461 0.0
    vertex 88.9299631929419 -116.72902323729289 0.0
  endloop
endfacet
facet normal 0.0 0.0 -1.0
  outer loop
    vertex 88.75975043083973 -110.25029997977914 0.0
    vertex 89.31294190767179 -109.23966170479753 0.0
    vertex 88.9299631929419 -116.72902323729289 0.0
  endloop
endfacet
facet normal 0.0 0.0 -1.0
  outer loop
    vertex 87.55762279849317 -116.89923599939506 0.0
    vertex 88.75975043083973 -110.25029997977914 0.0
    vertex 88.9299631929419 -116.72902323729289 0.0
  endloop
endfacet
facet normal 0.0 0.0 -1.0
  outer loop
    vertex 87.41932492928517 -110.66519358740318 0.0
    vertex 88.75975043083973 -110.25029997977914 0.0
    vertex 87.55762279849317 -116.89923599939506 0.0
  endloop
endfacet
facet normal 0.0 0.0 -1.0
  outer loop
    vertex 86.80230366666481 -117.6651934288548 0.0
    vertex 87.41932492928517 -110.66519358740318 0.0
    vertex 87.55762279849317 -116.89923599939506 0.0
  endloop
endfacet
facet normal 0.0 0.0 -1.0
  outer loop
    vertex 85.64804786834034 -110.30349327644666 0.0
    vertex 87.41932492928517 -110.66519358740318 0.0
    vertex 86.80230366666481 -117.6651934288548 0.0
  endloop
endfacet
facet normal 0.0 0.0 -1.0
  outer loop
    vertex 86.07889942773059 -118.50561894173427 0.0
    vertex 85.64804786834034 -110.30349327644666 0.0
    vertex 86.80230366666481 -117.6651934288548 0.0
  endloop
endfacet
facet normal 0.0 0.0 -1.0
  outer loop
    vertex 85.22783561721975 -118.72902319199335 0.0
    vertex 85.64804786834034 -110.30349327644666 0.0
    vertex 86.07889942773059 -118.50561894173427 0.0
  endloop
endfacet
facet normal 0.0 0.0 -1.0
  outer loop
    vertex 84.07889947303012 -109.21838510953474 0.0
    vertex 85.64804786834034 -110.30349327644666 0.0
    vertex 85.22783561721975 -118.72902319199335 0.0
  endloop
endfacet
facet normal 0.0 0.0 -1.0
  outer loop
    vertex 83.96187793312744 -118.40987585879644 0.0
    vertex 84.07889947303012 -109.21838510953474 0.0
    vertex 85.22783561721975 -118.72902319199335 0.0
  endloop
endfacet
facet normal 0.0 0.0 -1.0
  outer loop
    vertex 83.08953779331127 -108.34604470376112 0.0
    vertex 84.07889947303012 -109.21838510953474 0.0
    vertex 83.96187793312744 -118.40987585879644 0.0
  endloop
endfacet
facet normal 0.0 0.0 -1.0
  outer loop
    vertex 82.80230375726387 -117.4524274762271 0.0
    vertex 83.08953779331127 -108.34604470376112 0.0
    vertex 83.96187793312744 -118.40987585879644 0.0
  endloop
endfacet
facet normal 0.0 0.0 -1.0
  outer loop
    vertex 82.41932504253398 -108.19710853692175 0.0
    vertex 83.08953779331127 -108.34604470376112 0.0
    vertex 82.80230375726387 -117.4524274762271 0.0
  endloop
endfacet
facet normal 0.0 0.0 -1.0
  outer loop
    vertex 81.86879259489703 -116.14923657489301 0.0
    vertex 82.41932504253398 -108.19710853692175 0.0
    vertex 82.80230375726387 -117.4524274762271 0.0
  endloop
endfacet
facet normal 0.0 0.0 -1.0
  outer loop
    vertex 81.60017349193863 -108.39657512149961 0.0
    vertex 82.41932504253398 -108.19710853692175 0.0
    vertex 81.86879259489703 -116.14923657489301 0.0
  endloop
endfacet
facet normal 0.0 0.0 -1.0
  outer loop
    vertex 81.15336762439912 -114.62264030627857 0.0
    vertex 81.60017349193863 -108.39657512149961 0.0
    vertex 81.86879259489703 -116.14923657489301 0.0
  endloop
endfacet
facet normal 0.0 0.0 -1.0
  outer loop
    vertex 81.01506741476562 -108.99497686991403 0.0
    vertex 81.60017349193863 -108.39657512149961 0.0
    vertex 81.15336762439912 -114.62264030627857 0.0
  endloop
endfacet
facet normal 0.0 0.0 -1.0
  outer loop
    vertex 80.54698465941014 -111.38859782633739 0.0
    vertex 81.01506741476562 -108.99497686991403 0.0
    vertex 81.15336762439912 -114.62264030627857 0.0
  endloop
endfacet
facet normal 0.0 0.0 -1.0
  outer loop
    vertex 80.66400505569582 -109.99231677418622 0.0
    vertex 81.01506741476562 -108.99497686991403 0.0
    vertex 80.54698465941014 -111.38859782633739 0.0
  endloop
endfacet
facet normal 0.0 0.0 1.0
  outer loop
    vertex 105.33421814053831 -115.64391687889156 5.0
    vertex 104.92996283054566 -114.61200200864718 5.0
    vertex 104.85549714074293 -116.45774800407551 5.0
  endloop
endfacet
facet normal 0.0 0.0 1.0
  outer loop
    vertex 102.31294161322484 -112.04817227948328 5.0
    vertex 104.85549714074293 -116.45774800407551 5.0
    vertex 104.92996283054566 -114.61200200864718 5.0
  endloop
endfacet
facet normal 0.0 0.0 1.0
  outer loop
    vertex 103.41932456688892 -116.72902323729289 5.0
    vertex 104.85549714074293 -116.45774800407551 5.0
    vertex 102.31294161322484 -112.04817227948328 5.0
  endloop
endfacet
facet normal 0.0 0.0 1.0
  outer loop
    vertex 88.9299631929419 -116.72902323729289 5.0
    vertex 103.41932456688892 -116.72902323729289 5.0
    vertex 102.31294161322484 -112.04817227948328 5.0
  endloop
endfacet
facet normal 0.0 0.0 1.0
  outer loop
    vertex 98.7384709495049 -108.30880999715768 5.0
    vertex 88.9299631929419 -116.72902323729289 5.0
    vertex 102.31294161322484 -112.04817227948328 5.0
  endloop
endfacet
facet normal 0.0 0.0 1.0
  outer loop
    vertex 96.22783536807233 -104.83540648540394 5.0
    vertex 88.9299631929419 -116.72902323729289 5.0
    vertex 98.7384709495049 -108.30880999715768 5.0
  endloop
endfacet
facet normal 0.0 0.0 1.0
  outer loop
    vertex 94.03246465850322 -106.55113968796647 4.999999999999995
    vertex 88.9299631929419 -116.72902323729289 5.0
    vertex 96.22783536807233 -104.83540648540394 5.0
  endloop
endfacet
facet normal 0.0 0.0 1.0
  outer loop
    vertex 95.46187666201686 -103.25029955322113 5.0
    vertex 94.03246465850322 -106.55113968796647 4.999999999999995
    vertex 96.22783536807233 -104.83540648540394 5.0
  endloop
endfacet
facet normal 0.0 0.0 1.0
  outer loop
    vertex 94.2522455880134 -106.02054158719201 4.999999999999995
    vertex 94.03246465850322 -106.55113968796647 4.999999999999995
    vertex 95.46187666201686 -103.25029955322113 5.0
  endloop
endfacet
facet normal 0.0 0.0 1.0
  outer loop
    vertex 95.20655879545933 -101.89923633914154 5.0
    vertex 94.2522455880134 -106.02054158719201 4.999999999999995
    vertex 95.46187666201686 -103.25029955322113 5.0
  endloop
endfacet
facet normal 0.0 0.0 1.0
  outer loop
    vertex 94.32720877017745 -105.45113968796646 4.999999999999995
    vertex 94.2522455880134 -106.02054158719201 4.999999999999995
    vertex 95.20655879545933 -101.89923633914154 5.0
  endloop
endfacet
facet normal 0.0 0.0 1.0
  outer loop
    vertex 94.8993836661136 -92.53088394162506 5.0
    vertex 94.32720877017745 -105.45113968796646 4.999999999999995
    vertex 95.20655879545933 -101.89923633914154 5.0
  endloop
endfacet
facet normal 0.0 0.0 1.0
  outer loop
    vertex 93.68284368878786 -107.00677460657685 4.999999999999995
    vertex 88.9299631929419 -116.72902323729289 5.0
    vertex 94.03246465850322 -106.55113968796647 4.999999999999995
  endloop
endfacet
facet normal 0.0 0.0 1.0
  outer loop
    vertex 93.22720877017746 -107.35639557629223 4.999999999999995
    vertex 88.9299631929419 -116.72902323729289 5.0
    vertex 93.68284368878786 -107.00677460657685 4.999999999999995
  endloop
endfacet
facet normal 0.0 0.0 1.0
  outer loop
    vertex 92.696610669403 -107.57617650580241 4.999999999999995
    vertex 88.9299631929419 -116.72902323729289 5.0
    vertex 93.22720877017746 -107.35639557629223 4.999999999999995
  endloop
endfacet
facet normal 0.0 0.0 1.0
  outer loop
    vertex 92.12720877017746 -107.65113968796646 4.999999999999995
    vertex 88.9299631929419 -116.72902323729289 5.0
    vertex 92.696610669403 -107.57617650580241 4.999999999999995
  endloop
endfacet
facet normal 0.0 0.0 1.0
  outer loop
    vertex 91.55780687095191 -107.57617650580241 4.999999999999995
    vertex 88.9299631929419 -116.72902323729289 5.0
    vertex 92.12720877017746 -107.65113968796646 4.999999999999995
  endloop
endfacet
facet normal 0.0 0.0 1.0
  outer loop
    vertex 91.02720877017745 -107.35639557629223 4.999999999999995
    vertex 88.9299631929419 -116.72902323729289 5.0
    vertex 91.55780687095191 -107.57617650580241 4.999999999999995
  endloop
endfacet
facet normal 0.0 0.0 1.0
  outer loop
    vertex 90.57157385156705 -107.00677460657688 4.999999999999995
    vertex 88.9299631929419 -116.72902323729289 5.0
    vertex 91.02720877017745 -107.35639557629223 4.999999999999995
  endloop
endfacet
facet normal 0.0 0.0 1.0
  outer loop
    vertex 90.22195288185169 -106.55113968796647 4.999999999999995
    vertex 88.9299631929419 -116.72902323729289 5.0
    vertex 90.57157385156705 -107.00677460657688 4.999999999999995
  endloop
endfacet
facet normal 0.0 0.0 1.0
  outer loop
    vertex 90.00217195234151 -106.02054158719201 4.999999999999995
    vertex 88.9299631929419 -116.72902323729289 5.0
    vertex 90.22195288185169 -106.55113968796647 4.999999999999995
  endloop
endfacet
facet normal 0.0 0.0 1.0
  outer loop
    vertex 89.92720877017746 -105.45113968796646 4.999999999999995
    vertex 88.9299631929419 -116.72902323729289 5.0
    vertex 90.00217195234151 -106.02054158719201 4.999999999999995
  endloop
endfacet
facet normal 0.0 0.0 1.0
  outer loop
    vertex 89.31294190767179 -109.23966170479753 5.0
    vertex 88.9299631929419 -116.72902323729289 5.0
    vertex 89.92720877017746 -105.45113968796646 4.999999999999995
  endloop
endfacet
facet normal 0.0 0.0 1.0
  outer loop
    vertex 88.75975043083973 -110.25029997977914 5.0
    vertex 88.9299631929419 -116.72902323729289 5.0
    vertex 89.31294190767179 -109.23966170479753 5.0
  endloop
endfacet
facet normal 0.0 0.0 1.0
  outer loop
    vertex 87.55762279849317 -116.89923599939506 5.0
    vertex 88.9299631929419 -116.72902323729289 5.0
    vertex 88.75975043083973 -110.25029997977914 5.0
  endloop
endfacet
facet normal 0.0 0.0 1.0
  outer loop
    vertex 87.41932492928517 -110.66519358740318 5.0
    vertex 87.55762279849317 -116.89923599939506 5.0
    vertex 88.75975043083973 -110.25029997977914 5.0
  endloop
endfacet
facet normal 0.0 0.0 1.0
  outer loop
    vertex 86.80230366666481 -117.6651934288548 5.0
    vertex 87.55762279849317 -116.89923599939506 5.0
    vertex 87.41932492928517 -110.66519358740318 5.0
  endloop
endfacet
facet normal 0.0 0.0 1.0
  outer loop
    vertex 85.64804786834034 -110.30349327644666 5.0
    vertex 86.80230366666481 -117.6651934288548 5.0
    vertex 87.41932492928517 -110.66519358740318 5.0
  endloop
endfacet
facet normal 0.0 0.0 1.0
  outer loop
    vertex 86.07889942773059 -118.50561894173427 5.0
    vertex 86.80230366666481 -117.6651934288548 5.0
    vertex 85.64804786834034 -110.30349327644666 5.0
  endloop
endfacet
facet normal 0.0 0.0 1.0
  outer loop
    vertex 85.22783561721975 -118.72902319199335 5.0
    vertex 86.07889942773059 -118.50561894173427 5.0
    vertex 85.64804786834034 -110.30349327644666 5.0
  endloop
endfacet
facet normal 0.0 0.0 1.0
  outer loop
    vertex 84.07889947303012 -109.21838510953474 5.0
    vertex 85.22783561721975 -118.72902319199335 5.0
    vertex 85.64804786834034 -110.30349327644666 5.0
  endloop
endfacet
facet normal 0.0 0.0 1.0
  outer loop
    vertex 83.96187793312744 -118.40987585879644 5.0
    vertex 85.22783561721975 -118.72902319199335 5.0
    vertex 84.07889947303012 -109.21838510953474 5.0
  endloop
endfacet
facet normal 0.0 0.0 1.0
  outer loop
    vertex 83.08953779331127 -108.34604470376112 5.0
    vertex 83.96187793312744 -118.40987585879644 5.0
    vertex 84.07889947303012 -109.21838510953474 5.0
  endloop
endfacet
facet normal 0.0 0.0 1.0
  outer loop
    vertex 82.80230375726387 -117.4524274762271 5.0
    vertex 83.96187793312744 -118.40987585879644 5.0
    vertex 83.08953779331127 -108.34604470376112 5.0
  endloop
endfacet
facet normal 0.0 0.0 1.0
  outer loop
    vertex 82.41932504253398 -108.19710853692175 5.0
    vertex 82.80230375726387 -117.4524274762271 5.0
    vertex 83.08953779331127 -108.34604470376112 5.0
  endloop
endfacet
facet normal 0.0 0.0 1.0
  outer loop
    vertex 81.86879259489703 -116.14923657489301 5.0
    vertex 82.80230375726387 -117.4524274762271 5.0
    vertex 82.41932504253398 -108.19710853692175 5.0
  endloop
endfacet
facet normal 0.0 0.0 1.0
  outer loop
    vertex 81.60017349193863 -108.39657512149961 5.0
    vertex 81.86879259489703 -116.14923657489301 5.0
    vertex 82.41932504253398 -108.19710853692175 5.0
  endloop
endfacet
facet normal 0.0 0.0 1.0
  outer loop
    vertex 81.15336762439912 -114.62264030627857 5.0
    vertex 81.86879259489703 -116.14923657489301 5.0
    vertex 81.60017349193863 -108.39657512149961 5.0
  endloop
endfacet
facet normal 0.0 0.0 1.0
  outer loop
    vertex 81.01506741476562 -108.99497686991403 5.0
    vertex 81.15336762439912 -114.62264030627857 5.0
    vertex 81.60017349193863 -108.39657512149961 5.0
  endloop
endfacet
facet normal 0.0 0.0 1.0
  outer loop
    vertex 80.54698465941014 -111.38859782633739 5.0
    vertex 81.15336762439912 -114.62264030627857 5.0
    vertex 81.01506741476562 -108.99497686991403 5.0
  endloop
endfacet
facet normal 0.0 0.0 1.0
  outer loop
    vertex 80.66400505569582 -109.99231677418622 5.0
    vertex 80.54698465941014 -111.38859782633739 5.0
    vertex 81.01506741476562 -108.99497686991403 5.0
  endloop
endfacet
facet normal 0.0 0.0 1.0
  outer loop
    vertex 92.16400567288309 -92.32476847089461 5.0
    vertex 94.2522455880134 -104.88173778874092 4.999999999999995
    vertex 94.8993836661136 -92.53088394162506 5.0
  endloop
endfacet
facet normal 0.0 0.0 1.0
  outer loop
    vertex 94.32720877017745 -105.45113968796646 4.999999999999995
    vertex 94.8993836661136 -92.53088394162506 5.0
    vertex 94.2522455880134 -104.88173778874092 4.999999999999995
  endloop
endfacet
facet normal 0.0 0.0 1.0
  outer loop
    vertex 94.03246465850322 -104.35113968796647 4.999999999999995
    vertex 94.2522455880134 -104.88173778874092 4.999999999999995
    vertex 92.16400567288309 -92.32476847089461 5.0
  endloop
endfacet
facet normal 0.0 0.0 1.0
  outer loop
    vertex 93.68284368878786 -103.89550476935605 4.999999999999995
    vertex 94.03246465850322 -104.35113968796647 4.999999999999995
    vertex 92.16400567288309 -92.32476847089461 5.0
  endloop
endfacet
facet normal 0.0 0.0 1.0
  outer loop
    vertex 93.22720877017746 -103.5458837996407 4.999999999999995
    vertex 93.68284368878786 -103.89550476935605 4.999999999999995
    vertex 92.16400567288309 -92.32476847089461 5.0
  endloop
endfacet
facet normal 0.0 0.0 1.0
  outer loop
    vertex 92.696610669403 -103.32610287013053 4.999999999999995
    vertex 93.22720877017746 -103.5458837996407 4.999999999999995
    vertex 92.16400567288309 -92.32476847089461 5.0
  endloop
endfacet
facet normal 0.0 0.0 1.0
  outer loop
    vertex 92.12720877017746 -103.25113968796647 4.999999999999995
    vertex 92.696610669403 -103.32610287013053 4.999999999999995
    vertex 92.16400567288309 -92.32476847089461 5.0
  endloop
endfacet
facet normal 0.0 0.0 1.0
  outer loop
    vertex 88.27570605350535 -92.73434088183065 5.0
    vertex 92.12720877017746 -103.25113968796647 4.999999999999995
    vertex 92.16400567288309 -92.32476847089461 5.0
  endloop
endfacet
facet normal 0.0 0.0 1.0
  outer loop
    vertex 91.55780687095191 -103.32610287013053 4.999999999999995
    vertex 92.12720877017746 -103.25113968796647 4.999999999999995
    vertex 88.27570605350535 -92.73434088183065 5.0
  endloop
endfacet
facet normal 0.0 0.0 1.0
  outer loop
    vertex 91.02720877017745 -103.5458837996407 4.999999999999995
    vertex 91.55780687095191 -103.32610287013053 4.999999999999995
    vertex 88.27570605350535 -92.73434088183065 5.0
  endloop
endfacet
facet normal 0.0 0.0 1.0
  outer loop
    vertex 90.57157385156705 -103.89550476935608 4.999999999999995
    vertex 91.02720877017745 -103.5458837996407 4.999999999999995
    vertex 88.27570605350535 -92.73434088183065 5.0
  endloop
endfacet
facet normal 0.0 0.0 1.0
  outer loop
    vertex 90.22195288185169 -104.35113968796647 4.999999999999995
    vertex 90.57157385156705 -103.89550476935608 4.999999999999995
    vertex 88.27570605350535 -92.73434088183065 5.0
  endloop
endfacet
facet normal 0.0 0.0 1.0
  outer loop
    vertex 90.00217195234151 -104.88173778874092 4.999999999999995
    vertex 90.22195288185169 -104.35113968796647 4.999999999999995
    vertex 88.27570605350535 -92.73434088183065 5.0
  endloop
endfacet
facet normal 0.0 0.0 1.0
  outer loop
    vertex 89.92720877017746 -105.45113968796646 4.999999999999995
    vertex 90.00217195234151 -104.88173778874092 4.999999999999995
    vertex 88.27570605350535 -92.73434088183065 5.0
  endloop
endfacet
facet normal 0.0 0.0 1.0
  outer loop
    vertex 89.31294190767179 -109.23966170479753 5.0
    vertex 89.92720877017746 -105.45113968796646 4.999999999999995
    vertex 88.27570605350535 -92.73434088183065 5.0
  endloop
endfacet
facet normal 0.0 0.0 1.0
  outer loop
    vertex 88.85549739675619 -108.28221587541961 5.0
    vertex 89.31294190767179 -109.23966170479753 5.0
    vertex 88.27570605350535 -92.73434088183065 5.0
  endloop
endfacet
facet normal 0.0 0.0 1.0
  outer loop
    vertex 87.48315471507347 -106.94178941641826 5.0
    vertex 88.85549739675619 -108.28221587541961 5.0
    vertex 88.27570605350535 -92.73434088183065 5.0
  endloop
endfacet
facet normal 0.0 0.0 1.0
  outer loop
    vertex 85.1214526409059 -93.96306630612797 5.0
    vertex 87.48315471507347 -106.94178941641826 5.0
    vertex 88.27570605350535 -92.73434088183065 5.0
  endloop
endfacet
facet normal 0.0 0.0 1.0
  outer loop
    vertex 85.23048795093628 -104.80082762980415 5.0
    vertex 87.48315471507347 -106.94178941641826 5.0
    vertex 85.1214526409059 -93.96306630612797 5.0
  endloop
endfacet
facet normal 0.0 0.0 1.0
  outer loop
    vertex 83.62144623871048 -102.73966105414866 5.0
    vertex 85.23048795093628 -104.80082762980415 5.0
    vertex 85.1214526409059 -93.96306630612797 5.0
  endloop
endfacet
facet normal 0.0 0.0 1.0
  outer loop
    vertex 83.98847333146122 -94.85668256248351 5.0
    vertex 83.62144623871048 -102.73966105414866 5.0
    vertex 85.1214526409059 -93.96306630612797 5.0
  endloop
endfacet
facet normal 0.0 0.0 1.0
  outer loop
    vertex 83.10017609094267 -96.04817264187952 5.0
    vertex 83.62144623871048 -102.73966105414866 5.0
    vertex 83.98847333146122 -94.85668256248351 5.0
  endloop
endfacet
facet normal 0.0 0.0 1.0
  outer loop
    vertex 82.65602475126853 -100.75828210966472 5.0
    vertex 83.62144623871048 -102.73966105414866 5.0
    vertex 83.10017609094267 -96.04817264187952 5.0
  endloop
endfacet
facet normal 0.0 0.0 1.0
  outer loop
    vertex 82.52570706140106 -97.42051287675379 5.0
    vertex 82.65602475126853 -100.75828210966472 5.0
    vertex 83.10017609094267 -96.04817264187952 5.0
  endloop
endfacet
facet normal 0.0 0.0 1.0
  outer loop
    vertex 82.33421866148291 -98.85668321656529 5.0
    vertex 82.65602475126853 -100.75828210966472 5.0
    vertex 82.52570706140106 -97.42051287675379 5.0
  endloop
endfacet
facet normal 0.0 0.0 1.0
  outer loop
    vertex 105.14272878317338 -99.49498107444842 5.0
    vertex 104.95124038325523 -98.60934307589088 5.0
    vertex 104.9326234554854 -100.3753003763179 5.0
  endloop
endfacet
facet normal 0.0 0.0 1.0
  outer loop
    vertex 104.37677135371362 -97.61200239369319 5.0
    vertex 104.9326234554854 -100.3753003763179 5.0
    vertex 104.95124038325523 -98.60934307589088 5.0
  endloop
endfacet
facet normal 0.0 0.0 1.0
  outer loop
    vertex 104.30230327029392 -101.1864703978387 5.0
    vertex 104.9326234554854 -100.3753003763179 5.0
    vertex 104.37677135371362 -97.61200239369319 5.0
  endloop
endfacet
facet normal 0.0 0.0 1.0
  outer loop
    vertex 102.35549480375037 -95.6226407366241 5.0
    vertex 104.30230327029392 -101.1864703978387 5.0
    vertex 104.37677135371362 -97.61200239369319 5.0
  endloop
endfacet
facet normal 0.0 0.0 1.0
  outer loop
    vertex 103.42198434076484 -101.76891816390172 5.0
    vertex 104.30230327029392 -101.1864703978387 5.0
    vertex 102.35549480375037 -95.6226407366241 5.0
  endloop
endfacet
facet normal 0.0 0.0 1.0
  outer loop
    vertex 102.46187778006423 -101.96306612492984 5.0
    vertex 103.42198434076484 -101.76891816390172 5.0
    vertex 102.35549480375037 -95.6226407366241 5.0
  endloop
endfacet
facet normal 0.0 0.0 1.0
  outer loop
    vertex 101.22783525482352 -101.58008741019997 5.0
    vertex 102.46187778006423 -101.96306612492984 5.0
    vertex 102.35549480375037 -95.6226407366241 5.0
  endloop
endfacet
facet normal 0.0 0.0 1.0
  outer loop
    vertex 99.99511867702617 -94.17981698273458 5.0
    vertex 101.22783525482352 -101.58008741019997 5.0
    vertex 102.35549480375037 -95.6226407366241 5.0
  endloop
endfacet
facet normal 0.0 0.0 1.0
  outer loop
    vertex 98.97251615696979 -99.84604489628413 5.0
    vertex 101.22783525482352 -101.58008741019997 5.0
    vertex 99.99511867702617 -94.17981698273458 5.0
  endloop
endfacet
facet normal 0.0 0.0 1.0
  outer loop
    vertex 97.50975148265425 -93.14923241498666 5.0
    vertex 98.97251615696979 -99.84604489628413 5.0
    vertex 99.99511867702617 -94.17981698273458 5.0
  endloop
endfacet
facet normal 0.0 0.0 1.0
  outer loop
    vertex 97.48315448857582 -99.5800874554995 5.0
    vertex 98.97251615696979 -99.84604489628413 5.0
    vertex 97.50975148265425 -93.14923241498666 5.0
  endloop
endfacet
facet normal 0.0 0.0 1.0
  outer loop
    vertex 94.8993836661136 -92.53088394162506 5.0
    vertex 97.48315448857582 -99.5800874554995 5.0
    vertex 97.50975148265425 -93.14923241498666 5.0
  endloop
endfacet
facet normal 0.0 0.0 1.0
  outer loop
    vertex 96.54698376509901 -99.73700156098799 5.0
    vertex 97.48315448857582 -99.5800874554995 5.0
    vertex 94.8993836661136 -92.53088394162506 5.0
  endloop
endfacet
facet normal 0.0 0.0 1.0
  outer loop
    vertex 95.82358005807968 -100.20774701575125 5.0
    vertex 96.54698376509901 -99.73700156098799 5.0
    vertex 94.8993836661136 -92.53088394162506 5.0
  endloop
endfacet
facet normal 0.0 0.0 1.0
  outer loop
    vertex 95.36081333983785 -100.94444858151194 5.0
    vertex 95.82358005807968 -100.20774701575125 5.0
    vertex 94.8993836661136 -92.53088394162506 5.0
  endloop
endfacet
facet normal 0.0 0.0 1.0
  outer loop
    vertex 95.20655879545933 -101.89923633914154 5.0
    vertex 95.36081333983785 -100.94444858151194 5.0
    vertex 94.8993836661136 -92.53088394162506 5.0
  endloop
endfacet
facet normal 0.0 -1.0 0.0
  outer loop
    vertex 88.9299631929419 -116.72902323729289 0.0
    vertex 103.41932456688892 -116.72902323729289 0.0
    vertex 88.9299631929419 -116.72902323729289 5.0
  endloop
endfacet
facet normal 0.0 -1.0 0.0
  outer loop
    vertex 103.41932456688892 -116.72902323729289 5.0
    vertex 88.9299631929419 -116.72902323729289 5.0
    vertex 103.41932456688892 -116.72902323729289 0.0
  endloop
endfacet
facet normal 0.18560558000869093 -0.98262432733453 0.0
  outer loop
    vertex 103.41932456688892 -116.72902323729289 0.0
    vertex 104.85549714074293 -116.45774800407551 0.0
    vertex 103.41932456688892 -116.72902323729289 5.0
  endloop
endfacet
facet normal 0.18560558000869093 -0.98262432733453 0.0
  outer loop
    vertex 104.85549714074293 -116.45774800407551 5.0
    vertex 103.41932456688892 -116.72902323729289 5.0
    vertex 104.85549714074293 -116.45774800407551 0.0
  endloop
endfacet
facet normal 0.8619356923336415 -0.507017615356041 0.0
  outer loop
    vertex 104.85549714074293 -116.45774800407551 5.0
    vertex 104.85549714074293 -116.45774800407551 0.0
    vertex 105.33421814053831 -115.64391687889156 5.0
  endloop
endfacet
facet normal 0.8619356923336415 -0.507017615356041 0.0
  outer loop
    vertex 105.33421814053831 -115.64391687889156 0.0
    vertex 105.33421814053831 -115.64391687889156 5.0
    vertex 104.85549714074293 -116.45774800407551 0.0
  endloop
endfacet
facet normal 0.9311010850748036 0.36476124982311886 0.0
  outer loop
    vertex 105.33421814053831 -115.64391687889156 5.0
    vertex 105.33421814053831 -115.64391687889156 0.0
    vertex 104.92996283054566 -114.61200200864718 5.0
  endloop
endfacet
facet normal 0.9311010850748036 0.36476124982311886 0.0
  outer loop
    vertex 104.92996283054566 -114.61200200864718 0.0
    vertex 104.92996283054566 -114.61200200864718 5.0
    vertex 105.33421814053831 -115.64391687889156 0.0
  endloop
endfacet
facet normal 0.699810075429799 0.7143289566627824 0.0
  outer loop
    vertex 104.92996283054566 -114.61200200864718 0.0
    vertex 102.31294161322484 -112.04817227948328 0.0
    vertex 104.92996283054566 -114.61200200864718 5.0
  endloop
endfacet
facet normal 0.699810075429799 0.7143289566627824 0.0
  outer loop
    vertex 102.31294161322484 -112.04817227948328 5.0
    vertex 104.92996283054566 -114.61200200864718 5.0
    vertex 102.31294161322484 -112.04817227948328 0.0
  endloop
endfacet
facet normal 0.7228649376092969 0.6909893501169952 0.0
  outer loop
    vertex 102.31294161322484 -112.04817227948328 5.0
    vertex 102.31294161322484 -112.04817227948328 0.0
    vertex 98.7384709495049 -108.30880999715768 5.0
  endloop
endfacet
facet normal 0.7228649376092969 0.6909893501169952 0.0
  outer loop
    vertex 98.7384709495049 -108.30880999715768 0.0
    vertex 98.7384709495049 -108.30880999715768 5.0
    vertex 102.31294161322484 -112.04817227948328 0.0
  endloop
endfacet
facet normal 0.8104503169719492 0.5858073776593012 0.0
  outer loop
    vertex 98.7384709495049 -108.30880999715768 5.0
    vertex 98.7384709495049 -108.30880999715768 0.0
    vertex 96.22783536807233 -104.83540648540394 5.0
  endloop
endfacet
facet normal 0.8104503169719492 0.5858073776593012 0.0
  outer loop
    vertex 96.22783536807233 -104.83540648540394 0.0
    vertex 96.22783536807233 -104.83540648540394 5.0
    vertex 98.7384709495049 -108.30880999715768 0.0
  endloop
endfacet
facet normal 0.9003881883250524 0.4350874743367476 0.0
  outer loop
    vertex 96.22783536807233 -104.83540648540394 5.0
    vertex 96.22783536807233 -104.83540648540394 0.0
    vertex 95.46187666201686 -103.25029955322113 5.0
  endloop
endfacet
facet normal 0.9003881883250524 0.4350874743367476 0.0
  outer loop
    vertex 95.46187666201686 -103.25029955322113 0.0
    vertex 95.46187666201686 -103.25029955322113 5.0
    vertex 96.22783536807233 -104.83540648540394 0.0
  endloop
endfacet
facet normal 0.9826085739901849 0.1856889612254197 0.0
  outer loop
    vertex 95.46187666201686 -103.25029955322113 5.0
    vertex 95.46187666201686 -103.25029955322113 0.0
    vertex 95.20655879545933 -101.89923633914154 5.0
  endloop
endfacet
facet normal 0.9826085739901849 0.1856889612254197 0.0
  outer loop
    vertex 95.20655879545933 -101.89923633914154 0.0
    vertex 95.20655879545933 -101.89923633914154 5.0
    vertex 95.46187666201686 -103.25029955322113 0.0
  endloop
endfacet
facet normal 0.9871993929920755 -0.1594909354041092 0.0
  outer loop
    vertex 95.20655879545933 -101.89923633914154 5.0
    vertex 95.20655879545933 -101.89923633914154 0.0
    vertex 95.36081333983785 -100.94444858151194 5.0
  endloop
endfacet
facet normal 0.9871993929920755 -0.1594909354041092 0.0
  outer loop
    vertex 95.36081333983785 -100.94444858151194 0.0
    vertex 95.36081333983785 -100.94444858151194 5.0
    vertex 95.20655879545933 -101.89923633914154 0.0
  endloop
endfacet
facet normal 0.8467933478049484 -0.5319220113073794 0.0
  outer loop
    vertex 95.36081333983785 -100.94444858151194 5.0
    vertex 95.36081333983785 -100.94444858151194 0.0
    vertex 95.82358005807968 -100.20774701575125 5.0
  endloop
endfacet
facet normal 0.8467933478049484 -0.5319220113073794 0.0
  outer loop
    vertex 95.82358005807968 -100.20774701575125 0.0
    vertex 95.82358005807968 -100.20774701575125 5.0
    vertex 95.36081333983785 -100.94444858151194 0.0
  endloop
endfacet
facet normal 0.545422446350246 -0.838161294153645 0.0
  outer loop
    vertex 95.82358005807968 -100.20774701575125 0.0
    vertex 96.54698376509901 -99.73700156098799 0.0
    vertex 95.82358005807968 -100.20774701575125 5.0
  endloop
endfacet
facet normal 0.545422446350246 -0.838161294153645 0.0
  outer loop
    vertex 96.54698376509901 -99.73700156098799 5.0
    vertex 95.82358005807968 -100.20774701575125 5.0
    vertex 96.54698376509901 -99.73700156098799 0.0
  endloop
endfacet
facet normal 0.1653067219179041 -0.9862422053880865 0.0
  outer loop
    vertex 96.54698376509901 -99.73700156098799 0.0
    vertex 97.48315448857582 -99.5800874554995 0.0
    vertex 96.54698376509901 -99.73700156098799 5.0
  endloop
endfacet
facet normal 0.1653067219179041 -0.9862422053880865 0.0
  outer loop
    vertex 97.48315448857582 -99.5800874554995 5.0
    vertex 96.54698376509901 -99.73700156098799 5.0
    vertex 97.48315448857582 -99.5800874554995 0.0
  endloop
endfacet
facet normal -0.17579063848365795 -0.984427575508482 0.0
  outer loop
    vertex 97.48315448857582 -99.5800874554995 0.0
    vertex 98.97251615696979 -99.84604489628413 0.0
    vertex 97.48315448857582 -99.5800874554995 5.0
  endloop
endfacet
facet normal -0.17579063848365795 -0.984427575508482 0.0
  outer loop
    vertex 98.97251615696979 -99.84604489628413 5.0
    vertex 97.48315448857582 -99.5800874554995 5.0
    vertex 98.97251615696979 -99.84604489628413 0.0
  endloop
endfacet
facet normal -0.6095300281832602 -0.7927629814408051 0.0
  outer loop
    vertex 98.97251615696979 -99.84604489628413 0.0
    vertex 101.22783525482352 -101.58008741019997 0.0
    vertex 98.97251615696979 -99.84604489628413 5.0
  endloop
endfacet
facet normal -0.6095300281832602 -0.7927629814408051 0.0
  outer loop
    vertex 101.22783525482352 -101.58008741019997 5.0
    vertex 98.97251615696979 -99.84604489628413 5.0
    vertex 101.22783525482352 -101.58008741019997 0.0
  endloop
endfacet
facet normal -0.29639921487245346 -0.9550641368112371 0.0
  outer loop
    vertex 101.22783525482352 -101.58008741019997 0.0
    vertex 102.46187778006423 -101.96306612492984 0.0
    vertex 101.22783525482352 -101.58008741019997 5.0
  endloop
endfacet
facet normal -0.29639921487245346 -0.9550641368112371 0.0
  outer loop
    vertex 102.46187778006423 -101.96306612492984 5.0
    vertex 101.22783525482352 -101.58008741019997 5.0
    vertex 102.46187778006423 -101.96306612492984 0.0
  endloop
endfacet
facet normal 0.19820325764358968 -0.9801609401825135 0.0
  outer loop
    vertex 102.46187778006423 -101.96306612492984 0.0
    vertex 103.42198434076484 -101.76891816390172 0.0
    vertex 102.46187778006423 -101.96306612492984 5.0
  endloop
endfacet
facet normal 0.19820325764358968 -0.9801609401825135 0.0
  outer loop
    vertex 103.42198434076484 -101.76891816390172 5.0
    vertex 102.46187778006423 -101.96306612492984 5.0
    vertex 103.42198434076484 -101.76891816390172 0.0
  endloop
endfacet
facet normal 0.5517903208552094 -0.833982878607532 0.0
  outer loop
    vertex 103.42198434076484 -101.76891816390172 0.0
    vertex 104.30230327029392 -101.1864703978387 0.0
    vertex 103.42198434076484 -101.76891816390172 5.0
  endloop
endfacet
facet normal 0.5517903208552094 -0.833982878607532 0.0
  outer loop
    vertex 104.30230327029392 -101.1864703978387 5.0
    vertex 103.42198434076484 -101.76891816390172 5.0
    vertex 104.30230327029392 -101.1864703978387 0.0
  endloop
endfacet
facet normal 0.7896303875758226 -0.6135827988273923 0.0
  outer loop
    vertex 104.30230327029392 -101.1864703978387 5.0
    vertex 104.30230327029392 -101.1864703978387 0.0
    vertex 104.9326234554854 -100.3753003763179 5.0
  endloop
endfacet
facet normal 0.7896303875758226 -0.6135827988273923 0.0
  outer loop
    vertex 104.9326234554854 -100.3753003763179 0.0
    vertex 104.9326234554854 -100.3753003763179 5.0
    vertex 104.30230327029392 -101.1864703978387 0.0
  endloop
endfacet
facet normal 0.9726802222632838 -0.23214905818858922 0.0
  outer loop
    vertex 104.9326234554854 -100.3753003763179 5.0
    vertex 104.9326234554854 -100.3753003763179 0.0
    vertex 105.14272878317338 -99.49498107444842 5.0
  endloop
endfacet
facet normal 0.9726802222632838 -0.23214905818858922 0.0
  outer loop
    vertex 105.14272878317338 -99.49498107444842 0.0
    vertex 105.14272878317338 -99.49498107444842 5.0
    vertex 104.9326234554854 -100.3753003763179 0.0
  endloop
endfacet
facet normal 0.9774143699392651 0.21133184671560856 0.0
  outer loop
    vertex 105.14272878317338 -99.49498107444842 5.0
    vertex 105.14272878317338 -99.49498107444842 0.0
    vertex 104.95124038325523 -98.60934307589088 5.0
  endloop
endfacet
facet normal 0.9774143699392651 0.21133184671560856 0.0
  outer loop
    vertex 104.95124038325523 -98.60934307589088 0.0
    vertex 104.95124038325523 -98.60934307589088 5.0
    vertex 105.14272878317338 -99.49498107444842 0.0
  endloop
endfacet
facet normal 0.8665313067528919 0.4991227248053585 0.0
  outer loop
    vertex 104.95124038325523 -98.60934307589088 5.0
    vertex 104.95124038325523 -98.60934307589088 0.0
    vertex 104.37677135371362 -97.61200239369319 5.0
  endloop
endfacet
facet normal 0.8665313067528919 0.4991227248053585 0.0
  outer loop
    vertex 104.37677135371362 -97.61200239369319 0.0
    vertex 104.37677135371362 -97.61200239369319 5.0
    vertex 104.95124038325523 -98.60934307589088 0.0
  endloop
endfacet
facet normal 0.701457728007189 0.7127110605420632 0.0
  outer loop
    vertex 104.37677135371362 -97.61200239369319 0.0
    vertex 102.35549480375037 -95.6226407366241 0.0
    vertex 104.37677135371362 -97.61200239369319 5.0
  endloop
endfacet
facet normal 0.701457728007189 0.7127110605420632 0.0
  outer loop
    vertex 102.35549480375037 -95.6226407366241 5.0
    vertex 104.37677135371362 -97.61200239369319 5.0
    vertex 102.35549480375037 -95.6226407366241 0.0
  endloop
endfacet
facet normal 0.5215478267567214 0.8532220487102645 0.0
  outer loop
    vertex 102.35549480375037 -95.6226407366241 0.0
    vertex 99.99511867702617 -94.17981698273458 0.0
    vertex 102.35549480375037 -95.6226407366241 5.0
  endloop
endfacet
facet normal 0.5215478267567214 0.8532220487102645 0.0
  outer loop
    vertex 99.99511867702617 -94.17981698273458 5.0
    vertex 102.35549480375037 -95.6226407366241 5.0
    vertex 99.99511867702617 -94.17981698273458 0.0
  endloop
endfacet
facet normal 0.38303610091917273 0.9237333735405675 0.0
  outer loop
    vertex 99.99511867702617 -94.17981698273458 0.0
    vertex 97.50975148265425 -93.14923241498666 0.0
    vertex 99.99511867702617 -94.17981698273458 5.0
  endloop
endfacet
facet normal 0.38303610091917273 0.9237333735405675 0.0
  outer loop
    vertex 97.50975148265425 -93.14923241498666 5.0
    vertex 99.99511867702617 -94.17981698273458 5.0
    vertex 97.50975148265425 -93.14923241498666 0.0
  endloop
endfacet
facet normal 0.230502903692712 0.9730716373367526 0.0
  outer loop
    vertex 97.50975148265425 -93.14923241498666 0.0
    vertex 94.8993836661136 -92.53088394162506 0.0
    vertex 97.50975148265425 -93.14923241498666 5.0
  endloop
endfacet
facet normal 0.230502903692712 0.9730716373367526 0.0
  outer loop
    vertex 94.8993836661136 -92.53088394162506 5.0
    vertex 97.50975148265425 -93.14923241498666 5.0
    vertex 94.8993836661136 -92.53088394162506 0.0
  endloop
endfacet
facet normal 0.07513871994755789 0.9971730906741529 0.0
  outer loop
    vertex 94.8993836661136 -92.53088394162506 0.0
    vertex 92.16400567288309 -92.32476847089461 0.0
    vertex 94.8993836661136 -92.53088394162506 5.0
  endloop
endfacet
facet normal 0.07513871994755789 0.9971730906741529 0.0
  outer loop
    vertex 92.16400567288309 -92.32476847089461 5.0
    vertex 94.8993836661136 -92.53088394162506 5.0
    vertex 92.16400567288309 -92.32476847089461 0.0
  endloop
endfacet
facet normal -0.10475503591447113 0.9944980555287969 0.0
  outer loop
    vertex 92.16400567288309 -92.32476847089461 0.0
    vertex 88.27570605350535 -92.73434088183065 0.0
    vertex 92.16400567288309 -92.32476847089461 5.0
  endloop
endfacet
facet normal -0.10475503591447113 0.9944980555287969 0.0
  outer loop
    vertex 88.27570605350535 -92.73434088183065 5.0
    vertex 92.16400567288309 -92.32476847089461 5.0
    vertex 88.27570605350535 -92.73434088183065 0.0
  endloop
endfacet
facet normal -0.3629777084485309 0.9317978231190784 0.0
  outer loop
    vertex 88.27570605350535 -92.73434088183065 0.0
    vertex 85.1214526409059 -93.96306630612797 0.0
    vertex 88.27570605350535 -92.73434088183065 5.0
  endloop
endfacet
facet normal -0.3629777084485309 0.9317978231190784 0.0
  outer loop
    vertex 85.1214526409059 -93.96306630612797 5.0
    vertex 88.27570605350535 -92.73434088183065 5.0
    vertex 85.1214526409059 -93.96306630612797 0.0
  endloop
endfacet
facet normal -0.619285142000658 0.7851661689713999 0.0
  outer loop
    vertex 85.1214526409059 -93.96306630612797 0.0
    vertex 83.98847333146122 -94.85668256248351 0.0
    vertex 85.1214526409059 -93.96306630612797 5.0
  endloop
endfacet
facet normal -0.619285142000658 0.7851661689713999 0.0
  outer loop
    vertex 83.98847333146122 -94.85668256248351 5.0
    vertex 85.1214526409059 -93.96306630612797 5.0
    vertex 83.98847333146122 -94.85668256248351 0.0
  endloop
endfacet
facet normal -0.801715056946456 0.5977064224728901 0.0
  outer loop
    vertex 83.10017609094267 -96.04817264187952 0.0
    vertex 83.10017609094267 -96.04817264187952 5.0
    vertex 83.98847333146122 -94.85668256248351 0.0
  endloop
endfacet
facet normal -0.801715056946456 0.5977064224728901 0.0
  outer loop
    vertex 83.98847333146122 -94.85668256248351 5.0
    vertex 83.98847333146122 -94.85668256248351 0.0
    vertex 83.10017609094267 -96.04817264187952 5.0
  endloop
endfacet
facet normal -0.9224407430777087 0.38613867393754386 0.0
  outer loop
    vertex 82.52570706140106 -97.42051287675379 0.0
    vertex 82.52570706140106 -97.42051287675379 5.0
    vertex 83.10017609094267 -96.04817264187952 0.0
  endloop
endfacet
facet normal -0.9224407430777087 0.38613867393754386 0.0
  outer loop
    vertex 83.10017609094267 -96.04817264187952 5.0
    vertex 83.10017609094267 -96.04817264187952 0.0
    vertex 82.52570706140106 -97.42051287675379 5.0
  endloop
endfacet
facet normal -0.9912279891763132 0.1321630563867331 0.0
  outer loop
    vertex 82.33421866148291 -98.85668321656529 0.0
    vertex 82.33421866148291 -98.85668321656529 5.0
    vertex 82.52570706140106 -97.42051287675379 0.0
  endloop
endfacet
facet normal -0.9912279891763132 0.1321630563867331 0.0
  outer loop
    vertex 82.52570706140106 -97.42051287675379 5.0
    vertex 82.52570706140106 -97.42051287675379 0.0
    vertex 82.33421866148291 -98.85668321656529 5.0
  endloop
endfacet
facet normal -0.9859811374141848 -0.16685681485462445 0.0
  outer loop
    vertex 82.65602475126853 -100.75828210966472 0.0
    vertex 82.65602475126853 -100.75828210966472 5.0
    vertex 82.33421866148291 -98.85668321656529 0.0
  endloop
endfacet
facet normal -0.9859811374141848 -0.16685681485462445 0.0
  outer loop
    vertex 82.33421866148291 -98.85668321656529 5.0
    vertex 82.33421866148291 -98.85668321656529 0.0
    vertex 82.65602475126853 -100.75828210966472 5.0
  endloop
endfacet
facet normal -0.8989658747105655 -0.43801867095577984 0.0
  outer loop
    vertex 83.62144623871048 -102.73966105414866 0.0
    vertex 83.62144623871048 -102.73966105414866 5.0
    vertex 82.65602475126853 -100.75828210966472 0.0
  endloop
endfacet
facet normal -0.8989658747105655 -0.43801867095577984 0.0
  outer loop
    vertex 82.65602475126853 -100.75828210966472 5.0
    vertex 82.65602475126853 -100.75828210966472 0.0
    vertex 83.62144623871048 -102.73966105414866 5.0
  endloop
endfacet
facet normal -0.7882552476077094 -0.6153484091300706 0.0
  outer loop
    vertex 85.23048795093628 -104.80082762980415 0.0
    vertex 85.23048795093628 -104.80082762980415 5.0
    vertex 83.62144623871048 -102.73966105414866 0.0
  endloop
endfacet
facet normal -0.7882552476077094 -0.6153484091300706 0.0
  outer loop
    vertex 83.62144623871048 -102.73966105414866 5.0
    vertex 83.62144623871048 -102.73966105414866 0.0
    vertex 85.23048795093628 -104.80082762980415 5.0
  endloop
endfacet
facet normal -0.6889064615839393 -0.7248502515608976 0.0
  outer loop
    vertex 85.23048795093628 -104.80082762980415 0.0
    vertex 87.48315471507347 -106.94178941641826 0.0
    vertex 85.23048795093628 -104.80082762980415 5.0
  endloop
endfacet
facet normal -0.6889064615839393 -0.7248502515608976 0.0
  outer loop
    vertex 87.48315471507347 -106.94178941641826 5.0
    vertex 85.23048795093628 -104.80082762980415 5.0
    vertex 87.48315471507347 -106.94178941641826 0.0
  endloop
endfacet
facet normal -0.6987391833144618 -0.7153765118460621 0.0
  outer loop
    vertex 87.48315471507347 -106.94178941641826 0.0
    vertex 88.85549739675619 -108.28221587541961 0.0
    vertex 87.48315471507347 -106.94178941641826 5.0
  endloop
endfacet
facet normal -0.6987391833144618 -0.7153765118460621 0.0
  outer loop
    vertex 88.85549739675619 -108.28221587541961 5.0
    vertex 87.48315471507347 -106.94178941641826 5.0
    vertex 88.85549739675619 -108.28221587541961 0.0
  endloop
endfacet
facet normal -0.9023044866152289 -0.4310993080880884 0.0
  outer loop
    vertex 89.31294190767179 -109.23966170479753 0.0
    vertex 89.31294190767179 -109.23966170479753 5.0
    vertex 88.85549739675619 -108.28221587541961 0.0
  endloop
endfacet
facet normal -0.9023044866152289 -0.4310993080880884 0.0
  outer loop
    vertex 88.85549739675619 -108.28221587541961 5.0
    vertex 88.85549739675619 -108.28221587541961 0.0
    vertex 89.31294190767179 -109.23966170479753 5.0
  endloop
endfacet
facet normal -0.8771888690852526 0.48014548623613645 0.0
  outer loop
    vertex 88.75975043083973 -110.25029997977914 0.0
    vertex 88.75975043083973 -110.25029997977914 5.0
    vertex 89.31294190767179 -109.23966170479753 0.0
  endloop
endfacet
facet normal -0.8771888690852526 0.48014548623613645 0.0
  outer loop
    vertex 89.31294190767179 -109.23966170479753 5.0
    vertex 89.31294190767179 -109.23966170479753 0.0
    vertex 88.75975043083973 -110.25029997977914 5.0
  endloop
endfacet
facet normal -0.2956837280711306 0.9552858906913457 0.0
  outer loop
    vertex 88.75975043083973 -110.25029997977914 0.0
    vertex 87.41932492928517 -110.66519358740318 0.0
    vertex 88.75975043083973 -110.25029997977914 5.0
  endloop
endfacet
facet normal -0.2956837280711306 0.9552858906913457 0.0
  outer loop
    vertex 87.41932492928517 -110.66519358740318 5.0
    vertex 88.75975043083973 -110.25029997977914 5.0
    vertex 87.41932492928517 -110.66519358740318 0.0
  endloop
endfacet
facet normal 0.200074286897167 0.9797807304303295 0.0
  outer loop
    vertex 87.41932492928517 -110.66519358740318 0.0
    vertex 85.64804786834034 -110.30349327644666 0.0
    vertex 87.41932492928517 -110.66519358740318 5.0
  endloop
endfacet
facet normal 0.200074286897167 0.9797807304303295 0.0
  outer loop
    vertex 85.64804786834034 -110.30349327644666 5.0
    vertex 87.41932492928517 -110.66519358740318 5.0
    vertex 85.64804786834034 -110.30349327644666 0.0
  endloop
endfacet
facet normal 0.5687757188298961 0.8224926635961778 0.0
  outer loop
    vertex 85.64804786834034 -110.30349327644666 0.0
    vertex 84.07889947303012 -109.21838510953474 0.0
    vertex 85.64804786834034 -110.30349327644666 5.0
  endloop
endfacet
facet normal 0.5687757188298961 0.8224926635961778 0.0
  outer loop
    vertex 84.07889947303012 -109.21838510953474 5.0
    vertex 85.64804786834034 -110.30349327644666 5.0
    vertex 84.07889947303012 -109.21838510953474 0.0
  endloop
endfacet
facet normal 0.6613548439554713 0.7500731766812053 0.0
  outer loop
    vertex 84.07889947303012 -109.21838510953474 0.0
    vertex 83.08953779331127 -108.34604470376112 0.0
    vertex 84.07889947303012 -109.21838510953474 5.0
  endloop
endfacet
facet normal 0.6613548439554713 0.7500731766812053 0.0
  outer loop
    vertex 83.08953779331127 -108.34604470376112 5.0
    vertex 84.07889947303012 -109.21838510953474 5.0
    vertex 83.08953779331127 -108.34604470376112 0.0
  endloop
endfacet
facet normal 0.21693045781865597 0.9761870601839528 0.0
  outer loop
    vertex 83.08953779331127 -108.34604470376112 0.0
    vertex 82.41932504253398 -108.19710853692175 0.0
    vertex 83.08953779331127 -108.34604470376112 5.0
  endloop
endfacet
facet normal 0.21693045781865597 0.9761870601839528 0.0
  outer loop
    vertex 82.41932504253398 -108.19710853692175 5.0
    vertex 83.08953779331127 -108.34604470376112 5.0
    vertex 82.41932504253398 -108.19710853692175 0.0
  endloop
endfacet
facet normal -0.23659066691250183 0.9716094155214314 0.0
  outer loop
    vertex 82.41932504253398 -108.19710853692175 0.0
    vertex 81.60017349193863 -108.39657512149961 0.0
    vertex 82.41932504253398 -108.19710853692175 5.0
  endloop
endfacet
facet normal -0.23659066691250183 0.9716094155214314 0.0
  outer loop
    vertex 81.60017349193863 -108.39657512149961 5.0
    vertex 82.41932504253398 -108.19710853692175 5.0
    vertex 81.60017349193863 -108.39657512149961 0.0
  endloop
endfacet
facet normal -0.715005387616738 0.6991189424404393 0.0
  outer loop
    vertex 81.01506741476562 -108.99497686991403 0.0
    vertex 81.01506741476562 -108.99497686991403 5.0
    vertex 81.60017349193863 -108.39657512149961 0.0
  endloop
endfacet
facet normal -0.715005387616738 0.6991189424404393 0.0
  outer loop
    vertex 81.60017349193863 -108.39657512149961 5.0
    vertex 81.60017349193863 -108.39657512149961 0.0
    vertex 81.01506741476562 -108.99497686991403 5.0
  endloop
endfacet
facet normal -0.9432690114715375 0.3320294745915014 0.0
  outer loop
    vertex 80.66400505569582 -109.99231677418622 0.0
    vertex 80.66400505569582 -109.99231677418622 5.0
    vertex 81.01506741476562 -108.99497686991403 0.0
  endloop
endfacet
facet normal -0.9432690114715375 0.3320294745915014 0.0
  outer loop
    vertex 81.01506741476562 -108.99497686991403 5.0
    vertex 81.01506741476562 -108.99497686991403 0.0
    vertex 80.66400505569582 -109.99231677418622 5.0
  endloop
endfacet
facet normal -0.9965064501033739 0.08351583623703958 0.0
  outer loop
    vertex 80.54698465941014 -111.38859782633739 0.0
    vertex 80.54698465941014 -111.38859782633739 5.0
    vertex 80.66400505569582 -109.99231677418622 0.0
  endloop
endfacet
facet normal -0.9965064501033739 0.08351583623703958 0.0
  outer loop
    vertex 80.66400505569582 -109.99231677418622 5.0
    vertex 80.66400505569582 -109.99231677418622 0.0
    vertex 80.54698465941014 -111.38859782633739 5.0
  endloop
endfacet
facet normal -0.9828721869343218 -0.18428853505018591 0.0
  outer loop
    vertex 81.15336762439912 -114.62264030627857 0.0
    vertex 81.15336762439912 -114.62264030627857 5.0
    vertex 80.54698465941014 -111.38859782633739 0.0
  endloop
endfacet
facet normal -0.9828721869343218 -0.18428853505018591 0.0
  outer loop
    vertex 80.54698465941014 -111.38859782633739 5.0
    vertex 80.54698465941014 -111.38859782633739 0.0
    vertex 81.15336762439912 -114.62264030627857 5.0
  endloop
endfacet
facet normal -0.9054970070762498 -0.4243526483668437 0.0
  outer loop
    vertex 81.86879259489703 -116.14923657489301 0.0
    vertex 81.86879259489703 -116.14923657489301 5.0
    vertex 81.15336762439912 -114.62264030627857 0.0
  endloop
endfacet
facet normal -0.9054970070762498 -0.4243526483668437 0.0
  outer loop
    vertex 81.15336762439912 -114.62264030627857 5.0
    vertex 81.15336762439912 -114.62264030627857 0.0
    vertex 81.86879259489703 -116.14923657489301 5.0
  endloop
endfacet
facet normal -0.8129477516070623 -0.5823366321613488 0.0
  outer loop
    vertex 82.80230375726387 -117.4524274762271 0.0
    vertex 82.80230375726387 -117.4524274762271 5.0
    vertex 81.86879259489703 -116.14923657489301 0.0
  endloop
endfacet
facet normal -0.8129477516070623 -0.5823366321613488 0.0
  outer loop
    vertex 81.86879259489703 -116.14923657489301 5.0
    vertex 81.86879259489703 -116.14923657489301 0.0
    vertex 82.80230375726387 -117.4524274762271 5.0
  endloop
endfacet
facet normal -0.636699324583935 -0.7711121643926784 0.0
  outer loop
    vertex 82.80230375726387 -117.4524274762271 0.0
    vertex 83.96187793312744 -118.40987585879644 0.0
    vertex 82.80230375726387 -117.4524274762271 5.0
  endloop
endfacet
facet normal -0.636699324583935 -0.7711121643926784 0.0
  outer loop
    vertex 83.96187793312744 -118.40987585879644 5.0
    vertex 82.80230375726387 -117.4524274762271 5.0
    vertex 83.96187793312744 -118.40987585879644 0.0
  endloop
endfacet
facet normal -0.2444512278156294 -0.9696615890192987 0.0
  outer loop
    vertex 83.96187793312744 -118.40987585879644 0.0
    vertex 85.22783561721975 -118.72902319199335 0.0
    vertex 83.96187793312744 -118.40987585879644 5.0
  endloop
endfacet
facet normal -0.2444512278156294 -0.9696615890192987 0.0
  outer loop
    vertex 85.22783561721975 -118.72902319199335 5.0
    vertex 83.96187793312744 -118.40987585879644 5.0
    vertex 85.22783561721975 -118.72902319199335 0.0
  endloop
endfacet
facet normal 0.2538981284121013 -0.9672309653794341 0.0
  outer loop
    vertex 85.22783561721975 -118.72902319199335 0.0
    vertex 86.07889942773059 -118.50561894173427 0.0
    vertex 85.22783561721975 -118.72902319199335 5.0
  endloop
endfacet
facet normal 0.2538981284121013 -0.9672309653794341 0.0
  outer loop
    vertex 86.07889942773059 -118.50561894173427 5.0
    vertex 85.22783561721975 -118.72902319199335 5.0
    vertex 86.07889942773059 -118.50561894173427 0.0
  endloop
endfacet
facet normal 0.7579005565154959 -0.6523700992791603 0.0
  outer loop
    vertex 86.07889942773059 -118.50561894173427 5.0
    vertex 86.07889942773059 -118.50561894173427 0.0
    vertex 86.80230366666481 -117.6651934288548 5.0
  endloop
endfacet
facet normal 0.7579005565154959 -0.6523700992791603 0.0
  outer loop
    vertex 86.80230366666481 -117.6651934288548 0.0
    vertex 86.80230366666481 -117.6651934288548 5.0
    vertex 86.07889942773059 -118.50561894173427 0.0
  endloop
endfacet
facet normal 0.7120341740651742 -0.7021448105364914 0.0
  outer loop
    vertex 86.80230366666481 -117.6651934288548 5.0
    vertex 86.80230366666481 -117.6651934288548 0.0
    vertex 87.55762279849317 -116.89923599939506 5.0
  endloop
endfacet
facet normal 0.7120341740651742 -0.7021448105364914 0.0
  outer loop
    vertex 87.55762279849317 -116.89923599939506 0.0
    vertex 87.55762279849317 -116.89923599939506 5.0
    vertex 86.80230366666481 -117.6651934288548 0.0
  endloop
endfacet
facet normal 0.12308784851877057 -0.9923957786825881 0.0
  outer loop
    vertex 87.55762279849317 -116.89923599939506 0.0
    vertex 88.9299631929419 -116.72902323729289 0.0
    vertex 87.55762279849317 -116.89923599939506 5.0
  endloop
endfacet
facet normal 0.12308784851877057 -0.9923957786825881 0.0
  outer loop
    vertex 88.9299631929419 -116.72902323729289 5.0
    vertex 87.55762279849317 -116.89923599939506 5.0
    vertex 88.9299631929419 -116.72902323729289 0.0
  endloop
endfacet
facet normal -0.382683432365087 -0.9238795325112878 0.0
  outer loop
    vertex 92.696610669403 -103.32610287013053 2.8999999999999946
    vertex 93.22720877017746 -103.5458837996407 2.8999999999999946
    vertex 92.696610669403 -103.32610287013053 4.999999999999995
  endloop
endfacet
facet normal -0.382683432365087 -0.9238795325112878 0.0
  outer loop
    vertex 93.22720877017746 -103.5458837996407 4.999999999999995
    vertex 92.696610669403 -103.32610287013053 4.999999999999995
    vertex 93.22720877017746 -103.5458837996407 2.8999999999999946
  endloop
endfacet
facet normal 0.9914448613738098 0.13052619222005607 0.0
  outer loop
    vertex 90.00217195234151 -106.02054158719201 4.999999999999995
    vertex 90.00217195234151 -106.02054158719201 2.8999999999999946
    vertex 89.92720877017746 -105.45113968796646 4.999999999999995
  endloop
endfacet
facet normal 0.9914448613738098 0.13052619222005607 0.0
  outer loop
    vertex 89.92720877017746 -105.45113968796646 2.8999999999999946
    vertex 89.92720877017746 -105.45113968796646 4.999999999999995
    vertex 90.00217195234151 -106.02054158719201 2.8999999999999946
  endloop
endfacet
facet normal 0.382683432365087 0.9238795325112878 0.0
  outer loop
    vertex 91.55780687095191 -107.57617650580241 2.8999999999999946
    vertex 91.02720877017745 -107.35639557629223 2.8999999999999946
    vertex 91.55780687095191 -107.57617650580241 4.999999999999995
  endloop
endfacet
facet normal 0.382683432365087 0.9238795325112878 0.0
  outer loop
    vertex 91.02720877017745 -107.35639557629223 4.999999999999995
    vertex 91.55780687095191 -107.57617650580241 4.999999999999995
    vertex 91.02720877017745 -107.35639557629223 2.8999999999999946
  endloop
endfacet
facet normal -0.7933533402912305 0.6087614290087267 0.0
  outer loop
    vertex 93.68284368878786 -107.00677460657685 2.8999999999999946
    vertex 93.68284368878786 -107.00677460657685 4.999999999999995
    vertex 94.03246465850322 -106.55113968796647 2.8999999999999946
  endloop
endfacet
facet normal -0.7933533402912305 0.6087614290087267 0.0
  outer loop
    vertex 94.03246465850322 -106.55113968796647 4.999999999999995
    vertex 94.03246465850322 -106.55113968796647 2.8999999999999946
    vertex 93.68284368878786 -107.00677460657685 4.999999999999995
  endloop
endfacet
facet normal 0.7933533402912305 -0.6087614290087267 -0.0
  outer loop
    vertex 90.22195288185169 -104.35113968796647 4.999999999999995
    vertex 90.22195288185169 -104.35113968796647 2.8999999999999946
    vertex 90.57157385156705 -103.89550476935608 4.999999999999995
  endloop
endfacet
facet normal 0.7933533402912305 -0.6087614290087267 -0.0
  outer loop
    vertex 90.57157385156705 -103.89550476935608 2.8999999999999946
    vertex 90.57157385156705 -103.89550476935608 4.999999999999995
    vertex 90.22195288185169 -104.35113968796647 2.8999999999999946
  endloop
endfacet
facet normal 0.923879532511285 -0.38268343236509395 -0.0
  outer loop
    vertex 90.00217195234151 -104.88173778874092 4.999999999999995
    vertex 90.00217195234151 -104.88173778874092 2.8999999999999946
    vertex 90.22195288185169 -104.35113968796647 4.999999999999995
  endloop
endfacet
facet normal 0.923879532511285 -0.38268343236509395 -0.0
  outer loop
    vertex 90.22195288185169 -104.35113968796647 2.8999999999999946
    vertex 90.22195288185169 -104.35113968796647 4.999999999999995
    vertex 90.00217195234151 -104.88173778874092 2.8999999999999946
  endloop
endfacet
facet normal 0.1305261922200586 -0.9914448613738096 0.0
  outer loop
    vertex 91.55780687095191 -103.32610287013053 2.8999999999999946
    vertex 92.12720877017746 -103.25113968796647 2.8999999999999946
    vertex 91.55780687095191 -103.32610287013053 4.999999999999995
  endloop
endfacet
facet normal 0.1305261922200586 -0.9914448613738096 0.0
  outer loop
    vertex 92.12720877017746 -103.25113968796647 4.999999999999995
    vertex 91.55780687095191 -103.32610287013053 4.999999999999995
    vertex 92.12720877017746 -103.25113968796647 2.8999999999999946
  endloop
endfacet
facet normal 0.6087614290087295 -0.7933533402912284 0.0
  outer loop
    vertex 90.57157385156705 -103.89550476935608 2.8999999999999946
    vertex 91.02720877017745 -103.5458837996407 2.8999999999999946
    vertex 90.57157385156705 -103.89550476935608 4.999999999999995
  endloop
endfacet
facet normal 0.6087614290087295 -0.7933533402912284 0.0
  outer loop
    vertex 91.02720877017745 -103.5458837996407 4.999999999999995
    vertex 90.57157385156705 -103.89550476935608 4.999999999999995
    vertex 91.02720877017745 -103.5458837996407 2.8999999999999946
  endloop
endfacet
facet normal 0.0 0.0 1.0
  outer loop
    vertex 94.32720877017745 -105.45113968796646 2.8999999999999946
    vertex 94.2522455880134 -104.88173778874092 2.8999999999999946
    vertex 94.2522455880134 -106.02054158719201 2.8999999999999946
  endloop
endfacet
facet normal 0.0 0.0 1.0
  outer loop
    vertex 94.03246465850322 -106.55113968796647 2.8999999999999946
    vertex 94.2522455880134 -106.02054158719201 2.8999999999999946
    vertex 94.2522455880134 -104.88173778874092 2.8999999999999946
  endloop
endfacet
facet normal 0.0 0.0 1.0
  outer loop
    vertex 94.03246465850322 -104.35113968796647 2.8999999999999946
    vertex 94.03246465850322 -106.55113968796647 2.8999999999999946
    vertex 94.2522455880134 -104.88173778874092 2.8999999999999946
  endloop
endfacet
facet normal 0.0 0.0 1.0
  outer loop
    vertex 93.68284368878786 -107.00677460657685 2.8999999999999946
    vertex 94.03246465850322 -106.55113968796647 2.8999999999999946
    vertex 94.03246465850322 -104.35113968796647 2.8999999999999946
  endloop
endfacet
facet normal 0.0 0.0 1.0
  outer loop
    vertex 93.68284368878786 -103.89550476935605 2.8999999999999946
    vertex 93.68284368878786 -107.00677460657685 2.8999999999999946
    vertex 94.03246465850322 -104.35113968796647 2.8999999999999946
  endloop
endfacet
facet normal 0.0 0.0 1.0
  outer loop
    vertex 93.22720877017746 -107.35639557629223 2.8999999999999946
    vertex 93.68284368878786 -107.00677460657685 2.8999999999999946
    vertex 93.68284368878786 -103.89550476935605 2.8999999999999946
  endloop
endfacet
facet normal 0.0 0.0 1.0
  outer loop
    vertex 93.22720877017746 -103.5458837996407 2.8999999999999946
    vertex 93.22720877017746 -107.35639557629223 2.8999999999999946
    vertex 93.68284368878786 -103.89550476935605 2.8999999999999946
  endloop
endfacet
facet normal 0.0 0.0 1.0
  outer loop
    vertex 92.696610669403 -107.57617650580241 2.8999999999999946
    vertex 93.22720877017746 -107.35639557629223 2.8999999999999946
    vertex 93.22720877017746 -103.5458837996407 2.8999999999999946
  endloop
endfacet
facet normal 0.0 0.0 1.0
  outer loop
    vertex 92.696610669403 -103.32610287013053 2.8999999999999946
    vertex 92.696610669403 -107.57617650580241 2.8999999999999946
    vertex 93.22720877017746 -103.5458837996407 2.8999999999999946
  endloop
endfacet
facet normal 0.0 0.0 1.0
  outer loop
    vertex 92.12720877017746 -107.65113968796646 2.8999999999999946
    vertex 92.696610669403 -107.57617650580241 2.8999999999999946
    vertex 92.696610669403 -103.32610287013053 2.8999999999999946
  endloop
endfacet
facet normal 0.0 0.0 1.0
  outer loop
    vertex 92.12720877017746 -103.25113968796647 2.8999999999999946
    vertex 92.12720877017746 -107.65113968796646 2.8999999999999946
    vertex 92.696610669403 -103.32610287013053 2.8999999999999946
  endloop
endfacet
facet normal 0.0 0.0 1.0
  outer loop
    vertex 91.55780687095191 -107.57617650580241 2.8999999999999946
    vertex 92.12720877017746 -107.65113968796646 2.8999999999999946
    vertex 92.12720877017746 -103.25113968796647 2.8999999999999946
  endloop
endfacet
facet normal 0.0 0.0 1.0
  outer loop
    vertex 91.55780687095191 -103.32610287013053 2.8999999999999946
    vertex 91.55780687095191 -107.57617650580241 2.8999999999999946
    vertex 92.12720877017746 -103.25113968796647 2.8999999999999946
  endloop
endfacet
facet normal 0.0 0.0 1.0
  outer loop
    vertex 91.02720877017745 -107.35639557629223 2.8999999999999946
    vertex 91.55780687095191 -107.57617650580241 2.8999999999999946
    vertex 91.55780687095191 -103.32610287013053 2.8999999999999946
  endloop
endfacet
facet normal 0.0 0.0 1.0
  outer loop
    vertex 91.02720877017745 -103.5458837996407 2.8999999999999946
    vertex 91.02720877017745 -107.35639557629223 2.8999999999999946
    vertex 91.55780687095191 -103.32610287013053 2.8999999999999946
  endloop
endfacet
facet normal 0.0 0.0 1.0
  outer loop
    vertex 90.57157385156705 -107.00677460657688 2.8999999999999946
    vertex 91.02720877017745 -107.35639557629223 2.8999999999999946
    vertex 91.02720877017745 -103.5458837996407 2.8999999999999946
  endloop
endfacet
facet normal 0.0 0.0 1.0
  outer loop
    vertex 90.57157385156705 -103.89550476935608 2.8999999999999946
    vertex 90.57157385156705 -107.00677460657688 2.8999999999999946
    vertex 91.02720877017745 -103.5458837996407 2.8999999999999946
  endloop
endfacet
facet normal 0.0 0.0 1.0
  outer loop
    vertex 90.22195288185169 -106.55113968796647 2.8999999999999946
    vertex 90.57157385156705 -107.00677460657688 2.8999999999999946
    vertex 90.57157385156705 -103.89550476935608 2.8999999999999946
  endloop
endfacet
facet normal 0.0 0.0 1.0
  outer loop
    vertex 90.22195288185169 -104.35113968796647 2.8999999999999946
    vertex 90.22195288185169 -106.55113968796647 2.8999999999999946
    vertex 90.57157385156705 -103.89550476935608 2.8999999999999946
  endloop
endfacet
facet normal 0.0 0.0 1.0
  outer loop
    vertex 90.00217195234151 -106.02054158719201 2.8999999999999946
    vertex 90.22195288185169 -106.55113968796647 2.8999999999999946
    vertex 90.22195288185169 -104.35113968796647 2.8999999999999946
  endloop
endfacet
facet normal 0.0 0.0 1.0
  outer loop
    vertex 90.00217195234151 -104.88173778874092 2.8999999999999946
    vertex 90.00217195234151 -106.02054158719201 2.8999999999999946
    vertex 90.22195288185169 -104.35113968796647 2.8999999999999946
  endloop
endfacet
facet normal 0.0 0.0 1.0
  outer loop
    vertex 89.92720877017746 -105.45113968796646 2.8999999999999946
    vertex 90.00217195234151 -106.02054158719201 2.8999999999999946
    vertex 90.00217195234151 -104.88173778874092 2.8999999999999946
  endloop
endfacet
facet normal -0.923879532511285 0.38268343236509395 0.0
  outer loop
    vertex 94.03246465850322 -106.55113968796647 2.8999999999999946
    vertex 94.03246465850322 -106.55113968796647 4.999999999999995
    vertex 94.2522455880134 -106.02054158719201 2.8999999999999946
  endloop
endfacet
facet normal -0.923879532511285 0.38268343236509395 0.0
  outer loop
    vertex 94.2522455880134 -106.02054158719201 4.999999999999995
    vertex 94.2522455880134 -106.02054158719201 2.8999999999999946
    vertex 94.03246465850322 -106.55113968796647 4.999999999999995
  endloop
endfacet
facet normal -0.382683432365087 0.9238795325112878 0.0
  outer loop
    vertex 93.22720877017746 -107.35639557629223 2.8999999999999946
    vertex 92.696610669403 -107.57617650580241 2.8999999999999946
    vertex 93.22720877017746 -107.35639557629223 4.999999999999995
  endloop
endfacet
facet normal -0.382683432365087 0.9238795325112878 0.0
  outer loop
    vertex 92.696610669403 -107.57617650580241 4.999999999999995
    vertex 93.22720877017746 -107.35639557629223 4.999999999999995
    vertex 92.696610669403 -107.57617650580241 2.8999999999999946
  endloop
endfacet
facet normal -0.6087614290087295 0.7933533402912284 0.0
  outer loop
    vertex 93.68284368878786 -107.00677460657685 2.8999999999999946
    vertex 93.22720877017746 -107.35639557629223 2.8999999999999946
    vertex 93.68284368878786 -107.00677460657685 4.999999999999995
  endloop
endfacet
facet normal -0.6087614290087295 0.7933533402912284 0.0
  outer loop
    vertex 93.22720877017746 -107.35639557629223 4.999999999999995
    vertex 93.68284368878786 -107.00677460657685 4.999999999999995
    vertex 93.22720877017746 -107.35639557629223 2.8999999999999946
  endloop
endfacet
facet normal 0.9914448613738098 -0.13052619222005607 -0.0
  outer loop
    vertex 89.92720877017746 -105.45113968796646 4.999999999999995
    vertex 89.92720877017746 -105.45113968796646 2.8999999999999946
    vertex 90.00217195234151 -104.88173778874092 4.999999999999995
  endloop
endfacet
facet normal 0.9914448613738098 -0.13052619222005607 -0.0
  outer loop
    vertex 90.00217195234151 -104.88173778874092 2.8999999999999946
    vertex 90.00217195234151 -104.88173778874092 4.999999999999995
    vertex 89.92720877017746 -105.45113968796646 2.8999999999999946
  endloop
endfacet
facet normal -0.1305261922200586 0.9914448613738096 0.0
  outer loop
    vertex 92.696610669403 -107.57617650580241 2.8999999999999946
    vertex 92.12720877017746 -107.65113968796646 2.8999999999999946
    vertex 92.696610669403 -107.57617650580241 4.999999999999995
  endloop
endfacet
facet normal -0.1305261922200586 0.9914448613738096 0.0
  outer loop
    vertex 92.12720877017746 -107.65113968796646 4.999999999999995
    vertex 92.696610669403 -107.57617650580241 4.999999999999995
    vertex 92.12720877017746 -107.65113968796646 2.8999999999999946
  endloop
endfacet
facet normal 0.6087614290087048 0.7933533402912474 0.0
  outer loop
    vertex 91.02720877017745 -107.35639557629223 2.8999999999999946
    vertex 90.57157385156705 -107.00677460657688 2.8999999999999946
    vertex 91.02720877017745 -107.35639557629223 4.999999999999995
  endloop
endfacet
facet normal 0.6087614290087048 0.7933533402912474 0.0
  outer loop
    vertex 90.57157385156705 -107.00677460657688 4.999999999999995
    vertex 91.02720877017745 -107.35639557629223 4.999999999999995
    vertex 90.57157385156705 -107.00677460657688 2.8999999999999946
  endloop
endfacet
facet normal 0.793353340291245 0.6087614290087077 0.0
  outer loop
    vertex 90.57157385156705 -107.00677460657688 4.999999999999995
    vertex 90.57157385156705 -107.00677460657688 2.8999999999999946
    vertex 90.22195288185169 -106.55113968796647 4.999999999999995
  endloop
endfacet
facet normal 0.793353340291245 0.6087614290087077 0.0
  outer loop
    vertex 90.22195288185169 -106.55113968796647 2.8999999999999946
    vertex 90.22195288185169 -106.55113968796647 4.999999999999995
    vertex 90.57157385156705 -107.00677460657688 2.8999999999999946
  endloop
endfacet
facet normal 0.923879532511285 0.38268343236509395 0.0
  outer loop
    vertex 90.22195288185169 -106.55113968796647 4.999999999999995
    vertex 90.22195288185169 -106.55113968796647 2.8999999999999946
    vertex 90.00217195234151 -106.02054158719201 4.999999999999995
  endloop
endfacet
facet normal 0.923879532511285 0.38268343236509395 0.0
  outer loop
    vertex 90.00217195234151 -106.02054158719201 2.8999999999999946
    vertex 90.00217195234151 -106.02054158719201 4.999999999999995
    vertex 90.22195288185169 -106.55113968796647 2.8999999999999946
  endloop
endfacet
facet normal 0.382683432365087 -0.9238795325112878 0.0
  outer loop
    vertex 91.02720877017745 -103.5458837996407 2.8999999999999946
    vertex 91.55780687095191 -103.32610287013053 2.8999999999999946
    vertex 91.02720877017745 -103.5458837996407 4.999999999999995
  endloop
endfacet
facet normal 0.382683432365087 -0.9238795325112878 0.0
  outer loop
    vertex 91.55780687095191 -103.32610287013053 4.999999999999995
    vertex 91.02720877017745 -103.5458837996407 4.999999999999995
    vertex 91.55780687095191 -103.32610287013053 2.8999999999999946
  endloop
endfacet
facet normal 0.1305261922200586 0.9914448613738096 0.0
  outer loop
    vertex 92.12720877017746 -107.65113968796646 2.8999999999999946
    vertex 91.55780687095191 -107.57617650580241 2.8999999999999946
    vertex 92.12720877017746 -107.65113968796646 4.999999999999995
  endloop
endfacet
facet normal 0.1305261922200586 0.9914448613738096 0.0
  outer loop
    vertex 91.55780687095191 -107.57617650580241 4.999999999999995
    vertex 92.12720877017746 -107.65113968796646 4.999999999999995
    vertex 91.55780687095191 -107.57617650580241 2.8999999999999946
  endloop
endfacet
facet normal -0.6087614290087048 -0.7933533402912474 0.0
  outer loop
    vertex 93.22720877017746 -103.5458837996407 2.8999999999999946
    vertex 93.68284368878786 -103.89550476935605 2.8999999999999946
    vertex 93.22720877017746 -103.5458837996407 4.999999999999995
  endloop
endfacet
facet normal -0.6087614290087048 -0.7933533402912474 0.0
  outer loop
    vertex 93.68284368878786 -103.89550476935605 4.999999999999995
    vertex 93.22720877017746 -103.5458837996407 4.999999999999995
    vertex 93.68284368878786 -103.89550476935605 2.8999999999999946
  endloop
endfacet
facet normal -0.9914448613738098 0.13052619222005607 0.0
  outer loop
    vertex 94.2522455880134 -106.02054158719201 2.8999999999999946
    vertex 94.2522455880134 -106.02054158719201 4.999999999999995
    vertex 94.32720877017745 -105.45113968796646 2.8999999999999946
  endloop
endfacet
facet normal -0.9914448613738098 0.13052619222005607 0.0
  outer loop
    vertex 94.32720877017745 -105.45113968796646 4.999999999999995
    vertex 94.32720877017745 -105.45113968796646 2.8999999999999946
    vertex 94.2522455880134 -106.02054158719201 4.999999999999995
  endloop
endfacet
facet normal -0.9914448613738098 -0.13052619222005607 0.0
  outer loop
    vertex 94.32720877017745 -105.45113968796646 2.8999999999999946
    vertex 94.32720877017745 -105.45113968796646 4.999999999999995
    vertex 94.2522455880134 -104.88173778874092 2.8999999999999946
  endloop
endfacet
facet normal -0.9914448613738098 -0.13052619222005607 0.0
  outer loop
    vertex 94.2522455880134 -104.88173778874092 4.999999999999995
    vertex 94.2522455880134 -104.88173778874092 2.8999999999999946
    vertex 94.32720877017745 -105.45113968796646 4.999999999999995
  endloop
endfacet
facet normal -0.793353340291245 -0.6087614290087077 0.0
  outer loop
    vertex 94.03246465850322 -104.35113968796647 2.8999999999999946
    vertex 94.03246465850322 -104.35113968796647 4.999999999999995
    vertex 93.68284368878786 -103.89550476935605 2.8999999999999946
  endloop
endfacet
facet normal -0.793353340291245 -0.6087614290087077 0.0
  outer loop
    vertex 93.68284368878786 -103.89550476935605 4.999999999999995
    vertex 93.68284368878786 -103.89550476935605 2.8999999999999946
    vertex 94.03246465850322 -104.35113968796647 4.999999999999995
  endloop
endfacet
facet normal -0.923879532511285 -0.38268343236509395 0.0
  outer loop
    vertex 94.2522455880134 -104.88173778874092 2.8999999999999946
    vertex 94.2522455880134 -104.88173778874092 4.999999999999995
    vertex 94.03246465850322 -104.35113968796647 2.8999999999999946
  endloop
endfacet
facet normal -0.923879532511285 -0.38268343236509395 0.0
  outer loop
    vertex 94.03246465850322 -104.35113968796647 4.999999999999995
    vertex 94.03246465850322 -104.35113968796647 2.8999999999999946
    vertex 94.2522455880134 -104.88173778874092 4.999999999999995
  endloop
endfacet
facet normal -0.13052619222005862 -0.9914448613738096 0.0
  outer loop
    vertex 92.12720877017746 -103.25113968796647 2.8999999999999946
    vertex 92.696610669403 -103.32610287013053 2.8999999999999946
    vertex 92.12720877017746 -103.25113968796647 4.999999999999995
  endloop
endfacet
facet normal -0.13052619222005862 -0.9914448613738096 0.0
  outer loop
    vertex 92.696610669403 -103.32610287013053 4.999999999999995
    vertex 92.12720877017746 -103.25113968796647 4.999999999999995
    vertex 92.696610669403 -103.32610287013053 2.8999999999999946
  endloop
endfacet
endsolid ABC
