solid ABC
facet normal 0.0 0.0 -1.0
  outer loop
    vertex 144.0039344990207 -115.34355407631011 0.0
    vertex 143.50925613256547 -116.63610811618301 0.0
    vertex 143.83638214909232 -114.50046862998028 0.0
  endloop
endfacet
facet normal 0.0 0.0 -1.0
  outer loop
    vertex 143.3337217482434 -113.80100091975923 0.0
    vertex 143.83638214909232 -114.50046862998028 0.0
    vertex 143.50925613256547 -116.63610811618301 0.0
  endloop
endfacet
facet normal 0.0 0.0 -1.0
  outer loop
    vertex 142.025211139583 -117.57759657890107 0.0
    vertex 143.3337217482434 -113.80100091975923 0.0
    vertex 143.50925613256547 -116.63610811618301 0.0
  endloop
endfacet
facet normal 0.0 0.0 -1.0
  outer loop
    vertex 142.5917008474968 -113.33025546499597 0.0
    vertex 143.3337217482434 -113.80100091975923 0.0
    vertex 142.025211139583 -117.57759657890107 0.0
  endloop
endfacet
facet normal 0.0 0.0 -1.0
  outer loop
    vertex 141.70606221064142 -113.17334135950748 0.0
    vertex 142.5917008474968 -113.33025546499597 0.0
    vertex 142.025211139583 -117.57759657890107 0.0
  endloop
endfacet
facet normal 0.0 0.0 -1.0
  outer loop
    vertex 138.58904254719866 -118.48717254234192 0.0
    vertex 141.70606221064142 -113.17334135950748 0.0
    vertex 142.025211139583 -117.57759657890107 0.0
  endloop
endfacet
facet normal 0.0 0.0 -1.0
  outer loop
    vertex 138.83372185016736 -113.70525624107677 0.0
    vertex 141.70606221064142 -113.17334135950748 0.0
    vertex 138.58904254719866 -118.48717254234192 0.0
  endloop
endfacet
facet normal 0.0 0.0 -1.0
  outer loop
    vertex 136.64223253810195 -113.8967455984417 0.0
    vertex 138.83372185016736 -113.70525624107677 0.0
    vertex 138.58904254719866 -118.48717254234192 0.0
  endloop
endfacet
facet normal 0.0 0.0 -1.0
  outer loop
    vertex 134.53584960708764 -118.79036250887901 0.0
    vertex 136.64223253810195 -113.8967455984417 0.0
    vertex 138.58904254719866 -118.48717254234192 0.0
  endloop
endfacet
facet normal 0.0 0.0 -1.0
  outer loop
    vertex 134.34967809534692 -113.60419387634451 0.0
    vertex 136.64223253810195 -113.8967455984417 0.0
    vertex 134.53584960708764 -118.79036250887901 0.0
  endloop
endfacet
facet normal 0.0 0.0 -1.0
  outer loop
    vertex 130.96669998048122 -118.56695937564116 0.0
    vertex 134.34967809534692 -113.60419387634451 0.0
    vertex 134.53584960708764 -118.79036250887901 0.0
  endloop
endfacet
facet normal 0.0 0.0 -1.0
  outer loop
    vertex 132.57840284291268 -112.72653285898929 0.0
    vertex 134.34967809534692 -113.60419387634451 0.0
    vertex 130.96669998048122 -118.56695937564116 0.0
  endloop
endfacet
facet normal 0.0 0.0 -1.0
  outer loop
    vertex 131.38159236470102 -111.38078866074667 0.0
    vertex 132.57840284291268 -112.72653285898929 0.0
    vertex 130.96669998048122 -118.56695937564116 0.0
  endloop
endfacet
facet normal 0.0 0.0 -1.0
  outer loop
    vertex 130.98265819820486 -109.85419249851522 0.0
    vertex 131.38159236470102 -111.38078866074667 0.0
    vertex 130.96669998048122 -118.56695937564116 0.0
  endloop
endfacet
facet normal 0.0 0.0 -1.0
  outer loop
    vertex 140.1103175659336 -103.53504370547222 0.0
    vertex 139.5252111962074 -105.72653301753763 0.0
    vertex 139.8337218275176 -102.84355435943218 0.0
  endloop
endfacet
facet normal 0.0 0.0 -1.0
  outer loop
    vertex 138.0677644207076 -102.15206501339212 0.0
    vertex 139.8337218275176 -102.84355435943218 0.0
    vertex 139.5252111962074 -105.72653301753763 0.0
  endloop
endfacet
facet normal 0.0 0.0 -1.0
  outer loop
    vertex 138.94808350981114 -106.57227908880722 0.0
    vertex 138.0677644207076 -102.15206501339212 0.0
    vertex 139.5252111962074 -105.72653301753763 0.0
  endloop
endfacet
facet normal 0.0 0.0 -1.0
  outer loop
    vertex 138.38691334964918 -106.8541925664645 0.0
    vertex 138.0677644207076 -102.15206501339212 0.0
    vertex 138.94808350981114 -106.57227908880722 0.0
  endloop
endfacet
facet normal 0.0 0.0 -1.0
  outer loop
    vertex 137.5571261344011 -106.68397980436234 0.0
    vertex 138.0677644207076 -102.15206501339212 0.0
    vertex 138.38691334964918 -106.8541925664645 0.0
  endloop
endfacet
facet normal 0.0 0.0 -1.0
  outer loop
    vertex 136.75393453025276 -101.50312986851588 0.0
    vertex 138.0677644207076 -102.15206501339212 0.0
    vertex 137.5571261344011 -106.68397980436234 0.0
  endloop
endfacet
facet normal 0.0 0.0 -1.0
  outer loop
    vertex 135.38691341759846 -106.40738406594632 0.0
    vertex 136.75393453025276 -101.50312986851588 0.0
    vertex 137.5571261344011 -106.68397980436234 0.0
  endloop
endfacet
facet normal 0.0 0.0 -1.0
  outer loop
    vertex 135.49329639391232 -100.44993739237046 0.0
    vertex 136.75393453025276 -101.50312986851588 0.0
    vertex 135.38691341759846 -106.40738406594632 0.0
  endloop
endfacet
facet normal 0.0 0.0 -1.0
  outer loop
    vertex 134.79116758002814 -99.45525675000613 0.0
    vertex 135.49329639391232 -100.44993739237046 0.0
    vertex 135.38691341759846 -106.40738406594632 0.0
  endloop
endfacet
facet normal 0.0 0.0 -1.0
  outer loop
    vertex 133.6262742819446 -106.64940412695398 0.0
    vertex 134.79116758002814 -99.45525675000613 0.0
    vertex 135.38691341759846 -106.40738406594632 0.0
  endloop
endfacet
facet normal 0.0 0.0 -1.0
  outer loop
    vertex 134.5571262023504 -98.38610765188167 0.0
    vertex 134.79116758002814 -99.45525675000613 0.0
    vertex 133.6262742819446 -106.64940412695398 0.0
  endloop
endfacet
facet normal 0.0 0.0 -1.0
  outer loop
    vertex 143.45074302218865 -94.51376731405736 0.0
    vertex 142.9720196287763 -96.0882353635024 0.0
    vertex 142.81244835579483 -93.10951181394852 0.0
  endloop
endfacet
facet normal 0.0 0.0 -1.0
  outer loop
    vertex 142.4799984298141 -96.64674692000118 0.0
    vertex 142.81244835579483 -93.10951181394852 0.0
    vertex 142.9720196287763 -96.0882353635024 0.0
  endloop
endfacet
facet normal 0.0 0.0 -1.0
  outer loop
    vertex 140.89755159065612 -91.79036312042267 0.0
    vertex 142.81244835579483 -93.10951181394852 0.0
    vertex 142.4799984298141 -96.64674692000118 0.0
  endloop
endfacet
facet normal 0.0 0.0 -1.0
  outer loop
    vertex 141.96138135379468 -96.83291619769939 0.0
    vertex 140.89755159065612 -91.79036312042267 0.0
    vertex 142.4799984298141 -96.64674692000118 0.0
  endloop
endfacet
facet normal 0.0 0.0 -1.0
  outer loop
    vertex 141.25925371012323 -96.5988736498089 0.0
    vertex 140.89755159065612 -91.79036312042267 0.0
    vertex 141.96138135379468 -96.83291619769939 0.0
  endloop
endfacet
facet normal 0.0 0.0 -1.0
  outer loop
    vertex 139.18478567200307 -95.59887367245867 0.0
    vertex 140.89755159065612 -91.79036312042267 0.0
    vertex 141.25925371012323 -96.5988736498089 0.0
  endloop
endfacet
facet normal 0.0 0.0 -1.0
  outer loop
    vertex 137.057126145726 -90.48185251176226 0.0
    vertex 140.89755159065612 -91.79036312042267 0.0
    vertex 139.18478567200307 -95.59887367245867 0.0
  endloop
endfacet
facet normal 0.0 0.0 -1.0
  outer loop
    vertex 137.81244527755433 -95.40738431509374 0.0
    vertex 137.057126145726 -90.48185251176226 0.0
    vertex 139.18478567200307 -95.59887367245867 0.0
  endloop
endfacet
facet normal 0.0 0.0 -1.0
  outer loop
    vertex 136.56776397595885 -95.6281278872216 0.0
    vertex 137.057126145726 -90.48185251176226 0.0
    vertex 137.81244527755433 -95.40738431509374 0.0
  endloop
endfacet
facet normal 0.0 0.0 -1.0
  outer loop
    vertex 132.7273390097521 -89.98185252308714 0.0
    vertex 137.057126145726 -90.48185251176226 0.0
    vertex 136.56776397595885 -95.6281278872216 0.0
  endloop
endfacet
facet normal 0.0 0.0 -1.0
  outer loop
    vertex 135.5145729891751 -96.29036301849872 0.0
    vertex 132.7273390097521 -89.98185252308714 0.0
    vertex 136.56776397595885 -95.6281278872216 0.0
  endloop
endfacet
facet normal 0.0 0.0 -1.0
  outer loop
    vertex 134.79648670224807 -97.25578811631293 0.0
    vertex 132.7273390097521 -89.98185252308714 0.0
    vertex 135.5145729891751 -96.29036301849872 0.0
  endloop
endfacet
facet normal 0.0 0.0 -1.0
  outer loop
    vertex 134.5571262023504 -98.38610765188167 0.0
    vertex 132.7273390097521 -89.98185252308714 0.0
    vertex 134.79648670224807 -97.25578811631293 0.0
  endloop
endfacet
facet normal 0.0 0.0 -1.0
  outer loop
    vertex 133.6262742819446 -106.64940412695398 0.0
    vertex 132.7273390097521 -89.98185252308714 0.0
    vertex 134.5571262023504 -98.38610765188167 0.0
  endloop
endfacet
facet normal 0.0 0.0 -1.0
  outer loop
    vertex 132.21670072344557 -107.3754691504024 0.0
    vertex 132.7273390097521 -89.98185252308714 0.0
    vertex 133.6262742819446 -106.64940412695398 0.0
  endloop
endfacet
facet normal 0.0 0.0 -1.0
  outer loop
    vertex 128.83904002867223 -90.35951020070348 0.0
    vertex 132.7273390097521 -89.98185252308714 0.0
    vertex 132.21670072344557 -107.3754691504024 0.0
  endloop
endfacet
facet normal 0.0 0.0 -1.0
  outer loop
    vertex 131.2911672869619 -108.47919185146716 0.0
    vertex 128.83904002867223 -90.35951020070348 0.0
    vertex 132.21670072344557 -107.3754691504024 0.0
  endloop
endfacet
facet normal 0.0 0.0 -1.0
  outer loop
    vertex 130.98265819820486 -109.85419249851522 0.0
    vertex 128.83904002867223 -90.35951020070348 0.0
    vertex 131.2911672869619 -108.47919185146716 0.0
  endloop
endfacet
facet normal 0.0 0.0 -1.0
  outer loop
    vertex 130.96669998048122 -118.56695937564116 0.0
    vertex 128.83904002867223 -90.35951020070348 0.0
    vertex 130.98265819820486 -109.85419249851522 0.0
  endloop
endfacet
facet normal 0.0 0.0 -1.0
  outer loop
    vertex 127.70606252773814 -117.89674550784264 0.0
    vertex 128.83904002867223 -90.35951020070348 0.0
    vertex 130.96669998048122 -118.56695937564116 0.0
  endloop
endfacet
facet normal 0.0 0.0 -1.0
  outer loop
    vertex 125.42946683462165 -91.49249078674389 0.0
    vertex 128.83904002867223 -90.35951020070348 0.0
    vertex 127.70606252773814 -117.89674550784264 0.0
  endloop
endfacet
facet normal 0.0 0.0 -1.0
  outer loop
    vertex 125.79116895408877 -100.64142674973539 0.0
    vertex 125.42946683462165 -91.49249078674389 0.0
    vertex 127.70606252773814 -117.89674550784264 0.0
  endloop
endfacet
facet normal 0.0 0.0 -1.0
  outer loop
    vertex 125.11031790568009 -99.76908634396177 0.0
    vertex 125.42946683462165 -91.49249078674389 0.0
    vertex 125.79116895408877 -100.64142674973539 0.0
  endloop
endfacet
facet normal 0.0 0.0 -1.0
  outer loop
    vertex 124.30446620850692 -92.22919229931307 0.0
    vertex 125.42946683462165 -91.49249078674389 0.0
    vertex 125.11031790568009 -99.76908634396177 0.0
  endloop
endfacet
facet normal 0.0 0.0 -1.0
  outer loop
    vertex 123.30712345184116 -97.75844857035331 0.0
    vertex 124.30446620850692 -92.22919229931307 0.0
    vertex 125.11031790568009 -99.76908634396177 0.0
  endloop
endfacet
facet normal 0.0 0.0 -1.0
  outer loop
    vertex 123.44010517755257 -93.20525670539693 0.0
    vertex 124.30446620850692 -92.22919229931307 0.0
    vertex 123.30712345184116 -97.75844857035331 0.0
  endloop
endfacet
facet normal 0.0 0.0 -1.0
  outer loop
    vertex 122.8895723575752 -94.34089477807926 0.0
    vertex 123.44010517755257 -93.20525670539693 0.0
    vertex 123.30712345184116 -97.75844857035331 0.0
  endloop
endfacet
facet normal 0.0 0.0 -1.0
  outer loop
    vertex 122.85632746803563 -96.68132279022868 0.0
    vertex 122.8895723575752 -94.34089477807926 0.0
    vertex 123.30712345184116 -97.75844857035331 0.0
  endloop
endfacet
facet normal 0.0 0.0 -1.0
  outer loop
    vertex 122.70606264098696 -95.55632048193313 0.0
    vertex 122.8895723575752 -94.34089477807926 0.0
    vertex 122.85632746803563 -96.68132279022868 0.0
  endloop
endfacet
facet normal 0.0 0.0 -1.0
  outer loop
    vertex 127.70606252773814 -117.89674550784264 0.0
    vertex 123.91350678917055 -116.29036432082253 0.0
    vertex 125.79116895408877 -100.64142674973539 0.0
  endloop
endfacet
facet normal 0.0 0.0 -1.0
  outer loop
    vertex 125.48797898755168 -101.16270381239667 0.0
    vertex 125.79116895408877 -100.64142674973539 0.0
    vertex 123.91350678917055 -116.29036432082253 0.0
  endloop
endfacet
facet normal 0.0 0.0 -1.0
  outer loop
    vertex 124.5784030241108 -101.49249056024622 0.0
    vertex 125.48797898755168 -101.16270381239667 0.0
    vertex 123.91350678917055 -116.29036432082253 0.0
  endloop
endfacet
facet normal 0.0 0.0 -1.0
  outer loop
    vertex 122.06509713023873 -102.29036188525974 0.0
    vertex 124.5784030241108 -101.49249056024622 0.0
    vertex 123.91350678917055 -116.29036432082253 0.0
  endloop
endfacet
facet normal 0.0 0.0 -1.0
  outer loop
    vertex 122.41218075602097 -115.2238763795527 0.0
    vertex 122.06509713023873 -102.29036188525974 0.0
    vertex 123.91350678917055 -116.29036432082253 0.0
  endloop
endfacet
facet normal 0.0 0.0 -1.0
  outer loop
    vertex 121.17414778206745 -113.98185197949279 0.0
    vertex 122.06509713023873 -102.29036188525974 0.0
    vertex 122.41218075602097 -115.2238763795527 0.0
  endloop
endfacet
facet normal 0.0 0.0 -1.0
  outer loop
    vertex 120.2698853025488 -103.62014476737451 0.0
    vertex 122.06509713023873 -102.29036188525974 0.0
    vertex 121.17414778206745 -113.98185197949279 0.0
  endloop
endfacet
facet normal 0.0 0.0 -1.0
  outer loop
    vertex 119.41882574735702 -111.07227829539394 0.0
    vertex 120.2698853025488 -103.62014476737451 0.0
    vertex 121.17414778206745 -113.98185197949279 0.0
  endloop
endfacet
facet normal 0.0 0.0 -1.0
  outer loop
    vertex 119.19276215540283 -105.48184519063297 0.0
    vertex 120.2698853025488 -103.62014476737451 0.0
    vertex 119.41882574735702 -111.07227829539394 0.0
  endloop
endfacet
facet normal 0.0 0.0 -1.0
  outer loop
    vertex 118.97999779851976 -109.50978101362989 0.0
    vertex 119.19276215540283 -105.48184519063297 0.0
    vertex 119.41882574735702 -111.07227829539394 0.0
  endloop
endfacet
facet normal 0.0 0.0 -1.0
  outer loop
    vertex 118.83372230316266 -107.87546913907752 0.0
    vertex 119.19276215540283 -105.48184519063297 0.0
    vertex 118.97999779851976 -109.50978101362989 0.0
  endloop
endfacet
facet normal 0.0 0.0 1.0
  outer loop
    vertex 140.1103175659336 -103.53504370547222 5.0
    vertex 139.8337218275176 -102.84355435943218 5.0
    vertex 139.5252111962074 -105.72653301753763 5.0
  endloop
endfacet
facet normal 0.0 0.0 1.0
  outer loop
    vertex 138.0677644207076 -102.15206501339212 5.0
    vertex 139.5252111962074 -105.72653301753763 5.0
    vertex 139.8337218275176 -102.84355435943218 5.0
  endloop
endfacet
facet normal 0.0 0.0 1.0
  outer loop
    vertex 138.94808350981114 -106.57227908880722 5.0
    vertex 139.5252111962074 -105.72653301753763 5.0
    vertex 138.0677644207076 -102.15206501339212 5.0
  endloop
endfacet
facet normal 0.0 0.0 1.0
  outer loop
    vertex 138.38691334964918 -106.8541925664645 5.0
    vertex 138.94808350981114 -106.57227908880722 5.0
    vertex 138.0677644207076 -102.15206501339212 5.0
  endloop
endfacet
facet normal 0.0 0.0 1.0
  outer loop
    vertex 137.5571261344011 -106.68397980436234 5.0
    vertex 138.38691334964918 -106.8541925664645 5.0
    vertex 138.0677644207076 -102.15206501339212 5.0
  endloop
endfacet
facet normal 0.0 0.0 1.0
  outer loop
    vertex 136.75393453025276 -101.50312986851588 5.0
    vertex 137.5571261344011 -106.68397980436234 5.0
    vertex 138.0677644207076 -102.15206501339212 5.0
  endloop
endfacet
facet normal 0.0 0.0 1.0
  outer loop
    vertex 135.38691341759846 -106.40738406594632 5.0
    vertex 137.5571261344011 -106.68397980436234 5.0
    vertex 136.75393453025276 -101.50312986851588 5.0
  endloop
endfacet
facet normal 0.0 0.0 1.0
  outer loop
    vertex 135.49329639391232 -100.44993739237046 5.0
    vertex 135.38691341759846 -106.40738406594632 5.0
    vertex 136.75393453025276 -101.50312986851588 5.0
  endloop
endfacet
facet normal 0.0 0.0 1.0
  outer loop
    vertex 134.79116758002814 -99.45525675000613 5.0
    vertex 135.38691341759846 -106.40738406594632 5.0
    vertex 135.49329639391232 -100.44993739237046 5.0
  endloop
endfacet
facet normal 0.0 0.0 1.0
  outer loop
    vertex 133.6262742819446 -106.64940412695398 5.0
    vertex 135.38691341759846 -106.40738406594632 5.0
    vertex 134.79116758002814 -99.45525675000613 5.0
  endloop
endfacet
facet normal 0.0 0.0 1.0
  outer loop
    vertex 134.5571262023504 -98.38610765188167 5.0
    vertex 133.6262742819446 -106.64940412695398 5.0
    vertex 134.79116758002814 -99.45525675000613 5.0
  endloop
endfacet
facet normal 0.0 0.0 1.0
  outer loop
    vertex 144.0039344990207 -115.34355407631011 5.0
    vertex 143.83638214909232 -114.50046862998028 5.0
    vertex 143.50925613256547 -116.63610811618301 5.0
  endloop
endfacet
facet normal 0.0 0.0 1.0
  outer loop
    vertex 143.3337217482434 -113.80100091975923 5.0
    vertex 143.50925613256547 -116.63610811618301 5.0
    vertex 143.83638214909232 -114.50046862998028 5.0
  endloop
endfacet
facet normal 0.0 0.0 1.0
  outer loop
    vertex 142.025211139583 -117.57759657890107 5.0
    vertex 143.50925613256547 -116.63610811618301 5.0
    vertex 143.3337217482434 -113.80100091975923 5.0
  endloop
endfacet
facet normal 0.0 0.0 1.0
  outer loop
    vertex 142.5917008474968 -113.33025546499597 5.0
    vertex 142.025211139583 -117.57759657890107 5.0
    vertex 143.3337217482434 -113.80100091975923 5.0
  endloop
endfacet
facet normal 0.0 0.0 1.0
  outer loop
    vertex 141.70606221064142 -113.17334135950748 5.0
    vertex 142.025211139583 -117.57759657890107 5.0
    vertex 142.5917008474968 -113.33025546499597 5.0
  endloop
endfacet
facet normal 0.0 0.0 1.0
  outer loop
    vertex 138.58904254719866 -118.48717254234192 5.0
    vertex 142.025211139583 -117.57759657890107 5.0
    vertex 141.70606221064142 -113.17334135950748 5.0
  endloop
endfacet
facet normal 0.0 0.0 1.0
  outer loop
    vertex 138.83372185016736 -113.70525624107677 5.0
    vertex 138.58904254719866 -118.48717254234192 5.0
    vertex 141.70606221064142 -113.17334135950748 5.0
  endloop
endfacet
facet normal 0.0 0.0 1.0
  outer loop
    vertex 136.64223253810195 -113.8967455984417 5.0
    vertex 138.58904254719866 -118.48717254234192 5.0
    vertex 138.83372185016736 -113.70525624107677 5.0
  endloop
endfacet
facet normal 0.0 0.0 1.0
  outer loop
    vertex 134.53584960708764 -118.79036250887901 5.0
    vertex 138.58904254719866 -118.48717254234192 5.0
    vertex 136.64223253810195 -113.8967455984417 5.0
  endloop
endfacet
facet normal 0.0 0.0 1.0
  outer loop
    vertex 134.34967809534692 -113.60419387634451 5.0
    vertex 134.53584960708764 -118.79036250887901 5.0
    vertex 136.64223253810195 -113.8967455984417 5.0
  endloop
endfacet
facet normal 0.0 0.0 1.0
  outer loop
    vertex 130.96669998048122 -118.56695937564116 5.0
    vertex 134.53584960708764 -118.79036250887901 5.0
    vertex 134.34967809534692 -113.60419387634451 5.0
  endloop
endfacet
facet normal 0.0 0.0 1.0
  outer loop
    vertex 132.57840284291268 -112.72653285898929 5.0
    vertex 130.96669998048122 -118.56695937564116 5.0
    vertex 134.34967809534692 -113.60419387634451 5.0
  endloop
endfacet
facet normal 0.0 0.0 1.0
  outer loop
    vertex 131.38159236470102 -111.38078866074667 5.0
    vertex 130.96669998048122 -118.56695937564116 5.0
    vertex 132.57840284291268 -112.72653285898929 5.0
  endloop
endfacet
facet normal 0.0 0.0 1.0
  outer loop
    vertex 130.98265819820486 -109.85419249851522 5.0
    vertex 130.96669998048122 -118.56695937564116 5.0
    vertex 131.38159236470102 -111.38078866074667 5.0
  endloop
endfacet
facet normal 0.0 0.0 1.0
  outer loop
    vertex 132.94154105970978 -102.79217314394175 4.999999999999995
    vertex 132.86657787754572 -103.3615750431673 4.999999999999995
    vertex 133.6262742819446 -106.64940412695398 5.0
  endloop
endfacet
facet normal 0.0 0.0 1.0
  outer loop
    vertex 132.21670072344557 -107.3754691504024 5.0
    vertex 133.6262742819446 -106.64940412695398 5.0
    vertex 132.86657787754572 -103.3615750431673 4.999999999999995
  endloop
endfacet
facet normal 0.0 0.0 1.0
  outer loop
    vertex 132.64679694803556 -103.89217314394175 4.999999999999995
    vertex 132.21670072344557 -107.3754691504024 5.0
    vertex 132.86657787754572 -103.3615750431673 4.999999999999995
  endloop
endfacet
facet normal 0.0 0.0 1.0
  outer loop
    vertex 132.2971759783202 -104.34780806255213 4.999999999999995
    vertex 132.21670072344557 -107.3754691504024 5.0
    vertex 132.64679694803556 -103.89217314394175 4.999999999999995
  endloop
endfacet
facet normal 0.0 0.0 1.0
  outer loop
    vertex 131.84154105970978 -104.69742903226751 4.999999999999995
    vertex 132.21670072344557 -107.3754691504024 5.0
    vertex 132.2971759783202 -104.34780806255213 4.999999999999995
  endloop
endfacet
facet normal 0.0 0.0 1.0
  outer loop
    vertex 131.2911672869619 -108.47919185146716 5.0
    vertex 132.21670072344557 -107.3754691504024 5.0
    vertex 131.84154105970978 -104.69742903226751 4.999999999999995
  endloop
endfacet
facet normal 0.0 0.0 1.0
  outer loop
    vertex 131.31094295893533 -104.91720996177769 4.999999999999995
    vertex 131.2911672869619 -108.47919185146716 5.0
    vertex 131.84154105970978 -104.69742903226751 4.999999999999995
  endloop
endfacet
facet normal 0.0 0.0 1.0
  outer loop
    vertex 130.7415410597098 -104.99217314394174 4.999999999999995
    vertex 131.2911672869619 -108.47919185146716 5.0
    vertex 131.31094295893533 -104.91720996177769 4.999999999999995
  endloop
endfacet
facet normal 0.0 0.0 1.0
  outer loop
    vertex 130.98265819820486 -109.85419249851522 5.0
    vertex 131.2911672869619 -108.47919185146716 5.0
    vertex 130.7415410597098 -104.99217314394174 4.999999999999995
  endloop
endfacet
facet normal 0.0 0.0 1.0
  outer loop
    vertex 130.96669998048122 -118.56695937564116 5.0
    vertex 130.98265819820486 -109.85419249851522 5.0
    vertex 130.7415410597098 -104.99217314394174 4.999999999999995
  endloop
endfacet
facet normal 0.0 0.0 1.0
  outer loop
    vertex 127.70606252773814 -117.89674550784264 5.0
    vertex 130.96669998048122 -118.56695937564116 5.0
    vertex 130.7415410597098 -104.99217314394174 4.999999999999995
  endloop
endfacet
facet normal 0.0 0.0 1.0
  outer loop
    vertex 130.17213916048422 -104.91720996177769 4.999999999999995
    vertex 127.70606252773814 -117.89674550784264 5.0
    vertex 130.7415410597098 -104.99217314394174 4.999999999999995
  endloop
endfacet
facet normal 0.0 0.0 1.0
  outer loop
    vertex 129.6415410597098 -104.69742903226751 4.999999999999995
    vertex 127.70606252773814 -117.89674550784264 5.0
    vertex 130.17213916048422 -104.91720996177769 4.999999999999995
  endloop
endfacet
facet normal 0.0 0.0 1.0
  outer loop
    vertex 129.18590614109937 -104.34780806255216 4.999999999999995
    vertex 127.70606252773814 -117.89674550784264 5.0
    vertex 129.6415410597098 -104.69742903226751 4.999999999999995
  endloop
endfacet
facet normal 0.0 0.0 1.0
  outer loop
    vertex 128.83628517138402 -103.89217314394175 4.999999999999995
    vertex 127.70606252773814 -117.89674550784264 5.0
    vertex 129.18590614109937 -104.34780806255216 4.999999999999995
  endloop
endfacet
facet normal 0.0 0.0 1.0
  outer loop
    vertex 128.61650424187386 -103.3615750431673 4.999999999999995
    vertex 127.70606252773814 -117.89674550784264 5.0
    vertex 128.83628517138402 -103.89217314394175 4.999999999999995
  endloop
endfacet
facet normal 0.0 0.0 1.0
  outer loop
    vertex 128.5415410597098 -102.79217314394175 4.999999999999995
    vertex 127.70606252773814 -117.89674550784264 5.0
    vertex 128.61650424187386 -103.3615750431673 4.999999999999995
  endloop
endfacet
facet normal 0.0 0.0 1.0
  outer loop
    vertex 127.70606252773814 -117.89674550784264 5.0
    vertex 125.79116895408877 -100.64142674973539 5.0
    vertex 123.91350678917055 -116.29036432082253 5.0
  endloop
endfacet
facet normal 0.0 0.0 1.0
  outer loop
    vertex 125.48797898755168 -101.16270381239667 5.0
    vertex 123.91350678917055 -116.29036432082253 5.0
    vertex 125.79116895408877 -100.64142674973539 5.0
  endloop
endfacet
facet normal 0.0 0.0 1.0
  outer loop
    vertex 124.5784030241108 -101.49249056024622 5.0
    vertex 123.91350678917055 -116.29036432082253 5.0
    vertex 125.48797898755168 -101.16270381239667 5.0
  endloop
endfacet
facet normal 0.0 0.0 1.0
  outer loop
    vertex 122.06509713023873 -102.29036188525974 5.0
    vertex 123.91350678917055 -116.29036432082253 5.0
    vertex 124.5784030241108 -101.49249056024622 5.0
  endloop
endfacet
facet normal 0.0 0.0 1.0
  outer loop
    vertex 122.41218075602097 -115.2238763795527 5.0
    vertex 123.91350678917055 -116.29036432082253 5.0
    vertex 122.06509713023873 -102.29036188525974 5.0
  endloop
endfacet
facet normal 0.0 0.0 1.0
  outer loop
    vertex 121.17414778206745 -113.98185197949279 5.0
    vertex 122.41218075602097 -115.2238763795527 5.0
    vertex 122.06509713023873 -102.29036188525974 5.0
  endloop
endfacet
facet normal 0.0 0.0 1.0
  outer loop
    vertex 120.2698853025488 -103.62014476737451 5.0
    vertex 121.17414778206745 -113.98185197949279 5.0
    vertex 122.06509713023873 -102.29036188525974 5.0
  endloop
endfacet
facet normal 0.0 0.0 1.0
  outer loop
    vertex 119.41882574735702 -111.07227829539394 5.0
    vertex 121.17414778206745 -113.98185197949279 5.0
    vertex 120.2698853025488 -103.62014476737451 5.0
  endloop
endfacet
facet normal 0.0 0.0 1.0
  outer loop
    vertex 119.19276215540283 -105.48184519063297 5.0
    vertex 119.41882574735702 -111.07227829539394 5.0
    vertex 120.2698853025488 -103.62014476737451 5.0
  endloop
endfacet
facet normal 0.0 0.0 1.0
  outer loop
    vertex 118.97999779851976 -109.50978101362989 5.0
    vertex 119.41882574735702 -111.07227829539394 5.0
    vertex 119.19276215540283 -105.48184519063297 5.0
  endloop
endfacet
facet normal 0.0 0.0 1.0
  outer loop
    vertex 118.83372230316266 -107.87546913907752 5.0
    vertex 118.97999779851976 -109.50978101362989 5.0
    vertex 119.19276215540283 -105.48184519063297 5.0
  endloop
endfacet
facet normal 0.0 0.0 1.0
  outer loop
    vertex 143.45074302218865 -94.51376731405736 5.0
    vertex 142.81244835579483 -93.10951181394852 5.0
    vertex 142.9720196287763 -96.0882353635024 5.0
  endloop
endfacet
facet normal 0.0 0.0 1.0
  outer loop
    vertex 142.4799984298141 -96.64674692000118 5.0
    vertex 142.9720196287763 -96.0882353635024 5.0
    vertex 142.81244835579483 -93.10951181394852 5.0
  endloop
endfacet
facet normal 0.0 0.0 1.0
  outer loop
    vertex 140.89755159065612 -91.79036312042267 5.0
    vertex 142.4799984298141 -96.64674692000118 5.0
    vertex 142.81244835579483 -93.10951181394852 5.0
  endloop
endfacet
facet normal 0.0 0.0 1.0
  outer loop
    vertex 141.96138135379468 -96.83291619769939 5.0
    vertex 142.4799984298141 -96.64674692000118 5.0
    vertex 140.89755159065612 -91.79036312042267 5.0
  endloop
endfacet
facet normal 0.0 0.0 1.0
  outer loop
    vertex 141.25925371012323 -96.5988736498089 5.0
    vertex 141.96138135379468 -96.83291619769939 5.0
    vertex 140.89755159065612 -91.79036312042267 5.0
  endloop
endfacet
facet normal 0.0 0.0 1.0
  outer loop
    vertex 139.18478567200307 -95.59887367245867 5.0
    vertex 141.25925371012323 -96.5988736498089 5.0
    vertex 140.89755159065612 -91.79036312042267 5.0
  endloop
endfacet
facet normal 0.0 0.0 1.0
  outer loop
    vertex 137.057126145726 -90.48185251176226 5.0
    vertex 139.18478567200307 -95.59887367245867 5.0
    vertex 140.89755159065612 -91.79036312042267 5.0
  endloop
endfacet
facet normal 0.0 0.0 1.0
  outer loop
    vertex 137.81244527755433 -95.40738431509374 5.0
    vertex 139.18478567200307 -95.59887367245867 5.0
    vertex 137.057126145726 -90.48185251176226 5.0
  endloop
endfacet
facet normal 0.0 0.0 1.0
  outer loop
    vertex 136.56776397595885 -95.6281278872216 5.0
    vertex 137.81244527755433 -95.40738431509374 5.0
    vertex 137.057126145726 -90.48185251176226 5.0
  endloop
endfacet
facet normal 0.0 0.0 1.0
  outer loop
    vertex 132.7273390097521 -89.98185252308714 5.0
    vertex 136.56776397595885 -95.6281278872216 5.0
    vertex 137.057126145726 -90.48185251176226 5.0
  endloop
endfacet
facet normal 0.0 0.0 1.0
  outer loop
    vertex 135.5145729891751 -96.29036301849872 5.0
    vertex 136.56776397595885 -95.6281278872216 5.0
    vertex 132.7273390097521 -89.98185252308714 5.0
  endloop
endfacet
facet normal 0.0 0.0 1.0
  outer loop
    vertex 134.79648670224807 -97.25578811631293 5.0
    vertex 135.5145729891751 -96.29036301849872 5.0
    vertex 132.7273390097521 -89.98185252308714 5.0
  endloop
endfacet
facet normal 0.0 0.0 1.0
  outer loop
    vertex 134.5571262023504 -98.38610765188167 5.0
    vertex 134.79648670224807 -97.25578811631293 5.0
    vertex 132.7273390097521 -89.98185252308714 5.0
  endloop
endfacet
facet normal 0.0 0.0 1.0
  outer loop
    vertex 133.6262742819446 -106.64940412695398 5.0
    vertex 134.5571262023504 -98.38610765188167 5.0
    vertex 132.7273390097521 -89.98185252308714 5.0
  endloop
endfacet
facet normal 0.0 0.0 1.0
  outer loop
    vertex 132.94154105970978 -102.79217314394175 4.999999999999995
    vertex 133.6262742819446 -106.64940412695398 5.0
    vertex 132.7273390097521 -89.98185252308714 5.0
  endloop
endfacet
facet normal 0.0 0.0 1.0
  outer loop
    vertex 132.86657787754572 -102.2227712447162 4.999999999999995
    vertex 132.94154105970978 -102.79217314394175 4.999999999999995
    vertex 132.7273390097521 -89.98185252308714 5.0
  endloop
endfacet
facet normal 0.0 0.0 1.0
  outer loop
    vertex 132.64679694803556 -101.69217314394174 4.999999999999995
    vertex 132.86657787754572 -102.2227712447162 4.999999999999995
    vertex 132.7273390097521 -89.98185252308714 5.0
  endloop
endfacet
facet normal 0.0 0.0 1.0
  outer loop
    vertex 128.83904002867223 -90.35951020070348 5.0
    vertex 132.64679694803556 -101.69217314394174 4.999999999999995
    vertex 132.7273390097521 -89.98185252308714 5.0
  endloop
endfacet
facet normal 0.0 0.0 1.0
  outer loop
    vertex 132.2971759783202 -101.23653822533133 4.999999999999995
    vertex 132.64679694803556 -101.69217314394174 4.999999999999995
    vertex 128.83904002867223 -90.35951020070348 5.0
  endloop
endfacet
facet normal 0.0 0.0 1.0
  outer loop
    vertex 131.84154105970978 -100.886917255616 4.999999999999995
    vertex 132.2971759783202 -101.23653822533133 4.999999999999995
    vertex 128.83904002867223 -90.35951020070348 5.0
  endloop
endfacet
facet normal 0.0 0.0 1.0
  outer loop
    vertex 131.31094295893533 -100.6671363261058 4.999999999999995
    vertex 131.84154105970978 -100.886917255616 4.999999999999995
    vertex 128.83904002867223 -90.35951020070348 5.0
  endloop
endfacet
facet normal 0.0 0.0 1.0
  outer loop
    vertex 130.7415410597098 -100.59217314394175 4.999999999999995
    vertex 131.31094295893533 -100.6671363261058 4.999999999999995
    vertex 128.83904002867223 -90.35951020070348 5.0
  endloop
endfacet
facet normal 0.0 0.0 1.0
  outer loop
    vertex 130.17213916048422 -100.6671363261058 4.999999999999995
    vertex 130.7415410597098 -100.59217314394175 4.999999999999995
    vertex 128.83904002867223 -90.35951020070348 5.0
  endloop
endfacet
facet normal 0.0 0.0 1.0
  outer loop
    vertex 129.6415410597098 -100.886917255616 4.999999999999995
    vertex 130.17213916048422 -100.6671363261058 4.999999999999995
    vertex 128.83904002867223 -90.35951020070348 5.0
  endloop
endfacet
facet normal 0.0 0.0 1.0
  outer loop
    vertex 129.18590614109937 -101.23653822533136 4.999999999999995
    vertex 129.6415410597098 -100.886917255616 4.999999999999995
    vertex 128.83904002867223 -90.35951020070348 5.0
  endloop
endfacet
facet normal 0.0 0.0 1.0
  outer loop
    vertex 128.83628517138402 -101.69217314394174 4.999999999999995
    vertex 129.18590614109937 -101.23653822533136 4.999999999999995
    vertex 128.83904002867223 -90.35951020070348 5.0
  endloop
endfacet
facet normal 0.0 0.0 1.0
  outer loop
    vertex 125.42946683462165 -91.49249078674389 5.0
    vertex 128.83628517138402 -101.69217314394174 4.999999999999995
    vertex 128.83904002867223 -90.35951020070348 5.0
  endloop
endfacet
facet normal 0.0 0.0 1.0
  outer loop
    vertex 128.61650424187386 -102.2227712447162 4.999999999999995
    vertex 128.83628517138402 -101.69217314394174 4.999999999999995
    vertex 125.42946683462165 -91.49249078674389 5.0
  endloop
endfacet
facet normal 0.0 0.0 1.0
  outer loop
    vertex 128.5415410597098 -102.79217314394175 4.999999999999995
    vertex 128.61650424187386 -102.2227712447162 4.999999999999995
    vertex 125.42946683462165 -91.49249078674389 5.0
  endloop
endfacet
facet normal 0.0 0.0 1.0
  outer loop
    vertex 127.70606252773814 -117.89674550784264 5.0
    vertex 128.5415410597098 -102.79217314394175 4.999999999999995
    vertex 125.42946683462165 -91.49249078674389 5.0
  endloop
endfacet
facet normal 0.0 0.0 1.0
  outer loop
    vertex 125.79116895408877 -100.64142674973539 5.0
    vertex 127.70606252773814 -117.89674550784264 5.0
    vertex 125.42946683462165 -91.49249078674389 5.0
  endloop
endfacet
facet normal 0.0 0.0 1.0
  outer loop
    vertex 125.11031790568009 -99.76908634396177 5.0
    vertex 125.79116895408877 -100.64142674973539 5.0
    vertex 125.42946683462165 -91.49249078674389 5.0
  endloop
endfacet
facet normal 0.0 0.0 1.0
  outer loop
    vertex 124.30446620850692 -92.22919229931307 5.0
    vertex 125.11031790568009 -99.76908634396177 5.0
    vertex 125.42946683462165 -91.49249078674389 5.0
  endloop
endfacet
facet normal 0.0 0.0 1.0
  outer loop
    vertex 123.30712345184116 -97.75844857035331 5.0
    vertex 125.11031790568009 -99.76908634396177 5.0
    vertex 124.30446620850692 -92.22919229931307 5.0
  endloop
endfacet
facet normal 0.0 0.0 1.0
  outer loop
    vertex 123.44010517755257 -93.20525670539693 5.0
    vertex 123.30712345184116 -97.75844857035331 5.0
    vertex 124.30446620850692 -92.22919229931307 5.0
  endloop
endfacet
facet normal 0.0 0.0 1.0
  outer loop
    vertex 122.8895723575752 -94.34089477807926 5.0
    vertex 123.30712345184116 -97.75844857035331 5.0
    vertex 123.44010517755257 -93.20525670539693 5.0
  endloop
endfacet
facet normal 0.0 0.0 1.0
  outer loop
    vertex 122.85632746803563 -96.68132279022868 5.0
    vertex 123.30712345184116 -97.75844857035331 5.0
    vertex 122.8895723575752 -94.34089477807926 5.0
  endloop
endfacet
facet normal 0.0 0.0 1.0
  outer loop
    vertex 122.70606264098696 -95.55632048193313 5.0
    vertex 122.85632746803563 -96.68132279022868 5.0
    vertex 122.8895723575752 -94.34089477807926 5.0
  endloop
endfacet
facet normal -0.09667179639555115 0.9953163134308898 0.0
  outer loop
    vertex 132.7273390097521 -89.98185252308714 0.0
    vertex 128.83904002867223 -90.35951020070348 0.0
    vertex 132.7273390097521 -89.98185252308714 5.0
  endloop
endfacet
facet normal -0.09667179639555115 0.9953163134308898 0.0
  outer loop
    vertex 128.83904002867223 -90.35951020070348 5.0
    vertex 132.7273390097521 -89.98185252308714 5.0
    vertex 128.83904002867223 -90.35951020070348 0.0
  endloop
endfacet
facet normal -0.3153399205299139 0.9489787850738222 0.0
  outer loop
    vertex 128.83904002867223 -90.35951020070348 0.0
    vertex 125.42946683462165 -91.49249078674389 0.0
    vertex 128.83904002867223 -90.35951020070348 5.0
  endloop
endfacet
facet normal -0.3153399205299139 0.9489787850738222 0.0
  outer loop
    vertex 125.42946683462165 -91.49249078674389 5.0
    vertex 128.83904002867223 -90.35951020070348 5.0
    vertex 125.42946683462165 -91.49249078674389 0.0
  endloop
endfacet
facet normal -0.5478348456153953 0.8365865059451749 0.0
  outer loop
    vertex 125.42946683462165 -91.49249078674389 0.0
    vertex 124.30446620850692 -92.22919229931307 0.0
    vertex 125.42946683462165 -91.49249078674389 5.0
  endloop
endfacet
facet normal -0.5478348456153953 0.8365865059451749 0.0
  outer loop
    vertex 124.30446620850692 -92.22919229931307 5.0
    vertex 125.42946683462165 -91.49249078674389 5.0
    vertex 124.30446620850692 -92.22919229931307 0.0
  endloop
endfacet
facet normal -0.7486464835905118 0.66296941302564 0.0
  outer loop
    vertex 123.44010517755257 -93.20525670539693 0.0
    vertex 123.44010517755257 -93.20525670539693 5.0
    vertex 124.30446620850692 -92.22919229931307 0.0
  endloop
endfacet
facet normal -0.7486464835905118 0.66296941302564 0.0
  outer loop
    vertex 124.30446620850692 -92.22919229931307 5.0
    vertex 124.30446620850692 -92.22919229931307 0.0
    vertex 123.44010517755257 -93.20525670539693 5.0
  endloop
endfacet
facet normal -0.8998388591195878 0.4362224519879265 0.0
  outer loop
    vertex 122.8895723575752 -94.34089477807926 0.0
    vertex 122.8895723575752 -94.34089477807926 5.0
    vertex 123.44010517755257 -93.20525670539693 0.0
  endloop
endfacet
facet normal -0.8998388591195878 0.4362224519879265 0.0
  outer loop
    vertex 123.44010517755257 -93.20525670539693 5.0
    vertex 123.44010517755257 -93.20525670539693 0.0
    vertex 122.8895723575752 -94.34089477807926 5.0
  endloop
endfacet
facet normal -0.9887931748770187 0.14929185281396135 0.0
  outer loop
    vertex 122.70606264098696 -95.55632048193313 0.0
    vertex 122.70606264098696 -95.55632048193313 5.0
    vertex 122.8895723575752 -94.34089477807926 0.0
  endloop
endfacet
facet normal -0.9887931748770187 0.14929185281396135 0.0
  outer loop
    vertex 122.8895723575752 -94.34089477807926 5.0
    vertex 122.8895723575752 -94.34089477807926 0.0
    vertex 122.70606264098696 -95.55632048193313 5.0
  endloop
endfacet
facet normal -0.9911973426155495 -0.13239270369576042 0.0
  outer loop
    vertex 122.85632746803563 -96.68132279022868 0.0
    vertex 122.85632746803563 -96.68132279022868 5.0
    vertex 122.70606264098696 -95.55632048193313 0.0
  endloop
endfacet
facet normal -0.9911973426155495 -0.13239270369576042 0.0
  outer loop
    vertex 122.70606264098696 -95.55632048193313 5.0
    vertex 122.70606264098696 -95.55632048193313 0.0
    vertex 122.85632746803563 -96.68132279022868 5.0
  endloop
endfacet
facet normal -0.9224696228661158 -0.38606967621045624 0.0
  outer loop
    vertex 123.30712345184116 -97.75844857035331 0.0
    vertex 123.30712345184116 -97.75844857035331 5.0
    vertex 122.85632746803563 -96.68132279022868 0.0
  endloop
endfacet
facet normal -0.9224696228661158 -0.38606967621045624 0.0
  outer loop
    vertex 122.85632746803563 -96.68132279022868 5.0
    vertex 122.85632746803563 -96.68132279022868 0.0
    vertex 123.30712345184116 -97.75844857035331 5.0
  endloop
endfacet
facet normal -0.7444675340364404 -0.6676586633645231 0.0
  outer loop
    vertex 125.11031790568009 -99.76908634396177 0.0
    vertex 125.11031790568009 -99.76908634396177 5.0
    vertex 123.30712345184116 -97.75844857035331 0.0
  endloop
endfacet
facet normal -0.7444675340364404 -0.6676586633645231 0.0
  outer loop
    vertex 123.30712345184116 -97.75844857035331 5.0
    vertex 123.30712345184116 -97.75844857035331 0.0
    vertex 125.11031790568009 -99.76908634396177 5.0
  endloop
endfacet
facet normal -0.7883157834850717 -0.6152708554029824 0.0
  outer loop
    vertex 125.79116895408877 -100.64142674973539 0.0
    vertex 125.79116895408877 -100.64142674973539 5.0
    vertex 125.11031790568009 -99.76908634396177 0.0
  endloop
endfacet
facet normal -0.7883157834850717 -0.6152708554029824 0.0
  outer loop
    vertex 125.11031790568009 -99.76908634396177 5.0
    vertex 125.11031790568009 -99.76908634396177 0.0
    vertex 125.79116895408877 -100.64142674973539 5.0
  endloop
endfacet
facet normal -0.864419333399431 0.5027715346410172 0.0
  outer loop
    vertex 125.48797898755168 -101.16270381239667 0.0
    vertex 125.48797898755168 -101.16270381239667 5.0
    vertex 125.79116895408877 -100.64142674973539 0.0
  endloop
endfacet
facet normal -0.864419333399431 0.5027715346410172 0.0
  outer loop
    vertex 125.79116895408877 -100.64142674973539 5.0
    vertex 125.79116895408877 -100.64142674973539 0.0
    vertex 125.48797898755168 -101.16270381239667 5.0
  endloop
endfacet
facet normal -0.34085912365890353 0.9401143854970438 0.0
  outer loop
    vertex 125.48797898755168 -101.16270381239667 0.0
    vertex 124.5784030241108 -101.49249056024622 0.0
    vertex 125.48797898755168 -101.16270381239667 5.0
  endloop
endfacet
facet normal -0.34085912365890353 0.9401143854970438 0.0
  outer loop
    vertex 124.5784030241108 -101.49249056024622 5.0
    vertex 125.48797898755168 -101.16270381239667 5.0
    vertex 124.5784030241108 -101.49249056024622 0.0
  endloop
endfacet
facet normal -0.3025779053016255 0.953124656707233 0.0
  outer loop
    vertex 124.5784030241108 -101.49249056024622 0.0
    vertex 122.06509713023873 -102.29036188525974 0.0
    vertex 124.5784030241108 -101.49249056024622 5.0
  endloop
endfacet
facet normal -0.3025779053016255 0.953124656707233 0.0
  outer loop
    vertex 122.06509713023873 -102.29036188525974 5.0
    vertex 124.5784030241108 -101.49249056024622 5.0
    vertex 122.06509713023873 -102.29036188525974 0.0
  endloop
endfacet
facet normal -0.5952264936861693 0.8035579762618681 0.0
  outer loop
    vertex 122.06509713023873 -102.29036188525974 0.0
    vertex 120.2698853025488 -103.62014476737451 0.0
    vertex 122.06509713023873 -102.29036188525974 5.0
  endloop
endfacet
facet normal -0.5952264936861693 0.8035579762618681 0.0
  outer loop
    vertex 120.2698853025488 -103.62014476737451 5.0
    vertex 122.06509713023873 -102.29036188525974 5.0
    vertex 120.2698853025488 -103.62014476737451 0.0
  endloop
endfacet
facet normal -0.8655680590648853 0.5007913089567823 0.0
  outer loop
    vertex 119.19276215540283 -105.48184519063297 0.0
    vertex 119.19276215540283 -105.48184519063297 5.0
    vertex 120.2698853025488 -103.62014476737451 0.0
  endloop
endfacet
facet normal -0.8655680590648853 0.5007913089567823 0.0
  outer loop
    vertex 120.2698853025488 -103.62014476737451 5.0
    vertex 120.2698853025488 -103.62014476737451 0.0
    vertex 119.19276215540283 -105.48184519063297 5.0
  endloop
endfacet
facet normal -0.9889365795481548 0.14833894172332474 0.0
  outer loop
    vertex 118.83372230316266 -107.87546913907752 0.0
    vertex 118.83372230316266 -107.87546913907752 5.0
    vertex 119.19276215540283 -105.48184519063297 0.0
  endloop
endfacet
facet normal -0.9889365795481548 0.14833894172332474 0.0
  outer loop
    vertex 119.19276215540283 -105.48184519063297 5.0
    vertex 119.19276215540283 -105.48184519063297 0.0
    vertex 118.83372230316266 -107.87546913907752 5.0
  endloop
endfacet
facet normal -0.9960185290663522 -0.08914645117165478 0.0
  outer loop
    vertex 118.97999779851976 -109.50978101362989 0.0
    vertex 118.97999779851976 -109.50978101362989 5.0
    vertex 118.83372230316266 -107.87546913907752 0.0
  endloop
endfacet
facet normal -0.9960185290663522 -0.08914645117165478 0.0
  outer loop
    vertex 118.83372230316266 -107.87546913907752 5.0
    vertex 118.83372230316266 -107.87546913907752 0.0
    vertex 118.97999779851976 -109.50978101362989 5.0
  endloop
endfacet
facet normal -0.9627511498950807 -0.2703890222914018 0.0
  outer loop
    vertex 119.41882574735702 -111.07227829539394 0.0
    vertex 119.41882574735702 -111.07227829539394 5.0
    vertex 118.97999779851976 -109.50978101362989 0.0
  endloop
endfacet
facet normal -0.9627511498950807 -0.2703890222914018 0.0
  outer loop
    vertex 118.97999779851976 -109.50978101362989 5.0
    vertex 118.97999779851976 -109.50978101362989 0.0
    vertex 119.41882574735702 -111.07227829539394 5.0
  endloop
endfacet
facet normal -0.8562469123272028 -0.5165667673497122 0.0
  outer loop
    vertex 121.17414778206745 -113.98185197949279 0.0
    vertex 121.17414778206745 -113.98185197949279 5.0
    vertex 119.41882574735702 -111.07227829539394 0.0
  endloop
endfacet
facet normal -0.8562469123272028 -0.5165667673497122 0.0
  outer loop
    vertex 119.41882574735702 -111.07227829539394 5.0
    vertex 119.41882574735702 -111.07227829539394 0.0
    vertex 121.17414778206745 -113.98185197949279 5.0
  endloop
endfacet
facet normal -0.7082438878019427 -0.7059678430291209 0.0
  outer loop
    vertex 122.41218075602097 -115.2238763795527 0.0
    vertex 122.41218075602097 -115.2238763795527 5.0
    vertex 121.17414778206745 -113.98185197949279 0.0
  endloop
endfacet
facet normal -0.7082438878019427 -0.7059678430291209 0.0
  outer loop
    vertex 121.17414778206745 -113.98185197949279 5.0
    vertex 121.17414778206745 -113.98185197949279 0.0
    vertex 122.41218075602097 -115.2238763795527 5.0
  endloop
endfacet
facet normal -0.5791191861371219 -0.815242889112121 0.0
  outer loop
    vertex 122.41218075602097 -115.2238763795527 0.0
    vertex 123.91350678917055 -116.29036432082253 0.0
    vertex 122.41218075602097 -115.2238763795527 5.0
  endloop
endfacet
facet normal -0.5791191861371219 -0.815242889112121 0.0
  outer loop
    vertex 123.91350678917055 -116.29036432082253 5.0
    vertex 122.41218075602097 -115.2238763795527 5.0
    vertex 123.91350678917055 -116.29036432082253 0.0
  endloop
endfacet
facet normal -0.39001853909195056 -0.9208070042981759 0.0
  outer loop
    vertex 123.91350678917055 -116.29036432082253 0.0
    vertex 127.70606252773814 -117.89674550784264 0.0
    vertex 123.91350678917055 -116.29036432082253 5.0
  endloop
endfacet
facet normal -0.39001853909195056 -0.9208070042981759 0.0
  outer loop
    vertex 127.70606252773814 -117.89674550784264 5.0
    vertex 123.91350678917055 -116.29036432082253 5.0
    vertex 127.70606252773814 -117.89674550784264 0.0
  endloop
endfacet
facet normal -0.20133767304305958 -0.9795218943002786 0.0
  outer loop
    vertex 127.70606252773814 -117.89674550784264 0.0
    vertex 130.96669998048122 -118.56695937564116 0.0
    vertex 127.70606252773814 -117.89674550784264 5.0
  endloop
endfacet
facet normal -0.20133767304305958 -0.9795218943002786 0.0
  outer loop
    vertex 130.96669998048122 -118.56695937564116 5.0
    vertex 127.70606252773814 -117.89674550784264 5.0
    vertex 130.96669998048122 -118.56695937564116 0.0
  endloop
endfacet
facet normal -0.06247056221119409 -0.9980468069469576 0.0
  outer loop
    vertex 130.96669998048122 -118.56695937564116 0.0
    vertex 134.53584960708764 -118.79036250887901 0.0
    vertex 130.96669998048122 -118.56695937564116 5.0
  endloop
endfacet
facet normal -0.06247056221119409 -0.9980468069469576 0.0
  outer loop
    vertex 134.53584960708764 -118.79036250887901 5.0
    vertex 130.96669998048122 -118.56695937564116 5.0
    vertex 134.53584960708764 -118.79036250887901 0.0
  endloop
endfacet
facet normal 0.0745943437465626 -0.9972139609336703 0.0
  outer loop
    vertex 134.53584960708764 -118.79036250887901 0.0
    vertex 138.58904254719866 -118.48717254234192 0.0
    vertex 134.53584960708764 -118.79036250887901 5.0
  endloop
endfacet
facet normal 0.0745943437465626 -0.9972139609336703 0.0
  outer loop
    vertex 138.58904254719866 -118.48717254234192 5.0
    vertex 134.53584960708764 -118.79036250887901 5.0
    vertex 138.58904254719866 -118.48717254234192 0.0
  endloop
endfacet
facet normal 0.25589306622944974 -0.9667050939431789 0.0
  outer loop
    vertex 138.58904254719866 -118.48717254234192 0.0
    vertex 142.025211139583 -117.57759657890107 0.0
    vertex 138.58904254719866 -118.48717254234192 5.0
  endloop
endfacet
facet normal 0.25589306622944974 -0.9667050939431789 0.0
  outer loop
    vertex 142.025211139583 -117.57759657890107 5.0
    vertex 138.58904254719866 -118.48717254234192 5.0
    vertex 142.025211139583 -117.57759657890107 0.0
  endloop
endfacet
facet normal 0.5356989639413583 -0.8444090359725882 0.0
  outer loop
    vertex 142.025211139583 -117.57759657890107 0.0
    vertex 143.50925613256547 -116.63610811618301 0.0
    vertex 142.025211139583 -117.57759657890107 5.0
  endloop
endfacet
facet normal 0.5356989639413583 -0.8444090359725882 0.0
  outer loop
    vertex 143.50925613256547 -116.63610811618301 5.0
    vertex 142.025211139583 -117.57759657890107 5.0
    vertex 143.50925613256547 -116.63610811618301 0.0
  endloop
endfacet
facet normal 0.9339393400252279 -0.35743154470925187 0.0
  outer loop
    vertex 143.50925613256547 -116.63610811618301 5.0
    vertex 143.50925613256547 -116.63610811618301 0.0
    vertex 144.0039344990207 -115.34355407631011 5.0
  endloop
endfacet
facet normal 0.9339393400252279 -0.35743154470925187 0.0
  outer loop
    vertex 144.0039344990207 -115.34355407631011 0.0
    vertex 144.0039344990207 -115.34355407631011 5.0
    vertex 143.50925613256547 -116.63610811618301 0.0
  endloop
endfacet
facet normal 0.9808181606390182 0.1949249490462758 0.0
  outer loop
    vertex 144.0039344990207 -115.34355407631011 5.0
    vertex 144.0039344990207 -115.34355407631011 0.0
    vertex 143.83638214909232 -114.50046862998028 5.0
  endloop
endfacet
facet normal 0.9808181606390182 0.1949249490462758 0.0
  outer loop
    vertex 143.83638214909232 -114.50046862998028 0.0
    vertex 143.83638214909232 -114.50046862998028 5.0
    vertex 144.0039344990207 -115.34355407631011 0.0
  endloop
endfacet
facet normal 0.8120604947224194 0.5835732626767436 0.0
  outer loop
    vertex 143.83638214909232 -114.50046862998028 5.0
    vertex 143.83638214909232 -114.50046862998028 0.0
    vertex 143.3337217482434 -113.80100091975923 5.0
  endloop
endfacet
facet normal 0.8120604947224194 0.5835732626767436 0.0
  outer loop
    vertex 143.3337217482434 -113.80100091975923 0.0
    vertex 143.3337217482434 -113.80100091975923 5.0
    vertex 143.83638214909232 -114.50046862998028 0.0
  endloop
endfacet
facet normal 0.5357007780610668 0.8444078850796977 0.0
  outer loop
    vertex 143.3337217482434 -113.80100091975923 0.0
    vertex 142.5917008474968 -113.33025546499597 0.0
    vertex 143.3337217482434 -113.80100091975923 5.0
  endloop
endfacet
facet normal 0.5357007780610668 0.8444078850796977 0.0
  outer loop
    vertex 142.5917008474968 -113.33025546499597 5.0
    vertex 143.3337217482434 -113.80100091975923 5.0
    vertex 142.5917008474968 -113.33025546499597 0.0
  endloop
endfacet
facet normal 0.1744591189962176 0.9846644178597416 0.0
  outer loop
    vertex 142.5917008474968 -113.33025546499597 0.0
    vertex 141.70606221064142 -113.17334135950748 0.0
    vertex 142.5917008474968 -113.33025546499597 5.0
  endloop
endfacet
facet normal 0.1744591189962176 0.9846644178597416 0.0
  outer loop
    vertex 141.70606221064142 -113.17334135950748 5.0
    vertex 142.5917008474968 -113.33025546499597 5.0
    vertex 141.70606221064142 -113.17334135950748 0.0
  endloop
endfacet
facet normal -0.18208926018230742 0.9832820049844602 0.0
  outer loop
    vertex 141.70606221064142 -113.17334135950748 0.0
    vertex 138.83372185016736 -113.70525624107677 0.0
    vertex 141.70606221064142 -113.17334135950748 5.0
  endloop
endfacet
facet normal -0.18208926018230742 0.9832820049844602 0.0
  outer loop
    vertex 138.83372185016736 -113.70525624107677 5.0
    vertex 141.70606221064142 -113.17334135950748 5.0
    vertex 138.83372185016736 -113.70525624107677 0.0
  endloop
endfacet
facet normal -0.08704696967638201 0.9962042085185945 0.0
  outer loop
    vertex 138.83372185016736 -113.70525624107677 0.0
    vertex 136.64223253810195 -113.8967455984417 0.0
    vertex 138.83372185016736 -113.70525624107677 5.0
  endloop
endfacet
facet normal -0.08704696967638201 0.9962042085185945 0.0
  outer loop
    vertex 136.64223253810195 -113.8967455984417 5.0
    vertex 138.83372185016736 -113.70525624107677 5.0
    vertex 136.64223253810195 -113.8967455984417 0.0
  endloop
endfacet
facet normal 0.1265830097200989 0.9919560180019079 0.0
  outer loop
    vertex 136.64223253810195 -113.8967455984417 0.0
    vertex 134.34967809534692 -113.60419387634451 0.0
    vertex 136.64223253810195 -113.8967455984417 5.0
  endloop
endfacet
facet normal 0.1265830097200989 0.9919560180019079 0.0
  outer loop
    vertex 134.34967809534692 -113.60419387634451 5.0
    vertex 136.64223253810195 -113.8967455984417 5.0
    vertex 134.34967809534692 -113.60419387634451 0.0
  endloop
endfacet
facet normal 0.4439825796701546 0.8960354172405436 0.0
  outer loop
    vertex 134.34967809534692 -113.60419387634451 0.0
    vertex 132.57840284291268 -112.72653285898929 0.0
    vertex 134.34967809534692 -113.60419387634451 5.0
  endloop
endfacet
facet normal 0.4439825796701546 0.8960354172405436 0.0
  outer loop
    vertex 132.57840284291268 -112.72653285898929 5.0
    vertex 134.34967809534692 -113.60419387634451 5.0
    vertex 132.57840284291268 -112.72653285898929 0.0
  endloop
endfacet
facet normal 0.7472456812407493 0.6645478853077847 0.0
  outer loop
    vertex 132.57840284291268 -112.72653285898929 5.0
    vertex 132.57840284291268 -112.72653285898929 0.0
    vertex 131.38159236470102 -111.38078866074667 5.0
  endloop
endfacet
facet normal 0.7472456812407493 0.6645478853077847 0.0
  outer loop
    vertex 131.38159236470102 -111.38078866074667 0.0
    vertex 131.38159236470102 -111.38078866074667 5.0
    vertex 132.57840284291268 -112.72653285898929 0.0
  endloop
endfacet
facet normal 0.9675101140410927 0.25283231444614046 0.0
  outer loop
    vertex 131.38159236470102 -111.38078866074667 5.0
    vertex 131.38159236470102 -111.38078866074667 0.0
    vertex 130.98265819820486 -109.85419249851522 5.0
  endloop
endfacet
facet normal 0.9675101140410927 0.25283231444614046 0.0
  outer loop
    vertex 130.98265819820486 -109.85419249851522 0.0
    vertex 130.98265819820486 -109.85419249851522 5.0
    vertex 131.38159236470102 -111.38078866074667 0.0
  endloop
endfacet
facet normal 0.9757411980096361 -0.21892718996671098 0.0
  outer loop
    vertex 130.98265819820486 -109.85419249851522 5.0
    vertex 130.98265819820486 -109.85419249851522 0.0
    vertex 131.2911672869619 -108.47919185146716 5.0
  endloop
endfacet
facet normal 0.9757411980096361 -0.21892718996671098 0.0
  outer loop
    vertex 131.2911672869619 -108.47919185146716 0.0
    vertex 131.2911672869619 -108.47919185146716 5.0
    vertex 130.98265819820486 -109.85419249851522 0.0
  endloop
endfacet
facet normal 0.7662494695254409 -0.6425431895615892 0.0
  outer loop
    vertex 131.2911672869619 -108.47919185146716 5.0
    vertex 131.2911672869619 -108.47919185146716 0.0
    vertex 132.21670072344557 -107.3754691504024 5.0
  endloop
endfacet
facet normal 0.7662494695254409 -0.6425431895615892 0.0
  outer loop
    vertex 132.21670072344557 -107.3754691504024 0.0
    vertex 132.21670072344557 -107.3754691504024 5.0
    vertex 131.2911672869619 -108.47919185146716 0.0
  endloop
endfacet
facet normal 0.45791724895298846 -0.8889948217573187 0.0
  outer loop
    vertex 132.21670072344557 -107.3754691504024 0.0
    vertex 133.6262742819446 -106.64940412695398 0.0
    vertex 132.21670072344557 -107.3754691504024 5.0
  endloop
endfacet
facet normal 0.45791724895298846 -0.8889948217573187 0.0
  outer loop
    vertex 133.6262742819446 -106.64940412695398 5.0
    vertex 132.21670072344557 -107.3754691504024 5.0
    vertex 133.6262742819446 -106.64940412695398 0.0
  endloop
endfacet
facet normal 0.13618088715125512 -0.990683988956467 0.0
  outer loop
    vertex 133.6262742819446 -106.64940412695398 0.0
    vertex 135.38691341759846 -106.40738406594632 0.0
    vertex 133.6262742819446 -106.64940412695398 5.0
  endloop
endfacet
facet normal 0.13618088715125512 -0.990683988956467 0.0
  outer loop
    vertex 135.38691341759846 -106.40738406594632 5.0
    vertex 133.6262742819446 -106.64940412695398 5.0
    vertex 135.38691341759846 -106.40738406594632 0.0
  endloop
endfacet
facet normal -0.12642828192325153 -0.9919757504747456 0.0
  outer loop
    vertex 135.38691341759846 -106.40738406594632 0.0
    vertex 137.5571261344011 -106.68397980436234 0.0
    vertex 135.38691341759846 -106.40738406594632 5.0
  endloop
endfacet
facet normal -0.12642828192325153 -0.9919757504747456 0.0
  outer loop
    vertex 137.5571261344011 -106.68397980436234 5.0
    vertex 135.38691341759846 -106.40738406594632 5.0
    vertex 137.5571261344011 -106.68397980436234 0.0
  endloop
endfacet
facet normal -0.20094414372133204 -0.97960270064149 0.0
  outer loop
    vertex 137.5571261344011 -106.68397980436234 0.0
    vertex 138.38691334964918 -106.8541925664645 0.0
    vertex 137.5571261344011 -106.68397980436234 5.0
  endloop
endfacet
facet normal -0.20094414372133204 -0.97960270064149 0.0
  outer loop
    vertex 138.38691334964918 -106.8541925664645 5.0
    vertex 137.5571261344011 -106.68397980436234 5.0
    vertex 138.38691334964918 -106.8541925664645 0.0
  endloop
endfacet
facet normal 0.4489050145345382 -0.8935794804748742 0.0
  outer loop
    vertex 138.38691334964918 -106.8541925664645 0.0
    vertex 138.94808350981114 -106.57227908880722 0.0
    vertex 138.38691334964918 -106.8541925664645 5.0
  endloop
endfacet
facet normal 0.4489050145345382 -0.8935794804748742 0.0
  outer loop
    vertex 138.94808350981114 -106.57227908880722 5.0
    vertex 138.38691334964918 -106.8541925664645 5.0
    vertex 138.94808350981114 -106.57227908880722 0.0
  endloop
endfacet
facet normal 0.8260078818539427 -0.563658566079824 0.0
  outer loop
    vertex 138.94808350981114 -106.57227908880722 5.0
    vertex 138.94808350981114 -106.57227908880722 0.0
    vertex 139.5252111962074 -105.72653301753763 5.0
  endloop
endfacet
facet normal 0.8260078818539427 -0.563658566079824 0.0
  outer loop
    vertex 139.5252111962074 -105.72653301753763 0.0
    vertex 139.5252111962074 -105.72653301753763 5.0
    vertex 138.94808350981114 -106.57227908880722 0.0
  endloop
endfacet
facet normal 0.9661570518079743 -0.25795455266717754 0.0
  outer loop
    vertex 139.5252111962074 -105.72653301753763 5.0
    vertex 139.5252111962074 -105.72653301753763 0.0
    vertex 140.1103175659336 -103.53504370547222 5.0
  endloop
endfacet
facet normal 0.9661570518079743 -0.25795455266717754 0.0
  outer loop
    vertex 140.1103175659336 -103.53504370547222 0.0
    vertex 140.1103175659336 -103.53504370547222 5.0
    vertex 139.5252111962074 -105.72653301753763 0.0
  endloop
endfacet
facet normal 0.9284766908852591 0.3713906763541047 0.0
  outer loop
    vertex 140.1103175659336 -103.53504370547222 5.0
    vertex 140.1103175659336 -103.53504370547222 0.0
    vertex 139.8337218275176 -102.84355435943218 5.0
  endloop
endfacet
facet normal 0.9284766908852591 0.3713906763541047 0.0
  outer loop
    vertex 139.8337218275176 -102.84355435943218 0.0
    vertex 139.8337218275176 -102.84355435943218 5.0
    vertex 140.1103175659336 -103.53504370547222 0.0
  endloop
endfacet
facet normal 0.36461084105720676 0.9311599940845592 0.0
  outer loop
    vertex 139.8337218275176 -102.84355435943218 0.0
    vertex 138.0677644207076 -102.15206501339212 0.0
    vertex 139.8337218275176 -102.84355435943218 5.0
  endloop
endfacet
facet normal 0.36461084105720676 0.9311599940845592 0.0
  outer loop
    vertex 138.0677644207076 -102.15206501339212 5.0
    vertex 139.8337218275176 -102.84355435943218 5.0
    vertex 138.0677644207076 -102.15206501339212 0.0
  endloop
endfacet
facet normal 0.442851776668384 0.8965948382082377 0.0
  outer loop
    vertex 138.0677644207076 -102.15206501339212 0.0
    vertex 136.75393453025276 -101.50312986851588 0.0
    vertex 138.0677644207076 -102.15206501339212 5.0
  endloop
endfacet
facet normal 0.442851776668384 0.8965948382082377 0.0
  outer loop
    vertex 136.75393453025276 -101.50312986851588 5.0
    vertex 138.0677644207076 -102.15206501339212 5.0
    vertex 136.75393453025276 -101.50312986851588 0.0
  endloop
endfacet
facet normal 0.6411398050168541 0.7674241007571696 0.0
  outer loop
    vertex 136.75393453025276 -101.50312986851588 0.0
    vertex 135.49329639391232 -100.44993739237046 0.0
    vertex 136.75393453025276 -101.50312986851588 5.0
  endloop
endfacet
facet normal 0.6411398050168541 0.7674241007571696 0.0
  outer loop
    vertex 135.49329639391232 -100.44993739237046 5.0
    vertex 136.75393453025276 -101.50312986851588 5.0
    vertex 135.49329639391232 -100.44993739237046 0.0
  endloop
endfacet
facet normal 0.816967359590069 0.5766839111371419 0.0
  outer loop
    vertex 135.49329639391232 -100.44993739237046 5.0
    vertex 135.49329639391232 -100.44993739237046 0.0
    vertex 134.79116758002814 -99.45525675000613 5.0
  endloop
endfacet
facet normal 0.816967359590069 0.5766839111371419 0.0
  outer loop
    vertex 134.79116758002814 -99.45525675000613 0.0
    vertex 134.79116758002814 -99.45525675000613 5.0
    vertex 135.49329639391232 -100.44993739237046 0.0
  endloop
endfacet
facet normal 0.9768685320066105 0.21384076125764673 0.0
  outer loop
    vertex 134.79116758002814 -99.45525675000613 5.0
    vertex 134.79116758002814 -99.45525675000613 0.0
    vertex 134.5571262023504 -98.38610765188167 5.0
  endloop
endfacet
facet normal 0.9768685320066105 0.21384076125764673 0.0
  outer loop
    vertex 134.5571262023504 -98.38610765188167 0.0
    vertex 134.5571262023504 -98.38610765188167 5.0
    vertex 134.79116758002814 -99.45525675000613 0.0
  endloop
endfacet
facet normal 0.978305089804473 -0.2071693781973149 0.0
  outer loop
    vertex 134.5571262023504 -98.38610765188167 5.0
    vertex 134.5571262023504 -98.38610765188167 0.0
    vertex 134.79648670224807 -97.25578811631293 5.0
  endloop
endfacet
facet normal 0.978305089804473 -0.2071693781973149 0.0
  outer loop
    vertex 134.79648670224807 -97.25578811631293 0.0
    vertex 134.79648670224807 -97.25578811631293 5.0
    vertex 134.5571262023504 -98.38610765188167 0.0
  endloop
endfacet
facet normal 0.8023803184474056 -0.5968130566335157 0.0
  outer loop
    vertex 134.79648670224807 -97.25578811631293 5.0
    vertex 134.79648670224807 -97.25578811631293 0.0
    vertex 135.5145729891751 -96.29036301849872 5.0
  endloop
endfacet
facet normal 0.8023803184474056 -0.5968130566335157 0.0
  outer loop
    vertex 135.5145729891751 -96.29036301849872 0.0
    vertex 135.5145729891751 -96.29036301849872 5.0
    vertex 134.79648670224807 -97.25578811631293 0.0
  endloop
endfacet
facet normal 0.5323036909392422 -0.846553471797535 0.0
  outer loop
    vertex 135.5145729891751 -96.29036301849872 0.0
    vertex 136.56776397595885 -95.6281278872216 0.0
    vertex 135.5145729891751 -96.29036301849872 5.0
  endloop
endfacet
facet normal 0.5323036909392422 -0.846553471797535 0.0
  outer loop
    vertex 136.56776397595885 -95.6281278872216 5.0
    vertex 135.5145729891751 -96.29036301849872 5.0
    vertex 136.56776397595885 -95.6281278872216 0.0
  endloop
endfacet
facet normal 0.17462451534263154 -0.984635099232884 0.0
  outer loop
    vertex 136.56776397595885 -95.6281278872216 0.0
    vertex 137.81244527755433 -95.40738431509374 0.0
    vertex 136.56776397595885 -95.6281278872216 5.0
  endloop
endfacet
facet normal 0.17462451534263154 -0.984635099232884 0.0
  outer loop
    vertex 137.81244527755433 -95.40738431509374 5.0
    vertex 136.56776397595885 -95.6281278872216 5.0
    vertex 137.81244527755433 -95.40738431509374 0.0
  endloop
endfacet
facet normal -0.1381960319114638 -0.9904048953654893 0.0
  outer loop
    vertex 137.81244527755433 -95.40738431509374 0.0
    vertex 139.18478567200307 -95.59887367245867 0.0
    vertex 137.81244527755433 -95.40738431509374 5.0
  endloop
endfacet
facet normal -0.1381960319114638 -0.9904048953654893 0.0
  outer loop
    vertex 139.18478567200307 -95.59887367245867 5.0
    vertex 137.81244527755433 -95.40738431509374 5.0
    vertex 139.18478567200307 -95.59887367245867 0.0
  endloop
endfacet
facet normal -0.4342322526228323 -0.9008009495899195 0.0
  outer loop
    vertex 139.18478567200307 -95.59887367245867 0.0
    vertex 141.25925371012323 -96.5988736498089 0.0
    vertex 139.18478567200307 -95.59887367245867 5.0
  endloop
endfacet
facet normal -0.4342322526228323 -0.9008009495899195 0.0
  outer loop
    vertex 141.25925371012323 -96.5988736498089 5.0
    vertex 139.18478567200307 -95.59887367245867 5.0
    vertex 141.25925371012323 -96.5988736498089 0.0
  endloop
endfacet
facet normal -0.31622776601683766 -0.9486832980505139 0.0
  outer loop
    vertex 141.25925371012323 -96.5988736498089 0.0
    vertex 141.96138135379468 -96.83291619769939 0.0
    vertex 141.25925371012323 -96.5988736498089 5.0
  endloop
endfacet
facet normal -0.31622776601683766 -0.9486832980505139 0.0
  outer loop
    vertex 141.96138135379468 -96.83291619769939 5.0
    vertex 141.25925371012323 -96.5988736498089 5.0
    vertex 141.96138135379468 -96.83291619769939 0.0
  endloop
endfacet
facet normal 0.3378632187511709 -0.9411952217340984 0.0
  outer loop
    vertex 141.96138135379468 -96.83291619769939 0.0
    vertex 142.4799984298141 -96.64674692000118 0.0
    vertex 141.96138135379468 -96.83291619769939 5.0
  endloop
endfacet
facet normal 0.3378632187511709 -0.9411952217340984 0.0
  outer loop
    vertex 142.4799984298141 -96.64674692000118 5.0
    vertex 141.96138135379468 -96.83291619769939 5.0
    vertex 142.4799984298141 -96.64674692000118 0.0
  endloop
endfacet
facet normal 0.7503595856052512 -0.6610298724644115 0.0
  outer loop
    vertex 142.4799984298141 -96.64674692000118 5.0
    vertex 142.4799984298141 -96.64674692000118 0.0
    vertex 142.9720196287763 -96.0882353635024 5.0
  endloop
endfacet
facet normal 0.7503595856052512 -0.6610298724644115 0.0
  outer loop
    vertex 142.9720196287763 -96.0882353635024 0.0
    vertex 142.9720196287763 -96.0882353635024 5.0
    vertex 142.4799984298141 -96.64674692000118 0.0
  endloop
endfacet
facet normal 0.9567521361388583 -0.2909043657178963 0.0
  outer loop
    vertex 142.9720196287763 -96.0882353635024 5.0
    vertex 142.9720196287763 -96.0882353635024 0.0
    vertex 143.45074302218865 -94.51376731405736 5.0
  endloop
endfacet
facet normal 0.9567521361388583 -0.2909043657178963 0.0
  outer loop
    vertex 143.45074302218865 -94.51376731405736 0.0
    vertex 143.45074302218865 -94.51376731405736 5.0
    vertex 142.9720196287763 -96.0882353635024 0.0
  endloop
endfacet
facet normal 0.9103672805037208 0.41380117760617807 0.0
  outer loop
    vertex 143.45074302218865 -94.51376731405736 5.0
    vertex 143.45074302218865 -94.51376731405736 0.0
    vertex 142.81244835579483 -93.10951181394852 5.0
  endloop
endfacet
facet normal 0.9103672805037208 0.41380117760617807 0.0
  outer loop
    vertex 142.81244835579483 -93.10951181394852 0.0
    vertex 142.81244835579483 -93.10951181394852 5.0
    vertex 143.45074302218865 -94.51376731405736 0.0
  endloop
endfacet
facet normal 0.5673045329886911 0.8235080854797259 0.0
  outer loop
    vertex 142.81244835579483 -93.10951181394852 0.0
    vertex 140.89755159065612 -91.79036312042267 0.0
    vertex 142.81244835579483 -93.10951181394852 5.0
  endloop
endfacet
facet normal 0.5673045329886911 0.8235080854797259 0.0
  outer loop
    vertex 140.89755159065612 -91.79036312042267 5.0
    vertex 142.81244835579483 -93.10951181394852 5.0
    vertex 140.89755159065612 -91.79036312042267 0.0
  endloop
endfacet
facet normal 0.32251376012919325 0.946564775663731 0.0
  outer loop
    vertex 140.89755159065612 -91.79036312042267 0.0
    vertex 137.057126145726 -90.48185251176226 0.0
    vertex 140.89755159065612 -91.79036312042267 5.0
  endloop
endfacet
facet normal 0.32251376012919325 0.946564775663731 0.0
  outer loop
    vertex 137.057126145726 -90.48185251176226 5.0
    vertex 140.89755159065612 -91.79036312042267 5.0
    vertex 137.057126145726 -90.48185251176226 0.0
  endloop
endfacet
facet normal 0.11471675030414337 0.9933982419954532 0.0
  outer loop
    vertex 137.057126145726 -90.48185251176226 0.0
    vertex 132.7273390097521 -89.98185252308714 0.0
    vertex 137.057126145726 -90.48185251176226 5.0
  endloop
endfacet
facet normal 0.11471675030414337 0.9933982419954532 0.0
  outer loop
    vertex 132.7273390097521 -89.98185252308714 5.0
    vertex 137.057126145726 -90.48185251176226 5.0
    vertex 132.7273390097521 -89.98185252308714 0.0
  endloop
endfacet
facet normal -0.6087614290087049 -0.7933533402912475 0.0
  outer loop
    vertex 131.84154105970978 -100.886917255616 2.8999999999999946
    vertex 132.2971759783202 -101.23653822533133 2.8999999999999946
    vertex 131.84154105970978 -100.886917255616 4.999999999999995
  endloop
endfacet
facet normal -0.6087614290087049 -0.7933533402912475 0.0
  outer loop
    vertex 132.2971759783202 -101.23653822533133 4.999999999999995
    vertex 131.84154105970978 -100.886917255616 4.999999999999995
    vertex 132.2971759783202 -101.23653822533133 2.8999999999999946
  endloop
endfacet
facet normal 0.6087614290087049 0.7933533402912475 0.0
  outer loop
    vertex 129.6415410597098 -104.69742903226751 2.8999999999999946
    vertex 129.18590614109937 -104.34780806255216 2.8999999999999946
    vertex 129.6415410597098 -104.69742903226751 4.999999999999995
  endloop
endfacet
facet normal 0.6087614290087049 0.7933533402912475 0.0
  outer loop
    vertex 129.18590614109937 -104.34780806255216 4.999999999999995
    vertex 129.6415410597098 -104.69742903226751 4.999999999999995
    vertex 129.18590614109937 -104.34780806255216 2.8999999999999946
  endloop
endfacet
facet normal -0.3826834323650871 0.923879532511288 0.0
  outer loop
    vertex 131.84154105970978 -104.69742903226751 2.8999999999999946
    vertex 131.31094295893533 -104.91720996177769 2.8999999999999946
    vertex 131.84154105970978 -104.69742903226751 4.999999999999995
  endloop
endfacet
facet normal -0.3826834323650871 0.923879532511288 0.0
  outer loop
    vertex 131.31094295893533 -104.91720996177769 4.999999999999995
    vertex 131.84154105970978 -104.69742903226751 4.999999999999995
    vertex 131.31094295893533 -104.91720996177769 2.8999999999999946
  endloop
endfacet
facet normal -0.7933533402912306 0.6087614290087267 0.0
  outer loop
    vertex 132.2971759783202 -104.34780806255213 2.8999999999999946
    vertex 132.2971759783202 -104.34780806255213 4.999999999999995
    vertex 132.64679694803556 -103.89217314394175 2.8999999999999946
  endloop
endfacet
facet normal -0.7933533402912306 0.6087614290087267 0.0
  outer loop
    vertex 132.64679694803556 -103.89217314394175 4.999999999999995
    vertex 132.64679694803556 -103.89217314394175 2.8999999999999946
    vertex 132.2971759783202 -104.34780806255213 4.999999999999995
  endloop
endfacet
facet normal 0.9238795325112851 -0.382683432365094 0.0
  outer loop
    vertex 128.61650424187386 -102.2227712447162 4.999999999999995
    vertex 128.61650424187386 -102.2227712447162 2.8999999999999946
    vertex 128.83628517138402 -101.69217314394174 4.999999999999995
  endloop
endfacet
facet normal 0.9238795325112851 -0.382683432365094 0.0
  outer loop
    vertex 128.83628517138402 -101.69217314394174 2.8999999999999946
    vertex 128.83628517138402 -101.69217314394174 4.999999999999995
    vertex 128.61650424187386 -102.2227712447162 2.8999999999999946
  endloop
endfacet
facet normal 0.3826834323650871 -0.923879532511288 0.0
  outer loop
    vertex 129.6415410597098 -100.886917255616 2.8999999999999946
    vertex 130.17213916048422 -100.6671363261058 2.8999999999999946
    vertex 129.6415410597098 -100.886917255616 4.999999999999995
  endloop
endfacet
facet normal 0.3826834323650871 -0.923879532511288 0.0
  outer loop
    vertex 130.17213916048422 -100.6671363261058 4.999999999999995
    vertex 129.6415410597098 -100.886917255616 4.999999999999995
    vertex 130.17213916048422 -100.6671363261058 2.8999999999999946
  endloop
endfacet
facet normal 0.6087614290087295 -0.7933533402912283 0.0
  outer loop
    vertex 129.18590614109937 -101.23653822533136 2.8999999999999946
    vertex 129.6415410597098 -100.886917255616 2.8999999999999946
    vertex 129.18590614109937 -101.23653822533136 4.999999999999995
  endloop
endfacet
facet normal 0.6087614290087295 -0.7933533402912283 0.0
  outer loop
    vertex 129.6415410597098 -100.886917255616 4.999999999999995
    vertex 129.18590614109937 -101.23653822533136 4.999999999999995
    vertex 129.6415410597098 -100.886917255616 2.8999999999999946
  endloop
endfacet
facet normal -0.9914448613738099 -0.13052619222005604 0.0
  outer loop
    vertex 132.94154105970978 -102.79217314394175 2.8999999999999946
    vertex 132.94154105970978 -102.79217314394175 4.999999999999995
    vertex 132.86657787754572 -102.2227712447162 2.8999999999999946
  endloop
endfacet
facet normal -0.9914448613738099 -0.13052619222005604 0.0
  outer loop
    vertex 132.86657787754572 -102.2227712447162 4.999999999999995
    vertex 132.86657787754572 -102.2227712447162 2.8999999999999946
    vertex 132.94154105970978 -102.79217314394175 4.999999999999995
  endloop
endfacet
facet normal -0.9238795325112851 -0.382683432365094 0.0
  outer loop
    vertex 132.86657787754572 -102.2227712447162 2.8999999999999946
    vertex 132.86657787754572 -102.2227712447162 4.999999999999995
    vertex 132.64679694803556 -101.69217314394174 2.8999999999999946
  endloop
endfacet
facet normal -0.9238795325112851 -0.382683432365094 0.0
  outer loop
    vertex 132.64679694803556 -101.69217314394174 4.999999999999995
    vertex 132.64679694803556 -101.69217314394174 2.8999999999999946
    vertex 132.86657787754572 -102.2227712447162 4.999999999999995
  endloop
endfacet
facet normal -0.3826834323650871 -0.923879532511288 0.0
  outer loop
    vertex 131.31094295893533 -100.6671363261058 2.8999999999999946
    vertex 131.84154105970978 -100.886917255616 2.8999999999999946
    vertex 131.31094295893533 -100.6671363261058 4.999999999999995
  endloop
endfacet
facet normal -0.3826834323650871 -0.923879532511288 0.0
  outer loop
    vertex 131.84154105970978 -100.886917255616 4.999999999999995
    vertex 131.31094295893533 -100.6671363261058 4.999999999999995
    vertex 131.84154105970978 -100.886917255616 2.8999999999999946
  endloop
endfacet
facet normal -0.7933533402912453 -0.6087614290087077 0.0
  outer loop
    vertex 132.64679694803556 -101.69217314394174 2.8999999999999946
    vertex 132.64679694803556 -101.69217314394174 4.999999999999995
    vertex 132.2971759783202 -101.23653822533133 2.8999999999999946
  endloop
endfacet
facet normal -0.7933533402912453 -0.6087614290087077 0.0
  outer loop
    vertex 132.2971759783202 -101.23653822533133 4.999999999999995
    vertex 132.2971759783202 -101.23653822533133 2.8999999999999946
    vertex 132.64679694803556 -101.69217314394174 4.999999999999995
  endloop
endfacet
facet normal 0.7933533402912258 -0.6087614290087329 0.0
  outer loop
    vertex 128.83628517138402 -101.69217314394174 4.999999999999995
    vertex 128.83628517138402 -101.69217314394174 2.8999999999999946
    vertex 129.18590614109937 -101.23653822533136 4.999999999999995
  endloop
endfacet
facet normal 0.7933533402912258 -0.6087614290087329 0.0
  outer loop
    vertex 129.18590614109937 -101.23653822533136 2.8999999999999946
    vertex 129.18590614109937 -101.23653822533136 4.999999999999995
    vertex 128.83628517138402 -101.69217314394174 2.8999999999999946
  endloop
endfacet
facet normal -0.6087614290087295 0.7933533402912283 0.0
  outer loop
    vertex 132.2971759783202 -104.34780806255213 2.8999999999999946
    vertex 131.84154105970978 -104.69742903226751 2.8999999999999946
    vertex 132.2971759783202 -104.34780806255213 4.999999999999995
  endloop
endfacet
facet normal -0.6087614290087295 0.7933533402912283 0.0
  outer loop
    vertex 131.84154105970978 -104.69742903226751 4.999999999999995
    vertex 132.2971759783202 -104.34780806255213 4.999999999999995
    vertex 131.84154105970978 -104.69742903226751 2.8999999999999946
  endloop
endfacet
facet normal 0.1305261922200586 0.9914448613738096 0.0
  outer loop
    vertex 130.7415410597098 -104.99217314394174 2.8999999999999946
    vertex 130.17213916048422 -104.91720996177769 2.8999999999999946
    vertex 130.7415410597098 -104.99217314394174 4.999999999999995
  endloop
endfacet
facet normal 0.1305261922200586 0.9914448613738096 0.0
  outer loop
    vertex 130.17213916048422 -104.91720996177769 4.999999999999995
    vertex 130.7415410597098 -104.99217314394174 4.999999999999995
    vertex 130.17213916048422 -104.91720996177769 2.8999999999999946
  endloop
endfacet
facet normal -0.9238795325112851 0.382683432365094 0.0
  outer loop
    vertex 132.64679694803556 -103.89217314394175 2.8999999999999946
    vertex 132.64679694803556 -103.89217314394175 4.999999999999995
    vertex 132.86657787754572 -103.3615750431673 2.8999999999999946
  endloop
endfacet
facet normal -0.9238795325112851 0.382683432365094 0.0
  outer loop
    vertex 132.86657787754572 -103.3615750431673 4.999999999999995
    vertex 132.86657787754572 -103.3615750431673 2.8999999999999946
    vertex 132.64679694803556 -103.89217314394175 4.999999999999995
  endloop
endfacet
facet normal -0.1305261922200586 0.9914448613738096 0.0
  outer loop
    vertex 131.31094295893533 -104.91720996177769 2.8999999999999946
    vertex 130.7415410597098 -104.99217314394174 2.8999999999999946
    vertex 131.31094295893533 -104.91720996177769 4.999999999999995
  endloop
endfacet
facet normal -0.1305261922200586 0.9914448613738096 0.0
  outer loop
    vertex 130.7415410597098 -104.99217314394174 4.999999999999995
    vertex 131.31094295893533 -104.91720996177769 4.999999999999995
    vertex 130.7415410597098 -104.99217314394174 2.8999999999999946
  endloop
endfacet
facet normal 0.7933533402912453 0.6087614290087077 0.0
  outer loop
    vertex 129.18590614109937 -104.34780806255216 4.999999999999995
    vertex 129.18590614109937 -104.34780806255216 2.8999999999999946
    vertex 128.83628517138402 -103.89217314394175 4.999999999999995
  endloop
endfacet
facet normal 0.7933533402912453 0.6087614290087077 0.0
  outer loop
    vertex 128.83628517138402 -103.89217314394175 2.8999999999999946
    vertex 128.83628517138402 -103.89217314394175 4.999999999999995
    vertex 129.18590614109937 -104.34780806255216 2.8999999999999946
  endloop
endfacet
facet normal 0.9238795325112817 0.38268343236510244 0.0
  outer loop
    vertex 128.83628517138402 -103.89217314394175 4.999999999999995
    vertex 128.83628517138402 -103.89217314394175 2.8999999999999946
    vertex 128.61650424187386 -103.3615750431673 4.999999999999995
  endloop
endfacet
facet normal 0.9238795325112817 0.38268343236510244 0.0
  outer loop
    vertex 128.61650424187386 -103.3615750431673 2.8999999999999946
    vertex 128.61650424187386 -103.3615750431673 4.999999999999995
    vertex 128.83628517138402 -103.89217314394175 2.8999999999999946
  endloop
endfacet
facet normal 0.9914448613738113 0.1305261922200464 0.0
  outer loop
    vertex 128.61650424187386 -103.3615750431673 4.999999999999995
    vertex 128.61650424187386 -103.3615750431673 2.8999999999999946
    vertex 128.5415410597098 -102.79217314394175 4.999999999999995
  endloop
endfacet
facet normal 0.9914448613738113 0.1305261922200464 0.0
  outer loop
    vertex 128.5415410597098 -102.79217314394175 2.8999999999999946
    vertex 128.5415410597098 -102.79217314394175 4.999999999999995
    vertex 128.61650424187386 -103.3615750431673 2.8999999999999946
  endloop
endfacet
facet normal -0.9914448613738099 0.13052619222005604 0.0
  outer loop
    vertex 132.86657787754572 -103.3615750431673 2.8999999999999946
    vertex 132.86657787754572 -103.3615750431673 4.999999999999995
    vertex 132.94154105970978 -102.79217314394175 2.8999999999999946
  endloop
endfacet
facet normal -0.9914448613738099 0.13052619222005604 0.0
  outer loop
    vertex 132.94154105970978 -102.79217314394175 4.999999999999995
    vertex 132.94154105970978 -102.79217314394175 2.8999999999999946
    vertex 132.86657787754572 -103.3615750431673 4.999999999999995
  endloop
endfacet
facet normal 0.9914448613738113 -0.1305261922200464 0.0
  outer loop
    vertex 128.5415410597098 -102.79217314394175 4.999999999999995
    vertex 128.5415410597098 -102.79217314394175 2.8999999999999946
    vertex 128.61650424187386 -102.2227712447162 4.999999999999995
  endloop
endfacet
facet normal 0.9914448613738113 -0.1305261922200464 0.0
  outer loop
    vertex 128.61650424187386 -102.2227712447162 2.8999999999999946
    vertex 128.61650424187386 -102.2227712447162 4.999999999999995
    vertex 128.5415410597098 -102.79217314394175 2.8999999999999946
  endloop
endfacet
facet normal 0.0 0.0 1.0
  outer loop
    vertex 132.94154105970978 -102.79217314394175 2.8999999999999946
    vertex 132.86657787754572 -102.2227712447162 2.8999999999999946
    vertex 132.86657787754572 -103.3615750431673 2.8999999999999946
  endloop
endfacet
facet normal 0.0 0.0 1.0
  outer loop
    vertex 132.64679694803556 -103.89217314394175 2.8999999999999946
    vertex 132.86657787754572 -103.3615750431673 2.8999999999999946
    vertex 132.86657787754572 -102.2227712447162 2.8999999999999946
  endloop
endfacet
facet normal 0.0 0.0 1.0
  outer loop
    vertex 132.64679694803556 -101.69217314394174 2.8999999999999946
    vertex 132.64679694803556 -103.89217314394175 2.8999999999999946
    vertex 132.86657787754572 -102.2227712447162 2.8999999999999946
  endloop
endfacet
facet normal 0.0 0.0 1.0
  outer loop
    vertex 132.2971759783202 -104.34780806255213 2.8999999999999946
    vertex 132.64679694803556 -103.89217314394175 2.8999999999999946
    vertex 132.64679694803556 -101.69217314394174 2.8999999999999946
  endloop
endfacet
facet normal 0.0 0.0 1.0
  outer loop
    vertex 132.2971759783202 -101.23653822533133 2.8999999999999946
    vertex 132.2971759783202 -104.34780806255213 2.8999999999999946
    vertex 132.64679694803556 -101.69217314394174 2.8999999999999946
  endloop
endfacet
facet normal 0.0 0.0 1.0
  outer loop
    vertex 131.84154105970978 -104.69742903226751 2.8999999999999946
    vertex 132.2971759783202 -104.34780806255213 2.8999999999999946
    vertex 132.2971759783202 -101.23653822533133 2.8999999999999946
  endloop
endfacet
facet normal 0.0 0.0 1.0
  outer loop
    vertex 131.84154105970978 -100.886917255616 2.8999999999999946
    vertex 131.84154105970978 -104.69742903226751 2.8999999999999946
    vertex 132.2971759783202 -101.23653822533133 2.8999999999999946
  endloop
endfacet
facet normal 0.0 0.0 1.0
  outer loop
    vertex 131.31094295893533 -104.91720996177769 2.8999999999999946
    vertex 131.84154105970978 -104.69742903226751 2.8999999999999946
    vertex 131.84154105970978 -100.886917255616 2.8999999999999946
  endloop
endfacet
facet normal 0.0 0.0 1.0
  outer loop
    vertex 131.31094295893533 -100.6671363261058 2.8999999999999946
    vertex 131.31094295893533 -104.91720996177769 2.8999999999999946
    vertex 131.84154105970978 -100.886917255616 2.8999999999999946
  endloop
endfacet
facet normal 0.0 0.0 1.0
  outer loop
    vertex 130.7415410597098 -104.99217314394174 2.8999999999999946
    vertex 131.31094295893533 -104.91720996177769 2.8999999999999946
    vertex 131.31094295893533 -100.6671363261058 2.8999999999999946
  endloop
endfacet
facet normal 0.0 0.0 1.0
  outer loop
    vertex 130.7415410597098 -100.59217314394175 2.8999999999999946
    vertex 130.7415410597098 -104.99217314394174 2.8999999999999946
    vertex 131.31094295893533 -100.6671363261058 2.8999999999999946
  endloop
endfacet
facet normal 0.0 0.0 1.0
  outer loop
    vertex 130.17213916048422 -104.91720996177769 2.8999999999999946
    vertex 130.7415410597098 -104.99217314394174 2.8999999999999946
    vertex 130.7415410597098 -100.59217314394175 2.8999999999999946
  endloop
endfacet
facet normal 0.0 0.0 1.0
  outer loop
    vertex 130.17213916048422 -100.6671363261058 2.8999999999999946
    vertex 130.17213916048422 -104.91720996177769 2.8999999999999946
    vertex 130.7415410597098 -100.59217314394175 2.8999999999999946
  endloop
endfacet
facet normal 0.0 0.0 1.0
  outer loop
    vertex 129.6415410597098 -104.69742903226751 2.8999999999999946
    vertex 130.17213916048422 -104.91720996177769 2.8999999999999946
    vertex 130.17213916048422 -100.6671363261058 2.8999999999999946
  endloop
endfacet
facet normal 0.0 0.0 1.0
  outer loop
    vertex 129.6415410597098 -100.886917255616 2.8999999999999946
    vertex 129.6415410597098 -104.69742903226751 2.8999999999999946
    vertex 130.17213916048422 -100.6671363261058 2.8999999999999946
  endloop
endfacet
facet normal 0.0 0.0 1.0
  outer loop
    vertex 129.18590614109937 -104.34780806255216 2.8999999999999946
    vertex 129.6415410597098 -104.69742903226751 2.8999999999999946
    vertex 129.6415410597098 -100.886917255616 2.8999999999999946
  endloop
endfacet
facet normal 0.0 0.0 1.0
  outer loop
    vertex 129.18590614109937 -101.23653822533136 2.8999999999999946
    vertex 129.18590614109937 -104.34780806255216 2.8999999999999946
    vertex 129.6415410597098 -100.886917255616 2.8999999999999946
  endloop
endfacet
facet normal 0.0 0.0 1.0
  outer loop
    vertex 128.83628517138402 -103.89217314394175 2.8999999999999946
    vertex 129.18590614109937 -104.34780806255216 2.8999999999999946
    vertex 129.18590614109937 -101.23653822533136 2.8999999999999946
  endloop
endfacet
facet normal 0.0 0.0 1.0
  outer loop
    vertex 128.83628517138402 -101.69217314394174 2.8999999999999946
    vertex 128.83628517138402 -103.89217314394175 2.8999999999999946
    vertex 129.18590614109937 -101.23653822533136 2.8999999999999946
  endloop
endfacet
facet normal 0.0 0.0 1.0
  outer loop
    vertex 128.61650424187386 -103.3615750431673 2.8999999999999946
    vertex 128.83628517138402 -103.89217314394175 2.8999999999999946
    vertex 128.83628517138402 -101.69217314394174 2.8999999999999946
  endloop
endfacet
facet normal 0.0 0.0 1.0
  outer loop
    vertex 128.61650424187386 -102.2227712447162 2.8999999999999946
    vertex 128.61650424187386 -103.3615750431673 2.8999999999999946
    vertex 128.83628517138402 -101.69217314394174 2.8999999999999946
  endloop
endfacet
facet normal 0.0 0.0 1.0
  outer loop
    vertex 128.5415410597098 -102.79217314394175 2.8999999999999946
    vertex 128.61650424187386 -103.3615750431673 2.8999999999999946
    vertex 128.61650424187386 -102.2227712447162 2.8999999999999946
  endloop
endfacet
facet normal -0.1305261922200586 -0.9914448613738096 0.0
  outer loop
    vertex 130.7415410597098 -100.59217314394175 2.8999999999999946
    vertex 131.31094295893533 -100.6671363261058 2.8999999999999946
    vertex 130.7415410597098 -100.59217314394175 4.999999999999995
  endloop
endfacet
facet normal -0.1305261922200586 -0.9914448613738096 0.0
  outer loop
    vertex 131.31094295893533 -100.6671363261058 4.999999999999995
    vertex 130.7415410597098 -100.59217314394175 4.999999999999995
    vertex 131.31094295893533 -100.6671363261058 2.8999999999999946
  endloop
endfacet
facet normal 0.3826834323650871 0.923879532511288 0.0
  outer loop
    vertex 130.17213916048422 -104.91720996177769 2.8999999999999946
    vertex 129.6415410597098 -104.69742903226751 2.8999999999999946
    vertex 130.17213916048422 -104.91720996177769 4.999999999999995
  endloop
endfacet
facet normal 0.3826834323650871 0.923879532511288 0.0
  outer loop
    vertex 129.6415410597098 -104.69742903226751 4.999999999999995
    vertex 130.17213916048422 -104.91720996177769 4.999999999999995
    vertex 129.6415410597098 -104.69742903226751 2.8999999999999946
  endloop
endfacet
facet normal 0.1305261922200586 -0.9914448613738096 0.0
  outer loop
    vertex 130.17213916048422 -100.6671363261058 2.8999999999999946
    vertex 130.7415410597098 -100.59217314394175 2.8999999999999946
    vertex 130.17213916048422 -100.6671363261058 4.999999999999995
  endloop
endfacet
facet normal 0.1305261922200586 -0.9914448613738096 0.0
  outer loop
    vertex 130.7415410597098 -100.59217314394175 4.999999999999995
    vertex 130.17213916048422 -100.6671363261058 4.999999999999995
    vertex 130.7415410597098 -100.59217314394175 2.8999999999999946
  endloop
endfacet
endsolid ABC
