solid ABC
facet normal 0.0 0.0 -1.0
  outer loop
    vertex 171.90714987899256 -104.60750232413515 0.0
    vertex 171.550768690256 -103.59154615033782 0.0
    vertex 173.54544771422593 -100.88409815315025 0.0
  endloop
endfacet
facet normal 0.0 0.0 -1.0
  outer loop
    vertex 168.1411925174821 -94.3947365980051 0.0
    vertex 173.54544771422593 -100.88409815315025 0.0
    vertex 171.550768690256 -103.59154615033782 0.0
  endloop
endfacet
facet normal 0.0 0.0 -1.0
  outer loop
    vertex 170.48161799638692 -102.07558748786542 0.0
    vertex 168.1411925174821 -94.3947365980051 0.0
    vertex 171.550768690256 -103.59154615033782 0.0
  endloop
endfacet
facet normal 0.0 0.0 -1.0
  outer loop
    vertex 167.20502232592017 -98.05431098320172 0.0
    vertex 168.1411925174821 -94.3947365980051 0.0
    vertex 170.48161799638692 -102.07558748786542 0.0
  endloop
endfacet
facet normal 0.0 0.0 -1.0
  outer loop
    vertex 164.6092750442877 -90.40537057134203 0.0
    vertex 168.1411925174821 -94.3947365980051 0.0
    vertex 167.20502232592017 -98.05431098320172 0.0
  endloop
endfacet
facet normal 0.0 0.0 -1.0
  outer loop
    vertex 166.476299071149 -97.40005458844598 0.0
    vertex 164.6092750442877 -90.40537057134203 0.0
    vertex 167.20502232592017 -98.05431098320172 0.0
  endloop
endfacet
facet normal 0.0 0.0 -1.0
  outer loop
    vertex 165.69438406226345 -97.1819705774281 0.0
    vertex 164.6092750442877 -90.40537057134203 0.0
    vertex 166.476299071149 -97.40005458844598 0.0
  endloop
endfacet
facet normal 0.0 0.0 -1.0
  outer loop
    vertex 164.89651041012235 -97.66069157722347 0.0
    vertex 164.6092750442877 -90.40537057134203 0.0
    vertex 165.69438406226345 -97.1819705774281 0.0
  endloop
endfacet
facet normal 0.0 0.0 -1.0
  outer loop
    vertex 164.63055429912492 -99.09686415107748 0.0
    vertex 164.6092750442877 -90.40537057134203 0.0
    vertex 164.89651041012235 -97.66069157722347 0.0
  endloop
endfacet
facet normal 0.0 0.0 -1.0
  outer loop
    vertex 164.63055429912492 -100.13941731895326 0.0
    vertex 164.6092750442877 -90.40537057134203 0.0
    vertex 164.63055429912492 -99.09686415107748 0.0
  endloop
endfacet
facet normal 0.0 0.0 -1.0
  outer loop
    vertex 177.4603412425758 -108.88409797195213 0.0
    vertex 177.30874625930727 -110.18995013652382 0.0
    vertex 177.33800143151697 -107.06494795996394 0.0
  endloop
endfacet
facet normal 0.0 0.0 -1.0
  outer loop
    vertex 176.97097955153205 -105.69260868253649 0.0
    vertex 177.33800143151697 -107.06494795996394 0.0
    vertex 177.30874625930727 -110.18995013652382 0.0
  endloop
endfacet
facet normal 0.0 0.0 -1.0
  outer loop
    vertex 176.8539582775868 -111.04367239112338 0.0
    vertex 176.97097955153205 -105.69260868253649 0.0
    vertex 177.30874625930727 -110.18995013652382 0.0
  endloop
endfacet
facet normal 0.0 0.0 -1.0
  outer loop
    vertex 175.81672705107985 -103.77771755569556 0.0
    vertex 176.97097955153205 -105.69260868253649 0.0
    vertex 176.8539582775868 -111.04367239112338 0.0
  endloop
endfacet
facet normal 0.0 0.0 -1.0
  outer loop
    vertex 176.02683174046996 -111.51441784588664 0.0
    vertex 175.81672705107985 -103.77771755569556 0.0
    vertex 176.8539582775868 -111.04367239112338 0.0
  endloop
endfacet
facet normal 0.0 0.0 -1.0
  outer loop
    vertex 174.7582136442039 -111.67133195137512 0.0
    vertex 175.81672705107985 -103.77771755569556 0.0
    vertex 176.02683174046996 -111.51441784588664 0.0
  endloop
endfacet
facet normal 0.0 0.0 -1.0
  outer loop
    vertex 173.54544771422593 -100.88409815315025 0.0
    vertex 175.81672705107985 -103.77771755569556 0.0
    vertex 174.7582136442039 -111.67133195137512 0.0
  endloop
endfacet
facet normal 0.0 0.0 -1.0
  outer loop
    vertex 171.758214456834 -105.06229003989814 0.0
    vertex 173.54544771422593 -100.88409815315025 0.0
    vertex 174.7582136442039 -111.67133195137512 0.0
  endloop
endfacet
facet normal 0.0 0.0 -1.0
  outer loop
    vertex 166.4603414917232 -111.67133195137512 0.0
    vertex 171.758214456834 -105.06229003989814 0.0
    vertex 174.7582136442039 -111.67133195137512 0.0
  endloop
endfacet
facet normal 0.0 0.0 -1.0
  outer loop
    vertex 171.90714987899256 -104.60750232413515 0.0
    vertex 173.54544771422593 -100.88409815315025 0.0
    vertex 171.758214456834 -105.06229003989814 0.0
  endloop
endfacet
facet normal 0.0 0.0 -1.0
  outer loop
    vertex 171.311405211635 -105.320268265438 0.0
    vertex 171.758214456834 -105.06229003989814 0.0
    vertex 166.4603414917232 -111.67133195137512 0.0
  endloop
endfacet
facet normal 0.0 0.0 -1.0
  outer loop
    vertex 168.3539584701098 -105.54367251569708 0.0
    vertex 171.311405211635 -105.320268265438 0.0
    vertex 166.4603414917232 -111.67133195137512 0.0
  endloop
endfacet
facet normal 0.0 0.0 -1.0
  outer loop
    vertex 166.67310744435093 -105.56494911095987 0.0
    vertex 168.3539584701098 -105.54367251569708 0.0
    vertex 166.4603414917232 -111.67133195137512 0.0
  endloop
endfacet
facet normal 0.0 0.0 -1.0
  outer loop
    vertex 165.2050223712197 -105.320268265438 0.0
    vertex 166.67310744435093 -105.56494911095987 0.0
    vertex 166.4603414917232 -111.67133195137512 0.0
  endloop
endfacet
facet normal 0.0 0.0 -1.0
  outer loop
    vertex 165.268852157008 -112.02239577321085 0.0
    vertex 165.2050223712197 -105.320268265438 0.0
    vertex 166.4603414917232 -111.67133195137512 0.0
  endloop
endfacet
facet normal 0.0 0.0 -1.0
  outer loop
    vertex 164.9284266328037 -113.26707659608294 0.0
    vertex 165.2050223712197 -105.320268265438 0.0
    vertex 165.268852157008 -112.02239577321085 0.0
  endloop
endfacet
facet normal 0.0 0.0 -1.0
  outer loop
    vertex 164.75821387070152 -104.3521831809819 0.0
    vertex 165.2050223712197 -105.320268265438 0.0
    vertex 164.9284266328037 -113.26707659608294 0.0
  endloop
endfacet
facet normal 0.0 0.0 -1.0
  outer loop
    vertex 164.9284266328037 -115.45856590814836 0.0
    vertex 164.75821387070152 -104.3521831809819 0.0
    vertex 164.9284266328037 -113.26707659608294 0.0
  endloop
endfacet
facet normal 0.0 0.0 -1.0
  outer loop
    vertex 164.69438408491322 -116.5968637547066 0.0
    vertex 164.75821387070152 -104.3521831809819 0.0
    vertex 164.9284266328037 -115.45856590814836 0.0
  endloop
endfacet
facet normal 0.0 0.0 -1.0
  outer loop
    vertex 164.63055429912492 -100.13941731895326 0.0
    vertex 164.75821387070152 -104.3521831809819 0.0
    vertex 164.69438408491322 -116.5968637547066 0.0
  endloop
endfacet
facet normal 0.0 0.0 -1.0
  outer loop
    vertex 163.69438410756297 -116.86282119549124 0.0
    vertex 164.63055429912492 -100.13941731895326 0.0
    vertex 164.69438408491322 -116.5968637547066 0.0
  endloop
endfacet
facet normal 0.0 0.0 -1.0
  outer loop
    vertex 164.6092750442877 -90.40537057134203 0.0
    vertex 164.63055429912492 -100.13941731895326 0.0
    vertex 163.69438410756297 -116.86282119549124 0.0
  endloop
endfacet
facet normal 0.0 0.0 -1.0
  outer loop
    vertex 162.1411926533807 -88.18197078127598 0.0
    vertex 164.6092750442877 -90.40537057134203 0.0
    vertex 163.69438410756297 -116.86282119549124 0.0
  endloop
endfacet
facet normal 0.0 0.0 -1.0
  outer loop
    vertex 156.4177885276953 -116.86282119549124 0.0
    vertex 162.1411926533807 -88.18197078127598 0.0
    vertex 163.69438410756297 -116.86282119549124 0.0
  endloop
endfacet
facet normal 0.0 0.0 -1.0
  outer loop
    vertex 160.024171424735 -87.20324739918853 0.0
    vertex 162.1411926533807 -88.18197078127598 0.0
    vertex 156.4177885276953 -116.86282119549124 0.0
  endloop
endfacet
facet normal 0.0 0.0 -1.0
  outer loop
    vertex 157.69438424346157 -86.82026868445864 0.0
    vertex 160.024171424735 -87.20324739918853 0.0
    vertex 156.4177885276953 -116.86282119549124 0.0
  endloop
endfacet
facet normal 0.0 0.0 -1.0
  outer loop
    vertex 156.77948990248157 -86.95324673995735 0.0
    vertex 157.69438424346157 -86.82026868445864 0.0
    vertex 156.4177885276953 -116.86282119549124 0.0
  endloop
endfacet
facet normal 0.0 0.0 -1.0
  outer loop
    vertex 156.16246938454205 -87.35218356602792 0.0
    vertex 156.77948990248157 -86.95324673995735 0.0
    vertex 156.4177885276953 -116.86282119549124 0.0
  endloop
endfacet
facet normal 0.0 0.0 -1.0
  outer loop
    vertex 155.4497016879201 -116.47984407650601 0.0
    vertex 156.16246938454205 -87.35218356602792 0.0
    vertex 156.4177885276953 -116.86282119549124 0.0
  endloop
endfacet
facet normal 0.0 0.0 -1.0
  outer loop
    vertex 155.6943842887611 -103.79899170414986 0.0
    vertex 156.16246938454205 -87.35218356602792 0.0
    vertex 155.4497016879201 -116.47984407650601 0.0
  endloop
endfacet
facet normal 0.0 0.0 -1.0
  outer loop
    vertex 155.81140497759998 -88.05431035863555 0.0
    vertex 156.16246938454205 -87.35218356602792 0.0
    vertex 155.6943842887611 -103.79899170414986 0.0
  endloop
endfacet
facet normal 0.0 0.0 -1.0
  outer loop
    vertex 155.6943842887611 -89.09686437757514 0.0
    vertex 155.81140497759998 -88.05431035863555 0.0
    vertex 155.6943842887611 -103.79899170414986 0.0
  endloop
endfacet
facet normal 0.0 0.0 -1.0
  outer loop
    vertex 155.51353322902753 -104.70324700281762 0.0
    vertex 155.6943842887611 -103.79899170414986 0.0
    vertex 155.4497016879201 -116.47984407650601 0.0
  endloop
endfacet
facet normal 0.0 0.0 -1.0
  outer loop
    vertex 154.84332047825026 -104.94792784833949 0.0
    vertex 155.51353322902753 -104.70324700281762 0.0
    vertex 155.4497016879201 -116.47984407650601 0.0
  endloop
endfacet
facet normal 0.0 0.0 -1.0
  outer loop
    vertex 155.1837460024546 -112.94792766714139 0.0
    vertex 154.84332047825026 -104.94792784833949 0.0
    vertex 155.4497016879201 -116.47984407650601 0.0
  endloop
endfacet
facet normal 0.0 0.0 -1.0
  outer loop
    vertex 154.99225664508967 -112.03303407084222 0.0
    vertex 154.84332047825026 -104.94792784833949 0.0
    vertex 155.1837460024546 -112.94792766714139 0.0
  endloop
endfacet
facet normal 0.0 0.0 -1.0
  outer loop
    vertex 154.05608645352774 -111.7564383324262 0.0
    vertex 154.84332047825026 -104.94792784833949 0.0
    vertex 154.99225664508967 -112.03303407084222 0.0
  endloop
endfacet
facet normal 0.0 0.0 -1.0
  outer loop
    vertex 153.9497034772139 -104.94792784833949 0.0
    vertex 154.84332047825026 -104.94792784833949 0.0
    vertex 154.05608645352774 -111.7564383324262 0.0
  endloop
endfacet
facet normal 0.0 0.0 -1.0
  outer loop
    vertex 153.1943829092153 -111.36282254346916 0.0
    vertex 153.9497034772139 -104.94792784833949 0.0
    vertex 154.05608645352774 -111.7564383324262 0.0
  endloop
endfacet
facet normal 0.0 0.0 -1.0
  outer loop
    vertex 153.18906399976134 -105.2404794640537 0.0
    vertex 153.9497034772139 -104.94792784833949 0.0
    vertex 153.1943829092153 -111.36282254346916 0.0
  endloop
endfacet
facet normal 0.0 0.0 -1.0
  outer loop
    vertex 152.9071503093381 -110.47984261665995 0.0
    vertex 153.18906399976134 -105.2404794640537 0.0
    vertex 153.1943829092153 -111.36282254346916 0.0
  endloop
endfacet
facet normal 0.0 0.0 -1.0
  outer loop
    vertex 152.9071503093381 -106.16069377831744 0.0
    vertex 153.18906399976134 -105.2404794640537 0.0
    vertex 152.9071503093381 -110.47984261665995 0.0
  endloop
endfacet
facet normal 0.0 0.0 -1.0
  outer loop
    vertex 155.1837460024546 -112.94792766714139 0.0
    vertex 155.4497016879201 -116.47984407650601 0.0
    vertex 155.1837460024546 -115.45856590814836 0.0
  endloop
endfacet
facet normal 0.0 0.0 1.0
  outer loop
    vertex 155.6943842887611 -103.79899170414986 5.0
    vertex 155.81140497759998 -88.05431035863555 5.0
    vertex 155.6943842887611 -89.09686437757514 5.0
  endloop
endfacet
facet normal 0.0 0.0 1.0
  outer loop
    vertex 162.39145743975968 -108.29781189196807 4.999999999999995
    vertex 162.31649425759562 -108.86721379119362 4.999999999999995
    vertex 163.69438410756297 -116.86282119549124 5.0
  endloop
endfacet
facet normal 0.0 0.0 1.0
  outer loop
    vertex 162.09671332808543 -109.39781189196806 4.999999999999995
    vertex 163.69438410756297 -116.86282119549124 5.0
    vertex 162.31649425759562 -108.86721379119362 4.999999999999995
  endloop
endfacet
facet normal 0.0 0.0 1.0
  outer loop
    vertex 156.4177885276953 -116.86282119549124 5.0
    vertex 163.69438410756297 -116.86282119549124 5.0
    vertex 162.09671332808543 -109.39781189196806 4.999999999999995
  endloop
endfacet
facet normal 0.0 0.0 1.0
  outer loop
    vertex 161.74709235837005 -109.85344681057845 4.999999999999995
    vertex 156.4177885276953 -116.86282119549124 5.0
    vertex 162.09671332808543 -109.39781189196806 4.999999999999995
  endloop
endfacet
facet normal 0.0 0.0 1.0
  outer loop
    vertex 161.29145743975965 -110.20306778029382 4.999999999999995
    vertex 156.4177885276953 -116.86282119549124 5.0
    vertex 161.74709235837005 -109.85344681057845 4.999999999999995
  endloop
endfacet
facet normal 0.0 0.0 1.0
  outer loop
    vertex 160.7608593389852 -110.422848709804 4.999999999999995
    vertex 156.4177885276953 -116.86282119549124 5.0
    vertex 161.29145743975965 -110.20306778029382 4.999999999999995
  endloop
endfacet
facet normal 0.0 0.0 1.0
  outer loop
    vertex 160.19145743975966 -110.49781189196806 4.999999999999995
    vertex 156.4177885276953 -116.86282119549124 5.0
    vertex 160.7608593389852 -110.422848709804 4.999999999999995
  endloop
endfacet
facet normal 0.0 0.0 1.0
  outer loop
    vertex 159.62205554053415 -110.422848709804 4.999999999999995
    vertex 156.4177885276953 -116.86282119549124 5.0
    vertex 160.19145743975966 -110.49781189196806 4.999999999999995
  endloop
endfacet
facet normal 0.0 0.0 1.0
  outer loop
    vertex 159.09145743975967 -110.20306778029382 4.999999999999995
    vertex 156.4177885276953 -116.86282119549124 5.0
    vertex 159.62205554053415 -110.422848709804 4.999999999999995
  endloop
endfacet
facet normal 0.0 0.0 1.0
  outer loop
    vertex 158.63582252114927 -109.85344681057848 4.999999999999995
    vertex 156.4177885276953 -116.86282119549124 5.0
    vertex 159.09145743975967 -110.20306778029382 4.999999999999995
  endloop
endfacet
facet normal 0.0 0.0 1.0
  outer loop
    vertex 158.28620155143392 -109.39781189196806 4.999999999999995
    vertex 156.4177885276953 -116.86282119549124 5.0
    vertex 158.63582252114927 -109.85344681057848 4.999999999999995
  endloop
endfacet
facet normal 0.0 0.0 1.0
  outer loop
    vertex 158.06642062192373 -108.86721379119362 4.999999999999995
    vertex 156.4177885276953 -116.86282119549124 5.0
    vertex 158.28620155143392 -109.39781189196806 4.999999999999995
  endloop
endfacet
facet normal 0.0 0.0 1.0
  outer loop
    vertex 157.99145743975967 -108.29781189196807 4.999999999999995
    vertex 156.4177885276953 -116.86282119549124 5.0
    vertex 158.06642062192373 -108.86721379119362 4.999999999999995
  endloop
endfacet
facet normal 0.0 0.0 1.0
  outer loop
    vertex 157.69438424346157 -86.82026868445864 5.0
    vertex 156.4177885276953 -116.86282119549124 5.0
    vertex 157.99145743975967 -108.29781189196807 4.999999999999995
  endloop
endfacet
facet normal 0.0 0.0 1.0
  outer loop
    vertex 156.77948990248157 -86.95324673995735 5.0
    vertex 156.4177885276953 -116.86282119549124 5.0
    vertex 157.69438424346157 -86.82026868445864 5.0
  endloop
endfacet
facet normal 0.0 0.0 1.0
  outer loop
    vertex 156.16246938454205 -87.35218356602792 5.0
    vertex 156.4177885276953 -116.86282119549124 5.0
    vertex 156.77948990248157 -86.95324673995735 5.0
  endloop
endfacet
facet normal 0.0 0.0 1.0
  outer loop
    vertex 155.4497016879201 -116.47984407650601 5.0
    vertex 156.4177885276953 -116.86282119549124 5.0
    vertex 156.16246938454205 -87.35218356602792 5.0
  endloop
endfacet
facet normal 0.0 0.0 1.0
  outer loop
    vertex 155.6943842887611 -103.79899170414986 5.0
    vertex 155.4497016879201 -116.47984407650601 5.0
    vertex 156.16246938454205 -87.35218356602792 5.0
  endloop
endfacet
facet normal 0.0 0.0 1.0
  outer loop
    vertex 155.81140497759998 -88.05431035863555 5.0
    vertex 155.6943842887611 -103.79899170414986 5.0
    vertex 156.16246938454205 -87.35218356602792 5.0
  endloop
endfacet
facet normal 0.0 0.0 1.0
  outer loop
    vertex 155.51353322902753 -104.70324700281762 5.0
    vertex 155.4497016879201 -116.47984407650601 5.0
    vertex 155.6943842887611 -103.79899170414986 5.0
  endloop
endfacet
facet normal 0.0 0.0 1.0
  outer loop
    vertex 154.84332047825026 -104.94792784833949 5.0
    vertex 155.4497016879201 -116.47984407650601 5.0
    vertex 155.51353322902753 -104.70324700281762 5.0
  endloop
endfacet
facet normal 0.0 0.0 1.0
  outer loop
    vertex 155.1837460024546 -112.94792766714139 5.0
    vertex 155.4497016879201 -116.47984407650601 5.0
    vertex 154.84332047825026 -104.94792784833949 5.0
  endloop
endfacet
facet normal 0.0 0.0 1.0
  outer loop
    vertex 155.1837460024546 -115.45856590814836 5.0
    vertex 155.4497016879201 -116.47984407650601 5.0
    vertex 155.1837460024546 -112.94792766714139 5.0
  endloop
endfacet
facet normal 0.0 0.0 1.0
  outer loop
    vertex 154.99225664508967 -112.03303407084222 5.0
    vertex 155.1837460024546 -112.94792766714139 5.0
    vertex 154.84332047825026 -104.94792784833949 5.0
  endloop
endfacet
facet normal 0.0 0.0 1.0
  outer loop
    vertex 154.05608645352774 -111.7564383324262 5.0
    vertex 154.99225664508967 -112.03303407084222 5.0
    vertex 154.84332047825026 -104.94792784833949 5.0
  endloop
endfacet
facet normal 0.0 0.0 1.0
  outer loop
    vertex 153.9497034772139 -104.94792784833949 5.0
    vertex 154.05608645352774 -111.7564383324262 5.0
    vertex 154.84332047825026 -104.94792784833949 5.0
  endloop
endfacet
facet normal 0.0 0.0 1.0
  outer loop
    vertex 153.1943829092153 -111.36282254346916 5.0
    vertex 154.05608645352774 -111.7564383324262 5.0
    vertex 153.9497034772139 -104.94792784833949 5.0
  endloop
endfacet
facet normal 0.0 0.0 1.0
  outer loop
    vertex 153.18906399976134 -105.2404794640537 5.0
    vertex 153.1943829092153 -111.36282254346916 5.0
    vertex 153.9497034772139 -104.94792784833949 5.0
  endloop
endfacet
facet normal 0.0 0.0 1.0
  outer loop
    vertex 152.9071503093381 -110.47984261665995 5.0
    vertex 153.1943829092153 -111.36282254346916 5.0
    vertex 153.18906399976134 -105.2404794640537 5.0
  endloop
endfacet
facet normal 0.0 0.0 1.0
  outer loop
    vertex 152.9071503093381 -106.16069377831744 5.0
    vertex 152.9071503093381 -110.47984261665995 5.0
    vertex 153.18906399976134 -105.2404794640537 5.0
  endloop
endfacet
facet normal 0.0 0.0 1.0
  outer loop
    vertex 164.9284266328037 -115.45856590814836 5.0
    vertex 164.9284266328037 -113.26707659608294 5.0
    vertex 164.69438408491322 -116.5968637547066 5.0
  endloop
endfacet
facet normal 0.0 0.0 1.0
  outer loop
    vertex 164.75821387070152 -104.3521831809819 5.0
    vertex 164.69438408491322 -116.5968637547066 5.0
    vertex 164.9284266328037 -113.26707659608294 5.0
  endloop
endfacet
facet normal 0.0 0.0 1.0
  outer loop
    vertex 164.63055429912492 -100.13941731895326 5.0
    vertex 164.69438408491322 -116.5968637547066 5.0
    vertex 164.75821387070152 -104.3521831809819 5.0
  endloop
endfacet
facet normal 0.0 0.0 1.0
  outer loop
    vertex 163.69438410756297 -116.86282119549124 5.0
    vertex 164.69438408491322 -116.5968637547066 5.0
    vertex 164.63055429912492 -100.13941731895326 5.0
  endloop
endfacet
facet normal 0.0 0.0 1.0
  outer loop
    vertex 164.63055429912492 -99.09686415107748 5.0
    vertex 163.69438410756297 -116.86282119549124 5.0
    vertex 164.63055429912492 -100.13941731895326 5.0
  endloop
endfacet
facet normal 0.0 0.0 1.0
  outer loop
    vertex 164.6092750442877 -90.40537057134203 5.0
    vertex 163.69438410756297 -116.86282119549124 5.0
    vertex 164.63055429912492 -99.09686415107748 5.0
  endloop
endfacet
facet normal 0.0 0.0 1.0
  outer loop
    vertex 162.1411926533807 -88.18197078127598 5.0
    vertex 163.69438410756297 -116.86282119549124 5.0
    vertex 164.6092750442877 -90.40537057134203 5.0
  endloop
endfacet
facet normal 0.0 0.0 1.0
  outer loop
    vertex 162.39145743975968 -108.29781189196807 4.999999999999995
    vertex 163.69438410756297 -116.86282119549124 5.0
    vertex 162.1411926533807 -88.18197078127598 5.0
  endloop
endfacet
facet normal 0.0 0.0 1.0
  outer loop
    vertex 162.31649425759562 -107.72840999274251 4.999999999999995
    vertex 162.39145743975968 -108.29781189196807 4.999999999999995
    vertex 162.1411926533807 -88.18197078127598 5.0
  endloop
endfacet
facet normal 0.0 0.0 1.0
  outer loop
    vertex 162.09671332808543 -107.19781189196807 4.999999999999995
    vertex 162.31649425759562 -107.72840999274251 4.999999999999995
    vertex 162.1411926533807 -88.18197078127598 5.0
  endloop
endfacet
facet normal 0.0 0.0 1.0
  outer loop
    vertex 160.024171424735 -87.20324739918853 5.0
    vertex 162.09671332808543 -107.19781189196807 4.999999999999995
    vertex 162.1411926533807 -88.18197078127598 5.0
  endloop
endfacet
facet normal 0.0 0.0 1.0
  outer loop
    vertex 161.74709235837005 -106.74217697335764 4.999999999999995
    vertex 162.09671332808543 -107.19781189196807 4.999999999999995
    vertex 160.024171424735 -87.20324739918853 5.0
  endloop
endfacet
facet normal 0.0 0.0 1.0
  outer loop
    vertex 161.29145743975965 -106.39255600364231 4.999999999999995
    vertex 161.74709235837005 -106.74217697335764 4.999999999999995
    vertex 160.024171424735 -87.20324739918853 5.0
  endloop
endfacet
facet normal 0.0 0.0 1.0
  outer loop
    vertex 160.7608593389852 -106.17277507413212 4.999999999999995
    vertex 161.29145743975965 -106.39255600364231 4.999999999999995
    vertex 160.024171424735 -87.20324739918853 5.0
  endloop
endfacet
facet normal 0.0 0.0 1.0
  outer loop
    vertex 160.19145743975966 -106.09781189196806 4.999999999999995
    vertex 160.7608593389852 -106.17277507413212 4.999999999999995
    vertex 160.024171424735 -87.20324739918853 5.0
  endloop
endfacet
facet normal 0.0 0.0 1.0
  outer loop
    vertex 159.62205554053415 -106.17277507413212 4.999999999999995
    vertex 160.19145743975966 -106.09781189196806 4.999999999999995
    vertex 160.024171424735 -87.20324739918853 5.0
  endloop
endfacet
facet normal 0.0 0.0 1.0
  outer loop
    vertex 157.69438424346157 -86.82026868445864 5.0
    vertex 159.62205554053415 -106.17277507413212 4.999999999999995
    vertex 160.024171424735 -87.20324739918853 5.0
  endloop
endfacet
facet normal 0.0 0.0 1.0
  outer loop
    vertex 159.09145743975967 -106.39255600364231 4.999999999999995
    vertex 159.62205554053415 -106.17277507413212 4.999999999999995
    vertex 157.69438424346157 -86.82026868445864 5.0
  endloop
endfacet
facet normal 0.0 0.0 1.0
  outer loop
    vertex 158.63582252114927 -106.74217697335767 4.999999999999995
    vertex 159.09145743975967 -106.39255600364231 4.999999999999995
    vertex 157.69438424346157 -86.82026868445864 5.0
  endloop
endfacet
facet normal 0.0 0.0 1.0
  outer loop
    vertex 158.28620155143392 -107.19781189196807 4.999999999999995
    vertex 158.63582252114927 -106.74217697335767 4.999999999999995
    vertex 157.69438424346157 -86.82026868445864 5.0
  endloop
endfacet
facet normal 0.0 0.0 1.0
  outer loop
    vertex 158.06642062192373 -107.72840999274251 4.999999999999995
    vertex 158.28620155143392 -107.19781189196807 4.999999999999995
    vertex 157.69438424346157 -86.82026868445864 5.0
  endloop
endfacet
facet normal 0.0 0.0 1.0
  outer loop
    vertex 157.99145743975967 -108.29781189196807 4.999999999999995
    vertex 158.06642062192373 -107.72840999274251 4.999999999999995
    vertex 157.69438424346157 -86.82026868445864 5.0
  endloop
endfacet
facet normal 0.0 0.0 1.0
  outer loop
    vertex 168.1411925174821 -94.3947365980051 5.0
    vertex 171.550768690256 -103.59154615033782 5.0
    vertex 173.54544771422593 -100.88409815315025 5.0
  endloop
endfacet
facet normal 0.0 0.0 1.0
  outer loop
    vertex 171.90714987899256 -104.60750232413515 5.0
    vertex 173.54544771422593 -100.88409815315025 5.0
    vertex 171.550768690256 -103.59154615033782 5.0
  endloop
endfacet
facet normal 0.0 0.0 1.0
  outer loop
    vertex 170.48161799638692 -102.07558748786542 5.0
    vertex 171.550768690256 -103.59154615033782 5.0
    vertex 168.1411925174821 -94.3947365980051 5.0
  endloop
endfacet
facet normal 0.0 0.0 1.0
  outer loop
    vertex 167.20502232592017 -98.05431098320172 5.0
    vertex 170.48161799638692 -102.07558748786542 5.0
    vertex 168.1411925174821 -94.3947365980051 5.0
  endloop
endfacet
facet normal 0.0 0.0 1.0
  outer loop
    vertex 164.6092750442877 -90.40537057134203 5.0
    vertex 167.20502232592017 -98.05431098320172 5.0
    vertex 168.1411925174821 -94.3947365980051 5.0
  endloop
endfacet
facet normal 0.0 0.0 1.0
  outer loop
    vertex 166.476299071149 -97.40005458844598 5.0
    vertex 167.20502232592017 -98.05431098320172 5.0
    vertex 164.6092750442877 -90.40537057134203 5.0
  endloop
endfacet
facet normal 0.0 0.0 1.0
  outer loop
    vertex 165.69438406226345 -97.1819705774281 5.0
    vertex 166.476299071149 -97.40005458844598 5.0
    vertex 164.6092750442877 -90.40537057134203 5.0
  endloop
endfacet
facet normal 0.0 0.0 1.0
  outer loop
    vertex 164.89651041012235 -97.66069157722347 5.0
    vertex 165.69438406226345 -97.1819705774281 5.0
    vertex 164.6092750442877 -90.40537057134203 5.0
  endloop
endfacet
facet normal 0.0 0.0 1.0
  outer loop
    vertex 164.63055429912492 -99.09686415107748 5.0
    vertex 164.89651041012235 -97.66069157722347 5.0
    vertex 164.6092750442877 -90.40537057134203 5.0
  endloop
endfacet
facet normal 0.0 0.0 1.0
  outer loop
    vertex 177.4603412425758 -108.88409797195213 5.0
    vertex 177.33800143151697 -107.06494795996394 5.0
    vertex 177.30874625930727 -110.18995013652382 5.0
  endloop
endfacet
facet normal 0.0 0.0 1.0
  outer loop
    vertex 176.97097955153205 -105.69260868253649 5.0
    vertex 177.30874625930727 -110.18995013652382 5.0
    vertex 177.33800143151697 -107.06494795996394 5.0
  endloop
endfacet
facet normal 0.0 0.0 1.0
  outer loop
    vertex 176.8539582775868 -111.04367239112338 5.0
    vertex 177.30874625930727 -110.18995013652382 5.0
    vertex 176.97097955153205 -105.69260868253649 5.0
  endloop
endfacet
facet normal 0.0 0.0 1.0
  outer loop
    vertex 175.81672705107985 -103.77771755569556 5.0
    vertex 176.8539582775868 -111.04367239112338 5.0
    vertex 176.97097955153205 -105.69260868253649 5.0
  endloop
endfacet
facet normal 0.0 0.0 1.0
  outer loop
    vertex 176.02683174046996 -111.51441784588664 5.0
    vertex 176.8539582775868 -111.04367239112338 5.0
    vertex 175.81672705107985 -103.77771755569556 5.0
  endloop
endfacet
facet normal 0.0 0.0 1.0
  outer loop
    vertex 174.7582136442039 -111.67133195137512 5.0
    vertex 176.02683174046996 -111.51441784588664 5.0
    vertex 175.81672705107985 -103.77771755569556 5.0
  endloop
endfacet
facet normal 0.0 0.0 1.0
  outer loop
    vertex 173.54544771422593 -100.88409815315025 5.0
    vertex 174.7582136442039 -111.67133195137512 5.0
    vertex 175.81672705107985 -103.77771755569556 5.0
  endloop
endfacet
facet normal 0.0 0.0 1.0
  outer loop
    vertex 171.758214456834 -105.06229003989814 5.0
    vertex 174.7582136442039 -111.67133195137512 5.0
    vertex 173.54544771422593 -100.88409815315025 5.0
  endloop
endfacet
facet normal 0.0 0.0 1.0
  outer loop
    vertex 166.4603414917232 -111.67133195137512 5.0
    vertex 174.7582136442039 -111.67133195137512 5.0
    vertex 171.758214456834 -105.06229003989814 5.0
  endloop
endfacet
facet normal 0.0 0.0 1.0
  outer loop
    vertex 171.90714987899256 -104.60750232413515 5.0
    vertex 171.758214456834 -105.06229003989814 5.0
    vertex 173.54544771422593 -100.88409815315025 5.0
  endloop
endfacet
facet normal 0.0 0.0 1.0
  outer loop
    vertex 171.311405211635 -105.320268265438 5.0
    vertex 166.4603414917232 -111.67133195137512 5.0
    vertex 171.758214456834 -105.06229003989814 5.0
  endloop
endfacet
facet normal 0.0 0.0 1.0
  outer loop
    vertex 168.3539584701098 -105.54367251569708 5.0
    vertex 166.4603414917232 -111.67133195137512 5.0
    vertex 171.311405211635 -105.320268265438 5.0
  endloop
endfacet
facet normal 0.0 0.0 1.0
  outer loop
    vertex 166.67310744435093 -105.56494911095987 5.0
    vertex 166.4603414917232 -111.67133195137512 5.0
    vertex 168.3539584701098 -105.54367251569708 5.0
  endloop
endfacet
facet normal 0.0 0.0 1.0
  outer loop
    vertex 165.2050223712197 -105.320268265438 5.0
    vertex 166.4603414917232 -111.67133195137512 5.0
    vertex 166.67310744435093 -105.56494911095987 5.0
  endloop
endfacet
facet normal 0.0 0.0 1.0
  outer loop
    vertex 165.268852157008 -112.02239577321085 5.0
    vertex 166.4603414917232 -111.67133195137512 5.0
    vertex 165.2050223712197 -105.320268265438 5.0
  endloop
endfacet
facet normal 0.0 0.0 1.0
  outer loop
    vertex 164.9284266328037 -113.26707659608294 5.0
    vertex 165.268852157008 -112.02239577321085 5.0
    vertex 165.2050223712197 -105.320268265438 5.0
  endloop
endfacet
facet normal 0.0 0.0 1.0
  outer loop
    vertex 164.75821387070152 -104.3521831809819 5.0
    vertex 164.9284266328037 -113.26707659608294 5.0
    vertex 165.2050223712197 -105.320268265438 5.0
  endloop
endfacet
facet normal -1.0 0.0 0.0
  outer loop
    vertex 155.6943842887611 -103.79899170414986 0.0
    vertex 155.6943842887611 -103.79899170414986 5.0
    vertex 155.6943842887611 -89.09686437757514 0.0
  endloop
endfacet
facet normal -1.0 0.0 0.0
  outer loop
    vertex 155.6943842887611 -89.09686437757514 5.0
    vertex 155.6943842887611 -89.09686437757514 0.0
    vertex 155.6943842887611 -103.79899170414986 5.0
  endloop
endfacet
facet normal -0.9805806756909204 0.19611613513818316 0.0
  outer loop
    vertex 155.51353322902753 -104.70324700281762 0.0
    vertex 155.51353322902753 -104.70324700281762 5.0
    vertex 155.6943842887611 -103.79899170414986 0.0
  endloop
endfacet
facet normal -0.9805806756909204 0.19611613513818316 0.0
  outer loop
    vertex 155.6943842887611 -103.79899170414986 5.0
    vertex 155.6943842887611 -103.79899170414986 0.0
    vertex 155.51353322902753 -104.70324700281762 5.0
  endloop
endfacet
facet normal -0.3429399739025939 0.9393573198201461 0.0
  outer loop
    vertex 155.51353322902753 -104.70324700281762 0.0
    vertex 154.84332047825026 -104.94792784833949 0.0
    vertex 155.51353322902753 -104.70324700281762 5.0
  endloop
endfacet
facet normal -0.3429399739025939 0.9393573198201461 0.0
  outer loop
    vertex 154.84332047825026 -104.94792784833949 5.0
    vertex 155.51353322902753 -104.70324700281762 5.0
    vertex 154.84332047825026 -104.94792784833949 0.0
  endloop
endfacet
facet normal 0.0 1.0 0.0
  outer loop
    vertex 154.84332047825026 -104.94792784833949 0.0
    vertex 153.9497034772139 -104.94792784833949 0.0
    vertex 154.84332047825026 -104.94792784833949 5.0
  endloop
endfacet
facet normal 0.0 1.0 0.0
  outer loop
    vertex 153.9497034772139 -104.94792784833949 5.0
    vertex 154.84332047825026 -104.94792784833949 5.0
    vertex 153.9497034772139 -104.94792784833949 0.0
  endloop
endfacet
facet normal -0.3589769099587615 0.9333464405655917 0.0
  outer loop
    vertex 153.9497034772139 -104.94792784833949 0.0
    vertex 153.18906399976134 -105.2404794640537 0.0
    vertex 153.9497034772139 -104.94792784833949 5.0
  endloop
endfacet
facet normal -0.3589769099587615 0.9333464405655917 0.0
  outer loop
    vertex 153.18906399976134 -105.2404794640537 5.0
    vertex 153.9497034772139 -104.94792784833949 5.0
    vertex 153.18906399976134 -105.2404794640537 0.0
  endloop
endfacet
facet normal -0.9561372820301066 0.29291892720013896 0.0
  outer loop
    vertex 152.9071503093381 -106.16069377831744 0.0
    vertex 152.9071503093381 -106.16069377831744 5.0
    vertex 153.18906399976134 -105.2404794640537 0.0
  endloop
endfacet
facet normal -0.9561372820301066 0.29291892720013896 0.0
  outer loop
    vertex 153.18906399976134 -105.2404794640537 5.0
    vertex 153.18906399976134 -105.2404794640537 0.0
    vertex 152.9071503093381 -106.16069377831744 5.0
  endloop
endfacet
facet normal -1.0 0.0 0.0
  outer loop
    vertex 152.9071503093381 -110.47984261665995 0.0
    vertex 152.9071503093381 -110.47984261665995 5.0
    vertex 152.9071503093381 -106.16069377831744 0.0
  endloop
endfacet
facet normal -1.0 0.0 0.0
  outer loop
    vertex 152.9071503093381 -106.16069377831744 5.0
    vertex 152.9071503093381 -106.16069377831744 0.0
    vertex 152.9071503093381 -110.47984261665995 5.0
  endloop
endfacet
facet normal -0.9509504178380537 -0.30934334131128705 0.0
  outer loop
    vertex 153.1943829092153 -111.36282254346916 0.0
    vertex 153.1943829092153 -111.36282254346916 5.0
    vertex 152.9071503093381 -110.47984261665995 0.0
  endloop
endfacet
facet normal -0.9509504178380537 -0.30934334131128705 0.0
  outer loop
    vertex 152.9071503093381 -110.47984261665995 5.0
    vertex 152.9071503093381 -110.47984261665995 0.0
    vertex 153.1943829092153 -111.36282254346916 5.0
  endloop
endfacet
facet normal -0.41549271615416433 -0.9095965055027615 0.0
  outer loop
    vertex 153.1943829092153 -111.36282254346916 0.0
    vertex 154.05608645352774 -111.7564383324262 0.0
    vertex 153.1943829092153 -111.36282254346916 5.0
  endloop
endfacet
facet normal -0.41549271615416433 -0.9095965055027615 0.0
  outer loop
    vertex 154.05608645352774 -111.7564383324262 5.0
    vertex 153.1943829092153 -111.36282254346916 5.0
    vertex 154.05608645352774 -111.7564383324262 0.0
  endloop
endfacet
facet normal -0.28334614101740274 -0.9590177080589003 0.0
  outer loop
    vertex 154.05608645352774 -111.7564383324262 0.0
    vertex 154.99225664508967 -112.03303407084222 0.0
    vertex 154.05608645352774 -111.7564383324262 5.0
  endloop
endfacet
facet normal -0.28334614101740274 -0.9590177080589003 0.0
  outer loop
    vertex 154.99225664508967 -112.03303407084222 5.0
    vertex 154.05608645352774 -111.7564383324262 5.0
    vertex 154.99225664508967 -112.03303407084222 0.0
  endloop
endfacet
facet normal -0.9787906252528688 -0.20486315412269385 0.0
  outer loop
    vertex 155.1837460024546 -112.94792766714139 0.0
    vertex 155.1837460024546 -112.94792766714139 5.0
    vertex 154.99225664508967 -112.03303407084222 0.0
  endloop
endfacet
facet normal -0.9787906252528688 -0.20486315412269385 0.0
  outer loop
    vertex 154.99225664508967 -112.03303407084222 5.0
    vertex 154.99225664508967 -112.03303407084222 0.0
    vertex 155.1837460024546 -112.94792766714139 5.0
  endloop
endfacet
facet normal -1.0 0.0 0.0
  outer loop
    vertex 155.1837460024546 -115.45856590814836 0.0
    vertex 155.1837460024546 -115.45856590814836 5.0
    vertex 155.1837460024546 -112.94792766714139 0.0
  endloop
endfacet
facet normal -1.0 0.0 0.0
  outer loop
    vertex 155.1837460024546 -112.94792766714139 5.0
    vertex 155.1837460024546 -112.94792766714139 0.0
    vertex 155.1837460024546 -115.45856590814836 5.0
  endloop
endfacet
facet normal -0.9677247361890998 -0.2520095930073638 0.0
  outer loop
    vertex 155.4497016879201 -116.47984407650601 0.0
    vertex 155.4497016879201 -116.47984407650601 5.0
    vertex 155.1837460024546 -115.45856590814836 0.0
  endloop
endfacet
facet normal -0.9677247361890998 -0.2520095930073638 0.0
  outer loop
    vertex 155.1837460024546 -115.45856590814836 5.0
    vertex 155.1837460024546 -115.45856590814836 0.0
    vertex 155.4497016879201 -116.47984407650601 5.0
  endloop
endfacet
facet normal -0.36786249447815755 -0.9298801993570504 0.0
  outer loop
    vertex 155.4497016879201 -116.47984407650601 0.0
    vertex 156.4177885276953 -116.86282119549124 0.0
    vertex 155.4497016879201 -116.47984407650601 5.0
  endloop
endfacet
facet normal -0.36786249447815755 -0.9298801993570504 0.0
  outer loop
    vertex 156.4177885276953 -116.86282119549124 5.0
    vertex 155.4497016879201 -116.47984407650601 5.0
    vertex 156.4177885276953 -116.86282119549124 0.0
  endloop
endfacet
facet normal 0.0 -1.0 0.0
  outer loop
    vertex 156.4177885276953 -116.86282119549124 0.0
    vertex 163.69438410756297 -116.86282119549124 0.0
    vertex 156.4177885276953 -116.86282119549124 5.0
  endloop
endfacet
facet normal 0.0 -1.0 0.0
  outer loop
    vertex 163.69438410756297 -116.86282119549124 5.0
    vertex 156.4177885276953 -116.86282119549124 5.0
    vertex 163.69438410756297 -116.86282119549124 0.0
  endloop
endfacet
facet normal 0.2570227035097054 -0.9664053651964905 0.0
  outer loop
    vertex 163.69438410756297 -116.86282119549124 0.0
    vertex 164.69438408491322 -116.5968637547066 0.0
    vertex 163.69438410756297 -116.86282119549124 5.0
  endloop
endfacet
facet normal 0.2570227035097054 -0.9664053651964905 0.0
  outer loop
    vertex 164.69438408491322 -116.5968637547066 5.0
    vertex 163.69438410756297 -116.86282119549124 5.0
    vertex 164.69438408491322 -116.5968637547066 0.0
  endloop
endfacet
facet normal 0.9795101877096705 -0.20139461803376504 0.0
  outer loop
    vertex 164.69438408491322 -116.5968637547066 5.0
    vertex 164.69438408491322 -116.5968637547066 0.0
    vertex 164.9284266328037 -115.45856590814836 5.0
  endloop
endfacet
facet normal 0.9795101877096705 -0.20139461803376504 0.0
  outer loop
    vertex 164.9284266328037 -115.45856590814836 0.0
    vertex 164.9284266328037 -115.45856590814836 5.0
    vertex 164.69438408491322 -116.5968637547066 0.0
  endloop
endfacet
facet normal 1.0 0.0 0.0
  outer loop
    vertex 164.9284266328037 -115.45856590814836 5.0
    vertex 164.9284266328037 -115.45856590814836 0.0
    vertex 164.9284266328037 -113.26707659608294 5.0
  endloop
endfacet
facet normal 1.0 0.0 0.0
  outer loop
    vertex 164.9284266328037 -113.26707659608294 0.0
    vertex 164.9284266328037 -113.26707659608294 5.0
    vertex 164.9284266328037 -115.45856590814836 0.0
  endloop
endfacet
facet normal 0.9645733178894061 -0.26381492455094857 0.0
  outer loop
    vertex 164.9284266328037 -113.26707659608294 5.0
    vertex 164.9284266328037 -113.26707659608294 0.0
    vertex 165.268852157008 -112.02239577321085 5.0
  endloop
endfacet
facet normal 0.9645733178894061 -0.26381492455094857 0.0
  outer loop
    vertex 165.268852157008 -112.02239577321085 0.0
    vertex 165.268852157008 -112.02239577321085 5.0
    vertex 164.9284266328037 -113.26707659608294 0.0
  endloop
endfacet
facet normal 0.2826299765775672 -0.9592290114147736 0.0
  outer loop
    vertex 165.268852157008 -112.02239577321085 0.0
    vertex 166.4603414917232 -111.67133195137512 0.0
    vertex 165.268852157008 -112.02239577321085 5.0
  endloop
endfacet
facet normal 0.2826299765775672 -0.9592290114147736 0.0
  outer loop
    vertex 166.4603414917232 -111.67133195137512 5.0
    vertex 165.268852157008 -112.02239577321085 5.0
    vertex 166.4603414917232 -111.67133195137512 0.0
  endloop
endfacet
facet normal 0.0 -1.0 0.0
  outer loop
    vertex 166.4603414917232 -111.67133195137512 0.0
    vertex 174.7582136442039 -111.67133195137512 0.0
    vertex 166.4603414917232 -111.67133195137512 5.0
  endloop
endfacet
facet normal 0.0 -1.0 0.0
  outer loop
    vertex 174.7582136442039 -111.67133195137512 5.0
    vertex 166.4603414917232 -111.67133195137512 5.0
    vertex 174.7582136442039 -111.67133195137512 0.0
  endloop
endfacet
facet normal 0.12275356413822545 -0.9924371831463 0.0
  outer loop
    vertex 174.7582136442039 -111.67133195137512 0.0
    vertex 176.02683174046996 -111.51441784588664 0.0
    vertex 174.7582136442039 -111.67133195137512 5.0
  endloop
endfacet
facet normal 0.12275356413822545 -0.9924371831463 0.0
  outer loop
    vertex 176.02683174046996 -111.51441784588664 5.0
    vertex 174.7582136442039 -111.67133195137512 5.0
    vertex 176.02683174046996 -111.51441784588664 0.0
  endloop
endfacet
facet normal 0.49463456260700617 -0.8691010582634082 0.0
  outer loop
    vertex 176.02683174046996 -111.51441784588664 0.0
    vertex 176.8539582775868 -111.04367239112338 0.0
    vertex 176.02683174046996 -111.51441784588664 5.0
  endloop
endfacet
facet normal 0.49463456260700617 -0.8691010582634082 0.0
  outer loop
    vertex 176.8539582775868 -111.04367239112338 5.0
    vertex 176.02683174046996 -111.51441784588664 5.0
    vertex 176.8539582775868 -111.04367239112338 0.0
  endloop
endfacet
facet normal 0.8825805838760494 -0.4701611563762066 0.0
  outer loop
    vertex 176.8539582775868 -111.04367239112338 5.0
    vertex 176.8539582775868 -111.04367239112338 0.0
    vertex 177.30874625930727 -110.18995013652382 5.0
  endloop
endfacet
facet normal 0.8825805838760494 -0.4701611563762066 0.0
  outer loop
    vertex 177.30874625930727 -110.18995013652382 0.0
    vertex 177.30874625930727 -110.18995013652382 5.0
    vertex 176.8539582775868 -111.04367239112338 0.0
  endloop
endfacet
facet normal 0.9933290313865365 -0.11531450647982357 0.0
  outer loop
    vertex 177.30874625930727 -110.18995013652382 5.0
    vertex 177.30874625930727 -110.18995013652382 0.0
    vertex 177.4603412425758 -108.88409797195213 5.0
  endloop
endfacet
facet normal 0.9933290313865365 -0.11531450647982357 0.0
  outer loop
    vertex 177.4603412425758 -108.88409797195213 0.0
    vertex 177.4603412425758 -108.88409797195213 5.0
    vertex 177.30874625930727 -110.18995013652382 0.0
  endloop
endfacet
facet normal 0.9977462876092411 0.06709951983418216 0.0
  outer loop
    vertex 177.4603412425758 -108.88409797195213 5.0
    vertex 177.4603412425758 -108.88409797195213 0.0
    vertex 177.33800143151697 -107.06494795996394 5.0
  endloop
endfacet
facet normal 0.9977462876092411 0.06709951983418216 0.0
  outer loop
    vertex 177.33800143151697 -107.06494795996394 0.0
    vertex 177.33800143151697 -107.06494795996394 5.0
    vertex 177.4603412425758 -108.88409797195213 0.0
  endloop
endfacet
facet normal 0.9660480848771813 0.2583623380160708 0.0
  outer loop
    vertex 177.33800143151697 -107.06494795996394 5.0
    vertex 177.33800143151697 -107.06494795996394 0.0
    vertex 176.97097955153205 -105.69260868253649 5.0
  endloop
endfacet
facet normal 0.9660480848771813 0.2583623380160708 0.0
  outer loop
    vertex 176.97097955153205 -105.69260868253649 0.0
    vertex 176.97097955153205 -105.69260868253649 5.0
    vertex 177.33800143151697 -107.06494795996394 0.0
  endloop
endfacet
facet normal 0.8564418412781167 0.5162435205483449 0.0
  outer loop
    vertex 176.97097955153205 -105.69260868253649 5.0
    vertex 176.97097955153205 -105.69260868253649 0.0
    vertex 175.81672705107985 -103.77771755569556 5.0
  endloop
endfacet
facet normal 0.8564418412781167 0.5162435205483449 0.0
  outer loop
    vertex 175.81672705107985 -103.77771755569556 0.0
    vertex 175.81672705107985 -103.77771755569556 5.0
    vertex 176.97097955153205 -105.69260868253649 0.0
  endloop
endfacet
facet normal 0.7866191884747844 0.6174384603531528 0.0
  outer loop
    vertex 175.81672705107985 -103.77771755569556 5.0
    vertex 175.81672705107985 -103.77771755569556 0.0
    vertex 173.54544771422593 -100.88409815315025 5.0
  endloop
endfacet
facet normal 0.7866191884747844 0.6174384603531528 0.0
  outer loop
    vertex 173.54544771422593 -100.88409815315025 0.0
    vertex 173.54544771422593 -100.88409815315025 5.0
    vertex 175.81672705107985 -103.77771755569556 0.0
  endloop
endfacet
facet normal 0.7684277507134109 0.6399365530531355 0.0
  outer loop
    vertex 173.54544771422593 -100.88409815315025 5.0
    vertex 173.54544771422593 -100.88409815315025 0.0
    vertex 168.1411925174821 -94.3947365980051 5.0
  endloop
endfacet
facet normal 0.7684277507134109 0.6399365530531355 0.0
  outer loop
    vertex 168.1411925174821 -94.3947365980051 0.0
    vertex 168.1411925174821 -94.3947365980051 5.0
    vertex 173.54544771422593 -100.88409815315025 0.0
  endloop
endfacet
facet normal 0.7487298508026584 0.662875260148566 0.0
  outer loop
    vertex 168.1411925174821 -94.3947365980051 5.0
    vertex 168.1411925174821 -94.3947365980051 0.0
    vertex 164.6092750442877 -90.40537057134203 5.0
  endloop
endfacet
facet normal 0.7487298508026584 0.662875260148566 0.0
  outer loop
    vertex 164.6092750442877 -90.40537057134203 0.0
    vertex 164.6092750442877 -90.40537057134203 5.0
    vertex 168.1411925174821 -94.3947365980051 0.0
  endloop
endfacet
facet normal 0.6693181856084084 0.7429758854861094 0.0
  outer loop
    vertex 164.6092750442877 -90.40537057134203 0.0
    vertex 162.1411926533807 -88.18197078127598 0.0
    vertex 164.6092750442877 -90.40537057134203 5.0
  endloop
endfacet
facet normal 0.6693181856084084 0.7429758854861094 0.0
  outer loop
    vertex 162.1411926533807 -88.18197078127598 5.0
    vertex 164.6092750442877 -90.40537057134203 5.0
    vertex 162.1411926533807 -88.18197078127598 0.0
  endloop
endfacet
facet normal 0.4196365946007788 0.9076921991908171 0.0
  outer loop
    vertex 162.1411926533807 -88.18197078127598 0.0
    vertex 160.024171424735 -87.20324739918853 0.0
    vertex 162.1411926533807 -88.18197078127598 5.0
  endloop
endfacet
facet normal 0.4196365946007788 0.9076921991908171 0.0
  outer loop
    vertex 160.024171424735 -87.20324739918853 5.0
    vertex 162.1411926533807 -88.18197078127598 5.0
    vertex 160.024171424735 -87.20324739918853 0.0
  endloop
endfacet
facet normal 0.16220660029832312 0.9867568184814636 0.0
  outer loop
    vertex 160.024171424735 -87.20324739918853 0.0
    vertex 157.69438424346157 -86.82026868445864 0.0
    vertex 160.024171424735 -87.20324739918853 5.0
  endloop
endfacet
facet normal 0.16220660029832312 0.9867568184814636 0.0
  outer loop
    vertex 157.69438424346157 -86.82026868445864 5.0
    vertex 160.024171424735 -87.20324739918853 5.0
    vertex 157.69438424346157 -86.82026868445864 0.0
  endloop
endfacet
facet normal -0.14383658432120355 0.9896014536220171 0.0
  outer loop
    vertex 157.69438424346157 -86.82026868445864 0.0
    vertex 156.77948990248157 -86.95324673995735 0.0
    vertex 157.69438424346157 -86.82026868445864 5.0
  endloop
endfacet
facet normal -0.14383658432120355 0.9896014536220171 0.0
  outer loop
    vertex 156.77948990248157 -86.95324673995735 5.0
    vertex 157.69438424346157 -86.82026868445864 5.0
    vertex 156.77948990248157 -86.95324673995735 0.0
  endloop
endfacet
facet normal -0.5429521756250077 0.8397636185165863 0.0
  outer loop
    vertex 156.77948990248157 -86.95324673995735 0.0
    vertex 156.16246938454205 -87.35218356602792 0.0
    vertex 156.77948990248157 -86.95324673995735 5.0
  endloop
endfacet
facet normal -0.5429521756250077 0.8397636185165863 0.0
  outer loop
    vertex 156.16246938454205 -87.35218356602792 5.0
    vertex 156.77948990248157 -86.95324673995735 5.0
    vertex 156.16246938454205 -87.35218356602792 0.0
  endloop
endfacet
facet normal -0.8944266760257636 0.44721462544678026 0.0
  outer loop
    vertex 155.81140497759998 -88.05431035863555 0.0
    vertex 155.81140497759998 -88.05431035863555 5.0
    vertex 156.16246938454205 -87.35218356602792 0.0
  endloop
endfacet
facet normal -0.8944266760257636 0.44721462544678026 0.0
  outer loop
    vertex 156.16246938454205 -87.35218356602792 5.0
    vertex 156.16246938454205 -87.35218356602792 0.0
    vertex 155.81140497759998 -88.05431035863555 5.0
  endloop
endfacet
facet normal -0.9937595199800394 0.11154378713779525 0.0
  outer loop
    vertex 155.6943842887611 -89.09686437757514 0.0
    vertex 155.6943842887611 -89.09686437757514 5.0
    vertex 155.81140497759998 -88.05431035863555 0.0
  endloop
endfacet
facet normal -0.9937595199800394 0.11154378713779525 0.0
  outer loop
    vertex 155.81140497759998 -88.05431035863555 5.0
    vertex 155.81140497759998 -88.05431035863555 0.0
    vertex 155.6943842887611 -89.09686437757514 5.0
  endloop
endfacet
facet normal 1.0 0.0 0.0
  outer loop
    vertex 164.63055429912492 -100.13941731895326 5.0
    vertex 164.63055429912492 -100.13941731895326 0.0
    vertex 164.63055429912492 -99.09686415107748 5.0
  endloop
endfacet
facet normal 1.0 0.0 0.0
  outer loop
    vertex 164.63055429912492 -99.09686415107748 0.0
    vertex 164.63055429912492 -99.09686415107748 5.0
    vertex 164.63055429912492 -100.13941731895326 0.0
  endloop
endfacet
facet normal 0.9832822223313689 -0.18208808650508881 0.0
  outer loop
    vertex 164.63055429912492 -99.09686415107748 5.0
    vertex 164.63055429912492 -99.09686415107748 0.0
    vertex 164.89651041012235 -97.66069157722347 5.0
  endloop
endfacet
facet normal 0.9832822223313689 -0.18208808650508881 0.0
  outer loop
    vertex 164.89651041012235 -97.66069157722347 0.0
    vertex 164.89651041012235 -97.66069157722347 5.0
    vertex 164.63055429912492 -99.09686415107748 0.0
  endloop
endfacet
facet normal 0.5144932333870369 -0.8574944389317939 0.0
  outer loop
    vertex 164.89651041012235 -97.66069157722347 0.0
    vertex 165.69438406226345 -97.1819705774281 0.0
    vertex 164.89651041012235 -97.66069157722347 5.0
  endloop
endfacet
facet normal 0.5144932333870369 -0.8574944389317939 0.0
  outer loop
    vertex 165.69438406226345 -97.1819705774281 5.0
    vertex 164.89651041012235 -97.66069157722347 5.0
    vertex 165.69438406226345 -97.1819705774281 0.0
  endloop
endfacet
facet normal -0.2686562999567994 -0.9632361042306928 0.0
  outer loop
    vertex 165.69438406226345 -97.1819705774281 0.0
    vertex 166.476299071149 -97.40005458844598 0.0
    vertex 165.69438406226345 -97.1819705774281 5.0
  endloop
endfacet
facet normal -0.2686562999567994 -0.9632361042306928 0.0
  outer loop
    vertex 166.476299071149 -97.40005458844598 5.0
    vertex 165.69438406226345 -97.1819705774281 5.0
    vertex 166.476299071149 -97.40005458844598 0.0
  endloop
endfacet
facet normal -0.6680646905041471 -0.7441031980186608 0.0
  outer loop
    vertex 166.476299071149 -97.40005458844598 0.0
    vertex 167.20502232592017 -98.05431098320172 0.0
    vertex 166.476299071149 -97.40005458844598 5.0
  endloop
endfacet
facet normal -0.6680646905041471 -0.7441031980186608 0.0
  outer loop
    vertex 167.20502232592017 -98.05431098320172 5.0
    vertex 166.476299071149 -97.40005458844598 5.0
    vertex 167.20502232592017 -98.05431098320172 0.0
  endloop
endfacet
facet normal -0.7752349855172895 -0.6316729511622358 0.0
  outer loop
    vertex 170.48161799638692 -102.07558748786542 0.0
    vertex 170.48161799638692 -102.07558748786542 5.0
    vertex 167.20502232592017 -98.05431098320172 0.0
  endloop
endfacet
facet normal -0.7752349855172895 -0.6316729511622358 0.0
  outer loop
    vertex 167.20502232592017 -98.05431098320172 5.0
    vertex 167.20502232592017 -98.05431098320172 0.0
    vertex 170.48161799638692 -102.07558748786542 5.0
  endloop
endfacet
facet normal -0.8172059621967708 -0.5763457428922764 0.0
  outer loop
    vertex 171.550768690256 -103.59154615033782 0.0
    vertex 171.550768690256 -103.59154615033782 5.0
    vertex 170.48161799638692 -102.07558748786542 0.0
  endloop
endfacet
facet normal -0.8172059621967708 -0.5763457428922764 0.0
  outer loop
    vertex 170.48161799638692 -102.07558748786542 5.0
    vertex 170.48161799638692 -102.07558748786542 0.0
    vertex 171.550768690256 -103.59154615033782 5.0
  endloop
endfacet
facet normal -0.9436274471337565 -0.3310094273821059 0.0
  outer loop
    vertex 171.90714987899256 -104.60750232413515 0.0
    vertex 171.90714987899256 -104.60750232413515 5.0
    vertex 171.550768690256 -103.59154615033782 0.0
  endloop
endfacet
facet normal -0.9436274471337565 -0.3310094273821059 0.0
  outer loop
    vertex 171.550768690256 -103.59154615033782 5.0
    vertex 171.550768690256 -103.59154615033782 0.0
    vertex 171.90714987899256 -104.60750232413515 5.0
  endloop
endfacet
facet normal -0.9503379308134849 0.31121988570324993 0.0
  outer loop
    vertex 171.758214456834 -105.06229003989814 0.0
    vertex 171.758214456834 -105.06229003989814 5.0
    vertex 171.90714987899256 -104.60750232413515 0.0
  endloop
endfacet
facet normal -0.9503379308134849 0.31121988570324993 0.0
  outer loop
    vertex 171.90714987899256 -104.60750232413515 5.0
    vertex 171.90714987899256 -104.60750232413515 0.0
    vertex 171.758214456834 -105.06229003989814 5.0
  endloop
endfacet
facet normal -0.5000185886966418 0.8660146713294288 0.0
  outer loop
    vertex 171.758214456834 -105.06229003989814 0.0
    vertex 171.311405211635 -105.320268265438 0.0
    vertex 171.758214456834 -105.06229003989814 5.0
  endloop
endfacet
facet normal -0.5000185886966418 0.8660146713294288 0.0
  outer loop
    vertex 171.311405211635 -105.320268265438 5.0
    vertex 171.758214456834 -105.06229003989814 5.0
    vertex 171.311405211635 -105.320268265438 0.0
  endloop
endfacet
facet normal -0.07532496340906104 0.9971590394151896 0.0
  outer loop
    vertex 171.311405211635 -105.320268265438 0.0
    vertex 168.3539584701098 -105.54367251569708 0.0
    vertex 171.311405211635 -105.320268265438 5.0
  endloop
endfacet
facet normal -0.07532496340906104 0.9971590394151896 0.0
  outer loop
    vertex 168.3539584701098 -105.54367251569708 5.0
    vertex 171.311405211635 -105.320268265438 5.0
    vertex 168.3539584701098 -105.54367251569708 0.0
  endloop
endfacet
facet normal -0.012657213851395984 0.9999198942602954 0.0
  outer loop
    vertex 168.3539584701098 -105.54367251569708 0.0
    vertex 166.67310744435093 -105.56494911095987 0.0
    vertex 168.3539584701098 -105.54367251569708 5.0
  endloop
endfacet
facet normal -0.012657213851395984 0.9999198942602954 0.0
  outer loop
    vertex 166.67310744435093 -105.56494911095987 5.0
    vertex 168.3539584701098 -105.54367251569708 5.0
    vertex 166.67310744435093 -105.56494911095987 0.0
  endloop
endfacet
facet normal 0.16439898730535715 0.9863939238321439 0.0
  outer loop
    vertex 166.67310744435093 -105.56494911095987 0.0
    vertex 165.2050223712197 -105.320268265438 0.0
    vertex 166.67310744435093 -105.56494911095987 5.0
  endloop
endfacet
facet normal 0.16439898730535715 0.9863939238321439 0.0
  outer loop
    vertex 165.2050223712197 -105.320268265438 5.0
    vertex 166.67310744435093 -105.56494911095987 5.0
    vertex 165.2050223712197 -105.320268265438 0.0
  endloop
endfacet
facet normal 0.9079593845004518 0.4190581774617468 0.0
  outer loop
    vertex 165.2050223712197 -105.320268265438 5.0
    vertex 165.2050223712197 -105.320268265438 0.0
    vertex 164.75821387070152 -104.3521831809819 5.0
  endloop
endfacet
facet normal 0.9079593845004518 0.4190581774617468 0.0
  outer loop
    vertex 164.75821387070152 -104.3521831809819 0.0
    vertex 164.75821387070152 -104.3521831809819 5.0
    vertex 165.2050223712197 -105.320268265438 0.0
  endloop
endfacet
facet normal 0.9995411791453814 0.030289126640769416 0.0
  outer loop
    vertex 164.75821387070152 -104.3521831809819 5.0
    vertex 164.75821387070152 -104.3521831809819 0.0
    vertex 164.63055429912492 -100.13941731895326 5.0
  endloop
endfacet
facet normal 0.9995411791453814 0.030289126640769416 0.0
  outer loop
    vertex 164.63055429912492 -100.13941731895326 0.0
    vertex 164.63055429912492 -100.13941731895326 5.0
    vertex 164.75821387070152 -104.3521831809819 0.0
  endloop
endfacet
facet normal 0.3826834323650871 -0.923879532511288 0.0
  outer loop
    vertex 159.09145743975967 -106.39255600364231 2.8999999999999946
    vertex 159.62205554053415 -106.17277507413212 2.8999999999999946
    vertex 159.09145743975967 -106.39255600364231 4.999999999999995
  endloop
endfacet
facet normal 0.3826834323650871 -0.923879532511288 0.0
  outer loop
    vertex 159.62205554053415 -106.17277507413212 4.999999999999995
    vertex 159.09145743975967 -106.39255600364231 4.999999999999995
    vertex 159.62205554053415 -106.17277507413212 2.8999999999999946
  endloop
endfacet
facet normal 0.6087614290087049 0.7933533402912475 0.0
  outer loop
    vertex 159.09145743975967 -110.20306778029382 2.8999999999999946
    vertex 158.63582252114927 -109.85344681057848 2.8999999999999946
    vertex 159.09145743975967 -110.20306778029382 4.999999999999995
  endloop
endfacet
facet normal 0.6087614290087049 0.7933533402912475 0.0
  outer loop
    vertex 158.63582252114927 -109.85344681057848 4.999999999999995
    vertex 159.09145743975967 -110.20306778029382 4.999999999999995
    vertex 158.63582252114927 -109.85344681057848 2.8999999999999946
  endloop
endfacet
facet normal 0.7933533402912453 0.6087614290087077 0.0
  outer loop
    vertex 158.63582252114927 -109.85344681057848 4.999999999999995
    vertex 158.63582252114927 -109.85344681057848 2.8999999999999946
    vertex 158.28620155143392 -109.39781189196806 4.999999999999995
  endloop
endfacet
facet normal 0.7933533402912453 0.6087614290087077 0.0
  outer loop
    vertex 158.28620155143392 -109.39781189196806 2.8999999999999946
    vertex 158.28620155143392 -109.39781189196806 4.999999999999995
    vertex 158.63582252114927 -109.85344681057848 2.8999999999999946
  endloop
endfacet
facet normal -0.7933533402912306 0.6087614290087267 0.0
  outer loop
    vertex 161.74709235837005 -109.85344681057845 2.8999999999999946
    vertex 161.74709235837005 -109.85344681057845 4.999999999999995
    vertex 162.09671332808543 -109.39781189196806 2.8999999999999946
  endloop
endfacet
facet normal -0.7933533402912306 0.6087614290087267 0.0
  outer loop
    vertex 162.09671332808543 -109.39781189196806 4.999999999999995
    vertex 162.09671332808543 -109.39781189196806 2.8999999999999946
    vertex 161.74709235837005 -109.85344681057845 4.999999999999995
  endloop
endfacet
facet normal 0.9238795325112851 -0.382683432365094 0.0
  outer loop
    vertex 158.06642062192373 -107.72840999274251 4.999999999999995
    vertex 158.06642062192373 -107.72840999274251 2.8999999999999946
    vertex 158.28620155143392 -107.19781189196807 4.999999999999995
  endloop
endfacet
facet normal 0.9238795325112851 -0.382683432365094 0.0
  outer loop
    vertex 158.28620155143392 -107.19781189196807 2.8999999999999946
    vertex 158.28620155143392 -107.19781189196807 4.999999999999995
    vertex 158.06642062192373 -107.72840999274251 2.8999999999999946
  endloop
endfacet
facet normal -0.1305261922200586 0.9914448613738096 0.0
  outer loop
    vertex 160.7608593389852 -110.422848709804 2.8999999999999946
    vertex 160.19145743975966 -110.49781189196806 2.8999999999999946
    vertex 160.7608593389852 -110.422848709804 4.999999999999995
  endloop
endfacet
facet normal -0.1305261922200586 0.9914448613738096 0.0
  outer loop
    vertex 160.19145743975966 -110.49781189196806 4.999999999999995
    vertex 160.7608593389852 -110.422848709804 4.999999999999995
    vertex 160.19145743975966 -110.49781189196806 2.8999999999999946
  endloop
endfacet
facet normal 0.9914448613738113 -0.1305261922200464 0.0
  outer loop
    vertex 157.99145743975967 -108.29781189196807 4.999999999999995
    vertex 157.99145743975967 -108.29781189196807 2.8999999999999946
    vertex 158.06642062192373 -107.72840999274251 4.999999999999995
  endloop
endfacet
facet normal 0.9914448613738113 -0.1305261922200464 0.0
  outer loop
    vertex 158.06642062192373 -107.72840999274251 2.8999999999999946
    vertex 158.06642062192373 -107.72840999274251 4.999999999999995
    vertex 157.99145743975967 -108.29781189196807 2.8999999999999946
  endloop
endfacet
facet normal 0.1305261922200586 -0.9914448613738096 0.0
  outer loop
    vertex 159.62205554053415 -106.17277507413212 2.8999999999999946
    vertex 160.19145743975966 -106.09781189196806 2.8999999999999946
    vertex 159.62205554053415 -106.17277507413212 4.999999999999995
  endloop
endfacet
facet normal 0.1305261922200586 -0.9914448613738096 0.0
  outer loop
    vertex 160.19145743975966 -106.09781189196806 4.999999999999995
    vertex 159.62205554053415 -106.17277507413212 4.999999999999995
    vertex 160.19145743975966 -106.09781189196806 2.8999999999999946
  endloop
endfacet
facet normal -0.7933533402912453 -0.6087614290087077 0.0
  outer loop
    vertex 162.09671332808543 -107.19781189196807 2.8999999999999946
    vertex 162.09671332808543 -107.19781189196807 4.999999999999995
    vertex 161.74709235837005 -106.74217697335764 2.8999999999999946
  endloop
endfacet
facet normal -0.7933533402912453 -0.6087614290087077 0.0
  outer loop
    vertex 161.74709235837005 -106.74217697335764 4.999999999999995
    vertex 161.74709235837005 -106.74217697335764 2.8999999999999946
    vertex 162.09671332808543 -107.19781189196807 4.999999999999995
  endloop
endfacet
facet normal -0.9238795325112851 0.382683432365094 0.0
  outer loop
    vertex 162.09671332808543 -109.39781189196806 2.8999999999999946
    vertex 162.09671332808543 -109.39781189196806 4.999999999999995
    vertex 162.31649425759562 -108.86721379119362 2.8999999999999946
  endloop
endfacet
facet normal -0.9238795325112851 0.382683432365094 0.0
  outer loop
    vertex 162.31649425759562 -108.86721379119362 4.999999999999995
    vertex 162.31649425759562 -108.86721379119362 2.8999999999999946
    vertex 162.09671332808543 -109.39781189196806 4.999999999999995
  endloop
endfacet
facet normal -0.9914448613738099 0.13052619222005604 0.0
  outer loop
    vertex 162.31649425759562 -108.86721379119362 2.8999999999999946
    vertex 162.31649425759562 -108.86721379119362 4.999999999999995
    vertex 162.39145743975968 -108.29781189196807 2.8999999999999946
  endloop
endfacet
facet normal -0.9914448613738099 0.13052619222005604 0.0
  outer loop
    vertex 162.39145743975968 -108.29781189196807 4.999999999999995
    vertex 162.39145743975968 -108.29781189196807 2.8999999999999946
    vertex 162.31649425759562 -108.86721379119362 4.999999999999995
  endloop
endfacet
facet normal 0.9914448613738113 0.1305261922200464 0.0
  outer loop
    vertex 158.06642062192373 -108.86721379119362 4.999999999999995
    vertex 158.06642062192373 -108.86721379119362 2.8999999999999946
    vertex 157.99145743975967 -108.29781189196807 4.999999999999995
  endloop
endfacet
facet normal 0.9914448613738113 0.1305261922200464 0.0
  outer loop
    vertex 157.99145743975967 -108.29781189196807 2.8999999999999946
    vertex 157.99145743975967 -108.29781189196807 4.999999999999995
    vertex 158.06642062192373 -108.86721379119362 2.8999999999999946
  endloop
endfacet
facet normal -0.9914448613738099 -0.13052619222005604 0.0
  outer loop
    vertex 162.39145743975968 -108.29781189196807 2.8999999999999946
    vertex 162.39145743975968 -108.29781189196807 4.999999999999995
    vertex 162.31649425759562 -107.72840999274251 2.8999999999999946
  endloop
endfacet
facet normal -0.9914448613738099 -0.13052619222005604 0.0
  outer loop
    vertex 162.31649425759562 -107.72840999274251 4.999999999999995
    vertex 162.31649425759562 -107.72840999274251 2.8999999999999946
    vertex 162.39145743975968 -108.29781189196807 4.999999999999995
  endloop
endfacet
facet normal 0.7933533402912258 -0.6087614290087329 0.0
  outer loop
    vertex 158.28620155143392 -107.19781189196807 4.999999999999995
    vertex 158.28620155143392 -107.19781189196807 2.8999999999999946
    vertex 158.63582252114927 -106.74217697335767 4.999999999999995
  endloop
endfacet
facet normal 0.7933533402912258 -0.6087614290087329 0.0
  outer loop
    vertex 158.63582252114927 -106.74217697335767 2.8999999999999946
    vertex 158.63582252114927 -106.74217697335767 4.999999999999995
    vertex 158.28620155143392 -107.19781189196807 2.8999999999999946
  endloop
endfacet
facet normal 0.0 0.0 1.0
  outer loop
    vertex 162.39145743975968 -108.29781189196807 2.8999999999999946
    vertex 162.31649425759562 -107.72840999274251 2.8999999999999946
    vertex 162.31649425759562 -108.86721379119362 2.8999999999999946
  endloop
endfacet
facet normal 0.0 0.0 1.0
  outer loop
    vertex 162.09671332808543 -109.39781189196806 2.8999999999999946
    vertex 162.31649425759562 -108.86721379119362 2.8999999999999946
    vertex 162.31649425759562 -107.72840999274251 2.8999999999999946
  endloop
endfacet
facet normal 0.0 0.0 1.0
  outer loop
    vertex 162.09671332808543 -107.19781189196807 2.8999999999999946
    vertex 162.09671332808543 -109.39781189196806 2.8999999999999946
    vertex 162.31649425759562 -107.72840999274251 2.8999999999999946
  endloop
endfacet
facet normal 0.0 0.0 1.0
  outer loop
    vertex 161.74709235837005 -109.85344681057845 2.8999999999999946
    vertex 162.09671332808543 -109.39781189196806 2.8999999999999946
    vertex 162.09671332808543 -107.19781189196807 2.8999999999999946
  endloop
endfacet
facet normal 0.0 0.0 1.0
  outer loop
    vertex 161.74709235837005 -106.74217697335764 2.8999999999999946
    vertex 161.74709235837005 -109.85344681057845 2.8999999999999946
    vertex 162.09671332808543 -107.19781189196807 2.8999999999999946
  endloop
endfacet
facet normal 0.0 0.0 1.0
  outer loop
    vertex 161.29145743975965 -110.20306778029382 2.8999999999999946
    vertex 161.74709235837005 -109.85344681057845 2.8999999999999946
    vertex 161.74709235837005 -106.74217697335764 2.8999999999999946
  endloop
endfacet
facet normal 0.0 0.0 1.0
  outer loop
    vertex 161.29145743975965 -106.39255600364231 2.8999999999999946
    vertex 161.29145743975965 -110.20306778029382 2.8999999999999946
    vertex 161.74709235837005 -106.74217697335764 2.8999999999999946
  endloop
endfacet
facet normal 0.0 0.0 1.0
  outer loop
    vertex 160.7608593389852 -110.422848709804 2.8999999999999946
    vertex 161.29145743975965 -110.20306778029382 2.8999999999999946
    vertex 161.29145743975965 -106.39255600364231 2.8999999999999946
  endloop
endfacet
facet normal 0.0 0.0 1.0
  outer loop
    vertex 160.7608593389852 -106.17277507413212 2.8999999999999946
    vertex 160.7608593389852 -110.422848709804 2.8999999999999946
    vertex 161.29145743975965 -106.39255600364231 2.8999999999999946
  endloop
endfacet
facet normal 0.0 0.0 1.0
  outer loop
    vertex 160.19145743975966 -110.49781189196806 2.8999999999999946
    vertex 160.7608593389852 -110.422848709804 2.8999999999999946
    vertex 160.7608593389852 -106.17277507413212 2.8999999999999946
  endloop
endfacet
facet normal 0.0 0.0 1.0
  outer loop
    vertex 160.19145743975966 -106.09781189196806 2.8999999999999946
    vertex 160.19145743975966 -110.49781189196806 2.8999999999999946
    vertex 160.7608593389852 -106.17277507413212 2.8999999999999946
  endloop
endfacet
facet normal 0.0 0.0 1.0
  outer loop
    vertex 159.62205554053415 -110.422848709804 2.8999999999999946
    vertex 160.19145743975966 -110.49781189196806 2.8999999999999946
    vertex 160.19145743975966 -106.09781189196806 2.8999999999999946
  endloop
endfacet
facet normal 0.0 0.0 1.0
  outer loop
    vertex 159.62205554053415 -106.17277507413212 2.8999999999999946
    vertex 159.62205554053415 -110.422848709804 2.8999999999999946
    vertex 160.19145743975966 -106.09781189196806 2.8999999999999946
  endloop
endfacet
facet normal 0.0 0.0 1.0
  outer loop
    vertex 159.09145743975967 -110.20306778029382 2.8999999999999946
    vertex 159.62205554053415 -110.422848709804 2.8999999999999946
    vertex 159.62205554053415 -106.17277507413212 2.8999999999999946
  endloop
endfacet
facet normal 0.0 0.0 1.0
  outer loop
    vertex 159.09145743975967 -106.39255600364231 2.8999999999999946
    vertex 159.09145743975967 -110.20306778029382 2.8999999999999946
    vertex 159.62205554053415 -106.17277507413212 2.8999999999999946
  endloop
endfacet
facet normal 0.0 0.0 1.0
  outer loop
    vertex 158.63582252114927 -109.85344681057848 2.8999999999999946
    vertex 159.09145743975967 -110.20306778029382 2.8999999999999946
    vertex 159.09145743975967 -106.39255600364231 2.8999999999999946
  endloop
endfacet
facet normal 0.0 0.0 1.0
  outer loop
    vertex 158.63582252114927 -106.74217697335767 2.8999999999999946
    vertex 158.63582252114927 -109.85344681057848 2.8999999999999946
    vertex 159.09145743975967 -106.39255600364231 2.8999999999999946
  endloop
endfacet
facet normal 0.0 0.0 1.0
  outer loop
    vertex 158.28620155143392 -109.39781189196806 2.8999999999999946
    vertex 158.63582252114927 -109.85344681057848 2.8999999999999946
    vertex 158.63582252114927 -106.74217697335767 2.8999999999999946
  endloop
endfacet
facet normal 0.0 0.0 1.0
  outer loop
    vertex 158.28620155143392 -107.19781189196807 2.8999999999999946
    vertex 158.28620155143392 -109.39781189196806 2.8999999999999946
    vertex 158.63582252114927 -106.74217697335767 2.8999999999999946
  endloop
endfacet
facet normal 0.0 0.0 1.0
  outer loop
    vertex 158.06642062192373 -108.86721379119362 2.8999999999999946
    vertex 158.28620155143392 -109.39781189196806 2.8999999999999946
    vertex 158.28620155143392 -107.19781189196807 2.8999999999999946
  endloop
endfacet
facet normal 0.0 0.0 1.0
  outer loop
    vertex 158.06642062192373 -107.72840999274251 2.8999999999999946
    vertex 158.06642062192373 -108.86721379119362 2.8999999999999946
    vertex 158.28620155143392 -107.19781189196807 2.8999999999999946
  endloop
endfacet
facet normal 0.0 0.0 1.0
  outer loop
    vertex 157.99145743975967 -108.29781189196807 2.8999999999999946
    vertex 158.06642062192373 -108.86721379119362 2.8999999999999946
    vertex 158.06642062192373 -107.72840999274251 2.8999999999999946
  endloop
endfacet
facet normal -0.3826834323650871 -0.923879532511288 0.0
  outer loop
    vertex 160.7608593389852 -106.17277507413212 2.8999999999999946
    vertex 161.29145743975965 -106.39255600364231 2.8999999999999946
    vertex 160.7608593389852 -106.17277507413212 4.999999999999995
  endloop
endfacet
facet normal -0.3826834323650871 -0.923879532511288 0.0
  outer loop
    vertex 161.29145743975965 -106.39255600364231 4.999999999999995
    vertex 160.7608593389852 -106.17277507413212 4.999999999999995
    vertex 161.29145743975965 -106.39255600364231 2.8999999999999946
  endloop
endfacet
facet normal -0.6087614290087049 -0.7933533402912475 0.0
  outer loop
    vertex 161.29145743975965 -106.39255600364231 2.8999999999999946
    vertex 161.74709235837005 -106.74217697335764 2.8999999999999946
    vertex 161.29145743975965 -106.39255600364231 4.999999999999995
  endloop
endfacet
facet normal -0.6087614290087049 -0.7933533402912475 0.0
  outer loop
    vertex 161.74709235837005 -106.74217697335764 4.999999999999995
    vertex 161.29145743975965 -106.39255600364231 4.999999999999995
    vertex 161.74709235837005 -106.74217697335764 2.8999999999999946
  endloop
endfacet
facet normal -0.9238795325112851 -0.382683432365094 0.0
  outer loop
    vertex 162.31649425759562 -107.72840999274251 2.8999999999999946
    vertex 162.31649425759562 -107.72840999274251 4.999999999999995
    vertex 162.09671332808543 -107.19781189196807 2.8999999999999946
  endloop
endfacet
facet normal -0.9238795325112851 -0.382683432365094 0.0
  outer loop
    vertex 162.09671332808543 -107.19781189196807 4.999999999999995
    vertex 162.09671332808543 -107.19781189196807 2.8999999999999946
    vertex 162.31649425759562 -107.72840999274251 4.999999999999995
  endloop
endfacet
facet normal 0.6087614290087295 -0.7933533402912283 0.0
  outer loop
    vertex 158.63582252114927 -106.74217697335767 2.8999999999999946
    vertex 159.09145743975967 -106.39255600364231 2.8999999999999946
    vertex 158.63582252114927 -106.74217697335767 4.999999999999995
  endloop
endfacet
facet normal 0.6087614290087295 -0.7933533402912283 0.0
  outer loop
    vertex 159.09145743975967 -106.39255600364231 4.999999999999995
    vertex 158.63582252114927 -106.74217697335767 4.999999999999995
    vertex 159.09145743975967 -106.39255600364231 2.8999999999999946
  endloop
endfacet
facet normal 0.1305261922200586 0.9914448613738096 0.0
  outer loop
    vertex 160.19145743975966 -110.49781189196806 2.8999999999999946
    vertex 159.62205554053415 -110.422848709804 2.8999999999999946
    vertex 160.19145743975966 -110.49781189196806 4.999999999999995
  endloop
endfacet
facet normal 0.1305261922200586 0.9914448613738096 0.0
  outer loop
    vertex 159.62205554053415 -110.422848709804 4.999999999999995
    vertex 160.19145743975966 -110.49781189196806 4.999999999999995
    vertex 159.62205554053415 -110.422848709804 2.8999999999999946
  endloop
endfacet
facet normal 0.9238795325112817 0.38268343236510244 0.0
  outer loop
    vertex 158.28620155143392 -109.39781189196806 4.999999999999995
    vertex 158.28620155143392 -109.39781189196806 2.8999999999999946
    vertex 158.06642062192373 -108.86721379119362 4.999999999999995
  endloop
endfacet
facet normal 0.9238795325112817 0.38268343236510244 0.0
  outer loop
    vertex 158.06642062192373 -108.86721379119362 2.8999999999999946
    vertex 158.06642062192373 -108.86721379119362 4.999999999999995
    vertex 158.28620155143392 -109.39781189196806 2.8999999999999946
  endloop
endfacet
facet normal -0.3826834323650871 0.923879532511288 0.0
  outer loop
    vertex 161.29145743975965 -110.20306778029382 2.8999999999999946
    vertex 160.7608593389852 -110.422848709804 2.8999999999999946
    vertex 161.29145743975965 -110.20306778029382 4.999999999999995
  endloop
endfacet
facet normal -0.3826834323650871 0.923879532511288 0.0
  outer loop
    vertex 160.7608593389852 -110.422848709804 4.999999999999995
    vertex 161.29145743975965 -110.20306778029382 4.999999999999995
    vertex 160.7608593389852 -110.422848709804 2.8999999999999946
  endloop
endfacet
facet normal -0.1305261922200586 -0.9914448613738096 0.0
  outer loop
    vertex 160.19145743975966 -106.09781189196806 2.8999999999999946
    vertex 160.7608593389852 -106.17277507413212 2.8999999999999946
    vertex 160.19145743975966 -106.09781189196806 4.999999999999995
  endloop
endfacet
facet normal -0.1305261922200586 -0.9914448613738096 0.0
  outer loop
    vertex 160.7608593389852 -106.17277507413212 4.999999999999995
    vertex 160.19145743975966 -106.09781189196806 4.999999999999995
    vertex 160.7608593389852 -106.17277507413212 2.8999999999999946
  endloop
endfacet
facet normal -0.6087614290087295 0.7933533402912283 0.0
  outer loop
    vertex 161.74709235837005 -109.85344681057845 2.8999999999999946
    vertex 161.29145743975965 -110.20306778029382 2.8999999999999946
    vertex 161.74709235837005 -109.85344681057845 4.999999999999995
  endloop
endfacet
facet normal -0.6087614290087295 0.7933533402912283 0.0
  outer loop
    vertex 161.29145743975965 -110.20306778029382 4.999999999999995
    vertex 161.74709235837005 -109.85344681057845 4.999999999999995
    vertex 161.29145743975965 -110.20306778029382 2.8999999999999946
  endloop
endfacet
facet normal 0.3826834323650871 0.923879532511288 0.0
  outer loop
    vertex 159.62205554053415 -110.422848709804 2.8999999999999946
    vertex 159.09145743975967 -110.20306778029382 2.8999999999999946
    vertex 159.62205554053415 -110.422848709804 4.999999999999995
  endloop
endfacet
facet normal 0.3826834323650871 0.923879532511288 0.0
  outer loop
    vertex 159.09145743975967 -110.20306778029382 4.999999999999995
    vertex 159.62205554053415 -110.422848709804 4.999999999999995
    vertex 159.09145743975967 -110.20306778029382 2.8999999999999946
  endloop
endfacet
endsolid ABC
