solid ABC
facet normal 0.0 0.0 -1.0
  outer loop
    vertex 211.02472684159488 -97.24045201534173 0.0
    vertex 210.62047355287882 -96.28300363277239 0.0
    vertex 212.81196084366766 -88.51704795760563 0.0
  endloop
endfacet
facet normal 0.0 0.0 -1.0
  outer loop
    vertex 197.6843016118375 -88.51704795760563 0.0
    vertex 212.81196084366766 -88.51704795760563 0.0
    vertex 210.62047355287882 -96.28300363277239 0.0
  endloop
endfacet
facet normal 0.0 0.0 -1.0
  outer loop
    vertex 209.40770560162431 -95.96385629957548 0.0
    vertex 197.6843016118375 -88.51704795760563 0.0
    vertex 210.62047355287882 -96.28300363277239 0.0
  endloop
endfacet
facet normal 0.0 0.0 -1.0
  outer loop
    vertex 199.7906845428518 -95.96385629957548 0.0
    vertex 197.6843016118375 -88.51704795760563 0.0
    vertex 209.40770560162431 -95.96385629957548 0.0
  endloop
endfacet
facet normal 0.0 0.0 -1.0
  outer loop
    vertex 198.84387557493514 -95.80428263297702 0.0
    vertex 197.6843016118375 -88.51704795760563 0.0
    vertex 199.7906845428518 -95.96385629957548 0.0
  endloop
endfacet
facet normal 0.0 0.0 -1.0
  outer loop
    vertex 198.08855692183013 -95.32555844169234 0.0
    vertex 197.6843016118375 -88.51704795760563 0.0
    vertex 198.84387557493514 -95.80428263297702 0.0
  endloop
endfacet
facet normal 0.0 0.0 -1.0
  outer loop
    vertex 196.74813142027557 -93.12343083199555 0.0
    vertex 197.6843016118375 -88.51704795760563 0.0
    vertex 198.08855692183013 -95.32555844169234 0.0
  endloop
endfacet
facet normal 0.0 0.0 -1.0
  outer loop
    vertex 196.53536546764786 -88.87875007707275 0.0
    vertex 197.6843016118375 -88.51704795760563 0.0
    vertex 196.74813142027557 -93.12343083199555 0.0
  endloop
endfacet
facet normal 0.0 0.0 -1.0
  outer loop
    vertex 196.23749313396908 -90.28300536441563 0.0
    vertex 196.53536546764786 -88.87875007707275 0.0
    vertex 196.74813142027557 -93.12343083199555 0.0
  endloop
endfacet
facet normal 0.0 0.0 -1.0
  outer loop
    vertex 219.38642877986388 -103.19789868891759 0.0
    vertex 219.2002595021657 -103.95321829946937 0.0
    vertex 218.4077053977764 -98.68726049321016 0.0
  endloop
endfacet
facet normal 0.0 0.0 -1.0
  outer loop
    vertex 218.6417479456669 -104.51704759520939 0.0
    vertex 218.4077053977764 -98.68726049321016 0.0
    vertex 219.2002595021657 -103.95321829946937 0.0
  endloop
endfacet
facet normal 0.0 0.0 -1.0
  outer loop
    vertex 217.82259902805023 -104.86811141704511 0.0
    vertex 218.4077053977764 -98.68726049321016 0.0
    vertex 218.6417479456669 -104.51704759520939 0.0
  endloop
endfacet
facet normal 0.0 0.0 -1.0
  outer loop
    vertex 216.17366289518546 -92.21917553332779 0.0
    vertex 218.4077053977764 -98.68726049321016 0.0
    vertex 217.82259902805023 -104.86811141704511 0.0
  endloop
endfacet
facet normal 0.0 0.0 -1.0
  outer loop
    vertex 215.19493951309798 -105.32555821519469 0.0
    vertex 216.17366289518546 -92.21917553332779 0.0
    vertex 217.82259902805023 -104.86811141704511 0.0
  endloop
endfacet
facet normal 0.0 0.0 -1.0
  outer loop
    vertex 214.64174803626594 -89.10215432733185 0.0
    vertex 216.17366289518546 -92.21917553332779 0.0
    vertex 215.19493951309798 -105.32555821519469 0.0
  endloop
endfacet
facet normal 0.0 0.0 -1.0
  outer loop
    vertex 212.82791714649775 -105.90002554260867 0.0
    vertex 214.64174803626594 -89.10215432733185 0.0
    vertex 215.19493951309798 -105.32555821519469 0.0
  endloop
endfacet
facet normal 0.0 0.0 -1.0
  outer loop
    vertex 213.91834475477856 -88.66332381865422 0.0
    vertex 214.64174803626594 -89.10215432733185 0.0
    vertex 212.82791714649775 -105.90002554260867 0.0
  endloop
endfacet
facet normal 0.0 0.0 -1.0
  outer loop
    vertex 212.81196084366766 -88.51704795760563 0.0
    vertex 213.91834475477856 -88.66332381865422 0.0
    vertex 212.82791714649775 -105.90002554260867 0.0
  endloop
endfacet
facet normal 0.0 0.0 -1.0
  outer loop
    vertex 210.91834386528103 -106.77236669306313 0.0
    vertex 212.81196084366766 -88.51704795760563 0.0
    vertex 212.82791714649775 -105.90002554260867 0.0
  endloop
endfacet
facet normal 0.0 0.0 -1.0
  outer loop
    vertex 211.02472684159488 -97.24045201534173 0.0
    vertex 212.81196084366766 -88.51704795760563 0.0
    vertex 210.91834386528103 -106.77236669306313 0.0
  endloop
endfacet
facet normal 0.0 0.0 -1.0
  outer loop
    vertex 210.6523864244964 -97.98513284953872 0.0
    vertex 211.02472684159488 -97.24045201534173 0.0
    vertex 210.91834386528103 -106.77236669306313 0.0
  endloop
endfacet
facet normal 0.0 0.0 -1.0
  outer loop
    vertex 209.6098310757696 -107.96385538948043 0.0
    vertex 210.6523864244964 -97.98513284953872 0.0
    vertex 210.91834386528103 -106.77236669306313 0.0
  endloop
endfacet
facet normal 0.0 0.0 -1.0
  outer loop
    vertex 209.02472688689443 -98.30428177848027 0.0
    vertex 210.6523864244964 -97.98513284953872 0.0
    vertex 209.6098310757696 -107.96385538948043 0.0
  endloop
endfacet
facet normal 0.0 0.0 -1.0
  outer loop
    vertex 209.1736630537338 -109.41066450564672 0.0
    vertex 209.02472688689443 -98.30428177848027 0.0
    vertex 209.6098310757696 -107.96385538948043 0.0
  endloop
endfacet
facet normal 0.0 0.0 -1.0
  outer loop
    vertex 219.06727985092235 -113.87874951082863 0.0
    vertex 218.9196745783347 -114.6779537048279 0.0
    vertex 218.72685432671796 -112.15534529454416 0.0
  endloop
endfacet
facet normal 0.0 0.0 -1.0
  outer loop
    vertex 218.47685728450804 -115.35215498277547 0.0
    vertex 218.72685432671796 -112.15534529454416 0.0
    vertex 218.9196745783347 -114.6779537048279 0.0
  endloop
endfacet
facet normal 0.0 0.0 -1.0
  outer loop
    vertex 218.35451406919395 -111.61279121108821 0.0
    vertex 218.72685432671796 -112.15534529454416 0.0
    vertex 218.47685728450804 -115.35215498277547 0.0
  endloop
endfacet
facet normal 0.0 0.0 -1.0
  outer loop
    vertex 216.70557777675475 -116.32555796604727 0.0
    vertex 218.35451406919395 -111.61279121108821 0.0
    vertex 218.47685728450804 -115.35215498277547 0.0
  endloop
endfacet
facet normal 0.0 0.0 -1.0
  outer loop
    vertex 217.91834370673268 -111.43194105560995 0.0
    vertex 218.35451406919395 -111.61279121108821 0.0
    vertex 216.70557777675475 -116.32555796604727 0.0
  endloop
endfacet
facet normal 0.0 0.0 -1.0
  outer loop
    vertex 217.28004584884954 -111.5596006271866 0.0
    vertex 217.91834370673268 -111.43194105560995 0.0
    vertex 216.70557777675475 -116.32555796604727 0.0
  endloop
endfacet
facet normal 0.0 0.0 -1.0
  outer loop
    vertex 215.18430121546663 -112.02768572296755 0.0
    vertex 217.28004584884954 -111.5596006271866 0.0
    vertex 216.70557777675475 -116.32555796604727 0.0
  endloop
endfacet
facet normal 0.0 0.0 -1.0
  outer loop
    vertex 214.0087700452836 -116.93194194167452 0.0
    vertex 215.18430121546663 -112.02768572296755 0.0
    vertex 216.70557777675475 -116.32555796604727 0.0
  endloop
endfacet
facet normal 0.0 0.0 -1.0
  outer loop
    vertex 213.19493955839752 -112.24045167559525 0.0
    vertex 215.18430121546663 -112.02768572296755 0.0
    vertex 214.0087700452836 -116.93194194167452 0.0
  endloop
endfacet
facet normal 0.0 0.0 -1.0
  outer loop
    vertex 211.02472684159488 -117.13406858603257 0.0
    vertex 213.19493955839752 -112.24045167559525 0.0
    vertex 214.0087700452836 -116.93194194167452 0.0
  endloop
endfacet
facet normal 0.0 0.0 -1.0
  outer loop
    vertex 211.56195999432032 -112.04630371456713 0.0
    vertex 213.19493955839752 -112.24045167559525 0.0
    vertex 211.02472684159488 -117.13406858603257 0.0
  endloop
endfacet
facet normal 0.0 0.0 -1.0
  outer loop
    vertex 210.2800460073979 -111.4638559485041 0.0
    vertex 211.56195999432032 -112.04630371456713 0.0
    vertex 211.02472684159488 -117.13406858603257 0.0
  endloop
endfacet
facet normal 0.0 0.0 -1.0
  outer loop
    vertex 207.25610906791067 -116.84683598615536 0.0
    vertex 210.2800460073979 -111.4638559485041 0.0
    vertex 211.02472684159488 -117.13406858603257 0.0
  endloop
endfacet
facet normal 0.0 0.0 -1.0
  outer loop
    vertex 209.45025740917114 -110.56226084924418 0.0
    vertex 210.2800460073979 -111.4638559485041 0.0
    vertex 207.25610906791067 -116.84683598615536 0.0
  endloop
endfacet
facet normal 0.0 0.0 -1.0
  outer loop
    vertex 209.1736630537338 -109.41066450564672 0.0
    vertex 209.45025740917114 -110.56226084924418 0.0
    vertex 207.25610906791067 -116.84683598615536 0.0
  endloop
endfacet
facet normal 0.0 0.0 -1.0
  outer loop
    vertex 209.02472688689443 -98.30428177848027 0.0
    vertex 209.1736630537338 -109.41066450564672 0.0
    vertex 207.25610906791067 -116.84683598615536 0.0
  endloop
endfacet
facet normal 0.0 0.0 -1.0
  outer loop
    vertex 204.67898073532456 -99.05428035191852 0.0
    vertex 209.02472688689443 -98.30428177848027 0.0
    vertex 207.25610906791067 -116.84683598615536 0.0
  endloop
endfacet
facet normal 0.0 0.0 -1.0
  outer loop
    vertex 203.82259934514693 -115.98513244184294 0.0
    vertex 204.67898073532456 -99.05428035191852 0.0
    vertex 207.25610906791067 -116.84683598615536 0.0
  endloop
endfacet
facet normal 0.0 0.0 -1.0
  outer loop
    vertex 200.96089728230424 -100.36811151896906 0.0
    vertex 204.67898073532456 -99.05428035191852 0.0
    vertex 203.82259934514693 -115.98513244184294 0.0
  endloop
endfacet
facet normal 0.0 0.0 -1.0
  outer loop
    vertex 200.86781062217858 -114.59683579775562 0.0
    vertex 200.96089728230424 -100.36811151896906 0.0
    vertex 203.82259934514693 -115.98513244184294 0.0
  endloop
endfacet
facet normal 0.0 0.0 -1.0
  outer loop
    vertex 198.75876844920322 -101.76172717889335 0.0
    vertex 200.96089728230424 -100.36811151896906 0.0
    vertex 200.86781062217858 -114.59683579775562 0.0
  endloop
endfacet
facet normal 0.0 0.0 -1.0
  outer loop
    vertex 198.53536542234832 -112.729813366639 0.0
    vertex 198.75876844920322 -101.76172717889335 0.0
    vertex 200.86781062217858 -114.59683579775562 0.0
  endloop
endfacet
facet normal 0.0 0.0 -1.0
  outer loop
    vertex 197.04600375395435 -103.68726037996132 0.0
    vertex 198.75876844920322 -101.76172717889335 0.0
    vertex 198.53536542234832 -112.729813366639 0.0
  endloop
endfacet
facet normal 0.0 0.0 -1.0
  outer loop
    vertex 196.62046865720967 -109.99045212549339 0.0
    vertex 197.04600375395435 -103.68726037996132 0.0
    vertex 198.53536542234832 -112.729813366639 0.0
  endloop
endfacet
facet normal 0.0 0.0 -1.0
  outer loop
    vertex 196.24813010181327 -105.32555789604577 0.0
    vertex 197.04600375395435 -103.68726037996132 0.0
    vertex 196.62046865720967 -109.99045212549339 0.0
  endloop
endfacet
facet normal 0.0 0.0 -1.0
  outer loop
    vertex 196.14174725847815 -108.56093342449398 0.0
    vertex 196.24813010181327 -105.32555789604577 0.0
    vertex 196.62046865720967 -109.99045212549339 0.0
  endloop
endfacet
facet normal 0.0 0.0 -1.0
  outer loop
    vertex 195.98217399081582 -107.09151562200468 0.0
    vertex 196.24813010181327 -105.32555789604577 0.0
    vertex 196.14174725847815 -108.56093342449398 0.0
  endloop
endfacet
facet normal 0.0 0.0 1.0
  outer loop
    vertex 219.06727985092235 -113.87874951082863 5.0
    vertex 218.72685432671796 -112.15534529454416 5.0
    vertex 218.9196745783347 -114.6779537048279 5.0
  endloop
endfacet
facet normal 0.0 0.0 1.0
  outer loop
    vertex 218.47685728450804 -115.35215498277547 5.0
    vertex 218.9196745783347 -114.6779537048279 5.0
    vertex 218.72685432671796 -112.15534529454416 5.0
  endloop
endfacet
facet normal 0.0 0.0 1.0
  outer loop
    vertex 218.35451406919395 -111.61279121108821 5.0
    vertex 218.47685728450804 -115.35215498277547 5.0
    vertex 218.72685432671796 -112.15534529454416 5.0
  endloop
endfacet
facet normal 0.0 0.0 1.0
  outer loop
    vertex 216.70557777675475 -116.32555796604727 5.0
    vertex 218.47685728450804 -115.35215498277547 5.0
    vertex 218.35451406919395 -111.61279121108821 5.0
  endloop
endfacet
facet normal 0.0 0.0 1.0
  outer loop
    vertex 217.91834370673268 -111.43194105560995 5.0
    vertex 216.70557777675475 -116.32555796604727 5.0
    vertex 218.35451406919395 -111.61279121108821 5.0
  endloop
endfacet
facet normal 0.0 0.0 1.0
  outer loop
    vertex 217.28004584884954 -111.5596006271866 5.0
    vertex 216.70557777675475 -116.32555796604727 5.0
    vertex 217.91834370673268 -111.43194105560995 5.0
  endloop
endfacet
facet normal 0.0 0.0 1.0
  outer loop
    vertex 215.18430121546663 -112.02768572296755 5.0
    vertex 216.70557777675475 -116.32555796604727 5.0
    vertex 217.28004584884954 -111.5596006271866 5.0
  endloop
endfacet
facet normal 0.0 0.0 1.0
  outer loop
    vertex 214.0087700452836 -116.93194194167452 5.0
    vertex 216.70557777675475 -116.32555796604727 5.0
    vertex 215.18430121546663 -112.02768572296755 5.0
  endloop
endfacet
facet normal 0.0 0.0 1.0
  outer loop
    vertex 213.19493955839752 -112.24045167559525 5.0
    vertex 214.0087700452836 -116.93194194167452 5.0
    vertex 215.18430121546663 -112.02768572296755 5.0
  endloop
endfacet
facet normal 0.0 0.0 1.0
  outer loop
    vertex 211.02472684159488 -117.13406858603257 5.0
    vertex 214.0087700452836 -116.93194194167452 5.0
    vertex 213.19493955839752 -112.24045167559525 5.0
  endloop
endfacet
facet normal 0.0 0.0 1.0
  outer loop
    vertex 211.56195999432032 -112.04630371456713 5.0
    vertex 211.02472684159488 -117.13406858603257 5.0
    vertex 213.19493955839752 -112.24045167559525 5.0
  endloop
endfacet
facet normal 0.0 0.0 1.0
  outer loop
    vertex 210.2800460073979 -111.4638559485041 5.0
    vertex 211.02472684159488 -117.13406858603257 5.0
    vertex 211.56195999432032 -112.04630371456713 5.0
  endloop
endfacet
facet normal 0.0 0.0 1.0
  outer loop
    vertex 207.25610906791067 -116.84683598615536 5.0
    vertex 211.02472684159488 -117.13406858603257 5.0
    vertex 210.2800460073979 -111.4638559485041 5.0
  endloop
endfacet
facet normal 0.0 0.0 1.0
  outer loop
    vertex 209.45025740917114 -110.56226084924418 5.0
    vertex 207.25610906791067 -116.84683598615536 5.0
    vertex 210.2800460073979 -111.4638559485041 5.0
  endloop
endfacet
facet normal 0.0 0.0 1.0
  outer loop
    vertex 209.1736630537338 -109.41066450564672 5.0
    vertex 207.25610906791067 -116.84683598615536 5.0
    vertex 209.45025740917114 -110.56226084924418 5.0
  endloop
endfacet
facet normal 0.0 0.0 1.0
  outer loop
    vertex 209.06325100463076 -104.02292834888578 4.999999999999995
    vertex 207.25610906791067 -116.84683598615536 5.0
    vertex 209.1736630537338 -109.41066450564672 5.0
  endloop
endfacet
facet normal 0.0 0.0 1.0
  outer loop
    vertex 208.71363003491538 -104.47856326749617 4.999999999999995
    vertex 207.25610906791067 -116.84683598615536 5.0
    vertex 209.06325100463076 -104.02292834888578 4.999999999999995
  endloop
endfacet
facet normal 0.0 0.0 1.0
  outer loop
    vertex 208.257995116305 -104.82818423721154 4.999999999999995
    vertex 207.25610906791067 -116.84683598615536 5.0
    vertex 208.71363003491538 -104.47856326749617 4.999999999999995
  endloop
endfacet
facet normal 0.0 0.0 1.0
  outer loop
    vertex 207.72739701553053 -105.04796516672172 4.999999999999995
    vertex 207.25610906791067 -116.84683598615536 5.0
    vertex 208.257995116305 -104.82818423721154 4.999999999999995
  endloop
endfacet
facet normal 0.0 0.0 1.0
  outer loop
    vertex 207.157995116305 -105.12292834888578 4.999999999999995
    vertex 207.25610906791067 -116.84683598615536 5.0
    vertex 207.72739701553053 -105.04796516672172 4.999999999999995
  endloop
endfacet
facet normal 0.0 0.0 1.0
  outer loop
    vertex 203.82259934514693 -115.98513244184294 5.0
    vertex 207.25610906791067 -116.84683598615536 5.0
    vertex 207.157995116305 -105.12292834888578 4.999999999999995
  endloop
endfacet
facet normal 0.0 0.0 1.0
  outer loop
    vertex 206.58859321707945 -105.04796516672172 4.999999999999995
    vertex 203.82259934514693 -115.98513244184294 5.0
    vertex 207.157995116305 -105.12292834888578 4.999999999999995
  endloop
endfacet
facet normal 0.0 0.0 1.0
  outer loop
    vertex 206.05799511630497 -104.82818423721154 4.999999999999995
    vertex 203.82259934514693 -115.98513244184294 5.0
    vertex 206.58859321707945 -105.04796516672172 4.999999999999995
  endloop
endfacet
facet normal 0.0 0.0 1.0
  outer loop
    vertex 205.6023601976946 -104.4785632674962 4.999999999999995
    vertex 203.82259934514693 -115.98513244184294 5.0
    vertex 206.05799511630497 -104.82818423721154 4.999999999999995
  endloop
endfacet
facet normal 0.0 0.0 1.0
  outer loop
    vertex 205.25273922797922 -104.02292834888578 4.999999999999995
    vertex 203.82259934514693 -115.98513244184294 5.0
    vertex 205.6023601976946 -104.4785632674962 4.999999999999995
  endloop
endfacet
facet normal 0.0 0.0 1.0
  outer loop
    vertex 205.03295829846903 -103.49233024811134 4.999999999999995
    vertex 203.82259934514693 -115.98513244184294 5.0
    vertex 205.25273922797922 -104.02292834888578 4.999999999999995
  endloop
endfacet
facet normal 0.0 0.0 1.0
  outer loop
    vertex 204.957995116305 -102.92292834888579 4.999999999999995
    vertex 203.82259934514693 -115.98513244184294 5.0
    vertex 205.03295829846903 -103.49233024811134 4.999999999999995
  endloop
endfacet
facet normal 0.0 0.0 1.0
  outer loop
    vertex 204.67898073532456 -99.05428035191852 5.0
    vertex 203.82259934514693 -115.98513244184294 5.0
    vertex 204.957995116305 -102.92292834888579 4.999999999999995
  endloop
endfacet
facet normal 0.0 0.0 1.0
  outer loop
    vertex 200.96089728230424 -100.36811151896906 5.0
    vertex 203.82259934514693 -115.98513244184294 5.0
    vertex 204.67898073532456 -99.05428035191852 5.0
  endloop
endfacet
facet normal 0.0 0.0 1.0
  outer loop
    vertex 200.86781062217858 -114.59683579775562 5.0
    vertex 203.82259934514693 -115.98513244184294 5.0
    vertex 200.96089728230424 -100.36811151896906 5.0
  endloop
endfacet
facet normal 0.0 0.0 1.0
  outer loop
    vertex 198.75876844920322 -101.76172717889335 5.0
    vertex 200.86781062217858 -114.59683579775562 5.0
    vertex 200.96089728230424 -100.36811151896906 5.0
  endloop
endfacet
facet normal 0.0 0.0 1.0
  outer loop
    vertex 198.53536542234832 -112.729813366639 5.0
    vertex 200.86781062217858 -114.59683579775562 5.0
    vertex 198.75876844920322 -101.76172717889335 5.0
  endloop
endfacet
facet normal 0.0 0.0 1.0
  outer loop
    vertex 197.04600375395435 -103.68726037996132 5.0
    vertex 198.53536542234832 -112.729813366639 5.0
    vertex 198.75876844920322 -101.76172717889335 5.0
  endloop
endfacet
facet normal 0.0 0.0 1.0
  outer loop
    vertex 196.62046865720967 -109.99045212549339 5.0
    vertex 198.53536542234832 -112.729813366639 5.0
    vertex 197.04600375395435 -103.68726037996132 5.0
  endloop
endfacet
facet normal 0.0 0.0 1.0
  outer loop
    vertex 196.24813010181327 -105.32555789604577 5.0
    vertex 196.62046865720967 -109.99045212549339 5.0
    vertex 197.04600375395435 -103.68726037996132 5.0
  endloop
endfacet
facet normal 0.0 0.0 1.0
  outer loop
    vertex 196.14174725847815 -108.56093342449398 5.0
    vertex 196.62046865720967 -109.99045212549339 5.0
    vertex 196.24813010181327 -105.32555789604577 5.0
  endloop
endfacet
facet normal 0.0 0.0 1.0
  outer loop
    vertex 195.98217399081582 -107.09151562200468 5.0
    vertex 196.14174725847815 -108.56093342449398 5.0
    vertex 196.24813010181327 -105.32555789604577 5.0
  endloop
endfacet
facet normal 0.0 0.0 1.0
  outer loop
    vertex 219.38642877986388 -103.19789868891759 5.0
    vertex 218.4077053977764 -98.68726049321016 5.0
    vertex 219.2002595021657 -103.95321829946937 5.0
  endloop
endfacet
facet normal 0.0 0.0 1.0
  outer loop
    vertex 218.6417479456669 -104.51704759520939 5.0
    vertex 219.2002595021657 -103.95321829946937 5.0
    vertex 218.4077053977764 -98.68726049321016 5.0
  endloop
endfacet
facet normal 0.0 0.0 1.0
  outer loop
    vertex 217.82259902805023 -104.86811141704511 5.0
    vertex 218.6417479456669 -104.51704759520939 5.0
    vertex 218.4077053977764 -98.68726049321016 5.0
  endloop
endfacet
facet normal 0.0 0.0 1.0
  outer loop
    vertex 216.17366289518546 -92.21917553332779 5.0
    vertex 217.82259902805023 -104.86811141704511 5.0
    vertex 218.4077053977764 -98.68726049321016 5.0
  endloop
endfacet
facet normal 0.0 0.0 1.0
  outer loop
    vertex 215.19493951309798 -105.32555821519469 5.0
    vertex 217.82259902805023 -104.86811141704511 5.0
    vertex 216.17366289518546 -92.21917553332779 5.0
  endloop
endfacet
facet normal 0.0 0.0 1.0
  outer loop
    vertex 214.64174803626594 -89.10215432733185 5.0
    vertex 215.19493951309798 -105.32555821519469 5.0
    vertex 216.17366289518546 -92.21917553332779 5.0
  endloop
endfacet
facet normal 0.0 0.0 1.0
  outer loop
    vertex 212.82791714649775 -105.90002554260867 5.0
    vertex 215.19493951309798 -105.32555821519469 5.0
    vertex 214.64174803626594 -89.10215432733185 5.0
  endloop
endfacet
facet normal 0.0 0.0 1.0
  outer loop
    vertex 213.91834475477856 -88.66332381865422 5.0
    vertex 212.82791714649775 -105.90002554260867 5.0
    vertex 214.64174803626594 -89.10215432733185 5.0
  endloop
endfacet
facet normal 0.0 0.0 1.0
  outer loop
    vertex 212.81196084366766 -88.51704795760563 5.0
    vertex 212.82791714649775 -105.90002554260867 5.0
    vertex 213.91834475477856 -88.66332381865422 5.0
  endloop
endfacet
facet normal 0.0 0.0 1.0
  outer loop
    vertex 210.91834386528103 -106.77236669306313 5.0
    vertex 212.82791714649775 -105.90002554260867 5.0
    vertex 212.81196084366766 -88.51704795760563 5.0
  endloop
endfacet
facet normal 0.0 0.0 1.0
  outer loop
    vertex 211.02472684159488 -97.24045201534173 5.0
    vertex 210.91834386528103 -106.77236669306313 5.0
    vertex 212.81196084366766 -88.51704795760563 5.0
  endloop
endfacet
facet normal 0.0 0.0 1.0
  outer loop
    vertex 210.6523864244964 -97.98513284953872 5.0
    vertex 210.91834386528103 -106.77236669306313 5.0
    vertex 211.02472684159488 -97.24045201534173 5.0
  endloop
endfacet
facet normal 0.0 0.0 1.0
  outer loop
    vertex 209.6098310757696 -107.96385538948043 5.0
    vertex 210.91834386528103 -106.77236669306313 5.0
    vertex 210.6523864244964 -97.98513284953872 5.0
  endloop
endfacet
facet normal 0.0 0.0 1.0
  outer loop
    vertex 209.35799511630498 -102.92292834888579 4.999999999999995
    vertex 209.6098310757696 -107.96385538948043 5.0
    vertex 210.6523864244964 -97.98513284953872 5.0
  endloop
endfacet
facet normal 0.0 0.0 1.0
  outer loop
    vertex 209.02472688689443 -98.30428177848027 5.0
    vertex 209.35799511630498 -102.92292834888579 4.999999999999995
    vertex 210.6523864244964 -97.98513284953872 5.0
  endloop
endfacet
facet normal 0.0 0.0 1.0
  outer loop
    vertex 209.2830319341409 -102.35352644966024 4.999999999999995
    vertex 209.35799511630498 -102.92292834888579 4.999999999999995
    vertex 209.02472688689443 -98.30428177848027 5.0
  endloop
endfacet
facet normal 0.0 0.0 1.0
  outer loop
    vertex 209.06325100463076 -101.82292834888578 4.999999999999995
    vertex 209.2830319341409 -102.35352644966024 4.999999999999995
    vertex 209.02472688689443 -98.30428177848027 5.0
  endloop
endfacet
facet normal 0.0 0.0 1.0
  outer loop
    vertex 208.71363003491538 -101.36729343027537 4.999999999999995
    vertex 209.06325100463076 -101.82292834888578 4.999999999999995
    vertex 209.02472688689443 -98.30428177848027 5.0
  endloop
endfacet
facet normal 0.0 0.0 1.0
  outer loop
    vertex 208.257995116305 -101.01767246056002 4.999999999999995
    vertex 208.71363003491538 -101.36729343027537 4.999999999999995
    vertex 209.02472688689443 -98.30428177848027 5.0
  endloop
endfacet
facet normal 0.0 0.0 1.0
  outer loop
    vertex 204.67898073532456 -99.05428035191852 5.0
    vertex 208.257995116305 -101.01767246056002 4.999999999999995
    vertex 209.02472688689443 -98.30428177848027 5.0
  endloop
endfacet
facet normal 0.0 0.0 1.0
  outer loop
    vertex 207.72739701553053 -100.79789153104984 4.999999999999995
    vertex 208.257995116305 -101.01767246056002 4.999999999999995
    vertex 204.67898073532456 -99.05428035191852 5.0
  endloop
endfacet
facet normal 0.0 0.0 1.0
  outer loop
    vertex 207.157995116305 -100.72292834888579 4.999999999999995
    vertex 207.72739701553053 -100.79789153104984 4.999999999999995
    vertex 204.67898073532456 -99.05428035191852 5.0
  endloop
endfacet
facet normal 0.0 0.0 1.0
  outer loop
    vertex 206.58859321707945 -100.79789153104984 4.999999999999995
    vertex 207.157995116305 -100.72292834888579 4.999999999999995
    vertex 204.67898073532456 -99.05428035191852 5.0
  endloop
endfacet
facet normal 0.0 0.0 1.0
  outer loop
    vertex 206.05799511630497 -101.01767246056002 4.999999999999995
    vertex 206.58859321707945 -100.79789153104984 4.999999999999995
    vertex 204.67898073532456 -99.05428035191852 5.0
  endloop
endfacet
facet normal 0.0 0.0 1.0
  outer loop
    vertex 205.6023601976946 -101.3672934302754 4.999999999999995
    vertex 206.05799511630497 -101.01767246056002 4.999999999999995
    vertex 204.67898073532456 -99.05428035191852 5.0
  endloop
endfacet
facet normal 0.0 0.0 1.0
  outer loop
    vertex 205.25273922797922 -101.82292834888578 4.999999999999995
    vertex 205.6023601976946 -101.3672934302754 4.999999999999995
    vertex 204.67898073532456 -99.05428035191852 5.0
  endloop
endfacet
facet normal 0.0 0.0 1.0
  outer loop
    vertex 205.03295829846903 -102.35352644966024 4.999999999999995
    vertex 205.25273922797922 -101.82292834888578 4.999999999999995
    vertex 204.67898073532456 -99.05428035191852 5.0
  endloop
endfacet
facet normal 0.0 0.0 1.0
  outer loop
    vertex 204.957995116305 -102.92292834888579 4.999999999999995
    vertex 205.03295829846903 -102.35352644966024 4.999999999999995
    vertex 204.67898073532456 -99.05428035191852 5.0
  endloop
endfacet
facet normal 0.0 0.0 1.0
  outer loop
    vertex 209.6098310757696 -107.96385538948043 5.0
    vertex 209.35799511630498 -102.92292834888579 4.999999999999995
    vertex 209.1736630537338 -109.41066450564672 5.0
  endloop
endfacet
facet normal 0.0 0.0 1.0
  outer loop
    vertex 209.2830319341409 -103.49233024811134 4.999999999999995
    vertex 209.1736630537338 -109.41066450564672 5.0
    vertex 209.35799511630498 -102.92292834888579 4.999999999999995
  endloop
endfacet
facet normal 0.0 0.0 1.0
  outer loop
    vertex 209.06325100463076 -104.02292834888578 4.999999999999995
    vertex 209.1736630537338 -109.41066450564672 5.0
    vertex 209.2830319341409 -103.49233024811134 4.999999999999995
  endloop
endfacet
facet normal 0.0 0.0 1.0
  outer loop
    vertex 197.6843016118375 -88.51704795760563 5.0
    vertex 210.62047355287882 -96.28300363277239 5.0
    vertex 212.81196084366766 -88.51704795760563 5.0
  endloop
endfacet
facet normal 0.0 0.0 1.0
  outer loop
    vertex 211.02472684159488 -97.24045201534173 5.0
    vertex 212.81196084366766 -88.51704795760563 5.0
    vertex 210.62047355287882 -96.28300363277239 5.0
  endloop
endfacet
facet normal 0.0 0.0 1.0
  outer loop
    vertex 209.40770560162431 -95.96385629957548 5.0
    vertex 210.62047355287882 -96.28300363277239 5.0
    vertex 197.6843016118375 -88.51704795760563 5.0
  endloop
endfacet
facet normal 0.0 0.0 1.0
  outer loop
    vertex 199.7906845428518 -95.96385629957548 5.0
    vertex 209.40770560162431 -95.96385629957548 5.0
    vertex 197.6843016118375 -88.51704795760563 5.0
  endloop
endfacet
facet normal 0.0 0.0 1.0
  outer loop
    vertex 198.84387557493514 -95.80428263297702 5.0
    vertex 199.7906845428518 -95.96385629957548 5.0
    vertex 197.6843016118375 -88.51704795760563 5.0
  endloop
endfacet
facet normal 0.0 0.0 1.0
  outer loop
    vertex 198.08855692183013 -95.32555844169234 5.0
    vertex 198.84387557493514 -95.80428263297702 5.0
    vertex 197.6843016118375 -88.51704795760563 5.0
  endloop
endfacet
facet normal 0.0 0.0 1.0
  outer loop
    vertex 196.74813142027557 -93.12343083199555 5.0
    vertex 198.08855692183013 -95.32555844169234 5.0
    vertex 197.6843016118375 -88.51704795760563 5.0
  endloop
endfacet
facet normal 0.0 0.0 1.0
  outer loop
    vertex 196.53536546764786 -88.87875007707275 5.0
    vertex 196.74813142027557 -93.12343083199555 5.0
    vertex 197.6843016118375 -88.51704795760563 5.0
  endloop
endfacet
facet normal 0.0 0.0 1.0
  outer loop
    vertex 196.23749313396908 -90.28300536441563 5.0
    vertex 196.74813142027557 -93.12343083199555 5.0
    vertex 196.53536546764786 -88.87875007707275 5.0
  endloop
endfacet
facet normal 0.0 1.0 0.0
  outer loop
    vertex 212.81196084366766 -88.51704795760563 0.0
    vertex 197.6843016118375 -88.51704795760563 0.0
    vertex 212.81196084366766 -88.51704795760563 5.0
  endloop
endfacet
facet normal 0.0 1.0 0.0
  outer loop
    vertex 197.6843016118375 -88.51704795760563 5.0
    vertex 212.81196084366766 -88.51704795760563 5.0
    vertex 197.6843016118375 -88.51704795760563 0.0
  endloop
endfacet
facet normal -0.3002858752327107 0.9538492507391956 0.0
  outer loop
    vertex 197.6843016118375 -88.51704795760563 0.0
    vertex 196.53536546764786 -88.87875007707275 0.0
    vertex 197.6843016118375 -88.51704795760563 5.0
  endloop
endfacet
facet normal -0.3002858752327107 0.9538492507391956 0.0
  outer loop
    vertex 196.53536546764786 -88.87875007707275 5.0
    vertex 197.6843016118375 -88.51704795760563 5.0
    vertex 196.53536546764786 -88.87875007707275 0.0
  endloop
endfacet
facet normal -0.9782341251024415 0.2075042083550628 0.0
  outer loop
    vertex 196.23749313396908 -90.28300536441563 0.0
    vertex 196.23749313396908 -90.28300536441563 5.0
    vertex 196.53536546764786 -88.87875007707275 0.0
  endloop
endfacet
facet normal -0.9782341251024415 0.2075042083550628 0.0
  outer loop
    vertex 196.53536546764786 -88.87875007707275 5.0
    vertex 196.53536546764786 -88.87875007707275 0.0
    vertex 196.23749313396908 -90.28300536441563 5.0
  endloop
endfacet
facet normal -0.9842218624756451 -0.17693876179337398 0.0
  outer loop
    vertex 196.74813142027557 -93.12343083199555 0.0
    vertex 196.74813142027557 -93.12343083199555 5.0
    vertex 196.23749313396908 -90.28300536441563 0.0
  endloop
endfacet
facet normal -0.9842218624756451 -0.17693876179337398 0.0
  outer loop
    vertex 196.23749313396908 -90.28300536441563 5.0
    vertex 196.23749313396908 -90.28300536441563 0.0
    vertex 196.74813142027557 -93.12343083199555 5.0
  endloop
endfacet
facet normal -0.8541985556144389 -0.5199469468957449 0.0
  outer loop
    vertex 198.08855692183013 -95.32555844169234 0.0
    vertex 198.08855692183013 -95.32555844169234 5.0
    vertex 196.74813142027557 -93.12343083199555 0.0
  endloop
endfacet
facet normal -0.8541985556144389 -0.5199469468957449 0.0
  outer loop
    vertex 196.74813142027557 -93.12343083199555 5.0
    vertex 196.74813142027557 -93.12343083199555 0.0
    vertex 198.08855692183013 -95.32555844169234 5.0
  endloop
endfacet
facet normal -0.5353359511973298 -0.8446392243766863 0.0
  outer loop
    vertex 198.08855692183013 -95.32555844169234 0.0
    vertex 198.84387557493514 -95.80428263297702 0.0
    vertex 198.08855692183013 -95.32555844169234 5.0
  endloop
endfacet
facet normal -0.5353359511973298 -0.8446392243766863 0.0
  outer loop
    vertex 198.84387557493514 -95.80428263297702 5.0
    vertex 198.08855692183013 -95.32555844169234 5.0
    vertex 198.84387557493514 -95.80428263297702 0.0
  endloop
endfacet
facet normal -0.16619453210965274 -0.9860929862324616 0.0
  outer loop
    vertex 198.84387557493514 -95.80428263297702 0.0
    vertex 199.7906845428518 -95.96385629957548 0.0
    vertex 198.84387557493514 -95.80428263297702 5.0
  endloop
endfacet
facet normal -0.16619453210965274 -0.9860929862324616 0.0
  outer loop
    vertex 199.7906845428518 -95.96385629957548 5.0
    vertex 198.84387557493514 -95.80428263297702 5.0
    vertex 199.7906845428518 -95.96385629957548 0.0
  endloop
endfacet
facet normal 0.0 -1.0 0.0
  outer loop
    vertex 199.7906845428518 -95.96385629957548 0.0
    vertex 209.40770560162431 -95.96385629957548 0.0
    vertex 199.7906845428518 -95.96385629957548 5.0
  endloop
endfacet
facet normal 0.0 -1.0 0.0
  outer loop
    vertex 209.40770560162431 -95.96385629957548 5.0
    vertex 199.7906845428518 -95.96385629957548 5.0
    vertex 209.40770560162431 -95.96385629957548 0.0
  endloop
endfacet
facet normal -0.2544917125441088 -0.9670749548232376 0.0
  outer loop
    vertex 209.40770560162431 -95.96385629957548 0.0
    vertex 210.62047355287882 -96.28300363277239 0.0
    vertex 209.40770560162431 -95.96385629957548 5.0
  endloop
endfacet
facet normal -0.2544917125441088 -0.9670749548232376 0.0
  outer loop
    vertex 210.62047355287882 -96.28300363277239 5.0
    vertex 209.40770560162431 -95.96385629957548 5.0
    vertex 210.62047355287882 -96.28300363277239 0.0
  endloop
endfacet
facet normal -0.9212504906372364 -0.3889698362349596 0.0
  outer loop
    vertex 211.02472684159488 -97.24045201534173 0.0
    vertex 211.02472684159488 -97.24045201534173 5.0
    vertex 210.62047355287882 -96.28300363277239 0.0
  endloop
endfacet
facet normal -0.9212504906372364 -0.3889698362349596 0.0
  outer loop
    vertex 210.62047355287882 -96.28300363277239 5.0
    vertex 210.62047355287882 -96.28300363277239 0.0
    vertex 211.02472684159488 -97.24045201534173 5.0
  endloop
endfacet
facet normal -0.8944271909999165 0.4472135954999566 0.0
  outer loop
    vertex 210.6523864244964 -97.98513284953872 0.0
    vertex 210.6523864244964 -97.98513284953872 5.0
    vertex 211.02472684159488 -97.24045201534173 0.0
  endloop
endfacet
facet normal -0.8944271909999165 0.4472135954999566 0.0
  outer loop
    vertex 211.02472684159488 -97.24045201534173 5.0
    vertex 211.02472684159488 -97.24045201534173 0.0
    vertex 210.6523864244964 -97.98513284953872 5.0
  endloop
endfacet
facet normal -0.1924144607210105 0.9813137496771576 0.0
  outer loop
    vertex 210.6523864244964 -97.98513284953872 0.0
    vertex 209.02472688689443 -98.30428177848027 0.0
    vertex 210.6523864244964 -97.98513284953872 5.0
  endloop
endfacet
facet normal -0.1924144607210105 0.9813137496771576 0.0
  outer loop
    vertex 209.02472688689443 -98.30428177848027 5.0
    vertex 210.6523864244964 -97.98513284953872 5.0
    vertex 209.02472688689443 -98.30428177848027 0.0
  endloop
endfacet
facet normal -0.17006810828457117 0.9854323104833268 0.0
  outer loop
    vertex 209.02472688689443 -98.30428177848027 0.0
    vertex 204.67898073532456 -99.05428035191852 0.0
    vertex 209.02472688689443 -98.30428177848027 5.0
  endloop
endfacet
facet normal -0.17006810828457117 0.9854323104833268 0.0
  outer loop
    vertex 204.67898073532456 -99.05428035191852 5.0
    vertex 209.02472688689443 -98.30428177848027 5.0
    vertex 204.67898073532456 -99.05428035191852 0.0
  endloop
endfacet
facet normal -0.3331733207092767 0.9428655993128362 0.0
  outer loop
    vertex 204.67898073532456 -99.05428035191852 0.0
    vertex 200.96089728230424 -100.36811151896906 0.0
    vertex 204.67898073532456 -99.05428035191852 5.0
  endloop
endfacet
facet normal -0.3331733207092767 0.9428655993128362 0.0
  outer loop
    vertex 200.96089728230424 -100.36811151896906 5.0
    vertex 204.67898073532456 -99.05428035191852 5.0
    vertex 200.96089728230424 -100.36811151896906 0.0
  endloop
endfacet
facet normal -0.5347601224946721 0.8450039120557273 0.0
  outer loop
    vertex 200.96089728230424 -100.36811151896906 0.0
    vertex 198.75876844920322 -101.76172717889335 0.0
    vertex 200.96089728230424 -100.36811151896906 5.0
  endloop
endfacet
facet normal -0.5347601224946721 0.8450039120557273 0.0
  outer loop
    vertex 198.75876844920322 -101.76172717889335 5.0
    vertex 200.96089728230424 -100.36811151896906 5.0
    vertex 198.75876844920322 -101.76172717889335 0.0
  endloop
endfacet
facet normal -0.747181982597004 0.6646195038384072 0.0
  outer loop
    vertex 197.04600375395435 -103.68726037996132 0.0
    vertex 197.04600375395435 -103.68726037996132 5.0
    vertex 198.75876844920322 -101.76172717889335 0.0
  endloop
endfacet
facet normal -0.747181982597004 0.6646195038384072 0.0
  outer loop
    vertex 198.75876844920322 -101.76172717889335 5.0
    vertex 198.75876844920322 -101.76172717889335 0.0
    vertex 197.04600375395435 -103.68726037996132 5.0
  endloop
endfacet
facet normal -0.8990484780114095 0.4378490997882354 0.0
  outer loop
    vertex 196.24813010181327 -105.32555789604577 0.0
    vertex 196.24813010181327 -105.32555789604577 5.0
    vertex 197.04600375395435 -103.68726037996132 0.0
  endloop
endfacet
facet normal -0.8990484780114095 0.4378490997882354 0.0
  outer loop
    vertex 197.04600375395435 -103.68726037996132 5.0
    vertex 197.04600375395435 -103.68726037996132 0.0
    vertex 196.24813010181327 -105.32555789604577 5.0
  endloop
endfacet
facet normal -0.9888489072986262 0.14892225667882272 0.0
  outer loop
    vertex 195.98217399081582 -107.09151562200468 0.0
    vertex 195.98217399081582 -107.09151562200468 5.0
    vertex 196.24813010181327 -105.32555789604577 0.0
  endloop
endfacet
facet normal -0.9888489072986262 0.14892225667882272 0.0
  outer loop
    vertex 196.24813010181327 -105.32555789604577 5.0
    vertex 196.24813010181327 -105.32555789604577 0.0
    vertex 195.98217399081582 -107.09151562200468 5.0
  endloop
endfacet
facet normal -0.9941550739425179 -0.10796151608025363 0.0
  outer loop
    vertex 196.14174725847815 -108.56093342449398 0.0
    vertex 196.14174725847815 -108.56093342449398 5.0
    vertex 195.98217399081582 -107.09151562200468 0.0
  endloop
endfacet
facet normal -0.9941550739425179 -0.10796151608025363 0.0
  outer loop
    vertex 195.98217399081582 -107.09151562200468 5.0
    vertex 195.98217399081582 -107.09151562200468 0.0
    vertex 196.14174725847815 -108.56093342449398 5.0
  endloop
endfacet
facet normal -0.9482415611876539 -0.3175499041668899 0.0
  outer loop
    vertex 196.62046865720967 -109.99045212549339 0.0
    vertex 196.62046865720967 -109.99045212549339 5.0
    vertex 196.14174725847815 -108.56093342449398 0.0
  endloop
endfacet
facet normal -0.9482415611876539 -0.3175499041668899 0.0
  outer loop
    vertex 196.14174725847815 -108.56093342449398 5.0
    vertex 196.14174725847815 -108.56093342449398 0.0
    vertex 196.62046865720967 -109.99045212549339 5.0
  endloop
endfacet
facet normal -0.8196050934454294 -0.5729288706273312 0.0
  outer loop
    vertex 198.53536542234832 -112.729813366639 0.0
    vertex 198.53536542234832 -112.729813366639 5.0
    vertex 196.62046865720967 -109.99045212549339 0.0
  endloop
endfacet
facet normal -0.8196050934454294 -0.5729288706273312 0.0
  outer loop
    vertex 196.62046865720967 -109.99045212549339 5.0
    vertex 196.62046865720967 -109.99045212549339 0.0
    vertex 198.53536542234832 -112.729813366639 5.0
  endloop
endfacet
facet normal -0.624912640700158 -0.7806946851959192 0.0
  outer loop
    vertex 198.53536542234832 -112.729813366639 0.0
    vertex 200.86781062217858 -114.59683579775562 0.0
    vertex 198.53536542234832 -112.729813366639 5.0
  endloop
endfacet
facet normal -0.624912640700158 -0.7806946851959192 0.0
  outer loop
    vertex 200.86781062217858 -114.59683579775562 5.0
    vertex 198.53536542234832 -112.729813366639 5.0
    vertex 200.86781062217858 -114.59683579775562 0.0
  endloop
endfacet
facet normal -0.42524721952747674 -0.9050772355352609 0.0
  outer loop
    vertex 200.86781062217858 -114.59683579775562 0.0
    vertex 203.82259934514693 -115.98513244184294 0.0
    vertex 200.86781062217858 -114.59683579775562 5.0
  endloop
endfacet
facet normal -0.42524721952747674 -0.9050772355352609 0.0
  outer loop
    vertex 203.82259934514693 -115.98513244184294 5.0
    vertex 200.86781062217858 -114.59683579775562 5.0
    vertex 203.82259934514693 -115.98513244184294 0.0
  endloop
endfacet
facet normal -0.24341983772847556 -0.969921018743404 0.0
  outer loop
    vertex 203.82259934514693 -115.98513244184294 0.0
    vertex 207.25610906791067 -116.84683598615536 0.0
    vertex 203.82259934514693 -115.98513244184294 5.0
  endloop
endfacet
facet normal -0.24341983772847556 -0.969921018743404 0.0
  outer loop
    vertex 207.25610906791067 -116.84683598615536 5.0
    vertex 203.82259934514693 -115.98513244184294 5.0
    vertex 207.25610906791067 -116.84683598615536 0.0
  endloop
endfacet
facet normal -0.07599654928221973 -0.9971080806498337 0.0
  outer loop
    vertex 207.25610906791067 -116.84683598615536 0.0
    vertex 211.02472684159488 -117.13406858603257 0.0
    vertex 207.25610906791067 -116.84683598615536 5.0
  endloop
endfacet
facet normal -0.07599654928221973 -0.9971080806498337 0.0
  outer loop
    vertex 211.02472684159488 -117.13406858603257 5.0
    vertex 207.25610906791067 -116.84683598615536 5.0
    vertex 211.02472684159488 -117.13406858603257 0.0
  endloop
endfacet
facet normal 0.06758097225385523 -0.9977137927227546 0.0
  outer loop
    vertex 211.02472684159488 -117.13406858603257 0.0
    vertex 214.0087700452836 -116.93194194167452 0.0
    vertex 211.02472684159488 -117.13406858603257 5.0
  endloop
endfacet
facet normal 0.06758097225385523 -0.9977137927227546 0.0
  outer loop
    vertex 214.0087700452836 -116.93194194167452 5.0
    vertex 211.02472684159488 -117.13406858603257 5.0
    vertex 214.0087700452836 -116.93194194167452 0.0
  endloop
endfacet
facet normal 0.2193752254497624 -0.9756405641725163 0.0
  outer loop
    vertex 214.0087700452836 -116.93194194167452 0.0
    vertex 216.70557777675475 -116.32555796604727 0.0
    vertex 214.0087700452836 -116.93194194167452 5.0
  endloop
endfacet
facet normal 0.2193752254497624 -0.9756405641725163 0.0
  outer loop
    vertex 216.70557777675475 -116.32555796604727 5.0
    vertex 214.0087700452836 -116.93194194167452 5.0
    vertex 216.70557777675475 -116.32555796604727 0.0
  endloop
endfacet
facet normal 0.48161454542093884 -0.8763831523021097 0.0
  outer loop
    vertex 216.70557777675475 -116.32555796604727 0.0
    vertex 218.47685728450804 -115.35215498277547 0.0
    vertex 216.70557777675475 -116.32555796604727 5.0
  endloop
endfacet
facet normal 0.48161454542093884 -0.8763831523021097 0.0
  outer loop
    vertex 218.47685728450804 -115.35215498277547 5.0
    vertex 216.70557777675475 -116.32555796604727 5.0
    vertex 218.47685728450804 -115.35215498277547 0.0
  endloop
endfacet
facet normal 0.8358359008474812 -0.5489793683322534 0.0
  outer loop
    vertex 218.47685728450804 -115.35215498277547 5.0
    vertex 218.47685728450804 -115.35215498277547 0.0
    vertex 218.9196745783347 -114.6779537048279 5.0
  endloop
endfacet
facet normal 0.8358359008474812 -0.5489793683322534 0.0
  outer loop
    vertex 218.9196745783347 -114.6779537048279 0.0
    vertex 218.9196745783347 -114.6779537048279 5.0
    vertex 218.47685728450804 -115.35215498277547 0.0
  endloop
endfacet
facet normal 0.9833690233059058 -0.1816187325205997 0.0
  outer loop
    vertex 218.9196745783347 -114.6779537048279 5.0
    vertex 218.9196745783347 -114.6779537048279 0.0
    vertex 219.06727985092235 -113.87874951082863 5.0
  endloop
endfacet
facet normal 0.9833690233059058 -0.1816187325205997 0.0
  outer loop
    vertex 219.06727985092235 -113.87874951082863 0.0
    vertex 219.06727985092235 -113.87874951082863 5.0
    vertex 218.9196745783347 -114.6779537048279 0.0
  endloop
endfacet
facet normal 0.981043742203262 0.19378641821299003 0.0
  outer loop
    vertex 219.06727985092235 -113.87874951082863 5.0
    vertex 219.06727985092235 -113.87874951082863 0.0
    vertex 218.72685432671796 -112.15534529454416 5.0
  endloop
endfacet
facet normal 0.981043742203262 0.19378641821299003 0.0
  outer loop
    vertex 218.72685432671796 -112.15534529454416 0.0
    vertex 218.72685432671796 -112.15534529454416 5.0
    vertex 219.06727985092235 -113.87874951082863 0.0
  endloop
endfacet
facet normal 0.8245139057664703 0.5658416909328263 0.0
  outer loop
    vertex 218.72685432671796 -112.15534529454416 5.0
    vertex 218.72685432671796 -112.15534529454416 0.0
    vertex 218.35451406919395 -111.61279121108821 5.0
  endloop
endfacet
facet normal 0.8245139057664703 0.5658416909328263 0.0
  outer loop
    vertex 218.35451406919395 -111.61279121108821 0.0
    vertex 218.35451406919395 -111.61279121108821 5.0
    vertex 218.72685432671796 -112.15534529454416 0.0
  endloop
endfacet
facet normal 0.383013268995702 0.9237428407155457 0.0
  outer loop
    vertex 218.35451406919395 -111.61279121108821 0.0
    vertex 217.91834370673268 -111.43194105560995 0.0
    vertex 218.35451406919395 -111.61279121108821 5.0
  endloop
endfacet
facet normal 0.383013268995702 0.9237428407155457 0.0
  outer loop
    vertex 217.91834370673268 -111.43194105560995 5.0
    vertex 218.35451406919395 -111.61279121108821 5.0
    vertex 217.91834370673268 -111.43194105560995 0.0
  endloop
endfacet
facet normal -0.19611613513818424 0.9805806756909201 0.0
  outer loop
    vertex 217.91834370673268 -111.43194105560995 0.0
    vertex 217.28004584884954 -111.5596006271866 0.0
    vertex 217.91834370673268 -111.43194105560995 5.0
  endloop
endfacet
facet normal -0.19611613513818424 0.9805806756909201 0.0
  outer loop
    vertex 217.28004584884954 -111.5596006271866 5.0
    vertex 217.91834370673268 -111.43194105560995 5.0
    vertex 217.28004584884954 -111.5596006271866 0.0
  endloop
endfacet
facet normal -0.21797943141344214 0.9759533633738207 0.0
  outer loop
    vertex 217.28004584884954 -111.5596006271866 0.0
    vertex 215.18430121546663 -112.02768572296755 0.0
    vertex 217.28004584884954 -111.5596006271866 5.0
  endloop
endfacet
facet normal -0.21797943141344214 0.9759533633738207 0.0
  outer loop
    vertex 215.18430121546663 -112.02768572296755 5.0
    vertex 217.28004584884954 -111.5596006271866 5.0
    vertex 215.18430121546663 -112.02768572296755 0.0
  endloop
endfacet
facet normal -0.10634537454172756 0.9943292519651525 0.0
  outer loop
    vertex 215.18430121546663 -112.02768572296755 0.0
    vertex 213.19493955839752 -112.24045167559525 0.0
    vertex 215.18430121546663 -112.02768572296755 5.0
  endloop
endfacet
facet normal -0.10634537454172756 0.9943292519651525 0.0
  outer loop
    vertex 213.19493955839752 -112.24045167559525 5.0
    vertex 215.18430121546663 -112.02768572296755 5.0
    vertex 213.19493955839752 -112.24045167559525 0.0
  endloop
endfacet
facet normal 0.1180603700503556 0.9930064194271723 0.0
  outer loop
    vertex 213.19493955839752 -112.24045167559525 0.0
    vertex 211.56195999432032 -112.04630371456713 0.0
    vertex 213.19493955839752 -112.24045167559525 5.0
  endloop
endfacet
facet normal 0.1180603700503556 0.9930064194271723 0.0
  outer loop
    vertex 211.56195999432032 -112.04630371456713 5.0
    vertex 213.19493955839752 -112.24045167559525 5.0
    vertex 211.56195999432032 -112.04630371456713 0.0
  endloop
endfacet
facet normal 0.41366143398791705 0.9104307870623995 0.0
  outer loop
    vertex 211.56195999432032 -112.04630371456713 0.0
    vertex 210.2800460073979 -111.4638559485041 0.0
    vertex 211.56195999432032 -112.04630371456713 5.0
  endloop
endfacet
facet normal 0.41366143398791705 0.9104307870623995 0.0
  outer loop
    vertex 210.2800460073979 -111.4638559485041 5.0
    vertex 211.56195999432032 -112.04630371456713 5.0
    vertex 210.2800460073979 -111.4638559485041 0.0
  endloop
endfacet
facet normal 0.7358004230336038 0.6771984476234199 0.0
  outer loop
    vertex 210.2800460073979 -111.4638559485041 5.0
    vertex 210.2800460073979 -111.4638559485041 0.0
    vertex 209.45025740917114 -110.56226084924418 5.0
  endloop
endfacet
facet normal 0.7358004230336038 0.6771984476234199 0.0
  outer loop
    vertex 209.45025740917114 -110.56226084924418 0.0
    vertex 209.45025740917114 -110.56226084924418 5.0
    vertex 210.2800460073979 -111.4638559485041 0.0
  endloop
endfacet
facet normal 0.9723468137014215 0.23354158919707024 0.0
  outer loop
    vertex 209.45025740917114 -110.56226084924418 5.0
    vertex 209.45025740917114 -110.56226084924418 0.0
    vertex 209.1736630537338 -109.41066450564672 5.0
  endloop
endfacet
facet normal 0.9723468137014215 0.23354158919707024 0.0
  outer loop
    vertex 209.1736630537338 -109.41066450564672 0.0
    vertex 209.1736630537338 -109.41066450564672 5.0
    vertex 209.45025740917114 -110.56226084924418 0.0
  endloop
endfacet
facet normal 0.9574383261307766 -0.2886379248399226 0.0
  outer loop
    vertex 209.1736630537338 -109.41066450564672 5.0
    vertex 209.1736630537338 -109.41066450564672 0.0
    vertex 209.6098310757696 -107.96385538948043 5.0
  endloop
endfacet
facet normal 0.9574383261307766 -0.2886379248399226 0.0
  outer loop
    vertex 209.6098310757696 -107.96385538948043 0.0
    vertex 209.6098310757696 -107.96385538948043 5.0
    vertex 209.1736630537338 -109.41066450564672 0.0
  endloop
endfacet
facet normal 0.6732701781042193 -0.7393965561696328 0.0
  outer loop
    vertex 209.6098310757696 -107.96385538948043 0.0
    vertex 210.91834386528103 -106.77236669306313 0.0
    vertex 209.6098310757696 -107.96385538948043 5.0
  endloop
endfacet
facet normal 0.6732701781042193 -0.7393965561696328 0.0
  outer loop
    vertex 210.91834386528103 -106.77236669306313 5.0
    vertex 209.6098310757696 -107.96385538948043 5.0
    vertex 210.91834386528103 -106.77236669306313 0.0
  endloop
endfacet
facet normal 0.41552073649464505 -0.9095837056274413 0.0
  outer loop
    vertex 210.91834386528103 -106.77236669306313 0.0
    vertex 212.82791714649775 -105.90002554260867 0.0
    vertex 210.91834386528103 -106.77236669306313 5.0
  endloop
endfacet
facet normal 0.41552073649464505 -0.9095837056274413 0.0
  outer loop
    vertex 212.82791714649775 -105.90002554260867 5.0
    vertex 210.91834386528103 -106.77236669306313 5.0
    vertex 212.82791714649775 -105.90002554260867 0.0
  endloop
endfacet
facet normal 0.23584963115503452 -0.9717895613166639 0.0
  outer loop
    vertex 212.82791714649775 -105.90002554260867 0.0
    vertex 215.19493951309798 -105.32555821519469 0.0
    vertex 212.82791714649775 -105.90002554260867 5.0
  endloop
endfacet
facet normal 0.23584963115503452 -0.9717895613166639 0.0
  outer loop
    vertex 215.19493951309798 -105.32555821519469 5.0
    vertex 212.82791714649775 -105.90002554260867 5.0
    vertex 215.19493951309798 -105.32555821519469 0.0
  endloop
endfacet
facet normal 0.1715094981927993 -0.9851824663632895 0.0
  outer loop
    vertex 215.19493951309798 -105.32555821519469 0.0
    vertex 217.82259902805023 -104.86811141704511 0.0
    vertex 215.19493951309798 -105.32555821519469 5.0
  endloop
endfacet
facet normal 0.1715094981927993 -0.9851824663632895 0.0
  outer loop
    vertex 217.82259902805023 -104.86811141704511 5.0
    vertex 215.19493951309798 -105.32555821519469 5.0
    vertex 217.82259902805023 -104.86811141704511 0.0
  endloop
endfacet
facet normal 0.39391929857916735 -0.919145030018058 0.0
  outer loop
    vertex 217.82259902805023 -104.86811141704511 0.0
    vertex 218.6417479456669 -104.51704759520939 0.0
    vertex 217.82259902805023 -104.86811141704511 5.0
  endloop
endfacet
facet normal 0.39391929857916735 -0.919145030018058 0.0
  outer loop
    vertex 218.6417479456669 -104.51704759520939 5.0
    vertex 217.82259902805023 -104.86811141704511 5.0
    vertex 218.6417479456669 -104.51704759520939 0.0
  endloop
endfacet
facet normal 0.7104491342069686 -0.7037485543179244 0.0
  outer loop
    vertex 218.6417479456669 -104.51704759520939 5.0
    vertex 218.6417479456669 -104.51704759520939 0.0
    vertex 219.2002595021657 -103.95321829946937 5.0
  endloop
endfacet
facet normal 0.7104491342069686 -0.7037485543179244 0.0
  outer loop
    vertex 219.2002595021657 -103.95321829946937 0.0
    vertex 219.2002595021657 -103.95321829946937 5.0
    vertex 218.6417479456669 -104.51704759520939 0.0
  endloop
endfacet
facet normal 0.9709419027977982 -0.23931531792050217 0.0
  outer loop
    vertex 219.2002595021657 -103.95321829946937 5.0
    vertex 219.2002595021657 -103.95321829946937 0.0
    vertex 219.38642877986388 -103.19789868891759 5.0
  endloop
endfacet
facet normal 0.9709419027977982 -0.23931531792050217 0.0
  outer loop
    vertex 219.38642877986388 -103.19789868891759 0.0
    vertex 219.38642877986388 -103.19789868891759 5.0
    vertex 219.2002595021657 -103.95321829946937 0.0
  endloop
endfacet
facet normal 0.9772594968056836 0.21204687194840308 0.0
  outer loop
    vertex 219.38642877986388 -103.19789868891759 5.0
    vertex 219.38642877986388 -103.19789868891759 0.0
    vertex 218.4077053977764 -98.68726049321016 5.0
  endloop
endfacet
facet normal 0.9772594968056836 0.21204687194840308 0.0
  outer loop
    vertex 218.4077053977764 -98.68726049321016 0.0
    vertex 218.4077053977764 -98.68726049321016 5.0
    vertex 219.38642877986388 -103.19789868891759 0.0
  endloop
endfacet
facet normal 0.945207651099884 0.3264697479127888 0.0
  outer loop
    vertex 218.4077053977764 -98.68726049321016 5.0
    vertex 218.4077053977764 -98.68726049321016 0.0
    vertex 216.17366289518546 -92.21917553332779 5.0
  endloop
endfacet
facet normal 0.945207651099884 0.3264697479127888 0.0
  outer loop
    vertex 216.17366289518546 -92.21917553332779 0.0
    vertex 216.17366289518546 -92.21917553332779 5.0
    vertex 218.4077053977764 -98.68726049321016 0.0
  endloop
endfacet
facet normal 0.8974692465254596 0.44107703583503843 0.0
  outer loop
    vertex 216.17366289518546 -92.21917553332779 5.0
    vertex 216.17366289518546 -92.21917553332779 0.0
    vertex 214.64174803626594 -89.10215432733185 5.0
  endloop
endfacet
facet normal 0.8974692465254596 0.44107703583503843 0.0
  outer loop
    vertex 214.64174803626594 -89.10215432733185 0.0
    vertex 214.64174803626594 -89.10215432733185 5.0
    vertex 216.17366289518546 -92.21917553332779 0.0
  endloop
endfacet
facet normal 0.5186511278050503 0.8549859692571274 0.0
  outer loop
    vertex 214.64174803626594 -89.10215432733185 0.0
    vertex 213.91834475477856 -88.66332381865422 0.0
    vertex 214.64174803626594 -89.10215432733185 5.0
  endloop
endfacet
facet normal 0.5186511278050503 0.8549859692571274 0.0
  outer loop
    vertex 213.91834475477856 -88.66332381865422 5.0
    vertex 214.64174803626594 -89.10215432733185 5.0
    vertex 213.91834475477856 -88.66332381865422 0.0
  endloop
endfacet
facet normal 0.13107019270456577 0.9913730905085069 0.0
  outer loop
    vertex 213.91834475477856 -88.66332381865422 0.0
    vertex 212.81196084366766 -88.51704795760563 0.0
    vertex 213.91834475477856 -88.66332381865422 5.0
  endloop
endfacet
facet normal 0.13107019270456577 0.9913730905085069 0.0
  outer loop
    vertex 212.81196084366766 -88.51704795760563 5.0
    vertex 213.91834475477856 -88.66332381865422 5.0
    vertex 212.81196084366766 -88.51704795760563 0.0
  endloop
endfacet
facet normal -0.3826834323650871 0.923879532511288 0.0
  outer loop
    vertex 208.257995116305 -104.82818423721154 2.8999999999999946
    vertex 207.72739701553053 -105.04796516672172 2.8999999999999946
    vertex 208.257995116305 -104.82818423721154 4.999999999999995
  endloop
endfacet
facet normal -0.3826834323650871 0.923879532511288 0.0
  outer loop
    vertex 207.72739701553053 -105.04796516672172 4.999999999999995
    vertex 208.257995116305 -104.82818423721154 4.999999999999995
    vertex 207.72739701553053 -105.04796516672172 2.8999999999999946
  endloop
endfacet
facet normal 0.6087614290087295 -0.7933533402912283 0.0
  outer loop
    vertex 205.6023601976946 -101.3672934302754 2.8999999999999946
    vertex 206.05799511630497 -101.01767246056002 2.8999999999999946
    vertex 205.6023601976946 -101.3672934302754 4.999999999999995
  endloop
endfacet
facet normal 0.6087614290087295 -0.7933533402912283 0.0
  outer loop
    vertex 206.05799511630497 -101.01767246056002 4.999999999999995
    vertex 205.6023601976946 -101.3672934302754 4.999999999999995
    vertex 206.05799511630497 -101.01767246056002 2.8999999999999946
  endloop
endfacet
facet normal 0.7933533402912258 -0.6087614290087329 0.0
  outer loop
    vertex 205.25273922797922 -101.82292834888578 4.999999999999995
    vertex 205.25273922797922 -101.82292834888578 2.8999999999999946
    vertex 205.6023601976946 -101.3672934302754 4.999999999999995
  endloop
endfacet
facet normal 0.7933533402912258 -0.6087614290087329 0.0
  outer loop
    vertex 205.6023601976946 -101.3672934302754 2.8999999999999946
    vertex 205.6023601976946 -101.3672934302754 4.999999999999995
    vertex 205.25273922797922 -101.82292834888578 2.8999999999999946
  endloop
endfacet
facet normal 0.1305261922200586 0.9914448613738096 0.0
  outer loop
    vertex 207.157995116305 -105.12292834888578 2.8999999999999946
    vertex 206.58859321707945 -105.04796516672172 2.8999999999999946
    vertex 207.157995116305 -105.12292834888578 4.999999999999995
  endloop
endfacet
facet normal 0.1305261922200586 0.9914448613738096 0.0
  outer loop
    vertex 206.58859321707945 -105.04796516672172 4.999999999999995
    vertex 207.157995116305 -105.12292834888578 4.999999999999995
    vertex 206.58859321707945 -105.04796516672172 2.8999999999999946
  endloop
endfacet
facet normal -0.1305261922200586 -0.9914448613738096 0.0
  outer loop
    vertex 207.157995116305 -100.72292834888579 2.8999999999999946
    vertex 207.72739701553053 -100.79789153104984 2.8999999999999946
    vertex 207.157995116305 -100.72292834888579 4.999999999999995
  endloop
endfacet
facet normal -0.1305261922200586 -0.9914448613738096 0.0
  outer loop
    vertex 207.72739701553053 -100.79789153104984 4.999999999999995
    vertex 207.157995116305 -100.72292834888579 4.999999999999995
    vertex 207.72739701553053 -100.79789153104984 2.8999999999999946
  endloop
endfacet
facet normal -0.6087614290087049 -0.7933533402912475 0.0
  outer loop
    vertex 208.257995116305 -101.01767246056002 2.8999999999999946
    vertex 208.71363003491538 -101.36729343027537 2.8999999999999946
    vertex 208.257995116305 -101.01767246056002 4.999999999999995
  endloop
endfacet
facet normal -0.6087614290087049 -0.7933533402912475 0.0
  outer loop
    vertex 208.71363003491538 -101.36729343027537 4.999999999999995
    vertex 208.257995116305 -101.01767246056002 4.999999999999995
    vertex 208.71363003491538 -101.36729343027537 2.8999999999999946
  endloop
endfacet
facet normal 0.9238795325112817 0.38268343236510244 0.0
  outer loop
    vertex 205.25273922797922 -104.02292834888578 4.999999999999995
    vertex 205.25273922797922 -104.02292834888578 2.8999999999999946
    vertex 205.03295829846903 -103.49233024811134 4.999999999999995
  endloop
endfacet
facet normal 0.9238795325112817 0.38268343236510244 0.0
  outer loop
    vertex 205.03295829846903 -103.49233024811134 2.8999999999999946
    vertex 205.03295829846903 -103.49233024811134 4.999999999999995
    vertex 205.25273922797922 -104.02292834888578 2.8999999999999946
  endloop
endfacet
facet normal 0.9914448613738113 0.1305261922200464 0.0
  outer loop
    vertex 205.03295829846903 -103.49233024811134 4.999999999999995
    vertex 205.03295829846903 -103.49233024811134 2.8999999999999946
    vertex 204.957995116305 -102.92292834888579 4.999999999999995
  endloop
endfacet
facet normal 0.9914448613738113 0.1305261922200464 0.0
  outer loop
    vertex 204.957995116305 -102.92292834888579 2.8999999999999946
    vertex 204.957995116305 -102.92292834888579 4.999999999999995
    vertex 205.03295829846903 -103.49233024811134 2.8999999999999946
  endloop
endfacet
facet normal -0.6087614290087295 0.7933533402912283 0.0
  outer loop
    vertex 208.71363003491538 -104.47856326749617 2.8999999999999946
    vertex 208.257995116305 -104.82818423721154 2.8999999999999946
    vertex 208.71363003491538 -104.47856326749617 4.999999999999995
  endloop
endfacet
facet normal -0.6087614290087295 0.7933533402912283 0.0
  outer loop
    vertex 208.257995116305 -104.82818423721154 4.999999999999995
    vertex 208.71363003491538 -104.47856326749617 4.999999999999995
    vertex 208.257995116305 -104.82818423721154 2.8999999999999946
  endloop
endfacet
facet normal -0.7933533402912453 -0.6087614290087077 0.0
  outer loop
    vertex 209.06325100463076 -101.82292834888578 2.8999999999999946
    vertex 209.06325100463076 -101.82292834888578 4.999999999999995
    vertex 208.71363003491538 -101.36729343027537 2.8999999999999946
  endloop
endfacet
facet normal -0.7933533402912453 -0.6087614290087077 0.0
  outer loop
    vertex 208.71363003491538 -101.36729343027537 4.999999999999995
    vertex 208.71363003491538 -101.36729343027537 2.8999999999999946
    vertex 209.06325100463076 -101.82292834888578 4.999999999999995
  endloop
endfacet
facet normal 0.9238795325112851 -0.382683432365094 0.0
  outer loop
    vertex 205.03295829846903 -102.35352644966024 4.999999999999995
    vertex 205.03295829846903 -102.35352644966024 2.8999999999999946
    vertex 205.25273922797922 -101.82292834888578 4.999999999999995
  endloop
endfacet
facet normal 0.9238795325112851 -0.382683432365094 0.0
  outer loop
    vertex 205.25273922797922 -101.82292834888578 2.8999999999999946
    vertex 205.25273922797922 -101.82292834888578 4.999999999999995
    vertex 205.03295829846903 -102.35352644966024 2.8999999999999946
  endloop
endfacet
facet normal -0.1305261922200586 0.9914448613738096 0.0
  outer loop
    vertex 207.72739701553053 -105.04796516672172 2.8999999999999946
    vertex 207.157995116305 -105.12292834888578 2.8999999999999946
    vertex 207.72739701553053 -105.04796516672172 4.999999999999995
  endloop
endfacet
facet normal -0.1305261922200586 0.9914448613738096 0.0
  outer loop
    vertex 207.157995116305 -105.12292834888578 4.999999999999995
    vertex 207.72739701553053 -105.04796516672172 4.999999999999995
    vertex 207.157995116305 -105.12292834888578 2.8999999999999946
  endloop
endfacet
facet normal 0.7933533402912453 0.6087614290087077 0.0
  outer loop
    vertex 205.6023601976946 -104.4785632674962 4.999999999999995
    vertex 205.6023601976946 -104.4785632674962 2.8999999999999946
    vertex 205.25273922797922 -104.02292834888578 4.999999999999995
  endloop
endfacet
facet normal 0.7933533402912453 0.6087614290087077 0.0
  outer loop
    vertex 205.25273922797922 -104.02292834888578 2.8999999999999946
    vertex 205.25273922797922 -104.02292834888578 4.999999999999995
    vertex 205.6023601976946 -104.4785632674962 2.8999999999999946
  endloop
endfacet
facet normal -0.7933533402912306 0.6087614290087267 0.0
  outer loop
    vertex 208.71363003491538 -104.47856326749617 2.8999999999999946
    vertex 208.71363003491538 -104.47856326749617 4.999999999999995
    vertex 209.06325100463076 -104.02292834888578 2.8999999999999946
  endloop
endfacet
facet normal -0.7933533402912306 0.6087614290087267 0.0
  outer loop
    vertex 209.06325100463076 -104.02292834888578 4.999999999999995
    vertex 209.06325100463076 -104.02292834888578 2.8999999999999946
    vertex 208.71363003491538 -104.47856326749617 4.999999999999995
  endloop
endfacet
facet normal 0.3826834323650871 -0.923879532511288 0.0
  outer loop
    vertex 206.05799511630497 -101.01767246056002 2.8999999999999946
    vertex 206.58859321707945 -100.79789153104984 2.8999999999999946
    vertex 206.05799511630497 -101.01767246056002 4.999999999999995
  endloop
endfacet
facet normal 0.3826834323650871 -0.923879532511288 0.0
  outer loop
    vertex 206.58859321707945 -100.79789153104984 4.999999999999995
    vertex 206.05799511630497 -101.01767246056002 4.999999999999995
    vertex 206.58859321707945 -100.79789153104984 2.8999999999999946
  endloop
endfacet
facet normal 0.6087614290087049 0.7933533402912475 0.0
  outer loop
    vertex 206.05799511630497 -104.82818423721154 2.8999999999999946
    vertex 205.6023601976946 -104.4785632674962 2.8999999999999946
    vertex 206.05799511630497 -104.82818423721154 4.999999999999995
  endloop
endfacet
facet normal 0.6087614290087049 0.7933533402912475 0.0
  outer loop
    vertex 205.6023601976946 -104.4785632674962 4.999999999999995
    vertex 206.05799511630497 -104.82818423721154 4.999999999999995
    vertex 205.6023601976946 -104.4785632674962 2.8999999999999946
  endloop
endfacet
facet normal 0.3826834323650871 0.923879532511288 0.0
  outer loop
    vertex 206.58859321707945 -105.04796516672172 2.8999999999999946
    vertex 206.05799511630497 -104.82818423721154 2.8999999999999946
    vertex 206.58859321707945 -105.04796516672172 4.999999999999995
  endloop
endfacet
facet normal 0.3826834323650871 0.923879532511288 0.0
  outer loop
    vertex 206.05799511630497 -104.82818423721154 4.999999999999995
    vertex 206.58859321707945 -105.04796516672172 4.999999999999995
    vertex 206.05799511630497 -104.82818423721154 2.8999999999999946
  endloop
endfacet
facet normal 0.1305261922200586 -0.9914448613738096 0.0
  outer loop
    vertex 206.58859321707945 -100.79789153104984 2.8999999999999946
    vertex 207.157995116305 -100.72292834888579 2.8999999999999946
    vertex 206.58859321707945 -100.79789153104984 4.999999999999995
  endloop
endfacet
facet normal 0.1305261922200586 -0.9914448613738096 0.0
  outer loop
    vertex 207.157995116305 -100.72292834888579 4.999999999999995
    vertex 206.58859321707945 -100.79789153104984 4.999999999999995
    vertex 207.157995116305 -100.72292834888579 2.8999999999999946
  endloop
endfacet
facet normal -0.9914448613738099 0.13052619222005604 0.0
  outer loop
    vertex 209.2830319341409 -103.49233024811134 2.8999999999999946
    vertex 209.2830319341409 -103.49233024811134 4.999999999999995
    vertex 209.35799511630498 -102.92292834888579 2.8999999999999946
  endloop
endfacet
facet normal -0.9914448613738099 0.13052619222005604 0.0
  outer loop
    vertex 209.35799511630498 -102.92292834888579 4.999999999999995
    vertex 209.35799511630498 -102.92292834888579 2.8999999999999946
    vertex 209.2830319341409 -103.49233024811134 4.999999999999995
  endloop
endfacet
facet normal -0.3826834323650871 -0.923879532511288 0.0
  outer loop
    vertex 207.72739701553053 -100.79789153104984 2.8999999999999946
    vertex 208.257995116305 -101.01767246056002 2.8999999999999946
    vertex 207.72739701553053 -100.79789153104984 4.999999999999995
  endloop
endfacet
facet normal -0.3826834323650871 -0.923879532511288 0.0
  outer loop
    vertex 208.257995116305 -101.01767246056002 4.999999999999995
    vertex 207.72739701553053 -100.79789153104984 4.999999999999995
    vertex 208.257995116305 -101.01767246056002 2.8999999999999946
  endloop
endfacet
facet normal 0.9914448613738113 -0.1305261922200464 0.0
  outer loop
    vertex 204.957995116305 -102.92292834888579 4.999999999999995
    vertex 204.957995116305 -102.92292834888579 2.8999999999999946
    vertex 205.03295829846903 -102.35352644966024 4.999999999999995
  endloop
endfacet
facet normal 0.9914448613738113 -0.1305261922200464 0.0
  outer loop
    vertex 205.03295829846903 -102.35352644966024 2.8999999999999946
    vertex 205.03295829846903 -102.35352644966024 4.999999999999995
    vertex 204.957995116305 -102.92292834888579 2.8999999999999946
  endloop
endfacet
facet normal 0.0 0.0 1.0
  outer loop
    vertex 209.35799511630498 -102.92292834888579 2.8999999999999946
    vertex 209.2830319341409 -102.35352644966024 2.8999999999999946
    vertex 209.2830319341409 -103.49233024811134 2.8999999999999946
  endloop
endfacet
facet normal 0.0 0.0 1.0
  outer loop
    vertex 209.06325100463076 -104.02292834888578 2.8999999999999946
    vertex 209.2830319341409 -103.49233024811134 2.8999999999999946
    vertex 209.2830319341409 -102.35352644966024 2.8999999999999946
  endloop
endfacet
facet normal 0.0 0.0 1.0
  outer loop
    vertex 209.06325100463076 -101.82292834888578 2.8999999999999946
    vertex 209.06325100463076 -104.02292834888578 2.8999999999999946
    vertex 209.2830319341409 -102.35352644966024 2.8999999999999946
  endloop
endfacet
facet normal 0.0 0.0 1.0
  outer loop
    vertex 208.71363003491538 -104.47856326749617 2.8999999999999946
    vertex 209.06325100463076 -104.02292834888578 2.8999999999999946
    vertex 209.06325100463076 -101.82292834888578 2.8999999999999946
  endloop
endfacet
facet normal 0.0 0.0 1.0
  outer loop
    vertex 208.71363003491538 -101.36729343027537 2.8999999999999946
    vertex 208.71363003491538 -104.47856326749617 2.8999999999999946
    vertex 209.06325100463076 -101.82292834888578 2.8999999999999946
  endloop
endfacet
facet normal 0.0 0.0 1.0
  outer loop
    vertex 208.257995116305 -104.82818423721154 2.8999999999999946
    vertex 208.71363003491538 -104.47856326749617 2.8999999999999946
    vertex 208.71363003491538 -101.36729343027537 2.8999999999999946
  endloop
endfacet
facet normal 0.0 0.0 1.0
  outer loop
    vertex 208.257995116305 -101.01767246056002 2.8999999999999946
    vertex 208.257995116305 -104.82818423721154 2.8999999999999946
    vertex 208.71363003491538 -101.36729343027537 2.8999999999999946
  endloop
endfacet
facet normal 0.0 0.0 1.0
  outer loop
    vertex 207.72739701553053 -105.04796516672172 2.8999999999999946
    vertex 208.257995116305 -104.82818423721154 2.8999999999999946
    vertex 208.257995116305 -101.01767246056002 2.8999999999999946
  endloop
endfacet
facet normal 0.0 0.0 1.0
  outer loop
    vertex 207.72739701553053 -100.79789153104984 2.8999999999999946
    vertex 207.72739701553053 -105.04796516672172 2.8999999999999946
    vertex 208.257995116305 -101.01767246056002 2.8999999999999946
  endloop
endfacet
facet normal 0.0 0.0 1.0
  outer loop
    vertex 207.157995116305 -105.12292834888578 2.8999999999999946
    vertex 207.72739701553053 -105.04796516672172 2.8999999999999946
    vertex 207.72739701553053 -100.79789153104984 2.8999999999999946
  endloop
endfacet
facet normal 0.0 0.0 1.0
  outer loop
    vertex 207.157995116305 -100.72292834888579 2.8999999999999946
    vertex 207.157995116305 -105.12292834888578 2.8999999999999946
    vertex 207.72739701553053 -100.79789153104984 2.8999999999999946
  endloop
endfacet
facet normal 0.0 0.0 1.0
  outer loop
    vertex 206.58859321707945 -105.04796516672172 2.8999999999999946
    vertex 207.157995116305 -105.12292834888578 2.8999999999999946
    vertex 207.157995116305 -100.72292834888579 2.8999999999999946
  endloop
endfacet
facet normal 0.0 0.0 1.0
  outer loop
    vertex 206.58859321707945 -100.79789153104984 2.8999999999999946
    vertex 206.58859321707945 -105.04796516672172 2.8999999999999946
    vertex 207.157995116305 -100.72292834888579 2.8999999999999946
  endloop
endfacet
facet normal 0.0 0.0 1.0
  outer loop
    vertex 206.05799511630497 -104.82818423721154 2.8999999999999946
    vertex 206.58859321707945 -105.04796516672172 2.8999999999999946
    vertex 206.58859321707945 -100.79789153104984 2.8999999999999946
  endloop
endfacet
facet normal 0.0 0.0 1.0
  outer loop
    vertex 206.05799511630497 -101.01767246056002 2.8999999999999946
    vertex 206.05799511630497 -104.82818423721154 2.8999999999999946
    vertex 206.58859321707945 -100.79789153104984 2.8999999999999946
  endloop
endfacet
facet normal 0.0 0.0 1.0
  outer loop
    vertex 205.6023601976946 -104.4785632674962 2.8999999999999946
    vertex 206.05799511630497 -104.82818423721154 2.8999999999999946
    vertex 206.05799511630497 -101.01767246056002 2.8999999999999946
  endloop
endfacet
facet normal 0.0 0.0 1.0
  outer loop
    vertex 205.6023601976946 -101.3672934302754 2.8999999999999946
    vertex 205.6023601976946 -104.4785632674962 2.8999999999999946
    vertex 206.05799511630497 -101.01767246056002 2.8999999999999946
  endloop
endfacet
facet normal 0.0 0.0 1.0
  outer loop
    vertex 205.25273922797922 -104.02292834888578 2.8999999999999946
    vertex 205.6023601976946 -104.4785632674962 2.8999999999999946
    vertex 205.6023601976946 -101.3672934302754 2.8999999999999946
  endloop
endfacet
facet normal 0.0 0.0 1.0
  outer loop
    vertex 205.25273922797922 -101.82292834888578 2.8999999999999946
    vertex 205.25273922797922 -104.02292834888578 2.8999999999999946
    vertex 205.6023601976946 -101.3672934302754 2.8999999999999946
  endloop
endfacet
facet normal 0.0 0.0 1.0
  outer loop
    vertex 205.03295829846903 -103.49233024811134 2.8999999999999946
    vertex 205.25273922797922 -104.02292834888578 2.8999999999999946
    vertex 205.25273922797922 -101.82292834888578 2.8999999999999946
  endloop
endfacet
facet normal 0.0 0.0 1.0
  outer loop
    vertex 205.03295829846903 -102.35352644966024 2.8999999999999946
    vertex 205.03295829846903 -103.49233024811134 2.8999999999999946
    vertex 205.25273922797922 -101.82292834888578 2.8999999999999946
  endloop
endfacet
facet normal 0.0 0.0 1.0
  outer loop
    vertex 204.957995116305 -102.92292834888579 2.8999999999999946
    vertex 205.03295829846903 -103.49233024811134 2.8999999999999946
    vertex 205.03295829846903 -102.35352644966024 2.8999999999999946
  endloop
endfacet
facet normal -0.9914448613738099 -0.13052619222005604 0.0
  outer loop
    vertex 209.35799511630498 -102.92292834888579 2.8999999999999946
    vertex 209.35799511630498 -102.92292834888579 4.999999999999995
    vertex 209.2830319341409 -102.35352644966024 2.8999999999999946
  endloop
endfacet
facet normal -0.9914448613738099 -0.13052619222005604 0.0
  outer loop
    vertex 209.2830319341409 -102.35352644966024 4.999999999999995
    vertex 209.2830319341409 -102.35352644966024 2.8999999999999946
    vertex 209.35799511630498 -102.92292834888579 4.999999999999995
  endloop
endfacet
facet normal -0.9238795325112851 -0.382683432365094 0.0
  outer loop
    vertex 209.2830319341409 -102.35352644966024 2.8999999999999946
    vertex 209.2830319341409 -102.35352644966024 4.999999999999995
    vertex 209.06325100463076 -101.82292834888578 2.8999999999999946
  endloop
endfacet
facet normal -0.9238795325112851 -0.382683432365094 0.0
  outer loop
    vertex 209.06325100463076 -101.82292834888578 4.999999999999995
    vertex 209.06325100463076 -101.82292834888578 2.8999999999999946
    vertex 209.2830319341409 -102.35352644966024 4.999999999999995
  endloop
endfacet
facet normal -0.9238795325112851 0.382683432365094 0.0
  outer loop
    vertex 209.06325100463076 -104.02292834888578 2.8999999999999946
    vertex 209.06325100463076 -104.02292834888578 4.999999999999995
    vertex 209.2830319341409 -103.49233024811134 2.8999999999999946
  endloop
endfacet
facet normal -0.9238795325112851 0.382683432365094 0.0
  outer loop
    vertex 209.2830319341409 -103.49233024811134 4.999999999999995
    vertex 209.2830319341409 -103.49233024811134 2.8999999999999946
    vertex 209.06325100463076 -104.02292834888578 4.999999999999995
  endloop
endfacet
endsolid ABC
