solid ABC
facet normal 0.0 0.0 -1.0
  outer loop
    vertex 250.310917260737 -103.50723445200725 0.0
    vertex 250.1752796441283 -102.47797855776646 0.0
    vertex 250.6087895944158 -86.2519156939 0.0
  endloop
endfacet
facet normal 0.0 0.0 -1.0
  outer loop
    vertex 247.6087896623651 -86.9114901470459 0.0
    vertex 250.6087895944158 -86.2519156939 0.0
    vertex 250.1752796441283 -102.47797855776646 0.0
  endloop
endfacet
facet normal 0.0 0.0 -1.0
  outer loop
    vertex 248.94921516391963 -95.3370218711032 0.0
    vertex 247.6087896623651 -86.9114901470459 0.0
    vertex 250.1752796441283 -102.47797855776646 0.0
  endloop
endfacet
facet normal 0.0 0.0 -1.0
  outer loop
    vertex 249.76836408153633 -101.68808555704034 0.0
    vertex 248.94921516391963 -95.3370218711032 0.0
    vertex 250.1752796441283 -102.47797855776646 0.0
  endloop
endfacet
facet normal 0.0 0.0 -1.0
  outer loop
    vertex 249.12740714126662 -101.18542515619144 0.0
    vertex 248.94921516391963 -95.3370218711032 0.0
    vertex 249.76836408153633 -101.68808555704034 0.0
  endloop
endfacet
facet normal 0.0 0.0 -1.0
  outer loop
    vertex 248.27900241314236 -93.37957510692829 0.0
    vertex 247.6087896623651 -86.9114901470459 0.0
    vertex 248.94921516391963 -95.3370218711032 0.0
  endloop
endfacet
facet normal 0.0 0.0 -1.0
  outer loop
    vertex 246.75772585185425 -91.16680919960011 0.0
    vertex 247.6087896623651 -86.9114901470459 0.0
    vertex 248.27900241314236 -93.37957510692829 0.0
  endloop
endfacet
facet normal 0.0 0.0 -1.0
  outer loop
    vertex 245.71517268397847 -87.78383055281951 0.0
    vertex 247.6087896623651 -86.9114901470459 0.0
    vertex 246.75772585185425 -91.16680919960011 0.0
  endloop
endfacet
facet normal 0.0 0.0 -1.0
  outer loop
    vertex 245.1938961000406 -89.34766030463318 0.0
    vertex 245.71517268397847 -87.78383055281951 0.0
    vertex 246.75772585185425 -91.16680919960011 0.0
  endloop
endfacet
facet normal 0.0 0.0 -1.0
  outer loop
    vertex 244.9492152545187 -88.69872414911868 0.0
    vertex 245.71517268397847 -87.78383055281951 0.0
    vertex 245.1938961000406 -89.34766030463318 0.0
  endloop
endfacet
facet normal 0.0 0.0 -1.0
  outer loop
    vertex 249.12740714126662 -101.18542515619144 0.0
    vertex 248.28964071077374 -101.01787280626306 0.0
    vertex 248.94921516391963 -95.3370218711032 0.0
  endloop
endfacet
facet normal 0.0 0.0 -1.0
  outer loop
    vertex 248.7577258065547 -95.87957505030387 0.0
    vertex 248.94921516391963 -95.3370218711032 0.0
    vertex 248.28964071077374 -101.01787280626306 0.0
  endloop
endfacet
facet normal 0.0 0.0 -1.0
  outer loop
    vertex 248.28964071077374 -96.10297930056296 0.0
    vertex 248.7577258065547 -95.87957505030387 0.0
    vertex 248.28964071077374 -101.01787280626306 0.0
  endloop
endfacet
facet normal 0.0 0.0 -1.0
  outer loop
    vertex 246.75772585185425 -95.634894204782 0.0
    vertex 248.28964071077374 -96.10297930056296 0.0
    vertex 248.28964071077374 -101.01787280626306 0.0
  endloop
endfacet
facet normal 0.0 0.0 -1.0
  outer loop
    vertex 246.75772585185425 -101.59234087835787 0.0
    vertex 246.75772585185425 -95.634894204782 0.0
    vertex 248.28964071077374 -101.01787280626306 0.0
  endloop
endfacet
facet normal 0.0 0.0 -1.0
  outer loop
    vertex 243.43857699086197 -94.99659634689887 0.0
    vertex 246.75772585185425 -95.634894204782 0.0
    vertex 246.75772585185425 -101.59234087835787 0.0
  endloop
endfacet
facet normal 0.0 0.0 -1.0
  outer loop
    vertex 245.91198084441442 -102.53648879580294 0.0
    vertex 243.43857699086197 -94.99659634689887 0.0
    vertex 246.75772585185425 -101.59234087835787 0.0
  endloop
endfacet
facet normal 0.0 0.0 -1.0
  outer loop
    vertex 245.20453439767195 -103.87957486910575 0.0
    vertex 243.43857699086197 -94.99659634689887 0.0
    vertex 245.91198084441442 -102.53648879580294 0.0
  endloop
endfacet
facet normal 0.0 0.0 -1.0
  outer loop
    vertex 244.56623653978886 -106.84765990826229 0.0
    vertex 243.43857699086197 -94.99659634689887 0.0
    vertex 245.20453439767195 -103.87957486910575 0.0
  endloop
endfacet
facet normal 0.0 0.0 -1.0
  outer loop
    vertex 244.37074991190272 -114.17346011799953 0.0
    vertex 243.43857699086197 -94.99659634689887 0.0
    vertex 244.56623653978886 -106.84765990826229 0.0
  endloop
endfacet
facet normal 0.0 0.0 -1.0
  outer loop
    vertex 241.61410477154755 -113.17213452565274 0.0
    vertex 243.43857699086197 -94.99659634689887 0.0
    vertex 244.37074991190272 -114.17346011799953 0.0
  endloop
endfacet
facet normal 0.0 0.0 -1.0
  outer loop
    vertex 240.88006579881164 -95.42212612449477 0.0
    vertex 243.43857699086197 -94.99659634689887 0.0
    vertex 241.61410477154755 -113.17213452565274 0.0
  endloop
endfacet
facet normal 0.0 0.0 -1.0
  outer loop
    vertex 239.27501490099013 -111.5032524191706 0.0
    vertex 240.88006579881164 -95.42212612449477 0.0
    vertex 241.61410477154755 -113.17213452565274 0.0
  endloop
endfacet
facet normal 0.0 0.0 -1.0
  outer loop
    vertex 238.56623667568743 -96.69872396792056 0.0
    vertex 240.88006579881164 -95.42212612449477 0.0
    vertex 239.27501490099013 -111.5032524191706 0.0
  endloop
endfacet
facet normal 0.0 0.0 -1.0
  outer loop
    vertex 237.35347074570944 -109.16680879190432 0.0
    vertex 238.56623667568743 -96.69872396792056 0.0
    vertex 239.27501490099013 -111.5032524191706 0.0
  endloop
endfacet
facet normal 0.0 0.0 -1.0
  outer loop
    vertex 237.2164983252746 -97.99127860619768 0.0
    vertex 238.56623667568743 -96.69872396792056 0.0
    vertex 237.35347074570944 -109.16680879190432 0.0
  endloop
endfacet
facet normal 0.0 0.0 -1.0
  outer loop
    vertex 235.9492131179411 -106.18808577426533 0.0
    vertex 237.2164983252746 -97.99127860619768 0.0
    vertex 237.35347074570944 -109.16680879190432 0.0
  endloop
endfacet
facet normal 0.0 0.0 -1.0
  outer loop
    vertex 236.25240308447817 -99.48595592606699 0.0
    vertex 237.2164983252746 -97.99127860619768 0.0
    vertex 235.9492131179411 -106.18808577426533 0.0
  endloop
endfacet
facet normal 0.0 0.0 -1.0
  outer loop
    vertex 235.67394806101092 -101.1827619115709 0.0
    vertex 236.25240308447817 -99.48595592606699 0.0
    vertex 235.9492131179411 -106.18808577426533 0.0
  endloop
endfacet
facet normal 0.0 0.0 -1.0
  outer loop
    vertex 235.48113036258562 -103.08170254675183 0.0
    vertex 235.67394806101092 -101.1827619115709 0.0
    vertex 235.9492131179411 -106.18808577426533 0.0
  endloop
endfacet
facet normal 0.0 0.0 -1.0
  outer loop
    vertex 260.43857660581597 -102.14553235518993 0.0
    vertex 260.22049259479803 -104.43808552134924 0.0
    vertex 260.1686318280206 -99.43808068114072 0.0
  endloop
endfacet
facet normal 0.0 0.0 -1.0
  outer loop
    vertex 259.5662362000424 -106.72000033668567 0.0
    vertex 260.1686318280206 -99.43808068114072 0.0
    vertex 260.22049259479803 -104.43808552134924 0.0
  endloop
endfacet
facet normal 0.0 0.0 -1.0
  outer loop
    vertex 259.3587947951664 -96.69872428706948 0.0
    vertex 260.1686318280206 -99.43808068114072 0.0
    vertex 259.5662362000424 -106.72000033668567 0.0
  endloop
endfacet
facet normal 0.0 0.0 -1.0
  outer loop
    vertex 258.3055990211487 -109.23063974790539 0.0
    vertex 259.3587947951664 -96.69872428706948 0.0
    vertex 259.5662362000424 -106.72000033668567 0.0
  endloop
endfacet
facet normal 0.0 0.0 -1.0
  outer loop
    vertex 258.00906145805135 -93.92745284052961 0.0
    vertex 259.3587947951664 -96.69872428706948 0.0
    vertex 258.3055990211487 -109.23063974790539 0.0
  endloop
endfacet
facet normal 0.0 0.0 -1.0
  outer loop
    vertex 256.6087894585172 -111.27319172291867 0.0
    vertex 258.00906145805135 -93.92745284052961 0.0
    vertex 258.3055990211487 -109.23063974790539 0.0
  endloop
endfacet
facet normal 0.0 0.0 -1.0
  outer loop
    vertex 256.11942776747344 -91.12425600907456 0.0
    vertex 258.00906145805135 -93.92745284052961 0.0
    vertex 256.6087894585172 -111.27319172291867 0.0
  endloop
endfacet
facet normal 0.0 0.0 -1.0
  outer loop
    vertex 254.74974473333688 -112.68808985576516 0.0
    vertex 256.11942776747344 -91.12425600907456 0.0
    vertex 256.6087894585172 -111.27319172291867 0.0
  endloop
endfacet
facet normal 0.0 0.0 -1.0
  outer loop
    vertex 252.83219379937537 -87.3582986475641 0.0
    vertex 256.11942776747344 -91.12425600907456 0.0
    vertex 254.74974473333688 -112.68808985576516 0.0
  endloop
endfacet
facet normal 0.0 0.0 -1.0
  outer loop
    vertex 252.61943055951355 -113.69872762542764 0.0
    vertex 252.83219379937537 -87.3582986475641 0.0
    vertex 254.74974473333688 -112.68808985576516 0.0
  endloop
endfacet
facet normal 0.0 0.0 -1.0
  outer loop
    vertex 251.6540020042526 -86.52851004933734 0.0
    vertex 252.83219379937537 -87.3582986475641 0.0
    vertex 252.61943055951355 -113.69872762542764 0.0
  endloop
endfacet
facet normal 0.0 0.0 -1.0
  outer loop
    vertex 250.21783843970692 -114.30510806382092 0.0
    vertex 251.6540020042526 -86.52851004933734 0.0
    vertex 252.61943055951355 -113.69872762542764 0.0
  endloop
endfacet
facet normal 0.0 0.0 -1.0
  outer loop
    vertex 250.6087895944158 -86.2519156939 0.0
    vertex 251.6540020042526 -86.52851004933734 0.0
    vertex 250.21783843970692 -114.30510806382092 0.0
  endloop
endfacet
facet normal 0.0 0.0 -1.0
  outer loop
    vertex 250.310917260737 -103.50723445200725 0.0
    vertex 250.6087895944158 -86.2519156939 0.0
    vertex 250.21783843970692 -114.30510806382092 0.0
  endloop
endfacet
facet normal 0.0 0.0 -1.0
  outer loop
    vertex 249.99708904976 -105.26521317548733 0.0
    vertex 250.310917260737 -103.50723445200725 0.0
    vertex 250.21783843970692 -114.30510806382092 0.0
  endloop
endfacet
facet normal 0.0 0.0 -1.0
  outer loop
    vertex 247.54495987657677 -114.50723420285982 0.0
    vertex 249.99708904976 -105.26521317548733 0.0
    vertex 250.21783843970692 -114.30510806382092 0.0
  endloop
endfacet
facet normal 0.0 0.0 -1.0
  outer loop
    vertex 249.0555981402335 -107.00723437273307 0.0
    vertex 249.99708904976 -105.26521317548733 0.0
    vertex 247.54495987657677 -114.50723420285982 0.0
  endloop
endfacet
facet normal 0.0 0.0 -1.0
  outer loop
    vertex 247.78964077529014 -108.30776842572308 0.0
    vertex 249.0555981402335 -107.00723437273307 0.0
    vertex 247.54495987657677 -114.50723420285982 0.0
  endloop
endfacet
facet normal 0.0 0.0 -1.0
  outer loop
    vertex 246.502406708701 -108.74127688664892 0.0
    vertex 247.78964077529014 -108.30776842572308 0.0
    vertex 247.54495987657677 -114.50723420285982 0.0
  endloop
endfacet
facet normal 0.0 0.0 -1.0
  outer loop
    vertex 244.37074991190272 -114.17346011799953 0.0
    vertex 246.502406708701 -108.74127688664892 0.0
    vertex 247.54495987657677 -114.50723420285982 0.0
  endloop
endfacet
facet normal 0.0 0.0 -1.0
  outer loop
    vertex 245.71517225844656 -108.61095839226016 0.0
    vertex 246.502406708701 -108.74127688664892 0.0
    vertex 244.37074991190272 -114.17346011799953 0.0
  endloop
endfacet
facet normal 0.0 0.0 -1.0
  outer loop
    vertex 245.0981514213581 -108.22000030271103 0.0
    vertex 245.71517225844656 -108.61095839226016 0.0
    vertex 244.37074991190272 -114.17346011799953 0.0
  endloop
endfacet
facet normal 0.0 0.0 -1.0
  outer loop
    vertex 244.69921459528751 -107.61627732436392 0.0
    vertex 245.0981514213581 -108.22000030271103 0.0
    vertex 244.37074991190272 -114.17346011799953 0.0
  endloop
endfacet
facet normal 0.0 0.0 -1.0
  outer loop
    vertex 244.56623653978886 -106.84765990826229 0.0
    vertex 244.69921459528751 -107.61627732436392 0.0
    vertex 244.37074991190272 -114.17346011799953 0.0
  endloop
endfacet
facet normal 0.0 0.0 1.0
  outer loop
    vertex 252.83219379937537 -87.3582986475641 5.0
    vertex 255.30038922889653 -98.29285026944186 4.999999999999995
    vertex 256.11942776747344 -91.12425600907456 5.0
  endloop
endfacet
facet normal 0.0 0.0 1.0
  outer loop
    vertex 255.37535241106056 -98.8622521686674 4.999999999999995
    vertex 256.11942776747344 -91.12425600907456 5.0
    vertex 255.30038922889653 -98.29285026944186 4.999999999999995
  endloop
endfacet
facet normal 0.0 0.0 1.0
  outer loop
    vertex 255.0806082993863 -97.7622521686674 4.999999999999995
    vertex 255.30038922889653 -98.29285026944186 4.999999999999995
    vertex 252.83219379937537 -87.3582986475641 5.0
  endloop
endfacet
facet normal 0.0 0.0 1.0
  outer loop
    vertex 254.73098732967097 -97.30661725005699 4.999999999999995
    vertex 255.0806082993863 -97.7622521686674 4.999999999999995
    vertex 252.83219379937537 -87.3582986475641 5.0
  endloop
endfacet
facet normal 0.0 0.0 1.0
  outer loop
    vertex 254.27535241106054 -96.95699628034164 4.999999999999995
    vertex 254.73098732967097 -97.30661725005699 4.999999999999995
    vertex 252.83219379937537 -87.3582986475641 5.0
  endloop
endfacet
facet normal 0.0 0.0 1.0
  outer loop
    vertex 253.7447543102861 -96.73721535083146 4.999999999999995
    vertex 254.27535241106054 -96.95699628034164 4.999999999999995
    vertex 252.83219379937537 -87.3582986475641 5.0
  endloop
endfacet
facet normal 0.0 0.0 1.0
  outer loop
    vertex 253.17535241106057 -96.66225216866741 4.999999999999995
    vertex 253.7447543102861 -96.73721535083146 4.999999999999995
    vertex 252.83219379937537 -87.3582986475641 5.0
  endloop
endfacet
facet normal 0.0 0.0 1.0
  outer loop
    vertex 252.60595051183503 -96.73721535083146 4.999999999999995
    vertex 253.17535241106057 -96.66225216866741 4.999999999999995
    vertex 252.83219379937537 -87.3582986475641 5.0
  endloop
endfacet
facet normal 0.0 0.0 1.0
  outer loop
    vertex 251.6540020042526 -86.52851004933734 5.0
    vertex 252.60595051183503 -96.73721535083146 4.999999999999995
    vertex 252.83219379937537 -87.3582986475641 5.0
  endloop
endfacet
facet normal 0.0 0.0 1.0
  outer loop
    vertex 252.0753524110606 -96.95699628034164 4.999999999999995
    vertex 252.60595051183503 -96.73721535083146 4.999999999999995
    vertex 251.6540020042526 -86.52851004933734 5.0
  endloop
endfacet
facet normal 0.0 0.0 1.0
  outer loop
    vertex 251.61971749245018 -97.30661725005702 4.999999999999995
    vertex 252.0753524110606 -96.95699628034164 4.999999999999995
    vertex 251.6540020042526 -86.52851004933734 5.0
  endloop
endfacet
facet normal 0.0 0.0 1.0
  outer loop
    vertex 250.6087895944158 -86.2519156939 5.0
    vertex 251.61971749245018 -97.30661725005702 4.999999999999995
    vertex 251.6540020042526 -86.52851004933734 5.0
  endloop
endfacet
facet normal 0.0 0.0 1.0
  outer loop
    vertex 251.2700965227348 -97.7622521686674 4.999999999999995
    vertex 251.61971749245018 -97.30661725005702 4.999999999999995
    vertex 250.6087895944158 -86.2519156939 5.0
  endloop
endfacet
facet normal 0.0 0.0 1.0
  outer loop
    vertex 251.0503155932246 -98.29285026944186 4.999999999999995
    vertex 251.2700965227348 -97.7622521686674 4.999999999999995
    vertex 250.6087895944158 -86.2519156939 5.0
  endloop
endfacet
facet normal 0.0 0.0 1.0
  outer loop
    vertex 250.97535241106058 -98.8622521686674 4.999999999999995
    vertex 251.0503155932246 -98.29285026944186 4.999999999999995
    vertex 250.6087895944158 -86.2519156939 5.0
  endloop
endfacet
facet normal 0.0 0.0 1.0
  outer loop
    vertex 260.43857660581597 -102.14553235518993 5.0
    vertex 260.1686318280206 -99.43808068114072 5.0
    vertex 260.22049259479803 -104.43808552134924 5.0
  endloop
endfacet
facet normal 0.0 0.0 1.0
  outer loop
    vertex 259.5662362000424 -106.72000033668567 5.0
    vertex 260.22049259479803 -104.43808552134924 5.0
    vertex 260.1686318280206 -99.43808068114072 5.0
  endloop
endfacet
facet normal 0.0 0.0 1.0
  outer loop
    vertex 259.3587947951664 -96.69872428706948 5.0
    vertex 259.5662362000424 -106.72000033668567 5.0
    vertex 260.1686318280206 -99.43808068114072 5.0
  endloop
endfacet
facet normal 0.0 0.0 1.0
  outer loop
    vertex 258.3055990211487 -109.23063974790539 5.0
    vertex 259.5662362000424 -106.72000033668567 5.0
    vertex 259.3587947951664 -96.69872428706948 5.0
  endloop
endfacet
facet normal 0.0 0.0 1.0
  outer loop
    vertex 258.00906145805135 -93.92745284052961 5.0
    vertex 258.3055990211487 -109.23063974790539 5.0
    vertex 259.3587947951664 -96.69872428706948 5.0
  endloop
endfacet
facet normal 0.0 0.0 1.0
  outer loop
    vertex 256.6087894585172 -111.27319172291867 5.0
    vertex 258.3055990211487 -109.23063974790539 5.0
    vertex 258.00906145805135 -93.92745284052961 5.0
  endloop
endfacet
facet normal 0.0 0.0 1.0
  outer loop
    vertex 256.11942776747344 -91.12425600907456 5.0
    vertex 256.6087894585172 -111.27319172291867 5.0
    vertex 258.00906145805135 -93.92745284052961 5.0
  endloop
endfacet
facet normal 0.0 0.0 1.0
  outer loop
    vertex 254.74974473333688 -112.68808985576516 5.0
    vertex 256.6087894585172 -111.27319172291867 5.0
    vertex 256.11942776747344 -91.12425600907456 5.0
  endloop
endfacet
facet normal 0.0 0.0 1.0
  outer loop
    vertex 255.37535241106056 -98.8622521686674 4.999999999999995
    vertex 254.74974473333688 -112.68808985576516 5.0
    vertex 256.11942776747344 -91.12425600907456 5.0
  endloop
endfacet
facet normal 0.0 0.0 1.0
  outer loop
    vertex 255.30038922889653 -99.43165406789295 4.999999999999995
    vertex 254.74974473333688 -112.68808985576516 5.0
    vertex 255.37535241106056 -98.8622521686674 4.999999999999995
  endloop
endfacet
facet normal 0.0 0.0 1.0
  outer loop
    vertex 255.0806082993863 -99.9622521686674 4.999999999999995
    vertex 254.74974473333688 -112.68808985576516 5.0
    vertex 255.30038922889653 -99.43165406789295 4.999999999999995
  endloop
endfacet
facet normal 0.0 0.0 1.0
  outer loop
    vertex 254.73098732967097 -100.41788708727779 4.999999999999995
    vertex 254.74974473333688 -112.68808985576516 5.0
    vertex 255.0806082993863 -99.9622521686674 4.999999999999995
  endloop
endfacet
facet normal 0.0 0.0 1.0
  outer loop
    vertex 252.61943055951355 -113.69872762542764 5.0
    vertex 254.74974473333688 -112.68808985576516 5.0
    vertex 254.73098732967097 -100.41788708727779 4.999999999999995
  endloop
endfacet
facet normal 0.0 0.0 1.0
  outer loop
    vertex 254.27535241106054 -100.76750805699317 4.999999999999995
    vertex 252.61943055951355 -113.69872762542764 5.0
    vertex 254.73098732967097 -100.41788708727779 4.999999999999995
  endloop
endfacet
facet normal 0.0 0.0 1.0
  outer loop
    vertex 253.7447543102861 -100.98728898650334 4.999999999999995
    vertex 252.61943055951355 -113.69872762542764 5.0
    vertex 254.27535241106054 -100.76750805699317 4.999999999999995
  endloop
endfacet
facet normal 0.0 0.0 1.0
  outer loop
    vertex 253.17535241106057 -101.0622521686674 4.999999999999995
    vertex 252.61943055951355 -113.69872762542764 5.0
    vertex 253.7447543102861 -100.98728898650334 4.999999999999995
  endloop
endfacet
facet normal 0.0 0.0 1.0
  outer loop
    vertex 252.60595051183503 -100.98728898650334 4.999999999999995
    vertex 252.61943055951355 -113.69872762542764 5.0
    vertex 253.17535241106057 -101.0622521686674 4.999999999999995
  endloop
endfacet
facet normal 0.0 0.0 1.0
  outer loop
    vertex 250.21783843970692 -114.30510806382092 5.0
    vertex 252.61943055951355 -113.69872762542764 5.0
    vertex 252.60595051183503 -100.98728898650334 4.999999999999995
  endloop
endfacet
facet normal 0.0 0.0 1.0
  outer loop
    vertex 252.0753524110606 -100.76750805699317 4.999999999999995
    vertex 250.21783843970692 -114.30510806382092 5.0
    vertex 252.60595051183503 -100.98728898650334 4.999999999999995
  endloop
endfacet
facet normal 0.0 0.0 1.0
  outer loop
    vertex 251.61971749245018 -100.41788708727782 4.999999999999995
    vertex 250.21783843970692 -114.30510806382092 5.0
    vertex 252.0753524110606 -100.76750805699317 4.999999999999995
  endloop
endfacet
facet normal 0.0 0.0 1.0
  outer loop
    vertex 251.27009652273483 -99.9622521686674 4.999999999999995
    vertex 250.21783843970692 -114.30510806382092 5.0
    vertex 251.61971749245018 -100.41788708727782 4.999999999999995
  endloop
endfacet
facet normal 0.0 0.0 1.0
  outer loop
    vertex 251.0503155932246 -99.43165406789295 4.999999999999995
    vertex 250.21783843970692 -114.30510806382092 5.0
    vertex 251.27009652273483 -99.9622521686674 4.999999999999995
  endloop
endfacet
facet normal 0.0 0.0 1.0
  outer loop
    vertex 250.97535241106058 -98.8622521686674 4.999999999999995
    vertex 250.21783843970692 -114.30510806382092 5.0
    vertex 251.0503155932246 -99.43165406789295 4.999999999999995
  endloop
endfacet
facet normal 0.0 0.0 1.0
  outer loop
    vertex 250.6087895944158 -86.2519156939 5.0
    vertex 250.21783843970692 -114.30510806382092 5.0
    vertex 250.97535241106058 -98.8622521686674 4.999999999999995
  endloop
endfacet
facet normal 0.0 0.0 1.0
  outer loop
    vertex 250.310917260737 -103.50723445200725 5.0
    vertex 250.21783843970692 -114.30510806382092 5.0
    vertex 250.6087895944158 -86.2519156939 5.0
  endloop
endfacet
facet normal 0.0 0.0 1.0
  outer loop
    vertex 249.99708904976 -105.26521317548733 5.0
    vertex 250.21783843970692 -114.30510806382092 5.0
    vertex 250.310917260737 -103.50723445200725 5.0
  endloop
endfacet
facet normal 0.0 0.0 1.0
  outer loop
    vertex 247.54495987657677 -114.50723420285982 5.0
    vertex 250.21783843970692 -114.30510806382092 5.0
    vertex 249.99708904976 -105.26521317548733 5.0
  endloop
endfacet
facet normal 0.0 0.0 1.0
  outer loop
    vertex 249.0555981402335 -107.00723437273307 5.0
    vertex 247.54495987657677 -114.50723420285982 5.0
    vertex 249.99708904976 -105.26521317548733 5.0
  endloop
endfacet
facet normal 0.0 0.0 1.0
  outer loop
    vertex 247.78964077529014 -108.30776842572308 5.0
    vertex 247.54495987657677 -114.50723420285982 5.0
    vertex 249.0555981402335 -107.00723437273307 5.0
  endloop
endfacet
facet normal 0.0 0.0 1.0
  outer loop
    vertex 246.502406708701 -108.74127688664892 5.0
    vertex 247.54495987657677 -114.50723420285982 5.0
    vertex 247.78964077529014 -108.30776842572308 5.0
  endloop
endfacet
facet normal 0.0 0.0 1.0
  outer loop
    vertex 244.37074991190272 -114.17346011799953 5.0
    vertex 247.54495987657677 -114.50723420285982 5.0
    vertex 246.502406708701 -108.74127688664892 5.0
  endloop
endfacet
facet normal 0.0 0.0 1.0
  outer loop
    vertex 245.71517225844656 -108.61095839226016 5.0
    vertex 244.37074991190272 -114.17346011799953 5.0
    vertex 246.502406708701 -108.74127688664892 5.0
  endloop
endfacet
facet normal 0.0 0.0 1.0
  outer loop
    vertex 245.0981514213581 -108.22000030271103 5.0
    vertex 244.37074991190272 -114.17346011799953 5.0
    vertex 245.71517225844656 -108.61095839226016 5.0
  endloop
endfacet
facet normal 0.0 0.0 1.0
  outer loop
    vertex 244.69921459528751 -107.61627732436392 5.0
    vertex 244.37074991190272 -114.17346011799953 5.0
    vertex 245.0981514213581 -108.22000030271103 5.0
  endloop
endfacet
facet normal 0.0 0.0 1.0
  outer loop
    vertex 244.56623653978886 -106.84765990826229 5.0
    vertex 244.37074991190272 -114.17346011799953 5.0
    vertex 244.69921459528751 -107.61627732436392 5.0
  endloop
endfacet
facet normal 0.0 0.0 1.0
  outer loop
    vertex 249.12740714126662 -101.18542515619144 5.0
    vertex 248.94921516391963 -95.3370218711032 5.0
    vertex 248.28964071077374 -101.01787280626306 5.0
  endloop
endfacet
facet normal 0.0 0.0 1.0
  outer loop
    vertex 248.7577258065547 -95.87957505030387 5.0
    vertex 248.28964071077374 -101.01787280626306 5.0
    vertex 248.94921516391963 -95.3370218711032 5.0
  endloop
endfacet
facet normal 0.0 0.0 1.0
  outer loop
    vertex 248.28964071077374 -96.10297930056296 5.0
    vertex 248.28964071077374 -101.01787280626306 5.0
    vertex 248.7577258065547 -95.87957505030387 5.0
  endloop
endfacet
facet normal 0.0 0.0 1.0
  outer loop
    vertex 246.75772585185425 -101.59234087835787 5.0
    vertex 248.28964071077374 -101.01787280626306 5.0
    vertex 248.28964071077374 -96.10297930056296 5.0
  endloop
endfacet
facet normal 0.0 0.0 1.0
  outer loop
    vertex 246.75772585185425 -95.634894204782 5.0
    vertex 246.75772585185425 -101.59234087835787 5.0
    vertex 248.28964071077374 -96.10297930056296 5.0
  endloop
endfacet
facet normal 0.0 0.0 1.0
  outer loop
    vertex 245.91198084441442 -102.53648879580294 5.0
    vertex 246.75772585185425 -101.59234087835787 5.0
    vertex 246.75772585185425 -95.634894204782 5.0
  endloop
endfacet
facet normal 0.0 0.0 1.0
  outer loop
    vertex 243.43857699086197 -94.99659634689887 5.0
    vertex 245.91198084441442 -102.53648879580294 5.0
    vertex 246.75772585185425 -95.634894204782 5.0
  endloop
endfacet
facet normal 0.0 0.0 1.0
  outer loop
    vertex 245.20453439767195 -103.87957486910575 5.0
    vertex 245.91198084441442 -102.53648879580294 5.0
    vertex 243.43857699086197 -94.99659634689887 5.0
  endloop
endfacet
facet normal 0.0 0.0 1.0
  outer loop
    vertex 244.56623653978886 -106.84765990826229 5.0
    vertex 245.20453439767195 -103.87957486910575 5.0
    vertex 243.43857699086197 -94.99659634689887 5.0
  endloop
endfacet
facet normal 0.0 0.0 1.0
  outer loop
    vertex 244.37074991190272 -114.17346011799953 5.0
    vertex 244.56623653978886 -106.84765990826229 5.0
    vertex 243.43857699086197 -94.99659634689887 5.0
  endloop
endfacet
facet normal 0.0 0.0 1.0
  outer loop
    vertex 241.61410477154755 -113.17213452565274 5.0
    vertex 244.37074991190272 -114.17346011799953 5.0
    vertex 243.43857699086197 -94.99659634689887 5.0
  endloop
endfacet
facet normal 0.0 0.0 1.0
  outer loop
    vertex 240.88006579881164 -95.42212612449477 5.0
    vertex 241.61410477154755 -113.17213452565274 5.0
    vertex 243.43857699086197 -94.99659634689887 5.0
  endloop
endfacet
facet normal 0.0 0.0 1.0
  outer loop
    vertex 239.27501490099013 -111.5032524191706 5.0
    vertex 241.61410477154755 -113.17213452565274 5.0
    vertex 240.88006579881164 -95.42212612449477 5.0
  endloop
endfacet
facet normal 0.0 0.0 1.0
  outer loop
    vertex 238.56623667568743 -96.69872396792056 5.0
    vertex 239.27501490099013 -111.5032524191706 5.0
    vertex 240.88006579881164 -95.42212612449477 5.0
  endloop
endfacet
facet normal 0.0 0.0 1.0
  outer loop
    vertex 237.35347074570944 -109.16680879190432 5.0
    vertex 239.27501490099013 -111.5032524191706 5.0
    vertex 238.56623667568743 -96.69872396792056 5.0
  endloop
endfacet
facet normal 0.0 0.0 1.0
  outer loop
    vertex 237.2164983252746 -97.99127860619768 5.0
    vertex 237.35347074570944 -109.16680879190432 5.0
    vertex 238.56623667568743 -96.69872396792056 5.0
  endloop
endfacet
facet normal 0.0 0.0 1.0
  outer loop
    vertex 235.9492131179411 -106.18808577426533 5.0
    vertex 237.35347074570944 -109.16680879190432 5.0
    vertex 237.2164983252746 -97.99127860619768 5.0
  endloop
endfacet
facet normal 0.0 0.0 1.0
  outer loop
    vertex 236.25240308447817 -99.48595592606699 5.0
    vertex 235.9492131179411 -106.18808577426533 5.0
    vertex 237.2164983252746 -97.99127860619768 5.0
  endloop
endfacet
facet normal 0.0 0.0 1.0
  outer loop
    vertex 235.67394806101092 -101.1827619115709 5.0
    vertex 235.9492131179411 -106.18808577426533 5.0
    vertex 236.25240308447817 -99.48595592606699 5.0
  endloop
endfacet
facet normal 0.0 0.0 1.0
  outer loop
    vertex 235.48113036258562 -103.08170254675183 5.0
    vertex 235.9492131179411 -106.18808577426533 5.0
    vertex 235.67394806101092 -101.1827619115709 5.0
  endloop
endfacet
facet normal 0.0 0.0 1.0
  outer loop
    vertex 247.6087896623651 -86.9114901470459 5.0
    vertex 250.1752796441283 -102.47797855776646 5.0
    vertex 250.6087895944158 -86.2519156939 5.0
  endloop
endfacet
facet normal 0.0 0.0 1.0
  outer loop
    vertex 250.310917260737 -103.50723445200725 5.0
    vertex 250.6087895944158 -86.2519156939 5.0
    vertex 250.1752796441283 -102.47797855776646 5.0
  endloop
endfacet
facet normal 0.0 0.0 1.0
  outer loop
    vertex 248.94921516391963 -95.3370218711032 5.0
    vertex 250.1752796441283 -102.47797855776646 5.0
    vertex 247.6087896623651 -86.9114901470459 5.0
  endloop
endfacet
facet normal 0.0 0.0 1.0
  outer loop
    vertex 249.76836408153633 -101.68808555704034 5.0
    vertex 250.1752796441283 -102.47797855776646 5.0
    vertex 248.94921516391963 -95.3370218711032 5.0
  endloop
endfacet
facet normal 0.0 0.0 1.0
  outer loop
    vertex 249.12740714126662 -101.18542515619144 5.0
    vertex 249.76836408153633 -101.68808555704034 5.0
    vertex 248.94921516391963 -95.3370218711032 5.0
  endloop
endfacet
facet normal 0.0 0.0 1.0
  outer loop
    vertex 248.27900241314236 -93.37957510692829 5.0
    vertex 248.94921516391963 -95.3370218711032 5.0
    vertex 247.6087896623651 -86.9114901470459 5.0
  endloop
endfacet
facet normal 0.0 0.0 1.0
  outer loop
    vertex 246.75772585185425 -91.16680919960011 5.0
    vertex 248.27900241314236 -93.37957510692829 5.0
    vertex 247.6087896623651 -86.9114901470459 5.0
  endloop
endfacet
facet normal 0.0 0.0 1.0
  outer loop
    vertex 245.71517268397847 -87.78383055281951 5.0
    vertex 246.75772585185425 -91.16680919960011 5.0
    vertex 247.6087896623651 -86.9114901470459 5.0
  endloop
endfacet
facet normal 0.0 0.0 1.0
  outer loop
    vertex 245.1938961000406 -89.34766030463318 5.0
    vertex 246.75772585185425 -91.16680919960011 5.0
    vertex 245.71517268397847 -87.78383055281951 5.0
  endloop
endfacet
facet normal 0.0 0.0 1.0
  outer loop
    vertex 244.9492152545187 -88.69872414911868 5.0
    vertex 245.1938961000406 -89.34766030463318 5.0
    vertex 245.71517268397847 -87.78383055281951 5.0
  endloop
endfacet
facet normal -0.21472964101727482 0.9766735284979278 0.0
  outer loop
    vertex 250.6087895944158 -86.2519156939 0.0
    vertex 247.6087896623651 -86.9114901470459 0.0
    vertex 250.6087895944158 -86.2519156939 5.0
  endloop
endfacet
facet normal -0.21472964101727482 0.9766735284979278 0.0
  outer loop
    vertex 247.6087896623651 -86.9114901470459 5.0
    vertex 250.6087895944158 -86.2519156939 5.0
    vertex 247.6087896623651 -86.9114901470459 0.0
  endloop
endfacet
facet normal -0.4184109155248793 0.9082578410174242 0.0
  outer loop
    vertex 247.6087896623651 -86.9114901470459 0.0
    vertex 245.71517268397847 -87.78383055281951 0.0
    vertex 247.6087896623651 -86.9114901470459 5.0
  endloop
endfacet
facet normal -0.4184109155248793 0.9082578410174242 0.0
  outer loop
    vertex 245.71517268397847 -87.78383055281951 5.0
    vertex 247.6087896623651 -86.9114901470459 5.0
    vertex 245.71517268397847 -87.78383055281951 0.0
  endloop
endfacet
facet normal -0.7667576729931053 0.6419366564593412 0.0
  outer loop
    vertex 244.9492152545187 -88.69872414911868 0.0
    vertex 244.9492152545187 -88.69872414911868 5.0
    vertex 245.71517268397847 -87.78383055281951 0.0
  endloop
endfacet
facet normal -0.7667576729931053 0.6419366564593412 0.0
  outer loop
    vertex 245.71517268397847 -87.78383055281951 5.0
    vertex 245.71517268397847 -87.78383055281951 0.0
    vertex 244.9492152545187 -88.69872414911868 5.0
  endloop
endfacet
facet normal -0.9356972863937918 -0.3528038948697911 0.0
  outer loop
    vertex 245.1938961000406 -89.34766030463318 0.0
    vertex 245.1938961000406 -89.34766030463318 5.0
    vertex 244.9492152545187 -88.69872414911868 0.0
  endloop
endfacet
facet normal -0.9356972863937918 -0.3528038948697911 0.0
  outer loop
    vertex 244.9492152545187 -88.69872414911868 5.0
    vertex 244.9492152545187 -88.69872414911868 0.0
    vertex 245.1938961000406 -89.34766030463318 5.0
  endloop
endfacet
facet normal -0.7583167199710232 -0.651886303132984 0.0
  outer loop
    vertex 246.75772585185425 -91.16680919960011 0.0
    vertex 246.75772585185425 -91.16680919960011 5.0
    vertex 245.1938961000406 -89.34766030463318 0.0
  endloop
endfacet
facet normal -0.7583167199710232 -0.651886303132984 0.0
  outer loop
    vertex 245.1938961000406 -89.34766030463318 5.0
    vertex 245.1938961000406 -89.34766030463318 0.0
    vertex 246.75772585185425 -91.16680919960011 5.0
  endloop
endfacet
facet normal -0.8240419241993675 -0.5665288228870653 0.0
  outer loop
    vertex 248.27900241314236 -93.37957510692829 0.0
    vertex 248.27900241314236 -93.37957510692829 5.0
    vertex 246.75772585185425 -91.16680919960011 0.0
  endloop
endfacet
facet normal -0.8240419241993675 -0.5665288228870653 0.0
  outer loop
    vertex 246.75772585185425 -91.16680919960011 5.0
    vertex 246.75772585185425 -91.16680919960011 0.0
    vertex 248.27900241314236 -93.37957510692829 5.0
  endloop
endfacet
facet normal -0.9460810739814718 -0.32392993293930883 0.0
  outer loop
    vertex 248.94921516391963 -95.3370218711032 0.0
    vertex 248.94921516391963 -95.3370218711032 5.0
    vertex 248.27900241314236 -93.37957510692829 0.0
  endloop
endfacet
facet normal -0.9460810739814718 -0.32392993293930883 0.0
  outer loop
    vertex 248.27900241314236 -93.37957510692829 5.0
    vertex 248.27900241314236 -93.37957510692829 0.0
    vertex 248.94921516391963 -95.3370218711032 5.0
  endloop
endfacet
facet normal -0.9429903335828893 0.33282011773513803 0.0
  outer loop
    vertex 248.7577258065547 -95.87957505030387 0.0
    vertex 248.7577258065547 -95.87957505030387 5.0
    vertex 248.94921516391963 -95.3370218711032 0.0
  endloop
endfacet
facet normal -0.9429903335828893 0.33282011773513803 0.0
  outer loop
    vertex 248.94921516391963 -95.3370218711032 5.0
    vertex 248.94921516391963 -95.3370218711032 0.0
    vertex 248.7577258065547 -95.87957505030387 5.0
  endloop
endfacet
facet normal -0.4307295862149352 0.9024810377836816 0.0
  outer loop
    vertex 248.7577258065547 -95.87957505030387 0.0
    vertex 248.28964071077374 -96.10297930056296 0.0
    vertex 248.7577258065547 -95.87957505030387 5.0
  endloop
endfacet
facet normal -0.4307295862149352 0.9024810377836816 0.0
  outer loop
    vertex 248.28964071077374 -96.10297930056296 5.0
    vertex 248.7577258065547 -95.87957505030387 5.0
    vertex 248.28964071077374 -96.10297930056296 0.0
  endloop
endfacet
facet normal 0.29221853559902006 0.9563515710513392 0.0
  outer loop
    vertex 248.28964071077374 -96.10297930056296 0.0
    vertex 246.75772585185425 -95.634894204782 0.0
    vertex 248.28964071077374 -96.10297930056296 5.0
  endloop
endfacet
facet normal 0.29221853559902006 0.9563515710513392 0.0
  outer loop
    vertex 246.75772585185425 -95.634894204782 5.0
    vertex 248.28964071077374 -96.10297930056296 5.0
    vertex 246.75772585185425 -95.634894204782 0.0
  endloop
endfacet
facet normal 0.1888473936501246 0.9820064469806473 0.0
  outer loop
    vertex 246.75772585185425 -95.634894204782 0.0
    vertex 243.43857699086197 -94.99659634689887 0.0
    vertex 246.75772585185425 -95.634894204782 5.0
  endloop
endfacet
facet normal 0.1888473936501246 0.9820064469806473 0.0
  outer loop
    vertex 243.43857699086197 -94.99659634689887 5.0
    vertex 246.75772585185425 -95.634894204782 5.0
    vertex 243.43857699086197 -94.99659634689887 0.0
  endloop
endfacet
facet normal -0.1640655744918477 0.9864494347236761 0.0
  outer loop
    vertex 243.43857699086197 -94.99659634689887 0.0
    vertex 240.88006579881164 -95.42212612449477 0.0
    vertex 243.43857699086197 -94.99659634689887 5.0
  endloop
endfacet
facet normal -0.1640655744918477 0.9864494347236761 0.0
  outer loop
    vertex 240.88006579881164 -95.42212612449477 5.0
    vertex 243.43857699086197 -94.99659634689887 5.0
    vertex 240.88006579881164 -95.42212612449477 0.0
  endloop
endfacet
facet normal -0.4830780580592686 0.8755772894620362 0.0
  outer loop
    vertex 240.88006579881164 -95.42212612449477 0.0
    vertex 238.56623667568743 -96.69872396792056 0.0
    vertex 240.88006579881164 -95.42212612449477 5.0
  endloop
endfacet
facet normal -0.4830780580592686 0.8755772894620362 0.0
  outer loop
    vertex 238.56623667568743 -96.69872396792056 5.0
    vertex 240.88006579881164 -95.42212612449477 5.0
    vertex 238.56623667568743 -96.69872396792056 0.0
  endloop
endfacet
facet normal -0.6916418375463261 0.7222406583373311 0.0
  outer loop
    vertex 238.56623667568743 -96.69872396792056 0.0
    vertex 237.2164983252746 -97.99127860619768 0.0
    vertex 238.56623667568743 -96.69872396792056 5.0
  endloop
endfacet
facet normal -0.6916418375463261 0.7222406583373311 0.0
  outer loop
    vertex 237.2164983252746 -97.99127860619768 5.0
    vertex 238.56623667568743 -96.69872396792056 5.0
    vertex 237.2164983252746 -97.99127860619768 0.0
  endloop
endfacet
facet normal -0.8403511230558172 0.5420424245193606 0.0
  outer loop
    vertex 236.25240308447817 -99.48595592606699 0.0
    vertex 236.25240308447817 -99.48595592606699 5.0
    vertex 237.2164983252746 -97.99127860619768 0.0
  endloop
endfacet
facet normal -0.8403511230558172 0.5420424245193606 0.0
  outer loop
    vertex 237.2164983252746 -97.99127860619768 5.0
    vertex 237.2164983252746 -97.99127860619768 0.0
    vertex 236.25240308447817 -99.48595592606699 5.0
  endloop
endfacet
facet normal -0.9465104543747614 0.32267314694483457 0.0
  outer loop
    vertex 235.67394806101092 -101.1827619115709 0.0
    vertex 235.67394806101092 -101.1827619115709 5.0
    vertex 236.25240308447817 -99.48595592606699 0.0
  endloop
endfacet
facet normal -0.9465104543747614 0.32267314694483457 0.0
  outer loop
    vertex 236.25240308447817 -99.48595592606699 5.0
    vertex 236.25240308447817 -99.48595592606699 0.0
    vertex 235.67394806101092 -101.1827619115709 5.0
  endloop
endfacet
facet normal -0.9948843772944678 0.10102017528889526 0.0
  outer loop
    vertex 235.48113036258562 -103.08170254675183 0.0
    vertex 235.48113036258562 -103.08170254675183 5.0
    vertex 235.67394806101092 -101.1827619115709 0.0
  endloop
endfacet
facet normal -0.9948843772944678 0.10102017528889526 0.0
  outer loop
    vertex 235.67394806101092 -101.1827619115709 5.0
    vertex 235.67394806101092 -101.1827619115709 0.0
    vertex 235.48113036258562 -103.08170254675183 5.0
  endloop
endfacet
facet normal -0.9888368857839732 -0.1490020580832818 0.0
  outer loop
    vertex 235.9492131179411 -106.18808577426533 0.0
    vertex 235.9492131179411 -106.18808577426533 5.0
    vertex 235.48113036258562 -103.08170254675183 0.0
  endloop
endfacet
facet normal -0.9888368857839732 -0.1490020580832818 0.0
  outer loop
    vertex 235.48113036258562 -103.08170254675183 5.0
    vertex 235.48113036258562 -103.08170254675183 0.0
    vertex 235.9492131179411 -106.18808577426533 5.0
  endloop
endfacet
facet normal -0.9045253512524871 -0.4264198505482184 0.0
  outer loop
    vertex 237.35347074570944 -109.16680879190432 0.0
    vertex 237.35347074570944 -109.16680879190432 5.0
    vertex 235.9492131179411 -106.18808577426533 0.0
  endloop
endfacet
facet normal -0.9045253512524871 -0.4264198505482184 0.0
  outer loop
    vertex 235.9492131179411 -106.18808577426533 5.0
    vertex 235.9492131179411 -106.18808577426533 0.0
    vertex 237.35347074570944 -109.16680879190432 5.0
  endloop
endfacet
facet normal -0.7723495405239983 -0.6351977544453135 0.0
  outer loop
    vertex 239.27501490099013 -111.5032524191706 0.0
    vertex 239.27501490099013 -111.5032524191706 5.0
    vertex 237.35347074570944 -109.16680879190432 0.0
  endloop
endfacet
facet normal -0.7723495405239983 -0.6351977544453135 0.0
  outer loop
    vertex 237.35347074570944 -109.16680879190432 5.0
    vertex 237.35347074570944 -109.16680879190432 0.0
    vertex 239.27501490099013 -111.5032524191706 5.0
  endloop
endfacet
facet normal -0.5808011015062606 -0.8140455027141387 0.0
  outer loop
    vertex 239.27501490099013 -111.5032524191706 0.0
    vertex 241.61410477154755 -113.17213452565274 0.0
    vertex 239.27501490099013 -111.5032524191706 5.0
  endloop
endfacet
facet normal -0.5808011015062606 -0.8140455027141387 0.0
  outer loop
    vertex 241.61410477154755 -113.17213452565274 5.0
    vertex 239.27501490099013 -111.5032524191706 5.0
    vertex 241.61410477154755 -113.17213452565274 0.0
  endloop
endfacet
facet normal -0.3414145496555311 -0.9399128179163805 0.0
  outer loop
    vertex 241.61410477154755 -113.17213452565274 0.0
    vertex 244.37074991190272 -114.17346011799953 0.0
    vertex 241.61410477154755 -113.17213452565274 5.0
  endloop
endfacet
facet normal -0.3414145496555311 -0.9399128179163805 0.0
  outer loop
    vertex 244.37074991190272 -114.17346011799953 5.0
    vertex 241.61410477154755 -113.17213452565274 5.0
    vertex 244.37074991190272 -114.17346011799953 0.0
  endloop
endfacet
facet normal -0.1045753101973553 -0.9945169704419966 0.0
  outer loop
    vertex 244.37074991190272 -114.17346011799953 0.0
    vertex 247.54495987657677 -114.50723420285982 0.0
    vertex 244.37074991190272 -114.17346011799953 5.0
  endloop
endfacet
facet normal -0.1045753101973553 -0.9945169704419966 0.0
  outer loop
    vertex 247.54495987657677 -114.50723420285982 5.0
    vertex 244.37074991190272 -114.17346011799953 5.0
    vertex 247.54495987657677 -114.50723420285982 0.0
  endloop
endfacet
facet normal 0.07540584663696359 -0.9971529262319611 0.0
  outer loop
    vertex 247.54495987657677 -114.50723420285982 0.0
    vertex 250.21783843970692 -114.30510806382092 0.0
    vertex 247.54495987657677 -114.50723420285982 5.0
  endloop
endfacet
facet normal 0.07540584663696359 -0.9971529262319611 0.0
  outer loop
    vertex 250.21783843970692 -114.30510806382092 5.0
    vertex 247.54495987657677 -114.50723420285982 5.0
    vertex 250.21783843970692 -114.30510806382092 0.0
  endloop
endfacet
facet normal 0.24480810737665448 -0.9695715499965233 0.0
  outer loop
    vertex 250.21783843970692 -114.30510806382092 0.0
    vertex 252.61943055951355 -113.69872762542764 0.0
    vertex 250.21783843970692 -114.30510806382092 5.0
  endloop
endfacet
facet normal 0.24480810737665448 -0.9695715499965233 0.0
  outer loop
    vertex 252.61943055951355 -113.69872762542764 5.0
    vertex 250.21783843970692 -114.30510806382092 5.0
    vertex 252.61943055951355 -113.69872762542764 0.0
  endloop
endfacet
facet normal 0.42862025462953846 -0.9034847410561562 0.0
  outer loop
    vertex 252.61943055951355 -113.69872762542764 0.0
    vertex 254.74974473333688 -112.68808985576516 0.0
    vertex 252.61943055951355 -113.69872762542764 5.0
  endloop
endfacet
facet normal 0.42862025462953846 -0.9034847410561562 0.0
  outer loop
    vertex 254.74974473333688 -112.68808985576516 5.0
    vertex 252.61943055951355 -113.69872762542764 5.0
    vertex 254.74974473333688 -112.68808985576516 0.0
  endloop
endfacet
facet normal 0.6056323202340111 -0.7957446152428354 0.0
  outer loop
    vertex 254.74974473333688 -112.68808985576516 0.0
    vertex 256.6087894585172 -111.27319172291867 0.0
    vertex 254.74974473333688 -112.68808985576516 5.0
  endloop
endfacet
facet normal 0.6056323202340111 -0.7957446152428354 0.0
  outer loop
    vertex 256.6087894585172 -111.27319172291867 5.0
    vertex 254.74974473333688 -112.68808985576516 5.0
    vertex 256.6087894585172 -111.27319172291867 0.0
  endloop
endfacet
facet normal 0.7692051387227369 -0.6390019206250757 0.0
  outer loop
    vertex 256.6087894585172 -111.27319172291867 5.0
    vertex 256.6087894585172 -111.27319172291867 0.0
    vertex 258.3055990211487 -109.23063974790539 5.0
  endloop
endfacet
facet normal 0.7692051387227369 -0.6390019206250757 0.0
  outer loop
    vertex 258.3055990211487 -109.23063974790539 0.0
    vertex 258.3055990211487 -109.23063974790539 5.0
    vertex 256.6087894585172 -111.27319172291867 0.0
  endloop
endfacet
facet normal 0.8936688017333084 -0.44872716967947535 0.0
  outer loop
    vertex 258.3055990211487 -109.23063974790539 5.0
    vertex 258.3055990211487 -109.23063974790539 0.0
    vertex 259.5662362000424 -106.72000033668567 5.0
  endloop
endfacet
facet normal 0.8936688017333084 -0.44872716967947535 0.0
  outer loop
    vertex 259.5662362000424 -106.72000033668567 0.0
    vertex 259.5662362000424 -106.72000033668567 5.0
    vertex 258.3055990211487 -109.23063974790539 0.0
  endloop
endfacet
facet normal 0.9612697485206655 -0.27560927157665893 0.0
  outer loop
    vertex 259.5662362000424 -106.72000033668567 5.0
    vertex 259.5662362000424 -106.72000033668567 0.0
    vertex 260.22049259479803 -104.43808552134924 5.0
  endloop
endfacet
facet normal 0.9612697485206655 -0.27560927157665893 0.0
  outer loop
    vertex 260.22049259479803 -104.43808552134924 0.0
    vertex 260.22049259479803 -104.43808552134924 5.0
    vertex 259.5662362000424 -106.72000033668567 0.0
  endloop
endfacet
facet normal 0.9955058923054598 -0.0946996218847281 0.0
  outer loop
    vertex 260.22049259479803 -104.43808552134924 5.0
    vertex 260.22049259479803 -104.43808552134924 0.0
    vertex 260.43857660581597 -102.14553235518993 5.0
  endloop
endfacet
facet normal 0.9955058923054598 -0.0946996218847281 0.0
  outer loop
    vertex 260.43857660581597 -102.14553235518993 0.0
    vertex 260.43857660581597 -102.14553235518993 5.0
    vertex 260.22049259479803 -104.43808552134924 0.0
  endloop
endfacet
facet normal 0.9950662729480633 0.09921246111880544 0.0
  outer loop
    vertex 260.43857660581597 -102.14553235518993 5.0
    vertex 260.43857660581597 -102.14553235518993 0.0
    vertex 260.1686318280206 -99.43808068114072 5.0
  endloop
endfacet
facet normal 0.9950662729480633 0.09921246111880544 0.0
  outer loop
    vertex 260.1686318280206 -99.43808068114072 0.0
    vertex 260.1686318280206 -99.43808068114072 5.0
    vertex 260.43857660581597 -102.14553235518993 0.0
  endloop
endfacet
facet normal 0.9589718698169324 0.28350123967950597 0.0
  outer loop
    vertex 260.1686318280206 -99.43808068114072 5.0
    vertex 260.1686318280206 -99.43808068114072 0.0
    vertex 259.3587947951664 -96.69872428706948 5.0
  endloop
endfacet
facet normal 0.9589718698169324 0.28350123967950597 0.0
  outer loop
    vertex 259.3587947951664 -96.69872428706948 0.0
    vertex 259.3587947951664 -96.69872428706948 5.0
    vertex 260.1686318280206 -99.43808068114072 0.0
  endloop
endfacet
facet normal 0.8990375411417728 0.43787155607295997 0.0
  outer loop
    vertex 259.3587947951664 -96.69872428706948 5.0
    vertex 259.3587947951664 -96.69872428706948 0.0
    vertex 258.00906145805135 -93.92745284052961 5.0
  endloop
endfacet
facet normal 0.8990375411417728 0.43787155607295997 0.0
  outer loop
    vertex 258.00906145805135 -93.92745284052961 0.0
    vertex 258.00906145805135 -93.92745284052961 5.0
    vertex 259.3587947951664 -96.69872428706948 0.0
  endloop
endfacet
facet normal 0.8291947543114122 0.5589598012580482 0.0
  outer loop
    vertex 258.00906145805135 -93.92745284052961 5.0
    vertex 258.00906145805135 -93.92745284052961 0.0
    vertex 256.11942776747344 -91.12425600907456 5.0
  endloop
endfacet
facet normal 0.8291947543114122 0.5589598012580482 0.0
  outer loop
    vertex 256.11942776747344 -91.12425600907456 0.0
    vertex 256.11942776747344 -91.12425600907456 5.0
    vertex 258.00906145805135 -93.92745284052961 0.0
  endloop
endfacet
facet normal 0.7533671477222172 0.6576001374185463 0.0
  outer loop
    vertex 256.11942776747344 -91.12425600907456 5.0
    vertex 256.11942776747344 -91.12425600907456 0.0
    vertex 252.83219379937537 -87.3582986475641 5.0
  endloop
endfacet
facet normal 0.7533671477222172 0.6576001374185463 0.0
  outer loop
    vertex 252.83219379937537 -87.3582986475641 0.0
    vertex 252.83219379937537 -87.3582986475641 5.0
    vertex 256.11942776747344 -91.12425600907456 0.0
  endloop
endfacet
facet normal 0.5758139041990472 0.8175807897272602 0.0
  outer loop
    vertex 252.83219379937537 -87.3582986475641 0.0
    vertex 251.6540020042526 -86.52851004933734 0.0
    vertex 252.83219379937537 -87.3582986475641 5.0
  endloop
endfacet
facet normal 0.5758139041990472 0.8175807897272602 0.0
  outer loop
    vertex 251.6540020042526 -86.52851004933734 5.0
    vertex 252.83219379937537 -87.3582986475641 5.0
    vertex 251.6540020042526 -86.52851004933734 0.0
  endloop
endfacet
facet normal 0.2558238291027243 0.9667234188035482 0.0
  outer loop
    vertex 251.6540020042526 -86.52851004933734 0.0
    vertex 250.6087895944158 -86.2519156939 0.0
    vertex 251.6540020042526 -86.52851004933734 5.0
  endloop
endfacet
facet normal 0.2558238291027243 0.9667234188035482 0.0
  outer loop
    vertex 250.6087895944158 -86.2519156939 5.0
    vertex 251.6540020042526 -86.52851004933734 5.0
    vertex 250.6087895944158 -86.2519156939 0.0
  endloop
endfacet
facet normal -0.19611508152308393 -0.9805808864133515 0.0
  outer loop
    vertex 248.28964071077374 -101.01787280626306 0.0
    vertex 249.12740714126662 -101.18542515619144 0.0
    vertex 248.28964071077374 -101.01787280626306 5.0
  endloop
endfacet
facet normal -0.19611508152308393 -0.9805808864133515 0.0
  outer loop
    vertex 249.12740714126662 -101.18542515619144 5.0
    vertex 248.28964071077374 -101.01787280626306 5.0
    vertex 249.12740714126662 -101.18542515619144 0.0
  endloop
endfacet
facet normal -0.6171012265718715 -0.7868837755116647 0.0
  outer loop
    vertex 249.12740714126662 -101.18542515619144 0.0
    vertex 249.76836408153633 -101.68808555704034 0.0
    vertex 249.12740714126662 -101.18542515619144 5.0
  endloop
endfacet
facet normal -0.6171012265718715 -0.7868837755116647 0.0
  outer loop
    vertex 249.76836408153633 -101.68808555704034 5.0
    vertex 249.12740714126662 -101.18542515619144 5.0
    vertex 249.76836408153633 -101.68808555704034 0.0
  endloop
endfacet
facet normal -0.8889741044514838 -0.45795746703671336 0.0
  outer loop
    vertex 250.1752796441283 -102.47797855776646 0.0
    vertex 250.1752796441283 -102.47797855776646 5.0
    vertex 249.76836408153633 -101.68808555704034 0.0
  endloop
endfacet
facet normal -0.8889741044514838 -0.45795746703671336 0.0
  outer loop
    vertex 249.76836408153633 -101.68808555704034 5.0
    vertex 249.76836408153633 -101.68808555704034 0.0
    vertex 250.1752796441283 -102.47797855776646 5.0
  endloop
endfacet
facet normal -0.9914282111538084 -0.13065260092458747 0.0
  outer loop
    vertex 250.310917260737 -103.50723445200725 0.0
    vertex 250.310917260737 -103.50723445200725 5.0
    vertex 250.1752796441283 -102.47797855776646 0.0
  endloop
endfacet
facet normal -0.9914282111538084 -0.13065260092458747 0.0
  outer loop
    vertex 250.1752796441283 -102.47797855776646 5.0
    vertex 250.1752796441283 -102.47797855776646 0.0
    vertex 250.310917260737 -103.50723445200725 5.0
  endloop
endfacet
facet normal -0.9844369315285881 0.1757382367118154 0.0
  outer loop
    vertex 249.99708904976 -105.26521317548733 0.0
    vertex 249.99708904976 -105.26521317548733 5.0
    vertex 250.310917260737 -103.50723445200725 0.0
  endloop
endfacet
facet normal -0.9844369315285881 0.1757382367118154 0.0
  outer loop
    vertex 250.310917260737 -103.50723445200725 5.0
    vertex 250.310917260737 -103.50723445200725 0.0
    vertex 249.99708904976 -105.26521317548733 5.0
  endloop
endfacet
facet normal -0.8797365456881922 0.4754614707635179 0.0
  outer loop
    vertex 249.0555981402335 -107.00723437273307 0.0
    vertex 249.0555981402335 -107.00723437273307 5.0
    vertex 249.99708904976 -105.26521317548733 0.0
  endloop
endfacet
facet normal -0.8797365456881922 0.4754614707635179 0.0
  outer loop
    vertex 249.99708904976 -105.26521317548733 5.0
    vertex 249.99708904976 -105.26521317548733 0.0
    vertex 249.0555981402335 -107.00723437273307 5.0
  endloop
endfacet
facet normal -0.7165681488375102 0.6975170880140384 0.0
  outer loop
    vertex 247.78964077529014 -108.30776842572308 0.0
    vertex 247.78964077529014 -108.30776842572308 5.0
    vertex 249.0555981402335 -107.00723437273307 0.0
  endloop
endfacet
facet normal -0.7165681488375102 0.6975170880140384 0.0
  outer loop
    vertex 249.0555981402335 -107.00723437273307 5.0
    vertex 249.0555981402335 -107.00723437273307 0.0
    vertex 247.78964077529014 -108.30776842572308 5.0
  endloop
endfacet
facet normal -0.319161891309577 0.9477002095260367 0.0
  outer loop
    vertex 247.78964077529014 -108.30776842572308 0.0
    vertex 246.502406708701 -108.74127688664892 0.0
    vertex 247.78964077529014 -108.30776842572308 5.0
  endloop
endfacet
facet normal -0.319161891309577 0.9477002095260367 0.0
  outer loop
    vertex 246.502406708701 -108.74127688664892 5.0
    vertex 247.78964077529014 -108.30776842572308 5.0
    vertex 246.502406708701 -108.74127688664892 0.0
  endloop
endfacet
facet normal 0.16331702885853389 0.9865736404773953 0.0
  outer loop
    vertex 246.502406708701 -108.74127688664892 0.0
    vertex 245.71517225844656 -108.61095839226016 0.0
    vertex 246.502406708701 -108.74127688664892 5.0
  endloop
endfacet
facet normal 0.16331702885853389 0.9865736404773953 0.0
  outer loop
    vertex 245.71517225844656 -108.61095839226016 5.0
    vertex 246.502406708701 -108.74127688664892 5.0
    vertex 245.71517225844656 -108.61095839226016 0.0
  endloop
endfacet
facet normal 0.5352262127281783 0.8447087670958855 0.0
  outer loop
    vertex 245.71517225844656 -108.61095839226016 0.0
    vertex 245.0981514213581 -108.22000030271103 0.0
    vertex 245.71517225844656 -108.61095839226016 5.0
  endloop
endfacet
facet normal 0.5352262127281783 0.8447087670958855 0.0
  outer loop
    vertex 245.0981514213581 -108.22000030271103 5.0
    vertex 245.71517225844656 -108.61095839226016 5.0
    vertex 245.0981514213581 -108.22000030271103 0.0
  endloop
endfacet
facet normal 0.8343045376110764 0.5513038531713413 0.0
  outer loop
    vertex 245.0981514213581 -108.22000030271103 5.0
    vertex 245.0981514213581 -108.22000030271103 0.0
    vertex 244.69921459528751 -107.61627732436392 5.0
  endloop
endfacet
facet normal 0.8343045376110764 0.5513038531713413 0.0
  outer loop
    vertex 244.69921459528751 -107.61627732436392 0.0
    vertex 244.69921459528751 -107.61627732436392 5.0
    vertex 245.0981514213581 -108.22000030271103 0.0
  endloop
endfacet
facet normal 0.9853616806557249 0.1704768556001816 0.0
  outer loop
    vertex 244.69921459528751 -107.61627732436392 5.0
    vertex 244.69921459528751 -107.61627732436392 0.0
    vertex 244.56623653978886 -106.84765990826229 5.0
  endloop
endfacet
facet normal 0.9853616806557249 0.1704768556001816 0.0
  outer loop
    vertex 244.56623653978886 -106.84765990826229 0.0
    vertex 244.56623653978886 -106.84765990826229 5.0
    vertex 244.69921459528751 -107.61627732436392 0.0
  endloop
endfacet
facet normal 0.9776483112944344 -0.21024694866546986 0.0
  outer loop
    vertex 244.56623653978886 -106.84765990826229 5.0
    vertex 244.56623653978886 -106.84765990826229 0.0
    vertex 245.20453439767195 -103.87957486910575 5.0
  endloop
endfacet
facet normal 0.9776483112944344 -0.21024694866546986 0.0
  outer loop
    vertex 245.20453439767195 -103.87957486910575 0.0
    vertex 245.20453439767195 -103.87957486910575 5.0
    vertex 244.56623653978886 -106.84765990826229 0.0
  endloop
endfacet
facet normal 0.8847663934403376 -0.4660347938068337 0.0
  outer loop
    vertex 245.20453439767195 -103.87957486910575 5.0
    vertex 245.20453439767195 -103.87957486910575 0.0
    vertex 245.91198084441442 -102.53648879580294 5.0
  endloop
endfacet
facet normal 0.8847663934403376 -0.4660347938068337 0.0
  outer loop
    vertex 245.91198084441442 -102.53648879580294 0.0
    vertex 245.91198084441442 -102.53648879580294 5.0
    vertex 245.20453439767195 -103.87957486910575 0.0
  endloop
endfacet
facet normal 0.7448565740504356 -0.6672246129256983 0.0
  outer loop
    vertex 245.91198084441442 -102.53648879580294 5.0
    vertex 245.91198084441442 -102.53648879580294 0.0
    vertex 246.75772585185425 -101.59234087835787 5.0
  endloop
endfacet
facet normal 0.7448565740504356 -0.6672246129256983 0.0
  outer loop
    vertex 246.75772585185425 -101.59234087835787 0.0
    vertex 246.75772585185425 -101.59234087835787 5.0
    vertex 245.91198084441442 -102.53648879580294 0.0
  endloop
endfacet
facet normal 0.35112344158839154 -0.9363291775690447 0.0
  outer loop
    vertex 246.75772585185425 -101.59234087835787 0.0
    vertex 248.28964071077374 -101.01787280626306 0.0
    vertex 246.75772585185425 -101.59234087835787 5.0
  endloop
endfacet
facet normal 0.35112344158839154 -0.9363291775690447 0.0
  outer loop
    vertex 248.28964071077374 -101.01787280626306 5.0
    vertex 246.75772585185425 -101.59234087835787 5.0
    vertex 248.28964071077374 -101.01787280626306 0.0
  endloop
endfacet
facet normal -0.7933533402912453 -0.6087614290087077 0.0
  outer loop
    vertex 255.0806082993863 -97.7622521686674 2.8999999999999946
    vertex 255.0806082993863 -97.7622521686674 4.999999999999995
    vertex 254.73098732967097 -97.30661725005699 2.8999999999999946
  endloop
endfacet
facet normal -0.7933533402912453 -0.6087614290087077 0.0
  outer loop
    vertex 254.73098732967097 -97.30661725005699 4.999999999999995
    vertex 254.73098732967097 -97.30661725005699 2.8999999999999946
    vertex 255.0806082993863 -97.7622521686674 4.999999999999995
  endloop
endfacet
facet normal -0.6087614290087049 -0.7933533402912475 0.0
  outer loop
    vertex 254.27535241106054 -96.95699628034164 2.8999999999999946
    vertex 254.73098732967097 -97.30661725005699 2.8999999999999946
    vertex 254.27535241106054 -96.95699628034164 4.999999999999995
  endloop
endfacet
facet normal -0.6087614290087049 -0.7933533402912475 0.0
  outer loop
    vertex 254.73098732967097 -97.30661725005699 4.999999999999995
    vertex 254.27535241106054 -96.95699628034164 4.999999999999995
    vertex 254.73098732967097 -97.30661725005699 2.8999999999999946
  endloop
endfacet
facet normal 0.6087614290087295 -0.7933533402912283 0.0
  outer loop
    vertex 251.61971749245018 -97.30661725005702 2.8999999999999946
    vertex 252.0753524110606 -96.95699628034164 2.8999999999999946
    vertex 251.61971749245018 -97.30661725005702 4.999999999999995
  endloop
endfacet
facet normal 0.6087614290087295 -0.7933533402912283 0.0
  outer loop
    vertex 252.0753524110606 -96.95699628034164 4.999999999999995
    vertex 251.61971749245018 -97.30661725005702 4.999999999999995
    vertex 252.0753524110606 -96.95699628034164 2.8999999999999946
  endloop
endfacet
facet normal -0.9914448613738099 -0.13052619222005604 0.0
  outer loop
    vertex 255.37535241106056 -98.8622521686674 2.8999999999999946
    vertex 255.37535241106056 -98.8622521686674 4.999999999999995
    vertex 255.30038922889653 -98.29285026944186 2.8999999999999946
  endloop
endfacet
facet normal -0.9914448613738099 -0.13052619222005604 0.0
  outer loop
    vertex 255.30038922889653 -98.29285026944186 4.999999999999995
    vertex 255.30038922889653 -98.29285026944186 2.8999999999999946
    vertex 255.37535241106056 -98.8622521686674 4.999999999999995
  endloop
endfacet
facet normal -0.9238795325112851 -0.382683432365094 0.0
  outer loop
    vertex 255.30038922889653 -98.29285026944186 2.8999999999999946
    vertex 255.30038922889653 -98.29285026944186 4.999999999999995
    vertex 255.0806082993863 -97.7622521686674 2.8999999999999946
  endloop
endfacet
facet normal -0.9238795325112851 -0.382683432365094 0.0
  outer loop
    vertex 255.0806082993863 -97.7622521686674 4.999999999999995
    vertex 255.0806082993863 -97.7622521686674 2.8999999999999946
    vertex 255.30038922889653 -98.29285026944186 4.999999999999995
  endloop
endfacet
facet normal 0.3826834323650871 -0.923879532511288 0.0
  outer loop
    vertex 252.0753524110606 -96.95699628034164 2.8999999999999946
    vertex 252.60595051183503 -96.73721535083146 2.8999999999999946
    vertex 252.0753524110606 -96.95699628034164 4.999999999999995
  endloop
endfacet
facet normal 0.3826834323650871 -0.923879532511288 0.0
  outer loop
    vertex 252.60595051183503 -96.73721535083146 4.999999999999995
    vertex 252.0753524110606 -96.95699628034164 4.999999999999995
    vertex 252.60595051183503 -96.73721535083146 2.8999999999999946
  endloop
endfacet
facet normal -0.1305261922200586 -0.9914448613738096 0.0
  outer loop
    vertex 253.17535241106057 -96.66225216866741 2.8999999999999946
    vertex 253.7447543102861 -96.73721535083146 2.8999999999999946
    vertex 253.17535241106057 -96.66225216866741 4.999999999999995
  endloop
endfacet
facet normal -0.1305261922200586 -0.9914448613738096 0.0
  outer loop
    vertex 253.7447543102861 -96.73721535083146 4.999999999999995
    vertex 253.17535241106057 -96.66225216866741 4.999999999999995
    vertex 253.7447543102861 -96.73721535083146 2.8999999999999946
  endloop
endfacet
facet normal -0.9914448613738099 0.13052619222005604 0.0
  outer loop
    vertex 255.30038922889653 -99.43165406789295 2.8999999999999946
    vertex 255.30038922889653 -99.43165406789295 4.999999999999995
    vertex 255.37535241106056 -98.8622521686674 2.8999999999999946
  endloop
endfacet
facet normal -0.9914448613738099 0.13052619222005604 0.0
  outer loop
    vertex 255.37535241106056 -98.8622521686674 4.999999999999995
    vertex 255.37535241106056 -98.8622521686674 2.8999999999999946
    vertex 255.30038922889653 -99.43165406789295 4.999999999999995
  endloop
endfacet
facet normal 0.1305261922200586 -0.9914448613738096 0.0
  outer loop
    vertex 252.60595051183503 -96.73721535083146 2.8999999999999946
    vertex 253.17535241106057 -96.66225216866741 2.8999999999999946
    vertex 252.60595051183503 -96.73721535083146 4.999999999999995
  endloop
endfacet
facet normal 0.1305261922200586 -0.9914448613738096 0.0
  outer loop
    vertex 253.17535241106057 -96.66225216866741 4.999999999999995
    vertex 252.60595051183503 -96.73721535083146 4.999999999999995
    vertex 253.17535241106057 -96.66225216866741 2.8999999999999946
  endloop
endfacet
facet normal -0.9238795325112851 0.382683432365094 0.0
  outer loop
    vertex 255.0806082993863 -99.9622521686674 2.8999999999999946
    vertex 255.0806082993863 -99.9622521686674 4.999999999999995
    vertex 255.30038922889653 -99.43165406789295 2.8999999999999946
  endloop
endfacet
facet normal -0.9238795325112851 0.382683432365094 0.0
  outer loop
    vertex 255.30038922889653 -99.43165406789295 4.999999999999995
    vertex 255.30038922889653 -99.43165406789295 2.8999999999999946
    vertex 255.0806082993863 -99.9622521686674 4.999999999999995
  endloop
endfacet
facet normal -0.7933533402912306 0.6087614290087267 0.0
  outer loop
    vertex 254.73098732967097 -100.41788708727779 2.8999999999999946
    vertex 254.73098732967097 -100.41788708727779 4.999999999999995
    vertex 255.0806082993863 -99.9622521686674 2.8999999999999946
  endloop
endfacet
facet normal -0.7933533402912306 0.6087614290087267 0.0
  outer loop
    vertex 255.0806082993863 -99.9622521686674 4.999999999999995
    vertex 255.0806082993863 -99.9622521686674 2.8999999999999946
    vertex 254.73098732967097 -100.41788708727779 4.999999999999995
  endloop
endfacet
facet normal -0.6087614290087295 0.7933533402912283 0.0
  outer loop
    vertex 254.73098732967097 -100.41788708727779 2.8999999999999946
    vertex 254.27535241106054 -100.76750805699317 2.8999999999999946
    vertex 254.73098732967097 -100.41788708727779 4.999999999999995
  endloop
endfacet
facet normal -0.6087614290087295 0.7933533402912283 0.0
  outer loop
    vertex 254.27535241106054 -100.76750805699317 4.999999999999995
    vertex 254.73098732967097 -100.41788708727779 4.999999999999995
    vertex 254.27535241106054 -100.76750805699317 2.8999999999999946
  endloop
endfacet
facet normal 0.7933533402912258 -0.6087614290087329 0.0
  outer loop
    vertex 251.2700965227348 -97.7622521686674 4.999999999999995
    vertex 251.2700965227348 -97.7622521686674 2.8999999999999946
    vertex 251.61971749245018 -97.30661725005702 4.999999999999995
  endloop
endfacet
facet normal 0.7933533402912258 -0.6087614290087329 0.0
  outer loop
    vertex 251.61971749245018 -97.30661725005702 2.8999999999999946
    vertex 251.61971749245018 -97.30661725005702 4.999999999999995
    vertex 251.2700965227348 -97.7622521686674 2.8999999999999946
  endloop
endfacet
facet normal 0.9238795325112851 -0.382683432365094 0.0
  outer loop
    vertex 251.0503155932246 -98.29285026944186 4.999999999999995
    vertex 251.0503155932246 -98.29285026944186 2.8999999999999946
    vertex 251.2700965227348 -97.7622521686674 4.999999999999995
  endloop
endfacet
facet normal 0.9238795325112851 -0.382683432365094 0.0
  outer loop
    vertex 251.2700965227348 -97.7622521686674 2.8999999999999946
    vertex 251.2700965227348 -97.7622521686674 4.999999999999995
    vertex 251.0503155932246 -98.29285026944186 2.8999999999999946
  endloop
endfacet
facet normal 0.0 0.0 1.0
  outer loop
    vertex 255.37535241106056 -98.8622521686674 2.8999999999999946
    vertex 255.30038922889653 -98.29285026944186 2.8999999999999946
    vertex 255.30038922889653 -99.43165406789295 2.8999999999999946
  endloop
endfacet
facet normal 0.0 0.0 1.0
  outer loop
    vertex 255.0806082993863 -99.9622521686674 2.8999999999999946
    vertex 255.30038922889653 -99.43165406789295 2.8999999999999946
    vertex 255.30038922889653 -98.29285026944186 2.8999999999999946
  endloop
endfacet
facet normal 0.0 0.0 1.0
  outer loop
    vertex 255.0806082993863 -97.7622521686674 2.8999999999999946
    vertex 255.0806082993863 -99.9622521686674 2.8999999999999946
    vertex 255.30038922889653 -98.29285026944186 2.8999999999999946
  endloop
endfacet
facet normal 0.0 0.0 1.0
  outer loop
    vertex 254.73098732967097 -100.41788708727779 2.8999999999999946
    vertex 255.0806082993863 -99.9622521686674 2.8999999999999946
    vertex 255.0806082993863 -97.7622521686674 2.8999999999999946
  endloop
endfacet
facet normal 0.0 0.0 1.0
  outer loop
    vertex 254.73098732967097 -97.30661725005699 2.8999999999999946
    vertex 254.73098732967097 -100.41788708727779 2.8999999999999946
    vertex 255.0806082993863 -97.7622521686674 2.8999999999999946
  endloop
endfacet
facet normal 0.0 0.0 1.0
  outer loop
    vertex 254.27535241106054 -100.76750805699317 2.8999999999999946
    vertex 254.73098732967097 -100.41788708727779 2.8999999999999946
    vertex 254.73098732967097 -97.30661725005699 2.8999999999999946
  endloop
endfacet
facet normal 0.0 0.0 1.0
  outer loop
    vertex 254.27535241106054 -96.95699628034164 2.8999999999999946
    vertex 254.27535241106054 -100.76750805699317 2.8999999999999946
    vertex 254.73098732967097 -97.30661725005699 2.8999999999999946
  endloop
endfacet
facet normal 0.0 0.0 1.0
  outer loop
    vertex 253.7447543102861 -100.98728898650334 2.8999999999999946
    vertex 254.27535241106054 -100.76750805699317 2.8999999999999946
    vertex 254.27535241106054 -96.95699628034164 2.8999999999999946
  endloop
endfacet
facet normal 0.0 0.0 1.0
  outer loop
    vertex 253.7447543102861 -96.73721535083146 2.8999999999999946
    vertex 253.7447543102861 -100.98728898650334 2.8999999999999946
    vertex 254.27535241106054 -96.95699628034164 2.8999999999999946
  endloop
endfacet
facet normal 0.0 0.0 1.0
  outer loop
    vertex 253.17535241106057 -101.0622521686674 2.8999999999999946
    vertex 253.7447543102861 -100.98728898650334 2.8999999999999946
    vertex 253.7447543102861 -96.73721535083146 2.8999999999999946
  endloop
endfacet
facet normal 0.0 0.0 1.0
  outer loop
    vertex 253.17535241106057 -96.66225216866741 2.8999999999999946
    vertex 253.17535241106057 -101.0622521686674 2.8999999999999946
    vertex 253.7447543102861 -96.73721535083146 2.8999999999999946
  endloop
endfacet
facet normal 0.0 0.0 1.0
  outer loop
    vertex 252.60595051183503 -100.98728898650334 2.8999999999999946
    vertex 253.17535241106057 -101.0622521686674 2.8999999999999946
    vertex 253.17535241106057 -96.66225216866741 2.8999999999999946
  endloop
endfacet
facet normal 0.0 0.0 1.0
  outer loop
    vertex 252.60595051183503 -96.73721535083146 2.8999999999999946
    vertex 252.60595051183503 -100.98728898650334 2.8999999999999946
    vertex 253.17535241106057 -96.66225216866741 2.8999999999999946
  endloop
endfacet
facet normal 0.0 0.0 1.0
  outer loop
    vertex 252.0753524110606 -100.76750805699317 2.8999999999999946
    vertex 252.60595051183503 -100.98728898650334 2.8999999999999946
    vertex 252.60595051183503 -96.73721535083146 2.8999999999999946
  endloop
endfacet
facet normal 0.0 0.0 1.0
  outer loop
    vertex 252.0753524110606 -96.95699628034164 2.8999999999999946
    vertex 252.0753524110606 -100.76750805699317 2.8999999999999946
    vertex 252.60595051183503 -96.73721535083146 2.8999999999999946
  endloop
endfacet
facet normal 0.0 0.0 1.0
  outer loop
    vertex 251.61971749245018 -100.41788708727782 2.8999999999999946
    vertex 252.0753524110606 -100.76750805699317 2.8999999999999946
    vertex 252.0753524110606 -96.95699628034164 2.8999999999999946
  endloop
endfacet
facet normal 0.0 0.0 1.0
  outer loop
    vertex 251.61971749245018 -97.30661725005702 2.8999999999999946
    vertex 251.61971749245018 -100.41788708727782 2.8999999999999946
    vertex 252.0753524110606 -96.95699628034164 2.8999999999999946
  endloop
endfacet
facet normal 0.0 0.0 1.0
  outer loop
    vertex 251.27009652273483 -99.9622521686674 2.8999999999999946
    vertex 251.61971749245018 -100.41788708727782 2.8999999999999946
    vertex 251.61971749245018 -97.30661725005702 2.8999999999999946
  endloop
endfacet
facet normal 0.0 0.0 1.0
  outer loop
    vertex 251.2700965227348 -97.7622521686674 2.8999999999999946
    vertex 251.27009652273483 -99.9622521686674 2.8999999999999946
    vertex 251.61971749245018 -97.30661725005702 2.8999999999999946
  endloop
endfacet
facet normal 0.0 0.0 1.0
  outer loop
    vertex 251.0503155932246 -99.43165406789295 2.8999999999999946
    vertex 251.27009652273483 -99.9622521686674 2.8999999999999946
    vertex 251.2700965227348 -97.7622521686674 2.8999999999999946
  endloop
endfacet
facet normal 0.0 0.0 1.0
  outer loop
    vertex 251.0503155932246 -98.29285026944186 2.8999999999999946
    vertex 251.0503155932246 -99.43165406789295 2.8999999999999946
    vertex 251.2700965227348 -97.7622521686674 2.8999999999999946
  endloop
endfacet
facet normal 0.0 0.0 1.0
  outer loop
    vertex 250.97535241106058 -98.8622521686674 2.8999999999999946
    vertex 251.0503155932246 -99.43165406789295 2.8999999999999946
    vertex 251.0503155932246 -98.29285026944186 2.8999999999999946
  endloop
endfacet
facet normal 0.3826834323650871 0.923879532511288 0.0
  outer loop
    vertex 252.60595051183503 -100.98728898650334 2.8999999999999946
    vertex 252.0753524110606 -100.76750805699317 2.8999999999999946
    vertex 252.60595051183503 -100.98728898650334 4.999999999999995
  endloop
endfacet
facet normal 0.3826834323650871 0.923879532511288 0.0
  outer loop
    vertex 252.0753524110606 -100.76750805699317 4.999999999999995
    vertex 252.60595051183503 -100.98728898650334 4.999999999999995
    vertex 252.0753524110606 -100.76750805699317 2.8999999999999946
  endloop
endfacet
facet normal 0.1305261922200586 0.9914448613738096 0.0
  outer loop
    vertex 253.17535241106057 -101.0622521686674 2.8999999999999946
    vertex 252.60595051183503 -100.98728898650334 2.8999999999999946
    vertex 253.17535241106057 -101.0622521686674 4.999999999999995
  endloop
endfacet
facet normal 0.1305261922200586 0.9914448613738096 0.0
  outer loop
    vertex 252.60595051183503 -100.98728898650334 4.999999999999995
    vertex 253.17535241106057 -101.0622521686674 4.999999999999995
    vertex 252.60595051183503 -100.98728898650334 2.8999999999999946
  endloop
endfacet
facet normal -0.1305261922200586 0.9914448613738096 0.0
  outer loop
    vertex 253.7447543102861 -100.98728898650334 2.8999999999999946
    vertex 253.17535241106057 -101.0622521686674 2.8999999999999946
    vertex 253.7447543102861 -100.98728898650334 4.999999999999995
  endloop
endfacet
facet normal -0.1305261922200586 0.9914448613738096 0.0
  outer loop
    vertex 253.17535241106057 -101.0622521686674 4.999999999999995
    vertex 253.7447543102861 -100.98728898650334 4.999999999999995
    vertex 253.17535241106057 -101.0622521686674 2.8999999999999946
  endloop
endfacet
facet normal -0.3826834323650871 0.923879532511288 0.0
  outer loop
    vertex 254.27535241106054 -100.76750805699317 2.8999999999999946
    vertex 253.7447543102861 -100.98728898650334 2.8999999999999946
    vertex 254.27535241106054 -100.76750805699317 4.999999999999995
  endloop
endfacet
facet normal -0.3826834323650871 0.923879532511288 0.0
  outer loop
    vertex 253.7447543102861 -100.98728898650334 4.999999999999995
    vertex 254.27535241106054 -100.76750805699317 4.999999999999995
    vertex 253.7447543102861 -100.98728898650334 2.8999999999999946
  endloop
endfacet
facet normal 0.6087614290087049 0.7933533402912475 0.0
  outer loop
    vertex 252.0753524110606 -100.76750805699317 2.8999999999999946
    vertex 251.61971749245018 -100.41788708727782 2.8999999999999946
    vertex 252.0753524110606 -100.76750805699317 4.999999999999995
  endloop
endfacet
facet normal 0.6087614290087049 0.7933533402912475 0.0
  outer loop
    vertex 251.61971749245018 -100.41788708727782 4.999999999999995
    vertex 252.0753524110606 -100.76750805699317 4.999999999999995
    vertex 251.61971749245018 -100.41788708727782 2.8999999999999946
  endloop
endfacet
facet normal 0.7933533402912453 0.6087614290087077 0.0
  outer loop
    vertex 251.61971749245018 -100.41788708727782 4.999999999999995
    vertex 251.61971749245018 -100.41788708727782 2.8999999999999946
    vertex 251.27009652273483 -99.9622521686674 4.999999999999995
  endloop
endfacet
facet normal 0.7933533402912453 0.6087614290087077 0.0
  outer loop
    vertex 251.27009652273483 -99.9622521686674 2.8999999999999946
    vertex 251.27009652273483 -99.9622521686674 4.999999999999995
    vertex 251.61971749245018 -100.41788708727782 2.8999999999999946
  endloop
endfacet
facet normal 0.9238795325112817 0.38268343236510244 0.0
  outer loop
    vertex 251.27009652273483 -99.9622521686674 4.999999999999995
    vertex 251.27009652273483 -99.9622521686674 2.8999999999999946
    vertex 251.0503155932246 -99.43165406789295 4.999999999999995
  endloop
endfacet
facet normal 0.9238795325112817 0.38268343236510244 0.0
  outer loop
    vertex 251.0503155932246 -99.43165406789295 2.8999999999999946
    vertex 251.0503155932246 -99.43165406789295 4.999999999999995
    vertex 251.27009652273483 -99.9622521686674 2.8999999999999946
  endloop
endfacet
facet normal 0.9914448613738113 0.1305261922200464 0.0
  outer loop
    vertex 251.0503155932246 -99.43165406789295 4.999999999999995
    vertex 251.0503155932246 -99.43165406789295 2.8999999999999946
    vertex 250.97535241106058 -98.8622521686674 4.999999999999995
  endloop
endfacet
facet normal 0.9914448613738113 0.1305261922200464 0.0
  outer loop
    vertex 250.97535241106058 -98.8622521686674 2.8999999999999946
    vertex 250.97535241106058 -98.8622521686674 4.999999999999995
    vertex 251.0503155932246 -99.43165406789295 2.8999999999999946
  endloop
endfacet
facet normal -0.3826834323650871 -0.923879532511288 0.0
  outer loop
    vertex 253.7447543102861 -96.73721535083146 2.8999999999999946
    vertex 254.27535241106054 -96.95699628034164 2.8999999999999946
    vertex 253.7447543102861 -96.73721535083146 4.999999999999995
  endloop
endfacet
facet normal -0.3826834323650871 -0.923879532511288 0.0
  outer loop
    vertex 254.27535241106054 -96.95699628034164 4.999999999999995
    vertex 253.7447543102861 -96.73721535083146 4.999999999999995
    vertex 254.27535241106054 -96.95699628034164 2.8999999999999946
  endloop
endfacet
facet normal 0.9914448613738113 -0.1305261922200464 0.0
  outer loop
    vertex 250.97535241106058 -98.8622521686674 4.999999999999995
    vertex 250.97535241106058 -98.8622521686674 2.8999999999999946
    vertex 251.0503155932246 -98.29285026944186 4.999999999999995
  endloop
endfacet
facet normal 0.9914448613738113 -0.1305261922200464 0.0
  outer loop
    vertex 251.0503155932246 -98.29285026944186 2.8999999999999946
    vertex 251.0503155932246 -98.29285026944186 4.999999999999995
    vertex 250.97535241106058 -98.8622521686674 2.8999999999999946
  endloop
endfacet
endsolid ABC
