solid ABC
facet normal -0.12073197664807682 -0.9926851413286331 0.0
  outer loop
    vertex -23.05858775848084 -168.05375394225564 0.0
    vertex -21.484119709035788 -168.24524329962057 0.0
    vertex -23.05858775848084 -168.05375394225564 5.0
  endloop
endfacet
facet normal -0.12073197664807682 -0.9926851413286331 0.0
  outer loop
    vertex -21.484119709035788 -168.24524329962057 5.0
    vertex -23.05858775848084 -168.05375394225564 5.0
    vertex -21.484119709035788 -168.24524329962057 0.0
  endloop
endfacet
facet normal 0.07712978086168883 -0.997021061414566 0.0
  outer loop
    vertex -21.484119709035788 -168.24524329962057 0.0
    vertex -19.146353259326077 -168.06439314414231 0.0
    vertex -21.484119709035788 -168.24524329962057 5.0
  endloop
endfacet
facet normal 0.07712978086168883 -0.997021061414566 0.0
  outer loop
    vertex -19.146353259326077 -168.06439314414231 5.0
    vertex -21.484119709035788 -168.24524329962057 5.0
    vertex -19.146353259326077 -168.06439314414231 0.0
  endloop
endfacet
facet normal 0.24796635356429744 -0.968768644981879 0.0
  outer loop
    vertex -19.146353259326077 -168.06439314414231 0.0
    vertex -17.02667300148527 -167.52183906068635 0.0
    vertex -19.146353259326077 -168.06439314414231 5.0
  endloop
endfacet
facet normal 0.24796635356429744 -0.968768644981879 0.0
  outer loop
    vertex -17.02667300148527 -167.52183906068635 5.0
    vertex -19.146353259326077 -168.06439314414231 5.0
    vertex -17.02667300148527 -167.52183906068635 0.0
  endloop
endfacet
facet normal 0.45035950893754356 -0.8928473064917286 0.0
  outer loop
    vertex -17.02667300148527 -167.52183906068635 0.0
    vertex -15.518691798938567 -166.7612009662125 0.0
    vertex -17.02667300148527 -167.52183906068635 5.0
  endloop
endfacet
facet normal 0.45035950893754356 -0.8928473064917286 0.0
  outer loop
    vertex -15.518691798938567 -166.7612009662125 5.0
    vertex -17.02667300148527 -167.52183906068635 5.0
    vertex -15.518691798938567 -166.7612009662125 0.0
  endloop
endfacet
facet normal 0.856771003277077 -0.5156970505476942 0.0
  outer loop
    vertex -15.518691798938567 -166.7612009662125 5.0
    vertex -15.518691798938567 -166.7612009662125 0.0
    vertex -15.016034749153418 -165.92609441597853 5.0
  endloop
endfacet
facet normal 0.856771003277077 -0.5156970505476942 0.0
  outer loop
    vertex -15.016034749153418 -165.92609441597853 0.0
    vertex -15.016034749153418 -165.92609441597853 5.0
    vertex -15.518691798938567 -166.7612009662125 0.0
  endloop
endfacet
facet normal 0.9524241471993247 0.30477572710378237 0.0
  outer loop
    vertex -15.016034749153418 -165.92609441597853 5.0
    vertex -15.016034749153418 -165.92609441597853 0.0
    vertex -15.186247511255583 -165.39417953440923 5.0
  endloop
endfacet
facet normal 0.9524241471993247 0.30477572710378237 0.0
  outer loop
    vertex -15.186247511255583 -165.39417953440923 0.0
    vertex -15.186247511255583 -165.39417953440923 5.0
    vertex -15.016034749153418 -165.92609441597853 0.0
  endloop
endfacet
facet normal 0.8860746547738333 0.46354256133329563 0.0
  outer loop
    vertex -15.186247511255583 -165.39417953440923 5.0
    vertex -15.186247511255583 -165.39417953440923 0.0
    vertex -23.12241754426915 -150.22396711205354 5.0
  endloop
endfacet
facet normal 0.8860746547738333 0.46354256133329563 0.0
  outer loop
    vertex -23.12241754426915 -150.22396711205354 0.0
    vertex -23.12241754426915 -150.22396711205354 5.0
    vertex -15.186247511255583 -165.39417953440923 0.0
  endloop
endfacet
facet normal 0.9370274611537508 0.3492556900663981 0.0
  outer loop
    vertex -23.12241754426915 -150.22396711205354 5.0
    vertex -23.12241754426915 -150.22396711205354 0.0
    vertex -23.99475795004276 -147.88354163314875 5.0
  endloop
endfacet
facet normal 0.9370274611537508 0.3492556900663981 0.0
  outer loop
    vertex -23.99475795004276 -147.88354163314875 0.0
    vertex -23.99475795004276 -147.88354163314875 5.0
    vertex -23.12241754426915 -150.22396711205354 0.0
  endloop
endfacet
facet normal 0.9387188554713395 -0.3446837831731841 0.0
  outer loop
    vertex -23.99475795004276 -147.88354163314875 5.0
    vertex -23.99475795004276 -147.88354163314875 0.0
    vertex -23.744759205705176 -147.20268994644223 5.0
  endloop
endfacet
facet normal 0.9387188554713395 -0.3446837831731841 0.0
  outer loop
    vertex -23.744759205705176 -147.20268994644223 0.0
    vertex -23.744759205705176 -147.20268994644223 5.0
    vertex -23.99475795004276 -147.88354163314875 0.0
  endloop
endfacet
facet normal 0.4934782358737131 -0.8697581449569577 0.0
  outer loop
    vertex -23.744759205705176 -147.20268994644223 0.0
    vertex -22.99475797269253 -146.77715867948467 0.0
    vertex -23.744759205705176 -147.20268994644223 5.0
  endloop
endfacet
facet normal 0.4934782358737131 -0.8697581449569577 0.0
  outer loop
    vertex -22.99475797269253 -146.77715867948467 5.0
    vertex -23.744759205705176 -147.20268994644223 5.0
    vertex -22.99475797269253 -146.77715867948467 0.0
  endloop
endfacet
facet normal 0.08020058864174635 -0.9967787445474134 0.0
  outer loop
    vertex -22.99475797269253 -146.77715867948467 0.0
    vertex -19.292630396970377 -146.47928634580586 0.0
    vertex -22.99475797269253 -146.77715867948467 5.0
  endloop
endfacet
facet normal 0.08020058864174635 -0.9967787445474134 0.0
  outer loop
    vertex -19.292630396970377 -146.47928634580586 5.0
    vertex -22.99475797269253 -146.77715867948467 5.0
    vertex -19.292630396970377 -146.47928634580586 0.0
  endloop
endfacet
facet normal -0.08722389827292894 -0.9961887329066084 0.0
  outer loop
    vertex -19.292630396970377 -146.47928634580586 0.0
    vertex -14.675609224949081 -146.88354165579852 0.0
    vertex -19.292630396970377 -146.47928634580586 5.0
  endloop
endfacet
facet normal -0.08722389827292894 -0.9961887329066084 0.0
  outer loop
    vertex -14.675609224949081 -146.88354165579852 5.0
    vertex -19.292630396970377 -146.47928634580586 5.0
    vertex -14.675609224949081 -146.88354165579852 0.0
  endloop
endfacet
facet normal -0.6128235192938829 -0.7902198011947434 0.0
  outer loop
    vertex -14.675609224949081 -146.88354165579852 0.0
    vertex -13.633056057073304 -147.69205227578382 0.0
    vertex -14.675609224949081 -146.88354165579852 5.0
  endloop
endfacet
facet normal -0.6128235192938829 -0.7902198011947434 0.0
  outer loop
    vertex -13.633056057073304 -147.69205227578382 5.0
    vertex -14.675609224949081 -146.88354165579852 5.0
    vertex -13.633056057073304 -147.69205227578382 0.0
  endloop
endfacet
facet normal -0.7140048874740682 -0.7001407149017569 0.0
  outer loop
    vertex -12.558587996303372 -148.78779693181653 0.0
    vertex -12.558587996303372 -148.78779693181653 5.0
    vertex -13.633056057073304 -147.69205227578382 0.0
  endloop
endfacet
facet normal -0.7140048874740682 -0.7001407149017569 0.0
  outer loop
    vertex -13.633056057073304 -147.69205227578382 5.0
    vertex -13.633056057073304 -147.69205227578382 0.0
    vertex -12.558587996303372 -148.78779693181653 5.0
  endloop
endfacet
facet normal -0.2248595066987588 -0.9743911956946197 0.0
  outer loop
    vertex -12.558587996303372 -148.78779693181653 0.0
    vertex -11.313907173431275 -149.0750309678639 0.0
    vertex -12.558587996303372 -148.78779693181653 5.0
  endloop
endfacet
facet normal -0.2248595066987588 -0.9743911956946197 0.0
  outer loop
    vertex -11.313907173431275 -149.0750309678639 5.0
    vertex -12.558587996303372 -148.78779693181653 5.0
    vertex -11.313907173431275 -149.0750309678639 0.0
  endloop
endfacet
facet normal 0.22937160557575048 -0.9733389268675133 0.0
  outer loop
    vertex -11.313907173431275 -149.0750309678639 0.0
    vertex -10.016034011338435 -148.7691814402169 0.0
    vertex -11.313907173431275 -149.0750309678639 5.0
  endloop
endfacet
facet normal 0.22937160557575048 -0.9733389268675133 0.0
  outer loop
    vertex -10.016034011338435 -148.7691814402169 5.0
    vertex -11.313907173431275 -149.0750309678639 5.0
    vertex -10.016034011338435 -148.7691814402169 0.0
  endloop
endfacet
facet normal 0.6919062849403498 -0.7219873218139247 0.0
  outer loop
    vertex -10.016034011338435 -148.7691814402169 0.0
    vertex -9.058588075577548 -147.8516267402546 0.0
    vertex -10.016034011338435 -148.7691814402169 5.0
  endloop
endfacet
facet normal 0.6919062849403498 -0.7219873218139247 0.0
  outer loop
    vertex -9.058588075577548 -147.8516267402546 5.0
    vertex -10.016034011338435 -148.7691814402169 5.0
    vertex -9.058588075577548 -147.8516267402546 0.0
  endloop
endfacet
facet normal 0.9298417362359335 -0.36795970642686515 0.0
  outer loop
    vertex -9.058588075577548 -147.8516267402546 5.0
    vertex -9.058588075577548 -147.8516267402546 0.0
    vertex -8.468161572993129 -146.35960684053785 5.0
  endloop
endfacet
facet normal 0.9298417362359335 -0.36795970642686515 0.0
  outer loop
    vertex -8.468161572993129 -146.35960684053785 0.0
    vertex -8.468161572993129 -146.35960684053785 5.0
    vertex -9.058588075577548 -147.8516267402546 0.0
  endloop
endfacet
facet normal 0.9953298716359994 -0.09653210154692039 0.0
  outer loop
    vertex -8.468161572993129 -146.35960684053785 5.0
    vertex -8.468161572993129 -146.35960684053785 0.0
    vertex -8.271354050855026 -144.330350224266 5.0
  endloop
endfacet
facet normal 0.9953298716359994 -0.09653210154692039 0.0
  outer loop
    vertex -8.271354050855026 -144.330350224266 0.0
    vertex -8.271354050855026 -144.330350224266 5.0
    vertex -8.468161572993129 -146.35960684053785 0.0
  endloop
endfacet
facet normal 0.995177861950943 0.0980868140105986 0.0
  outer loop
    vertex -8.271354050855026 -144.330350224266 5.0
    vertex -8.271354050855026 -144.330350224266 0.0
    vertex -8.52667191741256 -141.73992366059812 5.0
  endloop
endfacet
facet normal 0.995177861950943 0.0980868140105986 0.0
  outer loop
    vertex -8.52667191741256 -141.73992366059812 0.0
    vertex -8.52667191741256 -141.73992366059812 5.0
    vertex -8.271354050855026 -144.330350224266 0.0
  endloop
endfacet
facet normal 0.9422144605094535 0.3350103138813485 0.0
  outer loop
    vertex -8.52667191741256 -141.73992366059812 5.0
    vertex -8.52667191741256 -141.73992366059812 0.0
    vertex -9.292630623468028 -139.5856694806681 5.0
  endloop
endfacet
facet normal 0.9422144605094535 0.3350103138813485 0.0
  outer loop
    vertex -9.292630623468028 -139.5856694806681 0.0
    vertex -9.292630623468028 -139.5856694806681 5.0
    vertex -8.52667191741256 -141.73992366059812 0.0
  endloop
endfacet
facet normal 0.7686616924612432 0.639655534285929 0.0
  outer loop
    vertex -9.292630623468028 -139.5856694806681 5.0
    vertex -9.292630623468028 -139.5856694806681 0.0
    vertex -10.558588041602901 -138.06439291937997 5.0
  endloop
endfacet
facet normal 0.7686616924612432 0.639655534285929 0.0
  outer loop
    vertex -10.558588041602901 -138.06439291937997 0.0
    vertex -10.558588041602901 -138.06439291937997 5.0
    vertex -9.292630623468028 -139.5856694806681 0.0
  endloop
endfacet
facet normal 0.37941026458199756 0.9252285399455741 0.0
  outer loop
    vertex -10.558588041602901 -138.06439291937997 0.0
    vertex -12.037311412365483 -137.458009954391 0.0
    vertex -10.558588041602901 -138.06439291937997 5.0
  endloop
endfacet
facet normal 0.37941026458199756 0.9252285399455741 0.0
  outer loop
    vertex -12.037311412365483 -137.458009954391 5.0
    vertex -10.558588041602901 -138.06439291937997 5.0
    vertex -12.037311412365483 -137.458009954391 0.0
  endloop
endfacet
facet normal -0.3274318594991759 0.9448747945547664 0.0
  outer loop
    vertex -12.037311412365483 -137.458009954391 0.0
    vertex -14.186247533905354 -138.20269078858797 0.0
    vertex -12.037311412365483 -137.458009954391 5.0
  endloop
endfacet
facet normal -0.3274318594991759 0.9448747945547664 0.0
  outer loop
    vertex -14.186247533905354 -138.20269078858797 5.0
    vertex -12.037311412365483 -137.458009954391 5.0
    vertex -14.186247533905354 -138.20269078858797 0.0
  endloop
endfacet
facet normal -0.15923243882462054 0.9872411207126472 0.0
  outer loop
    vertex -14.186247533905354 -138.20269078858797 0.0
    vertex -16.82454534648895 -138.62822269384338 0.0
    vertex -14.186247533905354 -138.20269078858797 5.0
  endloop
endfacet
facet normal -0.15923243882462054 0.9872411207126472 0.0
  outer loop
    vertex -16.82454534648895 -138.62822269384338 5.0
    vertex -14.186247533905354 -138.20269078858797 5.0
    vertex -16.82454534648895 -138.62822269384338 0.0
  endloop
endfacet
facet normal 0.0 1.0 0.0
  outer loop
    vertex -16.82454534648895 -138.62822269384338 0.0
    vertex -30.505396100450675 -138.62822269384338 0.0
    vertex -16.82454534648895 -138.62822269384338 5.0
  endloop
endfacet
facet normal 0.0 1.0 0.0
  outer loop
    vertex -30.505396100450675 -138.62822269384338 5.0
    vertex -16.82454534648895 -138.62822269384338 5.0
    vertex -30.505396100450675 -138.62822269384338 0.0
  endloop
endfacet
facet normal -0.24493468257365822 0.9695395821071676 0.0
  outer loop
    vertex -30.505396100450675 -138.62822269384338 0.0
    vertex -32.02135603951879 -139.0111994936797 0.0
    vertex -30.505396100450675 -138.62822269384338 5.0
  endloop
endfacet
facet normal -0.24493468257365822 0.9695395821071676 0.0
  outer loop
    vertex -32.02135603951879 -139.0111994936797 5.0
    vertex -30.505396100450675 -138.62822269384338 5.0
    vertex -32.02135603951879 -139.0111994936797 0.0
  endloop
endfacet
facet normal -0.7840469320563591 0.6207015452961359 0.0
  outer loop
    vertex -32.400343813514596 -139.48992264773034 0.0
    vertex -32.400343813514596 -139.48992264773034 5.0
    vertex -32.02135603951879 -139.0111994936797 0.0
  endloop
endfacet
facet normal -0.7840469320563591 0.6207015452961359 0.0
  outer loop
    vertex -32.02135603951879 -139.0111994936797 5.0
    vertex -32.02135603951879 -139.0111994936797 0.0
    vertex -32.400343813514596 -139.48992264773034 5.0
  endloop
endfacet
facet normal -0.982695512037907 0.18522832024438413 0.0
  outer loop
    vertex -32.526672650413914 -140.1601375527629 0.0
    vertex -32.526672650413914 -140.1601375527629 5.0
    vertex -32.400343813514596 -139.48992264773034 0.0
  endloop
endfacet
facet normal -0.982695512037907 0.18522832024438413 0.0
  outer loop
    vertex -32.400343813514596 -139.48992264773034 5.0
    vertex -32.400343813514596 -139.48992264773034 0.0
    vertex -32.526672650413914 -140.1601375527629 5.0
  endloop
endfacet
facet normal -0.9858211697841275 -0.16779934804835975 0.0
  outer loop
    vertex -32.35645988831175 -141.16013753011313 0.0
    vertex -32.35645988831175 -141.16013753011313 5.0
    vertex -32.526672650413914 -140.1601375527629 0.0
  endloop
endfacet
facet normal -0.9858211697841275 -0.16779934804835975 0.0
  outer loop
    vertex -32.526672650413914 -140.1601375527629 5.0
    vertex -32.526672650413914 -140.1601375527629 0.0
    vertex -32.35645988831175 -141.16013753011313 5.0
  endloop
endfacet
facet normal 0.0 0.0 1.0
  outer loop
    vertex -15.016034749153418 -165.92609441597853 5.0
    vertex -15.186247511255583 -165.39417953440923 5.0
    vertex -15.518691798938567 -166.7612009662125 5.0
  endloop
endfacet
facet normal 0.0 0.0 1.0
  outer loop
    vertex -23.12241754426915 -150.22396711205354 5.0
    vertex -15.518691798938567 -166.7612009662125 5.0
    vertex -15.186247511255583 -165.39417953440923 5.0
  endloop
endfacet
facet normal 0.0 0.0 1.0
  outer loop
    vertex -17.02667300148527 -167.52183906068635 5.0
    vertex -15.518691798938567 -166.7612009662125 5.0
    vertex -23.12241754426915 -150.22396711205354 5.0
  endloop
endfacet
facet normal 0.0 0.0 1.0
  outer loop
    vertex -19.146353259326077 -168.06439314414231 5.0
    vertex -17.02667300148527 -167.52183906068635 5.0
    vertex -23.12241754426915 -150.22396711205354 5.0
  endloop
endfacet
facet normal 0.0 0.0 1.0
  outer loop
    vertex -21.484119709035788 -168.24524329962057 5.0
    vertex -19.146353259326077 -168.06439314414231 5.0
    vertex -23.12241754426915 -150.22396711205354 5.0
  endloop
endfacet
facet normal 0.0 0.0 1.0
  outer loop
    vertex -23.05858775848084 -168.05375394225564 5.0
    vertex -21.484119709035788 -168.24524329962057 5.0
    vertex -23.12241754426915 -150.22396711205354 5.0
  endloop
endfacet
facet normal 0.0 0.0 1.0
  outer loop
    vertex -23.71816221162674 -167.33034970332142 5.0
    vertex -23.05858775848084 -168.05375394225564 5.0
    vertex -23.12241754426915 -150.22396711205354 5.0
  endloop
endfacet
facet normal 0.0 0.0 1.0
  outer loop
    vertex -23.99475795004276 -147.88354163314875 5.0
    vertex -23.71816221162674 -167.33034970332142 5.0
    vertex -23.12241754426915 -150.22396711205354 5.0
  endloop
endfacet
facet normal 0.0 0.0 1.0
  outer loop
    vertex -32.35645988831175 -141.16013753011313 5.0
    vertex -23.71816221162674 -167.33034970332142 5.0
    vertex -23.99475795004276 -147.88354163314875 5.0
  endloop
endfacet
facet normal 0.0 0.0 1.0
  outer loop
    vertex -26.845103507508508 -145.25702508032126 4.999999999999995
    vertex -32.35645988831175 -141.16013753011313 5.0
    vertex -23.99475795004276 -147.88354163314875 5.0
  endloop
endfacet
facet normal 0.0 0.0 1.0
  outer loop
    vertex -26.314505406734053 -145.47680600983145 4.999999999999995
    vertex -26.845103507508508 -145.25702508032126 4.999999999999995
    vertex -23.99475795004276 -147.88354163314875 5.0
  endloop
endfacet
facet normal 0.0 0.0 1.0
  outer loop
    vertex -25.74510350750851 -145.5517691919955 4.999999999999995
    vertex -26.314505406734053 -145.47680600983145 4.999999999999995
    vertex -23.99475795004276 -147.88354163314875 5.0
  endloop
endfacet
facet normal 0.0 0.0 1.0
  outer loop
    vertex -25.17570160828297 -145.47680600983145 4.999999999999995
    vertex -25.74510350750851 -145.5517691919955 4.999999999999995
    vertex -23.99475795004276 -147.88354163314875 5.0
  endloop
endfacet
facet normal 0.0 0.0 1.0
  outer loop
    vertex -24.645103507508512 -145.25702508032126 4.999999999999995
    vertex -25.17570160828297 -145.47680600983145 4.999999999999995
    vertex -23.99475795004276 -147.88354163314875 5.0
  endloop
endfacet
facet normal 0.0 0.0 1.0
  outer loop
    vertex -24.18946858889811 -144.90740411060588 4.999999999999995
    vertex -24.645103507508512 -145.25702508032126 4.999999999999995
    vertex -23.99475795004276 -147.88354163314875 5.0
  endloop
endfacet
facet normal 0.0 0.0 1.0
  outer loop
    vertex -27.30073842611891 -144.9074041106059 4.999999999999995
    vertex -32.35645988831175 -141.16013753011313 5.0
    vertex -26.845103507508508 -145.25702508032126 4.999999999999995
  endloop
endfacet
facet normal 0.0 0.0 1.0
  outer loop
    vertex -27.65035939583427 -144.45176919199548 4.999999999999995
    vertex -32.35645988831175 -141.16013753011313 5.0
    vertex -27.30073842611891 -144.9074041106059 4.999999999999995
  endloop
endfacet
facet normal 0.0 0.0 1.0
  outer loop
    vertex -27.870140325344458 -143.92117109122105 4.999999999999995
    vertex -32.35645988831175 -141.16013753011313 5.0
    vertex -27.65035939583427 -144.45176919199548 4.999999999999995
  endloop
endfacet
facet normal 0.0 0.0 1.0
  outer loop
    vertex -27.945103507508506 -143.3517691919955 4.999999999999995
    vertex -32.35645988831175 -141.16013753011313 5.0
    vertex -27.870140325344458 -143.92117109122105 4.999999999999995
  endloop
endfacet
facet normal 0.0 0.0 1.0
  outer loop
    vertex -30.505396100450675 -138.62822269384338 5.0
    vertex -32.35645988831175 -141.16013753011313 5.0
    vertex -27.945103507508506 -143.3517691919955 4.999999999999995
  endloop
endfacet
facet normal 0.0 0.0 1.0
  outer loop
    vertex -32.02135603951879 -139.0111994936797 5.0
    vertex -32.35645988831175 -141.16013753011313 5.0
    vertex -30.505396100450675 -138.62822269384338 5.0
  endloop
endfacet
facet normal 0.0 0.0 1.0
  outer loop
    vertex -32.400343813514596 -139.48992264773034 5.0
    vertex -32.35645988831175 -141.16013753011313 5.0
    vertex -32.02135603951879 -139.0111994936797 5.0
  endloop
endfacet
facet normal 0.0 0.0 1.0
  outer loop
    vertex -32.526672650413914 -140.1601375527629 5.0
    vertex -32.35645988831175 -141.16013753011313 5.0
    vertex -32.400343813514596 -139.48992264773034 5.0
  endloop
endfacet
facet normal 0.0 0.0 1.0
  outer loop
    vertex -8.271354050855026 -144.330350224266 5.0
    vertex -8.52667191741256 -141.73992366059812 5.0
    vertex -8.468161572993129 -146.35960684053785 5.0
  endloop
endfacet
facet normal 0.0 0.0 1.0
  outer loop
    vertex -9.058588075577548 -147.8516267402546 5.0
    vertex -8.468161572993129 -146.35960684053785 5.0
    vertex -8.52667191741256 -141.73992366059812 5.0
  endloop
endfacet
facet normal 0.0 0.0 1.0
  outer loop
    vertex -9.292630623468028 -139.5856694806681 5.0
    vertex -9.058588075577548 -147.8516267402546 5.0
    vertex -8.52667191741256 -141.73992366059812 5.0
  endloop
endfacet
facet normal 0.0 0.0 1.0
  outer loop
    vertex -10.016034011338435 -148.7691814402169 5.0
    vertex -9.058588075577548 -147.8516267402546 5.0
    vertex -9.292630623468028 -139.5856694806681 5.0
  endloop
endfacet
facet normal 0.0 0.0 1.0
  outer loop
    vertex -10.558588041602901 -138.06439291937997 5.0
    vertex -10.016034011338435 -148.7691814402169 5.0
    vertex -9.292630623468028 -139.5856694806681 5.0
  endloop
endfacet
facet normal 0.0 0.0 1.0
  outer loop
    vertex -11.313907173431275 -149.0750309678639 5.0
    vertex -10.016034011338435 -148.7691814402169 5.0
    vertex -10.558588041602901 -138.06439291937997 5.0
  endloop
endfacet
facet normal 0.0 0.0 1.0
  outer loop
    vertex -12.037311412365483 -137.458009954391 5.0
    vertex -11.313907173431275 -149.0750309678639 5.0
    vertex -10.558588041602901 -138.06439291937997 5.0
  endloop
endfacet
facet normal 0.0 0.0 1.0
  outer loop
    vertex -12.558587996303372 -148.78779693181653 5.0
    vertex -11.313907173431275 -149.0750309678639 5.0
    vertex -12.037311412365483 -137.458009954391 5.0
  endloop
endfacet
facet normal 0.0 0.0 1.0
  outer loop
    vertex -14.186247533905354 -138.20269078858797 5.0
    vertex -12.558587996303372 -148.78779693181653 5.0
    vertex -12.037311412365483 -137.458009954391 5.0
  endloop
endfacet
facet normal 0.0 0.0 1.0
  outer loop
    vertex -13.633056057073304 -147.69205227578382 5.0
    vertex -12.558587996303372 -148.78779693181653 5.0
    vertex -14.186247533905354 -138.20269078858797 5.0
  endloop
endfacet
facet normal 0.0 0.0 1.0
  outer loop
    vertex -14.675609224949081 -146.88354165579852 5.0
    vertex -13.633056057073304 -147.69205227578382 5.0
    vertex -14.186247533905354 -138.20269078858797 5.0
  endloop
endfacet
facet normal 0.0 0.0 1.0
  outer loop
    vertex -16.82454534648895 -138.62822269384338 5.0
    vertex -14.675609224949081 -146.88354165579852 5.0
    vertex -14.186247533905354 -138.20269078858797 5.0
  endloop
endfacet
facet normal 0.0 0.0 1.0
  outer loop
    vertex -19.292630396970377 -146.47928634580586 5.0
    vertex -14.675609224949081 -146.88354165579852 5.0
    vertex -16.82454534648895 -138.62822269384338 5.0
  endloop
endfacet
facet normal 0.0 0.0 1.0
  outer loop
    vertex -24.18946858889811 -141.7961342733851 4.999999999999995
    vertex -19.292630396970377 -146.47928634580586 5.0
    vertex -16.82454534648895 -138.62822269384338 5.0
  endloop
endfacet
facet normal 0.0 0.0 1.0
  outer loop
    vertex -24.645103507508512 -141.44651330366975 4.999999999999995
    vertex -24.18946858889811 -141.7961342733851 4.999999999999995
    vertex -16.82454534648895 -138.62822269384338 5.0
  endloop
endfacet
facet normal 0.0 0.0 1.0
  outer loop
    vertex -30.505396100450675 -138.62822269384338 5.0
    vertex -24.645103507508512 -141.44651330366975 4.999999999999995
    vertex -16.82454534648895 -138.62822269384338 5.0
  endloop
endfacet
facet normal 0.0 0.0 1.0
  outer loop
    vertex -23.839847619182752 -142.2517691919955 4.999999999999995
    vertex -19.292630396970377 -146.47928634580586 5.0
    vertex -24.18946858889811 -141.7961342733851 4.999999999999995
  endloop
endfacet
facet normal 0.0 0.0 1.0
  outer loop
    vertex -23.62006668967257 -142.78236729276995 4.999999999999995
    vertex -19.292630396970377 -146.47928634580586 5.0
    vertex -23.839847619182752 -142.2517691919955 4.999999999999995
  endloop
endfacet
facet normal 0.0 0.0 1.0
  outer loop
    vertex -22.99475797269253 -146.77715867948467 5.0
    vertex -19.292630396970377 -146.47928634580586 5.0
    vertex -23.62006668967257 -142.78236729276995 4.999999999999995
  endloop
endfacet
facet normal 0.0 0.0 1.0
  outer loop
    vertex -23.545103507508514 -143.3517691919955 4.999999999999995
    vertex -22.99475797269253 -146.77715867948467 5.0
    vertex -23.62006668967257 -142.78236729276995 4.999999999999995
  endloop
endfacet
facet normal 0.0 0.0 1.0
  outer loop
    vertex -25.17570160828297 -141.22673237415955 4.999999999999995
    vertex -24.645103507508512 -141.44651330366975 4.999999999999995
    vertex -30.505396100450675 -138.62822269384338 5.0
  endloop
endfacet
facet normal 0.0 0.0 1.0
  outer loop
    vertex -25.74510350750851 -141.1517691919955 4.999999999999995
    vertex -25.17570160828297 -141.22673237415955 4.999999999999995
    vertex -30.505396100450675 -138.62822269384338 5.0
  endloop
endfacet
facet normal 0.0 0.0 1.0
  outer loop
    vertex -26.314505406734053 -141.22673237415955 4.999999999999995
    vertex -25.74510350750851 -141.1517691919955 4.999999999999995
    vertex -30.505396100450675 -138.62822269384338 5.0
  endloop
endfacet
facet normal 0.0 0.0 1.0
  outer loop
    vertex -26.845103507508508 -141.44651330366975 4.999999999999995
    vertex -26.314505406734053 -141.22673237415955 4.999999999999995
    vertex -30.505396100450675 -138.62822269384338 5.0
  endloop
endfacet
facet normal 0.0 0.0 1.0
  outer loop
    vertex -27.30073842611891 -141.7961342733851 4.999999999999995
    vertex -26.845103507508508 -141.44651330366975 4.999999999999995
    vertex -30.505396100450675 -138.62822269384338 5.0
  endloop
endfacet
facet normal 0.0 0.0 1.0
  outer loop
    vertex -27.650359395834275 -142.2517691919955 4.999999999999995
    vertex -27.30073842611891 -141.7961342733851 4.999999999999995
    vertex -30.505396100450675 -138.62822269384338 5.0
  endloop
endfacet
facet normal 0.0 0.0 1.0
  outer loop
    vertex -27.870140325344458 -142.78236729276995 4.999999999999995
    vertex -27.650359395834275 -142.2517691919955 4.999999999999995
    vertex -30.505396100450675 -138.62822269384338 5.0
  endloop
endfacet
facet normal 0.0 0.0 1.0
  outer loop
    vertex -27.945103507508506 -143.3517691919955 4.999999999999995
    vertex -27.870140325344458 -142.78236729276995 4.999999999999995
    vertex -30.505396100450675 -138.62822269384338 5.0
  endloop
endfacet
facet normal 0.0 0.0 1.0
  outer loop
    vertex -22.99475797269253 -146.77715867948467 5.0
    vertex -23.545103507508514 -143.3517691919955 4.999999999999995
    vertex -23.744759205705176 -147.20268994644223 5.0
  endloop
endfacet
facet normal 0.0 0.0 1.0
  outer loop
    vertex -23.62006668967257 -143.92117109122105 4.999999999999995
    vertex -23.744759205705176 -147.20268994644223 5.0
    vertex -23.545103507508514 -143.3517691919955 4.999999999999995
  endloop
endfacet
facet normal 0.0 0.0 1.0
  outer loop
    vertex -23.839847619182752 -144.45176919199548 4.999999999999995
    vertex -23.744759205705176 -147.20268994644223 5.0
    vertex -23.62006668967257 -143.92117109122105 4.999999999999995
  endloop
endfacet
facet normal 0.0 0.0 1.0
  outer loop
    vertex -23.99475795004276 -147.88354163314875 5.0
    vertex -23.744759205705176 -147.20268994644223 5.0
    vertex -23.839847619182752 -144.45176919199548 4.999999999999995
  endloop
endfacet
facet normal 0.0 0.0 1.0
  outer loop
    vertex -24.18946858889811 -144.90740411060588 4.999999999999995
    vertex -23.99475795004276 -147.88354163314875 5.0
    vertex -23.839847619182752 -144.45176919199548 4.999999999999995
  endloop
endfacet
facet normal -0.9496056713270833 -0.31344707525105353 0.0
  outer loop
    vertex -23.71816221162674 -167.33034970332142 0.0
    vertex -23.71816221162674 -167.33034970332142 5.0
    vertex -32.35645988831175 -141.16013753011313 0.0
  endloop
endfacet
facet normal -0.9496056713270833 -0.31344707525105353 0.0
  outer loop
    vertex -32.35645988831175 -141.16013753011313 5.0
    vertex -32.35645988831175 -141.16013753011313 0.0
    vertex -23.71816221162674 -167.33034970332142 5.0
  endloop
endfacet
facet normal -0.7389558439133297 -0.6737538576856824 0.0
  outer loop
    vertex -23.05858775848084 -168.05375394225564 0.0
    vertex -23.05858775848084 -168.05375394225564 5.0
    vertex -23.71816221162674 -167.33034970332142 0.0
  endloop
endfacet
facet normal -0.7389558439133297 -0.6737538576856824 0.0
  outer loop
    vertex -23.71816221162674 -167.33034970332142 5.0
    vertex -23.71816221162674 -167.33034970332142 0.0
    vertex -23.05858775848084 -168.05375394225564 5.0
  endloop
endfacet
facet normal 0.0 0.0 -1.0
  outer loop
    vertex -8.271354050855026 -144.330350224266 0.0
    vertex -8.468161572993129 -146.35960684053785 0.0
    vertex -8.52667191741256 -141.73992366059812 0.0
  endloop
endfacet
facet normal 0.0 0.0 -1.0
  outer loop
    vertex -9.058588075577548 -147.8516267402546 0.0
    vertex -8.52667191741256 -141.73992366059812 0.0
    vertex -8.468161572993129 -146.35960684053785 0.0
  endloop
endfacet
facet normal 0.0 0.0 -1.0
  outer loop
    vertex -9.292630623468028 -139.5856694806681 0.0
    vertex -8.52667191741256 -141.73992366059812 0.0
    vertex -9.058588075577548 -147.8516267402546 0.0
  endloop
endfacet
facet normal 0.0 0.0 -1.0
  outer loop
    vertex -10.016034011338435 -148.7691814402169 0.0
    vertex -9.292630623468028 -139.5856694806681 0.0
    vertex -9.058588075577548 -147.8516267402546 0.0
  endloop
endfacet
facet normal 0.0 0.0 -1.0
  outer loop
    vertex -10.558588041602901 -138.06439291937997 0.0
    vertex -9.292630623468028 -139.5856694806681 0.0
    vertex -10.016034011338435 -148.7691814402169 0.0
  endloop
endfacet
facet normal 0.0 0.0 -1.0
  outer loop
    vertex -11.313907173431275 -149.0750309678639 0.0
    vertex -10.558588041602901 -138.06439291937997 0.0
    vertex -10.016034011338435 -148.7691814402169 0.0
  endloop
endfacet
facet normal 0.0 0.0 -1.0
  outer loop
    vertex -12.037311412365483 -137.458009954391 0.0
    vertex -10.558588041602901 -138.06439291937997 0.0
    vertex -11.313907173431275 -149.0750309678639 0.0
  endloop
endfacet
facet normal 0.0 0.0 -1.0
  outer loop
    vertex -12.558587996303372 -148.78779693181653 0.0
    vertex -12.037311412365483 -137.458009954391 0.0
    vertex -11.313907173431275 -149.0750309678639 0.0
  endloop
endfacet
facet normal 0.0 0.0 -1.0
  outer loop
    vertex -14.186247533905354 -138.20269078858797 0.0
    vertex -12.037311412365483 -137.458009954391 0.0
    vertex -12.558587996303372 -148.78779693181653 0.0
  endloop
endfacet
facet normal 0.0 0.0 -1.0
  outer loop
    vertex -13.633056057073304 -147.69205227578382 0.0
    vertex -14.186247533905354 -138.20269078858797 0.0
    vertex -12.558587996303372 -148.78779693181653 0.0
  endloop
endfacet
facet normal 0.0 0.0 -1.0
  outer loop
    vertex -14.675609224949081 -146.88354165579852 0.0
    vertex -14.186247533905354 -138.20269078858797 0.0
    vertex -13.633056057073304 -147.69205227578382 0.0
  endloop
endfacet
facet normal 0.0 0.0 -1.0
  outer loop
    vertex -16.82454534648895 -138.62822269384338 0.0
    vertex -14.186247533905354 -138.20269078858797 0.0
    vertex -14.675609224949081 -146.88354165579852 0.0
  endloop
endfacet
facet normal 0.0 0.0 -1.0
  outer loop
    vertex -19.292630396970377 -146.47928634580586 0.0
    vertex -16.82454534648895 -138.62822269384338 0.0
    vertex -14.675609224949081 -146.88354165579852 0.0
  endloop
endfacet
facet normal 0.0 0.0 -1.0
  outer loop
    vertex -30.505396100450675 -138.62822269384338 0.0
    vertex -16.82454534648895 -138.62822269384338 0.0
    vertex -19.292630396970377 -146.47928634580586 0.0
  endloop
endfacet
facet normal 0.0 0.0 -1.0
  outer loop
    vertex -22.99475797269253 -146.77715867948467 0.0
    vertex -30.505396100450675 -138.62822269384338 0.0
    vertex -19.292630396970377 -146.47928634580586 0.0
  endloop
endfacet
facet normal 0.0 0.0 -1.0
  outer loop
    vertex -23.744759205705176 -147.20268994644223 0.0
    vertex -30.505396100450675 -138.62822269384338 0.0
    vertex -22.99475797269253 -146.77715867948467 0.0
  endloop
endfacet
facet normal 0.0 0.0 -1.0
  outer loop
    vertex -23.99475795004276 -147.88354163314875 0.0
    vertex -30.505396100450675 -138.62822269384338 0.0
    vertex -23.744759205705176 -147.20268994644223 0.0
  endloop
endfacet
facet normal 0.0 0.0 -1.0
  outer loop
    vertex -15.016034749153418 -165.92609441597853 0.0
    vertex -15.518691798938567 -166.7612009662125 0.0
    vertex -15.186247511255583 -165.39417953440923 0.0
  endloop
endfacet
facet normal 0.0 0.0 -1.0
  outer loop
    vertex -23.12241754426915 -150.22396711205354 0.0
    vertex -15.186247511255583 -165.39417953440923 0.0
    vertex -15.518691798938567 -166.7612009662125 0.0
  endloop
endfacet
facet normal 0.0 0.0 -1.0
  outer loop
    vertex -17.02667300148527 -167.52183906068635 0.0
    vertex -23.12241754426915 -150.22396711205354 0.0
    vertex -15.518691798938567 -166.7612009662125 0.0
  endloop
endfacet
facet normal 0.0 0.0 -1.0
  outer loop
    vertex -19.146353259326077 -168.06439314414231 0.0
    vertex -23.12241754426915 -150.22396711205354 0.0
    vertex -17.02667300148527 -167.52183906068635 0.0
  endloop
endfacet
facet normal 0.0 0.0 -1.0
  outer loop
    vertex -21.484119709035788 -168.24524329962057 0.0
    vertex -23.12241754426915 -150.22396711205354 0.0
    vertex -19.146353259326077 -168.06439314414231 0.0
  endloop
endfacet
facet normal 0.0 0.0 -1.0
  outer loop
    vertex -23.05858775848084 -168.05375394225564 0.0
    vertex -23.12241754426915 -150.22396711205354 0.0
    vertex -21.484119709035788 -168.24524329962057 0.0
  endloop
endfacet
facet normal 0.0 0.0 -1.0
  outer loop
    vertex -23.71816221162674 -167.33034970332142 0.0
    vertex -23.12241754426915 -150.22396711205354 0.0
    vertex -23.05858775848084 -168.05375394225564 0.0
  endloop
endfacet
facet normal 0.0 0.0 -1.0
  outer loop
    vertex -23.99475795004276 -147.88354163314875 0.0
    vertex -23.12241754426915 -150.22396711205354 0.0
    vertex -23.71816221162674 -167.33034970332142 0.0
  endloop
endfacet
facet normal 0.0 0.0 -1.0
  outer loop
    vertex -32.35645988831175 -141.16013753011313 0.0
    vertex -23.99475795004276 -147.88354163314875 0.0
    vertex -23.71816221162674 -167.33034970332142 0.0
  endloop
endfacet
facet normal 0.0 0.0 -1.0
  outer loop
    vertex -30.505396100450675 -138.62822269384338 0.0
    vertex -23.99475795004276 -147.88354163314875 0.0
    vertex -32.35645988831175 -141.16013753011313 0.0
  endloop
endfacet
facet normal 0.0 0.0 -1.0
  outer loop
    vertex -32.02135603951879 -139.0111994936797 0.0
    vertex -30.505396100450675 -138.62822269384338 0.0
    vertex -32.35645988831175 -141.16013753011313 0.0
  endloop
endfacet
facet normal 0.0 0.0 -1.0
  outer loop
    vertex -32.400343813514596 -139.48992264773034 0.0
    vertex -32.02135603951879 -139.0111994936797 0.0
    vertex -32.35645988831175 -141.16013753011313 0.0
  endloop
endfacet
facet normal 0.0 0.0 -1.0
  outer loop
    vertex -32.526672650413914 -140.1601375527629 0.0
    vertex -32.400343813514596 -139.48992264773034 0.0
    vertex -32.35645988831175 -141.16013753011313 0.0
  endloop
endfacet
facet normal -0.9238795325112851 0.382683432365094 0.0
  outer loop
    vertex -23.839847619182752 -144.45176919199548 2.8999999999999946
    vertex -23.839847619182752 -144.45176919199548 4.999999999999995
    vertex -23.62006668967257 -143.92117109122105 2.8999999999999946
  endloop
endfacet
facet normal -0.9238795325112851 0.382683432365094 0.0
  outer loop
    vertex -23.62006668967257 -143.92117109122105 4.999999999999995
    vertex -23.62006668967257 -143.92117109122105 2.8999999999999946
    vertex -23.839847619182752 -144.45176919199548 4.999999999999995
  endloop
endfacet
facet normal -0.1305261922200586 0.9914448613738096 0.0
  outer loop
    vertex -25.17570160828297 -145.47680600983145 2.8999999999999946
    vertex -25.74510350750851 -145.5517691919955 2.8999999999999946
    vertex -25.17570160828297 -145.47680600983145 4.999999999999995
  endloop
endfacet
facet normal -0.1305261922200586 0.9914448613738096 0.0
  outer loop
    vertex -25.74510350750851 -145.5517691919955 4.999999999999995
    vertex -25.17570160828297 -145.47680600983145 4.999999999999995
    vertex -25.74510350750851 -145.5517691919955 2.8999999999999946
  endloop
endfacet
facet normal 0.9238795325112851 -0.382683432365094 0.0
  outer loop
    vertex -27.870140325344458 -142.78236729276995 4.999999999999995
    vertex -27.870140325344458 -142.78236729276995 2.8999999999999946
    vertex -27.650359395834275 -142.2517691919955 4.999999999999995
  endloop
endfacet
facet normal 0.9238795325112851 -0.382683432365094 0.0
  outer loop
    vertex -27.650359395834275 -142.2517691919955 2.8999999999999946
    vertex -27.650359395834275 -142.2517691919955 4.999999999999995
    vertex -27.870140325344458 -142.78236729276995 2.8999999999999946
  endloop
endfacet
facet normal 0.3826834323650871 0.923879532511288 0.0
  outer loop
    vertex -26.314505406734053 -145.47680600983145 2.8999999999999946
    vertex -26.845103507508508 -145.25702508032126 2.8999999999999946
    vertex -26.314505406734053 -145.47680600983145 4.999999999999995
  endloop
endfacet
facet normal 0.3826834323650871 0.923879532511288 0.0
  outer loop
    vertex -26.845103507508508 -145.25702508032126 4.999999999999995
    vertex -26.314505406734053 -145.47680600983145 4.999999999999995
    vertex -26.845103507508508 -145.25702508032126 2.8999999999999946
  endloop
endfacet
facet normal 0.3826834323650871 -0.923879532511288 0.0
  outer loop
    vertex -26.845103507508508 -141.44651330366975 2.8999999999999946
    vertex -26.314505406734053 -141.22673237415955 2.8999999999999946
    vertex -26.845103507508508 -141.44651330366975 4.999999999999995
  endloop
endfacet
facet normal 0.3826834323650871 -0.923879532511288 0.0
  outer loop
    vertex -26.314505406734053 -141.22673237415955 4.999999999999995
    vertex -26.845103507508508 -141.44651330366975 4.999999999999995
    vertex -26.314505406734053 -141.22673237415955 2.8999999999999946
  endloop
endfacet
facet normal 0.9238795325112817 0.38268343236510244 0.0
  outer loop
    vertex -27.65035939583427 -144.45176919199548 4.999999999999995
    vertex -27.65035939583427 -144.45176919199548 2.8999999999999946
    vertex -27.870140325344458 -143.92117109122105 4.999999999999995
  endloop
endfacet
facet normal 0.9238795325112817 0.38268343236510244 0.0
  outer loop
    vertex -27.870140325344458 -143.92117109122105 2.8999999999999946
    vertex -27.870140325344458 -143.92117109122105 4.999999999999995
    vertex -27.65035939583427 -144.45176919199548 2.8999999999999946
  endloop
endfacet
facet normal -0.6087614290087049 -0.7933533402912475 0.0
  outer loop
    vertex -24.645103507508512 -141.44651330366975 2.8999999999999946
    vertex -24.18946858889811 -141.7961342733851 2.8999999999999946
    vertex -24.645103507508512 -141.44651330366975 4.999999999999995
  endloop
endfacet
facet normal -0.6087614290087049 -0.7933533402912475 0.0
  outer loop
    vertex -24.18946858889811 -141.7961342733851 4.999999999999995
    vertex -24.645103507508512 -141.44651330366975 4.999999999999995
    vertex -24.18946858889811 -141.7961342733851 2.8999999999999946
  endloop
endfacet
facet normal -0.7933533402912306 0.6087614290087267 0.0
  outer loop
    vertex -24.18946858889811 -144.90740411060588 2.8999999999999946
    vertex -24.18946858889811 -144.90740411060588 4.999999999999995
    vertex -23.839847619182752 -144.45176919199548 2.8999999999999946
  endloop
endfacet
facet normal -0.7933533402912306 0.6087614290087267 0.0
  outer loop
    vertex -23.839847619182752 -144.45176919199548 4.999999999999995
    vertex -23.839847619182752 -144.45176919199548 2.8999999999999946
    vertex -24.18946858889811 -144.90740411060588 4.999999999999995
  endloop
endfacet
facet normal 0.1305261922200586 0.9914448613738096 0.0
  outer loop
    vertex -25.74510350750851 -145.5517691919955 2.8999999999999946
    vertex -26.314505406734053 -145.47680600983145 2.8999999999999946
    vertex -25.74510350750851 -145.5517691919955 4.999999999999995
  endloop
endfacet
facet normal 0.1305261922200586 0.9914448613738096 0.0
  outer loop
    vertex -26.314505406734053 -145.47680600983145 4.999999999999995
    vertex -25.74510350750851 -145.5517691919955 4.999999999999995
    vertex -26.314505406734053 -145.47680600983145 2.8999999999999946
  endloop
endfacet
facet normal -0.9914448613738099 -0.13052619222005604 0.0
  outer loop
    vertex -23.545103507508514 -143.3517691919955 2.8999999999999946
    vertex -23.545103507508514 -143.3517691919955 4.999999999999995
    vertex -23.62006668967257 -142.78236729276995 2.8999999999999946
  endloop
endfacet
facet normal -0.9914448613738099 -0.13052619222005604 0.0
  outer loop
    vertex -23.62006668967257 -142.78236729276995 4.999999999999995
    vertex -23.62006668967257 -142.78236729276995 2.8999999999999946
    vertex -23.545103507508514 -143.3517691919955 4.999999999999995
  endloop
endfacet
facet normal -0.7933533402912453 -0.6087614290087077 0.0
  outer loop
    vertex -23.839847619182752 -142.2517691919955 2.8999999999999946
    vertex -23.839847619182752 -142.2517691919955 4.999999999999995
    vertex -24.18946858889811 -141.7961342733851 2.8999999999999946
  endloop
endfacet
facet normal -0.7933533402912453 -0.6087614290087077 0.0
  outer loop
    vertex -24.18946858889811 -141.7961342733851 4.999999999999995
    vertex -24.18946858889811 -141.7961342733851 2.8999999999999946
    vertex -23.839847619182752 -142.2517691919955 4.999999999999995
  endloop
endfacet
facet normal 0.6087614290087295 -0.7933533402912283 0.0
  outer loop
    vertex -27.30073842611891 -141.7961342733851 2.8999999999999946
    vertex -26.845103507508508 -141.44651330366975 2.8999999999999946
    vertex -27.30073842611891 -141.7961342733851 4.999999999999995
  endloop
endfacet
facet normal 0.6087614290087295 -0.7933533402912283 0.0
  outer loop
    vertex -26.845103507508508 -141.44651330366975 4.999999999999995
    vertex -27.30073842611891 -141.7961342733851 4.999999999999995
    vertex -26.845103507508508 -141.44651330366975 2.8999999999999946
  endloop
endfacet
facet normal -0.3826834323650871 0.923879532511288 0.0
  outer loop
    vertex -24.645103507508512 -145.25702508032126 2.8999999999999946
    vertex -25.17570160828297 -145.47680600983145 2.8999999999999946
    vertex -24.645103507508512 -145.25702508032126 4.999999999999995
  endloop
endfacet
facet normal -0.3826834323650871 0.923879532511288 0.0
  outer loop
    vertex -25.17570160828297 -145.47680600983145 4.999999999999995
    vertex -24.645103507508512 -145.25702508032126 4.999999999999995
    vertex -25.17570160828297 -145.47680600983145 2.8999999999999946
  endloop
endfacet
facet normal 0.6087614290087049 0.7933533402912475 0.0
  outer loop
    vertex -26.845103507508508 -145.25702508032126 2.8999999999999946
    vertex -27.30073842611891 -144.9074041106059 2.8999999999999946
    vertex -26.845103507508508 -145.25702508032126 4.999999999999995
  endloop
endfacet
facet normal 0.6087614290087049 0.7933533402912475 0.0
  outer loop
    vertex -27.30073842611891 -144.9074041106059 4.999999999999995
    vertex -26.845103507508508 -145.25702508032126 4.999999999999995
    vertex -27.30073842611891 -144.9074041106059 2.8999999999999946
  endloop
endfacet
facet normal 0.7933533402912453 0.6087614290087077 0.0
  outer loop
    vertex -27.30073842611891 -144.9074041106059 4.999999999999995
    vertex -27.30073842611891 -144.9074041106059 2.8999999999999946
    vertex -27.65035939583427 -144.45176919199548 4.999999999999995
  endloop
endfacet
facet normal 0.7933533402912453 0.6087614290087077 0.0
  outer loop
    vertex -27.65035939583427 -144.45176919199548 2.8999999999999946
    vertex -27.65035939583427 -144.45176919199548 4.999999999999995
    vertex -27.30073842611891 -144.9074041106059 2.8999999999999946
  endloop
endfacet
facet normal 0.9914448613738113 -0.1305261922200464 0.0
  outer loop
    vertex -27.945103507508506 -143.3517691919955 4.999999999999995
    vertex -27.945103507508506 -143.3517691919955 2.8999999999999946
    vertex -27.870140325344458 -142.78236729276995 4.999999999999995
  endloop
endfacet
facet normal 0.9914448613738113 -0.1305261922200464 0.0
  outer loop
    vertex -27.870140325344458 -142.78236729276995 2.8999999999999946
    vertex -27.870140325344458 -142.78236729276995 4.999999999999995
    vertex -27.945103507508506 -143.3517691919955 2.8999999999999946
  endloop
endfacet
facet normal 0.9914448613738113 0.1305261922200464 0.0
  outer loop
    vertex -27.870140325344458 -143.92117109122105 4.999999999999995
    vertex -27.870140325344458 -143.92117109122105 2.8999999999999946
    vertex -27.945103507508506 -143.3517691919955 4.999999999999995
  endloop
endfacet
facet normal 0.9914448613738113 0.1305261922200464 0.0
  outer loop
    vertex -27.945103507508506 -143.3517691919955 2.8999999999999946
    vertex -27.945103507508506 -143.3517691919955 4.999999999999995
    vertex -27.870140325344458 -143.92117109122105 2.8999999999999946
  endloop
endfacet
facet normal -0.9914448613738099 0.13052619222005604 0.0
  outer loop
    vertex -23.62006668967257 -143.92117109122105 2.8999999999999946
    vertex -23.62006668967257 -143.92117109122105 4.999999999999995
    vertex -23.545103507508514 -143.3517691919955 2.8999999999999946
  endloop
endfacet
facet normal -0.9914448613738099 0.13052619222005604 0.0
  outer loop
    vertex -23.545103507508514 -143.3517691919955 4.999999999999995
    vertex -23.545103507508514 -143.3517691919955 2.8999999999999946
    vertex -23.62006668967257 -143.92117109122105 4.999999999999995
  endloop
endfacet
facet normal -0.1305261922200586 -0.9914448613738096 0.0
  outer loop
    vertex -25.74510350750851 -141.1517691919955 2.8999999999999946
    vertex -25.17570160828297 -141.22673237415955 2.8999999999999946
    vertex -25.74510350750851 -141.1517691919955 4.999999999999995
  endloop
endfacet
facet normal -0.1305261922200586 -0.9914448613738096 0.0
  outer loop
    vertex -25.17570160828297 -141.22673237415955 4.999999999999995
    vertex -25.74510350750851 -141.1517691919955 4.999999999999995
    vertex -25.17570160828297 -141.22673237415955 2.8999999999999946
  endloop
endfacet
facet normal -0.9238795325112851 -0.382683432365094 0.0
  outer loop
    vertex -23.62006668967257 -142.78236729276995 2.8999999999999946
    vertex -23.62006668967257 -142.78236729276995 4.999999999999995
    vertex -23.839847619182752 -142.2517691919955 2.8999999999999946
  endloop
endfacet
facet normal -0.9238795325112851 -0.382683432365094 0.0
  outer loop
    vertex -23.839847619182752 -142.2517691919955 4.999999999999995
    vertex -23.839847619182752 -142.2517691919955 2.8999999999999946
    vertex -23.62006668967257 -142.78236729276995 4.999999999999995
  endloop
endfacet
facet normal 0.0 0.0 1.0
  outer loop
    vertex -23.545103507508514 -143.3517691919955 2.8999999999999946
    vertex -23.62006668967257 -142.78236729276995 2.8999999999999946
    vertex -23.62006668967257 -143.92117109122105 2.8999999999999946
  endloop
endfacet
facet normal 0.0 0.0 1.0
  outer loop
    vertex -23.839847619182752 -144.45176919199548 2.8999999999999946
    vertex -23.62006668967257 -143.92117109122105 2.8999999999999946
    vertex -23.62006668967257 -142.78236729276995 2.8999999999999946
  endloop
endfacet
facet normal 0.0 0.0 1.0
  outer loop
    vertex -23.839847619182752 -142.2517691919955 2.8999999999999946
    vertex -23.839847619182752 -144.45176919199548 2.8999999999999946
    vertex -23.62006668967257 -142.78236729276995 2.8999999999999946
  endloop
endfacet
facet normal 0.0 0.0 1.0
  outer loop
    vertex -24.18946858889811 -144.90740411060588 2.8999999999999946
    vertex -23.839847619182752 -144.45176919199548 2.8999999999999946
    vertex -23.839847619182752 -142.2517691919955 2.8999999999999946
  endloop
endfacet
facet normal 0.0 0.0 1.0
  outer loop
    vertex -24.18946858889811 -141.7961342733851 2.8999999999999946
    vertex -24.18946858889811 -144.90740411060588 2.8999999999999946
    vertex -23.839847619182752 -142.2517691919955 2.8999999999999946
  endloop
endfacet
facet normal 0.0 0.0 1.0
  outer loop
    vertex -24.645103507508512 -145.25702508032126 2.8999999999999946
    vertex -24.18946858889811 -144.90740411060588 2.8999999999999946
    vertex -24.18946858889811 -141.7961342733851 2.8999999999999946
  endloop
endfacet
facet normal 0.0 0.0 1.0
  outer loop
    vertex -24.645103507508512 -141.44651330366975 2.8999999999999946
    vertex -24.645103507508512 -145.25702508032126 2.8999999999999946
    vertex -24.18946858889811 -141.7961342733851 2.8999999999999946
  endloop
endfacet
facet normal 0.0 0.0 1.0
  outer loop
    vertex -25.17570160828297 -145.47680600983145 2.8999999999999946
    vertex -24.645103507508512 -145.25702508032126 2.8999999999999946
    vertex -24.645103507508512 -141.44651330366975 2.8999999999999946
  endloop
endfacet
facet normal 0.0 0.0 1.0
  outer loop
    vertex -25.17570160828297 -141.22673237415955 2.8999999999999946
    vertex -25.17570160828297 -145.47680600983145 2.8999999999999946
    vertex -24.645103507508512 -141.44651330366975 2.8999999999999946
  endloop
endfacet
facet normal 0.0 0.0 1.0
  outer loop
    vertex -25.74510350750851 -145.5517691919955 2.8999999999999946
    vertex -25.17570160828297 -145.47680600983145 2.8999999999999946
    vertex -25.17570160828297 -141.22673237415955 2.8999999999999946
  endloop
endfacet
facet normal 0.0 0.0 1.0
  outer loop
    vertex -25.74510350750851 -141.1517691919955 2.8999999999999946
    vertex -25.74510350750851 -145.5517691919955 2.8999999999999946
    vertex -25.17570160828297 -141.22673237415955 2.8999999999999946
  endloop
endfacet
facet normal 0.0 0.0 1.0
  outer loop
    vertex -26.314505406734053 -145.47680600983145 2.8999999999999946
    vertex -25.74510350750851 -145.5517691919955 2.8999999999999946
    vertex -25.74510350750851 -141.1517691919955 2.8999999999999946
  endloop
endfacet
facet normal 0.0 0.0 1.0
  outer loop
    vertex -26.314505406734053 -141.22673237415955 2.8999999999999946
    vertex -26.314505406734053 -145.47680600983145 2.8999999999999946
    vertex -25.74510350750851 -141.1517691919955 2.8999999999999946
  endloop
endfacet
facet normal 0.0 0.0 1.0
  outer loop
    vertex -26.845103507508508 -145.25702508032126 2.8999999999999946
    vertex -26.314505406734053 -145.47680600983145 2.8999999999999946
    vertex -26.314505406734053 -141.22673237415955 2.8999999999999946
  endloop
endfacet
facet normal 0.0 0.0 1.0
  outer loop
    vertex -26.845103507508508 -141.44651330366975 2.8999999999999946
    vertex -26.845103507508508 -145.25702508032126 2.8999999999999946
    vertex -26.314505406734053 -141.22673237415955 2.8999999999999946
  endloop
endfacet
facet normal 0.0 0.0 1.0
  outer loop
    vertex -27.30073842611891 -144.9074041106059 2.8999999999999946
    vertex -26.845103507508508 -145.25702508032126 2.8999999999999946
    vertex -26.845103507508508 -141.44651330366975 2.8999999999999946
  endloop
endfacet
facet normal 0.0 0.0 1.0
  outer loop
    vertex -27.30073842611891 -141.7961342733851 2.8999999999999946
    vertex -27.30073842611891 -144.9074041106059 2.8999999999999946
    vertex -26.845103507508508 -141.44651330366975 2.8999999999999946
  endloop
endfacet
facet normal 0.0 0.0 1.0
  outer loop
    vertex -27.65035939583427 -144.45176919199548 2.8999999999999946
    vertex -27.30073842611891 -144.9074041106059 2.8999999999999946
    vertex -27.30073842611891 -141.7961342733851 2.8999999999999946
  endloop
endfacet
facet normal 0.0 0.0 1.0
  outer loop
    vertex -27.650359395834275 -142.2517691919955 2.8999999999999946
    vertex -27.65035939583427 -144.45176919199548 2.8999999999999946
    vertex -27.30073842611891 -141.7961342733851 2.8999999999999946
  endloop
endfacet
facet normal 0.0 0.0 1.0
  outer loop
    vertex -27.870140325344458 -143.92117109122105 2.8999999999999946
    vertex -27.65035939583427 -144.45176919199548 2.8999999999999946
    vertex -27.650359395834275 -142.2517691919955 2.8999999999999946
  endloop
endfacet
facet normal 0.0 0.0 1.0
  outer loop
    vertex -27.870140325344458 -142.78236729276995 2.8999999999999946
    vertex -27.870140325344458 -143.92117109122105 2.8999999999999946
    vertex -27.650359395834275 -142.2517691919955 2.8999999999999946
  endloop
endfacet
facet normal 0.0 0.0 1.0
  outer loop
    vertex -27.945103507508506 -143.3517691919955 2.8999999999999946
    vertex -27.870140325344458 -143.92117109122105 2.8999999999999946
    vertex -27.870140325344458 -142.78236729276995 2.8999999999999946
  endloop
endfacet
facet normal 0.7933533402912258 -0.6087614290087329 0.0
  outer loop
    vertex -27.650359395834275 -142.2517691919955 4.999999999999995
    vertex -27.650359395834275 -142.2517691919955 2.8999999999999946
    vertex -27.30073842611891 -141.7961342733851 4.999999999999995
  endloop
endfacet
facet normal 0.7933533402912258 -0.6087614290087329 0.0
  outer loop
    vertex -27.30073842611891 -141.7961342733851 2.8999999999999946
    vertex -27.30073842611891 -141.7961342733851 4.999999999999995
    vertex -27.650359395834275 -142.2517691919955 2.8999999999999946
  endloop
endfacet
facet normal -0.6087614290087295 0.7933533402912283 0.0
  outer loop
    vertex -24.18946858889811 -144.90740411060588 2.8999999999999946
    vertex -24.645103507508512 -145.25702508032126 2.8999999999999946
    vertex -24.18946858889811 -144.90740411060588 4.999999999999995
  endloop
endfacet
facet normal -0.6087614290087295 0.7933533402912283 0.0
  outer loop
    vertex -24.645103507508512 -145.25702508032126 4.999999999999995
    vertex -24.18946858889811 -144.90740411060588 4.999999999999995
    vertex -24.645103507508512 -145.25702508032126 2.8999999999999946
  endloop
endfacet
facet normal 0.1305261922200586 -0.9914448613738096 0.0
  outer loop
    vertex -26.314505406734053 -141.22673237415955 2.8999999999999946
    vertex -25.74510350750851 -141.1517691919955 2.8999999999999946
    vertex -26.314505406734053 -141.22673237415955 4.999999999999995
  endloop
endfacet
facet normal 0.1305261922200586 -0.9914448613738096 0.0
  outer loop
    vertex -25.74510350750851 -141.1517691919955 4.999999999999995
    vertex -26.314505406734053 -141.22673237415955 4.999999999999995
    vertex -25.74510350750851 -141.1517691919955 2.8999999999999946
  endloop
endfacet
facet normal -0.3826834323650871 -0.923879532511288 0.0
  outer loop
    vertex -25.17570160828297 -141.22673237415955 2.8999999999999946
    vertex -24.645103507508512 -141.44651330366975 2.8999999999999946
    vertex -25.17570160828297 -141.22673237415955 4.999999999999995
  endloop
endfacet
facet normal -0.3826834323650871 -0.923879532511288 0.0
  outer loop
    vertex -24.645103507508512 -141.44651330366975 4.999999999999995
    vertex -25.17570160828297 -141.22673237415955 4.999999999999995
    vertex -24.645103507508512 -141.44651330366975 2.8999999999999946
  endloop
endfacet
endsolid ABC
