solid ABC
facet normal 0.3162277660168382 -0.9486832980505139 0.0
  outer loop
    vertex 18.047794289192655 -153.436732996732 0.0
    vertex 21.239283578608298 -152.37290323359343 0.0
    vertex 18.047794289192655 -153.436732996732 5.0
  endloop
endfacet
facet normal 0.3162277660168382 -0.9486832980505139 0.0
  outer loop
    vertex 21.239283578608298 -152.37290323359343 5.0
    vertex 18.047794289192655 -153.436732996732 5.0
    vertex 21.239283578608298 -152.37290323359343 0.0
  endloop
endfacet
facet normal 0.4954958975636802 -0.8686102782592221 0.0
  outer loop
    vertex 14.952049678459483 -155.20269040354196 0.0
    vertex 18.047794289192655 -153.436732996732 0.0
    vertex 14.952049678459483 -155.20269040354196 5.0
  endloop
endfacet
facet normal 0.4954958975636802 -0.8686102782592221 0.0
  outer loop
    vertex 18.047794289192655 -153.436732996732 5.0
    vertex 14.952049678459483 -155.20269040354196 5.0
    vertex 18.047794289192655 -153.436732996732 0.0
  endloop
endfacet
facet normal 0.8081197548477534 -0.5890182185847964 0.0
  outer loop
    vertex 14.401516858482106 -155.95800905664694 5.0
    vertex 14.401516858482106 -155.95800905664694 0.0
    vertex 14.952049678459483 -155.20269040354196 5.0
  endloop
endfacet
facet normal 0.8081197548477534 -0.5890182185847964 0.0
  outer loop
    vertex 14.952049678459483 -155.20269040354196 0.0
    vertex 14.952049678459483 -155.20269040354196 5.0
    vertex 14.401516858482106 -155.95800905664694 0.0
  endloop
endfacet
facet normal 0.9817302251887597 -0.19027812525570925 0.0
  outer loop
    vertex 14.218007141893882 -156.90481802456364 5.0
    vertex 14.218007141893882 -156.90481802456364 0.0
    vertex 14.401516858482106 -155.95800905664694 5.0
  endloop
endfacet
facet normal 0.9817302251887597 -0.19027812525570925 0.0
  outer loop
    vertex 14.401516858482106 -155.95800905664694 0.0
    vertex 14.401516858482106 -155.95800905664694 5.0
    vertex 14.218007141893882 -156.90481802456364 0.0
  endloop
endfacet
facet normal -0.9918447119847507 0.1274522157825709 0.0
  outer loop
    vertex 4.175454177865986 -154.33034999776837 0.0
    vertex 4.175454177865986 -154.33034999776837 5.0
    vertex 4.3828999444439765 -152.71598821252476 0.0
  endloop
endfacet
facet normal -0.9918447119847507 0.1274522157825709 0.0
  outer loop
    vertex 4.3828999444439765 -152.71598821252476 5.0
    vertex 4.3828999444439765 -152.71598821252476 0.0
    vertex 4.175454177865986 -154.33034999776837 5.0
  endloop
endfacet
facet normal -0.9835940197237909 -0.1803962426537622 0.0
  outer loop
    vertex 4.622260444341674 -156.7665203149301 0.0
    vertex 4.622260444341674 -156.7665203149301 5.0
    vertex 4.175454177865986 -154.33034999776837 0.0
  endloop
endfacet
facet normal -0.9835940197237909 -0.1803962426537622 0.0
  outer loop
    vertex 4.175454177865986 -154.33034999776837 5.0
    vertex 4.175454177865986 -154.33034999776837 0.0
    vertex 4.622260444341674 -156.7665203149301 5.0
  endloop
endfacet
facet normal -0.870635178133736 -0.4919292495837564 0.0
  outer loop
    vertex 5.962688179938757 -159.1388605271546 0.0
    vertex 5.962688179938757 -159.1388605271546 5.0
    vertex 4.622260444341674 -156.7665203149301 0.0
  endloop
endfacet
facet normal -0.870635178133736 -0.4919292495837564 0.0
  outer loop
    vertex 4.622260444341674 -156.7665203149301 5.0
    vertex 4.622260444341674 -156.7665203149301 0.0
    vertex 5.962688179938757 -159.1388605271546 5.0
  endloop
endfacet
facet normal -0.708655513456689 -0.7055546493698676 0.0
  outer loop
    vertex 7.779178737199922 -160.96333443529878 0.0
    vertex 7.779178737199922 -160.96333443529878 5.0
    vertex 5.962688179938757 -159.1388605271546 0.0
  endloop
endfacet
facet normal -0.708655513456689 -0.7055546493698676 0.0
  outer loop
    vertex 5.962688179938757 -159.1388605271546 5.0
    vertex 5.962688179938757 -159.1388605271546 0.0
    vertex 7.779178737199922 -160.96333443529878 5.0
  endloop
endfacet
facet normal -0.496357877058797 -0.8681179976717935 0.0
  outer loop
    vertex 7.779178737199922 -160.96333443529878 0.0
    vertex 10.058428140362688 -162.26652524354776 0.0
    vertex 7.779178737199922 -160.96333443529878 5.0
  endloop
endfacet
facet normal -0.496357877058797 -0.8681179976717935 0.0
  outer loop
    vertex 10.058428140362688 -162.26652524354776 5.0
    vertex 7.779178737199922 -160.96333443529878 5.0
    vertex 10.058428140362688 -162.26652524354776 0.0
  endloop
endfacet
facet normal -0.2742275902522094 -0.9616648214136079 0.0
  outer loop
    vertex 10.058428140362688 -162.26652524354776 0.0
    vertex 12.800445804320455 -163.04843686147595 0.0
    vertex 10.058428140362688 -162.26652524354776 5.0
  endloop
endfacet
facet normal -0.2742275902522094 -0.9616648214136079 0.0
  outer loop
    vertex 12.800445804320455 -163.04843686147595 5.0
    vertex 10.058428140362688 -162.26652524354776 5.0
    vertex 12.800445804320455 -163.04843686147595 0.0
  endloop
endfacet
facet normal -0.08105935865977319 -0.9967092757538009 0.0
  outer loop
    vertex 12.800445804320455 -163.04843686147595 0.0
    vertex 16.005241143966643 -163.3090731986577 0.0
    vertex 12.800445804320455 -163.04843686147595 5.0
  endloop
endfacet
facet normal -0.08105935865977319 -0.9967092757538009 0.0
  outer loop
    vertex 16.005241143966643 -163.3090731986577 5.0
    vertex 12.800445804320455 -163.04843686147595 5.0
    vertex 16.005241143966643 -163.3090731986577 0.0
  endloop
endfacet
facet normal 0.09341347752541172 -0.9956274012986029 0.0
  outer loop
    vertex 16.005241143966643 -163.3090731986577 0.0
    vertex 20.483965776567135 -162.88886254328176 0.0
    vertex 16.005241143966643 -163.3090731986577 5.0
  endloop
endfacet
facet normal 0.09341347752541172 -0.9956274012986029 0.0
  outer loop
    vertex 20.483965776567135 -162.88886254328176 5.0
    vertex 16.005241143966643 -163.3090731986577 5.0
    vertex 20.483965776567135 -162.88886254328176 0.0
  endloop
endfacet
facet normal 0.30426382964010507 -0.952587802762946 0.0
  outer loop
    vertex 20.483965776567135 -162.88886254328176 0.0
    vertex 24.43077286802394 -161.6282221728988 0.0
    vertex 20.483965776567135 -162.88886254328176 5.0
  endloop
endfacet
facet normal 0.30426382964010507 -0.952587802762946 0.0
  outer loop
    vertex 24.43077286802394 -161.6282221728988 5.0
    vertex 20.483965776567135 -162.88886254328176 5.0
    vertex 24.43077286802394 -161.6282221728988 0.0
  endloop
endfacet
facet normal 0.5246662912648263 -0.8513079835232443 0.0
  outer loop
    vertex 24.43077286802394 -161.6282221728988 0.0
    vertex 26.648859280550763 -160.2612020176913 0.0
    vertex 24.43077286802394 -161.6282221728988 5.0
  endloop
endfacet
facet normal 0.5246662912648263 -0.8513079835232443 0.0
  outer loop
    vertex 26.648859280550763 -160.2612020176913 5.0
    vertex 24.43077286802394 -161.6282221728988 5.0
    vertex 26.648859280550763 -160.2612020176913 0.0
  endloop
endfacet
facet normal 0.7325630332948159 -0.6806992010057736 0.0
  outer loop
    vertex 26.648859280550763 -160.2612020176913 5.0
    vertex 26.648859280550763 -160.2612020176913 0.0
    vertex 28.324389801111028 -158.4580094787459 5.0
  endloop
endfacet
facet normal 0.7325630332948159 -0.6806992010057736 0.0
  outer loop
    vertex 28.324389801111028 -158.4580094787459 0.0
    vertex 28.324389801111028 -158.4580094787459 5.0
    vertex 26.648859280550763 -160.2612020176913 0.0
  endloop
endfacet
facet normal 0.899048444435116 -0.437849168731423 0.0
  outer loop
    vertex 28.324389801111028 -158.4580094787459 5.0
    vertex 28.324389801111028 -158.4580094787459 0.0
    vertex 29.12226345325214 -156.8197122818104 5.0
  endloop
endfacet
facet normal 0.899048444435116 -0.437849168731423 0.0
  outer loop
    vertex 29.12226345325214 -156.8197122818104 0.0
    vertex 29.12226345325214 -156.8197122818104 5.0
    vertex 28.324389801111028 -158.4580094787459 0.0
  endloop
endfacet
facet normal 0.9902806407203196 -0.13908361734781402 0.0
  outer loop
    vertex 29.12226345325214 -156.8197122818104 5.0
    vertex 29.12226345325214 -156.8197122818104 0.0
    vertex 29.38821956424957 -154.92609466512596 5.0
  endloop
endfacet
facet normal 0.9902806407203196 -0.13908361734781402 0.0
  outer loop
    vertex 29.38821956424957 -154.92609466512596 0.0
    vertex 29.38821956424957 -154.92609466512596 5.0
    vertex 29.12226345325214 -156.8197122818104 0.0
  endloop
endfacet
facet normal 0.9928101866231351 0.11969934560111774 0.0
  outer loop
    vertex 29.38821956424957 -154.92609466512596 5.0
    vertex 29.38821956424957 -154.92609466512596 0.0
    vertex 29.229976073817788 -153.61359167291232 5.0
  endloop
endfacet
facet normal 0.9928101866231351 0.11969934560111774 0.0
  outer loop
    vertex 29.229976073817788 -153.61359167291232 0.0
    vertex 29.229976073817788 -153.61359167291232 5.0
    vertex 29.38821956424957 -154.92609466512596 0.0
  endloop
endfacet
facet normal 0.9291185488961453 0.3697819926620569 0.0
  outer loop
    vertex 29.229976073817788 -153.61359167291232 5.0
    vertex 29.229976073817788 -153.61359167291232 0.0
    vertex 28.75524402007568 -152.4207743761262 5.0
  endloop
endfacet
facet normal 0.9291185488961453 0.3697819926620569 0.0
  outer loop
    vertex 28.75524402007568 -152.4207743761262 0.0
    vertex 28.75524402007568 -152.4207743761262 5.0
    vertex 29.229976073817788 -153.61359167291232 0.0
  endloop
endfacet
facet normal 0.8048798232977805 0.5934378400878507 0.0
  outer loop
    vertex 28.75524402007568 -152.4207743761262 5.0
    vertex 28.75524402007568 -152.4207743761262 0.0
    vertex 27.964021029353077 -151.34763852609734 5.0
  endloop
endfacet
facet normal 0.8048798232977805 0.5934378400878507 0.0
  outer loop
    vertex 27.964021029353077 -151.34763852609734 0.0
    vertex 27.964021029353077 -151.34763852609734 5.0
    vertex 28.75524402007568 -152.4207743761262 0.0
  endloop
endfacet
facet normal 0.6523627613157408 0.757906872675332 0.0
  outer loop
    vertex 27.964021029353077 -151.34763852609734 0.0
    vertex 26.85630472797983 -150.39417987415572 0.0
    vertex 27.964021029353077 -151.34763852609734 5.0
  endloop
endfacet
facet normal 0.6523627613157408 0.757906872675332 0.0
  outer loop
    vertex 26.85630472797983 -150.39417987415572 5.0
    vertex 27.964021029353077 -151.34763852609734 5.0
    vertex 26.85630472797983 -150.39417987415572 0.0
  endloop
endfacet
facet normal 0.7371541402007415 0.6757246285173462 0.0
  outer loop
    vertex 26.85630472797983 -150.39417987415572 5.0
    vertex 26.85630472797983 -150.39417987415572 0.0
    vertex 25.92013453641791 -149.37290330154272 5.0
  endloop
endfacet
facet normal 0.7371541402007415 0.6757246285173462 0.0
  outer loop
    vertex 25.92013453641791 -149.37290330154272 0.0
    vertex 25.92013453641791 -149.37290330154272 5.0
    vertex 26.85630472797983 -150.39417987415572 0.0
  endloop
endfacet
facet normal 0.7902198011947434 -0.6128235192938829 0.0
  outer loop
    vertex 25.92013453641791 -149.37290330154272 5.0
    vertex 25.92013453641791 -149.37290330154272 0.0
    vertex 26.728645156403207 -148.33035013366694 5.0
  endloop
endfacet
facet normal 0.7902198011947434 -0.6128235192938829 0.0
  outer loop
    vertex 26.728645156403207 -148.33035013366694 0.0
    vertex 26.728645156403207 -148.33035013366694 5.0
    vertex 25.92013453641791 -149.37290330154272 0.0
  endloop
endfacet
facet normal 0.814420176299341 -0.5802756038612602 0.0
  outer loop
    vertex 26.728645156403207 -148.33035013366694 5.0
    vertex 26.728645156403207 -148.33035013366694 0.0
    vertex 28.24460509547132 -146.20269156483664 5.0
  endloop
endfacet
facet normal 0.814420176299341 -0.5802756038612602 0.0
  outer loop
    vertex 28.24460509547132 -146.20269156483664 0.0
    vertex 28.24460509547132 -146.20269156483664 5.0
    vertex 26.728645156403207 -148.33035013366694 0.0
  endloop
endfacet
facet normal 0.9803404960069046 -0.19731323292910802 0.0
  outer loop
    vertex 28.24460509547132 -146.20269156483664 5.0
    vertex 28.24460509547132 -146.20269156483664 0.0
    vertex 28.749921706366447 -143.69205236638288 5.0
  endloop
endfacet
facet normal 0.9803404960069046 -0.19731323292910802 0.0
  outer loop
    vertex 28.749921706366447 -143.69205236638288 0.0
    vertex 28.749921706366447 -143.69205236638288 5.0
    vertex 28.24460509547132 -146.20269156483664 0.0
  endloop
endfacet
facet normal 0.9914468886562997 0.1305107925565659 0.0
  outer loop
    vertex 28.749921706366447 -143.69205236638288 5.0
    vertex 28.749921706366447 -143.69205236638288 0.0
    vertex 28.515880913795073 -141.91412265598768 5.0
  endloop
endfacet
facet normal 0.9914468886562997 0.1305107925565659 0.0
  outer loop
    vertex 28.515880913795073 -141.91412265598768 0.0
    vertex 28.515880913795073 -141.91412265598768 5.0
    vertex 28.749921706366447 -143.69205236638288 0.0
  endloop
endfacet
facet normal 0.9146935880329757 0.4041480421966203 0.0
  outer loop
    vertex 28.515880913795073 -141.91412265598768 5.0
    vertex 28.515880913795073 -141.91412265598768 0.0
    vertex 27.81375619565548 -140.32502927775155 5.0
  endloop
endfacet
facet normal 0.9146935880329757 0.4041480421966203 0.0
  outer loop
    vertex 27.81375619565548 -140.32502927775155 0.0
    vertex 27.81375619565548 -140.32502927775155 5.0
    vertex 28.515880913795073 -141.91412265598768 0.0
  endloop
endfacet
facet normal 0.7673240004483671 0.6412596029190631 0.0
  outer loop
    vertex 27.81375619565548 -140.32502927775155 5.0
    vertex 27.81375619565548 -140.32502927775155 0.0
    vertex 26.643544041309447 -138.92476662662142 5.0
  endloop
endfacet
facet normal 0.7673240004483671 0.6412596029190631 0.0
  outer loop
    vertex 26.643544041309447 -138.92476662662142 0.0
    vertex 26.643544041309447 -138.92476662662142 5.0
    vertex 27.81375619565548 -140.32502927775155 0.0
  endloop
endfacet
facet normal 0.5945554078468475 0.8040546417999642 0.0
  outer loop
    vertex 26.643544041309447 -138.92476662662142 0.0
    vertex 25.005240940118757 -137.71332909754426 0.0
    vertex 26.643544041309447 -138.92476662662142 5.0
  endloop
endfacet
facet normal 0.5945554078468475 0.8040546417999642 0.0
  outer loop
    vertex 25.005240940118757 -137.71332909754426 5.0
    vertex 26.643544041309447 -138.92476662662142 5.0
    vertex 25.005240940118757 -137.71332909754426 0.0
  endloop
endfacet
facet normal 0.37446373859743587 0.9272415588591958 0.0
  outer loop
    vertex 25.005240940118757 -137.71332909754426 0.0
    vertex 21.409498042838084 -136.2611990506474 0.0
    vertex 25.005240940118757 -137.71332909754426 5.0
  endloop
endfacet
facet normal 0.37446373859743587 0.9272415588591958 0.0
  outer loop
    vertex 21.409498042838084 -136.2611990506474 5.0
    vertex 25.005240940118757 -137.71332909754426 5.0
    vertex 21.409498042838084 -136.2611990506474 0.0
  endloop
endfacet
facet normal 0.11246539222706858 0.9936556423385376 0.0
  outer loop
    vertex 21.409498042838084 -136.2611990506474 0.0
    vertex 17.132900692893504 -135.7771589286321 0.0
    vertex 21.409498042838084 -136.2611990506474 5.0
  endloop
endfacet
facet normal 0.11246539222706858 0.9936556423385376 0.0
  outer loop
    vertex 17.132900692893504 -135.7771589286321 5.0
    vertex 21.409498042838084 -136.2611990506474 5.0
    vertex 17.132900692893504 -135.7771589286321 0.0
  endloop
endfacet
facet normal -0.2927142720941121 -0.9561999555074316 0.0
  outer loop
    vertex 16.175453906068807 -139.71332905224472 0.0
    vertex 17.739283657882474 -140.19205244565705 0.0
    vertex 16.175453906068807 -139.71332905224472 5.0
  endloop
endfacet
facet normal -0.2927142720941121 -0.9561999555074316 0.0
  outer loop
    vertex 17.739283657882474 -140.19205244565705 5.0
    vertex 16.175453906068807 -139.71332905224472 5.0
    vertex 17.739283657882474 -140.19205244565705 0.0
  endloop
endfacet
facet normal -0.7504905477439443 -0.6608811827756895 0.0
  outer loop
    vertex 18.21002911264573 -140.72662662237886 0.0
    vertex 18.21002911264573 -140.72662662237886 5.0
    vertex 17.739283657882474 -140.19205244565705 0.0
  endloop
endfacet
facet normal -0.7504905477439443 -0.6608811827756895 0.0
  outer loop
    vertex 17.739283657882474 -140.19205244565705 5.0
    vertex 17.739283657882474 -140.19205244565705 0.0
    vertex 18.21002911264573 -140.72662662237886 5.0
  endloop
endfacet
facet normal -0.9717670978097019 -0.2359421700639994 0.0
  outer loop
    vertex 18.366943218134217 -141.37290348274084 0.0
    vertex 18.366943218134217 -141.37290348274084 5.0
    vertex 18.21002911264573 -140.72662662237886 0.0
  endloop
endfacet
facet normal -0.9717670978097019 -0.2359421700639994 0.0
  outer loop
    vertex 18.21002911264573 -140.72662662237886 5.0
    vertex 18.21002911264573 -140.72662662237886 0.0
    vertex 18.366943218134217 -141.37290348274084 5.0
  endloop
endfacet
facet normal -0.9440699406356473 0.3297452762181825 0.0
  outer loop
    vertex 17.978647296077966 -142.48460555862488 0.0
    vertex 17.978647296077966 -142.48460555862488 5.0
    vertex 18.366943218134217 -141.37290348274084 0.0
  endloop
endfacet
facet normal -0.9440699406356473 0.3297452762181825 0.0
  outer loop
    vertex 18.366943218134217 -141.37290348274084 5.0
    vertex 18.366943218134217 -141.37290348274084 0.0
    vertex 17.978647296077966 -142.48460555862488 5.0
  endloop
endfacet
facet normal -0.6938306464447107 0.7201382048288473 0.0
  outer loop
    vertex 17.978647296077966 -142.48460555862488 0.0
    vertex 16.813751763951938 -143.6069459853318 0.0
    vertex 17.978647296077966 -142.48460555862488 5.0
  endloop
endfacet
facet normal -0.6938306464447107 0.7201382048288473 0.0
  outer loop
    vertex 16.813751763951938 -143.6069459853318 5.0
    vertex 17.978647296077966 -142.48460555862488 5.0
    vertex 16.813751763951938 -143.6069459853318 0.0
  endloop
endfacet
facet normal -0.522154298852645 0.8528510351695089 0.0
  outer loop
    vertex 16.813751763951938 -143.6069459853318 0.0
    vertex 15.249921214265953 -144.56439436790114 0.0
    vertex 16.813751763951938 -143.6069459853318 5.0
  endloop
endfacet
facet normal -0.522154298852645 0.8528510351695089 0.0
  outer loop
    vertex 15.249921214265953 -144.56439436790114 5.0
    vertex 16.813751763951938 -143.6069459853318 5.0
    vertex 15.249921214265953 -144.56439436790114 0.0
  endloop
endfacet
facet normal -0.24837433439460413 0.9686641265237592 0.0
  outer loop
    vertex 15.249921214265953 -144.56439436790114 0.0
    vertex 14.00524118926617 -144.88354170109804 0.0
    vertex 15.249921214265953 -144.56439436790114 5.0
  endloop
endfacet
facet normal -0.24837433439460413 0.9686641265237592 0.0
  outer loop
    vertex 14.00524118926617 -144.88354170109804 5.0
    vertex 15.249921214265953 -144.56439436790114 5.0
    vertex 14.00524118926617 -144.88354170109804 0.0
  endloop
endfacet
facet normal 0.3333166609518453 0.942814935993227 0.0
  outer loop
    vertex 14.00524118926617 -144.88354170109804 0.0
    vertex 13.478645323533874 -144.69737242339986 0.0
    vertex 14.00524118926617 -144.88354170109804 5.0
  endloop
endfacet
facet normal 0.3333166609518453 0.942814935993227 0.0
  outer loop
    vertex 13.478645323533874 -144.69737242339986 5.0
    vertex 14.00524118926617 -144.88354170109804 5.0
    vertex 13.478645323533874 -144.69737242339986 0.0
  endloop
endfacet
facet normal 0.7628354835643073 0.6465926267869201 0.0
  outer loop
    vertex 13.478645323533874 -144.69737242339986 5.0
    vertex 13.478645323533874 -144.69737242339986 0.0
    vertex 13.005241211915939 -144.13886086690107 5.0
  endloop
endfacet
facet normal 0.7628354835643073 0.6465926267869201 0.0
  outer loop
    vertex 13.005241211915939 -144.13886086690107 0.0
    vertex 13.005241211915939 -144.13886086690107 5.0
    vertex 13.478645323533874 -144.69737242339986 0.0
  endloop
endfacet
facet normal 0.9664376833865188 0.25690115634325 0.0
  outer loop
    vertex 13.005241211915939 -144.13886086690107 5.0
    vertex 13.005241211915939 -144.13886086690107 0.0
    vertex 12.558432711397753 -142.45800984114217 5.0
  endloop
endfacet
facet normal 0.9664376833865188 0.25690115634325 0.0
  outer loop
    vertex 12.558432711397753 -142.45800984114217 0.0
    vertex 12.558432711397753 -142.45800984114217 5.0
    vertex 13.005241211915939 -144.13886086690107 0.0
  endloop
endfacet
facet normal 0.978349940845848 -0.2069574672412801 0.0
  outer loop
    vertex 12.558432711397753 -142.45800984114217 5.0
    vertex 12.558432711397753 -142.45800984114217 0.0
    vertex 12.792474089075501 -141.35162614279724 5.0
  endloop
endfacet
facet normal 0.978349940845848 -0.2069574672412801 0.0
  outer loop
    vertex 12.792474089075501 -141.35162614279724 0.0
    vertex 12.792474089075501 -141.35162614279724 5.0
    vertex 12.558432711397753 -142.45800984114217 0.0
  endloop
endfacet
facet normal 0.7550322783988221 -0.6556876227106042 0.0
  outer loop
    vertex 12.792474089075501 -141.35162614279724 5.0
    vertex 12.792474089075501 -141.35162614279724 0.0
    vertex 13.494602902959674 -140.54311626749276 5.0
  endloop
endfacet
facet normal 0.7550322783988221 -0.6556876227106042 0.0
  outer loop
    vertex 13.494602902959674 -140.54311626749276 0.0
    vertex 13.494602902959674 -140.54311626749276 5.0
    vertex 12.792474089075501 -141.35162614279724 0.0
  endloop
endfacet
facet normal 0.4472143293887677 -0.8944268240551347 0.0
  outer loop
    vertex 13.494602902959674 -140.54311626749276 0.0
    vertex 14.739283247108373 -139.9207748188227 0.0
    vertex 13.494602902959674 -140.54311626749276 5.0
  endloop
endfacet
facet normal 0.4472143293887677 -0.8944268240551347 0.0
  outer loop
    vertex 14.739283247108373 -139.9207748188227 5.0
    vertex 13.494602902959674 -140.54311626749276 5.0
    vertex 14.739283247108373 -139.9207748188227 0.0
  endloop
endfacet
facet normal 0.1429600157809009 -0.9897284647255148 0.0
  outer loop
    vertex 14.739283247108373 -139.9207748188227 0.0
    vertex 16.175453906068807 -139.71332905224472 0.0
    vertex 14.739283247108373 -139.9207748188227 5.0
  endloop
endfacet
facet normal 0.1429600157809009 -0.9897284647255148 0.0
  outer loop
    vertex 16.175453906068807 -139.71332905224472 5.0
    vertex 14.739283247108373 -139.9207748188227 5.0
    vertex 16.175453906068807 -139.71332905224472 0.0
  endloop
endfacet
facet normal -0.5075358550788119 -0.86163063769194 0.0
  outer loop
    vertex 21.239283578608298 -152.37290323359343 0.0
    vertex 22.01587930569944 -152.830350031743 0.0
    vertex 21.239283578608298 -152.37290323359343 5.0
  endloop
endfacet
facet normal -0.5075358550788119 -0.86163063769194 0.0
  outer loop
    vertex 22.01587930569944 -152.830350031743 5.0
    vertex 21.239283578608298 -152.37290323359343 5.0
    vertex 22.01587930569944 -152.830350031743 0.0
  endloop
endfacet
facet normal -0.971667603161947 -0.236351579147501 0.0
  outer loop
    vertex 22.303113341746847 -154.01120106882678 0.0
    vertex 22.303113341746847 -154.01120106882678 5.0
    vertex 22.01587930569944 -152.830350031743 0.0
  endloop
endfacet
facet normal -0.971667603161947 -0.236351579147501 0.0
  outer loop
    vertex 22.01587930569944 -152.830350031743 5.0
    vertex 22.01587930569944 -152.830350031743 0.0
    vertex 22.303113341746847 -154.01120106882678 5.0
  endloop
endfacet
facet normal -0.9734171683335759 0.22903933372554727 0.0
  outer loop
    vertex 21.87758143649143 -155.81971166616233 0.0
    vertex 21.87758143649143 -155.81971166616233 5.0
    vertex 22.303113341746847 -154.01120106882678 0.0
  endloop
endfacet
facet normal -0.9734171683335759 0.22903933372554727 0.0
  outer loop
    vertex 22.303113341746847 -154.01120106882678 5.0
    vertex 22.303113341746847 -154.01120106882678 0.0
    vertex 21.87758143649143 -155.81971166616233 5.0
  endloop
endfacet
facet normal -0.8354170822439393 0.5496165014762777 0.0
  outer loop
    vertex 20.81375167335288 -157.43673290613293 0.0
    vertex 20.81375167335288 -157.43673290613293 5.0
    vertex 21.87758143649143 -155.81971166616233 0.0
  endloop
endfacet
facet normal -0.8354170822439393 0.5496165014762777 0.0
  outer loop
    vertex 21.87758143649143 -155.81971166616233 5.0
    vertex 21.87758143649143 -155.81971166616233 0.0
    vertex 20.81375167335288 -157.43673290613293 5.0
  endloop
endfacet
facet normal -0.5647771960939687 0.8252434300085247 0.0
  outer loop
    vertex 20.81375167335288 -157.43673290613293 0.0
    vertex 19.11162490339501 -158.60162843825896 0.0
    vertex 20.81375167335288 -157.43673290613293 5.0
  endloop
endfacet
facet normal -0.5647771960939687 0.8252434300085247 0.0
  outer loop
    vertex 19.11162490339501 -158.60162843825896 5.0
    vertex 20.81375167335288 -157.43673290613293 5.0
    vertex 19.11162490339501 -158.60162843825896 0.0
  endloop
endfacet
facet normal -0.18675843693706648 0.9824058663469105 0.0
  outer loop
    vertex 19.11162490339501 -158.60162843825896 0.0
    vertex 17.069070907105193 -158.9899243603152 0.0
    vertex 19.11162490339501 -158.60162843825896 5.0
  endloop
endfacet
facet normal -0.18675843693706648 0.9824058663469105 0.0
  outer loop
    vertex 17.069070907105193 -158.9899243603152 5.0
    vertex 19.11162490339501 -158.60162843825896 5.0
    vertex 17.069070907105193 -158.9899243603152 0.0
  endloop
endfacet
facet normal 0.12208600558411975 0.9925195248661431 0.0
  outer loop
    vertex 17.069070907105193 -158.9899243603152 0.0
    vertex 15.901517090464903 -158.84630806037657 0.0
    vertex 17.069070907105193 -158.9899243603152 5.0
  endloop
endfacet
facet normal 0.12208600558411975 0.9925195248661431 0.0
  outer loop
    vertex 15.901517090464903 -158.84630806037657 5.0
    vertex 17.069070907105193 -158.9899243603152 5.0
    vertex 15.901517090464903 -158.84630806037657 0.0
  endloop
endfacet
facet normal 0.4291116790664808 0.9032514416754316 0.0
  outer loop
    vertex 15.901517090464903 -158.84630806037657 0.0
    vertex 14.99460286898502 -158.41545628822038 0.0
    vertex 15.901517090464903 -158.84630806037657 5.0
  endloop
endfacet
facet normal 0.4291116790664808 0.9032514416754316 0.0
  outer loop
    vertex 14.99460286898502 -158.41545628822038 5.0
    vertex 15.901517090464903 -158.84630806037657 5.0
    vertex 14.99460286898502 -158.41545628822038 0.0
  endloop
endfacet
facet normal 0.7522030341378584 0.6589314041945488 0.0
  outer loop
    vertex 14.99460286898502 -158.41545628822038 5.0
    vertex 14.99460286898502 -158.41545628822038 0.0
    vertex 14.412155102922005 -157.75056313838644 5.0
  endloop
endfacet
facet normal 0.7522030341378584 0.6589314041945488 0.0
  outer loop
    vertex 14.412155102922005 -157.75056313838644 0.0
    vertex 14.412155102922005 -157.75056313838644 5.0
    vertex 14.99460286898502 -158.41545628822038 0.0
  endloop
endfacet
facet normal 0.9746491038527925 0.2237389647758042 0.0
  outer loop
    vertex 14.412155102922005 -157.75056313838644 5.0
    vertex 14.412155102922005 -157.75056313838644 0.0
    vertex 14.218007141893882 -156.90481802456364 5.0
  endloop
endfacet
facet normal 0.9746491038527925 0.2237389647758042 0.0
  outer loop
    vertex 14.218007141893882 -156.90481802456364 0.0
    vertex 14.218007141893882 -156.90481802456364 5.0
    vertex 14.412155102922005 -157.75056313838644 0.0
  endloop
endfacet
facet normal -0.8217978617180756 0.5697791453498441 0.0
  outer loop
    vertex 5.005241393114062 -151.1494990059841 0.0
    vertex 5.005241393114062 -151.1494990059841 5.0
    vertex 5.973325786080788 -149.7532217104818 0.0
  endloop
endfacet
facet normal -0.8217978617180756 0.5697791453498441 0.0
  outer loop
    vertex 5.973325786080788 -149.7532217104818 5.0
    vertex 5.973325786080788 -149.7532217104818 0.0
    vertex 5.005241393114062 -151.1494990059841 5.0
  endloop
endfacet
facet normal -0.9293444489555119 0.3692138881401621 0.0
  outer loop
    vertex 4.3828999444439765 -152.71598821252476 0.0
    vertex 4.3828999444439765 -152.71598821252476 5.0
    vertex 5.005241393114062 -151.1494990059841 0.0
  endloop
endfacet
facet normal -0.9293444489555119 0.3692138881401621 0.0
  outer loop
    vertex 5.005241393114062 -151.1494990059841 5.0
    vertex 5.005241393114062 -151.1494990059841 0.0
    vertex 4.3828999444439765 -152.71598821252476 5.0
  endloop
endfacet
facet normal -0.6634698320164809 0.7482030352812147 0.0
  outer loop
    vertex 7.218007300442236 -148.64949906260853 0.0
    vertex 5.973325786080788 -149.7532217104818 0.0
    vertex 7.218007300442236 -148.64949906260853 5.0
  endloop
endfacet
facet normal -0.6634698320164809 0.7482030352812147 0.0
  outer loop
    vertex 5.973325786080788 -149.7532217104818 5.0
    vertex 7.218007300442236 -148.64949906260853 5.0
    vertex 5.973325786080788 -149.7532217104818 0.0
  endloop
endfacet
facet normal -0.6994630475681262 0.7146687659935261 0.0
  outer loop
    vertex 8.218007277792477 -147.67077568052105 0.0
    vertex 7.218007300442236 -148.64949906260853 0.0
    vertex 8.218007277792477 -147.67077568052105 5.0
  endloop
endfacet
facet normal -0.6994630475681262 0.7146687659935261 0.0
  outer loop
    vertex 7.218007300442236 -148.64949906260853 5.0
    vertex 8.218007277792477 -147.67077568052105 5.0
    vertex 7.218007300442236 -148.64949906260853 0.0
  endloop
endfacet
facet normal -0.7160001396200372 -0.6981001361295436 0.0
  outer loop
    vertex 8.218007277792477 -147.67077568052105 0.0
    vertex 8.218007277792477 -147.67077568052105 5.0
    vertex 7.388220062544401 -146.8197118700102 0.0
  endloop
endfacet
facet normal -0.7160001396200372 -0.6981001361295436 0.0
  outer loop
    vertex 7.388220062544401 -146.8197118700102 5.0
    vertex 7.388220062544401 -146.8197118700102 0.0
    vertex 8.218007277792477 -147.67077568052105 5.0
  endloop
endfacet
facet normal -0.6091624139797046 -0.7930454926386121 0.0
  outer loop
    vertex 6.178109817346744 -145.89018930795197 0.0
    vertex 7.388220062544401 -146.8197118700102 0.0
    vertex 6.178109817346744 -145.89018930795197 5.0
  endloop
endfacet
facet normal -0.6091624139797046 -0.7930454926386121 0.0
  outer loop
    vertex 7.388220062544401 -146.8197118700102 5.0
    vertex 6.178109817346744 -145.89018930795197 5.0
    vertex 7.388220062544401 -146.8197118700102 0.0
  endloop
endfacet
facet normal -0.7637246807134294 -0.6455421071232847 0.0
  outer loop
    vertex 6.178109817346744 -145.89018930795197 0.0
    vertex 6.178109817346744 -145.89018930795197 5.0
    vertex 5.313748566977509 -144.86758518550204 0.0
  endloop
endfacet
facet normal -0.7637246807134294 -0.6455421071232847 0.0
  outer loop
    vertex 5.313748566977509 -144.86758518550204 5.0
    vertex 5.313748566977509 -144.86758518550204 0.0
    vertex 6.178109817346744 -145.89018930795197 5.0
  endloop
endfacet
facet normal -0.9068176203817258 -0.42152319433837154 0.0
  outer loop
    vertex 5.313748566977509 -144.86758518550204 0.0
    vertex 5.313748566977509 -144.86758518550204 5.0
    vertex 4.795133718351678 -143.7518954933519 0.0
  endloop
endfacet
facet normal -0.9068176203817258 -0.42152319433837154 0.0
  outer loop
    vertex 4.795133718351678 -143.7518954933519 5.0
    vertex 4.795133718351678 -143.7518954933519 0.0
    vertex 5.313748566977509 -144.86758518550204 5.0
  endloop
endfacet
facet normal -0.9899278945057479 -0.14157246794280637 0.0
  outer loop
    vertex 4.795133718351678 -143.7518954933519 0.0
    vertex 4.795133718351678 -143.7518954933519 5.0
    vertex 4.6222626783841845 -142.54311622219325 0.0
  endloop
endfacet
facet normal -0.9899278945057479 -0.14157246794280637 0.0
  outer loop
    vertex 4.6222626783841845 -142.54311622219325 5.0
    vertex 4.6222626783841845 -142.54311622219325 0.0
    vertex 4.795133718351678 -143.7518954933519 5.0
  endloop
endfacet
facet normal -0.9880455359806047 0.15416231325716265 0.0
  outer loop
    vertex 4.6222626783841845 -142.54311622219325 0.0
    vertex 4.6222626783841845 -142.54311622219325 5.0
    vertex 4.856304056061922 -141.0431157774445 0.0
  endloop
endfacet
facet normal -0.9880455359806047 0.15416231325716265 0.0
  outer loop
    vertex 4.856304056061922 -141.0431157774445 5.0
    vertex 4.856304056061922 -141.0431157774445 0.0
    vertex 4.6222626783841845 -142.54311622219325 5.0
  endloop
endfacet
facet normal -0.8811598676787783 0.4728184509854898 0.0
  outer loop
    vertex 4.856304056061922 -141.0431157774445 0.0
    vertex 4.856304056061922 -141.0431157774445 5.0
    vertex 5.558432869946106 -139.73460564750746 0.0
  endloop
endfacet
facet normal -0.8811598676787783 0.4728184509854898 0.0
  outer loop
    vertex 5.558432869946106 -139.73460564750746 5.0
    vertex 5.558432869946106 -139.73460564750746 0.0
    vertex 4.856304056061922 -141.0431157774445 5.0
  endloop
endfacet
facet normal -0.4818223243070491 0.876268935772205 0.0
  outer loop
    vertex 8.89885832620114 -137.24524400176327 0.0
    vertex 7.031836107850461 -138.27183863276647 0.0
    vertex 8.89885832620114 -137.24524400176327 5.0
  endloop
endfacet
facet normal -0.4818223243070491 0.876268935772205 0.0
  outer loop
    vertex 7.031836107850461 -138.27183863276647 5.0
    vertex 8.89885832620114 -137.24524400176327 5.0
    vertex 7.031836107850461 -138.27183863276647 0.0
  endloop
endfacet
facet normal -0.704540677166427 0.7096636063783127 0.0
  outer loop
    vertex 7.031836107850461 -138.27183863276647 0.0
    vertex 5.558432869946106 -139.73460564750746 0.0
    vertex 7.031836107850461 -138.27183863276647 5.0
  endloop
endfacet
facet normal -0.704540677166427 0.7096636063783127 0.0
  outer loop
    vertex 5.558432869946106 -139.73460564750746 5.0
    vertex 7.031836107850461 -138.27183863276647 5.0
    vertex 5.558432869946106 -139.73460564750746 0.0
  endloop
endfacet
facet normal -0.2690518179949816 0.9631257027167303 0.0
  outer loop
    vertex 12.840346720969903 -136.14417836180854 0.0
    vertex 8.89885832620114 -137.24524400176327 0.0
    vertex 12.840346720969903 -136.14417836180854 5.0
  endloop
endfacet
facet normal -0.2690518179949816 0.9631257027167303 0.0
  outer loop
    vertex 8.89885832620114 -137.24524400176327 5.0
    vertex 12.840346720969903 -136.14417836180854 5.0
    vertex 8.89885832620114 -137.24524400176327 0.0
  endloop
endfacet
facet normal -0.08519058823610845 0.9963646740405774 0.0
  outer loop
    vertex 17.132900692893504 -135.7771589286321 0.0
    vertex 12.840346720969903 -136.14417836180854 0.0
    vertex 17.132900692893504 -135.7771589286321 5.0
  endloop
endfacet
facet normal -0.08519058823610845 0.9963646740405774 0.0
  outer loop
    vertex 12.840346720969903 -136.14417836180854 5.0
    vertex 17.132900692893504 -135.7771589286321 5.0
    vertex 12.840346720969903 -136.14417836180854 0.0
  endloop
endfacet
facet normal 0.0 0.0 1.0
  outer loop
    vertex 19.150787655427653 -148.71471299809136 4.999999999999995
    vertex 19.0758244732636 -149.2841148973169 4.999999999999995
    vertex 21.239283578608298 -152.37290323359343 5.0
  endloop
endfacet
facet normal 0.0 0.0 1.0
  outer loop
    vertex 18.047794289192655 -153.436732996732 5.0
    vertex 21.239283578608298 -152.37290323359343 5.0
    vertex 19.0758244732636 -149.2841148973169 4.999999999999995
  endloop
endfacet
facet normal 0.0 0.0 1.0
  outer loop
    vertex 18.856043543753415 -149.81471299809135 4.999999999999995
    vertex 18.047794289192655 -153.436732996732 5.0
    vertex 19.0758244732636 -149.2841148973169 4.999999999999995
  endloop
endfacet
facet normal 0.0 0.0 1.0
  outer loop
    vertex 18.50642257403806 -150.27034791670175 4.999999999999995
    vertex 18.047794289192655 -153.436732996732 5.0
    vertex 18.856043543753415 -149.81471299809135 4.999999999999995
  endloop
endfacet
facet normal 0.0 0.0 1.0
  outer loop
    vertex 18.050787655427655 -150.61996888641713 4.999999999999995
    vertex 18.047794289192655 -153.436732996732 5.0
    vertex 18.50642257403806 -150.27034791670175 4.999999999999995
  endloop
endfacet
facet normal 0.0 0.0 1.0
  outer loop
    vertex 17.5201895546532 -150.8397498159273 4.999999999999995
    vertex 18.047794289192655 -153.436732996732 5.0
    vertex 18.050787655427655 -150.61996888641713 4.999999999999995
  endloop
endfacet
facet normal 0.0 0.0 1.0
  outer loop
    vertex 14.952049678459483 -155.20269040354196 5.0
    vertex 18.047794289192655 -153.436732996732 5.0
    vertex 17.5201895546532 -150.8397498159273 4.999999999999995
  endloop
endfacet
facet normal 0.0 0.0 1.0
  outer loop
    vertex 16.950787655427657 -150.91471299809135 4.999999999999995
    vertex 14.952049678459483 -155.20269040354196 5.0
    vertex 17.5201895546532 -150.8397498159273 4.999999999999995
  endloop
endfacet
facet normal 0.0 0.0 1.0
  outer loop
    vertex 16.381385756202118 -150.8397498159273 4.999999999999995
    vertex 14.952049678459483 -155.20269040354196 5.0
    vertex 16.950787655427657 -150.91471299809135 4.999999999999995
  endloop
endfacet
facet normal 0.0 0.0 1.0
  outer loop
    vertex 15.85078765542766 -150.61996888641713 4.999999999999995
    vertex 14.952049678459483 -155.20269040354196 5.0
    vertex 16.381385756202118 -150.8397498159273 4.999999999999995
  endloop
endfacet
facet normal 0.0 0.0 1.0
  outer loop
    vertex 15.395152736817256 -150.27034791670178 4.999999999999995
    vertex 14.952049678459483 -155.20269040354196 5.0
    vertex 15.85078765542766 -150.61996888641713 4.999999999999995
  endloop
endfacet
facet normal 0.0 0.0 1.0
  outer loop
    vertex 15.045531767101899 -149.81471299809135 4.999999999999995
    vertex 14.952049678459483 -155.20269040354196 5.0
    vertex 15.395152736817256 -150.27034791670178 4.999999999999995
  endloop
endfacet
facet normal 0.0 0.0 1.0
  outer loop
    vertex 14.825750837591709 -149.2841148973169 4.999999999999995
    vertex 14.952049678459483 -155.20269040354196 5.0
    vertex 15.045531767101899 -149.81471299809135 4.999999999999995
  endloop
endfacet
facet normal 0.0 0.0 1.0
  outer loop
    vertex 14.401516858482106 -155.95800905664694 5.0
    vertex 14.952049678459483 -155.20269040354196 5.0
    vertex 14.825750837591709 -149.2841148973169 4.999999999999995
  endloop
endfacet
facet normal 0.0 0.0 1.0
  outer loop
    vertex 14.750787655427661 -148.71471299809136 4.999999999999995
    vertex 14.401516858482106 -155.95800905664694 5.0
    vertex 14.825750837591709 -149.2841148973169 4.999999999999995
  endloop
endfacet
facet normal 0.0 0.0 1.0
  outer loop
    vertex 24.43077286802394 -161.6282221728988 5.0
    vertex 22.303113341746847 -154.01120106882678 5.0
    vertex 20.483965776567135 -162.88886254328176 5.0
  endloop
endfacet
facet normal 0.0 0.0 1.0
  outer loop
    vertex 21.87758143649143 -155.81971166616233 5.0
    vertex 20.483965776567135 -162.88886254328176 5.0
    vertex 22.303113341746847 -154.01120106882678 5.0
  endloop
endfacet
facet normal 0.0 0.0 1.0
  outer loop
    vertex 20.81375167335288 -157.43673290613293 5.0
    vertex 20.483965776567135 -162.88886254328176 5.0
    vertex 21.87758143649143 -155.81971166616233 5.0
  endloop
endfacet
facet normal 0.0 0.0 1.0
  outer loop
    vertex 19.11162490339501 -158.60162843825896 5.0
    vertex 20.483965776567135 -162.88886254328176 5.0
    vertex 20.81375167335288 -157.43673290613293 5.0
  endloop
endfacet
facet normal 0.0 0.0 1.0
  outer loop
    vertex 16.005241143966643 -163.3090731986577 5.0
    vertex 20.483965776567135 -162.88886254328176 5.0
    vertex 19.11162490339501 -158.60162843825896 5.0
  endloop
endfacet
facet normal 0.0 0.0 1.0
  outer loop
    vertex 17.069070907105193 -158.9899243603152 5.0
    vertex 16.005241143966643 -163.3090731986577 5.0
    vertex 19.11162490339501 -158.60162843825896 5.0
  endloop
endfacet
facet normal 0.0 0.0 1.0
  outer loop
    vertex 15.901517090464903 -158.84630806037657 5.0
    vertex 16.005241143966643 -163.3090731986577 5.0
    vertex 17.069070907105193 -158.9899243603152 5.0
  endloop
endfacet
facet normal 0.0 0.0 1.0
  outer loop
    vertex 12.800445804320455 -163.04843686147595 5.0
    vertex 16.005241143966643 -163.3090731986577 5.0
    vertex 15.901517090464903 -158.84630806037657 5.0
  endloop
endfacet
facet normal 0.0 0.0 1.0
  outer loop
    vertex 14.99460286898502 -158.41545628822038 5.0
    vertex 12.800445804320455 -163.04843686147595 5.0
    vertex 15.901517090464903 -158.84630806037657 5.0
  endloop
endfacet
facet normal 0.0 0.0 1.0
  outer loop
    vertex 14.412155102922005 -157.75056313838644 5.0
    vertex 12.800445804320455 -163.04843686147595 5.0
    vertex 14.99460286898502 -158.41545628822038 5.0
  endloop
endfacet
facet normal 0.0 0.0 1.0
  outer loop
    vertex 14.218007141893882 -156.90481802456364 5.0
    vertex 12.800445804320455 -163.04843686147595 5.0
    vertex 14.412155102922005 -157.75056313838644 5.0
  endloop
endfacet
facet normal 0.0 0.0 1.0
  outer loop
    vertex 14.00524118926617 -144.88354170109804 5.0
    vertex 12.800445804320455 -163.04843686147595 5.0
    vertex 14.218007141893882 -156.90481802456364 5.0
  endloop
endfacet
facet normal 0.0 0.0 1.0
  outer loop
    vertex 13.478645323533874 -144.69737242339986 5.0
    vertex 12.800445804320455 -163.04843686147595 5.0
    vertex 14.00524118926617 -144.88354170109804 5.0
  endloop
endfacet
facet normal 0.0 0.0 1.0
  outer loop
    vertex 13.005241211915939 -144.13886086690107 5.0
    vertex 12.800445804320455 -163.04843686147595 5.0
    vertex 13.478645323533874 -144.69737242339986 5.0
  endloop
endfacet
facet normal 0.0 0.0 1.0
  outer loop
    vertex 12.558432711397753 -142.45800984114217 5.0
    vertex 12.800445804320455 -163.04843686147595 5.0
    vertex 13.005241211915939 -144.13886086690107 5.0
  endloop
endfacet
facet normal 0.0 0.0 1.0
  outer loop
    vertex 10.058428140362688 -162.26652524354776 5.0
    vertex 12.800445804320455 -163.04843686147595 5.0
    vertex 12.558432711397753 -142.45800984114217 5.0
  endloop
endfacet
facet normal 0.0 0.0 1.0
  outer loop
    vertex 18.50642257403806 -147.15907807948093 4.999999999999995
    vertex 18.366943218134217 -141.37290348274084 5.0
    vertex 18.050787655427655 -146.8094571097656 4.999999999999995
  endloop
endfacet
facet normal 0.0 0.0 1.0
  outer loop
    vertex 17.978647296077966 -142.48460555862488 5.0
    vertex 18.050787655427655 -146.8094571097656 4.999999999999995
    vertex 18.366943218134217 -141.37290348274084 5.0
  endloop
endfacet
facet normal 0.0 0.0 1.0
  outer loop
    vertex 17.5201895546532 -146.58967618025542 4.999999999999995
    vertex 18.050787655427655 -146.8094571097656 4.999999999999995
    vertex 17.978647296077966 -142.48460555862488 5.0
  endloop
endfacet
facet normal 0.0 0.0 1.0
  outer loop
    vertex 16.813751763951938 -143.6069459853318 5.0
    vertex 17.5201895546532 -146.58967618025542 4.999999999999995
    vertex 17.978647296077966 -142.48460555862488 5.0
  endloop
endfacet
facet normal 0.0 0.0 1.0
  outer loop
    vertex 16.950787655427657 -146.51471299809137 4.999999999999995
    vertex 17.5201895546532 -146.58967618025542 4.999999999999995
    vertex 16.813751763951938 -143.6069459853318 5.0
  endloop
endfacet
facet normal 0.0 0.0 1.0
  outer loop
    vertex 16.381385756202118 -146.58967618025542 4.999999999999995
    vertex 16.950787655427657 -146.51471299809137 4.999999999999995
    vertex 16.813751763951938 -143.6069459853318 5.0
  endloop
endfacet
facet normal 0.0 0.0 1.0
  outer loop
    vertex 15.249921214265953 -144.56439436790114 5.0
    vertex 16.381385756202118 -146.58967618025542 4.999999999999995
    vertex 16.813751763951938 -143.6069459853318 5.0
  endloop
endfacet
facet normal 0.0 0.0 1.0
  outer loop
    vertex 15.85078765542766 -146.8094571097656 4.999999999999995
    vertex 16.381385756202118 -146.58967618025542 4.999999999999995
    vertex 15.249921214265953 -144.56439436790114 5.0
  endloop
endfacet
facet normal 0.0 0.0 1.0
  outer loop
    vertex 15.395152736817256 -147.15907807948096 4.999999999999995
    vertex 15.85078765542766 -146.8094571097656 4.999999999999995
    vertex 15.249921214265953 -144.56439436790114 5.0
  endloop
endfacet
facet normal 0.0 0.0 1.0
  outer loop
    vertex 15.045531767101894 -147.61471299809136 4.999999999999995
    vertex 15.395152736817256 -147.15907807948096 4.999999999999995
    vertex 15.249921214265953 -144.56439436790114 5.0
  endloop
endfacet
facet normal 0.0 0.0 1.0
  outer loop
    vertex 14.00524118926617 -144.88354170109804 5.0
    vertex 15.045531767101894 -147.61471299809136 4.999999999999995
    vertex 15.249921214265953 -144.56439436790114 5.0
  endloop
endfacet
facet normal 0.0 0.0 1.0
  outer loop
    vertex 14.825750837591709 -148.1453110988658 4.999999999999995
    vertex 15.045531767101894 -147.61471299809136 4.999999999999995
    vertex 14.00524118926617 -144.88354170109804 5.0
  endloop
endfacet
facet normal 0.0 0.0 1.0
  outer loop
    vertex 14.750787655427661 -148.71471299809136 4.999999999999995
    vertex 14.825750837591709 -148.1453110988658 4.999999999999995
    vertex 14.00524118926617 -144.88354170109804 5.0
  endloop
endfacet
facet normal 0.0 0.0 1.0
  outer loop
    vertex 14.401516858482106 -155.95800905664694 5.0
    vertex 14.750787655427661 -148.71471299809136 4.999999999999995
    vertex 14.00524118926617 -144.88354170109804 5.0
  endloop
endfacet
facet normal 0.0 0.0 1.0
  outer loop
    vertex 14.218007141893882 -156.90481802456364 5.0
    vertex 14.401516858482106 -155.95800905664694 5.0
    vertex 14.00524118926617 -144.88354170109804 5.0
  endloop
endfacet
facet normal 0.0 0.0 1.0
  outer loop
    vertex 28.749921706366447 -143.69205236638288 5.0
    vertex 28.515880913795073 -141.91412265598768 5.0
    vertex 28.24460509547132 -146.20269156483664 5.0
  endloop
endfacet
facet normal 0.0 0.0 1.0
  outer loop
    vertex 27.81375619565548 -140.32502927775155 5.0
    vertex 28.24460509547132 -146.20269156483664 5.0
    vertex 28.515880913795073 -141.91412265598768 5.0
  endloop
endfacet
facet normal 0.0 0.0 1.0
  outer loop
    vertex 26.728645156403207 -148.33035013366694 5.0
    vertex 28.24460509547132 -146.20269156483664 5.0
    vertex 27.81375619565548 -140.32502927775155 5.0
  endloop
endfacet
facet normal 0.0 0.0 1.0
  outer loop
    vertex 26.643544041309447 -138.92476662662142 5.0
    vertex 26.728645156403207 -148.33035013366694 5.0
    vertex 27.81375619565548 -140.32502927775155 5.0
  endloop
endfacet
facet normal 0.0 0.0 1.0
  outer loop
    vertex 25.92013453641791 -149.37290330154272 5.0
    vertex 26.728645156403207 -148.33035013366694 5.0
    vertex 26.643544041309447 -138.92476662662142 5.0
  endloop
endfacet
facet normal 0.0 0.0 1.0
  outer loop
    vertex 25.005240940118757 -137.71332909754426 5.0
    vertex 25.92013453641791 -149.37290330154272 5.0
    vertex 26.643544041309447 -138.92476662662142 5.0
  endloop
endfacet
facet normal 0.0 0.0 1.0
  outer loop
    vertex 29.38821956424957 -154.92609466512596 5.0
    vertex 29.229976073817788 -153.61359167291232 5.0
    vertex 29.12226345325214 -156.8197122818104 5.0
  endloop
endfacet
facet normal 0.0 0.0 1.0
  outer loop
    vertex 28.75524402007568 -152.4207743761262 5.0
    vertex 29.12226345325214 -156.8197122818104 5.0
    vertex 29.229976073817788 -153.61359167291232 5.0
  endloop
endfacet
facet normal 0.0 0.0 1.0
  outer loop
    vertex 28.324389801111028 -158.4580094787459 5.0
    vertex 29.12226345325214 -156.8197122818104 5.0
    vertex 28.75524402007568 -152.4207743761262 5.0
  endloop
endfacet
facet normal 0.0 0.0 1.0
  outer loop
    vertex 27.964021029353077 -151.34763852609734 5.0
    vertex 28.324389801111028 -158.4580094787459 5.0
    vertex 28.75524402007568 -152.4207743761262 5.0
  endloop
endfacet
facet normal 0.0 0.0 1.0
  outer loop
    vertex 26.648859280550763 -160.2612020176913 5.0
    vertex 28.324389801111028 -158.4580094787459 5.0
    vertex 27.964021029353077 -151.34763852609734 5.0
  endloop
endfacet
facet normal 0.0 0.0 1.0
  outer loop
    vertex 26.85630472797983 -150.39417987415572 5.0
    vertex 26.648859280550763 -160.2612020176913 5.0
    vertex 27.964021029353077 -151.34763852609734 5.0
  endloop
endfacet
facet normal 0.0 0.0 1.0
  outer loop
    vertex 25.92013453641791 -149.37290330154272 5.0
    vertex 26.648859280550763 -160.2612020176913 5.0
    vertex 26.85630472797983 -150.39417987415572 5.0
  endloop
endfacet
facet normal 0.0 0.0 1.0
  outer loop
    vertex 24.43077286802394 -161.6282221728988 5.0
    vertex 26.648859280550763 -160.2612020176913 5.0
    vertex 25.92013453641791 -149.37290330154272 5.0
  endloop
endfacet
facet normal 0.0 0.0 1.0
  outer loop
    vertex 25.005240940118757 -137.71332909754426 5.0
    vertex 24.43077286802394 -161.6282221728988 5.0
    vertex 25.92013453641791 -149.37290330154272 5.0
  endloop
endfacet
facet normal 0.0 0.0 1.0
  outer loop
    vertex 21.409498042838084 -136.2611990506474 5.0
    vertex 24.43077286802394 -161.6282221728988 5.0
    vertex 25.005240940118757 -137.71332909754426 5.0
  endloop
endfacet
facet normal 0.0 0.0 1.0
  outer loop
    vertex 22.303113341746847 -154.01120106882678 5.0
    vertex 24.43077286802394 -161.6282221728988 5.0
    vertex 21.409498042838084 -136.2611990506474 5.0
  endloop
endfacet
facet normal 0.0 0.0 1.0
  outer loop
    vertex 22.01587930569944 -152.830350031743 5.0
    vertex 22.303113341746847 -154.01120106882678 5.0
    vertex 21.409498042838084 -136.2611990506474 5.0
  endloop
endfacet
facet normal 0.0 0.0 1.0
  outer loop
    vertex 21.239283578608298 -152.37290323359343 5.0
    vertex 22.01587930569944 -152.830350031743 5.0
    vertex 21.409498042838084 -136.2611990506474 5.0
  endloop
endfacet
facet normal 0.0 0.0 1.0
  outer loop
    vertex 17.132900692893504 -135.7771589286321 5.0
    vertex 21.239283578608298 -152.37290323359343 5.0
    vertex 21.409498042838084 -136.2611990506474 5.0
  endloop
endfacet
facet normal 0.0 0.0 1.0
  outer loop
    vertex 18.366943218134217 -141.37290348274084 5.0
    vertex 21.239283578608298 -152.37290323359343 5.0
    vertex 17.132900692893504 -135.7771589286321 5.0
  endloop
endfacet
facet normal 0.0 0.0 1.0
  outer loop
    vertex 19.150787655427653 -148.71471299809136 4.999999999999995
    vertex 21.239283578608298 -152.37290323359343 5.0
    vertex 18.366943218134217 -141.37290348274084 5.0
  endloop
endfacet
facet normal 0.0 0.0 1.0
  outer loop
    vertex 19.0758244732636 -148.1453110988658 4.999999999999995
    vertex 19.150787655427653 -148.71471299809136 4.999999999999995
    vertex 18.366943218134217 -141.37290348274084 5.0
  endloop
endfacet
facet normal 0.0 0.0 1.0
  outer loop
    vertex 18.856043543753415 -147.61471299809136 4.999999999999995
    vertex 19.0758244732636 -148.1453110988658 4.999999999999995
    vertex 18.366943218134217 -141.37290348274084 5.0
  endloop
endfacet
facet normal 0.0 0.0 1.0
  outer loop
    vertex 18.50642257403806 -147.15907807948093 4.999999999999995
    vertex 18.856043543753415 -147.61471299809136 4.999999999999995
    vertex 18.366943218134217 -141.37290348274084 5.0
  endloop
endfacet
facet normal 0.0 0.0 1.0
  outer loop
    vertex 18.21002911264573 -140.72662662237886 5.0
    vertex 18.366943218134217 -141.37290348274084 5.0
    vertex 17.132900692893504 -135.7771589286321 5.0
  endloop
endfacet
facet normal 0.0 0.0 1.0
  outer loop
    vertex 17.739283657882474 -140.19205244565705 5.0
    vertex 18.21002911264573 -140.72662662237886 5.0
    vertex 17.132900692893504 -135.7771589286321 5.0
  endloop
endfacet
facet normal 0.0 0.0 1.0
  outer loop
    vertex 16.175453906068807 -139.71332905224472 5.0
    vertex 17.739283657882474 -140.19205244565705 5.0
    vertex 17.132900692893504 -135.7771589286321 5.0
  endloop
endfacet
facet normal 0.0 0.0 1.0
  outer loop
    vertex 12.840346720969903 -136.14417836180854 5.0
    vertex 16.175453906068807 -139.71332905224472 5.0
    vertex 17.132900692893504 -135.7771589286321 5.0
  endloop
endfacet
facet normal 0.0 0.0 1.0
  outer loop
    vertex 14.739283247108373 -139.9207748188227 5.0
    vertex 16.175453906068807 -139.71332905224472 5.0
    vertex 12.840346720969903 -136.14417836180854 5.0
  endloop
endfacet
facet normal 0.0 0.0 1.0
  outer loop
    vertex 13.494602902959674 -140.54311626749276 5.0
    vertex 14.739283247108373 -139.9207748188227 5.0
    vertex 12.840346720969903 -136.14417836180854 5.0
  endloop
endfacet
facet normal 0.0 0.0 1.0
  outer loop
    vertex 12.792474089075501 -141.35162614279724 5.0
    vertex 13.494602902959674 -140.54311626749276 5.0
    vertex 12.840346720969903 -136.14417836180854 5.0
  endloop
endfacet
facet normal 0.0 0.0 1.0
  outer loop
    vertex 8.89885832620114 -137.24524400176327 5.0
    vertex 12.792474089075501 -141.35162614279724 5.0
    vertex 12.840346720969903 -136.14417836180854 5.0
  endloop
endfacet
facet normal 0.0 0.0 1.0
  outer loop
    vertex 12.558432711397753 -142.45800984114217 5.0
    vertex 12.792474089075501 -141.35162614279724 5.0
    vertex 8.89885832620114 -137.24524400176327 5.0
  endloop
endfacet
facet normal 0.0 0.0 1.0
  outer loop
    vertex 10.058428140362688 -162.26652524354776 5.0
    vertex 12.558432711397753 -142.45800984114217 5.0
    vertex 8.89885832620114 -137.24524400176327 5.0
  endloop
endfacet
facet normal 0.0 0.0 1.0
  outer loop
    vertex 7.779178737199922 -160.96333443529878 5.0
    vertex 10.058428140362688 -162.26652524354776 5.0
    vertex 8.89885832620114 -137.24524400176327 5.0
  endloop
endfacet
facet normal 0.0 0.0 1.0
  outer loop
    vertex 8.218007277792477 -147.67077568052105 5.0
    vertex 7.779178737199922 -160.96333443529878 5.0
    vertex 8.89885832620114 -137.24524400176327 5.0
  endloop
endfacet
facet normal 0.0 0.0 1.0
  outer loop
    vertex 7.218007300442236 -148.64949906260853 5.0
    vertex 7.779178737199922 -160.96333443529878 5.0
    vertex 8.218007277792477 -147.67077568052105 5.0
  endloop
endfacet
facet normal 0.0 0.0 1.0
  outer loop
    vertex 5.962688179938757 -159.1388605271546 5.0
    vertex 7.779178737199922 -160.96333443529878 5.0
    vertex 7.218007300442236 -148.64949906260853 5.0
  endloop
endfacet
facet normal 0.0 0.0 1.0
  outer loop
    vertex 5.973325786080788 -149.7532217104818 5.0
    vertex 5.962688179938757 -159.1388605271546 5.0
    vertex 7.218007300442236 -148.64949906260853 5.0
  endloop
endfacet
facet normal 0.0 0.0 1.0
  outer loop
    vertex 5.005241393114062 -151.1494990059841 5.0
    vertex 5.962688179938757 -159.1388605271546 5.0
    vertex 5.973325786080788 -149.7532217104818 5.0
  endloop
endfacet
facet normal 0.0 0.0 1.0
  outer loop
    vertex 4.622260444341674 -156.7665203149301 5.0
    vertex 5.962688179938757 -159.1388605271546 5.0
    vertex 5.005241393114062 -151.1494990059841 5.0
  endloop
endfacet
facet normal 0.0 0.0 1.0
  outer loop
    vertex 4.3828999444439765 -152.71598821252476 5.0
    vertex 4.622260444341674 -156.7665203149301 5.0
    vertex 5.005241393114062 -151.1494990059841 5.0
  endloop
endfacet
facet normal 0.0 0.0 1.0
  outer loop
    vertex 4.175454177865986 -154.33034999776837 5.0
    vertex 4.622260444341674 -156.7665203149301 5.0
    vertex 4.3828999444439765 -152.71598821252476 5.0
  endloop
endfacet
facet normal 0.0 0.0 1.0
  outer loop
    vertex 8.89885832620114 -137.24524400176327 5.0
    vertex 7.031836107850461 -138.27183863276647 5.0
    vertex 8.218007277792477 -147.67077568052105 5.0
  endloop
endfacet
facet normal 0.0 0.0 1.0
  outer loop
    vertex 7.388220062544401 -146.8197118700102 5.0
    vertex 8.218007277792477 -147.67077568052105 5.0
    vertex 7.031836107850461 -138.27183863276647 5.0
  endloop
endfacet
facet normal 0.0 0.0 1.0
  outer loop
    vertex 6.178109817346744 -145.89018930795197 5.0
    vertex 7.388220062544401 -146.8197118700102 5.0
    vertex 7.031836107850461 -138.27183863276647 5.0
  endloop
endfacet
facet normal 0.0 0.0 1.0
  outer loop
    vertex 5.558432869946106 -139.73460564750746 5.0
    vertex 6.178109817346744 -145.89018930795197 5.0
    vertex 7.031836107850461 -138.27183863276647 5.0
  endloop
endfacet
facet normal 0.0 0.0 1.0
  outer loop
    vertex 5.313748566977509 -144.86758518550204 5.0
    vertex 6.178109817346744 -145.89018930795197 5.0
    vertex 5.558432869946106 -139.73460564750746 5.0
  endloop
endfacet
facet normal 0.0 0.0 1.0
  outer loop
    vertex 4.856304056061922 -141.0431157774445 5.0
    vertex 5.313748566977509 -144.86758518550204 5.0
    vertex 5.558432869946106 -139.73460564750746 5.0
  endloop
endfacet
facet normal 0.0 0.0 1.0
  outer loop
    vertex 4.795133718351678 -143.7518954933519 5.0
    vertex 5.313748566977509 -144.86758518550204 5.0
    vertex 4.856304056061922 -141.0431157774445 5.0
  endloop
endfacet
facet normal 0.0 0.0 1.0
  outer loop
    vertex 4.6222626783841845 -142.54311622219325 5.0
    vertex 4.795133718351678 -143.7518954933519 5.0
    vertex 4.856304056061922 -141.0431157774445 5.0
  endloop
endfacet
facet normal 0.0 0.0 -1.0
  outer loop
    vertex 21.239283578608298 -152.37290323359343 0.0
    vertex 18.047794289192655 -153.436732996732 0.0
    vertex 18.366943218134217 -141.37290348274084 0.0
  endloop
endfacet
facet normal 0.0 0.0 -1.0
  outer loop
    vertex 17.978647296077966 -142.48460555862488 0.0
    vertex 18.366943218134217 -141.37290348274084 0.0
    vertex 18.047794289192655 -153.436732996732 0.0
  endloop
endfacet
facet normal 0.0 0.0 -1.0
  outer loop
    vertex 14.952049678459483 -155.20269040354196 0.0
    vertex 17.978647296077966 -142.48460555862488 0.0
    vertex 18.047794289192655 -153.436732996732 0.0
  endloop
endfacet
facet normal 0.0 0.0 -1.0
  outer loop
    vertex 16.813751763951938 -143.6069459853318 0.0
    vertex 17.978647296077966 -142.48460555862488 0.0
    vertex 14.952049678459483 -155.20269040354196 0.0
  endloop
endfacet
facet normal 0.0 0.0 -1.0
  outer loop
    vertex 15.249921214265953 -144.56439436790114 0.0
    vertex 16.813751763951938 -143.6069459853318 0.0
    vertex 14.952049678459483 -155.20269040354196 0.0
  endloop
endfacet
facet normal 0.0 0.0 -1.0
  outer loop
    vertex 14.00524118926617 -144.88354170109804 0.0
    vertex 15.249921214265953 -144.56439436790114 0.0
    vertex 14.952049678459483 -155.20269040354196 0.0
  endloop
endfacet
facet normal 0.0 0.0 -1.0
  outer loop
    vertex 14.401516858482106 -155.95800905664694 0.0
    vertex 14.00524118926617 -144.88354170109804 0.0
    vertex 14.952049678459483 -155.20269040354196 0.0
  endloop
endfacet
facet normal 0.0 0.0 -1.0
  outer loop
    vertex 14.218007141893882 -156.90481802456364 0.0
    vertex 14.00524118926617 -144.88354170109804 0.0
    vertex 14.401516858482106 -155.95800905664694 0.0
  endloop
endfacet
facet normal 0.0 0.0 -1.0
  outer loop
    vertex 8.89885832620114 -137.24524400176327 0.0
    vertex 8.218007277792477 -147.67077568052105 0.0
    vertex 7.031836107850461 -138.27183863276647 0.0
  endloop
endfacet
facet normal 0.0 0.0 -1.0
  outer loop
    vertex 7.388220062544401 -146.8197118700102 0.0
    vertex 7.031836107850461 -138.27183863276647 0.0
    vertex 8.218007277792477 -147.67077568052105 0.0
  endloop
endfacet
facet normal 0.0 0.0 -1.0
  outer loop
    vertex 6.178109817346744 -145.89018930795197 0.0
    vertex 7.031836107850461 -138.27183863276647 0.0
    vertex 7.388220062544401 -146.8197118700102 0.0
  endloop
endfacet
facet normal 0.0 0.0 -1.0
  outer loop
    vertex 5.558432869946106 -139.73460564750746 0.0
    vertex 7.031836107850461 -138.27183863276647 0.0
    vertex 6.178109817346744 -145.89018930795197 0.0
  endloop
endfacet
facet normal 0.0 0.0 -1.0
  outer loop
    vertex 5.313748566977509 -144.86758518550204 0.0
    vertex 5.558432869946106 -139.73460564750746 0.0
    vertex 6.178109817346744 -145.89018930795197 0.0
  endloop
endfacet
facet normal 0.0 0.0 -1.0
  outer loop
    vertex 4.856304056061922 -141.0431157774445 0.0
    vertex 5.558432869946106 -139.73460564750746 0.0
    vertex 5.313748566977509 -144.86758518550204 0.0
  endloop
endfacet
facet normal 0.0 0.0 -1.0
  outer loop
    vertex 4.795133718351678 -143.7518954933519 0.0
    vertex 4.856304056061922 -141.0431157774445 0.0
    vertex 5.313748566977509 -144.86758518550204 0.0
  endloop
endfacet
facet normal 0.0 0.0 -1.0
  outer loop
    vertex 4.6222626783841845 -142.54311622219325 0.0
    vertex 4.856304056061922 -141.0431157774445 0.0
    vertex 4.795133718351678 -143.7518954933519 0.0
  endloop
endfacet
facet normal 0.0 0.0 -1.0
  outer loop
    vertex 29.38821956424957 -154.92609466512596 0.0
    vertex 29.12226345325214 -156.8197122818104 0.0
    vertex 29.229976073817788 -153.61359167291232 0.0
  endloop
endfacet
facet normal 0.0 0.0 -1.0
  outer loop
    vertex 28.75524402007568 -152.4207743761262 0.0
    vertex 29.229976073817788 -153.61359167291232 0.0
    vertex 29.12226345325214 -156.8197122818104 0.0
  endloop
endfacet
facet normal 0.0 0.0 -1.0
  outer loop
    vertex 28.324389801111028 -158.4580094787459 0.0
    vertex 28.75524402007568 -152.4207743761262 0.0
    vertex 29.12226345325214 -156.8197122818104 0.0
  endloop
endfacet
facet normal 0.0 0.0 -1.0
  outer loop
    vertex 27.964021029353077 -151.34763852609734 0.0
    vertex 28.75524402007568 -152.4207743761262 0.0
    vertex 28.324389801111028 -158.4580094787459 0.0
  endloop
endfacet
facet normal 0.0 0.0 -1.0
  outer loop
    vertex 26.648859280550763 -160.2612020176913 0.0
    vertex 27.964021029353077 -151.34763852609734 0.0
    vertex 28.324389801111028 -158.4580094787459 0.0
  endloop
endfacet
facet normal 0.0 0.0 -1.0
  outer loop
    vertex 26.85630472797983 -150.39417987415572 0.0
    vertex 27.964021029353077 -151.34763852609734 0.0
    vertex 26.648859280550763 -160.2612020176913 0.0
  endloop
endfacet
facet normal 0.0 0.0 -1.0
  outer loop
    vertex 25.92013453641791 -149.37290330154272 0.0
    vertex 26.85630472797983 -150.39417987415572 0.0
    vertex 26.648859280550763 -160.2612020176913 0.0
  endloop
endfacet
facet normal 0.0 0.0 -1.0
  outer loop
    vertex 24.43077286802394 -161.6282221728988 0.0
    vertex 25.92013453641791 -149.37290330154272 0.0
    vertex 26.648859280550763 -160.2612020176913 0.0
  endloop
endfacet
facet normal 0.0 0.0 -1.0
  outer loop
    vertex 25.005240940118757 -137.71332909754426 0.0
    vertex 25.92013453641791 -149.37290330154272 0.0
    vertex 24.43077286802394 -161.6282221728988 0.0
  endloop
endfacet
facet normal 0.0 0.0 -1.0
  outer loop
    vertex 21.409498042838084 -136.2611990506474 0.0
    vertex 25.005240940118757 -137.71332909754426 0.0
    vertex 24.43077286802394 -161.6282221728988 0.0
  endloop
endfacet
facet normal 0.0 0.0 -1.0
  outer loop
    vertex 22.303113341746847 -154.01120106882678 0.0
    vertex 21.409498042838084 -136.2611990506474 0.0
    vertex 24.43077286802394 -161.6282221728988 0.0
  endloop
endfacet
facet normal 0.0 0.0 -1.0
  outer loop
    vertex 22.01587930569944 -152.830350031743 0.0
    vertex 21.409498042838084 -136.2611990506474 0.0
    vertex 22.303113341746847 -154.01120106882678 0.0
  endloop
endfacet
facet normal 0.0 0.0 -1.0
  outer loop
    vertex 21.239283578608298 -152.37290323359343 0.0
    vertex 21.409498042838084 -136.2611990506474 0.0
    vertex 22.01587930569944 -152.830350031743 0.0
  endloop
endfacet
facet normal 0.0 0.0 -1.0
  outer loop
    vertex 17.132900692893504 -135.7771589286321 0.0
    vertex 21.409498042838084 -136.2611990506474 0.0
    vertex 21.239283578608298 -152.37290323359343 0.0
  endloop
endfacet
facet normal 0.0 0.0 -1.0
  outer loop
    vertex 18.366943218134217 -141.37290348274084 0.0
    vertex 17.132900692893504 -135.7771589286321 0.0
    vertex 21.239283578608298 -152.37290323359343 0.0
  endloop
endfacet
facet normal 0.0 0.0 -1.0
  outer loop
    vertex 18.21002911264573 -140.72662662237886 0.0
    vertex 17.132900692893504 -135.7771589286321 0.0
    vertex 18.366943218134217 -141.37290348274084 0.0
  endloop
endfacet
facet normal 0.0 0.0 -1.0
  outer loop
    vertex 17.739283657882474 -140.19205244565705 0.0
    vertex 17.132900692893504 -135.7771589286321 0.0
    vertex 18.21002911264573 -140.72662662237886 0.0
  endloop
endfacet
facet normal 0.0 0.0 -1.0
  outer loop
    vertex 16.175453906068807 -139.71332905224472 0.0
    vertex 17.132900692893504 -135.7771589286321 0.0
    vertex 17.739283657882474 -140.19205244565705 0.0
  endloop
endfacet
facet normal 0.0 0.0 -1.0
  outer loop
    vertex 12.840346720969903 -136.14417836180854 0.0
    vertex 17.132900692893504 -135.7771589286321 0.0
    vertex 16.175453906068807 -139.71332905224472 0.0
  endloop
endfacet
facet normal 0.0 0.0 -1.0
  outer loop
    vertex 14.739283247108373 -139.9207748188227 0.0
    vertex 12.840346720969903 -136.14417836180854 0.0
    vertex 16.175453906068807 -139.71332905224472 0.0
  endloop
endfacet
facet normal 0.0 0.0 -1.0
  outer loop
    vertex 13.494602902959674 -140.54311626749276 0.0
    vertex 12.840346720969903 -136.14417836180854 0.0
    vertex 14.739283247108373 -139.9207748188227 0.0
  endloop
endfacet
facet normal 0.0 0.0 -1.0
  outer loop
    vertex 12.792474089075501 -141.35162614279724 0.0
    vertex 12.840346720969903 -136.14417836180854 0.0
    vertex 13.494602902959674 -140.54311626749276 0.0
  endloop
endfacet
facet normal 0.0 0.0 -1.0
  outer loop
    vertex 8.89885832620114 -137.24524400176327 0.0
    vertex 12.840346720969903 -136.14417836180854 0.0
    vertex 12.792474089075501 -141.35162614279724 0.0
  endloop
endfacet
facet normal 0.0 0.0 -1.0
  outer loop
    vertex 12.558432711397753 -142.45800984114217 0.0
    vertex 8.89885832620114 -137.24524400176327 0.0
    vertex 12.792474089075501 -141.35162614279724 0.0
  endloop
endfacet
facet normal 0.0 0.0 -1.0
  outer loop
    vertex 10.058428140362688 -162.26652524354776 0.0
    vertex 8.89885832620114 -137.24524400176327 0.0
    vertex 12.558432711397753 -142.45800984114217 0.0
  endloop
endfacet
facet normal 0.0 0.0 -1.0
  outer loop
    vertex 7.779178737199922 -160.96333443529878 0.0
    vertex 8.89885832620114 -137.24524400176327 0.0
    vertex 10.058428140362688 -162.26652524354776 0.0
  endloop
endfacet
facet normal 0.0 0.0 -1.0
  outer loop
    vertex 8.218007277792477 -147.67077568052105 0.0
    vertex 8.89885832620114 -137.24524400176327 0.0
    vertex 7.779178737199922 -160.96333443529878 0.0
  endloop
endfacet
facet normal 0.0 0.0 -1.0
  outer loop
    vertex 7.218007300442236 -148.64949906260853 0.0
    vertex 8.218007277792477 -147.67077568052105 0.0
    vertex 7.779178737199922 -160.96333443529878 0.0
  endloop
endfacet
facet normal 0.0 0.0 -1.0
  outer loop
    vertex 5.962688179938757 -159.1388605271546 0.0
    vertex 7.218007300442236 -148.64949906260853 0.0
    vertex 7.779178737199922 -160.96333443529878 0.0
  endloop
endfacet
facet normal 0.0 0.0 -1.0
  outer loop
    vertex 5.973325786080788 -149.7532217104818 0.0
    vertex 7.218007300442236 -148.64949906260853 0.0
    vertex 5.962688179938757 -159.1388605271546 0.0
  endloop
endfacet
facet normal 0.0 0.0 -1.0
  outer loop
    vertex 5.005241393114062 -151.1494990059841 0.0
    vertex 5.973325786080788 -149.7532217104818 0.0
    vertex 5.962688179938757 -159.1388605271546 0.0
  endloop
endfacet
facet normal 0.0 0.0 -1.0
  outer loop
    vertex 4.622260444341674 -156.7665203149301 0.0
    vertex 5.005241393114062 -151.1494990059841 0.0
    vertex 5.962688179938757 -159.1388605271546 0.0
  endloop
endfacet
facet normal 0.0 0.0 -1.0
  outer loop
    vertex 4.3828999444439765 -152.71598821252476 0.0
    vertex 5.005241393114062 -151.1494990059841 0.0
    vertex 4.622260444341674 -156.7665203149301 0.0
  endloop
endfacet
facet normal 0.0 0.0 -1.0
  outer loop
    vertex 4.175454177865986 -154.33034999776837 0.0
    vertex 4.3828999444439765 -152.71598821252476 0.0
    vertex 4.622260444341674 -156.7665203149301 0.0
  endloop
endfacet
facet normal 0.0 0.0 -1.0
  outer loop
    vertex 24.43077286802394 -161.6282221728988 0.0
    vertex 20.483965776567135 -162.88886254328176 0.0
    vertex 22.303113341746847 -154.01120106882678 0.0
  endloop
endfacet
facet normal 0.0 0.0 -1.0
  outer loop
    vertex 21.87758143649143 -155.81971166616233 0.0
    vertex 22.303113341746847 -154.01120106882678 0.0
    vertex 20.483965776567135 -162.88886254328176 0.0
  endloop
endfacet
facet normal 0.0 0.0 -1.0
  outer loop
    vertex 20.81375167335288 -157.43673290613293 0.0
    vertex 21.87758143649143 -155.81971166616233 0.0
    vertex 20.483965776567135 -162.88886254328176 0.0
  endloop
endfacet
facet normal 0.0 0.0 -1.0
  outer loop
    vertex 19.11162490339501 -158.60162843825896 0.0
    vertex 20.81375167335288 -157.43673290613293 0.0
    vertex 20.483965776567135 -162.88886254328176 0.0
  endloop
endfacet
facet normal 0.0 0.0 -1.0
  outer loop
    vertex 16.005241143966643 -163.3090731986577 0.0
    vertex 19.11162490339501 -158.60162843825896 0.0
    vertex 20.483965776567135 -162.88886254328176 0.0
  endloop
endfacet
facet normal 0.0 0.0 -1.0
  outer loop
    vertex 17.069070907105193 -158.9899243603152 0.0
    vertex 19.11162490339501 -158.60162843825896 0.0
    vertex 16.005241143966643 -163.3090731986577 0.0
  endloop
endfacet
facet normal 0.0 0.0 -1.0
  outer loop
    vertex 15.901517090464903 -158.84630806037657 0.0
    vertex 17.069070907105193 -158.9899243603152 0.0
    vertex 16.005241143966643 -163.3090731986577 0.0
  endloop
endfacet
facet normal 0.0 0.0 -1.0
  outer loop
    vertex 12.800445804320455 -163.04843686147595 0.0
    vertex 15.901517090464903 -158.84630806037657 0.0
    vertex 16.005241143966643 -163.3090731986577 0.0
  endloop
endfacet
facet normal 0.0 0.0 -1.0
  outer loop
    vertex 14.99460286898502 -158.41545628822038 0.0
    vertex 15.901517090464903 -158.84630806037657 0.0
    vertex 12.800445804320455 -163.04843686147595 0.0
  endloop
endfacet
facet normal 0.0 0.0 -1.0
  outer loop
    vertex 14.412155102922005 -157.75056313838644 0.0
    vertex 14.99460286898502 -158.41545628822038 0.0
    vertex 12.800445804320455 -163.04843686147595 0.0
  endloop
endfacet
facet normal 0.0 0.0 -1.0
  outer loop
    vertex 14.218007141893882 -156.90481802456364 0.0
    vertex 14.412155102922005 -157.75056313838644 0.0
    vertex 12.800445804320455 -163.04843686147595 0.0
  endloop
endfacet
facet normal 0.0 0.0 -1.0
  outer loop
    vertex 14.00524118926617 -144.88354170109804 0.0
    vertex 14.218007141893882 -156.90481802456364 0.0
    vertex 12.800445804320455 -163.04843686147595 0.0
  endloop
endfacet
facet normal 0.0 0.0 -1.0
  outer loop
    vertex 13.478645323533874 -144.69737242339986 0.0
    vertex 14.00524118926617 -144.88354170109804 0.0
    vertex 12.800445804320455 -163.04843686147595 0.0
  endloop
endfacet
facet normal 0.0 0.0 -1.0
  outer loop
    vertex 13.005241211915939 -144.13886086690107 0.0
    vertex 13.478645323533874 -144.69737242339986 0.0
    vertex 12.800445804320455 -163.04843686147595 0.0
  endloop
endfacet
facet normal 0.0 0.0 -1.0
  outer loop
    vertex 12.558432711397753 -142.45800984114217 0.0
    vertex 13.005241211915939 -144.13886086690107 0.0
    vertex 12.800445804320455 -163.04843686147595 0.0
  endloop
endfacet
facet normal 0.0 0.0 -1.0
  outer loop
    vertex 10.058428140362688 -162.26652524354776 0.0
    vertex 12.558432711397753 -142.45800984114217 0.0
    vertex 12.800445804320455 -163.04843686147595 0.0
  endloop
endfacet
facet normal 0.0 0.0 -1.0
  outer loop
    vertex 28.749921706366447 -143.69205236638288 0.0
    vertex 28.24460509547132 -146.20269156483664 0.0
    vertex 28.515880913795073 -141.91412265598768 0.0
  endloop
endfacet
facet normal 0.0 0.0 -1.0
  outer loop
    vertex 27.81375619565548 -140.32502927775155 0.0
    vertex 28.515880913795073 -141.91412265598768 0.0
    vertex 28.24460509547132 -146.20269156483664 0.0
  endloop
endfacet
facet normal 0.0 0.0 -1.0
  outer loop
    vertex 26.728645156403207 -148.33035013366694 0.0
    vertex 27.81375619565548 -140.32502927775155 0.0
    vertex 28.24460509547132 -146.20269156483664 0.0
  endloop
endfacet
facet normal 0.0 0.0 -1.0
  outer loop
    vertex 26.643544041309447 -138.92476662662142 0.0
    vertex 27.81375619565548 -140.32502927775155 0.0
    vertex 26.728645156403207 -148.33035013366694 0.0
  endloop
endfacet
facet normal 0.0 0.0 -1.0
  outer loop
    vertex 25.92013453641791 -149.37290330154272 0.0
    vertex 26.643544041309447 -138.92476662662142 0.0
    vertex 26.728645156403207 -148.33035013366694 0.0
  endloop
endfacet
facet normal 0.0 0.0 -1.0
  outer loop
    vertex 25.005240940118757 -137.71332909754426 0.0
    vertex 26.643544041309447 -138.92476662662142 0.0
    vertex 25.92013453641791 -149.37290330154272 0.0
  endloop
endfacet
facet normal -0.9238795325112851 0.382683432365094 0.0
  outer loop
    vertex 18.856043543753415 -149.81471299809135 2.8999999999999946
    vertex 18.856043543753415 -149.81471299809135 4.999999999999995
    vertex 19.0758244732636 -149.2841148973169 2.8999999999999946
  endloop
endfacet
facet normal -0.9238795325112851 0.382683432365094 0.0
  outer loop
    vertex 19.0758244732636 -149.2841148973169 4.999999999999995
    vertex 19.0758244732636 -149.2841148973169 2.8999999999999946
    vertex 18.856043543753415 -149.81471299809135 4.999999999999995
  endloop
endfacet
facet normal -0.7933533402912306 0.6087614290087267 0.0
  outer loop
    vertex 18.50642257403806 -150.27034791670175 2.8999999999999946
    vertex 18.50642257403806 -150.27034791670175 4.999999999999995
    vertex 18.856043543753415 -149.81471299809135 2.8999999999999946
  endloop
endfacet
facet normal -0.7933533402912306 0.6087614290087267 0.0
  outer loop
    vertex 18.856043543753415 -149.81471299809135 4.999999999999995
    vertex 18.856043543753415 -149.81471299809135 2.8999999999999946
    vertex 18.50642257403806 -150.27034791670175 4.999999999999995
  endloop
endfacet
facet normal -0.7933533402912453 -0.6087614290087077 0.0
  outer loop
    vertex 18.856043543753415 -147.61471299809136 2.8999999999999946
    vertex 18.856043543753415 -147.61471299809136 4.999999999999995
    vertex 18.50642257403806 -147.15907807948093 2.8999999999999946
  endloop
endfacet
facet normal -0.7933533402912453 -0.6087614290087077 0.0
  outer loop
    vertex 18.50642257403806 -147.15907807948093 4.999999999999995
    vertex 18.50642257403806 -147.15907807948093 2.8999999999999946
    vertex 18.856043543753415 -147.61471299809136 4.999999999999995
  endloop
endfacet
facet normal -0.6087614290087049 -0.7933533402912475 0.0
  outer loop
    vertex 18.050787655427655 -146.8094571097656 2.8999999999999946
    vertex 18.50642257403806 -147.15907807948093 2.8999999999999946
    vertex 18.050787655427655 -146.8094571097656 4.999999999999995
  endloop
endfacet
facet normal -0.6087614290087049 -0.7933533402912475 0.0
  outer loop
    vertex 18.50642257403806 -147.15907807948093 4.999999999999995
    vertex 18.050787655427655 -146.8094571097656 4.999999999999995
    vertex 18.50642257403806 -147.15907807948093 2.8999999999999946
  endloop
endfacet
facet normal -0.1305261922200586 0.9914448613738096 0.0
  outer loop
    vertex 17.5201895546532 -150.8397498159273 2.8999999999999946
    vertex 16.950787655427657 -150.91471299809135 2.8999999999999946
    vertex 17.5201895546532 -150.8397498159273 4.999999999999995
  endloop
endfacet
facet normal -0.1305261922200586 0.9914448613738096 0.0
  outer loop
    vertex 16.950787655427657 -150.91471299809135 4.999999999999995
    vertex 17.5201895546532 -150.8397498159273 4.999999999999995
    vertex 16.950787655427657 -150.91471299809135 2.8999999999999946
  endloop
endfacet
facet normal 0.3826834323650871 0.923879532511288 0.0
  outer loop
    vertex 16.381385756202118 -150.8397498159273 2.8999999999999946
    vertex 15.85078765542766 -150.61996888641713 2.8999999999999946
    vertex 16.381385756202118 -150.8397498159273 4.999999999999995
  endloop
endfacet
facet normal 0.3826834323650871 0.923879532511288 0.0
  outer loop
    vertex 15.85078765542766 -150.61996888641713 4.999999999999995
    vertex 16.381385756202118 -150.8397498159273 4.999999999999995
    vertex 15.85078765542766 -150.61996888641713 2.8999999999999946
  endloop
endfacet
facet normal -0.1305261922200586 -0.9914448613738096 0.0
  outer loop
    vertex 16.950787655427657 -146.51471299809137 2.8999999999999946
    vertex 17.5201895546532 -146.58967618025542 2.8999999999999946
    vertex 16.950787655427657 -146.51471299809137 4.999999999999995
  endloop
endfacet
facet normal -0.1305261922200586 -0.9914448613738096 0.0
  outer loop
    vertex 17.5201895546532 -146.58967618025542 4.999999999999995
    vertex 16.950787655427657 -146.51471299809137 4.999999999999995
    vertex 17.5201895546532 -146.58967618025542 2.8999999999999946
  endloop
endfacet
facet normal 0.6087614290087295 -0.7933533402912283 0.0
  outer loop
    vertex 15.395152736817256 -147.15907807948096 2.8999999999999946
    vertex 15.85078765542766 -146.8094571097656 2.8999999999999946
    vertex 15.395152736817256 -147.15907807948096 4.999999999999995
  endloop
endfacet
facet normal 0.6087614290087295 -0.7933533402912283 0.0
  outer loop
    vertex 15.85078765542766 -146.8094571097656 4.999999999999995
    vertex 15.395152736817256 -147.15907807948096 4.999999999999995
    vertex 15.85078765542766 -146.8094571097656 2.8999999999999946
  endloop
endfacet
facet normal -0.3826834323650871 -0.923879532511288 0.0
  outer loop
    vertex 17.5201895546532 -146.58967618025542 2.8999999999999946
    vertex 18.050787655427655 -146.8094571097656 2.8999999999999946
    vertex 17.5201895546532 -146.58967618025542 4.999999999999995
  endloop
endfacet
facet normal -0.3826834323650871 -0.923879532511288 0.0
  outer loop
    vertex 18.050787655427655 -146.8094571097656 4.999999999999995
    vertex 17.5201895546532 -146.58967618025542 4.999999999999995
    vertex 18.050787655427655 -146.8094571097656 2.8999999999999946
  endloop
endfacet
facet normal 0.9914448613738113 -0.1305261922200464 0.0
  outer loop
    vertex 14.750787655427661 -148.71471299809136 4.999999999999995
    vertex 14.750787655427661 -148.71471299809136 2.8999999999999946
    vertex 14.825750837591709 -148.1453110988658 4.999999999999995
  endloop
endfacet
facet normal 0.9914448613738113 -0.1305261922200464 0.0
  outer loop
    vertex 14.825750837591709 -148.1453110988658 2.8999999999999946
    vertex 14.825750837591709 -148.1453110988658 4.999999999999995
    vertex 14.750787655427661 -148.71471299809136 2.8999999999999946
  endloop
endfacet
facet normal 0.6087614290087049 0.7933533402912475 0.0
  outer loop
    vertex 15.85078765542766 -150.61996888641713 2.8999999999999946
    vertex 15.395152736817256 -150.27034791670178 2.8999999999999946
    vertex 15.85078765542766 -150.61996888641713 4.999999999999995
  endloop
endfacet
facet normal 0.6087614290087049 0.7933533402912475 0.0
  outer loop
    vertex 15.395152736817256 -150.27034791670178 4.999999999999995
    vertex 15.85078765542766 -150.61996888641713 4.999999999999995
    vertex 15.395152736817256 -150.27034791670178 2.8999999999999946
  endloop
endfacet
facet normal -0.3826834323650871 0.923879532511288 0.0
  outer loop
    vertex 18.050787655427655 -150.61996888641713 2.8999999999999946
    vertex 17.5201895546532 -150.8397498159273 2.8999999999999946
    vertex 18.050787655427655 -150.61996888641713 4.999999999999995
  endloop
endfacet
facet normal -0.3826834323650871 0.923879532511288 0.0
  outer loop
    vertex 17.5201895546532 -150.8397498159273 4.999999999999995
    vertex 18.050787655427655 -150.61996888641713 4.999999999999995
    vertex 17.5201895546532 -150.8397498159273 2.8999999999999946
  endloop
endfacet
facet normal 0.3826834323650871 -0.923879532511288 0.0
  outer loop
    vertex 15.85078765542766 -146.8094571097656 2.8999999999999946
    vertex 16.381385756202118 -146.58967618025542 2.8999999999999946
    vertex 15.85078765542766 -146.8094571097656 4.999999999999995
  endloop
endfacet
facet normal 0.3826834323650871 -0.923879532511288 0.0
  outer loop
    vertex 16.381385756202118 -146.58967618025542 4.999999999999995
    vertex 15.85078765542766 -146.8094571097656 4.999999999999995
    vertex 16.381385756202118 -146.58967618025542 2.8999999999999946
  endloop
endfacet
facet normal -0.9914448613738099 0.13052619222005604 0.0
  outer loop
    vertex 19.0758244732636 -149.2841148973169 2.8999999999999946
    vertex 19.0758244732636 -149.2841148973169 4.999999999999995
    vertex 19.150787655427653 -148.71471299809136 2.8999999999999946
  endloop
endfacet
facet normal -0.9914448613738099 0.13052619222005604 0.0
  outer loop
    vertex 19.150787655427653 -148.71471299809136 4.999999999999995
    vertex 19.150787655427653 -148.71471299809136 2.8999999999999946
    vertex 19.0758244732636 -149.2841148973169 4.999999999999995
  endloop
endfacet
facet normal 0.1305261922200586 0.9914448613738096 0.0
  outer loop
    vertex 16.950787655427657 -150.91471299809135 2.8999999999999946
    vertex 16.381385756202118 -150.8397498159273 2.8999999999999946
    vertex 16.950787655427657 -150.91471299809135 4.999999999999995
  endloop
endfacet
facet normal 0.1305261922200586 0.9914448613738096 0.0
  outer loop
    vertex 16.381385756202118 -150.8397498159273 4.999999999999995
    vertex 16.950787655427657 -150.91471299809135 4.999999999999995
    vertex 16.381385756202118 -150.8397498159273 2.8999999999999946
  endloop
endfacet
facet normal 0.7933533402912258 -0.6087614290087329 0.0
  outer loop
    vertex 15.045531767101894 -147.61471299809136 4.999999999999995
    vertex 15.045531767101894 -147.61471299809136 2.8999999999999946
    vertex 15.395152736817256 -147.15907807948096 4.999999999999995
  endloop
endfacet
facet normal 0.7933533402912258 -0.6087614290087329 0.0
  outer loop
    vertex 15.395152736817256 -147.15907807948096 2.8999999999999946
    vertex 15.395152736817256 -147.15907807948096 4.999999999999995
    vertex 15.045531767101894 -147.61471299809136 2.8999999999999946
  endloop
endfacet
facet normal 0.1305261922200586 -0.9914448613738096 0.0
  outer loop
    vertex 16.381385756202118 -146.58967618025542 2.8999999999999946
    vertex 16.950787655427657 -146.51471299809137 2.8999999999999946
    vertex 16.381385756202118 -146.58967618025542 4.999999999999995
  endloop
endfacet
facet normal 0.1305261922200586 -0.9914448613738096 0.0
  outer loop
    vertex 16.950787655427657 -146.51471299809137 4.999999999999995
    vertex 16.381385756202118 -146.58967618025542 4.999999999999995
    vertex 16.950787655427657 -146.51471299809137 2.8999999999999946
  endloop
endfacet
facet normal 0.0 0.0 1.0
  outer loop
    vertex 19.150787655427653 -148.71471299809136 2.8999999999999946
    vertex 19.0758244732636 -148.1453110988658 2.8999999999999946
    vertex 19.0758244732636 -149.2841148973169 2.8999999999999946
  endloop
endfacet
facet normal 0.0 0.0 1.0
  outer loop
    vertex 18.856043543753415 -149.81471299809135 2.8999999999999946
    vertex 19.0758244732636 -149.2841148973169 2.8999999999999946
    vertex 19.0758244732636 -148.1453110988658 2.8999999999999946
  endloop
endfacet
facet normal 0.0 0.0 1.0
  outer loop
    vertex 18.856043543753415 -147.61471299809136 2.8999999999999946
    vertex 18.856043543753415 -149.81471299809135 2.8999999999999946
    vertex 19.0758244732636 -148.1453110988658 2.8999999999999946
  endloop
endfacet
facet normal 0.0 0.0 1.0
  outer loop
    vertex 18.50642257403806 -150.27034791670175 2.8999999999999946
    vertex 18.856043543753415 -149.81471299809135 2.8999999999999946
    vertex 18.856043543753415 -147.61471299809136 2.8999999999999946
  endloop
endfacet
facet normal 0.0 0.0 1.0
  outer loop
    vertex 18.50642257403806 -147.15907807948093 2.8999999999999946
    vertex 18.50642257403806 -150.27034791670175 2.8999999999999946
    vertex 18.856043543753415 -147.61471299809136 2.8999999999999946
  endloop
endfacet
facet normal 0.0 0.0 1.0
  outer loop
    vertex 18.050787655427655 -150.61996888641713 2.8999999999999946
    vertex 18.50642257403806 -150.27034791670175 2.8999999999999946
    vertex 18.50642257403806 -147.15907807948093 2.8999999999999946
  endloop
endfacet
facet normal 0.0 0.0 1.0
  outer loop
    vertex 18.050787655427655 -146.8094571097656 2.8999999999999946
    vertex 18.050787655427655 -150.61996888641713 2.8999999999999946
    vertex 18.50642257403806 -147.15907807948093 2.8999999999999946
  endloop
endfacet
facet normal 0.0 0.0 1.0
  outer loop
    vertex 17.5201895546532 -150.8397498159273 2.8999999999999946
    vertex 18.050787655427655 -150.61996888641713 2.8999999999999946
    vertex 18.050787655427655 -146.8094571097656 2.8999999999999946
  endloop
endfacet
facet normal 0.0 0.0 1.0
  outer loop
    vertex 17.5201895546532 -146.58967618025542 2.8999999999999946
    vertex 17.5201895546532 -150.8397498159273 2.8999999999999946
    vertex 18.050787655427655 -146.8094571097656 2.8999999999999946
  endloop
endfacet
facet normal 0.0 0.0 1.0
  outer loop
    vertex 16.950787655427657 -150.91471299809135 2.8999999999999946
    vertex 17.5201895546532 -150.8397498159273 2.8999999999999946
    vertex 17.5201895546532 -146.58967618025542 2.8999999999999946
  endloop
endfacet
facet normal 0.0 0.0 1.0
  outer loop
    vertex 16.950787655427657 -146.51471299809137 2.8999999999999946
    vertex 16.950787655427657 -150.91471299809135 2.8999999999999946
    vertex 17.5201895546532 -146.58967618025542 2.8999999999999946
  endloop
endfacet
facet normal 0.0 0.0 1.0
  outer loop
    vertex 16.381385756202118 -150.8397498159273 2.8999999999999946
    vertex 16.950787655427657 -150.91471299809135 2.8999999999999946
    vertex 16.950787655427657 -146.51471299809137 2.8999999999999946
  endloop
endfacet
facet normal 0.0 0.0 1.0
  outer loop
    vertex 16.381385756202118 -146.58967618025542 2.8999999999999946
    vertex 16.381385756202118 -150.8397498159273 2.8999999999999946
    vertex 16.950787655427657 -146.51471299809137 2.8999999999999946
  endloop
endfacet
facet normal 0.0 0.0 1.0
  outer loop
    vertex 15.85078765542766 -150.61996888641713 2.8999999999999946
    vertex 16.381385756202118 -150.8397498159273 2.8999999999999946
    vertex 16.381385756202118 -146.58967618025542 2.8999999999999946
  endloop
endfacet
facet normal 0.0 0.0 1.0
  outer loop
    vertex 15.85078765542766 -146.8094571097656 2.8999999999999946
    vertex 15.85078765542766 -150.61996888641713 2.8999999999999946
    vertex 16.381385756202118 -146.58967618025542 2.8999999999999946
  endloop
endfacet
facet normal 0.0 0.0 1.0
  outer loop
    vertex 15.395152736817256 -150.27034791670178 2.8999999999999946
    vertex 15.85078765542766 -150.61996888641713 2.8999999999999946
    vertex 15.85078765542766 -146.8094571097656 2.8999999999999946
  endloop
endfacet
facet normal 0.0 0.0 1.0
  outer loop
    vertex 15.395152736817256 -147.15907807948096 2.8999999999999946
    vertex 15.395152736817256 -150.27034791670178 2.8999999999999946
    vertex 15.85078765542766 -146.8094571097656 2.8999999999999946
  endloop
endfacet
facet normal 0.0 0.0 1.0
  outer loop
    vertex 15.045531767101899 -149.81471299809135 2.8999999999999946
    vertex 15.395152736817256 -150.27034791670178 2.8999999999999946
    vertex 15.395152736817256 -147.15907807948096 2.8999999999999946
  endloop
endfacet
facet normal 0.0 0.0 1.0
  outer loop
    vertex 15.045531767101894 -147.61471299809136 2.8999999999999946
    vertex 15.045531767101899 -149.81471299809135 2.8999999999999946
    vertex 15.395152736817256 -147.15907807948096 2.8999999999999946
  endloop
endfacet
facet normal 0.0 0.0 1.0
  outer loop
    vertex 14.825750837591709 -149.2841148973169 2.8999999999999946
    vertex 15.045531767101899 -149.81471299809135 2.8999999999999946
    vertex 15.045531767101894 -147.61471299809136 2.8999999999999946
  endloop
endfacet
facet normal 0.0 0.0 1.0
  outer loop
    vertex 14.825750837591709 -148.1453110988658 2.8999999999999946
    vertex 14.825750837591709 -149.2841148973169 2.8999999999999946
    vertex 15.045531767101894 -147.61471299809136 2.8999999999999946
  endloop
endfacet
facet normal 0.0 0.0 1.0
  outer loop
    vertex 14.750787655427661 -148.71471299809136 2.8999999999999946
    vertex 14.825750837591709 -149.2841148973169 2.8999999999999946
    vertex 14.825750837591709 -148.1453110988658 2.8999999999999946
  endloop
endfacet
facet normal -0.6087614290087295 0.7933533402912283 0.0
  outer loop
    vertex 18.50642257403806 -150.27034791670175 2.8999999999999946
    vertex 18.050787655427655 -150.61996888641713 2.8999999999999946
    vertex 18.50642257403806 -150.27034791670175 4.999999999999995
  endloop
endfacet
facet normal -0.6087614290087295 0.7933533402912283 0.0
  outer loop
    vertex 18.050787655427655 -150.61996888641713 4.999999999999995
    vertex 18.50642257403806 -150.27034791670175 4.999999999999995
    vertex 18.050787655427655 -150.61996888641713 2.8999999999999946
  endloop
endfacet
facet normal 0.9238795325112851 -0.382683432365094 0.0
  outer loop
    vertex 14.825750837591709 -148.1453110988658 4.999999999999995
    vertex 14.825750837591709 -148.1453110988658 2.8999999999999946
    vertex 15.045531767101894 -147.61471299809136 4.999999999999995
  endloop
endfacet
facet normal 0.9238795325112851 -0.382683432365094 0.0
  outer loop
    vertex 15.045531767101894 -147.61471299809136 2.8999999999999946
    vertex 15.045531767101894 -147.61471299809136 4.999999999999995
    vertex 14.825750837591709 -148.1453110988658 2.8999999999999946
  endloop
endfacet
facet normal 0.9914448613738113 0.1305261922200464 0.0
  outer loop
    vertex 14.825750837591709 -149.2841148973169 4.999999999999995
    vertex 14.825750837591709 -149.2841148973169 2.8999999999999946
    vertex 14.750787655427661 -148.71471299809136 4.999999999999995
  endloop
endfacet
facet normal 0.9914448613738113 0.1305261922200464 0.0
  outer loop
    vertex 14.750787655427661 -148.71471299809136 2.8999999999999946
    vertex 14.750787655427661 -148.71471299809136 4.999999999999995
    vertex 14.825750837591709 -149.2841148973169 2.8999999999999946
  endloop
endfacet
facet normal -0.9914448613738099 -0.13052619222005604 0.0
  outer loop
    vertex 19.150787655427653 -148.71471299809136 2.8999999999999946
    vertex 19.150787655427653 -148.71471299809136 4.999999999999995
    vertex 19.0758244732636 -148.1453110988658 2.8999999999999946
  endloop
endfacet
facet normal -0.9914448613738099 -0.13052619222005604 0.0
  outer loop
    vertex 19.0758244732636 -148.1453110988658 4.999999999999995
    vertex 19.0758244732636 -148.1453110988658 2.8999999999999946
    vertex 19.150787655427653 -148.71471299809136 4.999999999999995
  endloop
endfacet
facet normal -0.9238795325112851 -0.382683432365094 0.0
  outer loop
    vertex 19.0758244732636 -148.1453110988658 2.8999999999999946
    vertex 19.0758244732636 -148.1453110988658 4.999999999999995
    vertex 18.856043543753415 -147.61471299809136 2.8999999999999946
  endloop
endfacet
facet normal -0.9238795325112851 -0.382683432365094 0.0
  outer loop
    vertex 18.856043543753415 -147.61471299809136 4.999999999999995
    vertex 18.856043543753415 -147.61471299809136 2.8999999999999946
    vertex 19.0758244732636 -148.1453110988658 4.999999999999995
  endloop
endfacet
facet normal 0.7933533402912453 0.6087614290087077 0.0
  outer loop
    vertex 15.395152736817256 -150.27034791670178 4.999999999999995
    vertex 15.395152736817256 -150.27034791670178 2.8999999999999946
    vertex 15.045531767101899 -149.81471299809135 4.999999999999995
  endloop
endfacet
facet normal 0.7933533402912453 0.6087614290087077 0.0
  outer loop
    vertex 15.045531767101899 -149.81471299809135 2.8999999999999946
    vertex 15.045531767101899 -149.81471299809135 4.999999999999995
    vertex 15.395152736817256 -150.27034791670178 2.8999999999999946
  endloop
endfacet
facet normal 0.9238795325112817 0.38268343236510244 0.0
  outer loop
    vertex 15.045531767101899 -149.81471299809135 4.999999999999995
    vertex 15.045531767101899 -149.81471299809135 2.8999999999999946
    vertex 14.825750837591709 -149.2841148973169 4.999999999999995
  endloop
endfacet
facet normal 0.9238795325112817 0.38268343236510244 0.0
  outer loop
    vertex 14.825750837591709 -149.2841148973169 2.8999999999999946
    vertex 14.825750837591709 -149.2841148973169 4.999999999999995
    vertex 15.045531767101899 -149.81471299809135 2.8999999999999946
  endloop
endfacet
endsolid ABC
