solid ABC
facet normal 0.8329886018874536 0.5532901491311636 0.0
  outer loop
    vertex 65.20205287541506 -144.01651786435295 5.0
    vertex 65.20205287541506 -144.01651786435295 0.0
    vertex 64.11827684610596 -142.38487291128274 5.0
  endloop
endfacet
facet normal 0.8329886018874536 0.5532901491311636 0.0
  outer loop
    vertex 64.11827684610596 -142.38487291128274 0.0
    vertex 64.11827684610596 -142.38487291128274 5.0
    vertex 65.20205287541506 -144.01651786435295 0.0
  endloop
endfacet
facet normal 0.6711506440528318 0.7413209918702351 0.0
  outer loop
    vertex 64.11827684610596 -142.38487291128274 0.0
    vertex 62.60098476943502 -141.01120136327376 0.0
    vertex 64.11827684610596 -142.38487291128274 5.0
  endloop
endfacet
facet normal 0.6711506440528318 0.7413209918702351 0.0
  outer loop
    vertex 62.60098476943502 -141.01120136327376 5.0
    vertex 64.11827684610596 -142.38487291128274 5.0
    vertex 62.60098476943502 -141.01120136327376 0.0
  endloop
endfacet
facet normal 0.5178599056515188 0.8554654394647395 0.0
  outer loop
    vertex 62.60098476943502 -141.01120136327376 0.0
    vertex 60.66348209057964 -139.83832527946677 0.0
    vertex 62.60098476943502 -141.01120136327376 5.0
  endloop
endfacet
facet normal 0.5178599056515188 0.8554654394647395 0.0
  outer loop
    vertex 60.66348209057964 -139.83832527946677 5.0
    vertex 62.60098476943502 -141.01120136327376 5.0
    vertex 60.66348209057964 -139.83832527946677 0.0
  endloop
endfacet
facet normal 0.3657786471818137 0.9307018756110049 0.0
  outer loop
    vertex 60.66348209057964 -139.83832527946677 0.0
    vertex 58.53183786691939 -139.00055975987814 0.0
    vertex 60.66348209057964 -139.83832527946677 5.0
  endloop
endfacet
facet normal 0.3657786471818137 0.9307018756110049 0.0
  outer loop
    vertex 58.53183786691939 -139.00055975987814 5.0
    vertex 60.66348209057964 -139.83832527946677 5.0
    vertex 58.53183786691939 -139.00055975987814 0.0
  endloop
endfacet
facet normal 0.21124569400648724 0.977432993490458 0.0
  outer loop
    vertex 58.53183786691939 -139.00055975987814 0.0
    vertex 56.20604374074171 -138.49790229121 0.0
    vertex 58.53183786691939 -139.00055975987814 5.0
  endloop
endfacet
facet normal 0.21124569400648724 0.977432993490458 0.0
  outer loop
    vertex 56.20604374074171 -138.49790229121 5.0
    vertex 58.53183786691939 -139.00055975987814 5.0
    vertex 56.20604374074171 -138.49790229121 0.0
  endloop
endfacet
facet normal 0.06634362907349406 0.9977968344715064 0.0
  outer loop
    vertex 56.20604374074171 -138.49790229121 0.0
    vertex 53.686091354333996 -138.3303503601646 0.0
    vertex 56.20604374074171 -138.49790229121 5.0
  endloop
endfacet
facet normal 0.06634362907349406 0.9977968344715064 0.0
  outer loop
    vertex 53.686091354333996 -138.3303503601646 5.0
    vertex 56.20604374074171 -138.49790229121 5.0
    vertex 53.686091354333996 -138.3303503601646 0.0
  endloop
endfacet
facet normal -0.22215336331092675 -0.9750117348881722 0.0
  outer loop
    vertex 53.96268709275002 -144.4154566053171 0.0
    vertex 54.80311297796989 -144.60694500523525 0.0
    vertex 53.96268709275002 -144.4154566053171 5.0
  endloop
endfacet
facet normal -0.22215336331092675 -0.9750117348881722 0.0
  outer loop
    vertex 54.80311297796989 -144.60694500523525 5.0
    vertex 53.96268709275002 -144.4154566053171 5.0
    vertex 54.80311297796989 -144.60694500523525 0.0
  endloop
endfacet
facet normal -0.6390205282462398 -0.7691896804299292 0.0
  outer loop
    vertex 54.80311297796989 -144.60694500523525 0.0
    vertex 55.49460195166953 -145.18141403477682 0.0
    vertex 54.80311297796989 -144.60694500523525 5.0
  endloop
endfacet
facet normal -0.6390205282462398 -0.7691896804299292 0.0
  outer loop
    vertex 55.49460195166953 -145.18141403477682 5.0
    vertex 54.80311297796989 -144.60694500523525 5.0
    vertex 55.49460195166953 -145.18141403477682 0.0
  endloop
endfacet
facet normal -0.8797678493142307 -0.4754035457514102 0.0
  outer loop
    vertex 55.957368669911375 -146.03779654197572 0.0
    vertex 55.957368669911375 -146.03779654197572 5.0
    vertex 55.49460195166953 -145.18141403477682 0.0
  endloop
endfacet
facet normal -0.8797678493142307 -0.4754035457514102 0.0
  outer loop
    vertex 55.49460195166953 -145.18141403477682 5.0
    vertex 55.49460195166953 -145.18141403477682 0.0
    vertex 55.957368669911375 -146.03779654197572 5.0
  endloop
endfacet
facet normal -0.9891217215785539 -0.1470993538445276 0.0
  outer loop
    vertex 56.111623214289885 -147.07503101316345 0.0
    vertex 56.111623214289885 -147.07503101316345 5.0
    vertex 55.957368669911375 -146.03779654197572 0.0
  endloop
endfacet
facet normal -0.9891217215785539 -0.1470993538445276 0.0
  outer loop
    vertex 55.957368669911375 -146.03779654197572 5.0
    vertex 55.957368669911375 -146.03779654197572 0.0
    vertex 56.111623214289885 -147.07503101316345 5.0
  endloop
endfacet
facet normal -0.9916077078146418 0.12928323094118577 0.0
  outer loop
    vertex 55.84566710329245 -149.11492534196034 0.0
    vertex 55.84566710329245 -149.11492534196034 5.0
    vertex 56.111623214289885 -147.07503101316345 0.0
  endloop
endfacet
facet normal -0.9916077078146418 0.12928323094118577 0.0
  outer loop
    vertex 56.111623214289885 -147.07503101316345 5.0
    vertex 56.111623214289885 -147.07503101316345 0.0
    vertex 55.84566710329245 -149.11492534196034 5.0
  endloop
endfacet
facet normal -0.9086907785126341 0.4174698420797639 0.0
  outer loop
    vertex 55.047793451151335 -150.85162667230531 0.0
    vertex 55.047793451151335 -150.85162667230531 5.0
    vertex 55.84566710329245 -149.11492534196034 0.0
  endloop
endfacet
facet normal -0.9086907785126341 0.4174698420797639 0.0
  outer loop
    vertex 55.84566710329245 -149.11492534196034 5.0
    vertex 55.84566710329245 -149.11492534196034 0.0
    vertex 55.047793451151335 -150.85162667230531 5.0
  endloop
endfacet
facet normal -0.7142614995317123 0.6998789254483306 0.0
  outer loop
    vertex 53.88290036583377 -152.04045841399557 0.0
    vertex 53.88290036583377 -152.04045841399557 5.0
    vertex 55.047793451151335 -150.85162667230531 0.0
  endloop
endfacet
facet normal -0.7142614995317123 0.6998789254483306 0.0
  outer loop
    vertex 55.047793451151335 -150.85162667230531 5.0
    vertex 55.047793451151335 -150.85162667230531 0.0
    vertex 53.88290036583377 -152.04045841399557 5.0
  endloop
endfacet
facet normal -0.27841965113246425 0.9604595243232674 0.0
  outer loop
    vertex 53.88290036583377 -152.04045841399557 0.0
    vertex 52.51587861488159 -152.43673301938176 0.0
    vertex 53.88290036583377 -152.04045841399557 5.0
  endloop
endfacet
facet normal -0.27841965113246425 0.9604595243232674 0.0
  outer loop
    vertex 52.51587861488159 -152.43673301938176 5.0
    vertex 53.88290036583377 -152.04045841399557 5.0
    vertex 52.51587861488159 -152.43673301938176 0.0
  endloop
endfacet
facet normal 0.1980187514136288 0.9801982320370648 0.0
  outer loop
    vertex 52.51587861488159 -152.43673301938176 0.0
    vertex 51.72598460351719 -152.2771593527833 0.0
    vertex 52.51587861488159 -152.43673301938176 5.0
  endloop
endfacet
facet normal 0.1980187514136288 0.9801982320370648 0.0
  outer loop
    vertex 51.72598460351719 -152.2771593527833 5.0
    vertex 52.51587861488159 -152.43673301938176 5.0
    vertex 51.72598460351719 -152.2771593527833 0.0
  endloop
endfacet
facet normal 0.6080777692870404 0.7938774631508927 0.0
  outer loop
    vertex 51.72598460351719 -152.2771593527833 0.0
    vertex 51.10098502990733 -151.79843516149862 0.0
    vertex 51.72598460351719 -152.2771593527833 5.0
  endloop
endfacet
facet normal 0.6080777692870404 0.7938774631508927 0.0
  outer loop
    vertex 51.10098502990733 -151.79843516149862 5.0
    vertex 51.72598460351719 -152.2771593527833 5.0
    vertex 51.10098502990733 -151.79843516149862 0.0
  endloop
endfacet
facet normal 0.8746048503085747 0.4848364217101637 0.0
  outer loop
    vertex 51.10098502990733 -151.79843516149862 5.0
    vertex 51.10098502990733 -151.79843516149862 0.0
    vertex 50.69406946731536 -151.0643931036564 5.0
  endloop
endfacet
facet normal 0.8746048503085747 0.4848364217101637 0.0
  outer loop
    vertex 50.69406946731536 -151.0643931036564 0.0
    vertex 50.69406946731536 -151.0643931036564 5.0
    vertex 51.10098502990733 -151.79843516149862 0.0
  endloop
endfacet
facet normal 0.9894313516139426 0.14500207047972397 0.0
  outer loop
    vertex 50.69406946731536 -151.0643931036564 5.0
    vertex 50.69406946731536 -151.0643931036564 0.0
    vertex 50.55843185070667 -150.1388607310025 5.0
  endloop
endfacet
facet normal 0.9894313516139426 0.14500207047972397 0.0
  outer loop
    vertex 50.55843185070667 -150.1388607310025 0.0
    vertex 50.55843185070667 -150.1388607310025 5.0
    vertex 50.69406946731536 -151.0643931036564 0.0
  endloop
endfacet
facet normal 0.9828267434566287 -0.18453073550614343 0.0
  outer loop
    vertex 50.55843185070667 -150.1388607310025 5.0
    vertex 50.55843185070667 -150.1388607310025 0.0
    vertex 51.0477935417504 -147.53247781131304 5.0
  endloop
endfacet
facet normal 0.9828267434566287 -0.18453073550614343 0.0
  outer loop
    vertex 51.0477935417504 -147.53247781131304 0.0
    vertex 51.0477935417504 -147.53247781131304 5.0
    vertex 50.55843185070667 -150.1388607310025 0.0
  endloop
endfacet
facet normal 0.8935621792113985 -0.4489394523574161 0.0
  outer loop
    vertex 51.0477935417504 -147.53247781131304 5.0
    vertex 51.0477935417504 -147.53247781131304 0.0
    vertex 52.15417649541449 -145.33035020161623 5.0
  endloop
endfacet
facet normal 0.8935621792113985 -0.4489394523574161 0.0
  outer loop
    vertex 52.15417649541449 -145.33035020161623 0.0
    vertex 52.15417649541449 -145.33035020161623 5.0
    vertex 51.0477935417504 -147.53247781131304 0.0
  endloop
endfacet
facet normal 0.628914043635169 -0.7774748392832149 0.0
  outer loop
    vertex 52.15417649541449 -145.33035020161623 0.0
    vertex 52.989282513733585 -144.65481721159776 0.0
    vertex 52.15417649541449 -145.33035020161623 5.0
  endloop
endfacet
facet normal 0.628914043635169 -0.7774748392832149 0.0
  outer loop
    vertex 52.989282513733585 -144.65481721159776 5.0
    vertex 52.15417649541449 -145.33035020161623 5.0
    vertex 52.989282513733585 -144.65481721159776 0.0
  endloop
endfacet
facet normal 0.23878701548993683 -0.971071965012588 0.0
  outer loop
    vertex 52.989282513733585 -144.65481721159776 0.0
    vertex 53.96268709275002 -144.4154566053171 0.0
    vertex 52.989282513733585 -144.65481721159776 5.0
  endloop
endfacet
facet normal 0.23878701548993683 -0.971071965012588 0.0
  outer loop
    vertex 53.96268709275002 -144.4154566053171 5.0
    vertex 52.989282513733585 -144.65481721159776 5.0
    vertex 53.96268709275002 -144.4154566053171 0.0
  endloop
endfacet
facet normal 0.9949453744348774 0.10041763734843386 0.0
  outer loop
    vertex 66.06906979726669 -148.05375439525093 5.0
    vertex 66.06906979726669 -148.05375439525093 0.0
    vertex 65.85231610869207 -145.90614282487786 5.0
  endloop
endfacet
facet normal 0.9949453744348774 0.10041763734843386 0.0
  outer loop
    vertex 65.85231610869207 -145.90614282487786 0.0
    vertex 65.85231610869207 -145.90614282487786 5.0
    vertex 66.06906979726669 -148.05375439525093 0.0
  endloop
endfacet
facet normal 0.9455781454615351 0.3253950995720806 0.0
  outer loop
    vertex 65.85231610869207 -145.90614282487786 5.0
    vertex 65.85231610869207 -145.90614282487786 0.0
    vertex 65.20205287541506 -144.01651786435295 5.0
  endloop
endfacet
facet normal 0.9455781454615351 0.3253950995720806 0.0
  outer loop
    vertex 65.20205287541506 -144.01651786435295 0.0
    vertex 65.20205287541506 -144.01651786435295 5.0
    vertex 65.85231610869207 -145.90614282487786 0.0
  endloop
endfacet
facet normal 0.9953829858952336 -0.09598287029616057 0.0
  outer loop
    vertex 65.85364534735878 -150.2877971106078 5.0
    vertex 65.85364534735878 -150.2877971106078 0.0
    vertex 66.06906979726669 -148.05375439525093 5.0
  endloop
endfacet
facet normal 0.9953829858952336 -0.09598287029616057 0.0
  outer loop
    vertex 66.06906979726669 -148.05375439525093 0.0
    vertex 66.06906979726669 -148.05375439525093 5.0
    vertex 65.85364534735878 -150.2877971106078 0.0
  endloop
endfacet
facet normal 0.9576302039927326 -0.2880006812506484 0.0
  outer loop
    vertex 65.20736768912447 -152.43673301938176 5.0
    vertex 65.20736768912447 -152.43673301938176 0.0
    vertex 65.85364534735878 -150.2877971106078 5.0
  endloop
endfacet
facet normal 0.9576302039927326 -0.2880006812506484 0.0
  outer loop
    vertex 65.85364534735878 -150.2877971106078 0.0
    vertex 65.85364534735878 -150.2877971106078 5.0
    vertex 65.20736768912447 -152.43673301938176 0.0
  endloop
endfacet
facet normal 0.7910532893396877 0.6117472463565817 0.0
  outer loop
    vertex 56.70736734973259 -162.84098906032355 5.0
    vertex 56.70736734973259 -162.84098906032355 0.0
    vertex 55.47332535640676 -161.24524345816891 5.0
  endloop
endfacet
facet normal 0.7910532893396877 0.6117472463565817 0.0
  outer loop
    vertex 55.47332535640676 -161.24524345816891 0.0
    vertex 55.47332535640676 -161.24524345816891 5.0
    vertex 56.70736734973259 -162.84098906032355 0.0
  endloop
endfacet
facet normal 0.8840196387054134 0.4674497602771344 0.0
  outer loop
    vertex 55.47332535640676 -161.24524345816891 5.0
    vertex 55.47332535640676 -161.24524345816891 0.0
    vertex 54.691409177308465 -159.76651928953402 5.0
  endloop
endfacet
facet normal 0.8840196387054134 0.4674497602771344 0.0
  outer loop
    vertex 54.691409177308465 -159.76651928953402 0.0
    vertex 54.691409177308465 -159.76651928953402 5.0
    vertex 55.47332535640676 -161.24524345816891 0.0
  endloop
endfacet
facet normal 0.9756578583633213 0.2192982977906975 0.0
  outer loop
    vertex 54.691409177308465 -159.76651928953402 5.0
    vertex 54.691409177308465 -159.76651928953402 0.0
    vertex 54.43077218853098 -158.6069456455853 5.0
  endloop
endfacet
facet normal 0.9756578583633213 0.2192982977906975 0.0
  outer loop
    vertex 54.43077218853098 -158.6069456455853 0.0
    vertex 54.43077218853098 -158.6069456455853 5.0
    vertex 54.691409177308465 -159.76651928953402 0.0
  endloop
endfacet
facet normal 0.9436006717072319 -0.3310857477356291 0.0
  outer loop
    vertex 54.43077218853098 -158.6069456455853 5.0
    vertex 54.43077218853098 -158.6069456455853 0.0
    vertex 54.64353707732892 -158.00056166995807 5.0
  endloop
endfacet
facet normal 0.9436006717072319 -0.3310857477356291 0.0
  outer loop
    vertex 54.64353707732892 -158.00056166995807 0.0
    vertex 54.64353707732892 -158.00056166995807 5.0
    vertex 54.43077218853098 -158.6069456455853 0.0
  endloop
endfacet
facet normal 0.301889875511001 -0.9533428045902231 0.0
  outer loop
    vertex 54.64353707732892 -158.00056166995807 0.0
    vertex 55.28183599904182 -157.7984350256 0.0
    vertex 54.64353707732892 -158.00056166995807 5.0
  endloop
endfacet
facet normal 0.301889875511001 -0.9533428045902231 0.0
  outer loop
    vertex 55.28183599904182 -157.7984350256 5.0
    vertex 54.64353707732892 -158.00056166995807 5.0
    vertex 55.28183599904182 -157.7984350256 0.0
  endloop
endfacet
facet normal -0.08789381029635723 -0.996129850025381 0.0
  outer loop
    vertex 55.28183599904182 -157.7984350256 0.0
    vertex 56.72864447691025 -157.92609459717667 0.0
    vertex 55.28183599904182 -157.7984350256 5.0
  endloop
endfacet
facet normal -0.08789381029635723 -0.996129850025381 0.0
  outer loop
    vertex 56.72864447691025 -157.92609459717667 5.0
    vertex 55.28183599904182 -157.7984350256 5.0
    vertex 56.72864447691025 -157.92609459717667 0.0
  endloop
endfacet
facet normal -0.03569153051241249 -0.9993628543475497 0.0
  outer loop
    vertex 56.72864447691025 -157.92609459717667 0.0
    vertex 57.324389144267826 -157.94737119243942 0.0
    vertex 56.72864447691025 -157.92609459717667 5.0
  endloop
endfacet
facet normal -0.03569153051241249 -0.9993628543475497 0.0
  outer loop
    vertex 57.324389144267826 -157.94737119243942 5.0
    vertex 56.72864447691025 -157.92609459717667 5.0
    vertex 57.324389144267826 -157.94737119243942 0.0
  endloop
endfacet
facet normal 0.15745562222728912 -0.9875260639745249 0.0
  outer loop
    vertex 57.324389144267826 -157.94737119243942 0.0
    vertex 60.39353968645442 -157.45801194820416 0.0
    vertex 57.324389144267826 -157.94737119243942 5.0
  endloop
endfacet
facet normal 0.15745562222728912 -0.9875260639745249 0.0
  outer loop
    vertex 60.39353968645442 -157.45801194820416 5.0
    vertex 57.324389144267826 -157.94737119243942 5.0
    vertex 60.39353968645442 -157.45801194820416 0.0
  endloop
endfacet
facet normal 0.5219863053615468 -0.8529538657014235 0.0
  outer loop
    vertex 60.39353968645442 -157.45801194820416 0.0
    vertex 62.79247412679996 -155.9899244282645 0.0
    vertex 60.39353968645442 -157.45801194820416 5.0
  endloop
endfacet
facet normal 0.5219863053615468 -0.8529538657014235 0.0
  outer loop
    vertex 62.79247412679996 -155.9899244282645 5.0
    vertex 60.39353968645442 -157.45801194820416 5.0
    vertex 62.79247412679996 -155.9899244282645 0.0
  endloop
endfacet
facet normal 0.7595215860252171 -0.6504820984175804 0.0
  outer loop
    vertex 62.79247412679996 -155.9899244282645 5.0
    vertex 62.79247412679996 -155.9899244282645 0.0
    vertex 64.17279410883391 -154.37822316157767 5.0
  endloop
endfacet
facet normal 0.7595215860252171 -0.6504820984175804 0.0
  outer loop
    vertex 64.17279410883391 -154.37822316157767 0.0
    vertex 64.17279410883391 -154.37822316157767 5.0
    vertex 62.79247412679996 -155.9899244282645 0.0
  endloop
endfacet
facet normal 0.8825204575475045 -0.47027400737245006 0.0
  outer loop
    vertex 64.17279410883391 -154.37822316157767 5.0
    vertex 64.17279410883391 -154.37822316157767 0.0
    vertex 65.20736768912447 -152.43673301938176 5.0
  endloop
endfacet
facet normal 0.8825204575475045 -0.47027400737245006 0.0
  outer loop
    vertex 65.20736768912447 -152.43673301938176 0.0
    vertex 65.20736768912447 -152.43673301938176 5.0
    vertex 64.17279410883391 -154.37822316157767 0.0
  endloop
endfacet
facet normal 0.6148651866466128 0.7886322351071038 0.0
  outer loop
    vertex 59.095667269042416 -164.7877970481437 0.0
    vertex 58.154176359515894 -164.0537540328547 0.0
    vertex 59.095667269042416 -164.7877970481437 5.0
  endloop
endfacet
facet normal 0.6148651866466128 0.7886322351071038 0.0
  outer loop
    vertex 58.154176359515894 -164.0537540328547 5.0
    vertex 59.095667269042416 -164.7877970481437 5.0
    vertex 58.154176359515894 -164.0537540328547 0.0
  endloop
endfacet
facet normal 0.6423983766488525 0.7663708799784339 0.0
  outer loop
    vertex 58.154176359515894 -164.0537540328547 0.0
    vertex 56.70736734973259 -162.84098906032355 0.0
    vertex 58.154176359515894 -164.0537540328547 5.0
  endloop
endfacet
facet normal 0.6423983766488525 0.7663708799784339 0.0
  outer loop
    vertex 56.70736734973259 -162.84098906032355 5.0
    vertex 58.154176359515894 -164.0537540328547 5.0
    vertex 56.70736734973259 -162.84098906032355 0.0
  endloop
endfacet
facet normal -0.9736275760047296 -0.2281432515836369 0.0
  outer loop
    vertex 42.03715167137124 -153.38354092346867 0.0
    vertex 42.03715167137124 -153.38354092346867 5.0
    vertex 41.47066468287224 -150.96599252077877 0.0
  endloop
endfacet
facet normal -0.9736275760047296 -0.2281432515836369 0.0
  outer loop
    vertex 41.47066468287224 -150.96599252077877 5.0
    vertex 41.47066468287224 -150.96599252077877 0.0
    vertex 42.03715167137124 -153.38354092346867 5.0
  endloop
endfacet
facet normal -0.9343762425575408 -0.3562878574187613 0.0
  outer loop
    vertex 42.98130011408225 -155.8596002556844 0.0
    vertex 42.98130011408225 -155.8596002556844 5.0
    vertex 42.03715167137124 -153.38354092346867 0.0
  endloop
endfacet
facet normal -0.9343762425575408 -0.3562878574187613 0.0
  outer loop
    vertex 42.03715167137124 -153.38354092346867 5.0
    vertex 42.03715167137124 -153.38354092346867 0.0
    vertex 42.98130011408225 -155.8596002556844 5.0
  endloop
endfacet
facet normal -0.886667546189042 -0.46240746375367187 0.0
  outer loop
    vertex 44.303112843452 -158.3941796929576 0.0
    vertex 44.303112843452 -158.3941796929576 5.0
    vertex 42.98130011408225 -155.8596002556844 0.0
  endloop
endfacet
facet normal -0.886667546189042 -0.46240746375367187 0.0
  outer loop
    vertex 42.98130011408225 -155.8596002556844 5.0
    vertex 42.98130011408225 -155.8596002556844 0.0
    vertex 44.303112843452 -158.3941796929576 5.0
  endloop
endfacet
facet normal -0.8137337418165924 -0.5812378148651095 0.0
  outer loop
    vertex 47.946728266244115 -163.49524630614306 0.0
    vertex 47.946728266244115 -163.49524630614306 5.0
    vertex 44.303112843452 -158.3941796929576 0.0
  endloop
endfacet
facet normal -0.8137337418165924 -0.5812378148651095 0.0
  outer loop
    vertex 44.303112843452 -158.3941796929576 5.0
    vertex 44.303112843452 -158.3941796929576 0.0
    vertex 47.946728266244115 -163.49524630614306 5.0
  endloop
endfacet
facet normal -0.7183034249228447 -0.6957299689851741 0.0
  outer loop
    vertex 49.99592702634621 -165.6109327841541 0.0
    vertex 49.99592702634621 -165.6109327841541 5.0
    vertex 47.946728266244115 -163.49524630614306 0.0
  endloop
endfacet
facet normal -0.7183034249228447 -0.6957299689851741 0.0
  outer loop
    vertex 47.946728266244115 -163.49524630614306 5.0
    vertex 47.946728266244115 -163.49524630614306 0.0
    vertex 49.99592702634621 -165.6109327841541 5.0
  endloop
endfacet
facet normal -0.6384900270492232 -0.7696300964480809 0.0
  outer loop
    vertex 49.99592702634621 -165.6109327841541 0.0
    vertex 52.196729685940035 -167.43673267963527 0.0
    vertex 49.99592702634621 -165.6109327841541 5.0
  endloop
endfacet
facet normal -0.6384900270492232 -0.7696300964480809 0.0
  outer loop
    vertex 52.196729685940035 -167.43673267963527 5.0
    vertex 49.99592702634621 -165.6109327841541 5.0
    vertex 52.196729685940035 -167.43673267963527 0.0
  endloop
endfacet
facet normal -0.38613808812613093 -0.9224409883013094 0.0
  outer loop
    vertex 52.196729685940035 -167.43673267963527 0.0
    vertex 54.02651687853833 -168.20269010909504 0.0
    vertex 52.196729685940035 -167.43673267963527 5.0
  endloop
endfacet
facet normal -0.38613808812613093 -0.9224409883013094 0.0
  outer loop
    vertex 54.02651687853833 -168.20269010909504 5.0
    vertex 52.196729685940035 -167.43673267963527 5.0
    vertex 54.02651687853833 -168.20269010909504 0.0
  endloop
endfacet
facet normal 0.18152049246633928 -0.9833871622178 0.0
  outer loop
    vertex 54.02651687853833 -168.20269010909504 0.0
    vertex 55.51055846726556 -167.92875531476767 0.0
    vertex 54.02651687853833 -168.20269010909504 5.0
  endloop
endfacet
facet normal 0.18152049246633928 -0.9833871622178 0.0
  outer loop
    vertex 55.51055846726556 -167.92875531476767 5.0
    vertex 54.02651687853833 -168.20269010909504 5.0
    vertex 55.51055846726556 -167.92875531476767 0.0
  endloop
endfacet
facet normal 0.40480137912233777 -0.9144046388009269 0.0
  outer loop
    vertex 55.51055846726556 -167.92875531476767 0.0
    vertex 57.36694233479337 -167.1069454530623 0.0
    vertex 55.51055846726556 -167.92875531476767 5.0
  endloop
endfacet
facet normal 0.40480137912233777 -0.9144046388009269 0.0
  outer loop
    vertex 57.36694233479337 -167.1069454530623 5.0
    vertex 55.51055846726556 -167.92875531476767 5.0
    vertex 57.36694233479337 -167.1069454530623 0.0
  endloop
endfacet
facet normal 0.5435529172335183 -0.839374902035397 0.0
  outer loop
    vertex 57.36694233479337 -167.1069454530623 0.0
    vertex 58.89885974690432 -166.1149236803186 0.0
    vertex 57.36694233479337 -167.1069454530623 5.0
  endloop
endfacet
facet normal 0.5435529172335183 -0.839374902035397 0.0
  outer loop
    vertex 58.89885974690432 -166.1149236803186 5.0
    vertex 57.36694233479337 -167.1069454530623 5.0
    vertex 58.89885974690432 -166.1149236803186 0.0
  endloop
endfacet
facet normal 0.8381199973966517 -0.5454859026261236 0.0
  outer loop
    vertex 58.89885974690432 -166.1149236803186 5.0
    vertex 58.89885974690432 -166.1149236803186 0.0
    vertex 59.40949548001938 -165.33034974862093 5.0
  endloop
endfacet
facet normal 0.8381199973966517 -0.5454859026261236 0.0
  outer loop
    vertex 59.40949548001938 -165.33034974862093 0.0
    vertex 59.40949548001938 -165.33034974862093 5.0
    vertex 58.89885974690432 -166.1149236803186 0.0
  endloop
endfacet
facet normal 0.86562078902445 0.5007001593855234 0.0
  outer loop
    vertex 59.40949548001938 -165.33034974862093 5.0
    vertex 59.40949548001938 -165.33034974862093 0.0
    vertex 59.095667269042416 -164.7877970481437 5.0
  endloop
endfacet
facet normal 0.86562078902445 0.5007001593855234 0.0
  outer loop
    vertex 59.095667269042416 -164.7877970481437 0.0
    vertex 59.095667269042416 -164.7877970481437 5.0
    vertex 59.40949548001938 -165.33034974862093 0.0
  endloop
endfacet
facet normal -0.11812085891947521 0.9929992259252399 0.0
  outer loop
    vertex 53.686091354333996 -138.3303503601646 0.0
    vertex 49.616941579478 -138.81439048217993 0.0
    vertex 53.686091354333996 -138.3303503601646 5.0
  endloop
endfacet
facet normal -0.11812085891947521 0.9929992259252399 0.0
  outer loop
    vertex 49.616941579478 -138.81439048217993 5.0
    vertex 53.686091354333996 -138.3303503601646 5.0
    vertex 49.616941579478 -138.81439048217993 0.0
  endloop
endfacet
facet normal -0.3656115448434346 0.9307675318129642 0.0
  outer loop
    vertex 49.616941579478 -138.81439048217993 0.0
    vertex 45.920134083422596 -140.26652052907676 0.0
    vertex 49.616941579478 -138.81439048217993 5.0
  endloop
endfacet
facet normal -0.3656115448434346 0.9307675318129642 0.0
  outer loop
    vertex 45.920134083422596 -140.26652052907676 5.0
    vertex 49.616941579478 -138.81439048217993 5.0
    vertex 45.920134083422596 -140.26652052907676 0.0
  endloop
endfacet
facet normal -0.5909959310222469 0.8066745375398605 0.0
  outer loop
    vertex 45.920134083422596 -140.26652052907676 0.0
    vertex 43.89087228762958 -141.75322354061606 0.0
    vertex 45.920134083422596 -140.26652052907676 5.0
  endloop
endfacet
facet normal -0.5909959310222469 0.8066745375398605 0.0
  outer loop
    vertex 43.89087228762958 -141.75322354061606 5.0
    vertex 45.920134083422596 -140.26652052907676 5.0
    vertex 43.89087228762958 -141.75322354061606 0.0
  endloop
endfacet
facet normal -0.792831175196095 0.609441324195512 0.0
  outer loop
    vertex 42.44140496008734 -143.63885688886432 0.0
    vertex 42.44140496008734 -143.63885688886432 5.0
    vertex 43.89087228762958 -141.75322354061606 0.0
  endloop
endfacet
facet normal -0.792831175196095 0.609441324195512 0.0
  outer loop
    vertex 43.89087228762958 -141.75322354061606 5.0
    vertex 43.89087228762958 -141.75322354061606 0.0
    vertex 42.44140496008734 -143.63885688886432 5.0
  endloop
endfacet
facet normal -0.9345742261843396 0.35576820508857043 0.0
  outer loop
    vertex 41.5717277523917 -145.9234283929704 0.0
    vertex 41.5717277523917 -145.9234283929704 5.0
    vertex 42.44140496008734 -143.63885688886432 0.0
  endloop
endfacet
facet normal -0.9345742261843396 0.35576820508857043 0.0
  outer loop
    vertex 42.44140496008734 -143.63885688886432 5.0
    vertex 42.44140496008734 -143.63885688886432 0.0
    vertex 41.5717277523917 -145.9234283929704 5.0
  endloop
endfacet
facet normal -0.994215697245728 0.10740180329115125 0.0
  outer loop
    vertex 41.281836316138524 -148.60694587208297 0.0
    vertex 41.281836316138524 -148.60694587208297 5.0
    vertex 41.5717277523917 -145.9234283929704 0.0
  endloop
endfacet
facet normal -0.994215697245728 0.10740180329115125 0.0
  outer loop
    vertex 41.5717277523917 -145.9234283929704 5.0
    vertex 41.5717277523917 -145.9234283929704 0.0
    vertex 41.281836316138524 -148.60694587208297 5.0
  endloop
endfacet
facet normal -0.9968117629972719 -0.07978915433986453 0.0
  outer loop
    vertex 41.47066468287224 -150.96599252077877 0.0
    vertex 41.47066468287224 -150.96599252077877 5.0
    vertex 41.281836316138524 -148.60694587208297 0.0
  endloop
endfacet
facet normal -0.9968117629972719 -0.07978915433986453 0.0
  outer loop
    vertex 41.281836316138524 -148.60694587208297 5.0
    vertex 41.281836316138524 -148.60694587208297 0.0
    vertex 41.47066468287224 -150.96599252077877 5.0
  endloop
endfacet
facet normal 0.0 0.0 1.0
  outer loop
    vertex 53.88290036583377 -152.04045841399557 5.0
    vertex 52.51587861488159 -152.43673301938176 5.0
    vertex 52.57285195507283 -155.8258057357992 4.999999999999995
  endloop
endfacet
facet normal 0.0 0.0 1.0
  outer loop
    vertex 52.49788877290878 -155.25640383657364 4.999999999999995
    vertex 52.57285195507283 -155.8258057357992 4.999999999999995
    vertex 52.51587861488159 -152.43673301938176 5.0
  endloop
endfacet
facet normal 0.0 0.0 1.0
  outer loop
    vertex 51.72598460351719 -152.2771593527833 5.0
    vertex 52.49788877290878 -155.25640383657364 4.999999999999995
    vertex 52.51587861488159 -152.43673301938176 5.0
  endloop
endfacet
facet normal 0.0 0.0 1.0
  outer loop
    vertex 52.278107843398594 -154.7258057357992 4.999999999999995
    vertex 52.49788877290878 -155.25640383657364 4.999999999999995
    vertex 51.72598460351719 -152.2771593527833 5.0
  endloop
endfacet
facet normal 0.0 0.0 1.0
  outer loop
    vertex 51.928486873683234 -154.27017081718878 4.999999999999995
    vertex 52.278107843398594 -154.7258057357992 4.999999999999995
    vertex 51.72598460351719 -152.2771593527833 5.0
  endloop
endfacet
facet normal 0.0 0.0 1.0
  outer loop
    vertex 51.472851955072834 -153.92054984747344 4.999999999999995
    vertex 51.928486873683234 -154.27017081718878 4.999999999999995
    vertex 51.72598460351719 -152.2771593527833 5.0
  endloop
endfacet
facet normal 0.0 0.0 1.0
  outer loop
    vertex 51.10098502990733 -151.79843516149862 5.0
    vertex 51.472851955072834 -153.92054984747344 4.999999999999995
    vertex 51.72598460351719 -152.2771593527833 5.0
  endloop
endfacet
facet normal 0.0 0.0 1.0
  outer loop
    vertex 50.94225385429837 -153.70076891796325 4.999999999999995
    vertex 51.472851955072834 -153.92054984747344 4.999999999999995
    vertex 51.10098502990733 -151.79843516149862 5.0
  endloop
endfacet
facet normal 0.0 0.0 1.0
  outer loop
    vertex 50.69406946731536 -151.0643931036564 5.0
    vertex 50.94225385429837 -153.70076891796325 4.999999999999995
    vertex 51.10098502990733 -151.79843516149862 5.0
  endloop
endfacet
facet normal 0.0 0.0 1.0
  outer loop
    vertex 50.37285195507283 -153.6258057357992 4.999999999999995
    vertex 50.94225385429837 -153.70076891796325 4.999999999999995
    vertex 50.69406946731536 -151.0643931036564 5.0
  endloop
endfacet
facet normal 0.0 0.0 1.0
  outer loop
    vertex 50.55843185070667 -150.1388607310025 5.0
    vertex 50.37285195507283 -153.6258057357992 4.999999999999995
    vertex 50.69406946731536 -151.0643931036564 5.0
  endloop
endfacet
facet normal 0.0 0.0 1.0
  outer loop
    vertex 66.06906979726669 -148.05375439525093 5.0
    vertex 65.85231610869207 -145.90614282487786 5.0
    vertex 65.85364534735878 -150.2877971106078 5.0
  endloop
endfacet
facet normal 0.0 0.0 1.0
  outer loop
    vertex 65.20736768912447 -152.43673301938176 5.0
    vertex 65.85364534735878 -150.2877971106078 5.0
    vertex 65.85231610869207 -145.90614282487786 5.0
  endloop
endfacet
facet normal 0.0 0.0 1.0
  outer loop
    vertex 65.20205287541506 -144.01651786435295 5.0
    vertex 65.20736768912447 -152.43673301938176 5.0
    vertex 65.85231610869207 -145.90614282487786 5.0
  endloop
endfacet
facet normal 0.0 0.0 1.0
  outer loop
    vertex 64.17279410883391 -154.37822316157767 5.0
    vertex 65.20736768912447 -152.43673301938176 5.0
    vertex 65.20205287541506 -144.01651786435295 5.0
  endloop
endfacet
facet normal 0.0 0.0 1.0
  outer loop
    vertex 64.11827684610596 -142.38487291128274 5.0
    vertex 64.17279410883391 -154.37822316157767 5.0
    vertex 65.20205287541506 -144.01651786435295 5.0
  endloop
endfacet
facet normal 0.0 0.0 1.0
  outer loop
    vertex 62.79247412679996 -155.9899244282645 5.0
    vertex 64.17279410883391 -154.37822316157767 5.0
    vertex 64.11827684610596 -142.38487291128274 5.0
  endloop
endfacet
facet normal 0.0 0.0 1.0
  outer loop
    vertex 62.60098476943502 -141.01120136327376 5.0
    vertex 62.79247412679996 -155.9899244282645 5.0
    vertex 64.11827684610596 -142.38487291128274 5.0
  endloop
endfacet
facet normal 0.0 0.0 1.0
  outer loop
    vertex 60.39353968645442 -157.45801194820416 5.0
    vertex 62.79247412679996 -155.9899244282645 5.0
    vertex 62.60098476943502 -141.01120136327376 5.0
  endloop
endfacet
facet normal 0.0 0.0 1.0
  outer loop
    vertex 60.66348209057964 -139.83832527946677 5.0
    vertex 60.39353968645442 -157.45801194820416 5.0
    vertex 62.60098476943502 -141.01120136327376 5.0
  endloop
endfacet
facet normal 0.0 0.0 1.0
  outer loop
    vertex 58.53183786691939 -139.00055975987814 5.0
    vertex 60.39353968645442 -157.45801194820416 5.0
    vertex 60.66348209057964 -139.83832527946677 5.0
  endloop
endfacet
facet normal 0.0 0.0 1.0
  outer loop
    vertex 57.324389144267826 -157.94737119243942 5.0
    vertex 60.39353968645442 -157.45801194820416 5.0
    vertex 58.53183786691939 -139.00055975987814 5.0
  endloop
endfacet
facet normal 0.0 0.0 1.0
  outer loop
    vertex 56.20604374074171 -138.49790229121 5.0
    vertex 57.324389144267826 -157.94737119243942 5.0
    vertex 58.53183786691939 -139.00055975987814 5.0
  endloop
endfacet
facet normal 0.0 0.0 1.0
  outer loop
    vertex 56.72864447691025 -157.92609459717667 5.0
    vertex 57.324389144267826 -157.94737119243942 5.0
    vertex 56.20604374074171 -138.49790229121 5.0
  endloop
endfacet
facet normal 0.0 0.0 1.0
  outer loop
    vertex 56.111623214289885 -147.07503101316345 5.0
    vertex 56.72864447691025 -157.92609459717667 5.0
    vertex 56.20604374074171 -138.49790229121 5.0
  endloop
endfacet
facet normal 0.0 0.0 1.0
  outer loop
    vertex 55.28183599904182 -157.7984350256 5.0
    vertex 56.72864447691025 -157.92609459717667 5.0
    vertex 56.111623214289885 -147.07503101316345 5.0
  endloop
endfacet
facet normal 0.0 0.0 1.0
  outer loop
    vertex 55.84566710329245 -149.11492534196034 5.0
    vertex 55.28183599904182 -157.7984350256 5.0
    vertex 56.111623214289885 -147.07503101316345 5.0
  endloop
endfacet
facet normal 0.0 0.0 1.0
  outer loop
    vertex 55.047793451151335 -150.85162667230531 5.0
    vertex 55.28183599904182 -157.7984350256 5.0
    vertex 55.84566710329245 -149.11492534196034 5.0
  endloop
endfacet
facet normal 0.0 0.0 1.0
  outer loop
    vertex 54.64353707732892 -158.00056166995807 5.0
    vertex 55.28183599904182 -157.7984350256 5.0
    vertex 55.047793451151335 -150.85162667230531 5.0
  endloop
endfacet
facet normal 0.0 0.0 1.0
  outer loop
    vertex 53.88290036583377 -152.04045841399557 5.0
    vertex 54.64353707732892 -158.00056166995807 5.0
    vertex 55.047793451151335 -150.85162667230531 5.0
  endloop
endfacet
facet normal 0.0 0.0 1.0
  outer loop
    vertex 54.43077218853098 -158.6069456455853 5.0
    vertex 54.64353707732892 -158.00056166995807 5.0
    vertex 53.88290036583377 -152.04045841399557 5.0
  endloop
endfacet
facet normal 0.0 0.0 1.0
  outer loop
    vertex 54.02651687853833 -168.20269010909504 5.0
    vertex 54.43077218853098 -158.6069456455853 5.0
    vertex 53.88290036583377 -152.04045841399557 5.0
  endloop
endfacet
facet normal 0.0 0.0 1.0
  outer loop
    vertex 52.196729685940035 -167.43673267963527 5.0
    vertex 54.02651687853833 -168.20269010909504 5.0
    vertex 53.88290036583377 -152.04045841399557 5.0
  endloop
endfacet
facet normal 0.0 0.0 1.0
  outer loop
    vertex 52.57285195507283 -155.8258057357992 4.999999999999995
    vertex 52.196729685940035 -167.43673267963527 5.0
    vertex 53.88290036583377 -152.04045841399557 5.0
  endloop
endfacet
facet normal 0.0 0.0 1.0
  outer loop
    vertex 52.49788877290878 -156.39520763502475 4.999999999999995
    vertex 52.196729685940035 -167.43673267963527 5.0
    vertex 52.57285195507283 -155.8258057357992 4.999999999999995
  endloop
endfacet
facet normal 0.0 0.0 1.0
  outer loop
    vertex 52.278107843398594 -156.9258057357992 4.999999999999995
    vertex 52.196729685940035 -167.43673267963527 5.0
    vertex 52.49788877290878 -156.39520763502475 4.999999999999995
  endloop
endfacet
facet normal 0.0 0.0 1.0
  outer loop
    vertex 51.928486873683234 -157.3814406544096 4.999999999999995
    vertex 52.196729685940035 -167.43673267963527 5.0
    vertex 52.278107843398594 -156.9258057357992 4.999999999999995
  endloop
endfacet
facet normal 0.0 0.0 1.0
  outer loop
    vertex 49.99592702634621 -165.6109327841541 5.0
    vertex 52.196729685940035 -167.43673267963527 5.0
    vertex 51.928486873683234 -157.3814406544096 4.999999999999995
  endloop
endfacet
facet normal 0.0 0.0 1.0
  outer loop
    vertex 51.472851955072834 -157.73106162412495 4.999999999999995
    vertex 49.99592702634621 -165.6109327841541 5.0
    vertex 51.928486873683234 -157.3814406544096 4.999999999999995
  endloop
endfacet
facet normal 0.0 0.0 1.0
  outer loop
    vertex 50.94225385429837 -157.95084255363514 4.999999999999995
    vertex 49.99592702634621 -165.6109327841541 5.0
    vertex 51.472851955072834 -157.73106162412495 4.999999999999995
  endloop
endfacet
facet normal 0.0 0.0 1.0
  outer loop
    vertex 50.37285195507283 -158.0258057357992 4.999999999999995
    vertex 49.99592702634621 -165.6109327841541 5.0
    vertex 50.94225385429837 -157.95084255363514 4.999999999999995
  endloop
endfacet
facet normal 0.0 0.0 1.0
  outer loop
    vertex 49.80345005584729 -157.95084255363514 4.999999999999995
    vertex 49.99592702634621 -165.6109327841541 5.0
    vertex 50.37285195507283 -158.0258057357992 4.999999999999995
  endloop
endfacet
facet normal 0.0 0.0 1.0
  outer loop
    vertex 47.946728266244115 -163.49524630614306 5.0
    vertex 49.99592702634621 -165.6109327841541 5.0
    vertex 49.80345005584729 -157.95084255363514 4.999999999999995
  endloop
endfacet
facet normal 0.0 0.0 1.0
  outer loop
    vertex 49.27285195507284 -157.73106162412495 4.999999999999995
    vertex 47.946728266244115 -163.49524630614306 5.0
    vertex 49.80345005584729 -157.95084255363514 4.999999999999995
  endloop
endfacet
facet normal 0.0 0.0 1.0
  outer loop
    vertex 48.81721703646243 -157.3814406544096 4.999999999999995
    vertex 47.946728266244115 -163.49524630614306 5.0
    vertex 49.27285195507284 -157.73106162412495 4.999999999999995
  endloop
endfacet
facet normal 0.0 0.0 1.0
  outer loop
    vertex 48.46759606674708 -156.9258057357992 4.999999999999995
    vertex 47.946728266244115 -163.49524630614306 5.0
    vertex 48.81721703646243 -157.3814406544096 4.999999999999995
  endloop
endfacet
facet normal 0.0 0.0 1.0
  outer loop
    vertex 48.247815137236884 -156.39520763502475 4.999999999999995
    vertex 47.946728266244115 -163.49524630614306 5.0
    vertex 48.46759606674708 -156.9258057357992 4.999999999999995
  endloop
endfacet
facet normal 0.0 0.0 1.0
  outer loop
    vertex 48.17285195507284 -155.8258057357992 4.999999999999995
    vertex 47.946728266244115 -163.49524630614306 5.0
    vertex 48.247815137236884 -156.39520763502475 4.999999999999995
  endloop
endfacet
facet normal 0.0 0.0 1.0
  outer loop
    vertex 53.686091354333996 -138.3303503601646 5.0
    vertex 55.957368669911375 -146.03779654197572 5.0
    vertex 56.20604374074171 -138.49790229121 5.0
  endloop
endfacet
facet normal 0.0 0.0 1.0
  outer loop
    vertex 56.111623214289885 -147.07503101316345 5.0
    vertex 56.20604374074171 -138.49790229121 5.0
    vertex 55.957368669911375 -146.03779654197572 5.0
  endloop
endfacet
facet normal 0.0 0.0 1.0
  outer loop
    vertex 55.49460195166953 -145.18141403477682 5.0
    vertex 55.957368669911375 -146.03779654197572 5.0
    vertex 53.686091354333996 -138.3303503601646 5.0
  endloop
endfacet
facet normal 0.0 0.0 1.0
  outer loop
    vertex 54.80311297796989 -144.60694500523525 5.0
    vertex 55.49460195166953 -145.18141403477682 5.0
    vertex 53.686091354333996 -138.3303503601646 5.0
  endloop
endfacet
facet normal 0.0 0.0 1.0
  outer loop
    vertex 53.96268709275002 -144.4154566053171 5.0
    vertex 54.80311297796989 -144.60694500523525 5.0
    vertex 53.686091354333996 -138.3303503601646 5.0
  endloop
endfacet
facet normal 0.0 0.0 1.0
  outer loop
    vertex 52.989282513733585 -144.65481721159776 5.0
    vertex 53.96268709275002 -144.4154566053171 5.0
    vertex 53.686091354333996 -138.3303503601646 5.0
  endloop
endfacet
facet normal 0.0 0.0 1.0
  outer loop
    vertex 49.616941579478 -138.81439048217993 5.0
    vertex 52.989282513733585 -144.65481721159776 5.0
    vertex 53.686091354333996 -138.3303503601646 5.0
  endloop
endfacet
facet normal 0.0 0.0 1.0
  outer loop
    vertex 52.15417649541449 -145.33035020161623 5.0
    vertex 52.989282513733585 -144.65481721159776 5.0
    vertex 49.616941579478 -138.81439048217993 5.0
  endloop
endfacet
facet normal 0.0 0.0 1.0
  outer loop
    vertex 51.0477935417504 -147.53247781131304 5.0
    vertex 52.15417649541449 -145.33035020161623 5.0
    vertex 49.616941579478 -138.81439048217993 5.0
  endloop
endfacet
facet normal 0.0 0.0 1.0
  outer loop
    vertex 50.55843185070667 -150.1388607310025 5.0
    vertex 51.0477935417504 -147.53247781131304 5.0
    vertex 49.616941579478 -138.81439048217993 5.0
  endloop
endfacet
facet normal 0.0 0.0 1.0
  outer loop
    vertex 50.37285195507283 -153.6258057357992 4.999999999999995
    vertex 50.55843185070667 -150.1388607310025 5.0
    vertex 49.616941579478 -138.81439048217993 5.0
  endloop
endfacet
facet normal 0.0 0.0 1.0
  outer loop
    vertex 49.80345005584729 -153.70076891796325 4.999999999999995
    vertex 50.37285195507283 -153.6258057357992 4.999999999999995
    vertex 49.616941579478 -138.81439048217993 5.0
  endloop
endfacet
facet normal 0.0 0.0 1.0
  outer loop
    vertex 49.27285195507284 -153.92054984747344 4.999999999999995
    vertex 49.80345005584729 -153.70076891796325 4.999999999999995
    vertex 49.616941579478 -138.81439048217993 5.0
  endloop
endfacet
facet normal 0.0 0.0 1.0
  outer loop
    vertex 45.920134083422596 -140.26652052907676 5.0
    vertex 49.27285195507284 -153.92054984747344 4.999999999999995
    vertex 49.616941579478 -138.81439048217993 5.0
  endloop
endfacet
facet normal 0.0 0.0 1.0
  outer loop
    vertex 48.81721703646243 -154.2701708171888 4.999999999999995
    vertex 49.27285195507284 -153.92054984747344 4.999999999999995
    vertex 45.920134083422596 -140.26652052907676 5.0
  endloop
endfacet
facet normal 0.0 0.0 1.0
  outer loop
    vertex 48.46759606674707 -154.7258057357992 4.999999999999995
    vertex 48.81721703646243 -154.2701708171888 4.999999999999995
    vertex 45.920134083422596 -140.26652052907676 5.0
  endloop
endfacet
facet normal 0.0 0.0 1.0
  outer loop
    vertex 48.247815137236884 -155.25640383657364 4.999999999999995
    vertex 48.46759606674707 -154.7258057357992 4.999999999999995
    vertex 45.920134083422596 -140.26652052907676 5.0
  endloop
endfacet
facet normal 0.0 0.0 1.0
  outer loop
    vertex 48.17285195507284 -155.8258057357992 4.999999999999995
    vertex 48.247815137236884 -155.25640383657364 4.999999999999995
    vertex 45.920134083422596 -140.26652052907676 5.0
  endloop
endfacet
facet normal 0.0 0.0 1.0
  outer loop
    vertex 47.946728266244115 -163.49524630614306 5.0
    vertex 48.17285195507284 -155.8258057357992 4.999999999999995
    vertex 45.920134083422596 -140.26652052907676 5.0
  endloop
endfacet
facet normal 0.0 0.0 1.0
  outer loop
    vertex 44.303112843452 -158.3941796929576 5.0
    vertex 47.946728266244115 -163.49524630614306 5.0
    vertex 45.920134083422596 -140.26652052907676 5.0
  endloop
endfacet
facet normal 0.0 0.0 1.0
  outer loop
    vertex 43.89087228762958 -141.75322354061606 5.0
    vertex 44.303112843452 -158.3941796929576 5.0
    vertex 45.920134083422596 -140.26652052907676 5.0
  endloop
endfacet
facet normal 0.0 0.0 1.0
  outer loop
    vertex 42.98130011408225 -155.8596002556844 5.0
    vertex 44.303112843452 -158.3941796929576 5.0
    vertex 43.89087228762958 -141.75322354061606 5.0
  endloop
endfacet
facet normal 0.0 0.0 1.0
  outer loop
    vertex 42.44140496008734 -143.63885688886432 5.0
    vertex 42.98130011408225 -155.8596002556844 5.0
    vertex 43.89087228762958 -141.75322354061606 5.0
  endloop
endfacet
facet normal 0.0 0.0 1.0
  outer loop
    vertex 42.03715167137124 -153.38354092346867 5.0
    vertex 42.98130011408225 -155.8596002556844 5.0
    vertex 42.44140496008734 -143.63885688886432 5.0
  endloop
endfacet
facet normal 0.0 0.0 1.0
  outer loop
    vertex 41.5717277523917 -145.9234283929704 5.0
    vertex 42.03715167137124 -153.38354092346867 5.0
    vertex 42.44140496008734 -143.63885688886432 5.0
  endloop
endfacet
facet normal 0.0 0.0 1.0
  outer loop
    vertex 41.47066468287224 -150.96599252077877 5.0
    vertex 42.03715167137124 -153.38354092346867 5.0
    vertex 41.5717277523917 -145.9234283929704 5.0
  endloop
endfacet
facet normal 0.0 0.0 1.0
  outer loop
    vertex 41.281836316138524 -148.60694587208297 5.0
    vertex 41.47066468287224 -150.96599252077877 5.0
    vertex 41.5717277523917 -145.9234283929704 5.0
  endloop
endfacet
facet normal 0.0 0.0 1.0
  outer loop
    vertex 59.40949548001938 -165.33034974862093 5.0
    vertex 59.095667269042416 -164.7877970481437 5.0
    vertex 58.89885974690432 -166.1149236803186 5.0
  endloop
endfacet
facet normal 0.0 0.0 1.0
  outer loop
    vertex 58.154176359515894 -164.0537540328547 5.0
    vertex 58.89885974690432 -166.1149236803186 5.0
    vertex 59.095667269042416 -164.7877970481437 5.0
  endloop
endfacet
facet normal 0.0 0.0 1.0
  outer loop
    vertex 57.36694233479337 -167.1069454530623 5.0
    vertex 58.89885974690432 -166.1149236803186 5.0
    vertex 58.154176359515894 -164.0537540328547 5.0
  endloop
endfacet
facet normal 0.0 0.0 1.0
  outer loop
    vertex 56.70736734973259 -162.84098906032355 5.0
    vertex 57.36694233479337 -167.1069454530623 5.0
    vertex 58.154176359515894 -164.0537540328547 5.0
  endloop
endfacet
facet normal 0.0 0.0 1.0
  outer loop
    vertex 55.51055846726556 -167.92875531476767 5.0
    vertex 57.36694233479337 -167.1069454530623 5.0
    vertex 56.70736734973259 -162.84098906032355 5.0
  endloop
endfacet
facet normal 0.0 0.0 1.0
  outer loop
    vertex 55.47332535640676 -161.24524345816891 5.0
    vertex 55.51055846726556 -167.92875531476767 5.0
    vertex 56.70736734973259 -162.84098906032355 5.0
  endloop
endfacet
facet normal 0.0 0.0 1.0
  outer loop
    vertex 54.02651687853833 -168.20269010909504 5.0
    vertex 55.51055846726556 -167.92875531476767 5.0
    vertex 55.47332535640676 -161.24524345816891 5.0
  endloop
endfacet
facet normal 0.0 0.0 1.0
  outer loop
    vertex 54.691409177308465 -159.76651928953402 5.0
    vertex 54.02651687853833 -168.20269010909504 5.0
    vertex 55.47332535640676 -161.24524345816891 5.0
  endloop
endfacet
facet normal 0.0 0.0 1.0
  outer loop
    vertex 54.43077218853098 -158.6069456455853 5.0
    vertex 54.02651687853833 -168.20269010909504 5.0
    vertex 54.691409177308465 -159.76651928953402 5.0
  endloop
endfacet
facet normal 0.0 0.0 -1.0
  outer loop
    vertex 56.111623214289885 -147.07503101316345 0.0
    vertex 55.957368669911375 -146.03779654197572 0.0
    vertex 56.20604374074171 -138.49790229121 0.0
  endloop
endfacet
facet normal 0.0 0.0 -1.0
  outer loop
    vertex 53.686091354333996 -138.3303503601646 0.0
    vertex 56.20604374074171 -138.49790229121 0.0
    vertex 55.957368669911375 -146.03779654197572 0.0
  endloop
endfacet
facet normal 0.0 0.0 -1.0
  outer loop
    vertex 55.49460195166953 -145.18141403477682 0.0
    vertex 53.686091354333996 -138.3303503601646 0.0
    vertex 55.957368669911375 -146.03779654197572 0.0
  endloop
endfacet
facet normal 0.0 0.0 -1.0
  outer loop
    vertex 54.80311297796989 -144.60694500523525 0.0
    vertex 53.686091354333996 -138.3303503601646 0.0
    vertex 55.49460195166953 -145.18141403477682 0.0
  endloop
endfacet
facet normal 0.0 0.0 -1.0
  outer loop
    vertex 53.96268709275002 -144.4154566053171 0.0
    vertex 53.686091354333996 -138.3303503601646 0.0
    vertex 54.80311297796989 -144.60694500523525 0.0
  endloop
endfacet
facet normal 0.0 0.0 -1.0
  outer loop
    vertex 52.989282513733585 -144.65481721159776 0.0
    vertex 53.686091354333996 -138.3303503601646 0.0
    vertex 53.96268709275002 -144.4154566053171 0.0
  endloop
endfacet
facet normal 0.0 0.0 -1.0
  outer loop
    vertex 49.616941579478 -138.81439048217993 0.0
    vertex 53.686091354333996 -138.3303503601646 0.0
    vertex 52.989282513733585 -144.65481721159776 0.0
  endloop
endfacet
facet normal 0.0 0.0 -1.0
  outer loop
    vertex 52.15417649541449 -145.33035020161623 0.0
    vertex 49.616941579478 -138.81439048217993 0.0
    vertex 52.989282513733585 -144.65481721159776 0.0
  endloop
endfacet
facet normal 0.0 0.0 -1.0
  outer loop
    vertex 51.0477935417504 -147.53247781131304 0.0
    vertex 49.616941579478 -138.81439048217993 0.0
    vertex 52.15417649541449 -145.33035020161623 0.0
  endloop
endfacet
facet normal 0.0 0.0 -1.0
  outer loop
    vertex 50.55843185070667 -150.1388607310025 0.0
    vertex 49.616941579478 -138.81439048217993 0.0
    vertex 51.0477935417504 -147.53247781131304 0.0
  endloop
endfacet
facet normal 0.0 0.0 -1.0
  outer loop
    vertex 49.99592702634621 -165.6109327841541 0.0
    vertex 49.616941579478 -138.81439048217993 0.0
    vertex 50.55843185070667 -150.1388607310025 0.0
  endloop
endfacet
facet normal 0.0 0.0 -1.0
  outer loop
    vertex 47.946728266244115 -163.49524630614306 0.0
    vertex 49.616941579478 -138.81439048217993 0.0
    vertex 49.99592702634621 -165.6109327841541 0.0
  endloop
endfacet
facet normal 0.0 0.0 -1.0
  outer loop
    vertex 45.920134083422596 -140.26652052907676 0.0
    vertex 49.616941579478 -138.81439048217993 0.0
    vertex 47.946728266244115 -163.49524630614306 0.0
  endloop
endfacet
facet normal 0.0 0.0 -1.0
  outer loop
    vertex 44.303112843452 -158.3941796929576 0.0
    vertex 45.920134083422596 -140.26652052907676 0.0
    vertex 47.946728266244115 -163.49524630614306 0.0
  endloop
endfacet
facet normal 0.0 0.0 -1.0
  outer loop
    vertex 43.89087228762958 -141.75322354061606 0.0
    vertex 45.920134083422596 -140.26652052907676 0.0
    vertex 44.303112843452 -158.3941796929576 0.0
  endloop
endfacet
facet normal 0.0 0.0 -1.0
  outer loop
    vertex 42.98130011408225 -155.8596002556844 0.0
    vertex 43.89087228762958 -141.75322354061606 0.0
    vertex 44.303112843452 -158.3941796929576 0.0
  endloop
endfacet
facet normal 0.0 0.0 -1.0
  outer loop
    vertex 42.44140496008734 -143.63885688886432 0.0
    vertex 43.89087228762958 -141.75322354061606 0.0
    vertex 42.98130011408225 -155.8596002556844 0.0
  endloop
endfacet
facet normal 0.0 0.0 -1.0
  outer loop
    vertex 42.03715167137124 -153.38354092346867 0.0
    vertex 42.44140496008734 -143.63885688886432 0.0
    vertex 42.98130011408225 -155.8596002556844 0.0
  endloop
endfacet
facet normal 0.0 0.0 -1.0
  outer loop
    vertex 41.5717277523917 -145.9234283929704 0.0
    vertex 42.44140496008734 -143.63885688886432 0.0
    vertex 42.03715167137124 -153.38354092346867 0.0
  endloop
endfacet
facet normal 0.0 0.0 -1.0
  outer loop
    vertex 41.47066468287224 -150.96599252077877 0.0
    vertex 41.5717277523917 -145.9234283929704 0.0
    vertex 42.03715167137124 -153.38354092346867 0.0
  endloop
endfacet
facet normal 0.0 0.0 -1.0
  outer loop
    vertex 41.281836316138524 -148.60694587208297 0.0
    vertex 41.5717277523917 -145.9234283929704 0.0
    vertex 41.47066468287224 -150.96599252077877 0.0
  endloop
endfacet
facet normal 0.0 0.0 -1.0
  outer loop
    vertex 66.06906979726669 -148.05375439525093 0.0
    vertex 65.85364534735878 -150.2877971106078 0.0
    vertex 65.85231610869207 -145.90614282487786 0.0
  endloop
endfacet
facet normal 0.0 0.0 -1.0
  outer loop
    vertex 65.20736768912447 -152.43673301938176 0.0
    vertex 65.85231610869207 -145.90614282487786 0.0
    vertex 65.85364534735878 -150.2877971106078 0.0
  endloop
endfacet
facet normal 0.0 0.0 -1.0
  outer loop
    vertex 65.20205287541506 -144.01651786435295 0.0
    vertex 65.85231610869207 -145.90614282487786 0.0
    vertex 65.20736768912447 -152.43673301938176 0.0
  endloop
endfacet
facet normal 0.0 0.0 -1.0
  outer loop
    vertex 64.17279410883391 -154.37822316157767 0.0
    vertex 65.20205287541506 -144.01651786435295 0.0
    vertex 65.20736768912447 -152.43673301938176 0.0
  endloop
endfacet
facet normal 0.0 0.0 -1.0
  outer loop
    vertex 64.11827684610596 -142.38487291128274 0.0
    vertex 65.20205287541506 -144.01651786435295 0.0
    vertex 64.17279410883391 -154.37822316157767 0.0
  endloop
endfacet
facet normal 0.0 0.0 -1.0
  outer loop
    vertex 62.79247412679996 -155.9899244282645 0.0
    vertex 64.11827684610596 -142.38487291128274 0.0
    vertex 64.17279410883391 -154.37822316157767 0.0
  endloop
endfacet
facet normal 0.0 0.0 -1.0
  outer loop
    vertex 62.60098476943502 -141.01120136327376 0.0
    vertex 64.11827684610596 -142.38487291128274 0.0
    vertex 62.79247412679996 -155.9899244282645 0.0
  endloop
endfacet
facet normal 0.0 0.0 -1.0
  outer loop
    vertex 60.39353968645442 -157.45801194820416 0.0
    vertex 62.60098476943502 -141.01120136327376 0.0
    vertex 62.79247412679996 -155.9899244282645 0.0
  endloop
endfacet
facet normal 0.0 0.0 -1.0
  outer loop
    vertex 60.66348209057964 -139.83832527946677 0.0
    vertex 62.60098476943502 -141.01120136327376 0.0
    vertex 60.39353968645442 -157.45801194820416 0.0
  endloop
endfacet
facet normal 0.0 0.0 -1.0
  outer loop
    vertex 58.53183786691939 -139.00055975987814 0.0
    vertex 60.66348209057964 -139.83832527946677 0.0
    vertex 60.39353968645442 -157.45801194820416 0.0
  endloop
endfacet
facet normal 0.0 0.0 -1.0
  outer loop
    vertex 57.324389144267826 -157.94737119243942 0.0
    vertex 58.53183786691939 -139.00055975987814 0.0
    vertex 60.39353968645442 -157.45801194820416 0.0
  endloop
endfacet
facet normal 0.0 0.0 -1.0
  outer loop
    vertex 56.20604374074171 -138.49790229121 0.0
    vertex 58.53183786691939 -139.00055975987814 0.0
    vertex 57.324389144267826 -157.94737119243942 0.0
  endloop
endfacet
facet normal 0.0 0.0 -1.0
  outer loop
    vertex 56.72864447691025 -157.92609459717667 0.0
    vertex 56.20604374074171 -138.49790229121 0.0
    vertex 57.324389144267826 -157.94737119243942 0.0
  endloop
endfacet
facet normal 0.0 0.0 -1.0
  outer loop
    vertex 56.111623214289885 -147.07503101316345 0.0
    vertex 56.20604374074171 -138.49790229121 0.0
    vertex 56.72864447691025 -157.92609459717667 0.0
  endloop
endfacet
facet normal 0.0 0.0 -1.0
  outer loop
    vertex 55.28183599904182 -157.7984350256 0.0
    vertex 56.111623214289885 -147.07503101316345 0.0
    vertex 56.72864447691025 -157.92609459717667 0.0
  endloop
endfacet
facet normal 0.0 0.0 -1.0
  outer loop
    vertex 55.84566710329245 -149.11492534196034 0.0
    vertex 56.111623214289885 -147.07503101316345 0.0
    vertex 55.28183599904182 -157.7984350256 0.0
  endloop
endfacet
facet normal 0.0 0.0 -1.0
  outer loop
    vertex 55.047793451151335 -150.85162667230531 0.0
    vertex 55.84566710329245 -149.11492534196034 0.0
    vertex 55.28183599904182 -157.7984350256 0.0
  endloop
endfacet
facet normal 0.0 0.0 -1.0
  outer loop
    vertex 54.64353707732892 -158.00056166995807 0.0
    vertex 55.047793451151335 -150.85162667230531 0.0
    vertex 55.28183599904182 -157.7984350256 0.0
  endloop
endfacet
facet normal 0.0 0.0 -1.0
  outer loop
    vertex 53.88290036583377 -152.04045841399557 0.0
    vertex 55.047793451151335 -150.85162667230531 0.0
    vertex 54.64353707732892 -158.00056166995807 0.0
  endloop
endfacet
facet normal 0.0 0.0 -1.0
  outer loop
    vertex 54.43077218853098 -158.6069456455853 0.0
    vertex 53.88290036583377 -152.04045841399557 0.0
    vertex 54.64353707732892 -158.00056166995807 0.0
  endloop
endfacet
facet normal 0.0 0.0 -1.0
  outer loop
    vertex 54.02651687853833 -168.20269010909504 0.0
    vertex 53.88290036583377 -152.04045841399557 0.0
    vertex 54.43077218853098 -158.6069456455853 0.0
  endloop
endfacet
facet normal 0.0 0.0 -1.0
  outer loop
    vertex 52.196729685940035 -167.43673267963527 0.0
    vertex 53.88290036583377 -152.04045841399557 0.0
    vertex 54.02651687853833 -168.20269010909504 0.0
  endloop
endfacet
facet normal 0.0 0.0 -1.0
  outer loop
    vertex 52.51587861488159 -152.43673301938176 0.0
    vertex 53.88290036583377 -152.04045841399557 0.0
    vertex 52.196729685940035 -167.43673267963527 0.0
  endloop
endfacet
facet normal 0.0 0.0 -1.0
  outer loop
    vertex 51.72598460351719 -152.2771593527833 0.0
    vertex 52.51587861488159 -152.43673301938176 0.0
    vertex 52.196729685940035 -167.43673267963527 0.0
  endloop
endfacet
facet normal 0.0 0.0 -1.0
  outer loop
    vertex 49.99592702634621 -165.6109327841541 0.0
    vertex 51.72598460351719 -152.2771593527833 0.0
    vertex 52.196729685940035 -167.43673267963527 0.0
  endloop
endfacet
facet normal 0.0 0.0 -1.0
  outer loop
    vertex 51.10098502990733 -151.79843516149862 0.0
    vertex 51.72598460351719 -152.2771593527833 0.0
    vertex 49.99592702634621 -165.6109327841541 0.0
  endloop
endfacet
facet normal 0.0 0.0 -1.0
  outer loop
    vertex 50.69406946731536 -151.0643931036564 0.0
    vertex 51.10098502990733 -151.79843516149862 0.0
    vertex 49.99592702634621 -165.6109327841541 0.0
  endloop
endfacet
facet normal 0.0 0.0 -1.0
  outer loop
    vertex 50.55843185070667 -150.1388607310025 0.0
    vertex 50.69406946731536 -151.0643931036564 0.0
    vertex 49.99592702634621 -165.6109327841541 0.0
  endloop
endfacet
facet normal 0.0 0.0 -1.0
  outer loop
    vertex 59.40949548001938 -165.33034974862093 0.0
    vertex 58.89885974690432 -166.1149236803186 0.0
    vertex 59.095667269042416 -164.7877970481437 0.0
  endloop
endfacet
facet normal 0.0 0.0 -1.0
  outer loop
    vertex 58.154176359515894 -164.0537540328547 0.0
    vertex 59.095667269042416 -164.7877970481437 0.0
    vertex 58.89885974690432 -166.1149236803186 0.0
  endloop
endfacet
facet normal 0.0 0.0 -1.0
  outer loop
    vertex 57.36694233479337 -167.1069454530623 0.0
    vertex 58.154176359515894 -164.0537540328547 0.0
    vertex 58.89885974690432 -166.1149236803186 0.0
  endloop
endfacet
facet normal 0.0 0.0 -1.0
  outer loop
    vertex 56.70736734973259 -162.84098906032355 0.0
    vertex 58.154176359515894 -164.0537540328547 0.0
    vertex 57.36694233479337 -167.1069454530623 0.0
  endloop
endfacet
facet normal 0.0 0.0 -1.0
  outer loop
    vertex 55.51055846726556 -167.92875531476767 0.0
    vertex 56.70736734973259 -162.84098906032355 0.0
    vertex 57.36694233479337 -167.1069454530623 0.0
  endloop
endfacet
facet normal 0.0 0.0 -1.0
  outer loop
    vertex 55.47332535640676 -161.24524345816891 0.0
    vertex 56.70736734973259 -162.84098906032355 0.0
    vertex 55.51055846726556 -167.92875531476767 0.0
  endloop
endfacet
facet normal 0.0 0.0 -1.0
  outer loop
    vertex 54.02651687853833 -168.20269010909504 0.0
    vertex 55.47332535640676 -161.24524345816891 0.0
    vertex 55.51055846726556 -167.92875531476767 0.0
  endloop
endfacet
facet normal 0.0 0.0 -1.0
  outer loop
    vertex 54.691409177308465 -159.76651928953402 0.0
    vertex 55.47332535640676 -161.24524345816891 0.0
    vertex 54.02651687853833 -168.20269010909504 0.0
  endloop
endfacet
facet normal 0.0 0.0 -1.0
  outer loop
    vertex 54.43077218853098 -158.6069456455853 0.0
    vertex 54.691409177308465 -159.76651928953402 0.0
    vertex 54.02651687853833 -168.20269010909504 0.0
  endloop
endfacet
facet normal -0.7933533402912453 -0.6087614290087077 0.0
  outer loop
    vertex 52.278107843398594 -154.7258057357992 2.8999999999999946
    vertex 52.278107843398594 -154.7258057357992 4.999999999999995
    vertex 51.928486873683234 -154.27017081718878 2.8999999999999946
  endloop
endfacet
facet normal -0.7933533402912453 -0.6087614290087077 0.0
  outer loop
    vertex 51.928486873683234 -154.27017081718878 4.999999999999995
    vertex 51.928486873683234 -154.27017081718878 2.8999999999999946
    vertex 52.278107843398594 -154.7258057357992 4.999999999999995
  endloop
endfacet
facet normal 0.0 0.0 1.0
  outer loop
    vertex 52.57285195507283 -155.8258057357992 2.8999999999999946
    vertex 52.49788877290878 -155.25640383657364 2.8999999999999946
    vertex 52.49788877290878 -156.39520763502475 2.8999999999999946
  endloop
endfacet
facet normal 0.0 0.0 1.0
  outer loop
    vertex 52.278107843398594 -156.9258057357992 2.8999999999999946
    vertex 52.49788877290878 -156.39520763502475 2.8999999999999946
    vertex 52.49788877290878 -155.25640383657364 2.8999999999999946
  endloop
endfacet
facet normal 0.0 0.0 1.0
  outer loop
    vertex 52.278107843398594 -154.7258057357992 2.8999999999999946
    vertex 52.278107843398594 -156.9258057357992 2.8999999999999946
    vertex 52.49788877290878 -155.25640383657364 2.8999999999999946
  endloop
endfacet
facet normal 0.0 0.0 1.0
  outer loop
    vertex 51.928486873683234 -157.3814406544096 2.8999999999999946
    vertex 52.278107843398594 -156.9258057357992 2.8999999999999946
    vertex 52.278107843398594 -154.7258057357992 2.8999999999999946
  endloop
endfacet
facet normal 0.0 0.0 1.0
  outer loop
    vertex 51.928486873683234 -154.27017081718878 2.8999999999999946
    vertex 51.928486873683234 -157.3814406544096 2.8999999999999946
    vertex 52.278107843398594 -154.7258057357992 2.8999999999999946
  endloop
endfacet
facet normal 0.0 0.0 1.0
  outer loop
    vertex 51.472851955072834 -157.73106162412495 2.8999999999999946
    vertex 51.928486873683234 -157.3814406544096 2.8999999999999946
    vertex 51.928486873683234 -154.27017081718878 2.8999999999999946
  endloop
endfacet
facet normal 0.0 0.0 1.0
  outer loop
    vertex 51.472851955072834 -153.92054984747344 2.8999999999999946
    vertex 51.472851955072834 -157.73106162412495 2.8999999999999946
    vertex 51.928486873683234 -154.27017081718878 2.8999999999999946
  endloop
endfacet
facet normal 0.0 0.0 1.0
  outer loop
    vertex 50.94225385429837 -157.95084255363514 2.8999999999999946
    vertex 51.472851955072834 -157.73106162412495 2.8999999999999946
    vertex 51.472851955072834 -153.92054984747344 2.8999999999999946
  endloop
endfacet
facet normal 0.0 0.0 1.0
  outer loop
    vertex 50.94225385429837 -153.70076891796325 2.8999999999999946
    vertex 50.94225385429837 -157.95084255363514 2.8999999999999946
    vertex 51.472851955072834 -153.92054984747344 2.8999999999999946
  endloop
endfacet
facet normal 0.0 0.0 1.0
  outer loop
    vertex 50.37285195507283 -158.0258057357992 2.8999999999999946
    vertex 50.94225385429837 -157.95084255363514 2.8999999999999946
    vertex 50.94225385429837 -153.70076891796325 2.8999999999999946
  endloop
endfacet
facet normal 0.0 0.0 1.0
  outer loop
    vertex 50.37285195507283 -153.6258057357992 2.8999999999999946
    vertex 50.37285195507283 -158.0258057357992 2.8999999999999946
    vertex 50.94225385429837 -153.70076891796325 2.8999999999999946
  endloop
endfacet
facet normal 0.0 0.0 1.0
  outer loop
    vertex 49.80345005584729 -157.95084255363514 2.8999999999999946
    vertex 50.37285195507283 -158.0258057357992 2.8999999999999946
    vertex 50.37285195507283 -153.6258057357992 2.8999999999999946
  endloop
endfacet
facet normal 0.0 0.0 1.0
  outer loop
    vertex 49.80345005584729 -153.70076891796325 2.8999999999999946
    vertex 49.80345005584729 -157.95084255363514 2.8999999999999946
    vertex 50.37285195507283 -153.6258057357992 2.8999999999999946
  endloop
endfacet
facet normal 0.0 0.0 1.0
  outer loop
    vertex 49.27285195507284 -157.73106162412495 2.8999999999999946
    vertex 49.80345005584729 -157.95084255363514 2.8999999999999946
    vertex 49.80345005584729 -153.70076891796325 2.8999999999999946
  endloop
endfacet
facet normal 0.0 0.0 1.0
  outer loop
    vertex 49.27285195507284 -153.92054984747344 2.8999999999999946
    vertex 49.27285195507284 -157.73106162412495 2.8999999999999946
    vertex 49.80345005584729 -153.70076891796325 2.8999999999999946
  endloop
endfacet
facet normal 0.0 0.0 1.0
  outer loop
    vertex 48.81721703646243 -157.3814406544096 2.8999999999999946
    vertex 49.27285195507284 -157.73106162412495 2.8999999999999946
    vertex 49.27285195507284 -153.92054984747344 2.8999999999999946
  endloop
endfacet
facet normal 0.0 0.0 1.0
  outer loop
    vertex 48.81721703646243 -154.2701708171888 2.8999999999999946
    vertex 48.81721703646243 -157.3814406544096 2.8999999999999946
    vertex 49.27285195507284 -153.92054984747344 2.8999999999999946
  endloop
endfacet
facet normal 0.0 0.0 1.0
  outer loop
    vertex 48.46759606674708 -156.9258057357992 2.8999999999999946
    vertex 48.81721703646243 -157.3814406544096 2.8999999999999946
    vertex 48.81721703646243 -154.2701708171888 2.8999999999999946
  endloop
endfacet
facet normal 0.0 0.0 1.0
  outer loop
    vertex 48.46759606674707 -154.7258057357992 2.8999999999999946
    vertex 48.46759606674708 -156.9258057357992 2.8999999999999946
    vertex 48.81721703646243 -154.2701708171888 2.8999999999999946
  endloop
endfacet
facet normal 0.0 0.0 1.0
  outer loop
    vertex 48.247815137236884 -156.39520763502475 2.8999999999999946
    vertex 48.46759606674708 -156.9258057357992 2.8999999999999946
    vertex 48.46759606674707 -154.7258057357992 2.8999999999999946
  endloop
endfacet
facet normal 0.0 0.0 1.0
  outer loop
    vertex 48.247815137236884 -155.25640383657364 2.8999999999999946
    vertex 48.247815137236884 -156.39520763502475 2.8999999999999946
    vertex 48.46759606674707 -154.7258057357992 2.8999999999999946
  endloop
endfacet
facet normal 0.0 0.0 1.0
  outer loop
    vertex 48.17285195507284 -155.8258057357992 2.8999999999999946
    vertex 48.247815137236884 -156.39520763502475 2.8999999999999946
    vertex 48.247815137236884 -155.25640383657364 2.8999999999999946
  endloop
endfacet
facet normal 0.3826834323650871 -0.923879532511288 0.0
  outer loop
    vertex 49.27285195507284 -153.92054984747344 2.8999999999999946
    vertex 49.80345005584729 -153.70076891796325 2.8999999999999946
    vertex 49.27285195507284 -153.92054984747344 4.999999999999995
  endloop
endfacet
facet normal 0.3826834323650871 -0.923879532511288 0.0
  outer loop
    vertex 49.80345005584729 -153.70076891796325 4.999999999999995
    vertex 49.27285195507284 -153.92054984747344 4.999999999999995
    vertex 49.80345005584729 -153.70076891796325 2.8999999999999946
  endloop
endfacet
facet normal 0.9238795325112851 -0.382683432365094 0.0
  outer loop
    vertex 48.247815137236884 -155.25640383657364 4.999999999999995
    vertex 48.247815137236884 -155.25640383657364 2.8999999999999946
    vertex 48.46759606674707 -154.7258057357992 4.999999999999995
  endloop
endfacet
facet normal 0.9238795325112851 -0.382683432365094 0.0
  outer loop
    vertex 48.46759606674707 -154.7258057357992 2.8999999999999946
    vertex 48.46759606674707 -154.7258057357992 4.999999999999995
    vertex 48.247815137236884 -155.25640383657364 2.8999999999999946
  endloop
endfacet
facet normal -0.1305261922200586 0.9914448613738096 0.0
  outer loop
    vertex 50.94225385429837 -157.95084255363514 2.8999999999999946
    vertex 50.37285195507283 -158.0258057357992 2.8999999999999946
    vertex 50.94225385429837 -157.95084255363514 4.999999999999995
  endloop
endfacet
facet normal -0.1305261922200586 0.9914448613738096 0.0
  outer loop
    vertex 50.37285195507283 -158.0258057357992 4.999999999999995
    vertex 50.94225385429837 -157.95084255363514 4.999999999999995
    vertex 50.37285195507283 -158.0258057357992 2.8999999999999946
  endloop
endfacet
facet normal 0.1305261922200586 -0.9914448613738096 0.0
  outer loop
    vertex 49.80345005584729 -153.70076891796325 2.8999999999999946
    vertex 50.37285195507283 -153.6258057357992 2.8999999999999946
    vertex 49.80345005584729 -153.70076891796325 4.999999999999995
  endloop
endfacet
facet normal 0.1305261922200586 -0.9914448613738096 0.0
  outer loop
    vertex 50.37285195507283 -153.6258057357992 4.999999999999995
    vertex 49.80345005584729 -153.70076891796325 4.999999999999995
    vertex 50.37285195507283 -153.6258057357992 2.8999999999999946
  endloop
endfacet
facet normal 0.7933533402912258 -0.6087614290087329 0.0
  outer loop
    vertex 48.46759606674707 -154.7258057357992 4.999999999999995
    vertex 48.46759606674707 -154.7258057357992 2.8999999999999946
    vertex 48.81721703646243 -154.2701708171888 4.999999999999995
  endloop
endfacet
facet normal 0.7933533402912258 -0.6087614290087329 0.0
  outer loop
    vertex 48.81721703646243 -154.2701708171888 2.8999999999999946
    vertex 48.81721703646243 -154.2701708171888 4.999999999999995
    vertex 48.46759606674707 -154.7258057357992 2.8999999999999946
  endloop
endfacet
facet normal -0.1305261922200586 -0.9914448613738096 0.0
  outer loop
    vertex 50.37285195507283 -153.6258057357992 2.8999999999999946
    vertex 50.94225385429837 -153.70076891796325 2.8999999999999946
    vertex 50.37285195507283 -153.6258057357992 4.999999999999995
  endloop
endfacet
facet normal -0.1305261922200586 -0.9914448613738096 0.0
  outer loop
    vertex 50.94225385429837 -153.70076891796325 4.999999999999995
    vertex 50.37285195507283 -153.6258057357992 4.999999999999995
    vertex 50.94225385429837 -153.70076891796325 2.8999999999999946
  endloop
endfacet
facet normal 0.6087614290087295 -0.7933533402912283 0.0
  outer loop
    vertex 48.81721703646243 -154.2701708171888 2.8999999999999946
    vertex 49.27285195507284 -153.92054984747344 2.8999999999999946
    vertex 48.81721703646243 -154.2701708171888 4.999999999999995
  endloop
endfacet
facet normal 0.6087614290087295 -0.7933533402912283 0.0
  outer loop
    vertex 49.27285195507284 -153.92054984747344 4.999999999999995
    vertex 48.81721703646243 -154.2701708171888 4.999999999999995
    vertex 49.27285195507284 -153.92054984747344 2.8999999999999946
  endloop
endfacet
facet normal 0.1305261922200586 0.9914448613738096 0.0
  outer loop
    vertex 50.37285195507283 -158.0258057357992 2.8999999999999946
    vertex 49.80345005584729 -157.95084255363514 2.8999999999999946
    vertex 50.37285195507283 -158.0258057357992 4.999999999999995
  endloop
endfacet
facet normal 0.1305261922200586 0.9914448613738096 0.0
  outer loop
    vertex 49.80345005584729 -157.95084255363514 4.999999999999995
    vertex 50.37285195507283 -158.0258057357992 4.999999999999995
    vertex 49.80345005584729 -157.95084255363514 2.8999999999999946
  endloop
endfacet
facet normal -0.9238795325112851 0.382683432365094 0.0
  outer loop
    vertex 52.278107843398594 -156.9258057357992 2.8999999999999946
    vertex 52.278107843398594 -156.9258057357992 4.999999999999995
    vertex 52.49788877290878 -156.39520763502475 2.8999999999999946
  endloop
endfacet
facet normal -0.9238795325112851 0.382683432365094 0.0
  outer loop
    vertex 52.49788877290878 -156.39520763502475 4.999999999999995
    vertex 52.49788877290878 -156.39520763502475 2.8999999999999946
    vertex 52.278107843398594 -156.9258057357992 4.999999999999995
  endloop
endfacet
facet normal -0.7933533402912306 0.6087614290087267 0.0
  outer loop
    vertex 51.928486873683234 -157.3814406544096 2.8999999999999946
    vertex 51.928486873683234 -157.3814406544096 4.999999999999995
    vertex 52.278107843398594 -156.9258057357992 2.8999999999999946
  endloop
endfacet
facet normal -0.7933533402912306 0.6087614290087267 0.0
  outer loop
    vertex 52.278107843398594 -156.9258057357992 4.999999999999995
    vertex 52.278107843398594 -156.9258057357992 2.8999999999999946
    vertex 51.928486873683234 -157.3814406544096 4.999999999999995
  endloop
endfacet
facet normal -0.6087614290087295 0.7933533402912283 0.0
  outer loop
    vertex 51.928486873683234 -157.3814406544096 2.8999999999999946
    vertex 51.472851955072834 -157.73106162412495 2.8999999999999946
    vertex 51.928486873683234 -157.3814406544096 4.999999999999995
  endloop
endfacet
facet normal -0.6087614290087295 0.7933533402912283 0.0
  outer loop
    vertex 51.472851955072834 -157.73106162412495 4.999999999999995
    vertex 51.928486873683234 -157.3814406544096 4.999999999999995
    vertex 51.472851955072834 -157.73106162412495 2.8999999999999946
  endloop
endfacet
facet normal 0.3826834323650871 0.923879532511288 0.0
  outer loop
    vertex 49.80345005584729 -157.95084255363514 2.8999999999999946
    vertex 49.27285195507284 -157.73106162412495 2.8999999999999946
    vertex 49.80345005584729 -157.95084255363514 4.999999999999995
  endloop
endfacet
facet normal 0.3826834323650871 0.923879532511288 0.0
  outer loop
    vertex 49.27285195507284 -157.73106162412495 4.999999999999995
    vertex 49.80345005584729 -157.95084255363514 4.999999999999995
    vertex 49.27285195507284 -157.73106162412495 2.8999999999999946
  endloop
endfacet
facet normal -0.3826834323650871 0.923879532511288 0.0
  outer loop
    vertex 51.472851955072834 -157.73106162412495 2.8999999999999946
    vertex 50.94225385429837 -157.95084255363514 2.8999999999999946
    vertex 51.472851955072834 -157.73106162412495 4.999999999999995
  endloop
endfacet
facet normal -0.3826834323650871 0.923879532511288 0.0
  outer loop
    vertex 50.94225385429837 -157.95084255363514 4.999999999999995
    vertex 51.472851955072834 -157.73106162412495 4.999999999999995
    vertex 50.94225385429837 -157.95084255363514 2.8999999999999946
  endloop
endfacet
facet normal 0.6087614290087049 0.7933533402912475 0.0
  outer loop
    vertex 49.27285195507284 -157.73106162412495 2.8999999999999946
    vertex 48.81721703646243 -157.3814406544096 2.8999999999999946
    vertex 49.27285195507284 -157.73106162412495 4.999999999999995
  endloop
endfacet
facet normal 0.6087614290087049 0.7933533402912475 0.0
  outer loop
    vertex 48.81721703646243 -157.3814406544096 4.999999999999995
    vertex 49.27285195507284 -157.73106162412495 4.999999999999995
    vertex 48.81721703646243 -157.3814406544096 2.8999999999999946
  endloop
endfacet
facet normal 0.7933533402912453 0.6087614290087077 0.0
  outer loop
    vertex 48.81721703646243 -157.3814406544096 4.999999999999995
    vertex 48.81721703646243 -157.3814406544096 2.8999999999999946
    vertex 48.46759606674708 -156.9258057357992 4.999999999999995
  endloop
endfacet
facet normal 0.7933533402912453 0.6087614290087077 0.0
  outer loop
    vertex 48.46759606674708 -156.9258057357992 2.8999999999999946
    vertex 48.46759606674708 -156.9258057357992 4.999999999999995
    vertex 48.81721703646243 -157.3814406544096 2.8999999999999946
  endloop
endfacet
facet normal 0.9238795325112817 0.38268343236510244 0.0
  outer loop
    vertex 48.46759606674708 -156.9258057357992 4.999999999999995
    vertex 48.46759606674708 -156.9258057357992 2.8999999999999946
    vertex 48.247815137236884 -156.39520763502475 4.999999999999995
  endloop
endfacet
facet normal 0.9238795325112817 0.38268343236510244 0.0
  outer loop
    vertex 48.247815137236884 -156.39520763502475 2.8999999999999946
    vertex 48.247815137236884 -156.39520763502475 4.999999999999995
    vertex 48.46759606674708 -156.9258057357992 2.8999999999999946
  endloop
endfacet
facet normal 0.9914448613738113 0.1305261922200464 0.0
  outer loop
    vertex 48.247815137236884 -156.39520763502475 4.999999999999995
    vertex 48.247815137236884 -156.39520763502475 2.8999999999999946
    vertex 48.17285195507284 -155.8258057357992 4.999999999999995
  endloop
endfacet
facet normal 0.9914448613738113 0.1305261922200464 0.0
  outer loop
    vertex 48.17285195507284 -155.8258057357992 2.8999999999999946
    vertex 48.17285195507284 -155.8258057357992 4.999999999999995
    vertex 48.247815137236884 -156.39520763502475 2.8999999999999946
  endloop
endfacet
facet normal -0.3826834323650871 -0.923879532511288 0.0
  outer loop
    vertex 50.94225385429837 -153.70076891796325 2.8999999999999946
    vertex 51.472851955072834 -153.92054984747344 2.8999999999999946
    vertex 50.94225385429837 -153.70076891796325 4.999999999999995
  endloop
endfacet
facet normal -0.3826834323650871 -0.923879532511288 0.0
  outer loop
    vertex 51.472851955072834 -153.92054984747344 4.999999999999995
    vertex 50.94225385429837 -153.70076891796325 4.999999999999995
    vertex 51.472851955072834 -153.92054984747344 2.8999999999999946
  endloop
endfacet
facet normal -0.6087614290087049 -0.7933533402912475 0.0
  outer loop
    vertex 51.472851955072834 -153.92054984747344 2.8999999999999946
    vertex 51.928486873683234 -154.27017081718878 2.8999999999999946
    vertex 51.472851955072834 -153.92054984747344 4.999999999999995
  endloop
endfacet
facet normal -0.6087614290087049 -0.7933533402912475 0.0
  outer loop
    vertex 51.928486873683234 -154.27017081718878 4.999999999999995
    vertex 51.472851955072834 -153.92054984747344 4.999999999999995
    vertex 51.928486873683234 -154.27017081718878 2.8999999999999946
  endloop
endfacet
facet normal -0.9914448613738099 0.13052619222005604 0.0
  outer loop
    vertex 52.49788877290878 -156.39520763502475 2.8999999999999946
    vertex 52.49788877290878 -156.39520763502475 4.999999999999995
    vertex 52.57285195507283 -155.8258057357992 2.8999999999999946
  endloop
endfacet
facet normal -0.9914448613738099 0.13052619222005604 0.0
  outer loop
    vertex 52.57285195507283 -155.8258057357992 4.999999999999995
    vertex 52.57285195507283 -155.8258057357992 2.8999999999999946
    vertex 52.49788877290878 -156.39520763502475 4.999999999999995
  endloop
endfacet
facet normal -0.9914448613738099 -0.13052619222005604 0.0
  outer loop
    vertex 52.57285195507283 -155.8258057357992 2.8999999999999946
    vertex 52.57285195507283 -155.8258057357992 4.999999999999995
    vertex 52.49788877290878 -155.25640383657364 2.8999999999999946
  endloop
endfacet
facet normal -0.9914448613738099 -0.13052619222005604 0.0
  outer loop
    vertex 52.49788877290878 -155.25640383657364 4.999999999999995
    vertex 52.49788877290878 -155.25640383657364 2.8999999999999946
    vertex 52.57285195507283 -155.8258057357992 4.999999999999995
  endloop
endfacet
facet normal -0.9238795325112851 -0.382683432365094 0.0
  outer loop
    vertex 52.49788877290878 -155.25640383657364 2.8999999999999946
    vertex 52.49788877290878 -155.25640383657364 4.999999999999995
    vertex 52.278107843398594 -154.7258057357992 2.8999999999999946
  endloop
endfacet
facet normal -0.9238795325112851 -0.382683432365094 0.0
  outer loop
    vertex 52.278107843398594 -154.7258057357992 4.999999999999995
    vertex 52.278107843398594 -154.7258057357992 2.8999999999999946
    vertex 52.49788877290878 -155.25640383657364 4.999999999999995
  endloop
endfacet
facet normal 0.9914448613738113 -0.1305261922200464 0.0
  outer loop
    vertex 48.17285195507284 -155.8258057357992 4.999999999999995
    vertex 48.17285195507284 -155.8258057357992 2.8999999999999946
    vertex 48.247815137236884 -155.25640383657364 4.999999999999995
  endloop
endfacet
facet normal 0.9914448613738113 -0.1305261922200464 0.0
  outer loop
    vertex 48.247815137236884 -155.25640383657364 2.8999999999999946
    vertex 48.247815137236884 -155.25640383657364 4.999999999999995
    vertex 48.17285195507284 -155.8258057357992 2.8999999999999946
  endloop
endfacet
endsolid ABC
