solid ABC
facet normal 0.5445057470537888 -0.8387571111027289 0.0
  outer loop
    vertex 151.3771890321878 -157.8462684005607 0.0
    vertex 152.9995287560805 -156.79307517973444 0.0
    vertex 151.3771890321878 -157.8462684005607 5.0
  endloop
endfacet
facet normal 0.5445057470537888 -0.8387571111027289 0.0
  outer loop
    vertex 152.9995287560805 -156.79307517973444 5.0
    vertex 151.3771890321878 -157.8462684005607 5.0
    vertex 152.9995287560805 -156.79307517973444 0.0
  endloop
endfacet
facet normal 0.8233409891973749 -0.5675470161206806 0.0
  outer loop
    vertex 152.9995287560805 -156.79307517973444 5.0
    vertex 152.9995287560805 -156.79307517973444 0.0
    vertex 154.13250934212087 -155.1494591797279 5.0
  endloop
endfacet
facet normal 0.8233409891973749 -0.5675470161206806 0.0
  outer loop
    vertex 154.13250934212087 -155.1494591797279 0.0
    vertex 154.13250934212087 -155.1494591797279 5.0
    vertex 152.9995287560805 -156.79307517973444 0.0
  endloop
endfacet
facet normal 0.9832481188046479 -0.18227215055274043 0.0
  outer loop
    vertex 154.13250934212087 -155.1494591797279 5.0
    vertex 154.13250934212087 -155.1494591797279 0.0
    vertex 154.51016701973725 -153.11222419927506 5.0
  endloop
endfacet
facet normal 0.9832481188046479 -0.18227215055274043 0.0
  outer loop
    vertex 154.51016701973725 -153.11222419927506 0.0
    vertex 154.51016701973725 -153.11222419927506 5.0
    vertex 154.13250934212087 -155.1494591797279 0.0
  endloop
endfacet
facet normal 0.5866807929023423 0.8098182803811477 0.0
  outer loop
    vertex 153.23357130397096 -149.81435193354557 0.0
    vertex 151.51548716735326 -148.56966903620543 0.0
    vertex 153.23357130397096 -149.81435193354557 5.0
  endloop
endfacet
facet normal 0.5866807929023423 0.8098182803811477 0.0
  outer loop
    vertex 151.51548716735326 -148.56966903620543 5.0
    vertex 153.23357130397096 -149.81435193354557 5.0
    vertex 151.51548716735326 -148.56966903620543 0.0
  endloop
endfacet
facet normal -0.8263137515325029 0.5632100709577922 0.0
  outer loop
    vertex 144.83197392777583 -151.21594691509765 0.0
    vertex 144.83197392777583 -151.21594691509765 5.0
    vertex 145.92506083120915 -149.61222427854923 0.0
  endloop
endfacet
facet normal -0.8263137515325029 0.5632100709577922 0.0
  outer loop
    vertex 145.92506083120915 -149.61222427854923 5.0
    vertex 145.92506083120915 -149.61222427854923 0.0
    vertex 144.83197392777583 -151.21594691509765 5.0
  endloop
endfacet
facet normal -0.9820360954366013 0.18869315636671763 0.0
  outer loop
    vertex 144.46761405570936 -153.11222419927506 0.0
    vertex 144.46761405570936 -153.11222419927506 5.0
    vertex 144.83197392777583 -151.21594691509765 0.0
  endloop
endfacet
facet normal -0.9820360954366013 0.18869315636671763 0.0
  outer loop
    vertex 144.83197392777583 -151.21594691509765 5.0
    vertex 144.83197392777583 -151.21594691509765 0.0
    vertex 144.46761405570936 -153.11222419927506 5.0
  endloop
endfacet
facet normal -0.9832481188046479 -0.18227215055274043 0.0
  outer loop
    vertex 144.8452717333257 -155.1494591797279 0.0
    vertex 144.8452717333257 -155.1494591797279 5.0
    vertex 144.46761405570936 -153.11222419927506 0.0
  endloop
endfacet
facet normal -0.9832481188046479 -0.18227215055274043 0.0
  outer loop
    vertex 144.46761405570936 -153.11222419927506 5.0
    vertex 144.46761405570936 -153.11222419927506 0.0
    vertex 144.8452717333257 -155.1494591797279 5.0
  endloop
endfacet
facet normal -0.8233409891973749 -0.5675470161206806 0.0
  outer loop
    vertex 145.9782523193661 -156.79307517973444 0.0
    vertex 145.9782523193661 -156.79307517973444 5.0
    vertex 144.8452717333257 -155.1494591797279 0.0
  endloop
endfacet
facet normal -0.8233409891973749 -0.5675470161206806 0.0
  outer loop
    vertex 144.8452717333257 -155.1494591797279 5.0
    vertex 144.8452717333257 -155.1494591797279 0.0
    vertex 145.9782523193661 -156.79307517973444 5.0
  endloop
endfacet
facet normal -0.5445057470537874 -0.8387571111027297 0.0
  outer loop
    vertex 145.9782523193661 -156.79307517973444 0.0
    vertex 147.60059204325876 -157.8462684005607 0.0
    vertex 145.9782523193661 -156.79307517973444 5.0
  endloop
endfacet
facet normal -0.5445057470537874 -0.8387571111027297 0.0
  outer loop
    vertex 147.60059204325876 -157.8462684005607 5.0
    vertex 145.9782523193661 -156.79307517973444 5.0
    vertex 147.60059204325876 -157.8462684005607 0.0
  endloop
endfacet
facet normal -0.18278246712318566 -0.9831533805629525 0.0
  outer loop
    vertex 147.60059204325876 -157.8462684005607 0.0
    vertex 149.48889053772328 -158.1973304670773 0.0
    vertex 147.60059204325876 -157.8462684005607 5.0
  endloop
endfacet
facet normal -0.18278246712318566 -0.9831533805629525 0.0
  outer loop
    vertex 149.48889053772328 -158.1973304670773 5.0
    vertex 147.60059204325876 -157.8462684005607 5.0
    vertex 149.48889053772328 -158.1973304670773 0.0
  endloop
endfacet
facet normal 0.9846958696342191 0.17428150884505547 0.0
  outer loop
    vertex 154.51016701973725 -153.11222419927506 5.0
    vertex 154.51016701973725 -153.11222419927506 0.0
    vertex 154.19101968654033 -151.30903197947865 5.0
  endloop
endfacet
facet normal 0.9846958696342191 0.17428150884505547 0.0
  outer loop
    vertex 154.19101968654033 -151.30903197947865 0.0
    vertex 154.19101968654033 -151.30903197947865 5.0
    vertex 154.51016701973725 -153.11222419927506 0.0
  endloop
endfacet
facet normal 0.8420531077303393 0.539394627116064 0.0
  outer loop
    vertex 154.19101968654033 -151.30903197947865 5.0
    vertex 154.19101968654033 -151.30903197947865 0.0
    vertex 153.23357130397096 -149.81435193354557 5.0
  endloop
endfacet
facet normal 0.8420531077303393 0.539394627116064 0.0
  outer loop
    vertex 153.23357130397096 -149.81435193354557 0.0
    vertex 153.23357130397096 -149.81435193354557 5.0
    vertex 154.19101968654033 -151.30903197947865 0.0
  endloop
endfacet
facet normal 0.18278246712318566 -0.9831533805629525 0.0
  outer loop
    vertex 149.48889053772328 -158.1973304670773 0.0
    vertex 151.3771890321878 -157.8462684005607 0.0
    vertex 149.48889053772328 -158.1973304670773 5.0
  endloop
endfacet
facet normal 0.18278246712318566 -0.9831533805629525 0.0
  outer loop
    vertex 151.3771890321878 -157.8462684005607 5.0
    vertex 149.48889053772328 -158.1973304670773 5.0
    vertex 151.3771890321878 -157.8462684005607 0.0
  endloop
endfacet
facet normal -1.5107333898626556e-08 3.944591985209833e-09 -1.0
  outer loop
    vertex 149.42506075193498 -135.8569054411678 0.0
    vertex 149.09654735814652 -145.83162550390463 1.0093490475696075e-05
    vertex 147.52878346775756 -136.2212653132343 0.0
  endloop
endfacet
facet normal -1.5107333898626556e-08 3.944591985209833e-09 -1.0
  outer loop
    vertex 147.60059204325876 -145.5483963386791 0.0
    vertex 147.52878346775756 -136.2212653132343 0.0
    vertex 149.09654735814652 -145.83162550390463 1.0093490475696075e-05
  endloop
endfacet
facet normal -1.5107333898626556e-08 3.944591985209833e-09 -1.0
  outer loop
    vertex 145.9782523193661 -144.4952031178528 0.0
    vertex 147.52878346775756 -136.2212653132343 0.0
    vertex 147.60059204325876 -145.5483963386791 0.0
  endloop
endfacet
facet normal -1.5107333898626556e-08 3.944591985209833e-09 -1.0
  outer loop
    vertex 145.92506083120915 -137.31435221666763 0.0
    vertex 147.52878346775756 -136.2212653132343 0.0
    vertex 145.9782523193661 -144.4952031178528 0.0
  endloop
endfacet
facet normal -1.5107333898626556e-08 3.944591985209833e-09 -1.0
  outer loop
    vertex 144.8452717333257 -142.8515871178463 0.0
    vertex 145.92506083120915 -137.31435221666763 0.0
    vertex 145.9782523193661 -144.4952031178528 0.0
  endloop
endfacet
facet normal -1.5107333898626556e-08 3.944591985209833e-09 -1.0
  outer loop
    vertex 144.83197392777583 -138.91807485321604 0.0
    vertex 145.92506083120915 -137.31435221666763 0.0
    vertex 144.8452717333257 -142.8515871178463 0.0
  endloop
endfacet
facet normal -1.5107333898626556e-08 3.944591985209833e-09 -1.0
  outer loop
    vertex 144.46761405570936 -140.81435213739346 0.0
    vertex 144.83197392777583 -138.91807485321604 0.0
    vertex 144.8452717333257 -142.8515871178463 0.0
  endloop
endfacet
facet normal -1.5107333898626556e-08 3.944591985209833e-09 -1.0
  outer loop
    vertex 154.51016701973725 -140.81435213739346 0.0
    vertex 154.13250934212087 -142.8515871178463 0.0
    vertex 154.19101968654033 -139.01115991759704 0.0
  endloop
endfacet
facet normal -1.5107333898626556e-08 3.944591985209833e-09 -1.0
  outer loop
    vertex 153.23357130397096 -137.51647987166396 0.0
    vertex 154.19101968654033 -139.01115991759704 0.0
    vertex 154.13250934212087 -142.8515871178463 0.0
  endloop
endfacet
facet normal -1.5107333898626556e-08 3.944591985209833e-09 -1.0
  outer loop
    vertex 152.9995287560805 -144.4952031178528 0.0
    vertex 153.23357130397096 -137.51647987166396 0.0
    vertex 154.13250934212087 -142.8515871178463 0.0
  endloop
endfacet
facet normal -1.5107333898626556e-08 3.944591985209833e-09 -1.0
  outer loop
    vertex 151.51548716735326 -136.2717969743238 0.0
    vertex 153.23357130397096 -137.51647987166396 0.0
    vertex 152.9995287560805 -144.4952031178528 0.0
  endloop
endfacet
facet normal -1.5107333898626556e-08 3.944591985209833e-09 -1.0
  outer loop
    vertex 151.3771890321878 -145.5483963386791 0.0
    vertex 151.51548716735326 -136.2717969743238 0.0
    vertex 152.9995287560805 -144.4952031178528 0.0
  endloop
endfacet
facet normal -1.5107333898626556e-08 3.944591985209833e-09 -1.0
  outer loop
    vertex 149.42506075193498 -135.8569054411678 0.0
    vertex 151.51548716735326 -136.2717969743238 0.0
    vertex 151.3771890321878 -145.5483963386791 0.0
  endloop
endfacet
facet normal -1.5107333898626556e-08 3.944591985209833e-09 -1.0
  outer loop
    vertex 149.8807628227076 -145.8266036660851 0.0
    vertex 149.42506075193498 -135.8569054411678 0.0
    vertex 151.3771890321878 -145.5483963386791 0.0
  endloop
endfacet
facet normal -1.5107333898626556e-08 3.944591985209833e-09 -1.0
  outer loop
    vertex 149.8807628227076 -148.24522169635406 0.0
    vertex 149.42506075193498 -135.8569054411678 0.0
    vertex 149.8807628227076 -145.8266036660851 0.0
  endloop
endfacet
facet normal -1.5107333898626556e-08 3.944591985209833e-09 -1.0
  outer loop
    vertex 149.48889053772328 -158.1973304670773 0.0
    vertex 149.42506075193498 -135.8569054411678 0.0
    vertex 149.8807628227076 -148.24522169635406 0.0
  endloop
endfacet
facet normal -1.5107333898626556e-08 3.944591985209833e-09 -1.0
  outer loop
    vertex 149.09654735814652 -148.2178996525007 5.0467452378480375e-06
    vertex 149.42506075193498 -135.8569054411678 0.0
    vertex 149.48889053772328 -158.1973304670773 0.0
  endloop
endfacet
facet normal -1.5107333898626556e-08 3.944591985209833e-09 -1.0
  outer loop
    vertex 147.60059204325876 -157.8462684005607 0.0
    vertex 149.09654735814652 -148.2178996525007 5.0467452378480375e-06
    vertex 149.48889053772328 -158.1973304670773 0.0
  endloop
endfacet
facet normal -1.5107333898626556e-08 3.944591985209833e-09 -1.0
  outer loop
    vertex 149.09654735814652 -145.83162550390463 1.0093490475696075e-05
    vertex 149.42506075193498 -135.8569054411678 0.0
    vertex 149.09654735814652 -148.2178996525007 5.0467452378480375e-06
  endloop
endfacet
facet normal -1.5107333898626556e-08 3.944591985209833e-09 -1.0
  outer loop
    vertex 147.52878346775756 -148.51913737511592 0.0
    vertex 149.09654735814652 -148.2178996525007 5.0467452378480375e-06
    vertex 147.60059204325876 -157.8462684005607 0.0
  endloop
endfacet
facet normal -1.5107333898626556e-08 3.944591985209833e-09 -1.0
  outer loop
    vertex 145.9782523193661 -156.79307517973444 0.0
    vertex 147.52878346775756 -148.51913737511592 0.0
    vertex 147.60059204325876 -157.8462684005607 0.0
  endloop
endfacet
facet normal -1.5107333898626556e-08 3.944591985209833e-09 -1.0
  outer loop
    vertex 145.92506083120915 -149.61222427854923 0.0
    vertex 147.52878346775756 -148.51913737511592 0.0
    vertex 145.9782523193661 -156.79307517973444 0.0
  endloop
endfacet
facet normal -1.5107333898626556e-08 3.944591985209833e-09 -1.0
  outer loop
    vertex 144.8452717333257 -155.1494591797279 0.0
    vertex 145.92506083120915 -149.61222427854923 0.0
    vertex 145.9782523193661 -156.79307517973444 0.0
  endloop
endfacet
facet normal -1.5107333898626556e-08 3.944591985209833e-09 -1.0
  outer loop
    vertex 144.83197392777583 -151.21594691509765 0.0
    vertex 145.92506083120915 -149.61222427854923 0.0
    vertex 144.8452717333257 -155.1494591797279 0.0
  endloop
endfacet
facet normal -1.5107333898626556e-08 3.944591985209833e-09 -1.0
  outer loop
    vertex 144.46761405570936 -153.11222419927506 0.0
    vertex 144.83197392777583 -151.21594691509765 0.0
    vertex 144.8452717333257 -155.1494591797279 0.0
  endloop
endfacet
facet normal -1.5107333898626556e-08 3.944591985209833e-09 -1.0
  outer loop
    vertex 154.51016701973725 -153.11222419927506 0.0
    vertex 154.13250934212087 -155.1494591797279 0.0
    vertex 154.19101968654033 -151.30903197947865 0.0
  endloop
endfacet
facet normal -1.5107333898626556e-08 3.944591985209833e-09 -1.0
  outer loop
    vertex 153.23357130397096 -149.81435193354557 0.0
    vertex 154.19101968654033 -151.30903197947865 0.0
    vertex 154.13250934212087 -155.1494591797279 0.0
  endloop
endfacet
facet normal -1.5107333898626556e-08 3.944591985209833e-09 -1.0
  outer loop
    vertex 152.9995287560805 -156.79307517973444 0.0
    vertex 153.23357130397096 -149.81435193354557 0.0
    vertex 154.13250934212087 -155.1494591797279 0.0
  endloop
endfacet
facet normal -1.5107333898626556e-08 3.944591985209833e-09 -1.0
  outer loop
    vertex 151.51548716735326 -148.56966903620543 0.0
    vertex 153.23357130397096 -149.81435193354557 0.0
    vertex 152.9995287560805 -156.79307517973444 0.0
  endloop
endfacet
facet normal -1.5107333898626556e-08 3.944591985209833e-09 -1.0
  outer loop
    vertex 151.3771890321878 -157.8462684005607 0.0
    vertex 151.51548716735326 -148.56966903620543 0.0
    vertex 152.9995287560805 -156.79307517973444 0.0
  endloop
endfacet
facet normal -1.5107333898626556e-08 3.944591985209833e-09 -1.0
  outer loop
    vertex 149.8807628227076 -148.24522169635406 0.0
    vertex 151.51548716735326 -148.56966903620543 0.0
    vertex 151.3771890321878 -157.8462684005607 0.0
  endloop
endfacet
facet normal -1.5107333898626556e-08 3.944591985209833e-09 -1.0
  outer loop
    vertex 149.48889053772328 -158.1973304670773 0.0
    vertex 149.8807628227076 -148.24522169635406 0.0
    vertex 151.3771890321878 -157.8462684005607 0.0
  endloop
endfacet
facet normal 0.8420531077303389 0.5393946271160643 0.0
  outer loop
    vertex 154.19101968654033 -139.01115991759704 5.0
    vertex 154.19101968654033 -139.01115991759704 0.0
    vertex 153.23357130397096 -137.51647987166396 5.0
  endloop
endfacet
facet normal 0.8420531077303389 0.5393946271160643 0.0
  outer loop
    vertex 153.23357130397096 -137.51647987166396 0.0
    vertex 153.23357130397096 -137.51647987166396 5.0
    vertex 154.19101968654033 -139.01115991759704 0.0
  endloop
endfacet
facet normal 0.5866807929023432 0.809818280381147 0.0
  outer loop
    vertex 153.23357130397096 -137.51647987166396 0.0
    vertex 151.51548716735326 -136.2717969743238 0.0
    vertex 153.23357130397096 -137.51647987166396 5.0
  endloop
endfacet
facet normal 0.5866807929023432 0.809818280381147 0.0
  outer loop
    vertex 151.51548716735326 -136.2717969743238 5.0
    vertex 153.23357130397096 -137.51647987166396 5.0
    vertex 151.51548716735326 -136.2717969743238 0.0
  endloop
endfacet
facet normal 0.1946749924710549 0.9808678031755323 0.0
  outer loop
    vertex 151.51548716735326 -136.2717969743238 0.0
    vertex 149.42506075193498 -135.8569054411678 0.0
    vertex 151.51548716735326 -136.2717969743238 5.0
  endloop
endfacet
facet normal 0.1946749924710549 0.9808678031755323 0.0
  outer loop
    vertex 149.42506075193498 -135.8569054411678 5.0
    vertex 151.51548716735326 -136.2717969743238 5.0
    vertex 149.42506075193498 -135.8569054411678 0.0
  endloop
endfacet
facet normal 0.0 0.0 1.0
  outer loop
    vertex 152.9995287560805 -156.79307517973444 5.0
    vertex 151.61680987261505 -153.04217085581584 5.000000000000006
    vertex 151.3771890321878 -157.8462684005607 5.0
  endloop
endfacet
facet normal 0.0 0.0 1.0
  outer loop
    vertex 151.541846690451 -153.61157275504138 5.000000000000006
    vertex 151.3771890321878 -157.8462684005607 5.0
    vertex 151.61680987261505 -153.04217085581584 5.000000000000006
  endloop
endfacet
facet normal 0.0 0.0 1.0
  outer loop
    vertex 151.32206576094083 -154.14217085581583 5.000000000000006
    vertex 151.3771890321878 -157.8462684005607 5.0
    vertex 151.541846690451 -153.61157275504138 5.000000000000006
  endloop
endfacet
facet normal 0.0 0.0 1.0
  outer loop
    vertex 149.48889053772328 -158.1973304670773 5.0
    vertex 151.3771890321878 -157.8462684005607 5.0
    vertex 151.32206576094083 -154.14217085581583 5.000000000000006
  endloop
endfacet
facet normal 0.0 0.0 1.0
  outer loop
    vertex 150.97244479122546 -154.59780577442623 5.000000000000006
    vertex 149.48889053772328 -158.1973304670773 5.0
    vertex 151.32206576094083 -154.14217085581583 5.000000000000006
  endloop
endfacet
facet normal 0.0 0.0 1.0
  outer loop
    vertex 150.51680987261506 -154.94742674414158 5.000000000000006
    vertex 149.48889053772328 -158.1973304670773 5.0
    vertex 150.97244479122546 -154.59780577442623 5.000000000000006
  endloop
endfacet
facet normal 0.0 0.0 1.0
  outer loop
    vertex 149.9862117718406 -155.16720767365177 5.000000000000006
    vertex 149.48889053772328 -158.1973304670773 5.0
    vertex 150.51680987261506 -154.94742674414158 5.000000000000006
  endloop
endfacet
facet normal 0.0 0.0 1.0
  outer loop
    vertex 149.41680987261506 -155.24217085581583 5.000000000000006
    vertex 149.48889053772328 -158.1973304670773 5.0
    vertex 149.9862117718406 -155.16720767365177 5.000000000000006
  endloop
endfacet
facet normal 0.0 0.0 1.0
  outer loop
    vertex 147.60059204325876 -157.8462684005607 5.0
    vertex 149.48889053772328 -158.1973304670773 5.0
    vertex 149.41680987261506 -155.24217085581583 5.000000000000006
  endloop
endfacet
facet normal 0.0 0.0 1.0
  outer loop
    vertex 148.84740797338952 -155.16720767365177 5.000000000000006
    vertex 147.60059204325876 -157.8462684005607 5.0
    vertex 149.41680987261506 -155.24217085581583 5.000000000000006
  endloop
endfacet
facet normal 0.0 0.0 1.0
  outer loop
    vertex 148.31680987261507 -154.94742674414158 5.000000000000006
    vertex 147.60059204325876 -157.8462684005607 5.0
    vertex 148.84740797338952 -155.16720767365177 5.000000000000006
  endloop
endfacet
facet normal 0.0 0.0 1.0
  outer loop
    vertex 147.86117495400467 -154.59780577442623 5.000000000000006
    vertex 147.60059204325876 -157.8462684005607 5.0
    vertex 148.31680987261507 -154.94742674414158 5.000000000000006
  endloop
endfacet
facet normal 0.0 0.0 1.0
  outer loop
    vertex 147.5115539842893 -154.14217085581583 5.000000000000006
    vertex 147.60059204325876 -157.8462684005607 5.0
    vertex 147.86117495400467 -154.59780577442623 5.000000000000006
  endloop
endfacet
facet normal 0.0 0.0 1.0
  outer loop
    vertex 145.9782523193661 -156.79307517973444 5.0
    vertex 147.60059204325876 -157.8462684005607 5.0
    vertex 147.5115539842893 -154.14217085581583 5.000000000000006
  endloop
endfacet
facet normal 0.0 0.0 1.0
  outer loop
    vertex 147.29177305477913 -153.61157275504138 5.000000000000006
    vertex 145.9782523193661 -156.79307517973444 5.0
    vertex 147.5115539842893 -154.14217085581583 5.000000000000006
  endloop
endfacet
facet normal 0.0 0.0 1.0
  outer loop
    vertex 147.21680987261507 -153.04217085581584 5.000000000000006
    vertex 145.9782523193661 -156.79307517973444 5.0
    vertex 147.29177305477913 -153.61157275504138 5.000000000000006
  endloop
endfacet
facet normal 0.0 0.0 1.0
  outer loop
    vertex 149.41680987261506 -150.84217085581585 5.000000000000006
    vertex 149.09654735814652 -148.2178996525007 5.0
    vertex 148.84740797338952 -150.91713403797988 5.000000000000006
  endloop
endfacet
facet normal 0.0 0.0 1.0
  outer loop
    vertex 147.52878346775756 -148.51913737511592 5.0
    vertex 148.84740797338952 -150.91713403797988 5.000000000000006
    vertex 149.09654735814652 -148.2178996525007 5.0
  endloop
endfacet
facet normal 0.0 0.0 1.0
  outer loop
    vertex 148.31680987261507 -151.13691496749007 5.000000000000006
    vertex 148.84740797338952 -150.91713403797988 5.000000000000006
    vertex 147.52878346775756 -148.51913737511592 5.0
  endloop
endfacet
facet normal 0.0 0.0 1.0
  outer loop
    vertex 147.86117495400467 -151.48653593720542 5.000000000000006
    vertex 148.31680987261507 -151.13691496749007 5.000000000000006
    vertex 147.52878346775756 -148.51913737511592 5.0
  endloop
endfacet
facet normal 0.0 0.0 1.0
  outer loop
    vertex 147.5115539842893 -151.94217085581585 5.000000000000006
    vertex 147.86117495400467 -151.48653593720542 5.000000000000006
    vertex 147.52878346775756 -148.51913737511592 5.0
  endloop
endfacet
facet normal 0.0 0.0 1.0
  outer loop
    vertex 145.92506083120915 -149.61222427854923 5.0
    vertex 147.5115539842893 -151.94217085581585 5.000000000000006
    vertex 147.52878346775756 -148.51913737511592 5.0
  endloop
endfacet
facet normal 0.0 0.0 1.0
  outer loop
    vertex 147.29177305477913 -152.47276895659027 5.000000000000006
    vertex 147.5115539842893 -151.94217085581585 5.000000000000006
    vertex 145.92506083120915 -149.61222427854923 5.0
  endloop
endfacet
facet normal 0.0 0.0 1.0
  outer loop
    vertex 147.21680987261507 -153.04217085581584 5.000000000000006
    vertex 147.29177305477913 -152.47276895659027 5.000000000000006
    vertex 145.92506083120915 -149.61222427854923 5.0
  endloop
endfacet
facet normal 0.0 0.0 1.0
  outer loop
    vertex 145.9782523193661 -156.79307517973444 5.0
    vertex 147.21680987261507 -153.04217085581584 5.000000000000006
    vertex 145.92506083120915 -149.61222427854923 5.0
  endloop
endfacet
facet normal 0.0 0.0 1.0
  outer loop
    vertex 144.8452717333257 -155.1494591797279 5.0
    vertex 145.9782523193661 -156.79307517973444 5.0
    vertex 145.92506083120915 -149.61222427854923 5.0
  endloop
endfacet
facet normal 0.0 0.0 1.0
  outer loop
    vertex 144.83197392777583 -151.21594691509765 5.0
    vertex 144.8452717333257 -155.1494591797279 5.0
    vertex 145.92506083120915 -149.61222427854923 5.0
  endloop
endfacet
facet normal 0.0 0.0 1.0
  outer loop
    vertex 144.46761405570936 -153.11222419927506 5.0
    vertex 144.8452717333257 -155.1494591797279 5.0
    vertex 144.83197392777583 -151.21594691509765 5.0
  endloop
endfacet
facet normal 0.0 0.0 1.0
  outer loop
    vertex 154.51016701973725 -153.11222419927506 5.0
    vertex 154.19101968654033 -151.30903197947865 5.0
    vertex 154.13250934212087 -155.1494591797279 5.0
  endloop
endfacet
facet normal 0.0 0.0 1.0
  outer loop
    vertex 153.23357130397096 -149.81435193354557 5.0
    vertex 154.13250934212087 -155.1494591797279 5.0
    vertex 154.19101968654033 -151.30903197947865 5.0
  endloop
endfacet
facet normal 0.0 0.0 1.0
  outer loop
    vertex 152.9995287560805 -156.79307517973444 5.0
    vertex 154.13250934212087 -155.1494591797279 5.0
    vertex 153.23357130397096 -149.81435193354557 5.0
  endloop
endfacet
facet normal 0.0 0.0 1.0
  outer loop
    vertex 151.51548716735326 -148.56966903620543 5.0
    vertex 152.9995287560805 -156.79307517973444 5.0
    vertex 153.23357130397096 -149.81435193354557 5.0
  endloop
endfacet
facet normal 0.0 0.0 1.0
  outer loop
    vertex 151.61680987261505 -153.04217085581584 5.000000000000006
    vertex 152.9995287560805 -156.79307517973444 5.0
    vertex 151.51548716735326 -148.56966903620543 5.0
  endloop
endfacet
facet normal 0.0 0.0 1.0
  outer loop
    vertex 151.541846690451 -152.47276895659027 5.000000000000006
    vertex 151.61680987261505 -153.04217085581584 5.000000000000006
    vertex 151.51548716735326 -148.56966903620543 5.0
  endloop
endfacet
facet normal 0.0 0.0 1.0
  outer loop
    vertex 151.32206576094083 -151.94217085581585 5.000000000000006
    vertex 151.541846690451 -152.47276895659027 5.000000000000006
    vertex 151.51548716735326 -148.56966903620543 5.0
  endloop
endfacet
facet normal 0.0 0.0 1.0
  outer loop
    vertex 149.8807628227076 -148.23500288719416 5.0
    vertex 151.32206576094083 -151.94217085581585 5.000000000000006
    vertex 151.51548716735326 -148.56966903620543 5.0
  endloop
endfacet
facet normal 0.0 0.0 1.0
  outer loop
    vertex 150.97244479122546 -151.48653593720545 5.000000000000006
    vertex 151.32206576094083 -151.94217085581585 5.000000000000006
    vertex 149.8807628227076 -148.23500288719416 5.0
  endloop
endfacet
facet normal 0.0 0.0 1.0
  outer loop
    vertex 150.51680987261506 -151.13691496749007 5.000000000000006
    vertex 150.97244479122546 -151.48653593720545 5.000000000000006
    vertex 149.8807628227076 -148.23500288719416 5.0
  endloop
endfacet
facet normal 0.0 0.0 1.0
  outer loop
    vertex 149.9862117718406 -150.91713403797988 5.000000000000006
    vertex 150.51680987261506 -151.13691496749007 5.000000000000006
    vertex 149.8807628227076 -148.23500288719416 5.0
  endloop
endfacet
facet normal 0.0 0.0 1.0
  outer loop
    vertex 149.41680987261506 -150.84217085581585 5.000000000000006
    vertex 149.9862117718406 -150.91713403797988 5.000000000000006
    vertex 149.8807628227076 -148.23500288719416 5.0
  endloop
endfacet
facet normal 0.0 0.0 1.0
  outer loop
    vertex 149.8807628227076 -145.8266036660851 5.0
    vertex 149.41680987261506 -150.84217085581585 5.000000000000006
    vertex 149.8807628227076 -148.23500288719416 5.0
  endloop
endfacet
facet normal 0.0 0.0 1.0
  outer loop
    vertex 149.42506075193498 -135.8569054411678 5.0
    vertex 149.41680987261506 -150.84217085581585 5.000000000000006
    vertex 149.8807628227076 -145.8266036660851 5.0
  endloop
endfacet
facet normal 0.0 0.0 1.0
  outer loop
    vertex 149.0956291854981 -145.82634541834645 5.0
    vertex 149.41680987261506 -150.84217085581585 5.000000000000006
    vertex 149.42506075193498 -135.8569054411678 5.0
  endloop
endfacet
facet normal 0.0 0.0 1.0
  outer loop
    vertex 147.52878346775756 -136.2212653132343 5.0
    vertex 149.0956291854981 -145.82634541834645 5.0
    vertex 149.42506075193498 -135.8569054411678 5.0
  endloop
endfacet
facet normal 0.0 0.0 1.0
  outer loop
    vertex 149.09654735814652 -148.2178996525007 5.0
    vertex 149.41680987261506 -150.84217085581585 5.000000000000006
    vertex 149.0956291854981 -145.82634541834645 5.0
  endloop
endfacet
facet normal 0.0 0.0 1.0
  outer loop
    vertex 147.60059204325876 -145.5483963386791 5.0
    vertex 149.0956291854981 -145.82634541834645 5.0
    vertex 147.52878346775756 -136.2212653132343 5.0
  endloop
endfacet
facet normal 0.0 0.0 1.0
  outer loop
    vertex 145.9782523193661 -144.4952031178528 5.0
    vertex 147.60059204325876 -145.5483963386791 5.0
    vertex 147.52878346775756 -136.2212653132343 5.0
  endloop
endfacet
facet normal 0.0 0.0 1.0
  outer loop
    vertex 145.92506083120915 -137.31435221666763 5.0
    vertex 145.9782523193661 -144.4952031178528 5.0
    vertex 147.52878346775756 -136.2212653132343 5.0
  endloop
endfacet
facet normal 0.0 0.0 1.0
  outer loop
    vertex 144.8452717333257 -142.8515871178463 5.0
    vertex 145.9782523193661 -144.4952031178528 5.0
    vertex 145.92506083120915 -137.31435221666763 5.0
  endloop
endfacet
facet normal 0.0 0.0 1.0
  outer loop
    vertex 144.83197392777583 -138.91807485321604 5.0
    vertex 144.8452717333257 -142.8515871178463 5.0
    vertex 145.92506083120915 -137.31435221666763 5.0
  endloop
endfacet
facet normal 0.0 0.0 1.0
  outer loop
    vertex 144.46761405570936 -140.81435213739346 5.0
    vertex 144.8452717333257 -142.8515871178463 5.0
    vertex 144.83197392777583 -138.91807485321604 5.0
  endloop
endfacet
facet normal 0.0 0.0 1.0
  outer loop
    vertex 154.51016701973725 -140.81435213739346 5.0
    vertex 154.19101968654033 -139.01115991759704 5.0
    vertex 154.13250934212087 -142.8515871178463 5.0
  endloop
endfacet
facet normal 0.0 0.0 1.0
  outer loop
    vertex 153.23357130397096 -137.51647987166396 5.0
    vertex 154.13250934212087 -142.8515871178463 5.0
    vertex 154.19101968654033 -139.01115991759704 5.0
  endloop
endfacet
facet normal 0.0 0.0 1.0
  outer loop
    vertex 152.9995287560805 -144.4952031178528 5.0
    vertex 154.13250934212087 -142.8515871178463 5.0
    vertex 153.23357130397096 -137.51647987166396 5.0
  endloop
endfacet
facet normal 0.0 0.0 1.0
  outer loop
    vertex 151.51548716735326 -136.2717969743238 5.0
    vertex 152.9995287560805 -144.4952031178528 5.0
    vertex 153.23357130397096 -137.51647987166396 5.0
  endloop
endfacet
facet normal 0.0 0.0 1.0
  outer loop
    vertex 151.3771890321878 -145.5483963386791 5.0
    vertex 152.9995287560805 -144.4952031178528 5.0
    vertex 151.51548716735326 -136.2717969743238 5.0
  endloop
endfacet
facet normal 0.0 0.0 1.0
  outer loop
    vertex 149.42506075193498 -135.8569054411678 5.0
    vertex 151.3771890321878 -145.5483963386791 5.0
    vertex 151.51548716735326 -136.2717969743238 5.0
  endloop
endfacet
facet normal 0.0 0.0 1.0
  outer loop
    vertex 149.8807628227076 -145.8266036660851 5.0
    vertex 151.3771890321878 -145.5483963386791 5.0
    vertex 149.42506075193498 -135.8569054411678 5.0
  endloop
endfacet
facet normal -0.188693156366719 0.9820360954366011 0.0
  outer loop
    vertex 149.42506075193498 -135.8569054411678 0.0
    vertex 147.52878346775756 -136.2212653132343 0.0
    vertex 149.42506075193498 -135.8569054411678 5.0
  endloop
endfacet
facet normal -0.188693156366719 0.9820360954366011 0.0
  outer loop
    vertex 147.52878346775756 -136.2212653132343 5.0
    vertex 149.42506075193498 -135.8569054411678 5.0
    vertex 147.52878346775756 -136.2212653132343 0.0
  endloop
endfacet
facet normal -0.5632100709577912 0.8263137515325034 0.0
  outer loop
    vertex 147.52878346775756 -136.2212653132343 0.0
    vertex 145.92506083120915 -137.31435221666763 0.0
    vertex 147.52878346775756 -136.2212653132343 5.0
  endloop
endfacet
facet normal -0.5632100709577912 0.8263137515325034 0.0
  outer loop
    vertex 145.92506083120915 -137.31435221666763 5.0
    vertex 147.52878346775756 -136.2212653132343 5.0
    vertex 145.92506083120915 -137.31435221666763 0.0
  endloop
endfacet
facet normal -0.8263137515325023 0.5632100709577929 0.0
  outer loop
    vertex 144.83197392777583 -138.91807485321604 0.0
    vertex 144.83197392777583 -138.91807485321604 5.0
    vertex 145.92506083120915 -137.31435221666763 0.0
  endloop
endfacet
facet normal -0.8263137515325023 0.5632100709577929 0.0
  outer loop
    vertex 145.92506083120915 -137.31435221666763 5.0
    vertex 145.92506083120915 -137.31435221666763 0.0
    vertex 144.83197392777583 -138.91807485321604 5.0
  endloop
endfacet
facet normal -0.9820360954366013 0.18869315636671727 0.0
  outer loop
    vertex 144.46761405570936 -140.81435213739346 0.0
    vertex 144.46761405570936 -140.81435213739346 5.0
    vertex 144.83197392777583 -138.91807485321604 0.0
  endloop
endfacet
facet normal -0.9820360954366013 0.18869315636671727 0.0
  outer loop
    vertex 144.83197392777583 -138.91807485321604 5.0
    vertex 144.83197392777583 -138.91807485321604 0.0
    vertex 144.46761405570936 -140.81435213739346 5.0
  endloop
endfacet
facet normal -0.983248118804648 -0.18227215055274051 0.0
  outer loop
    vertex 144.8452717333257 -142.8515871178463 0.0
    vertex 144.8452717333257 -142.8515871178463 5.0
    vertex 144.46761405570936 -140.81435213739346 0.0
  endloop
endfacet
facet normal -0.983248118804648 -0.18227215055274051 0.0
  outer loop
    vertex 144.46761405570936 -140.81435213739346 5.0
    vertex 144.46761405570936 -140.81435213739346 0.0
    vertex 144.8452717333257 -142.8515871178463 5.0
  endloop
endfacet
facet normal -0.8233409891973751 -0.5675470161206806 0.0
  outer loop
    vertex 145.9782523193661 -144.4952031178528 0.0
    vertex 145.9782523193661 -144.4952031178528 5.0
    vertex 144.8452717333257 -142.8515871178463 0.0
  endloop
endfacet
facet normal -0.8233409891973751 -0.5675470161206806 0.0
  outer loop
    vertex 144.8452717333257 -142.8515871178463 5.0
    vertex 144.8452717333257 -142.8515871178463 0.0
    vertex 145.9782523193661 -144.4952031178528 5.0
  endloop
endfacet
facet normal -0.544505747053787 -0.83875711110273 0.0
  outer loop
    vertex 145.9782523193661 -144.4952031178528 0.0
    vertex 147.60059204325876 -145.5483963386791 0.0
    vertex 145.9782523193661 -144.4952031178528 5.0
  endloop
endfacet
facet normal -0.544505747053787 -0.83875711110273 0.0
  outer loop
    vertex 147.60059204325876 -145.5483963386791 5.0
    vertex 145.9782523193661 -144.4952031178528 5.0
    vertex 147.60059204325876 -145.5483963386791 0.0
  endloop
endfacet
facet normal -0.18440556210201248 -0.9828501089383372 0.0005020216524285312
  outer loop
    vertex 147.60059204325876 -145.5483963386791 0.0
    vertex 149.09654735814652 -145.83162550390463 1.0093490475696075e-05
    vertex 147.60059204325876 -145.5483963386791 5.0
  endloop
endfacet
facet normal -0.18440556210201248 -0.9828501089383372 0.0005020216524285312
  outer loop
    vertex 149.0956291854981 -145.82634541834645 5.0
    vertex 147.60059204325876 -145.5483963386791 5.0
    vertex 149.09654735814652 -145.83162550390463 1.0093490475696075e-05
  endloop
endfacet
facet normal 0.5445057470537883 -0.8387571111027291 0.0
  outer loop
    vertex 151.3771890321878 -145.5483963386791 0.0
    vertex 152.9995287560805 -144.4952031178528 0.0
    vertex 151.3771890321878 -145.5483963386791 5.0
  endloop
endfacet
facet normal 0.5445057470537883 -0.8387571111027291 0.0
  outer loop
    vertex 152.9995287560805 -144.4952031178528 5.0
    vertex 151.3771890321878 -145.5483963386791 5.0
    vertex 152.9995287560805 -144.4952031178528 0.0
  endloop
endfacet
facet normal 0.8233409891973751 -0.5675470161206806 0.0
  outer loop
    vertex 152.9995287560805 -144.4952031178528 5.0
    vertex 152.9995287560805 -144.4952031178528 0.0
    vertex 154.13250934212087 -142.8515871178463 5.0
  endloop
endfacet
facet normal 0.8233409891973751 -0.5675470161206806 0.0
  outer loop
    vertex 154.13250934212087 -142.8515871178463 0.0
    vertex 154.13250934212087 -142.8515871178463 5.0
    vertex 152.9995287560805 -144.4952031178528 0.0
  endloop
endfacet
facet normal 0.983248118804648 -0.18227215055274051 0.0
  outer loop
    vertex 154.13250934212087 -142.8515871178463 5.0
    vertex 154.13250934212087 -142.8515871178463 0.0
    vertex 154.51016701973725 -140.81435213739346 5.0
  endloop
endfacet
facet normal 0.983248118804648 -0.18227215055274051 0.0
  outer loop
    vertex 154.51016701973725 -140.81435213739346 0.0
    vertex 154.51016701973725 -140.81435213739346 5.0
    vertex 154.13250934212087 -142.8515871178463 0.0
  endloop
endfacet
facet normal 0.9846958696342191 0.1742815088450554 0.0
  outer loop
    vertex 154.51016701973725 -140.81435213739346 5.0
    vertex 154.51016701973725 -140.81435213739346 0.0
    vertex 154.19101968654033 -139.01115991759704 5.0
  endloop
endfacet
facet normal 0.9846958696342191 0.1742815088450554 0.0
  outer loop
    vertex 154.19101968654033 -139.01115991759704 0.0
    vertex 154.19101968654033 -139.01115991759704 5.0
    vertex 154.51016701973725 -140.81435213739346 0.0
  endloop
endfacet
facet normal -0.18869315636671224 0.9820360954366024 9.015215803461036e-20
  outer loop
    vertex 147.52878346775756 -148.51913737511592 0.0
    vertex 147.52878346775756 -148.51913737511592 5.0
    vertex 149.09654735814652 -148.2178996525007 5.0467452378480375e-06
  endloop
endfacet
facet normal -0.18869315636671224 0.9820360954366024 9.015215803461036e-20
  outer loop
    vertex 149.09654735814652 -148.2178996525007 5.0
    vertex 149.09654735814652 -148.2178996525007 5.0467452378480375e-06
    vertex 147.52878346775756 -148.51913737511592 5.0
  endloop
endfacet
facet normal -0.5632100709577906 0.8263137515325037 0.0
  outer loop
    vertex 147.52878346775756 -148.51913737511592 0.0
    vertex 145.92506083120915 -149.61222427854923 0.0
    vertex 147.52878346775756 -148.51913737511592 5.0
  endloop
endfacet
facet normal -0.5632100709577906 0.8263137515325037 0.0
  outer loop
    vertex 145.92506083120915 -149.61222427854923 5.0
    vertex 147.52878346775756 -148.51913737511592 5.0
    vertex 145.92506083120915 -149.61222427854923 0.0
  endloop
endfacet
facet normal 0.6087614290087049 -0.7933533402912475 0.0
  outer loop
    vertex 147.86117495400467 -151.48653593720542 2.900000000000006
    vertex 148.31680987261507 -151.13691496749007 2.900000000000006
    vertex 147.86117495400467 -151.48653593720542 5.000000000000006
  endloop
endfacet
facet normal 0.6087614290087049 -0.7933533402912475 0.0
  outer loop
    vertex 148.31680987261507 -151.13691496749007 5.000000000000006
    vertex 147.86117495400467 -151.48653593720542 5.000000000000006
    vertex 148.31680987261507 -151.13691496749007 2.900000000000006
  endloop
endfacet
facet normal -0.1305261922200586 0.9914448613738096 0.0
  outer loop
    vertex 149.9862117718406 -155.16720767365177 2.900000000000006
    vertex 149.41680987261506 -155.24217085581583 2.900000000000006
    vertex 149.9862117718406 -155.16720767365177 5.000000000000006
  endloop
endfacet
facet normal -0.1305261922200586 0.9914448613738096 0.0
  outer loop
    vertex 149.41680987261506 -155.24217085581583 5.000000000000006
    vertex 149.9862117718406 -155.16720767365177 5.000000000000006
    vertex 149.41680987261506 -155.24217085581583 2.900000000000006
  endloop
endfacet
facet normal 0.1305261922200586 0.9914448613738096 0.0
  outer loop
    vertex 149.41680987261506 -155.24217085581583 2.900000000000006
    vertex 148.84740797338952 -155.16720767365177 2.900000000000006
    vertex 149.41680987261506 -155.24217085581583 5.000000000000006
  endloop
endfacet
facet normal 0.1305261922200586 0.9914448613738096 0.0
  outer loop
    vertex 148.84740797338952 -155.16720767365177 5.000000000000006
    vertex 149.41680987261506 -155.24217085581583 5.000000000000006
    vertex 148.84740797338952 -155.16720767365177 2.900000000000006
  endloop
endfacet
facet normal 0.3826834323650871 0.923879532511288 0.0
  outer loop
    vertex 148.84740797338952 -155.16720767365177 2.900000000000006
    vertex 148.31680987261507 -154.94742674414158 2.900000000000006
    vertex 148.84740797338952 -155.16720767365177 5.000000000000006
  endloop
endfacet
facet normal 0.3826834323650871 0.923879532511288 0.0
  outer loop
    vertex 148.31680987261507 -154.94742674414158 5.000000000000006
    vertex 148.84740797338952 -155.16720767365177 5.000000000000006
    vertex 148.31680987261507 -154.94742674414158 2.900000000000006
  endloop
endfacet
facet normal -0.7933533402912258 -0.6087614290087329 0.0
  outer loop
    vertex 151.32206576094083 -151.94217085581585 2.900000000000006
    vertex 151.32206576094083 -151.94217085581585 5.000000000000006
    vertex 150.97244479122546 -151.48653593720545 2.900000000000006
  endloop
endfacet
facet normal -0.7933533402912258 -0.6087614290087329 0.0
  outer loop
    vertex 150.97244479122546 -151.48653593720545 5.000000000000006
    vertex 150.97244479122546 -151.48653593720545 2.900000000000006
    vertex 151.32206576094083 -151.94217085581585 5.000000000000006
  endloop
endfacet
facet normal 0.7933533402912453 -0.6087614290087077 0.0
  outer loop
    vertex 147.5115539842893 -151.94217085581585 5.000000000000006
    vertex 147.5115539842893 -151.94217085581585 2.900000000000006
    vertex 147.86117495400467 -151.48653593720542 5.000000000000006
  endloop
endfacet
facet normal 0.7933533402912453 -0.6087614290087077 0.0
  outer loop
    vertex 147.86117495400467 -151.48653593720542 2.900000000000006
    vertex 147.86117495400467 -151.48653593720542 5.000000000000006
    vertex 147.5115539842893 -151.94217085581585 2.900000000000006
  endloop
endfacet
facet normal -0.9238795325112817 0.38268343236510244 0.0
  outer loop
    vertex 151.32206576094083 -154.14217085581583 2.900000000000006
    vertex 151.32206576094083 -154.14217085581583 5.000000000000006
    vertex 151.541846690451 -153.61157275504138 2.900000000000006
  endloop
endfacet
facet normal -0.9238795325112817 0.38268343236510244 0.0
  outer loop
    vertex 151.541846690451 -153.61157275504138 5.000000000000006
    vertex 151.541846690451 -153.61157275504138 2.900000000000006
    vertex 151.32206576094083 -154.14217085581583 5.000000000000006
  endloop
endfacet
facet normal -0.9914448613738113 0.1305261922200464 0.0
  outer loop
    vertex 151.541846690451 -153.61157275504138 2.900000000000006
    vertex 151.541846690451 -153.61157275504138 5.000000000000006
    vertex 151.61680987261505 -153.04217085581584 2.900000000000006
  endloop
endfacet
facet normal -0.9914448613738113 0.1305261922200464 0.0
  outer loop
    vertex 151.61680987261505 -153.04217085581584 5.000000000000006
    vertex 151.61680987261505 -153.04217085581584 2.900000000000006
    vertex 151.541846690451 -153.61157275504138 5.000000000000006
  endloop
endfacet
facet normal 0.1305261922200586 -0.9914448613738096 0.0
  outer loop
    vertex 148.84740797338952 -150.91713403797988 2.900000000000006
    vertex 149.41680987261506 -150.84217085581585 2.900000000000006
    vertex 148.84740797338952 -150.91713403797988 5.000000000000006
  endloop
endfacet
facet normal 0.1305261922200586 -0.9914448613738096 0.0
  outer loop
    vertex 149.41680987261506 -150.84217085581585 5.000000000000006
    vertex 148.84740797338952 -150.91713403797988 5.000000000000006
    vertex 149.41680987261506 -150.84217085581585 2.900000000000006
  endloop
endfacet
facet normal -0.9238795325112851 -0.382683432365094 0.0
  outer loop
    vertex 151.541846690451 -152.47276895659027 2.900000000000006
    vertex 151.541846690451 -152.47276895659027 5.000000000000006
    vertex 151.32206576094083 -151.94217085581585 2.900000000000006
  endloop
endfacet
facet normal -0.9238795325112851 -0.382683432365094 0.0
  outer loop
    vertex 151.32206576094083 -151.94217085581585 5.000000000000006
    vertex 151.32206576094083 -151.94217085581585 2.900000000000006
    vertex 151.541846690451 -152.47276895659027 5.000000000000006
  endloop
endfacet
facet normal -0.6087614290087295 -0.7933533402912283 0.0
  outer loop
    vertex 150.51680987261506 -151.13691496749007 2.900000000000006
    vertex 150.97244479122546 -151.48653593720545 2.900000000000006
    vertex 150.51680987261506 -151.13691496749007 5.000000000000006
  endloop
endfacet
facet normal -0.6087614290087295 -0.7933533402912283 0.0
  outer loop
    vertex 150.97244479122546 -151.48653593720545 5.000000000000006
    vertex 150.51680987261506 -151.13691496749007 5.000000000000006
    vertex 150.97244479122546 -151.48653593720545 2.900000000000006
  endloop
endfacet
facet normal -0.3826834323650871 -0.923879532511288 0.0
  outer loop
    vertex 149.9862117718406 -150.91713403797988 2.900000000000006
    vertex 150.51680987261506 -151.13691496749007 2.900000000000006
    vertex 149.9862117718406 -150.91713403797988 5.000000000000006
  endloop
endfacet
facet normal -0.3826834323650871 -0.923879532511288 0.0
  outer loop
    vertex 150.51680987261506 -151.13691496749007 5.000000000000006
    vertex 149.9862117718406 -150.91713403797988 5.000000000000006
    vertex 150.51680987261506 -151.13691496749007 2.900000000000006
  endloop
endfacet
facet normal 0.9914448613738099 -0.13052619222005604 0.0
  outer loop
    vertex 147.21680987261507 -153.04217085581584 5.000000000000006
    vertex 147.21680987261507 -153.04217085581584 2.900000000000006
    vertex 147.29177305477913 -152.47276895659027 5.000000000000006
  endloop
endfacet
facet normal 0.9914448613738099 -0.13052619222005604 0.0
  outer loop
    vertex 147.29177305477913 -152.47276895659027 2.900000000000006
    vertex 147.29177305477913 -152.47276895659027 5.000000000000006
    vertex 147.21680987261507 -153.04217085581584 2.900000000000006
  endloop
endfacet
facet normal 0.9238795325112851 -0.382683432365094 0.0
  outer loop
    vertex 147.29177305477913 -152.47276895659027 5.000000000000006
    vertex 147.29177305477913 -152.47276895659027 2.900000000000006
    vertex 147.5115539842893 -151.94217085581585 5.000000000000006
  endloop
endfacet
facet normal 0.9238795325112851 -0.382683432365094 0.0
  outer loop
    vertex 147.5115539842893 -151.94217085581585 2.900000000000006
    vertex 147.5115539842893 -151.94217085581585 5.000000000000006
    vertex 147.29177305477913 -152.47276895659027 2.900000000000006
  endloop
endfacet
facet normal 0.9914448613738099 0.13052619222005604 0.0
  outer loop
    vertex 147.29177305477913 -153.61157275504138 5.000000000000006
    vertex 147.29177305477913 -153.61157275504138 2.900000000000006
    vertex 147.21680987261507 -153.04217085581584 5.000000000000006
  endloop
endfacet
facet normal 0.9914448613738099 0.13052619222005604 0.0
  outer loop
    vertex 147.21680987261507 -153.04217085581584 2.900000000000006
    vertex 147.21680987261507 -153.04217085581584 5.000000000000006
    vertex 147.29177305477913 -153.61157275504138 2.900000000000006
  endloop
endfacet
facet normal 0.9238795325112851 0.382683432365094 0.0
  outer loop
    vertex 147.5115539842893 -154.14217085581583 5.000000000000006
    vertex 147.5115539842893 -154.14217085581583 2.900000000000006
    vertex 147.29177305477913 -153.61157275504138 5.000000000000006
  endloop
endfacet
facet normal 0.9238795325112851 0.382683432365094 0.0
  outer loop
    vertex 147.29177305477913 -153.61157275504138 2.900000000000006
    vertex 147.29177305477913 -153.61157275504138 5.000000000000006
    vertex 147.5115539842893 -154.14217085581583 2.900000000000006
  endloop
endfacet
facet normal -0.1305261922200586 -0.9914448613738096 0.0
  outer loop
    vertex 149.41680987261506 -150.84217085581585 2.900000000000006
    vertex 149.9862117718406 -150.91713403797988 2.900000000000006
    vertex 149.41680987261506 -150.84217085581585 5.000000000000006
  endloop
endfacet
facet normal -0.1305261922200586 -0.9914448613738096 0.0
  outer loop
    vertex 149.9862117718406 -150.91713403797988 5.000000000000006
    vertex 149.41680987261506 -150.84217085581585 5.000000000000006
    vertex 149.9862117718406 -150.91713403797988 2.900000000000006
  endloop
endfacet
facet normal 0.7933533402912306 0.6087614290087267 0.0
  outer loop
    vertex 147.86117495400467 -154.59780577442623 5.000000000000006
    vertex 147.86117495400467 -154.59780577442623 2.900000000000006
    vertex 147.5115539842893 -154.14217085581583 5.000000000000006
  endloop
endfacet
facet normal 0.7933533402912306 0.6087614290087267 0.0
  outer loop
    vertex 147.5115539842893 -154.14217085581583 2.900000000000006
    vertex 147.5115539842893 -154.14217085581583 5.000000000000006
    vertex 147.86117495400467 -154.59780577442623 2.900000000000006
  endloop
endfacet
facet normal 0.6087614290087295 0.7933533402912283 0.0
  outer loop
    vertex 148.31680987261507 -154.94742674414158 2.900000000000006
    vertex 147.86117495400467 -154.59780577442623 2.900000000000006
    vertex 148.31680987261507 -154.94742674414158 5.000000000000006
  endloop
endfacet
facet normal 0.6087614290087295 0.7933533402912283 0.0
  outer loop
    vertex 147.86117495400467 -154.59780577442623 5.000000000000006
    vertex 148.31680987261507 -154.94742674414158 5.000000000000006
    vertex 147.86117495400467 -154.59780577442623 2.900000000000006
  endloop
endfacet
facet normal -0.3826834323650871 0.923879532511288 0.0
  outer loop
    vertex 150.51680987261506 -154.94742674414158 2.900000000000006
    vertex 149.9862117718406 -155.16720767365177 2.900000000000006
    vertex 150.51680987261506 -154.94742674414158 5.000000000000006
  endloop
endfacet
facet normal -0.3826834323650871 0.923879532511288 0.0
  outer loop
    vertex 149.9862117718406 -155.16720767365177 5.000000000000006
    vertex 150.51680987261506 -154.94742674414158 5.000000000000006
    vertex 149.9862117718406 -155.16720767365177 2.900000000000006
  endloop
endfacet
facet normal -0.6087614290087049 0.7933533402912475 0.0
  outer loop
    vertex 150.97244479122546 -154.59780577442623 2.900000000000006
    vertex 150.51680987261506 -154.94742674414158 2.900000000000006
    vertex 150.97244479122546 -154.59780577442623 5.000000000000006
  endloop
endfacet
facet normal -0.6087614290087049 0.7933533402912475 0.0
  outer loop
    vertex 150.51680987261506 -154.94742674414158 5.000000000000006
    vertex 150.97244479122546 -154.59780577442623 5.000000000000006
    vertex 150.51680987261506 -154.94742674414158 2.900000000000006
  endloop
endfacet
facet normal -0.7933533402912453 0.6087614290087077 0.0
  outer loop
    vertex 150.97244479122546 -154.59780577442623 2.900000000000006
    vertex 150.97244479122546 -154.59780577442623 5.000000000000006
    vertex 151.32206576094083 -154.14217085581583 2.900000000000006
  endloop
endfacet
facet normal -0.7933533402912453 0.6087614290087077 0.0
  outer loop
    vertex 151.32206576094083 -154.14217085581583 5.000000000000006
    vertex 151.32206576094083 -154.14217085581583 2.900000000000006
    vertex 150.97244479122546 -154.59780577442623 5.000000000000006
  endloop
endfacet
facet normal 0.3826834323650871 -0.923879532511288 0.0
  outer loop
    vertex 148.31680987261507 -151.13691496749007 2.900000000000006
    vertex 148.84740797338952 -150.91713403797988 2.900000000000006
    vertex 148.31680987261507 -151.13691496749007 5.000000000000006
  endloop
endfacet
facet normal 0.3826834323650871 -0.923879532511288 0.0
  outer loop
    vertex 148.84740797338952 -150.91713403797988 5.000000000000006
    vertex 148.31680987261507 -151.13691496749007 5.000000000000006
    vertex 148.84740797338952 -150.91713403797988 2.900000000000006
  endloop
endfacet
facet normal -0.9914448613738113 -0.1305261922200464 0.0
  outer loop
    vertex 151.61680987261505 -153.04217085581584 2.900000000000006
    vertex 151.61680987261505 -153.04217085581584 5.000000000000006
    vertex 151.541846690451 -152.47276895659027 2.900000000000006
  endloop
endfacet
facet normal -0.9914448613738113 -0.1305261922200464 0.0
  outer loop
    vertex 151.541846690451 -152.47276895659027 5.000000000000006
    vertex 151.541846690451 -152.47276895659027 2.900000000000006
    vertex 151.61680987261505 -153.04217085581584 5.000000000000006
  endloop
endfacet
facet normal 0.0 0.0 1.0
  outer loop
    vertex 151.61680987261505 -153.04217085581584 2.900000000000006
    vertex 151.541846690451 -152.47276895659027 2.900000000000006
    vertex 151.541846690451 -153.61157275504138 2.900000000000006
  endloop
endfacet
facet normal 0.0 0.0 1.0
  outer loop
    vertex 151.32206576094083 -154.14217085581583 2.900000000000006
    vertex 151.541846690451 -153.61157275504138 2.900000000000006
    vertex 151.541846690451 -152.47276895659027 2.900000000000006
  endloop
endfacet
facet normal 0.0 0.0 1.0
  outer loop
    vertex 151.32206576094083 -151.94217085581585 2.900000000000006
    vertex 151.32206576094083 -154.14217085581583 2.900000000000006
    vertex 151.541846690451 -152.47276895659027 2.900000000000006
  endloop
endfacet
facet normal 0.0 0.0 1.0
  outer loop
    vertex 150.97244479122546 -154.59780577442623 2.900000000000006
    vertex 151.32206576094083 -154.14217085581583 2.900000000000006
    vertex 151.32206576094083 -151.94217085581585 2.900000000000006
  endloop
endfacet
facet normal 0.0 0.0 1.0
  outer loop
    vertex 150.97244479122546 -151.48653593720545 2.900000000000006
    vertex 150.97244479122546 -154.59780577442623 2.900000000000006
    vertex 151.32206576094083 -151.94217085581585 2.900000000000006
  endloop
endfacet
facet normal 0.0 0.0 1.0
  outer loop
    vertex 150.51680987261506 -154.94742674414158 2.900000000000006
    vertex 150.97244479122546 -154.59780577442623 2.900000000000006
    vertex 150.97244479122546 -151.48653593720545 2.900000000000006
  endloop
endfacet
facet normal 0.0 0.0 1.0
  outer loop
    vertex 150.51680987261506 -151.13691496749007 2.900000000000006
    vertex 150.51680987261506 -154.94742674414158 2.900000000000006
    vertex 150.97244479122546 -151.48653593720545 2.900000000000006
  endloop
endfacet
facet normal 0.0 0.0 1.0
  outer loop
    vertex 149.9862117718406 -155.16720767365177 2.900000000000006
    vertex 150.51680987261506 -154.94742674414158 2.900000000000006
    vertex 150.51680987261506 -151.13691496749007 2.900000000000006
  endloop
endfacet
facet normal 0.0 0.0 1.0
  outer loop
    vertex 149.9862117718406 -150.91713403797988 2.900000000000006
    vertex 149.9862117718406 -155.16720767365177 2.900000000000006
    vertex 150.51680987261506 -151.13691496749007 2.900000000000006
  endloop
endfacet
facet normal 0.0 0.0 1.0
  outer loop
    vertex 149.41680987261506 -155.24217085581583 2.900000000000006
    vertex 149.9862117718406 -155.16720767365177 2.900000000000006
    vertex 149.9862117718406 -150.91713403797988 2.900000000000006
  endloop
endfacet
facet normal 0.0 0.0 1.0
  outer loop
    vertex 149.41680987261506 -150.84217085581585 2.900000000000006
    vertex 149.41680987261506 -155.24217085581583 2.900000000000006
    vertex 149.9862117718406 -150.91713403797988 2.900000000000006
  endloop
endfacet
facet normal 0.0 0.0 1.0
  outer loop
    vertex 148.84740797338952 -155.16720767365177 2.900000000000006
    vertex 149.41680987261506 -155.24217085581583 2.900000000000006
    vertex 149.41680987261506 -150.84217085581585 2.900000000000006
  endloop
endfacet
facet normal 0.0 0.0 1.0
  outer loop
    vertex 148.84740797338952 -150.91713403797988 2.900000000000006
    vertex 148.84740797338952 -155.16720767365177 2.900000000000006
    vertex 149.41680987261506 -150.84217085581585 2.900000000000006
  endloop
endfacet
facet normal 0.0 0.0 1.0
  outer loop
    vertex 148.31680987261507 -154.94742674414158 2.900000000000006
    vertex 148.84740797338952 -155.16720767365177 2.900000000000006
    vertex 148.84740797338952 -150.91713403797988 2.900000000000006
  endloop
endfacet
facet normal 0.0 0.0 1.0
  outer loop
    vertex 148.31680987261507 -151.13691496749007 2.900000000000006
    vertex 148.31680987261507 -154.94742674414158 2.900000000000006
    vertex 148.84740797338952 -150.91713403797988 2.900000000000006
  endloop
endfacet
facet normal 0.0 0.0 1.0
  outer loop
    vertex 147.86117495400467 -154.59780577442623 2.900000000000006
    vertex 148.31680987261507 -154.94742674414158 2.900000000000006
    vertex 148.31680987261507 -151.13691496749007 2.900000000000006
  endloop
endfacet
facet normal 0.0 0.0 1.0
  outer loop
    vertex 147.86117495400467 -151.48653593720542 2.900000000000006
    vertex 147.86117495400467 -154.59780577442623 2.900000000000006
    vertex 148.31680987261507 -151.13691496749007 2.900000000000006
  endloop
endfacet
facet normal 0.0 0.0 1.0
  outer loop
    vertex 147.5115539842893 -154.14217085581583 2.900000000000006
    vertex 147.86117495400467 -154.59780577442623 2.900000000000006
    vertex 147.86117495400467 -151.48653593720542 2.900000000000006
  endloop
endfacet
facet normal 0.0 0.0 1.0
  outer loop
    vertex 147.5115539842893 -151.94217085581585 2.900000000000006
    vertex 147.5115539842893 -154.14217085581583 2.900000000000006
    vertex 147.86117495400467 -151.48653593720542 2.900000000000006
  endloop
endfacet
facet normal 0.0 0.0 1.0
  outer loop
    vertex 147.29177305477913 -153.61157275504138 2.900000000000006
    vertex 147.5115539842893 -154.14217085581583 2.900000000000006
    vertex 147.5115539842893 -151.94217085581585 2.900000000000006
  endloop
endfacet
facet normal 0.0 0.0 1.0
  outer loop
    vertex 147.29177305477913 -152.47276895659027 2.900000000000006
    vertex 147.29177305477913 -153.61157275504138 2.900000000000006
    vertex 147.5115539842893 -151.94217085581585 2.900000000000006
  endloop
endfacet
facet normal 0.0 0.0 1.0
  outer loop
    vertex 147.21680987261507 -153.04217085581584 2.900000000000006
    vertex 147.29177305477913 -153.61157275504138 2.900000000000006
    vertex 147.29177305477913 -152.47276895659027 2.900000000000006
  endloop
endfacet
facet normal 0.1827824671231815 -0.9831533805629532 0.0
  outer loop
    vertex 149.8807628227076 -145.8266036660851 0.0
    vertex 151.3771890321878 -145.5483963386791 0.0
    vertex 149.8807628227076 -145.8266036660851 5.0
  endloop
endfacet
facet normal 0.1827824671231815 -0.9831533805629532 0.0
  outer loop
    vertex 151.3771890321878 -145.5483963386791 5.0
    vertex 149.8807628227076 -145.8266036660851 5.0
    vertex 151.3771890321878 -145.5483963386791 0.0
  endloop
endfacet
facet normal 0.19762180132179202 0.9802778280594422 -0.0010017272048634344
  outer loop
    vertex 151.51548716735326 -148.56966903620543 0.0
    vertex 149.8807628227076 -148.24522169635406 0.0
    vertex 151.51548716735326 -148.56966903620543 5.0
  endloop
endfacet
facet normal 0.19762180132179202 0.9802778280594422 -0.0010017272048634344
  outer loop
    vertex 149.8807628227076 -148.23500288719416 5.0
    vertex 151.51548716735326 -148.56966903620543 5.0
    vertex 149.8807628227076 -148.24522169635406 0.0
  endloop
endfacet
facet normal 0.19762180132179202 0.9802778280594422 -0.0010017272048634344
  outer loop
    vertex 151.51548716735326 -148.56966903620543 0.0
    vertex 149.8807628227076 -148.24522169635406 0.0
    vertex 151.51548716735326 -148.56966903620543 5.0
  endloop
endfacet
facet normal 0.19762180132179202 0.9802778280594422 -0.0010017272048634344
  outer loop
    vertex 149.8807628227076 -148.23500288719416 5.0
    vertex 151.51548716735326 -148.56966903620543 5.0
    vertex 149.8807628227076 -148.24522169635406 0.0
  endloop
endfacet
facet normal 1.0 0.0 0.0
  outer loop
    vertex 149.8807628227076 -148.24522169635406 0.0
    vertex 149.8807628227076 -145.8266036660851 0.0
    vertex 149.8807628227076 -148.23500288719416 5.0
  endloop
endfacet
facet normal 1.0 0.0 0.0
  outer loop
    vertex 149.8807628227076 -145.8266036660851 5.0
    vertex 149.8807628227076 -148.23500288719416 5.0
    vertex 149.8807628227076 -145.8266036660851 0.0
  endloop
endfacet
facet normal -0.1844055621020125 -0.9828501089383372 0.0005020216524285331
  outer loop
    vertex 147.60059204325876 -145.5483963386791 0.0
    vertex 149.09654735814652 -145.83162550390463 1.0093490475696075e-05
    vertex 147.60059204325876 -145.5483963386791 5.0
  endloop
endfacet
facet normal -0.1844055621020125 -0.9828501089383372 0.0005020216524285331
  outer loop
    vertex 149.0956291854981 -145.82634541834645 5.0
    vertex 147.60059204325876 -145.5483963386791 5.0
    vertex 149.09654735814652 -145.83162550390463 1.0093490475696075e-05
  endloop
endfacet
facet normal -0.1844055621020125 -0.9828501089383372 0.0005020216524285331
  outer loop
    vertex 147.60059204325876 -145.5483963386791 0.0
    vertex 149.09654735814652 -145.83162550390463 1.0093490475696075e-05
    vertex 147.60059204325876 -145.5483963386791 5.0
  endloop
endfacet
facet normal -0.1844055621020125 -0.9828501089383372 0.0005020216524285331
  outer loop
    vertex 149.0956291854981 -145.82634541834645 5.0
    vertex 147.60059204325876 -145.5483963386791 5.0
    vertex 149.09654735814652 -145.83162550390463 1.0093490475696075e-05
  endloop
endfacet
facet normal -0.9999999772879843 -0.0001923856745556773 -9.171577399527335e-05
  outer loop
    vertex 149.09654735814652 -148.2178996525007 5.0467452378480375e-06
    vertex 149.09654735814652 -148.2178996525007 5.0
    vertex 149.09654735814652 -145.83162550390463 1.0093490475696075e-05
  endloop
endfacet
facet normal -0.9999999772879843 -0.0001923856745556773 -9.171577399527335e-05
  outer loop
    vertex 149.0956291854981 -145.82634541834645 5.0
    vertex 149.09654735814652 -145.83162550390463 1.0093490475696075e-05
    vertex 149.09654735814652 -148.2178996525007 5.0
  endloop
endfacet
endsolid ABC
