solid ABC
facet normal 0.0 0.0 1.0
  outer loop
    vertex 168.8027179992058 -155.16541654638777 5.0
    vertex 168.8027179992058 -151.16541472209326 5.0
    vertex 168.42506032158946 -153.17605398506336 5.0
  endloop
endfacet
facet normal 0.0 0.0 1.0
  outer loop
    vertex 168.8027179992058 -151.16541472209326 5.0
    vertex 168.8027179992058 -155.16541654638777 5.0
    vertex 169.9356985852462 -156.79307517973444 5.0
  endloop
endfacet
facet normal 0.0 0.0 1.0
  outer loop
    vertex 168.8027179992058 -151.16541472209326 5.0
    vertex 169.9356985852462 -156.79307517973444 5.0
    vertex 169.9356985852462 -149.5590327903923 5.0
  endloop
endfacet
facet normal 0.0 0.0 1.0
  outer loop
    vertex 169.9356985852462 -149.5590327903923 5.0
    vertex 169.9356985852462 -156.79307517973444 5.0
    vertex 171.55803830913888 -157.8462684005607 5.0
  endloop
endfacet
facet normal 0.0 0.0 1.0
  outer loop
    vertex 169.9356985852462 -149.5590327903923 5.0
    vertex 171.55803830913888 -157.8462684005607 5.0
    vertex 171.08711351470515 -153.31403185691596 4.999999999999995
  endloop
endfacet
facet normal 0.0 0.0 1.0
  outer loop
    vertex 171.08711351470515 -153.31403185691596 4.999999999999995
    vertex 171.55803830913888 -157.8462684005607 5.0
    vertex 171.1620766968692 -153.8834337561415 4.999999999999995
  endloop
endfacet
facet normal 0.0 0.0 1.0
  outer loop
    vertex 171.1620766968692 -153.8834337561415 4.999999999999995
    vertex 171.55803830913888 -157.8462684005607 5.0
    vertex 171.3818576263794 -154.41403185691595 4.999999999999995
  endloop
endfacet
facet normal 0.0 0.0 1.0
  outer loop
    vertex 171.3818576263794 -154.41403185691595 4.999999999999995
    vertex 171.55803830913888 -157.8462684005607 5.0
    vertex 171.73147859609475 -154.86966677552638 4.999999999999995
  endloop
endfacet
facet normal 0.0 0.0 1.0
  outer loop
    vertex 171.73147859609475 -154.86966677552638 4.999999999999995
    vertex 171.55803830913888 -157.8462684005607 5.0
    vertex 173.4463368036034 -158.1973304670773 5.0
  endloop
endfacet
facet normal 0.0 0.0 1.0
  outer loop
    vertex 171.73147859609475 -154.86966677552638 4.999999999999995
    vertex 173.4463368036034 -158.1973304670773 5.0
    vertex 172.18711351470515 -155.21928774524173 4.999999999999995
  endloop
endfacet
facet normal 0.0 0.0 1.0
  outer loop
    vertex 172.18711351470515 -155.21928774524173 4.999999999999995
    vertex 173.4463368036034 -158.1973304670773 5.0
    vertex 172.71771161547963 -155.4390686747519 4.999999999999995
  endloop
endfacet
facet normal 0.0 0.0 1.0
  outer loop
    vertex 172.71771161547963 -155.4390686747519 4.999999999999995
    vertex 173.4463368036034 -158.1973304670773 5.0
    vertex 173.28711351470514 -155.51403185691595 4.999999999999995
  endloop
endfacet
facet normal 0.0 0.0 1.0
  outer loop
    vertex 173.28711351470514 -155.51403185691595 4.999999999999995
    vertex 173.4463368036034 -158.1973304670773 5.0
    vertex 173.85651541393068 -155.4390686747519 4.999999999999995
  endloop
endfacet
facet normal 0.0 0.0 1.0
  outer loop
    vertex 173.85651541393068 -155.4390686747519 4.999999999999995
    vertex 173.4463368036034 -158.1973304670773 5.0
    vertex 175.33463529806792 -157.8462684005607 5.0
  endloop
endfacet
facet normal 0.0 0.0 1.0
  outer loop
    vertex 173.85651541393068 -155.4390686747519 4.999999999999995
    vertex 175.33463529806792 -157.8462684005607 5.0
    vertex 174.38711351470513 -155.21928774524173 4.999999999999995
  endloop
endfacet
facet normal 0.0 0.0 1.0
  outer loop
    vertex 174.38711351470513 -155.21928774524173 4.999999999999995
    vertex 175.33463529806792 -157.8462684005607 5.0
    vertex 174.84274843331553 -154.86966677552635 4.999999999999995
  endloop
endfacet
facet normal 0.0 0.0 1.0
  outer loop
    vertex 174.84274843331553 -154.86966677552635 4.999999999999995
    vertex 175.33463529806792 -157.8462684005607 5.0
    vertex 175.1923694030309 -154.41403185691595 4.999999999999995
  endloop
endfacet
facet normal 0.0 0.0 1.0
  outer loop
    vertex 175.1923694030309 -154.41403185691595 4.999999999999995
    vertex 175.33463529806792 -157.8462684005607 5.0
    vertex 175.4121503325411 -153.8834337561415 4.999999999999995
  endloop
endfacet
facet normal 0.0 0.0 1.0
  outer loop
    vertex 175.4121503325411 -153.8834337561415 4.999999999999995
    vertex 175.33463529806792 -157.8462684005607 5.0
    vertex 176.9569750219606 -156.79307517973444 5.0
  endloop
endfacet
facet normal 0.0 0.0 1.0
  outer loop
    vertex 175.4121503325411 -153.8834337561415 4.999999999999995
    vertex 176.9569750219606 -156.79307517973444 5.0
    vertex 175.48711351470513 -153.31403185691596 4.999999999999995
  endloop
endfacet
facet normal 0.0 0.0 1.0
  outer loop
    vertex 171.08711351470515 -153.31403185691596 4.999999999999995
    vertex 171.55803830913888 -148.51647792038892 5.0
    vertex 169.9356985852462 -149.5590327903923 5.0
  endloop
endfacet
facet normal 0.0 0.0 1.0
  outer loop
    vertex 171.55803830913888 -148.51647792038892 5.0
    vertex 171.08711351470515 -153.31403185691596 4.999999999999995
    vertex 171.1620766968692 -152.74462995769042 4.999999999999995
  endloop
endfacet
facet normal 0.0 0.0 1.0
  outer loop
    vertex 171.55803830913888 -148.51647792038892 5.0
    vertex 171.1620766968692 -152.74462995769042 4.999999999999995
    vertex 171.3818576263794 -152.21403185691597 4.999999999999995
  endloop
endfacet
facet normal 0.0 0.0 1.0
  outer loop
    vertex 171.55803830913888 -148.51647792038892 5.0
    vertex 171.3818576263794 -152.21403185691597 4.999999999999995
    vertex 171.73147859609475 -151.75839693830557 4.999999999999995
  endloop
endfacet
facet normal 0.0 0.0 1.0
  outer loop
    vertex 171.55803830913888 -148.51647792038892 5.0
    vertex 171.73147859609475 -151.75839693830557 4.999999999999995
    vertex 173.4463368036034 -148.15477750304944 5.0
  endloop
endfacet
facet normal 0.0 0.0 1.0
  outer loop
    vertex 173.4463368036034 -148.15477750304944 5.0
    vertex 171.73147859609475 -151.75839693830557 4.999999999999995
    vertex 172.18711351470515 -151.4087759685902 4.999999999999995
  endloop
endfacet
facet normal 0.0 0.0 1.0
  outer loop
    vertex 173.4463368036034 -148.15477750304944 5.0
    vertex 172.18711351470515 -151.4087759685902 4.999999999999995
    vertex 172.71771161547963 -151.18899503908003 4.999999999999995
  endloop
endfacet
facet normal 0.0 0.0 1.0
  outer loop
    vertex 173.4463368036034 -148.15477750304944 5.0
    vertex 172.71771161547963 -151.18899503908003 4.999999999999995
    vertex 173.28711351470514 -151.11403185691597 4.999999999999995
  endloop
endfacet
facet normal 0.0 0.0 1.0
  outer loop
    vertex 173.4463368036034 -148.15477750304944 5.0
    vertex 173.28711351470514 -151.11403185691597 4.999999999999995
    vertex 173.85651541393068 -151.18899503908003 4.999999999999995
  endloop
endfacet
facet normal 0.0 0.0 1.0
  outer loop
    vertex 173.4463368036034 -148.15477750304944 5.0
    vertex 173.85651541393068 -151.18899503908003 4.999999999999995
    vertex 175.33463529806792 -148.50583956956604 5.0
  endloop
endfacet
facet normal 0.0 0.0 1.0
  outer loop
    vertex 175.33463529806792 -148.50583956956604 5.0
    vertex 173.85651541393068 -151.18899503908003 4.999999999999995
    vertex 174.38711351470513 -151.4087759685902 4.999999999999995
  endloop
endfacet
facet normal 0.0 0.0 1.0
  outer loop
    vertex 175.33463529806792 -148.50583956956604 5.0
    vertex 174.38711351470513 -151.4087759685902 4.999999999999995
    vertex 174.84274843331553 -151.75839693830554 4.999999999999995
  endloop
endfacet
facet normal 0.0 0.0 1.0
  outer loop
    vertex 175.33463529806792 -148.50583956956604 5.0
    vertex 174.84274843331553 -151.75839693830554 4.999999999999995
    vertex 175.1923694030309 -152.21403185691597 4.999999999999995
  endloop
endfacet
facet normal 0.0 0.0 1.0
  outer loop
    vertex 175.33463529806792 -148.50583956956604 5.0
    vertex 175.1923694030309 -152.21403185691597 4.999999999999995
    vertex 175.4121503325411 -152.74462995769042 4.999999999999995
  endloop
endfacet
facet normal 0.0 0.0 1.0
  outer loop
    vertex 175.33463529806792 -148.50583956956604 5.0
    vertex 175.4121503325411 -152.74462995769042 4.999999999999995
    vertex 176.9569750219606 -149.5590327903923 5.0
  endloop
endfacet
facet normal 0.0 0.0 1.0
  outer loop
    vertex 176.9569750219606 -149.5590327903923 5.0
    vertex 175.4121503325411 -152.74462995769042 4.999999999999995
    vertex 175.48711351470513 -153.31403185691596 4.999999999999995
  endloop
endfacet
facet normal 0.0 0.0 1.0
  outer loop
    vertex 176.9569750219606 -149.5590327903923 5.0
    vertex 175.48711351470513 -153.31403185691596 4.999999999999995
    vertex 176.9569750219606 -156.79307517973444 5.0
  endloop
endfacet
facet normal 0.0 0.0 1.0
  outer loop
    vertex 176.9569750219606 -149.5590327903923 5.0
    vertex 176.9569750219606 -156.79307517973444 5.0
    vertex 178.089955608001 -155.1813739130476 5.0
  endloop
endfacet
facet normal 0.0 0.0 1.0
  outer loop
    vertex 176.9569750219606 -149.5590327903923 5.0
    vertex 178.089955608001 -155.1813739130476 5.0
    vertex 178.089955608001 -151.19201043957597 5.0
  endloop
endfacet
facet normal 0.0 0.0 1.0
  outer loop
    vertex 178.089955608001 -151.19201043957597 5.0
    vertex 178.089955608001 -155.1813739130476 5.0
    vertex 178.46761328561735 -153.2398837708517 5.0
  endloop
endfacet
facet normal 0.18278246712318574 0.9831533805629525 0.0
  outer loop
    vertex 173.4463368036034 -148.15477750304944 5.0
    vertex 175.33463529806792 -148.50583956956604 0.0
    vertex 173.4463368036034 -148.15477750304944 0.0
  endloop
endfacet
facet normal 0.18278246712318574 0.9831533805629525 0.0
  outer loop
    vertex 175.33463529806792 -148.50583956956604 0.0
    vertex 173.4463368036034 -148.15477750304944 5.0
    vertex 175.33463529806792 -148.50583956956604 5.0
  endloop
endfacet
facet normal 0.5445057470537874 0.8387571111027297 0.0
  outer loop
    vertex 175.33463529806792 -148.50583956956604 5.0
    vertex 176.9569750219606 -149.5590327903923 0.0
    vertex 175.33463529806792 -148.50583956956604 0.0
  endloop
endfacet
facet normal 0.5445057470537874 0.8387571111027297 0.0
  outer loop
    vertex 176.9569750219606 -149.5590327903923 0.0
    vertex 175.33463529806792 -148.50583956956604 5.0
    vertex 176.9569750219606 -149.5590327903923 5.0
  endloop
endfacet
facet normal -0.0 -0.0 -1.0
  outer loop
    vertex 168.8027179992058 -151.16541472209326 0.0
    vertex 168.8027179992058 -155.16541654638777 0.0
    vertex 168.42506032158946 -153.17605398506336 0.0
  endloop
endfacet
facet normal -0.0 -0.0 -1.0
  outer loop
    vertex 168.8027179992058 -155.16541654638777 0.0
    vertex 168.8027179992058 -151.16541472209326 0.0
    vertex 169.9356985852462 -149.5590327903923 0.0
  endloop
endfacet
facet normal -0.0 -0.0 -1.0
  outer loop
    vertex 168.8027179992058 -155.16541654638777 0.0
    vertex 169.9356985852462 -149.5590327903923 0.0
    vertex 169.9356985852462 -156.79307517973444 0.0
  endloop
endfacet
facet normal -0.0 -0.0 -1.0
  outer loop
    vertex 169.9356985852462 -156.79307517973444 0.0
    vertex 169.9356985852462 -149.5590327903923 0.0
    vertex 171.55803830913888 -148.51647792038892 0.0
  endloop
endfacet
facet normal -0.0 -0.0 -1.0
  outer loop
    vertex 169.9356985852462 -156.79307517973444 0.0
    vertex 171.55803830913888 -148.51647792038892 0.0
    vertex 171.55803830913888 -157.8462684005607 0.0
  endloop
endfacet
facet normal -0.0 -0.0 -1.0
  outer loop
    vertex 171.55803830913888 -157.8462684005607 0.0
    vertex 171.55803830913888 -148.51647792038892 0.0
    vertex 173.4463368036034 -148.15477750304944 0.0
  endloop
endfacet
facet normal -0.0 -0.0 -1.0
  outer loop
    vertex 171.55803830913888 -157.8462684005607 0.0
    vertex 173.4463368036034 -148.15477750304944 0.0
    vertex 173.4463368036034 -158.1973304670773 0.0
  endloop
endfacet
facet normal -0.0 -0.0 -1.0
  outer loop
    vertex 173.4463368036034 -158.1973304670773 0.0
    vertex 173.4463368036034 -148.15477750304944 0.0
    vertex 175.33463529806792 -148.50583956956604 0.0
  endloop
endfacet
facet normal -0.0 -0.0 -1.0
  outer loop
    vertex 173.4463368036034 -158.1973304670773 0.0
    vertex 175.33463529806792 -148.50583956956604 0.0
    vertex 175.33463529806792 -157.8462684005607 0.0
  endloop
endfacet
facet normal -0.0 -0.0 -1.0
  outer loop
    vertex 175.33463529806792 -157.8462684005607 0.0
    vertex 175.33463529806792 -148.50583956956604 0.0
    vertex 176.9569750219606 -149.5590327903923 0.0
  endloop
endfacet
facet normal -0.0 -0.0 -1.0
  outer loop
    vertex 175.33463529806792 -157.8462684005607 0.0
    vertex 176.9569750219606 -149.5590327903923 0.0
    vertex 176.9569750219606 -156.79307517973444 0.0
  endloop
endfacet
facet normal -0.0 -0.0 -1.0
  outer loop
    vertex 176.9569750219606 -156.79307517973444 0.0
    vertex 176.9569750219606 -149.5590327903923 0.0
    vertex 178.089955608001 -151.19201043957597 0.0
  endloop
endfacet
facet normal -0.0 -0.0 -1.0
  outer loop
    vertex 176.9569750219606 -156.79307517973444 0.0
    vertex 178.089955608001 -151.19201043957597 0.0
    vertex 178.089955608001 -155.1813739130476 0.0
  endloop
endfacet
facet normal -0.0 -0.0 -1.0
  outer loop
    vertex 178.089955608001 -155.1813739130476 0.0
    vertex 178.089955608001 -151.19201043957597 0.0
    vertex 178.46761328561735 -153.2398837708517 0.0
  endloop
endfacet
facet normal 0.8216130796096941 0.5700455660859707 0.0
  outer loop
    vertex 176.9569750219606 -149.5590327903923 0.0
    vertex 178.089955608001 -151.19201043957597 5.0
    vertex 178.089955608001 -151.19201043957597 0.0
  endloop
endfacet
facet normal 0.8216130796096941 0.5700455660859707 0.0
  outer loop
    vertex 178.089955608001 -151.19201043957597 5.0
    vertex 176.9569750219606 -149.5590327903923 0.0
    vertex 176.9569750219606 -149.5590327903923 5.0
  endloop
endfacet
facet normal 0.9834174190642122 0.18135649941781443 0.0
  outer loop
    vertex 178.089955608001 -151.19201043957597 0.0
    vertex 178.46761328561735 -153.2398837708517 5.0
    vertex 178.46761328561735 -153.2398837708517 0.0
  endloop
endfacet
facet normal 0.9834174190642122 0.18135649941781443 0.0
  outer loop
    vertex 178.46761328561735 -153.2398837708517 5.0
    vertex 178.089955608001 -151.19201043957597 0.0
    vertex 178.089955608001 -151.19201043957597 5.0
  endloop
endfacet
facet normal 0.9816015847109049 -0.19094064232907612 0.0
  outer loop
    vertex 178.46761328561735 -153.2398837708517 0.0
    vertex 178.089955608001 -155.1813739130476 5.0
    vertex 178.089955608001 -155.1813739130476 0.0
  endloop
endfacet
facet normal 0.9816015847109049 -0.19094064232907612 0.0
  outer loop
    vertex 178.089955608001 -155.1813739130476 5.0
    vertex 178.46761328561735 -153.2398837708517 0.0
    vertex 178.46761328561735 -153.2398837708517 5.0
  endloop
endfacet
facet normal 0.8180881129184455 -0.5750928964102553 0.0
  outer loop
    vertex 178.089955608001 -155.1813739130476 0.0
    vertex 176.9569750219606 -156.79307517973444 5.0
    vertex 176.9569750219606 -156.79307517973444 0.0
  endloop
endfacet
facet normal 0.8180881129184455 -0.5750928964102553 0.0
  outer loop
    vertex 176.9569750219606 -156.79307517973444 5.0
    vertex 178.089955608001 -155.1813739130476 0.0
    vertex 178.089955608001 -155.1813739130476 5.0
  endloop
endfacet
facet normal 0.5445057470537874 -0.8387571111027297 0.0
  outer loop
    vertex 176.9569750219606 -156.79307517973444 5.0
    vertex 175.33463529806792 -157.8462684005607 0.0
    vertex 176.9569750219606 -156.79307517973444 0.0
  endloop
endfacet
facet normal 0.5445057470537874 -0.8387571111027297 0.0
  outer loop
    vertex 175.33463529806792 -157.8462684005607 0.0
    vertex 176.9569750219606 -156.79307517973444 5.0
    vertex 175.33463529806792 -157.8462684005607 5.0
  endloop
endfacet
facet normal 0.18278246712318566 -0.9831533805629525 0.0
  outer loop
    vertex 175.33463529806792 -157.8462684005607 5.0
    vertex 173.4463368036034 -158.1973304670773 0.0
    vertex 175.33463529806792 -157.8462684005607 0.0
  endloop
endfacet
facet normal 0.18278246712318566 -0.9831533805629525 0.0
  outer loop
    vertex 173.4463368036034 -158.1973304670773 0.0
    vertex 175.33463529806792 -157.8462684005607 5.0
    vertex 173.4463368036034 -158.1973304670773 5.0
  endloop
endfacet
facet normal -0.18278246712318566 -0.9831533805629525 0.0
  outer loop
    vertex 173.4463368036034 -158.1973304670773 5.0
    vertex 171.55803830913888 -157.8462684005607 0.0
    vertex 173.4463368036034 -158.1973304670773 0.0
  endloop
endfacet
facet normal -0.18278246712318566 -0.9831533805629525 0.0
  outer loop
    vertex 171.55803830913888 -157.8462684005607 0.0
    vertex 173.4463368036034 -158.1973304670773 5.0
    vertex 171.55803830913888 -157.8462684005607 5.0
  endloop
endfacet
facet normal -0.5445057470537888 -0.8387571111027289 0.0
  outer loop
    vertex 171.55803830913888 -157.8462684005607 5.0
    vertex 169.9356985852462 -156.79307517973444 0.0
    vertex 171.55803830913888 -157.8462684005607 0.0
  endloop
endfacet
facet normal -0.5445057470537888 -0.8387571111027289 0.0
  outer loop
    vertex 169.9356985852462 -156.79307517973444 0.0
    vertex 171.55803830913888 -157.8462684005607 5.0
    vertex 169.9356985852462 -156.79307517973444 5.0
  endloop
endfacet
facet normal -0.8207405679213562 -0.571301076638343 0.0
  outer loop
    vertex 168.8027179992058 -155.16541654638777 5.0
    vertex 169.9356985852462 -156.79307517973444 0.0
    vertex 169.9356985852462 -156.79307517973444 5.0
  endloop
endfacet
facet normal -0.8207405679213562 -0.571301076638343 0.0
  outer loop
    vertex 169.9356985852462 -156.79307517973444 0.0
    vertex 168.8027179992058 -155.16541654638777 5.0
    vertex 168.8027179992058 -155.16541654638777 0.0
  endloop
endfacet
facet normal -0.9824535293719564 -0.18650754039605552 0.0
  outer loop
    vertex 168.42506032158946 -153.17605398506336 5.0
    vertex 168.8027179992058 -155.16541654638777 0.0
    vertex 168.8027179992058 -155.16541654638777 5.0
  endloop
endfacet
facet normal -0.9824535293719564 -0.18650754039605552 0.0
  outer loop
    vertex 168.8027179992058 -155.16541654638777 0.0
    vertex 168.42506032158946 -153.17605398506336 5.0
    vertex 168.42506032158946 -153.17605398506336 0.0
  endloop
endfacet
facet normal -0.982813452364876 0.18460151096519622 0.0
  outer loop
    vertex 168.8027179992058 -151.16541472209326 5.0
    vertex 168.42506032158946 -153.17605398506336 0.0
    vertex 168.42506032158946 -153.17605398506336 5.0
  endloop
endfacet
facet normal -0.982813452364876 0.18460151096519622 0.0
  outer loop
    vertex 168.42506032158946 -153.17605398506336 0.0
    vertex 168.8027179992058 -151.16541472209326 5.0
    vertex 168.8027179992058 -151.16541472209326 0.0
  endloop
endfacet
facet normal -0.8171921517806735 0.5763653243109553 0.0
  outer loop
    vertex 169.9356985852462 -149.5590327903923 5.0
    vertex 168.8027179992058 -151.16541472209326 0.0
    vertex 168.8027179992058 -151.16541472209326 5.0
  endloop
endfacet
facet normal -0.8171921517806735 0.5763653243109553 0.0
  outer loop
    vertex 168.8027179992058 -151.16541472209326 0.0
    vertex 169.9356985852462 -149.5590327903923 5.0
    vertex 169.9356985852462 -149.5590327903923 0.0
  endloop
endfacet
facet normal -0.5406189589286287 0.8412675800522245 0.0
  outer loop
    vertex 169.9356985852462 -149.5590327903923 5.0
    vertex 171.55803830913888 -148.51647792038892 0.0
    vertex 169.9356985852462 -149.5590327903923 0.0
  endloop
endfacet
facet normal -0.5406189589286287 0.8412675800522245 0.0
  outer loop
    vertex 171.55803830913888 -148.51647792038892 0.0
    vertex 169.9356985852462 -149.5590327903923 5.0
    vertex 171.55803830913888 -148.51647792038892 5.0
  endloop
endfacet
facet normal -0.18812813441866824 0.9821444929541435 0.0
  outer loop
    vertex 171.55803830913888 -148.51647792038892 5.0
    vertex 173.4463368036034 -148.15477750304944 0.0
    vertex 171.55803830913888 -148.51647792038892 0.0
  endloop
endfacet
facet normal -0.18812813441866824 0.9821444929541435 0.0
  outer loop
    vertex 173.4463368036034 -148.15477750304944 0.0
    vertex 171.55803830913888 -148.51647792038892 5.0
    vertex 173.4463368036034 -148.15477750304944 5.0
  endloop
endfacet
facet normal 0.1305261922200586 -0.9914448613738096 0.0
  outer loop
    vertex 173.28711351470514 -151.11403185691597 4.999999999999995
    vertex 172.71771161547963 -151.18899503908003 2.8999999999999946
    vertex 173.28711351470514 -151.11403185691597 2.8999999999999946
  endloop
endfacet
facet normal 0.1305261922200586 -0.9914448613738096 0.0
  outer loop
    vertex 172.71771161547963 -151.18899503908003 2.8999999999999946
    vertex 173.28711351470514 -151.11403185691597 4.999999999999995
    vertex 172.71771161547963 -151.18899503908003 4.999999999999995
  endloop
endfacet
facet normal 0.9914448613738113 0.1305261922200464 0.0
  outer loop
    vertex 171.08711351470515 -153.31403185691596 2.8999999999999946
    vertex 171.1620766968692 -153.8834337561415 4.999999999999995
    vertex 171.1620766968692 -153.8834337561415 2.8999999999999946
  endloop
endfacet
facet normal 0.9914448613738113 0.1305261922200464 0.0
  outer loop
    vertex 171.1620766968692 -153.8834337561415 4.999999999999995
    vertex 171.08711351470515 -153.31403185691596 2.8999999999999946
    vertex 171.08711351470515 -153.31403185691596 4.999999999999995
  endloop
endfacet
facet normal -0.7933533402912306 0.6087614290087267 0.0
  outer loop
    vertex 175.1923694030309 -154.41403185691595 4.999999999999995
    vertex 174.84274843331553 -154.86966677552635 2.8999999999999946
    vertex 174.84274843331553 -154.86966677552635 4.999999999999995
  endloop
endfacet
facet normal -0.7933533402912306 0.6087614290087267 0.0
  outer loop
    vertex 174.84274843331553 -154.86966677552635 2.8999999999999946
    vertex 175.1923694030309 -154.41403185691595 4.999999999999995
    vertex 175.1923694030309 -154.41403185691595 2.8999999999999946
  endloop
endfacet
facet normal 0.9238795325112817 0.38268343236510244 0.0
  outer loop
    vertex 171.1620766968692 -153.8834337561415 2.8999999999999946
    vertex 171.3818576263794 -154.41403185691595 4.999999999999995
    vertex 171.3818576263794 -154.41403185691595 2.8999999999999946
  endloop
endfacet
facet normal 0.9238795325112817 0.38268343236510244 0.0
  outer loop
    vertex 171.3818576263794 -154.41403185691595 4.999999999999995
    vertex 171.1620766968692 -153.8834337561415 2.8999999999999946
    vertex 171.1620766968692 -153.8834337561415 4.999999999999995
  endloop
endfacet
facet normal 0.9238795325112851 -0.382683432365094 0.0
  outer loop
    vertex 171.3818576263794 -152.21403185691597 2.8999999999999946
    vertex 171.1620766968692 -152.74462995769042 4.999999999999995
    vertex 171.1620766968692 -152.74462995769042 2.8999999999999946
  endloop
endfacet
facet normal 0.9238795325112851 -0.382683432365094 0.0
  outer loop
    vertex 171.1620766968692 -152.74462995769042 4.999999999999995
    vertex 171.3818576263794 -152.21403185691597 2.8999999999999946
    vertex 171.3818576263794 -152.21403185691597 4.999999999999995
  endloop
endfacet
facet normal 0.7933533402912258 -0.6087614290087329 0.0
  outer loop
    vertex 171.73147859609475 -151.75839693830557 2.8999999999999946
    vertex 171.3818576263794 -152.21403185691597 4.999999999999995
    vertex 171.3818576263794 -152.21403185691597 2.8999999999999946
  endloop
endfacet
facet normal 0.7933533402912258 -0.6087614290087329 0.0
  outer loop
    vertex 171.3818576263794 -152.21403185691597 4.999999999999995
    vertex 171.73147859609475 -151.75839693830557 2.8999999999999946
    vertex 171.73147859609475 -151.75839693830557 4.999999999999995
  endloop
endfacet
facet normal -0.9914448613738099 0.13052619222005604 0.0
  outer loop
    vertex 175.48711351470513 -153.31403185691596 4.999999999999995
    vertex 175.4121503325411 -153.8834337561415 2.8999999999999946
    vertex 175.4121503325411 -153.8834337561415 4.999999999999995
  endloop
endfacet
facet normal -0.9914448613738099 0.13052619222005604 0.0
  outer loop
    vertex 175.4121503325411 -153.8834337561415 2.8999999999999946
    vertex 175.48711351470513 -153.31403185691596 4.999999999999995
    vertex 175.48711351470513 -153.31403185691596 2.8999999999999946
  endloop
endfacet
facet normal 0.9914448613738113 -0.1305261922200464 0.0
  outer loop
    vertex 171.1620766968692 -152.74462995769042 2.8999999999999946
    vertex 171.08711351470515 -153.31403185691596 4.999999999999995
    vertex 171.08711351470515 -153.31403185691596 2.8999999999999946
  endloop
endfacet
facet normal 0.9914448613738113 -0.1305261922200464 0.0
  outer loop
    vertex 171.08711351470515 -153.31403185691596 4.999999999999995
    vertex 171.1620766968692 -152.74462995769042 2.8999999999999946
    vertex 171.1620766968692 -152.74462995769042 4.999999999999995
  endloop
endfacet
facet normal 0.3826834323650871 -0.923879532511288 0.0
  outer loop
    vertex 172.71771161547963 -151.18899503908003 4.999999999999995
    vertex 172.18711351470515 -151.4087759685902 2.8999999999999946
    vertex 172.71771161547963 -151.18899503908003 2.8999999999999946
  endloop
endfacet
facet normal 0.3826834323650871 -0.923879532511288 0.0
  outer loop
    vertex 172.18711351470515 -151.4087759685902 2.8999999999999946
    vertex 172.71771161547963 -151.18899503908003 4.999999999999995
    vertex 172.18711351470515 -151.4087759685902 4.999999999999995
  endloop
endfacet
facet normal 0.6087614290087049 0.7933533402912475 0.0
  outer loop
    vertex 171.73147859609475 -154.86966677552638 4.999999999999995
    vertex 172.18711351470515 -155.21928774524173 2.8999999999999946
    vertex 171.73147859609475 -154.86966677552638 2.8999999999999946
  endloop
endfacet
facet normal 0.6087614290087049 0.7933533402912475 0.0
  outer loop
    vertex 172.18711351470515 -155.21928774524173 2.8999999999999946
    vertex 171.73147859609475 -154.86966677552638 4.999999999999995
    vertex 172.18711351470515 -155.21928774524173 4.999999999999995
  endloop
endfacet
facet normal 0.7933533402912453 0.6087614290087077 0.0
  outer loop
    vertex 171.3818576263794 -154.41403185691595 2.8999999999999946
    vertex 171.73147859609475 -154.86966677552638 4.999999999999995
    vertex 171.73147859609475 -154.86966677552638 2.8999999999999946
  endloop
endfacet
facet normal 0.7933533402912453 0.6087614290087077 0.0
  outer loop
    vertex 171.73147859609475 -154.86966677552638 4.999999999999995
    vertex 171.3818576263794 -154.41403185691595 2.8999999999999946
    vertex 171.3818576263794 -154.41403185691595 4.999999999999995
  endloop
endfacet
facet normal -0.9238795325112851 -0.382683432365094 0.0
  outer loop
    vertex 175.1923694030309 -152.21403185691597 4.999999999999995
    vertex 175.4121503325411 -152.74462995769042 2.8999999999999946
    vertex 175.4121503325411 -152.74462995769042 4.999999999999995
  endloop
endfacet
facet normal -0.9238795325112851 -0.382683432365094 0.0
  outer loop
    vertex 175.4121503325411 -152.74462995769042 2.8999999999999946
    vertex 175.1923694030309 -152.21403185691597 4.999999999999995
    vertex 175.1923694030309 -152.21403185691597 2.8999999999999946
  endloop
endfacet
facet normal -0.6087614290087295 0.7933533402912283 0.0
  outer loop
    vertex 174.38711351470513 -155.21928774524173 4.999999999999995
    vertex 174.84274843331553 -154.86966677552635 2.8999999999999946
    vertex 174.38711351470513 -155.21928774524173 2.8999999999999946
  endloop
endfacet
facet normal -0.6087614290087295 0.7933533402912283 0.0
  outer loop
    vertex 174.84274843331553 -154.86966677552635 2.8999999999999946
    vertex 174.38711351470513 -155.21928774524173 4.999999999999995
    vertex 174.84274843331553 -154.86966677552635 4.999999999999995
  endloop
endfacet
facet normal -0.1305261922200586 0.9914448613738096 0.0
  outer loop
    vertex 173.28711351470514 -155.51403185691595 4.999999999999995
    vertex 173.85651541393068 -155.4390686747519 2.8999999999999946
    vertex 173.28711351470514 -155.51403185691595 2.8999999999999946
  endloop
endfacet
facet normal -0.1305261922200586 0.9914448613738096 0.0
  outer loop
    vertex 173.85651541393068 -155.4390686747519 2.8999999999999946
    vertex 173.28711351470514 -155.51403185691595 4.999999999999995
    vertex 173.85651541393068 -155.4390686747519 4.999999999999995
  endloop
endfacet
facet normal 0.6087614290087295 -0.7933533402912283 0.0
  outer loop
    vertex 172.18711351470515 -151.4087759685902 4.999999999999995
    vertex 171.73147859609475 -151.75839693830557 2.8999999999999946
    vertex 172.18711351470515 -151.4087759685902 2.8999999999999946
  endloop
endfacet
facet normal 0.6087614290087295 -0.7933533402912283 0.0
  outer loop
    vertex 171.73147859609475 -151.75839693830557 2.8999999999999946
    vertex 172.18711351470515 -151.4087759685902 4.999999999999995
    vertex 171.73147859609475 -151.75839693830557 4.999999999999995
  endloop
endfacet
facet normal -0.7933533402912453 -0.6087614290087077 0.0
  outer loop
    vertex 174.84274843331553 -151.75839693830554 4.999999999999995
    vertex 175.1923694030309 -152.21403185691597 2.8999999999999946
    vertex 175.1923694030309 -152.21403185691597 4.999999999999995
  endloop
endfacet
facet normal -0.7933533402912453 -0.6087614290087077 0.0
  outer loop
    vertex 175.1923694030309 -152.21403185691597 2.8999999999999946
    vertex 174.84274843331553 -151.75839693830554 4.999999999999995
    vertex 174.84274843331553 -151.75839693830554 2.8999999999999946
  endloop
endfacet
facet normal 0.0 0.0 1.0
  outer loop
    vertex 171.1620766968692 -153.8834337561415 2.8999999999999946
    vertex 171.1620766968692 -152.74462995769042 2.8999999999999946
    vertex 171.08711351470515 -153.31403185691596 2.8999999999999946
  endloop
endfacet
facet normal 0.0 0.0 1.0
  outer loop
    vertex 171.1620766968692 -152.74462995769042 2.8999999999999946
    vertex 171.1620766968692 -153.8834337561415 2.8999999999999946
    vertex 171.3818576263794 -154.41403185691595 2.8999999999999946
  endloop
endfacet
facet normal 0.0 0.0 1.0
  outer loop
    vertex 171.1620766968692 -152.74462995769042 2.8999999999999946
    vertex 171.3818576263794 -154.41403185691595 2.8999999999999946
    vertex 171.3818576263794 -152.21403185691597 2.8999999999999946
  endloop
endfacet
facet normal 0.0 0.0 1.0
  outer loop
    vertex 171.3818576263794 -152.21403185691597 2.8999999999999946
    vertex 171.3818576263794 -154.41403185691595 2.8999999999999946
    vertex 171.73147859609475 -154.86966677552638 2.8999999999999946
  endloop
endfacet
facet normal 0.0 0.0 1.0
  outer loop
    vertex 171.3818576263794 -152.21403185691597 2.8999999999999946
    vertex 171.73147859609475 -154.86966677552638 2.8999999999999946
    vertex 171.73147859609475 -151.75839693830557 2.8999999999999946
  endloop
endfacet
facet normal 0.0 0.0 1.0
  outer loop
    vertex 171.73147859609475 -151.75839693830557 2.8999999999999946
    vertex 171.73147859609475 -154.86966677552638 2.8999999999999946
    vertex 172.18711351470515 -155.21928774524173 2.8999999999999946
  endloop
endfacet
facet normal 0.0 0.0 1.0
  outer loop
    vertex 171.73147859609475 -151.75839693830557 2.8999999999999946
    vertex 172.18711351470515 -155.21928774524173 2.8999999999999946
    vertex 172.18711351470515 -151.4087759685902 2.8999999999999946
  endloop
endfacet
facet normal 0.0 0.0 1.0
  outer loop
    vertex 172.18711351470515 -151.4087759685902 2.8999999999999946
    vertex 172.18711351470515 -155.21928774524173 2.8999999999999946
    vertex 172.71771161547963 -155.4390686747519 2.8999999999999946
  endloop
endfacet
facet normal 0.0 0.0 1.0
  outer loop
    vertex 172.18711351470515 -151.4087759685902 2.8999999999999946
    vertex 172.71771161547963 -155.4390686747519 2.8999999999999946
    vertex 172.71771161547963 -151.18899503908003 2.8999999999999946
  endloop
endfacet
facet normal 0.0 0.0 1.0
  outer loop
    vertex 172.71771161547963 -151.18899503908003 2.8999999999999946
    vertex 172.71771161547963 -155.4390686747519 2.8999999999999946
    vertex 173.28711351470514 -155.51403185691595 2.8999999999999946
  endloop
endfacet
facet normal 0.0 0.0 1.0
  outer loop
    vertex 172.71771161547963 -151.18899503908003 2.8999999999999946
    vertex 173.28711351470514 -155.51403185691595 2.8999999999999946
    vertex 173.28711351470514 -151.11403185691597 2.8999999999999946
  endloop
endfacet
facet normal 0.0 0.0 1.0
  outer loop
    vertex 173.28711351470514 -151.11403185691597 2.8999999999999946
    vertex 173.28711351470514 -155.51403185691595 2.8999999999999946
    vertex 173.85651541393068 -155.4390686747519 2.8999999999999946
  endloop
endfacet
facet normal 0.0 0.0 1.0
  outer loop
    vertex 173.28711351470514 -151.11403185691597 2.8999999999999946
    vertex 173.85651541393068 -155.4390686747519 2.8999999999999946
    vertex 173.85651541393068 -151.18899503908003 2.8999999999999946
  endloop
endfacet
facet normal 0.0 0.0 1.0
  outer loop
    vertex 173.85651541393068 -151.18899503908003 2.8999999999999946
    vertex 173.85651541393068 -155.4390686747519 2.8999999999999946
    vertex 174.38711351470513 -155.21928774524173 2.8999999999999946
  endloop
endfacet
facet normal 0.0 0.0 1.0
  outer loop
    vertex 173.85651541393068 -151.18899503908003 2.8999999999999946
    vertex 174.38711351470513 -155.21928774524173 2.8999999999999946
    vertex 174.38711351470513 -151.4087759685902 2.8999999999999946
  endloop
endfacet
facet normal 0.0 0.0 1.0
  outer loop
    vertex 174.38711351470513 -151.4087759685902 2.8999999999999946
    vertex 174.38711351470513 -155.21928774524173 2.8999999999999946
    vertex 174.84274843331553 -154.86966677552635 2.8999999999999946
  endloop
endfacet
facet normal 0.0 0.0 1.0
  outer loop
    vertex 174.38711351470513 -151.4087759685902 2.8999999999999946
    vertex 174.84274843331553 -154.86966677552635 2.8999999999999946
    vertex 174.84274843331553 -151.75839693830554 2.8999999999999946
  endloop
endfacet
facet normal 0.0 0.0 1.0
  outer loop
    vertex 174.84274843331553 -151.75839693830554 2.8999999999999946
    vertex 174.84274843331553 -154.86966677552635 2.8999999999999946
    vertex 175.1923694030309 -154.41403185691595 2.8999999999999946
  endloop
endfacet
facet normal 0.0 0.0 1.0
  outer loop
    vertex 174.84274843331553 -151.75839693830554 2.8999999999999946
    vertex 175.1923694030309 -154.41403185691595 2.8999999999999946
    vertex 175.1923694030309 -152.21403185691597 2.8999999999999946
  endloop
endfacet
facet normal 0.0 0.0 1.0
  outer loop
    vertex 175.1923694030309 -152.21403185691597 2.8999999999999946
    vertex 175.1923694030309 -154.41403185691595 2.8999999999999946
    vertex 175.4121503325411 -153.8834337561415 2.8999999999999946
  endloop
endfacet
facet normal 0.0 0.0 1.0
  outer loop
    vertex 175.1923694030309 -152.21403185691597 2.8999999999999946
    vertex 175.4121503325411 -153.8834337561415 2.8999999999999946
    vertex 175.4121503325411 -152.74462995769042 2.8999999999999946
  endloop
endfacet
facet normal 0.0 0.0 1.0
  outer loop
    vertex 175.4121503325411 -152.74462995769042 2.8999999999999946
    vertex 175.4121503325411 -153.8834337561415 2.8999999999999946
    vertex 175.48711351470513 -153.31403185691596 2.8999999999999946
  endloop
endfacet
facet normal -0.1305261922200586 -0.9914448613738096 0.0
  outer loop
    vertex 173.85651541393068 -151.18899503908003 4.999999999999995
    vertex 173.28711351470514 -151.11403185691597 2.8999999999999946
    vertex 173.85651541393068 -151.18899503908003 2.8999999999999946
  endloop
endfacet
facet normal -0.1305261922200586 -0.9914448613738096 0.0
  outer loop
    vertex 173.28711351470514 -151.11403185691597 2.8999999999999946
    vertex 173.85651541393068 -151.18899503908003 4.999999999999995
    vertex 173.28711351470514 -151.11403185691597 4.999999999999995
  endloop
endfacet
facet normal -0.9914448613738099 -0.13052619222005604 0.0
  outer loop
    vertex 175.4121503325411 -152.74462995769042 4.999999999999995
    vertex 175.48711351470513 -153.31403185691596 2.8999999999999946
    vertex 175.48711351470513 -153.31403185691596 4.999999999999995
  endloop
endfacet
facet normal -0.9914448613738099 -0.13052619222005604 0.0
  outer loop
    vertex 175.48711351470513 -153.31403185691596 2.8999999999999946
    vertex 175.4121503325411 -152.74462995769042 4.999999999999995
    vertex 175.4121503325411 -152.74462995769042 2.8999999999999946
  endloop
endfacet
facet normal 0.3826834323650871 0.923879532511288 0.0
  outer loop
    vertex 172.18711351470515 -155.21928774524173 4.999999999999995
    vertex 172.71771161547963 -155.4390686747519 2.8999999999999946
    vertex 172.18711351470515 -155.21928774524173 2.8999999999999946
  endloop
endfacet
facet normal 0.3826834323650871 0.923879532511288 0.0
  outer loop
    vertex 172.71771161547963 -155.4390686747519 2.8999999999999946
    vertex 172.18711351470515 -155.21928774524173 4.999999999999995
    vertex 172.71771161547963 -155.4390686747519 4.999999999999995
  endloop
endfacet
facet normal -0.3826834323650871 -0.923879532511288 0.0
  outer loop
    vertex 174.38711351470513 -151.4087759685902 4.999999999999995
    vertex 173.85651541393068 -151.18899503908003 2.8999999999999946
    vertex 174.38711351470513 -151.4087759685902 2.8999999999999946
  endloop
endfacet
facet normal -0.3826834323650871 -0.923879532511288 0.0
  outer loop
    vertex 173.85651541393068 -151.18899503908003 2.8999999999999946
    vertex 174.38711351470513 -151.4087759685902 4.999999999999995
    vertex 173.85651541393068 -151.18899503908003 4.999999999999995
  endloop
endfacet
facet normal -0.9238795325112851 0.382683432365094 0.0
  outer loop
    vertex 175.4121503325411 -153.8834337561415 4.999999999999995
    vertex 175.1923694030309 -154.41403185691595 2.8999999999999946
    vertex 175.1923694030309 -154.41403185691595 4.999999999999995
  endloop
endfacet
facet normal -0.9238795325112851 0.382683432365094 0.0
  outer loop
    vertex 175.1923694030309 -154.41403185691595 2.8999999999999946
    vertex 175.4121503325411 -153.8834337561415 4.999999999999995
    vertex 175.4121503325411 -153.8834337561415 2.8999999999999946
  endloop
endfacet
facet normal 0.1305261922200586 0.9914448613738096 0.0
  outer loop
    vertex 172.71771161547963 -155.4390686747519 4.999999999999995
    vertex 173.28711351470514 -155.51403185691595 2.8999999999999946
    vertex 172.71771161547963 -155.4390686747519 2.8999999999999946
  endloop
endfacet
facet normal 0.1305261922200586 0.9914448613738096 0.0
  outer loop
    vertex 173.28711351470514 -155.51403185691595 2.8999999999999946
    vertex 172.71771161547963 -155.4390686747519 4.999999999999995
    vertex 173.28711351470514 -155.51403185691595 4.999999999999995
  endloop
endfacet
facet normal -0.3826834323650871 0.923879532511288 0.0
  outer loop
    vertex 173.85651541393068 -155.4390686747519 4.999999999999995
    vertex 174.38711351470513 -155.21928774524173 2.8999999999999946
    vertex 173.85651541393068 -155.4390686747519 2.8999999999999946
  endloop
endfacet
facet normal -0.3826834323650871 0.923879532511288 0.0
  outer loop
    vertex 174.38711351470513 -155.21928774524173 2.8999999999999946
    vertex 173.85651541393068 -155.4390686747519 4.999999999999995
    vertex 174.38711351470513 -155.21928774524173 4.999999999999995
  endloop
endfacet
facet normal -0.6087614290087049 -0.7933533402912475 0.0
  outer loop
    vertex 174.84274843331553 -151.75839693830554 4.999999999999995
    vertex 174.38711351470513 -151.4087759685902 2.8999999999999946
    vertex 174.84274843331553 -151.75839693830554 2.8999999999999946
  endloop
endfacet
facet normal -0.6087614290087049 -0.7933533402912475 0.0
  outer loop
    vertex 174.38711351470513 -151.4087759685902 2.8999999999999946
    vertex 174.84274843331553 -151.75839693830554 4.999999999999995
    vertex 174.38711351470513 -151.4087759685902 4.999999999999995
  endloop
endfacet
endsolid ABC
