solid v2
facet normal -5.305808809926146e-12 -1.0 -2.1343082516268314e-12
  outer loop
    vertex -207.00131922384514 34.62864579448007 1.0000000000000024
    vertex -214.00131922384514 34.628645794517205 1.0000000000000009
    vertex -205.62631922384514 34.628645794472696 1.0000000000000009
  endloop
endfacet
facet normal -5.305808809926146e-12 -1.0 -2.1343082516268314e-12
  outer loop
    vertex -214.00131922384514 34.628645794517205 1.0000000000000009
    vertex -207.00131922384514 34.62864579448007 1.0000000000000024
    vertex -209.00131922384514 34.6286457944907 1.0000000000000024
  endloop
endfacet
facet normal -5.305808809926146e-12 -1.0 -2.1343082516268314e-12
  outer loop
    vertex -209.00131922384514 34.6286457944907 1.0000000000000024
    vertex -207.00131922384514 34.62864579448007 1.0000000000000024
    vertex -208.5823924308337 34.628645794484434 2.8999999999999977
  endloop
endfacet
facet normal -5.305808809926146e-12 -1.0 -2.1343082516268314e-12
  outer loop
    vertex -209.00131922384514 34.6286457944907 1.0000000000000024
    vertex -208.5823924308337 34.628645794484434 2.8999999999999977
    vertex -209.54479748471476 34.62864579448823 3.4999999999999987
  endloop
endfacet
facet normal -5.305808809926146e-12 -1.0 -2.1343082516268314e-12
  outer loop
    vertex -209.54479748471476 34.62864579448823 3.4999999999999987
    vertex -208.5823924308337 34.628645794484434 2.8999999999999977
    vertex -208.51531165054735 34.62864579448391 2.9674539193838423
  endloop
endfacet
facet normal -5.305808809926146e-12 -1.0 -2.1343082516268314e-12
  outer loop
    vertex -209.54479748471476 34.62864579448823 3.4999999999999987
    vertex -208.51531165054735 34.62864579448391 2.9674539193838423
    vertex -208.44436984006046 34.62864579448342 3.03083468814625
  endloop
endfacet
facet normal -5.305808809926146e-12 -1.0 -2.1343082516268314e-12
  outer loop
    vertex -209.54479748471476 34.62864579448823 3.4999999999999987
    vertex -208.44436984006046 34.62864579448342 3.03083468814625
    vertex -208.36981391284905 34.6286457944829 3.089921709070687
  endloop
endfacet
facet normal -5.305808809926146e-12 -1.0 -2.1343082516268314e-12
  outer loop
    vertex -209.54479748471476 34.62864579448823 3.4999999999999987
    vertex -208.36981391284905 34.6286457944829 3.089921709070687
    vertex -208.2919033613482 34.628645794482345 3.144509329360518
  endloop
endfacet
facet normal -5.305808809926146e-12 -1.0 -2.1343082516268314e-12
  outer loop
    vertex -209.54479748471476 34.62864579448823 3.4999999999999987
    vertex -208.2919033613482 34.628645794482345 3.144509329360518
    vertex -208.2109093537866 34.628645794481805 3.1944075564150225
  endloop
endfacet
facet normal -5.305808809926146e-12 -1.0 -2.1343082516268314e-12
  outer loop
    vertex -209.54479748471476 34.62864579448823 3.4999999999999987
    vertex -208.2109093537866 34.628645794481805 3.1944075564150225
    vertex -208.12711379038367 34.62864579448125 3.2394427190999857
  endloop
endfacet
facet normal -5.305808809926146e-12 -1.0 -2.1343082516268314e-12
  outer loop
    vertex -209.54479748471476 34.62864579448823 3.4999999999999987
    vertex -208.12711379038367 34.62864579448125 3.2394427190999857
    vertex -208.040808322194 34.628645794480704 3.279458072211336
  endloop
endfacet
facet normal -5.305808809926146e-12 -1.0 -2.1343082516268314e-12
  outer loop
    vertex -209.54479748471476 34.62864579448823 3.4999999999999987
    vertex -208.040808322194 34.628645794480704 3.279458072211336
    vertex -207.95229333601338 34.628645794480185 3.31431434202792
  endloop
endfacet
facet normal -5.305808809926146e-12 -1.0 -2.1343082516268314e-12
  outer loop
    vertex -209.54479748471476 34.62864579448823 3.4999999999999987
    vertex -207.95229333601338 34.628645794480185 3.31431434202792
    vertex -207.86187690888104 34.62864579447959 3.3438902110546933
  endloop
endfacet
facet normal -5.305808809926146e-12 -1.0 -2.1343082516268314e-12
  outer loop
    vertex -209.54479748471476 34.62864579448823 3.4999999999999987
    vertex -207.86187690888104 34.62864579447959 3.3438902110546933
    vertex -207.76987373581466 34.62864579447909 3.368082740269129
  endloop
endfacet
facet normal -5.305808809926146e-12 -1.0 -2.1343082516268314e-12
  outer loop
    vertex -209.54479748471476 34.62864579448823 3.4999999999999987
    vertex -207.76987373581466 34.62864579447909 3.368082740269129
    vertex -207.67660403451256 34.62864579447854 3.3868077274011985
  endloop
endfacet
facet normal -5.305808809926146e-12 -1.0 -2.1343082516268314e-12
  outer loop
    vertex -209.54479748471476 34.62864579448823 3.4999999999999987
    vertex -207.67660403451256 34.62864579447854 3.3868077274011985
    vertex -207.58239243083375 34.628645794478054 3.399999999999997
  endloop
endfacet
facet normal -5.305808809926146e-12 -1.0 -2.1343082516268314e-12
  outer loop
    vertex -209.54479748471476 34.62864579448823 3.4999999999999987
    vertex -207.58239243083375 34.628645794478054 3.399999999999997
    vertex -207.58239243083375 34.62864579447784 3.4999999999999964
  endloop
endfacet
facet normal -5.305808809926146e-12 -1.0 -2.1343082516268314e-12
  outer loop
    vertex -209.54479748471476 34.62864579448823 3.4999999999999987
    vertex -207.58239243083375 34.62864579447784 3.4999999999999964
    vertex -207.7391010854337 34.62864579447852 3.5605366618731926
  endloop
endfacet
facet normal -5.305808809926146e-12 -1.0 -2.1343082516268314e-12
  outer loop
    vertex -209.54479748471476 34.62864579448823 3.4999999999999987
    vertex -207.7391010854337 34.62864579447852 3.5605366618731926
    vertex -209.38808883011484 34.62864579448731 3.5605366618731935
  endloop
endfacet
facet normal -5.305808809926146e-12 -1.0 -2.1343082516268314e-12
  outer loop
    vertex -209.38808883011484 34.62864579448731 3.5605366618731935
    vertex -207.7391010854337 34.62864579447852 3.5605366618731926
    vertex -207.8995123421624 34.62864579447929 3.610441757524621
  endloop
endfacet
facet normal -5.305808809926146e-12 -1.0 -2.1343082516268314e-12
  outer loop
    vertex -209.38808883011484 34.62864579448731 3.5605366618731935
    vertex -207.8995123421624 34.62864579447929 3.610441757524621
    vertex -209.22767757338602 34.62864579448631 3.610441757524619
  endloop
endfacet
facet normal -5.305808809926146e-12 -1.0 -2.1343082516268314e-12
  outer loop
    vertex -209.22767757338602 34.62864579448631 3.610441757524619
    vertex -207.8995123421624 34.62864579447929 3.610441757524621
    vertex -209.06428408259984 34.62864579448535 3.649491175266375
  endloop
endfacet
facet normal -5.305808809926146e-12 -1.0 -2.1343082516268314e-12
  outer loop
    vertex -209.06428408259984 34.62864579448535 3.649491175266375
    vertex -207.8995123421624 34.62864579447929 3.610441757524621
    vertex -208.06290583294867 34.62864579448005 3.649491175266377
  endloop
endfacet
facet normal -5.305808809926146e-12 -1.0 -2.1343082516268314e-12
  outer loop
    vertex -209.06428408259984 34.62864579448535 3.649491175266375
    vertex -208.06290583294867 34.62864579448005 3.649491175266377
    vertex -208.89864211831778 34.628645794484456 3.6775095536287044
  endloop
endfacet
facet normal -5.305808809926146e-12 -1.0 -2.1343082516268314e-12
  outer loop
    vertex -208.89864211831778 34.628645794484456 3.6775095536287044
    vertex -208.06290583294867 34.62864579448005 3.649491175266377
    vertex -208.22854779723076 34.628645794480875 3.677509553628702
  endloop
endfacet
facet normal -5.305808809926146e-12 -1.0 -2.1343082516268314e-12
  outer loop
    vertex -208.89864211831778 34.628645794484456 3.6775095536287044
    vertex -208.22854779723076 34.628645794480875 3.677509553628702
    vertex -208.39569437709753 34.62864579448175 3.694371068865848
  endloop
endfacet
facet normal -5.305808809926146e-12 -1.0 -2.1343082516268314e-12
  outer loop
    vertex -208.89864211831778 34.628645794484456 3.6775095536287044
    vertex -208.39569437709753 34.62864579448175 3.694371068865848
    vertex -208.73149553845087 34.62864579448353 3.6943710688658458
  endloop
endfacet
facet normal -5.305808809926146e-12 -1.0 -2.1343082516268314e-12
  outer loop
    vertex -208.73149553845087 34.62864579448353 3.6943710688658458
    vertex -208.39569437709753 34.62864579448175 3.694371068865848
    vertex -208.56359495777428 34.62864579448261 3.699999999999998
  endloop
endfacet
facet normal -5.305808809926146e-12 -1.0 -2.1343082516268314e-12
  outer loop
    vertex -213.45784096297552 34.628645794508955 3.499999999999997
    vertex -216.00131922384512 34.628645794527834 1.0000000000000009
    vertex -214.00131922384514 34.628645794517205 1.0000000000000009
  endloop
endfacet
facet normal -5.305808809926146e-12 -1.0 -2.1343082516268314e-12
  outer loop
    vertex -216.00131922384512 34.628645794527834 1.0000000000000009
    vertex -213.45784096297552 34.628645794508955 3.499999999999997
    vertex -214.42024601685654 34.628645794515364 2.8999999999999964
  endloop
endfacet
facet normal -5.305808809926146e-12 -1.0 -2.1343082516268314e-12
  outer loop
    vertex -214.42024601685654 34.628645794515364 2.8999999999999964
    vertex -213.45784096297552 34.628645794508955 3.499999999999997
    vertex -214.4873267971429 34.62864579451558 2.9674539193838423
  endloop
endfacet
facet normal -5.305808809926146e-12 -1.0 -2.1343082516268314e-12
  outer loop
    vertex -214.4873267971429 34.62864579451558 2.9674539193838423
    vertex -213.45784096297552 34.628645794508955 3.499999999999997
    vertex -214.5582686076298 34.62864579451584 3.03083468814625
  endloop
endfacet
facet normal -5.305808809926146e-12 -1.0 -2.1343082516268314e-12
  outer loop
    vertex -214.5582686076298 34.62864579451584 3.03083468814625
    vertex -213.45784096297552 34.628645794508955 3.499999999999997
    vertex -214.6328245348412 34.62864579451609 3.089921709070686
  endloop
endfacet
facet normal -5.305808809926146e-12 -1.0 -2.1343082516268314e-12
  outer loop
    vertex -214.6328245348412 34.62864579451609 3.089921709070686
    vertex -213.45784096297552 34.628645794508955 3.499999999999997
    vertex -214.71073508634203 34.62864579451639 3.1445093293605173
  endloop
endfacet
facet normal -5.305808809926146e-12 -1.0 -2.1343082516268314e-12
  outer loop
    vertex -214.71073508634203 34.62864579451639 3.1445093293605173
    vertex -213.45784096297552 34.628645794508955 3.499999999999997
    vertex -214.79172909390368 34.628645794516736 3.194407556415021
  endloop
endfacet
facet normal -5.305808809926146e-12 -1.0 -2.1343082516268314e-12
  outer loop
    vertex -214.79172909390368 34.628645794516736 3.194407556415021
    vertex -213.45784096297552 34.628645794508955 3.499999999999997
    vertex -214.8755246573065 34.62864579451704 3.239442719099984
  endloop
endfacet
facet normal -5.305808809926146e-12 -1.0 -2.1343082516268314e-12
  outer loop
    vertex -214.8755246573065 34.62864579451704 3.239442719099984
    vertex -213.45784096297552 34.628645794508955 3.499999999999997
    vertex -214.96183012549625 34.62864579451742 3.2794580722113347
  endloop
endfacet
facet normal -5.305808809926146e-12 -1.0 -2.1343082516268314e-12
  outer loop
    vertex -214.96183012549625 34.62864579451742 3.2794580722113347
    vertex -213.45784096297552 34.628645794508955 3.499999999999997
    vertex -215.0503451116768 34.62864579451784 3.3143143420279193
  endloop
endfacet
facet normal -5.305808809926146e-12 -1.0 -2.1343082516268314e-12
  outer loop
    vertex -215.0503451116768 34.62864579451784 3.3143143420279193
    vertex -213.45784096297552 34.628645794508955 3.499999999999997
    vertex -215.14076153880922 34.62864579451823 3.343890211054692
  endloop
endfacet
facet normal -5.305808809926146e-12 -1.0 -2.1343082516268314e-12
  outer loop
    vertex -215.14076153880922 34.62864579451823 3.343890211054692
    vertex -213.45784096297552 34.628645794508955 3.499999999999997
    vertex -215.23276471187552 34.62864579451869 3.3680827402691276
  endloop
endfacet
facet normal -5.305808809926146e-12 -1.0 -2.1343082516268314e-12
  outer loop
    vertex -215.23276471187552 34.62864579451869 3.3680827402691276
    vertex -213.45784096297552 34.628645794508955 3.499999999999997
    vertex -215.3260344131777 34.62864579451912 3.386807727401197
  endloop
endfacet
facet normal -5.305808809926146e-12 -1.0 -2.1343082516268314e-12
  outer loop
    vertex -215.3260344131777 34.62864579451912 3.386807727401197
    vertex -213.45784096297552 34.628645794508955 3.499999999999997
    vertex -215.42024601685654 34.62864579451964 3.399999999999995
  endloop
endfacet
facet normal -5.305808809926146e-12 -1.0 -2.1343082516268314e-12
  outer loop
    vertex -215.42024601685654 34.62864579451964 3.399999999999995
    vertex -213.45784096297552 34.628645794508955 3.499999999999997
    vertex -215.42024601685657 34.62864579451943 3.499999999999995
  endloop
endfacet
facet normal -5.305808809926146e-12 -1.0 -2.1343082516268314e-12
  outer loop
    vertex -215.42024601685657 34.62864579451943 3.499999999999995
    vertex -213.45784096297552 34.628645794508955 3.499999999999997
    vertex -215.26353736225656 34.62864579451847 3.5605366618731913
  endloop
endfacet
facet normal -5.305808809926146e-12 -1.0 -2.1343082516268314e-12
  outer loop
    vertex -215.26353736225656 34.62864579451847 3.5605366618731913
    vertex -213.45784096297552 34.628645794508955 3.499999999999997
    vertex -213.61454961757545 34.6286457945097 3.560536661873191
  endloop
endfacet
facet normal -5.305808809926146e-12 -1.0 -2.1343082516268314e-12
  outer loop
    vertex -215.26353736225656 34.62864579451847 3.5605366618731913
    vertex -213.61454961757545 34.6286457945097 3.560536661873191
    vertex -213.7749608743042 34.628645794510426 3.6104417575246175
  endloop
endfacet
facet normal -5.305808809926146e-12 -1.0 -2.1343082516268314e-12
  outer loop
    vertex -215.26353736225656 34.62864579451847 3.5605366618731913
    vertex -213.7749608743042 34.628645794510426 3.6104417575246175
    vertex -215.10312610552782 34.62864579451751 3.6104417575246193
  endloop
endfacet
facet normal -5.305808809926146e-12 -1.0 -2.1343082516268314e-12
  outer loop
    vertex -215.10312610552782 34.62864579451751 3.6104417575246193
    vertex -213.7749608743042 34.628645794510426 3.6104417575246175
    vertex -213.93835436509045 34.62864579451119 3.6494911752663732
  endloop
endfacet
facet normal -5.305808809926146e-12 -1.0 -2.1343082516268314e-12
  outer loop
    vertex -215.10312610552782 34.62864579451751 3.6104417575246193
    vertex -213.93835436509045 34.62864579451119 3.6494911752663732
    vertex -214.93973261474162 34.62864579451651 3.649491175266375
  endloop
endfacet
facet normal -5.305808809926146e-12 -1.0 -2.1343082516268314e-12
  outer loop
    vertex -214.93973261474162 34.62864579451651 3.649491175266375
    vertex -213.93835436509045 34.62864579451119 3.6494911752663732
    vertex -214.10399632937248 34.62864579451205 3.677509553628703
  endloop
endfacet
facet normal -5.305808809926146e-12 -1.0 -2.1343082516268314e-12
  outer loop
    vertex -214.93973261474162 34.62864579451651 3.649491175266375
    vertex -214.10399632937248 34.62864579451205 3.677509553628703
    vertex -214.77409065045953 34.62864579451557 3.677509553628701
  endloop
endfacet
facet normal -5.305808809926146e-12 -1.0 -2.1343082516268314e-12
  outer loop
    vertex -214.77409065045953 34.62864579451557 3.677509553628701
    vertex -214.10399632937248 34.62864579451205 3.677509553628703
    vertex -214.60694407059273 34.628645794514696 3.6943710688658467
  endloop
endfacet
facet normal -5.305808809926146e-12 -1.0 -2.1343082516268314e-12
  outer loop
    vertex -214.60694407059273 34.628645794514696 3.6943710688658467
    vertex -214.10399632937248 34.62864579451205 3.677509553628703
    vertex -214.2711429092394 34.628645794512906 3.6943710688658444
  endloop
endfacet
facet normal -5.305808809926146e-12 -1.0 -2.1343082516268314e-12
  outer loop
    vertex -214.60694407059273 34.628645794514696 3.6943710688658467
    vertex -214.2711429092394 34.628645794512906 3.6943710688658444
    vertex -214.43904348991603 34.628645794513766 3.6999999999999966
  endloop
endfacet
facet normal -5.305808809926146e-12 -1.0 -2.1343082516268314e-12
  outer loop
    vertex -207.0013192238452 34.628645794482196 7.049916206369744e-16
    vertex -216.00131922384523 34.62864579452996 7.049916206369744e-16
    vertex -211.5013192238452 34.628645794506085 0.0
  endloop
endfacet
facet normal -5.305808809926146e-12 -1.0 -2.1343082516268314e-12
  outer loop
    vertex -216.00131922384523 34.62864579452996 7.049916206369744e-16
    vertex -207.0013192238452 34.628645794482196 7.049916206369744e-16
    vertex -205.62631922384514 34.628645794472696 1.0000000000000009
  endloop
endfacet
facet normal -5.305808809926146e-12 -1.0 -2.1343082516268314e-12
  outer loop
    vertex -216.00131922384523 34.62864579452996 7.049916206369744e-16
    vertex -205.62631922384514 34.628645794472696 1.0000000000000009
    vertex -217.50131922384514 34.62864579453587 1.0000000000000009
  endloop
endfacet
facet normal -5.305808809926146e-12 -1.0 -2.1343082516268314e-12
  outer loop
    vertex -217.50131922384514 34.62864579453587 1.0000000000000009
    vertex -205.62631922384514 34.628645794472696 1.0000000000000009
    vertex -214.00131922384514 34.628645794517205 1.0000000000000009
  endloop
endfacet
facet normal -5.305808809926146e-12 -1.0 -2.1343082516268314e-12
  outer loop
    vertex -217.50131922384514 34.62864579453587 1.0000000000000009
    vertex -214.00131922384514 34.628645794517205 1.0000000000000009
    vertex -216.00131922384512 34.628645794527834 1.0000000000000009
  endloop
endfacet
facet normal 5.3060239116850186e-12 1.0 2.1559632252349204e-12
  outer loop
    vertex -214.42024601550887 288.6286457945155 2.900000000542167
    vertex -214.0013192224975 288.62864579451735 1.0000000005421223
    vertex -216.0013192224975 288.628645794528 1.0000000005421223
  endloop
endfacet
facet normal 5.3060239116850186e-12 1.0 2.1559632252349204e-12
  outer loop
    vertex -214.0013192224975 288.62864579451735 1.0000000005421223
    vertex -214.42024601550887 288.6286457945155 2.900000000542167
    vertex -213.45784096162785 288.62864579450905 3.500000000542167
  endloop
endfacet
facet normal 5.3060239116850186e-12 1.0 2.1559632252349204e-12
  outer loop
    vertex -213.45784096162785 288.62864579450905 3.500000000542167
    vertex -214.42024601550887 288.6286457945155 2.900000000542167
    vertex -214.48732679579524 288.6286457945157 2.9674539199260126
  endloop
endfacet
facet normal 5.3060239116850186e-12 1.0 2.1559632252349204e-12
  outer loop
    vertex -213.45784096162785 288.62864579450905 3.500000000542167
    vertex -214.48732679579524 288.6286457945157 2.9674539199260126
    vertex -214.55826860628213 288.62864579451593 3.0308346886884205
  endloop
endfacet
facet normal 5.3060239116850186e-12 1.0 2.1559632252349204e-12
  outer loop
    vertex -213.45784096162785 288.62864579450905 3.500000000542167
    vertex -214.55826860628213 288.62864579451593 3.0308346886884205
    vertex -214.63282453349353 288.6286457945162 3.0899217096128564
  endloop
endfacet
facet normal 5.3060239116850186e-12 1.0 2.1559632252349204e-12
  outer loop
    vertex -213.45784096162785 288.62864579450905 3.500000000542167
    vertex -214.63282453349353 288.6286457945162 3.0899217096128564
    vertex -214.7107350849943 288.6286457945165 3.144509329902688
  endloop
endfacet
facet normal 5.3060239116850186e-12 1.0 2.1559632252349204e-12
  outer loop
    vertex -213.45784096162785 288.62864579450905 3.500000000542167
    vertex -214.7107350849943 288.6286457945165 3.144509329902688
    vertex -214.79172909255598 288.6286457945168 3.1944075569571915
  endloop
endfacet
facet normal 5.3060239116850186e-12 1.0 2.1559632252349204e-12
  outer loop
    vertex -213.45784096162785 288.62864579450905 3.500000000542167
    vertex -214.79172909255598 288.6286457945168 3.1944075569571915
    vertex -214.87552465595883 288.6286457945171 3.2394427196421542
  endloop
endfacet
facet normal 5.3060239116850186e-12 1.0 2.1559632252349204e-12
  outer loop
    vertex -213.45784096162785 288.62864579450905 3.500000000542167
    vertex -214.87552465595883 288.6286457945171 3.2394427196421542
    vertex -214.96183012414858 288.6286457945175 3.279458072753505
  endloop
endfacet
facet normal 5.3060239116850186e-12 1.0 2.1559632252349204e-12
  outer loop
    vertex -213.45784096162785 288.62864579450905 3.500000000542167
    vertex -214.96183012414858 288.6286457945175 3.279458072753505
    vertex -215.05034511032912 288.6286457945179 3.3143143425700896
  endloop
endfacet
facet normal 5.3060239116850186e-12 1.0 2.1559632252349204e-12
  outer loop
    vertex -213.45784096162785 288.62864579450905 3.500000000542167
    vertex -215.05034511032912 288.6286457945179 3.3143143425700896
    vertex -215.14076153746154 288.6286457945183 3.343890211596862
  endloop
endfacet
facet normal 5.3060239116850186e-12 1.0 2.1559632252349204e-12
  outer loop
    vertex -213.45784096162785 288.62864579450905 3.500000000542167
    vertex -215.14076153746154 288.6286457945183 3.343890211596862
    vertex -215.23276471052785 288.6286457945188 3.368082740811298
  endloop
endfacet
facet normal 5.3060239116850186e-12 1.0 2.1559632252349204e-12
  outer loop
    vertex -213.45784096162785 288.62864579450905 3.500000000542167
    vertex -215.23276471052785 288.6286457945188 3.368082740811298
    vertex -215.32603441183002 288.62864579451923 3.3868077279433675
  endloop
endfacet
facet normal 5.3060239116850186e-12 1.0 2.1559632252349204e-12
  outer loop
    vertex -213.45784096162785 288.62864579450905 3.500000000542167
    vertex -215.32603441183002 288.62864579451923 3.3868077279433675
    vertex -215.4202460155088 288.6286457945198 3.4000000005421653
  endloop
endfacet
facet normal 5.3060239116850186e-12 1.0 2.1559632252349204e-12
  outer loop
    vertex -213.45784096162785 288.62864579450905 3.500000000542167
    vertex -215.4202460155088 288.6286457945198 3.4000000005421653
    vertex -215.42024601550887 288.6286457945195 3.5000000005421654
  endloop
endfacet
facet normal 5.3060239116850186e-12 1.0 2.1559632252349204e-12
  outer loop
    vertex -213.45784096162785 288.62864579450905 3.500000000542167
    vertex -215.42024601550887 288.6286457945195 3.5000000005421654
    vertex -215.26353736090883 288.62864579451855 3.5605366624153616
  endloop
endfacet
facet normal 5.3060239116850186e-12 1.0 2.1559632252349204e-12
  outer loop
    vertex -213.45784096162785 288.62864579450905 3.500000000542167
    vertex -215.26353736090883 288.62864579451855 3.5605366624153616
    vertex -213.61454961622772 288.6286457945098 3.560536662415361
  endloop
endfacet
facet normal 5.3060239116850186e-12 1.0 2.1559632252349204e-12
  outer loop
    vertex -213.61454961622772 288.6286457945098 3.560536662415361
    vertex -215.26353736090883 288.62864579451855 3.5605366624153616
    vertex -213.77496087295654 288.62864579451053 3.610441758066788
  endloop
endfacet
facet normal 5.3060239116850186e-12 1.0 2.1559632252349204e-12
  outer loop
    vertex -213.77496087295654 288.62864579451053 3.610441758066788
    vertex -215.26353736090883 288.62864579451855 3.5605366624153616
    vertex -215.10312610418015 288.6286457945176 3.6104417580667896
  endloop
endfacet
facet normal 5.3060239116850186e-12 1.0 2.1559632252349204e-12
  outer loop
    vertex -213.77496087295654 288.62864579451053 3.610441758066788
    vertex -215.10312610418015 288.6286457945176 3.6104417580667896
    vertex -213.93835436374277 288.62864579451127 3.6494911758085435
  endloop
endfacet
facet normal 5.3060239116850186e-12 1.0 2.1559632252349204e-12
  outer loop
    vertex -213.93835436374277 288.62864579451127 3.6494911758085435
    vertex -215.10312610418015 288.6286457945176 3.6104417580667896
    vertex -214.93973261339394 288.6286457945166 3.6494911758085453
  endloop
endfacet
facet normal 5.3060239116850186e-12 1.0 2.1559632252349204e-12
  outer loop
    vertex -213.93835436374277 288.62864579451127 3.6494911758085435
    vertex -214.93973261339394 288.6286457945166 3.6494911758085453
    vertex -214.10399632802478 288.6286457945121 3.6775095541708733
  endloop
endfacet
facet normal 5.3060239116850186e-12 1.0 2.1559632252349204e-12
  outer loop
    vertex -214.10399632802478 288.6286457945121 3.6775095541708733
    vertex -214.93973261339394 288.6286457945166 3.6494911758085453
    vertex -214.7740906491118 288.62864579451565 3.677509554170871
  endloop
endfacet
facet normal 5.3060239116850186e-12 1.0 2.1559632252349204e-12
  outer loop
    vertex -214.10399632802478 288.6286457945121 3.6775095541708733
    vertex -214.7740906491118 288.62864579451565 3.677509554170871
    vertex -214.60694406924506 288.62864579451474 3.694371069408017
  endloop
endfacet
facet normal 5.3060239116850186e-12 1.0 2.1559632252349204e-12
  outer loop
    vertex -214.10399632802478 288.6286457945121 3.6775095541708733
    vertex -214.60694406924506 288.62864579451474 3.694371069408017
    vertex -214.27114290789171 288.628645794513 3.6943710694080147
  endloop
endfacet
facet normal 5.3060239116850186e-12 1.0 2.1559632252349204e-12
  outer loop
    vertex -214.27114290789171 288.628645794513 3.6943710694080147
    vertex -214.60694406924506 288.62864579451474 3.694371069408017
    vertex -214.43904348856836 288.6286457945139 3.700000000542167
  endloop
endfacet
facet normal 5.3060239116850186e-12 1.0 2.1559632252349204e-12
  outer loop
    vertex -217.50131922249753 288.628645794536 1.0000000005421223
    vertex -207.00131922249756 288.62864579448234 5.42121636470938e-10
    vertex -216.00131922249756 288.6286457945301 5.42121636470938e-10
  endloop
endfacet
facet normal 5.3060239116850186e-12 1.0 2.1559632252349204e-12
  outer loop
    vertex -207.00131922249756 288.62864579448234 5.42121636470938e-10
    vertex -217.50131922249753 288.628645794536 1.0000000005421223
    vertex -205.62631922249756 288.62864579447285 1.0000000005421223
  endloop
endfacet
facet normal 5.3060239116850186e-12 1.0 2.1559632252349204e-12
  outer loop
    vertex -205.62631922249756 288.62864579447285 1.0000000005421223
    vertex -217.50131922249753 288.628645794536 1.0000000005421223
    vertex -216.0013192224975 288.628645794528 1.0000000005421223
  endloop
endfacet
facet normal 5.3060239116850186e-12 1.0 2.1559632252349204e-12
  outer loop
    vertex -205.62631922249756 288.62864579447285 1.0000000005421223
    vertex -216.0013192224975 288.628645794528 1.0000000005421223
    vertex -214.0013192224975 288.62864579451735 1.0000000005421223
  endloop
endfacet
facet normal 5.3060239116850186e-12 1.0 2.1559632252349204e-12
  outer loop
    vertex -205.62631922249756 288.62864579447285 1.0000000005421223
    vertex -214.0013192224975 288.62864579451735 1.0000000005421223
    vertex -209.00131922249756 288.62864579449086 1.0000000005421241
  endloop
endfacet
facet normal 5.3060239116850186e-12 1.0 2.1559632252349204e-12
  outer loop
    vertex -205.62631922249756 288.62864579447285 1.0000000005421223
    vertex -209.00131922249756 288.62864579449086 1.0000000005421241
    vertex -207.00131922249756 288.62864579448024 1.0000000005421241
  endloop
endfacet
facet normal 5.3060239116850186e-12 1.0 2.1559632252349204e-12
  outer loop
    vertex -207.00131922249756 288.62864579448024 1.0000000005421241
    vertex -209.00131922249756 288.62864579449086 1.0000000005421241
    vertex -209.54479748336712 288.6286457944883 3.500000000542169
  endloop
endfacet
facet normal 5.3060239116850186e-12 1.0 2.1559632252349204e-12
  outer loop
    vertex -207.00131922249756 288.62864579448024 1.0000000005421241
    vertex -209.54479748336712 288.6286457944883 3.500000000542169
    vertex -208.58239242948608 288.6286457944845 2.9000000005421684
  endloop
endfacet
facet normal 5.3060239116850186e-12 1.0 2.1559632252349204e-12
  outer loop
    vertex -208.58239242948608 288.6286457944845 2.9000000005421684
    vertex -209.54479748336712 288.6286457944883 3.500000000542169
    vertex -208.51531164919973 288.62864579448404 2.9674539199260126
  endloop
endfacet
facet normal 5.3060239116850186e-12 1.0 2.1559632252349204e-12
  outer loop
    vertex -208.51531164919973 288.62864579448404 2.9674539199260126
    vertex -209.54479748336712 288.6286457944883 3.500000000542169
    vertex -208.44436983871284 288.6286457944835 3.0308346886884205
  endloop
endfacet
facet normal 5.3060239116850186e-12 1.0 2.1559632252349204e-12
  outer loop
    vertex -208.44436983871284 288.6286457944835 3.0308346886884205
    vertex -209.54479748336712 288.6286457944883 3.500000000542169
    vertex -208.36981391150144 288.62864579448296 3.0899217096128577
  endloop
endfacet
facet normal 5.3060239116850186e-12 1.0 2.1559632252349204e-12
  outer loop
    vertex -208.36981391150144 288.62864579448296 3.0899217096128577
    vertex -209.54479748336712 288.6286457944883 3.500000000542169
    vertex -208.29190336000053 288.62864579448245 3.144509329902689
  endloop
endfacet
facet normal 5.3060239116850186e-12 1.0 2.1559632252349204e-12
  outer loop
    vertex -208.29190336000053 288.62864579448245 3.144509329902689
    vertex -209.54479748336712 288.6286457944883 3.500000000542169
    vertex -208.21090935243896 288.62864579448194 3.194407556957193
  endloop
endfacet
facet normal 5.3060239116850186e-12 1.0 2.1559632252349204e-12
  outer loop
    vertex -208.21090935243896 288.62864579448194 3.194407556957193
    vertex -209.54479748336712 288.6286457944883 3.500000000542169
    vertex -208.12711378903603 288.6286457944813 3.239442719642156
  endloop
endfacet
facet normal 5.3060239116850186e-12 1.0 2.1559632252349204e-12
  outer loop
    vertex -208.12711378903603 288.6286457944813 3.239442719642156
    vertex -209.54479748336712 288.6286457944883 3.500000000542169
    vertex -208.0408083208464 288.6286457944808 3.2794580727535063
  endloop
endfacet
facet normal 5.3060239116850186e-12 1.0 2.1559632252349204e-12
  outer loop
    vertex -208.0408083208464 288.6286457944808 3.2794580727535063
    vertex -209.54479748336712 288.6286457944883 3.500000000542169
    vertex -207.95229333466577 288.6286457944803 3.31431434257009
  endloop
endfacet
facet normal 5.3060239116850186e-12 1.0 2.1559632252349204e-12
  outer loop
    vertex -207.95229333466577 288.6286457944803 3.31431434257009
    vertex -209.54479748336712 288.6286457944883 3.500000000542169
    vertex -207.86187690753343 288.6286457944797 3.3438902115968636
  endloop
endfacet
facet normal 5.3060239116850186e-12 1.0 2.1559632252349204e-12
  outer loop
    vertex -207.86187690753343 288.6286457944797 3.3438902115968636
    vertex -209.54479748336712 288.6286457944883 3.500000000542169
    vertex -207.769873734467 288.6286457944792 3.368082740811299
  endloop
endfacet
facet normal 5.3060239116850186e-12 1.0 2.1559632252349204e-12
  outer loop
    vertex -207.769873734467 288.6286457944792 3.368082740811299
    vertex -209.54479748336712 288.6286457944883 3.500000000542169
    vertex -207.67660403316495 288.62864579447864 3.386807727943369
  endloop
endfacet
facet normal 5.3060239116850186e-12 1.0 2.1559632252349204e-12
  outer loop
    vertex -207.67660403316495 288.62864579447864 3.386807727943369
    vertex -209.54479748336712 288.6286457944883 3.500000000542169
    vertex -207.5823924294861 288.62864579447813 3.4000000005421667
  endloop
endfacet
facet normal 5.3060239116850186e-12 1.0 2.1559632252349204e-12
  outer loop
    vertex -207.5823924294861 288.62864579447813 3.4000000005421667
    vertex -209.54479748336712 288.6286457944883 3.500000000542169
    vertex -207.5823924294861 288.6286457944779 3.5000000005421668
  endloop
endfacet
facet normal 5.3060239116850186e-12 1.0 2.1559632252349204e-12
  outer loop
    vertex -207.5823924294861 288.6286457944779 3.5000000005421668
    vertex -209.54479748336712 288.6286457944883 3.500000000542169
    vertex -207.7391010840861 288.62864579447864 3.560536662415363
  endloop
endfacet
facet normal 5.3060239116850186e-12 1.0 2.1559632252349204e-12
  outer loop
    vertex -207.7391010840861 288.62864579447864 3.560536662415363
    vertex -209.54479748336712 288.6286457944883 3.500000000542169
    vertex -209.3880888287672 288.6286457944874 3.560536662415364
  endloop
endfacet
facet normal 5.3060239116850186e-12 1.0 2.1559632252349204e-12
  outer loop
    vertex -207.7391010840861 288.62864579447864 3.560536662415363
    vertex -209.3880888287672 288.6286457944874 3.560536662415364
    vertex -207.89951234081477 288.6286457944794 3.610441758066791
  endloop
endfacet
facet normal 5.3060239116850186e-12 1.0 2.1559632252349204e-12
  outer loop
    vertex -207.89951234081477 288.6286457944794 3.610441758066791
    vertex -209.3880888287672 288.6286457944874 3.560536662415364
    vertex -209.22767757203837 288.6286457944864 3.610441758066789
  endloop
endfacet
facet normal 5.3060239116850186e-12 1.0 2.1559632252349204e-12
  outer loop
    vertex -207.89951234081477 288.6286457944794 3.610441758066791
    vertex -209.22767757203837 288.6286457944864 3.610441758066789
    vertex -209.0642840812522 288.6286457944854 3.6494911758085453
  endloop
endfacet
facet normal 5.3060239116850186e-12 1.0 2.1559632252349204e-12
  outer loop
    vertex -207.89951234081477 288.6286457944794 3.610441758066791
    vertex -209.0642840812522 288.6286457944854 3.6494911758085453
    vertex -208.06290583160103 288.6286457944802 3.6494911758085467
  endloop
endfacet
facet normal 5.3060239116850186e-12 1.0 2.1559632252349204e-12
  outer loop
    vertex -208.06290583160103 288.6286457944802 3.6494911758085467
    vertex -209.0642840812522 288.6286457944854 3.6494911758085453
    vertex -208.89864211697017 288.62864579448456 3.6775095541708747
  endloop
endfacet
facet normal 5.3060239116850186e-12 1.0 2.1559632252349204e-12
  outer loop
    vertex -208.06290583160103 288.6286457944802 3.6494911758085467
    vertex -208.89864211697017 288.62864579448456 3.6775095541708747
    vertex -208.22854779588312 288.628645794481 3.6775095541708724
  endloop
endfacet
facet normal 5.3060239116850186e-12 1.0 2.1559632252349204e-12
  outer loop
    vertex -208.22854779588312 288.628645794481 3.6775095541708724
    vertex -208.89864211697017 288.62864579448456 3.6775095541708747
    vertex -208.39569437574988 288.6286457944818 3.6943710694080183
  endloop
endfacet
facet normal 5.3060239116850186e-12 1.0 2.1559632252349204e-12
  outer loop
    vertex -208.39569437574988 288.6286457944818 3.6943710694080183
    vertex -208.89864211697017 288.62864579448456 3.6775095541708747
    vertex -208.73149553710326 288.62864579448365 3.694371069408016
  endloop
endfacet
facet normal 5.3060239116850186e-12 1.0 2.1559632252349204e-12
  outer loop
    vertex -208.39569437574988 288.6286457944818 3.6943710694080183
    vertex -208.73149553710326 288.62864579448365 3.694371069408016
    vertex -208.5635949564266 288.6286457944827 3.7000000005421683
  endloop
endfacet
facet normal -0.31089699774501167 3.6779356066767e-12 -0.9504436105278095
  outer loop
    vertex -215.14076153746154 288.6286457945183 3.343890211596862
    vertex -215.05034511154196 60.02864579451778 3.3143143420821803
    vertex -215.1407615386744 60.028645794518205 3.343890211108953
  endloop
endfacet
facet normal -0.31089699774501167 3.6779356066767e-12 -0.9504436105278095
  outer loop
    vertex -215.05034511154196 60.02864579451778 3.3143143420821803
    vertex -215.14076153746154 288.6286457945183 3.343890211596862
    vertex -215.05034511032912 288.6286457945179 3.3143143425700896
  endloop
endfacet
facet normal -0.36640376074045994 3.929767044942447e-12 -0.930455954957164
  outer loop
    vertex -215.05034511032912 288.6286457945179 3.3143143425700896
    vertex -214.96183012536144 60.028645794517395 3.2794580722655957
    vertex -215.05034511154196 60.02864579451778 3.3143143420821803
  endloop
endfacet
facet normal -0.36640376074045994 3.929767044942447e-12 -0.930455954957164
  outer loop
    vertex -214.96183012536144 60.028645794517395 3.2794580722655957
    vertex -215.05034511032912 288.6286457945179 3.3143143425700896
    vertex -214.96183012414858 288.6286457945175 3.279458072753505
  endloop
endfacet
facet normal -0.4206352528396596 4.167920907860288e-12 -0.9072298408168217
  outer loop
    vertex -214.96183012414858 288.6286457945175 3.279458072753505
    vertex -214.8755246571717 60.02864579451699 3.2394427191542454
    vertex -214.96183012536144 60.028645794517395 3.2794580722655957
  endloop
endfacet
facet normal -0.4206352528396596 4.167920907860288e-12 -0.9072298408168217
  outer loop
    vertex -214.8755246571717 60.02864579451699 3.2394427191542454
    vertex -214.96183012414858 288.6286457945175 3.279458072753505
    vertex -214.87552465595883 288.6286457945171 3.2394427196421542
  endloop
endfacet
facet normal -0.9771763639227988 5.6378699109277975e-12 -0.2124296443310539
  outer loop
    vertex -209.54479748336712 288.6286457944883 3.500000000542169
    vertex -209.00131922384514 34.6286457944907 1.0000000000000024
    vertex -209.54479748471476 34.62864579448823 3.4999999999999987
  endloop
endfacet
facet normal -0.9771763639227988 5.6378699109277975e-12 -0.2124296443310539
  outer loop
    vertex -209.00131922384514 34.6286457944907 1.0000000000000024
    vertex -209.54479748336712 288.6286457944883 3.500000000542169
    vertex -209.00131922249756 288.62864579449086 1.0000000005421241
  endloop
endfacet
facet normal 0.9771763639227963 -4.731157585166141e-12 -0.21242964433106512
  outer loop
    vertex -214.00131922384514 34.628645794517205 1.0000000000000009
    vertex -213.45784096162785 288.62864579450905 3.500000000542167
    vertex -213.45784096297552 34.628645794508955 3.499999999999997
  endloop
endfacet
facet normal 0.9771763639227963 -4.731157585166141e-12 -0.21242964433106512
  outer loop
    vertex -213.45784096162785 288.62864579450905 3.500000000542167
    vertex -214.00131922384514 34.628645794517205 1.0000000000000009
    vertex -214.0013192224975 288.62864579451735 1.0000000005421223
  endloop
endfacet
facet normal 0.2970631407125129 -3.614246730811516e-12 0.9548578378114816
  outer loop
    vertex -213.61454961757545 34.6286457945097 3.560536661873191
    vertex -213.77496087295654 288.62864579451053 3.610441758066788
    vertex -213.7749608743042 34.628645794510426 3.6104417575246175
  endloop
endfacet
facet normal 0.2970631407125129 -3.614246730811516e-12 0.9548578378114816
  outer loop
    vertex -213.77496087295654 288.62864579451053 3.610441758066788
    vertex -213.61454961757545 34.6286457945097 3.560536661873191
    vertex -213.61454961622772 288.6286457945098 3.560536662415361
  endloop
endfacet
facet normal 0.16678111454037184 -2.9894590628673336e-12 0.9859939451298226
  outer loop
    vertex -213.93835436509045 34.62864579451119 3.6494911752663732
    vertex -214.10399632802478 288.6286457945121 3.6775095541708733
    vertex -214.10399632937248 34.62864579451205 3.677509553628703
  endloop
endfacet
facet normal 0.16678111454037184 -2.9894590628673336e-12 0.9859939451298226
  outer loop
    vertex -214.10399632802478 288.6286457945121 3.6775095541708733
    vertex -213.93835436509045 34.62864579451119 3.6494911752663732
    vertex -213.93835436374277 288.62864579451127 3.6494911758085435
  endloop
endfacet
facet normal -0.16678111454027367 -1.2196552503663426e-12 0.9859939451298391
  outer loop
    vertex -214.77409065045953 34.62864579451557 3.677509553628701
    vertex -214.93973261339394 288.6286457945166 3.6494911758085453
    vertex -214.93973261474162 34.62864579451651 3.649491175266375
  endloop
endfacet
facet normal -0.16678111454027367 -1.2196552503663426e-12 0.9859939451298391
  outer loop
    vertex -214.93973261339394 288.6286457945166 3.6494911758085453
    vertex -214.77409065045953 34.62864579451557 3.677509553628701
    vertex -214.7740906491118 288.62864579451565 3.677509554170871
  endloop
endfacet
facet normal -0.23244405257505418 -8.427075219393555e-13 0.9726097688294547
  outer loop
    vertex -214.93973261474162 34.62864579451651 3.649491175266375
    vertex -215.10312610418015 288.6286457945176 3.6104417580667896
    vertex -215.10312610552782 34.62864579451751 3.6104417575246193
  endloop
endfacet
facet normal -0.23244405257505418 -8.427075219393555e-13 0.9726097688294547
  outer loop
    vertex -215.10312610418015 288.6286457945176 3.6104417580667896
    vertex -214.93973261474162 34.62864579451651 3.649491175266375
    vertex -214.93973261339394 288.6286457945166 3.6494911758085453
  endloop
endfacet
facet normal -0.29706314071264756 -4.619504958408405e-13 0.9548578378114397
  outer loop
    vertex -215.10312610552782 34.62864579451751 3.6104417575246193
    vertex -215.26353736090883 288.62864579451855 3.5605366624153616
    vertex -215.26353736225656 34.62864579451847 3.5605366618731913
  endloop
endfacet
facet normal -0.29706314071264756 -4.619504958408405e-13 0.9548578378114397
  outer loop
    vertex -215.26353736090883 288.62864579451855 3.5605366624153616
    vertex -215.10312610552782 34.62864579451751 3.6104417575246193
    vertex -215.10312610418015 288.6286457945176 3.6104417580667896
  endloop
endfacet
facet normal -0.36034819029120224 -7.911210238749787e-14 0.9328178716951427
  outer loop
    vertex -215.26353736225656 34.62864579451847 3.5605366618731913
    vertex -215.42024601550887 288.6286457945195 3.5000000005421654
    vertex -215.42024601685657 34.62864579451943 3.499999999999995
  endloop
endfacet
facet normal -0.36034819029120224 -7.911210238749787e-14 0.9328178716951427
  outer loop
    vertex -215.42024601550887 288.6286457945195 3.5000000005421654
    vertex -215.26353736225656 34.62864579451847 3.5605366618731913
    vertex -215.26353736090883 288.62864579451855 3.5605366624153616
  endloop
endfacet
facet normal 0.2324440525750542 -3.309271017028666e-12 0.9726097688294549
  outer loop
    vertex -213.7749608743042 34.628645794510426 3.6104417575246175
    vertex -213.93835436374277 288.62864579451127 3.6494911758085435
    vertex -213.93835436509045 34.62864579451119 3.6494911752663732
  endloop
endfacet
facet normal 0.2324440525750542 -3.309271017028666e-12 0.9726097688294549
  outer loop
    vertex -213.93835436374277 288.62864579451127 3.6494911758085435
    vertex -213.7749608743042 34.628645794510426 3.6104417575246175
    vertex -213.77496087295654 288.62864579451053 3.610441758066788
  endloop
endfacet
facet normal 0.033506557591752854 -2.3110301370169804e-12 0.9994384976567346
  outer loop
    vertex -214.2711429092394 34.628645794512906 3.6943710688658444
    vertex -214.43904348856836 288.6286457945139 3.700000000542167
    vertex -214.43904348991603 34.628645794513766 3.6999999999999966
  endloop
endfacet
facet normal 0.033506557591752854 -2.3110301370169804e-12 0.9994384976567346
  outer loop
    vertex -214.43904348856836 288.6286457945139 3.700000000542167
    vertex -214.2711429092394 34.628645794512906 3.6943710688658444
    vertex -214.27114290789171 288.628645794513 3.6943710694080147
  endloop
endfacet
facet normal -1.0 5.305712255837337e-12 -6.620332527128916e-13
  outer loop
    vertex -215.42024601550887 288.6286457945195 3.5000000005421654
    vertex -215.42024601685654 34.62864579451964 3.399999999999995
    vertex -215.42024601685657 34.62864579451943 3.499999999999995
  endloop
endfacet
facet normal -1.0 5.305712255837337e-12 -6.620332527128916e-13
  outer loop
    vertex -215.42024601685654 34.62864579451964 3.399999999999995
    vertex -215.42024601550887 288.6286457945195 3.5000000005421654
    vertex -215.42024601672168 60.028645794519626 3.400000000054256
  endloop
endfacet
facet normal -1.0 5.305712255837337e-12 -6.620332527128916e-13
  outer loop
    vertex -215.42024601672168 60.028645794519626 3.400000000054256
    vertex -215.42024601550887 288.6286457945195 3.5000000005421654
    vertex -215.4202460155088 288.6286457945198 3.4000000005421653
  endloop
endfacet
facet normal -0.13867514562950795 2.84935445445641e-12 -0.9903379241373294
  outer loop
    vertex -215.4202460155088 288.6286457945198 3.4000000005421653
    vertex -215.3260344130429 60.02864579451911 3.386807727455458
    vertex -215.42024601672168 60.028645794519626 3.400000000054256
  endloop
endfacet
facet normal -0.13867514562950795 2.84935445445641e-12 -0.9903379241373294
  outer loop
    vertex -215.3260344130429 60.02864579451911 3.386807727455458
    vertex -215.4202460155088 288.6286457945198 3.4000000005421653
    vertex -215.32603441183002 288.62864579451923 3.3868077279433675
  endloop
endfacet
facet normal 0.10036920294677182 -2.6562096960657423e-12 0.994950261621067
  outer loop
    vertex -214.10399632937248 34.62864579451205 3.677509553628703
    vertex -214.27114290789171 288.628645794513 3.6943710694080147
    vertex -214.2711429092394 34.628645794512906 3.6943710688658444
  endloop
endfacet
facet normal 0.10036920294677182 -2.6562096960657423e-12 0.994950261621067
  outer loop
    vertex -214.27114290789171 288.628645794513 3.6943710694080147
    vertex -214.10399632937248 34.62864579451205 3.677509553628703
    vertex -214.10399632802478 288.6286457945121 3.6775095541708733
  endloop
endfacet
facet normal -0.03350655759172228 -1.9554776900115125e-12 0.9994384976567355
  outer loop
    vertex -214.43904348991603 34.628645794513766 3.6999999999999966
    vertex -214.60694406924506 288.62864579451474 3.694371069408017
    vertex -214.60694407059273 34.628645794514696 3.6943710688658467
  endloop
endfacet
facet normal -0.03350655759172228 -1.9554776900115125e-12 0.9994384976567355
  outer loop
    vertex -214.60694406924506 288.62864579451474 3.694371069408017
    vertex -214.43904348991603 34.628645794513766 3.6999999999999966
    vertex -214.43904348856836 288.6286457945139 3.700000000542167
  endloop
endfacet
facet normal -0.1968341919861129 3.13679053017253e-12 -0.9804367908565926
  outer loop
    vertex -215.32603441183002 288.62864579451923 3.3868077279433675
    vertex -215.2327647117407 60.02864579451863 3.3680827403233886
    vertex -215.3260344130429 60.02864579451911 3.386807727455458
  endloop
endfacet
facet normal -0.1968341919861129 3.13679053017253e-12 -0.9804367908565926
  outer loop
    vertex -215.2327647117407 60.02864579451863 3.3680827403233886
    vertex -215.32603441183002 288.62864579451923 3.3868077279433675
    vertex -215.23276471052785 288.6286457945188 3.368082740811298
  endloop
endfacet
facet normal -0.10036920294689507 -1.591138274945084e-12 0.9949502616210547
  outer loop
    vertex -214.60694407059273 34.628645794514696 3.6943710688658467
    vertex -214.7740906491118 288.62864579451565 3.677509554170871
    vertex -214.77409065045953 34.62864579451557 3.677509553628701
  endloop
endfacet
facet normal -0.10036920294689507 -1.591138274945084e-12 0.9949502616210547
  outer loop
    vertex -214.7740906491118 288.62864579451565 3.677509554170871
    vertex -214.60694407059273 34.628645794514696 3.6943710688658467
    vertex -214.60694406924506 288.62864579451474 3.694371069408017
  endloop
endfacet
facet normal 0.36034819029139825 -3.902979267793469e-12 0.9328178716950669
  outer loop
    vertex -213.45784096297552 34.628645794508955 3.499999999999997
    vertex -213.61454961622772 288.6286457945098 3.560536662415361
    vertex -213.61454961757545 34.6286457945097 3.560536661873191
  endloop
endfacet
facet normal 0.36034819029139825 -3.902979267793469e-12 0.9328178716950669
  outer loop
    vertex -213.61454961622772 288.6286457945098 3.560536662415361
    vertex -213.45784096297552 34.628645794508955 3.499999999999997
    vertex -213.45784096162785 288.62864579450905 3.500000000542167
  endloop
endfacet
facet normal -0.2543081555381102 3.4133030851422604e-12 -0.9671232403508896
  outer loop
    vertex -215.23276471052785 288.6286457945188 3.368082740811298
    vertex -215.1407615386744 60.028645794518205 3.343890211108953
    vertex -215.2327647117407 60.02864579451863 3.3680827403233886
  endloop
endfacet
facet normal -0.2543081555381102 3.4133030851422604e-12 -0.9671232403508896
  outer loop
    vertex -215.1407615386744 60.028645794518205 3.343890211108953
    vertex -215.23276471052785 288.6286457945188 3.368082740811298
    vertex -215.14076153746154 288.6286457945183 3.343890211596862
  endloop
endfacet
facet normal -0.5245225075212464 4.599908157824054e-12 -0.8513965815667949
  outer loop
    vertex -214.79172909255598 288.6286457945168 3.1944075569571915
    vertex -214.71073508620717 60.028645794516336 3.144509329414779
    vertex -214.79172909376885 60.02864579451669 3.194407556469282
  endloop
endfacet
facet normal -0.5245225075212464 4.599908157824054e-12 -0.8513965815667949
  outer loop
    vertex -214.71073508620717 60.028645794516336 3.144509329414779
    vertex -214.79172909255598 288.6286457945168 3.1944075569571915
    vertex -214.7107350849943 288.6286457945165 3.144509329902688
  endloop
endfacet
facet normal 0.42063525284002157 -2.9528641924407053e-13 -0.9072298408166539
  outer loop
    vertex -208.12711378903603 288.6286457944813 3.239442719642156
    vertex -208.040808322194 34.628645794480704 3.279458072211336
    vertex -208.12711379038367 34.62864579448125 3.2394427190999857
  endloop
endfacet
facet normal 0.42063525284002157 -2.9528641924407053e-13 -0.9072298408166539
  outer loop
    vertex -208.040808322194 34.628645794480704 3.279458072211336
    vertex -208.12711378903603 288.6286457944813 3.239442719642156
    vertex -208.0408083208464 288.6286457944808 3.2794580727535063
  endloop
endfacet
facet normal 0.6662489174934872 -1.943130302662713e-12 -0.7457294281029524
  outer loop
    vertex -208.51531164919973 288.62864579448404 2.9674539199260126
    vertex -208.44436984006046 34.62864579448342 3.03083468814625
    vertex -208.51531165054735 34.62864579448391 2.9674539193838423
  endloop
endfacet
facet normal 0.6662489174934872 -1.943130302662713e-12 -0.7457294281029524
  outer loop
    vertex -208.44436984006046 34.62864579448342 3.03083468814625
    vertex -208.51531164919973 288.62864579448404 2.9674539199260126
    vertex -208.44436983871284 288.6286457944835 3.0308346886884205
  endloop
endfacet
facet normal 0.31089699774529866 3.7917936441290524e-13 -0.9504436105277156
  outer loop
    vertex -207.95229333466577 288.6286457944803 3.31431434257009
    vertex -207.86187690888104 34.62864579447959 3.3438902110546933
    vertex -207.95229333601338 34.628645794480185 3.31431434202792
  endloop
endfacet
facet normal 0.31089699774529866 3.7917936441290524e-13 -0.9504436105277156
  outer loop
    vertex -207.86187690888104 34.62864579447959 3.3438902110546933
    vertex -207.95229333466577 288.6286457944803 3.31431434257009
    vertex -207.86187690753343 288.6286457944797 3.3438902115968636
  endloop
endfacet
facet normal 0.13867514562946456 1.3780733488048265e-12 -0.9903379241373355
  outer loop
    vertex -207.67660403316495 288.62864579447864 3.386807727943369
    vertex -207.58239243083375 34.628645794478054 3.399999999999997
    vertex -207.67660403451256 34.62864579447854 3.3868077274011985
  endloop
endfacet
facet normal 0.13867514562946456 1.3780733488048265e-12 -0.9903379241373355
  outer loop
    vertex -207.58239243083375 34.628645794478054 3.399999999999997
    vertex -207.67660403316495 288.62864579447864 3.386807727943369
    vertex -207.5823924294861 288.62864579447813 3.4000000005421667
  endloop
endfacet
facet normal -0.03350655759175885 -1.955479489100419e-12 0.9994384976567344
  outer loop
    vertex -208.56359495777428 34.62864579448261 3.699999999999998
    vertex -208.73149553710326 288.62864579448365 3.694371069408016
    vertex -208.73149553845087 34.62864579448353 3.6943710688658458
  endloop
endfacet
facet normal -0.03350655759175885 -1.955479489100419e-12 0.9994384976567344
  outer loop
    vertex -208.73149553710326 288.62864579448365 3.694371069408016
    vertex -208.56359495777428 34.62864579448261 3.699999999999998
    vertex -208.5635949564266 288.6286457944827 3.7000000005421683
  endloop
endfacet
facet normal -0.5738166897753967 4.792258223157645e-12 -0.8189837645125855
  outer loop
    vertex -214.7107350849943 288.6286457945165 3.144509329902688
    vertex -214.6328245347064 60.02864579451606 3.0899217091249476
    vertex -214.71073508620717 60.028645794516336 3.144509329414779
  endloop
endfacet
facet normal -0.5738166897753967 4.792258223157645e-12 -0.8189837645125855
  outer loop
    vertex -214.6328245347064 60.02864579451606 3.0899217091249476
    vertex -214.7107350849943 288.6286457945165 3.144509329902688
    vertex -214.63282453349353 288.6286457945162 3.0899217096128564
  endloop
endfacet
facet normal 0.36640376074013004 4.2019603253367617e-14 -0.9304559549572939
  outer loop
    vertex -208.0408083208464 288.6286457944808 3.2794580727535063
    vertex -207.95229333601338 34.628645794480185 3.31431434202792
    vertex -208.040808322194 34.628645794480704 3.279458072211336
  endloop
endfacet
facet normal 0.36640376074013004 4.2019603253367617e-14 -0.9304559549572939
  outer loop
    vertex -207.95229333601338 34.628645794480185 3.31431434202792
    vertex -208.0408083208464 288.6286457944808 3.2794580727535063
    vertex -207.95229333466577 288.6286457944803 3.31431434257009
  endloop
endfacet
facet normal 0.2324440525749934 -3.3092460518428275e-12 0.9726097688294693
  outer loop
    vertex -207.8995123421624 34.62864579447929 3.610441757524621
    vertex -208.06290583160103 288.6286457944802 3.6494911758085467
    vertex -208.06290583294867 34.62864579448005 3.649491175266377
  endloop
endfacet
facet normal 0.2324440525749934 -3.3092460518428275e-12 0.9726097688294693
  outer loop
    vertex -208.06290583160103 288.6286457944802 3.6494911758085467
    vertex -207.8995123421624 34.62864579447929 3.610441757524621
    vertex -207.89951234081477 288.6286457944794 3.610441758066791
  endloop
endfacet
facet normal -0.23244405257511888 -8.427324820089379e-13 0.9726097688294394
  outer loop
    vertex -209.06428408259984 34.62864579448535 3.649491175266375
    vertex -209.22767757203837 288.6286457944864 3.610441758066789
    vertex -209.22767757338602 34.62864579448631 3.610441757524619
  endloop
endfacet
facet normal -0.23244405257511888 -8.427324820089379e-13 0.9726097688294394
  outer loop
    vertex -209.22767757203837 288.6286457944864 3.610441758066789
    vertex -209.06428408259984 34.62864579448535 3.649491175266375
    vertex -209.0642840812522 288.6286457944854 3.6494911758085453
  endloop
endfacet
facet normal 0.3603481902912925 -3.902921238528342e-12 0.9328178716951077
  outer loop
    vertex -207.58239243083375 34.62864579447784 3.4999999999999964
    vertex -207.7391010840861 288.62864579447864 3.560536662415363
    vertex -207.7391010854337 34.62864579447852 3.5605366618731926
  endloop
endfacet
facet normal 0.3603481902912925 -3.902921238528342e-12 0.9328178716951077
  outer loop
    vertex -207.7391010840861 288.62864579447864 3.560536662415363
    vertex -207.58239243083375 34.62864579447784 3.4999999999999964
    vertex -207.5823924294861 288.6286457944779 3.5000000005421668
  endloop
endfacet
facet normal 1.1108958756091057e-15 -2.1343362440665727e-12 1.0
  outer loop
    vertex -205.62631922384514 34.628645794472696 1.0000000000000009
    vertex -207.00131922249756 288.62864579448024 1.0000000005421241
    vertex -207.00131922384514 34.62864579448007 1.0000000000000024
  endloop
endfacet
facet normal 1.1108958756091057e-15 -2.1343362440665727e-12 1.0
  outer loop
    vertex -207.00131922249756 288.62864579448024 1.0000000005421241
    vertex -205.62631922384514 34.628645794472696 1.0000000000000009
    vertex -205.62631922249756 288.62864579447285 1.0000000005421223
  endloop
endfacet
facet normal 0.5738166897749509 -1.2963940856266145e-12 -0.8189837645128978
  outer loop
    vertex -208.36981391150144 288.62864579448296 3.0899217096128577
    vertex -208.2919033613482 34.628645794482345 3.144509329360518
    vertex -208.36981391284905 34.6286457944829 3.089921709070687
  endloop
endfacet
facet normal 0.5738166897749509 -1.2963940856266145e-12 -0.8189837645128978
  outer loop
    vertex -208.2919033613482 34.628645794482345 3.144509329360518
    vertex -208.36981391150144 288.62864579448296 3.0899217096128577
    vertex -208.29190336000053 288.62864579448245 3.144509329902689
  endloop
endfacet
facet normal -1.142344370688421e-23 -2.1343358246828687e-12 1.0
  outer loop
    vertex -216.00131922384512 34.628645794527834 1.0000000000000009
    vertex -217.50131922249753 288.628645794536 1.0000000005421223
    vertex -217.50131922384514 34.62864579453587 1.0000000000000009
  endloop
endfacet
facet normal -1.142344370688421e-23 -2.1343358246828687e-12 1.0
  outer loop
    vertex -217.50131922249753 288.628645794536 1.0000000005421223
    vertex -216.00131922384512 34.628645794527834 1.0000000000000009
    vertex -216.0013192224975 288.628645794528 1.0000000005421223
  endloop
endfacet
facet normal 0.2970631407126983 -3.6141988866770064e-12 0.954857837811424
  outer loop
    vertex -207.7391010854337 34.62864579447852 3.5605366618731926
    vertex -207.89951234081477 288.6286457944794 3.610441758066791
    vertex -207.8995123421624 34.62864579447929 3.610441757524621
  endloop
endfacet
facet normal 0.2970631407126983 -3.6141988866770064e-12 0.954857837811424
  outer loop
    vertex -207.89951234081477 288.6286457944794 3.610441758066791
    vertex -207.7391010854337 34.62864579447852 3.5605366618731926
    vertex -207.7391010840861 288.62864579447864 3.560536662415363
  endloop
endfacet
facet normal -0.7686707776666258 2.713041099754364e-12 0.6396446166125254
  outer loop
    vertex -214.4202460167217 60.02864579451534 2.900000000054258
    vertex -216.00131922384512 34.628645794527834 1.0000000000000009
    vertex -214.42024601685654 34.628645794515364 2.8999999999999964
  endloop
endfacet
facet normal -0.7686707776666258 2.713041099754364e-12 0.6396446166125254
  outer loop
    vertex -216.00131922384512 34.628645794527834 1.0000000000000009
    vertex -214.4202460167217 60.02864579451534 2.900000000054258
    vertex -216.0013192224975 288.628645794528 1.0000000005421223
  endloop
endfacet
facet normal -0.7686707776666258 2.713041099754364e-12 0.6396446166125254
  outer loop
    vertex -216.0013192224975 288.628645794528 1.0000000005421223
    vertex -214.4202460167217 60.02864579451534 2.900000000054258
    vertex -214.42024601550887 288.6286457945155 2.900000000542167
  endloop
endfacet
facet normal 0.16678111454028843 -2.9894322005650465e-12 0.9859939451298367
  outer loop
    vertex -208.06290583294867 34.62864579448005 3.649491175266377
    vertex -208.22854779588312 288.628645794481 3.6775095541708724
    vertex -208.22854779723076 34.628645794480875 3.677509553628702
  endloop
endfacet
facet normal 0.16678111454028843 -2.9894322005650465e-12 0.9859939451298367
  outer loop
    vertex -208.22854779588312 288.628645794481 3.6775095541708724
    vertex -208.06290583294867 34.62864579448005 3.649491175266377
    vertex -208.06290583160103 288.6286457944802 3.6494911758085467
  endloop
endfacet
facet normal -0.5547001962252435 4.718925355006521e-12 -0.8320502943378342
  outer loop
    vertex -217.50131922249753 288.628645794536 1.0000000005421223
    vertex -216.00131922384523 34.62864579452996 7.049916206369744e-16
    vertex -217.50131922384514 34.62864579453587 1.0000000000000009
  endloop
endfacet
facet normal -0.5547001962252435 4.718925355006521e-12 -0.8320502943378342
  outer loop
    vertex -216.00131922384523 34.62864579452996 7.049916206369744e-16
    vertex -217.50131922249753 288.628645794536 1.0000000005421223
    vertex -216.00131922249756 288.6286457945301 5.42121636470938e-10
  endloop
endfacet
facet normal 0.4734027209494541 -6.315646908840615e-13 -0.8808461067619323
  outer loop
    vertex -208.21090935243896 288.62864579448194 3.194407556957193
    vertex -208.12711379038367 34.62864579448125 3.2394427190999857
    vertex -208.2109093537866 34.628645794481805 3.1944075564150225
  endloop
endfacet
facet normal 0.4734027209494541 -6.315646908840615e-13 -0.8808461067619323
  outer loop
    vertex -208.12711379038367 34.62864579448125 3.2394427190999857
    vertex -208.21090935243896 288.62864579448194 3.194407556957193
    vertex -208.12711378903603 288.6286457944813 3.239442719642156
  endloop
endfacet
facet normal 0.7090652519324471 -2.256927059745236e-12 -0.7051428709857142
  outer loop
    vertex -208.5823924308337 34.628645794484434 2.8999999999999977
    vertex -208.51531164919973 288.62864579448404 2.9674539199260126
    vertex -208.51531165054735 34.62864579448391 2.9674539193838423
  endloop
endfacet
facet normal 0.7090652519324471 -2.256927059745236e-12 -0.7051428709857142
  outer loop
    vertex -208.51531164919973 288.62864579448404 2.9674539199260126
    vertex -208.5823924308337 34.628645794484434 2.8999999999999977
    vertex -208.58239242948608 288.6286457944845 2.9000000005421684
  endloop
endfacet
facet normal -0.10036920294678076 -1.5911544405779874e-12 0.9949502616210661
  outer loop
    vertex -208.73149553845087 34.62864579448353 3.6943710688658458
    vertex -208.89864211697017 288.62864579448456 3.6775095541708747
    vertex -208.89864211831778 34.628645794484456 3.6775095536287044
  endloop
endfacet
facet normal -0.10036920294678076 -1.5911544405779874e-12 0.9949502616210661
  outer loop
    vertex -208.89864211697017 288.62864579448456 3.6775095541708747
    vertex -208.73149553845087 34.62864579448353 3.6943710688658458
    vertex -208.73149553710326 288.62864579448365 3.694371069408016
  endloop
endfacet
facet normal 0.19683419198629593 1.0483708020917368e-12 -0.980436790856556
  outer loop
    vertex -207.769873734467 288.6286457944792 3.368082740811299
    vertex -207.67660403451256 34.62864579447854 3.3868077274011985
    vertex -207.76987373581466 34.62864579447909 3.368082740269129
  endloop
endfacet
facet normal 0.19683419198629593 1.0483708020917368e-12 -0.980436790856556
  outer loop
    vertex -207.67660403451256 34.62864579447854 3.3868077274011985
    vertex -207.769873734467 288.6286457944792 3.368082740811299
    vertex -207.67660403316495 288.62864579447864 3.386807727943369
  endloop
endfacet
facet normal -0.6662489174934872 5.1263373683080966e-12 -0.7457294281029525
  outer loop
    vertex -214.55826860628213 288.62864579451593 3.0308346886884205
    vertex -214.4873267970081 60.02864579451557 2.9674539194381038
    vertex -214.558268607495 60.02864579451582 3.0308346882005113
  endloop
endfacet
facet normal -0.6662489174934872 5.1263373683080966e-12 -0.7457294281029525
  outer loop
    vertex -214.4873267970081 60.02864579451557 2.9674539194381038
    vertex -214.55826860628213 288.62864579451593 3.0308346886884205
    vertex -214.48732679579524 288.6286457945157 2.9674539199260126
  endloop
endfacet
facet normal -0.7090652519322173 5.266876942947705e-12 -0.7051428709859453
  outer loop
    vertex -214.4873267970081 60.02864579451557 2.9674539194381038
    vertex -214.42024601550887 288.6286457945155 2.900000000542167
    vertex -214.4202460167217 60.02864579451534 2.900000000054258
  endloop
endfacet
facet normal -0.7090652519322173 5.266876942947705e-12 -0.7051428709859453
  outer loop
    vertex -214.42024601550887 288.6286457945155 2.900000000542167
    vertex -214.4873267970081 60.02864579451557 2.9674539194381038
    vertex -214.48732679579524 288.6286457945157 2.9674539199260126
  endloop
endfacet
facet normal 0.25430815553787683 7.150194065506322e-13 -0.9671232403509509
  outer loop
    vertex -207.86187690753343 288.6286457944797 3.3438902115968636
    vertex -207.76987373581466 34.62864579447909 3.368082740269129
    vertex -207.86187690888104 34.62864579447959 3.3438902110546933
  endloop
endfacet
facet normal 0.25430815553787683 7.150194065506322e-13 -0.9671232403509509
  outer loop
    vertex -207.76987373581466 34.62864579447909 3.368082740269129
    vertex -207.86187690753343 288.6286457944797 3.3438902115968636
    vertex -207.769873734467 288.6286457944792 3.368082740811299
  endloop
endfacet
facet normal 0.10036920294688614 -2.6561935319315387e-12 0.9949502616210556
  outer loop
    vertex -208.22854779723076 34.628645794480875 3.677509553628702
    vertex -208.39569437574988 288.6286457944818 3.6943710694080183
    vertex -208.39569437709753 34.62864579448175 3.694371068865848
  endloop
endfacet
facet normal 0.10036920294688614 -2.6561935319315387e-12 0.9949502616210556
  outer loop
    vertex -208.39569437574988 288.6286457944818 3.6943710694080183
    vertex -208.22854779723076 34.628645794480875 3.677509553628702
    vertex -208.22854779588312 288.628645794481 3.6775095541708724
  endloop
endfacet
facet normal 0.6211136989577795 -1.6225704861476741e-12 -0.7837204686410741
  outer loop
    vertex -208.44436983871284 288.6286457944835 3.0308346886884205
    vertex -208.36981391284905 34.6286457944829 3.089921709070687
    vertex -208.44436984006046 34.62864579448342 3.03083468814625
  endloop
endfacet
facet normal 0.6211136989577795 -1.6225704861476741e-12 -0.7837204686410741
  outer loop
    vertex -208.36981391284905 34.6286457944829 3.089921709070687
    vertex -208.44436983871284 288.6286457944835 3.0308346886884205
    vertex -208.36981391150144 288.62864579448296 3.0899217096128577
  endloop
endfacet
facet normal 1.0 -5.305606991596804e-12 -1.0865787482012403e-23
  outer loop
    vertex -207.58239243083375 34.628645794478054 3.399999999999997
    vertex -207.5823924294861 288.6286457944779 3.5000000005421668
    vertex -207.58239243083375 34.62864579447784 3.4999999999999964
  endloop
endfacet
facet normal 1.0 -5.305606991596804e-12 -1.0865787482012403e-23
  outer loop
    vertex -207.5823924294861 288.6286457944779 3.5000000005421668
    vertex -207.58239243083375 34.628645794478054 3.399999999999997
    vertex -207.5823924294861 288.62864579447813 3.4000000005421667
  endloop
endfacet
facet normal -0.36034819029137555 -7.918947906899245e-14 0.9328178716950756
  outer loop
    vertex -209.38808883011484 34.62864579448731 3.5605366618731935
    vertex -209.54479748336712 288.6286457944883 3.500000000542169
    vertex -209.54479748471476 34.62864579448823 3.4999999999999987
  endloop
endfacet
facet normal -0.36034819029137555 -7.918947906899245e-14 0.9328178716950756
  outer loop
    vertex -209.54479748336712 288.6286457944883 3.500000000542169
    vertex -209.38808883011484 34.62864579448731 3.5605366618731935
    vertex -209.3880888287672 288.6286457944874 3.560536662415364
  endloop
endfacet
facet normal 0.033506557591716286 -2.311028338666841e-12 0.9994384976567358
  outer loop
    vertex -208.39569437709753 34.62864579448175 3.694371068865848
    vertex -208.5635949564266 288.6286457944827 3.7000000005421683
    vertex -208.56359495777428 34.62864579448261 3.699999999999998
  endloop
endfacet
facet normal 0.033506557591716286 -2.311028338666841e-12 0.9994384976567358
  outer loop
    vertex -208.5635949564266 288.6286457944827 3.7000000005421683
    vertex -208.39569437709753 34.62864579448175 3.694371068865848
    vertex -208.39569437574988 288.6286457944818 3.6943710694080183
  endloop
endfacet
facet normal 0.5881716976750371 -1.3944621161263706e-12 -0.8087360843031952
  outer loop
    vertex -207.00131922249756 288.62864579448234 5.42121636470938e-10
    vertex -205.62631922384514 34.628645794472696 1.0000000000000009
    vertex -207.0013192238452 34.628645794482196 7.049916206369744e-16
  endloop
endfacet
facet normal 0.5881716976750371 -1.3944621161263706e-12 -0.8087360843031952
  outer loop
    vertex -205.62631922384514 34.628645794472696 1.0000000000000009
    vertex -207.00131922249756 288.62864579448234 5.42121636470938e-10
    vertex -205.62631922249756 288.62864579447285 1.0000000005421223
  endloop
endfacet
facet normal 0.5245225075216737 -9.656725976647158e-13 -0.8513965815665316
  outer loop
    vertex -208.29190336000053 288.62864579448245 3.144509329902689
    vertex -208.2109093537866 34.628645794481805 3.1944075564150225
    vertex -208.2919033613482 34.628645794482345 3.144509329360518
  endloop
endfacet
facet normal 0.5245225075216737 -9.656725976647158e-13 -0.8513965815665316
  outer loop
    vertex -208.2109093537866 34.628645794481805 3.1944075564150225
    vertex -208.29190336000053 288.62864579448245 3.144509329902689
    vertex -208.21090935243896 288.62864579448194 3.194407556957193
  endloop
endfacet
facet normal -0.29706314071245454 -4.619983501401311e-13 0.9548578378114999
  outer loop
    vertex -209.22767757338602 34.62864579448631 3.610441757524619
    vertex -209.3880888287672 288.6286457944874 3.560536662415364
    vertex -209.38808883011484 34.62864579448731 3.5605366618731935
  endloop
endfacet
facet normal -0.29706314071245454 -4.619983501401311e-13 0.9548578378114999
  outer loop
    vertex -209.3880888287672 288.6286457944874 3.560536662415364
    vertex -209.22767757338602 34.62864579448631 3.610441757524619
    vertex -209.22767757203837 288.6286457944864 3.610441758066789
  endloop
endfacet
facet normal 0.7686707776666415 -5.443478148105105e-12 0.6396446166125067
  outer loop
    vertex -207.00131922249756 288.62864579448024 1.0000000005421241
    vertex -208.5823924308337 34.628645794484434 2.8999999999999977
    vertex -207.00131922384514 34.62864579448007 1.0000000000000024
  endloop
endfacet
facet normal 0.7686707776666415 -5.443478148105105e-12 0.6396446166125067
  outer loop
    vertex -208.5823924308337 34.628645794484434 2.8999999999999977
    vertex -207.00131922249756 288.62864579448024 1.0000000005421241
    vertex -208.58239242948608 288.6286457944845 2.9000000005421684
  endloop
endfacet
facet normal 1.1330828919332969e-23 2.134335980124166e-12 -1.0
  outer loop
    vertex -216.00131922249756 288.6286457945301 5.42121636470938e-10
    vertex -211.5013192238452 34.628645794506085 0.0
    vertex -216.00131922384523 34.62864579452996 7.049916206369744e-16
  endloop
endfacet
facet normal 1.1330828919332969e-23 2.134335980124166e-12 -1.0
  outer loop
    vertex -211.5013192238452 34.628645794506085 0.0
    vertex -216.00131922249756 288.6286457945301 5.42121636470938e-10
    vertex -207.00131922249756 288.62864579448234 5.42121636470938e-10
  endloop
endfacet
facet normal 1.1330828919332969e-23 2.134335980124166e-12 -1.0
  outer loop
    vertex -211.5013192238452 34.628645794506085 0.0
    vertex -207.00131922249756 288.62864579448234 5.42121636470938e-10
    vertex -207.0013192238452 34.628645794482196 7.049916206369744e-16
  endloop
endfacet
facet normal -0.4734027209498497 4.391568303821117e-12 -0.8808461067617196
  outer loop
    vertex -214.87552465595883 288.6286457945171 3.2394427196421542
    vertex -214.79172909376885 60.02864579451669 3.194407556469282
    vertex -214.8755246571717 60.02864579451699 3.2394427191542454
  endloop
endfacet
facet normal -0.4734027209498497 4.391568303821117e-12 -0.8808461067617196
  outer loop
    vertex -214.79172909376885 60.02864579451669 3.194407556469282
    vertex -214.87552465595883 288.6286457945171 3.2394427196421542
    vertex -214.79172909255598 288.6286457945168 3.1944075569571915
  endloop
endfacet
facet normal -0.16678111454035296 -1.2196821043745397e-12 0.9859939451298256
  outer loop
    vertex -208.89864211831778 34.628645794484456 3.6775095536287044
    vertex -209.0642840812522 288.6286457944854 3.6494911758085453
    vertex -209.06428408259984 34.62864579448535 3.649491175266375
  endloop
endfacet
facet normal -0.16678111454035296 -1.2196821043745397e-12 0.9859939451298256
  outer loop
    vertex -209.0642840812522 288.6286457944854 3.6494911758085453
    vertex -208.89864211831778 34.628645794484456 3.6775095536287044
    vertex -208.89864211697017 288.62864579448456 3.6775095541708747
  endloop
endfacet
facet normal -3.0549638026350557e-16 -2.1343362440665646e-12 1.0
  outer loop
    vertex -209.00131922384514 34.6286457944907 1.0000000000000024
    vertex -214.0013192224975 288.62864579451735 1.0000000005421223
    vertex -214.00131922384514 34.628645794517205 1.0000000000000009
  endloop
endfacet
facet normal -3.0549638026350557e-16 -2.1343362440665646e-12 1.0
  outer loop
    vertex -214.0013192224975 288.62864579451735 1.0000000005421223
    vertex -209.00131922384514 34.6286457944907 1.0000000000000024
    vertex -209.00131922249756 288.62864579449086 1.0000000005421241
  endloop
endfacet
facet normal -0.6211136989577726 4.967955501209005e-12 -0.7837204686410796
  outer loop
    vertex -214.63282453349353 288.6286457945162 3.0899217096128564
    vertex -214.558268607495 60.02864579451582 3.0308346882005113
    vertex -214.6328245347064 60.02864579451606 3.0899217091249476
  endloop
endfacet
facet normal -0.6211136989577726 4.967955501209005e-12 -0.7837204686410796
  outer loop
    vertex -214.558268607495 60.02864579451582 3.0308346882005113
    vertex -214.63282453349353 288.6286457945162 3.0899217096128564
    vertex -214.55826860628213 288.62864579451593 3.0308346886884205
  endloop
endfacet
facet normal -0.13867514562949712 2.8517994073063826e-12 -0.9903379241373309
  outer loop
    vertex -215.42024601672168 60.028645794519626 3.400000000054256
    vertex -215.3260344131777 34.62864579451912 3.386807727401197
    vertex -215.42024601685654 34.62864579451964 3.399999999999995
  endloop
endfacet
facet normal -0.13867514562949712 2.8517994073063826e-12 -0.9903379241373309
  outer loop
    vertex -215.3260344131777 34.62864579451912 3.386807727401197
    vertex -215.42024601672168 60.028645794519626 3.400000000054256
    vertex -215.3260344130429 60.02864579451911 3.386807727455458
  endloop
endfacet
facet normal -0.31089699774501167 3.6805627425275514e-12 -0.9504436105278095
  outer loop
    vertex -215.1407615386744 60.028645794518205 3.343890211108953
    vertex -215.0503451116768 34.62864579451784 3.3143143420279193
    vertex -215.14076153880922 34.62864579451823 3.343890211054692
  endloop
endfacet
facet normal -0.31089699774501167 3.6805627425275514e-12 -0.9504436105278095
  outer loop
    vertex -215.0503451116768 34.62864579451784 3.3143143420279193
    vertex -215.1407615386744 60.028645794518205 3.343890211108953
    vertex -215.05034511154196 60.02864579451778 3.3143143420821803
  endloop
endfacet
facet normal -0.6211136989577726 4.9709631528122116e-12 -0.7837204686410796
  outer loop
    vertex -214.6328245347064 60.02864579451606 3.0899217091249476
    vertex -214.5582686076298 34.62864579451584 3.03083468814625
    vertex -214.6328245348412 34.62864579451609 3.089921709070686
  endloop
endfacet
facet normal -0.6211136989577726 4.9709631528122116e-12 -0.7837204686410796
  outer loop
    vertex -214.5582686076298 34.62864579451584 3.03083468814625
    vertex -214.6328245347064 60.02864579451606 3.0899217091249476
    vertex -214.558268607495 60.02864579451582 3.0308346882005113
  endloop
endfacet
facet normal -0.19683419198611282 3.1392187680207857e-12 -0.9804367908565926
  outer loop
    vertex -215.3260344130429 60.02864579451911 3.386807727455458
    vertex -215.23276471187552 34.62864579451869 3.3680827402691276
    vertex -215.3260344131777 34.62864579451912 3.386807727401197
  endloop
endfacet
facet normal -0.19683419198611282 3.1392187680207857e-12 -0.9804367908565926
  outer loop
    vertex -215.23276471187552 34.62864579451869 3.3680827402691276
    vertex -215.3260344130429 60.02864579451911 3.386807727455458
    vertex -215.2327647117407 60.02864579451863 3.3680827403233886
  endloop
endfacet
facet normal -0.25430815553811015 3.4158351824286948e-12 -0.9671232403508896
  outer loop
    vertex -215.2327647117407 60.02864579451863 3.3680827403233886
    vertex -215.14076153880922 34.62864579451823 3.343890211054692
    vertex -215.23276471187552 34.62864579451869 3.3680827402691276
  endloop
endfacet
facet normal -0.25430815553811015 3.4158351824286948e-12 -0.9671232403508896
  outer loop
    vertex -215.14076153880922 34.62864579451823 3.343890211054692
    vertex -215.2327647117407 60.02864579451863 3.3680827403233886
    vertex -215.1407615386744 60.028645794518205 3.343890211108953
  endloop
endfacet
facet normal -0.7090652519322173 5.269924766062506e-12 -0.7051428709859452
  outer loop
    vertex -214.4873267971429 34.62864579451558 2.9674539193838423
    vertex -214.4202460167217 60.02864579451534 2.900000000054258
    vertex -214.42024601685654 34.628645794515364 2.8999999999999964
  endloop
endfacet
facet normal -0.7090652519322173 5.269924766062506e-12 -0.7051428709859452
  outer loop
    vertex -214.4202460167217 60.02864579451534 2.900000000054258
    vertex -214.4873267971429 34.62864579451558 2.9674539193838423
    vertex -214.4873267970081 60.02864579451557 2.9674539194381038
  endloop
endfacet
facet normal -0.5738166897753597 4.795764094553682e-12 -0.8189837645126116
  outer loop
    vertex -214.71073508620717 60.028645794516336 3.144509329414779
    vertex -214.6328245348412 34.62864579451609 3.089921709070686
    vertex -214.71073508634203 34.62864579451639 3.1445093293605173
  endloop
endfacet
facet normal -0.5738166897753597 4.795764094553682e-12 -0.8189837645126116
  outer loop
    vertex -214.6328245348412 34.62864579451609 3.089921709070686
    vertex -214.71073508620717 60.028645794516336 3.144509329414779
    vertex -214.6328245347064 60.02864579451606 3.0899217091249476
  endloop
endfacet
facet normal -0.4734027209498496 4.394424643147073e-12 -0.8808461067617196
  outer loop
    vertex -214.8755246571717 60.02864579451699 3.2394427191542454
    vertex -214.79172909390368 34.628645794516736 3.194407556415021
    vertex -214.8755246573065 34.62864579451704 3.239442719099984
  endloop
endfacet
facet normal -0.4734027209498496 4.394424643147073e-12 -0.8808461067617196
  outer loop
    vertex -214.79172909390368 34.628645794516736 3.194407556415021
    vertex -214.8755246571717 60.02864579451699 3.2394427191542454
    vertex -214.79172909376885 60.02864579451669 3.194407556469282
  endloop
endfacet
facet normal -0.5245225075212823 4.6033155594419945e-12 -0.8513965815667729
  outer loop
    vertex -214.79172909376885 60.02864579451669 3.194407556469282
    vertex -214.71073508634203 34.62864579451639 3.1445093293605173
    vertex -214.79172909390368 34.628645794516736 3.194407556415021
  endloop
endfacet
facet normal -0.5245225075212823 4.6033155594419945e-12 -0.8513965815667729
  outer loop
    vertex -214.71073508634203 34.62864579451639 3.1445093293605173
    vertex -214.79172909376885 60.02864579451669 3.194407556469282
    vertex -214.71073508620717 60.028645794516336 3.144509329414779
  endloop
endfacet
facet normal -0.3664037607404598 3.932480089045234e-12 -0.930455954957164
  outer loop
    vertex -215.05034511154196 60.02864579451778 3.3143143420821803
    vertex -214.96183012549625 34.62864579451742 3.2794580722113347
    vertex -215.0503451116768 34.62864579451784 3.3143143420279193
  endloop
endfacet
facet normal -0.3664037607404598 3.932480089045234e-12 -0.930455954957164
  outer loop
    vertex -214.96183012549625 34.62864579451742 3.2794580722113347
    vertex -215.05034511154196 60.02864579451778 3.3143143420821803
    vertex -214.96183012536144 60.028645794517395 3.2794580722655957
  endloop
endfacet
facet normal -0.6662489174934872 5.129370242532887e-12 -0.7457294281029524
  outer loop
    vertex -214.558268607495 60.02864579451582 3.0308346882005113
    vertex -214.4873267971429 34.62864579451558 2.9674539193838423
    vertex -214.5582686076298 34.62864579451584 3.03083468814625
  endloop
endfacet
facet normal -0.6662489174934872 5.129370242532887e-12 -0.7457294281029524
  outer loop
    vertex -214.4873267971429 34.62864579451558 2.9674539193838423
    vertex -214.558268607495 60.02864579451582 3.0308346882005113
    vertex -214.4873267970081 60.02864579451557 2.9674539194381038
  endloop
endfacet
facet normal -0.4206352528396596 4.170710399036502e-12 -0.9072298408168217
  outer loop
    vertex -214.96183012536144 60.028645794517395 3.2794580722655957
    vertex -214.8755246573065 34.62864579451704 3.239442719099984
    vertex -214.96183012549625 34.62864579451742 3.2794580722113347
  endloop
endfacet
facet normal -0.4206352528396596 4.170710399036502e-12 -0.9072298408168217
  outer loop
    vertex -214.8755246573065 34.62864579451704 3.239442719099984
    vertex -214.96183012536144 60.028645794517395 3.2794580722655957
    vertex -214.8755246571717 60.02864579451699 3.2394427191542454
  endloop
endfacet
endsolid v2
