solid v2
facet normal -5.30562156936211e-12 -1.0 -2.13612312416865e-12
  outer loop
    vertex -35.4202460168565 34.62864579451965 3.3999999999999932
    vertex -35.263537362256535 34.62864579451848 3.560536661873189
    vertex -35.420246016856545 34.628645794519436 3.499999999999993
  endloop
endfacet
facet normal -5.30562156936211e-12 -1.0 -2.13612312416865e-12
  outer loop
    vertex -35.263537362256535 34.62864579451848 3.560536661873189
    vertex -35.4202460168565 34.62864579451965 3.3999999999999932
    vertex -35.326034413177666 34.62864579451913 3.386807727401195
  endloop
endfacet
facet normal -5.30562156936211e-12 -1.0 -2.13612312416865e-12
  outer loop
    vertex -35.263537362256535 34.62864579451848 3.560536661873189
    vertex -35.326034413177666 34.62864579451913 3.386807727401195
    vertex -35.232764711875525 34.6286457945187 3.3680827402691254
  endloop
endfacet
facet normal -5.30562156936211e-12 -1.0 -2.13612312416865e-12
  outer loop
    vertex -35.263537362256535 34.62864579451848 3.560536661873189
    vertex -35.232764711875525 34.6286457945187 3.3680827402691254
    vertex -35.10312610552782 34.62864579451752 3.6104417575246175
  endloop
endfacet
facet normal -5.30562156936211e-12 -1.0 -2.13612312416865e-12
  outer loop
    vertex -35.10312610552782 34.62864579451752 3.6104417575246175
    vertex -35.232764711875525 34.6286457945187 3.3680827402691254
    vertex -35.14076153880921 34.62864579451824 3.3438902110546898
  endloop
endfacet
facet normal -5.30562156936211e-12 -1.0 -2.13612312416865e-12
  outer loop
    vertex -35.10312610552782 34.62864579451752 3.6104417575246175
    vertex -35.14076153880921 34.62864579451824 3.3438902110546898
    vertex -35.05034511167678 34.628645794517844 3.314314342027917
  endloop
endfacet
facet normal -5.30562156936211e-12 -1.0 -2.13612312416865e-12
  outer loop
    vertex -35.10312610552782 34.62864579451752 3.6104417575246175
    vertex -35.05034511167678 34.628645794517844 3.314314342027917
    vertex -34.9397326147416 34.62864579451652 3.6494911752663732
  endloop
endfacet
facet normal -5.30562156936211e-12 -1.0 -2.13612312416865e-12
  outer loop
    vertex -34.9397326147416 34.62864579451652 3.6494911752663732
    vertex -35.05034511167678 34.628645794517844 3.314314342027917
    vertex -34.961830125496256 34.62864579451743 3.2794580722113325
  endloop
endfacet
facet normal -5.30562156936211e-12 -1.0 -2.13612312416865e-12
  outer loop
    vertex -34.9397326147416 34.62864579451652 3.6494911752663732
    vertex -34.961830125496256 34.62864579451743 3.2794580722113325
    vertex -34.87552465730651 34.62864579451705 3.239442719099982
  endloop
endfacet
facet normal -5.30562156936211e-12 -1.0 -2.13612312416865e-12
  outer loop
    vertex -34.9397326147416 34.62864579451652 3.6494911752663732
    vertex -34.87552465730651 34.62864579451705 3.239442719099982
    vertex -34.77409065045949 34.628645794515585 3.6775095536286986
  endloop
endfacet
facet normal -5.30562156936211e-12 -1.0 -2.13612312416865e-12
  outer loop
    vertex -34.77409065045949 34.628645794515585 3.6775095536286986
    vertex -34.87552465730651 34.62864579451705 3.239442719099982
    vertex -34.79172909390365 34.62864579451674 3.194407556415019
  endloop
endfacet
facet normal -5.30562156936211e-12 -1.0 -2.13612312416865e-12
  outer loop
    vertex -34.77409065045949 34.628645794515585 3.6775095536286986
    vertex -34.79172909390365 34.62864579451674 3.194407556415019
    vertex -34.71073508634199 34.6286457945164 3.144509329360515
  endloop
endfacet
facet normal -5.30562156936211e-12 -1.0 -2.13612312416865e-12
  outer loop
    vertex -34.77409065045949 34.628645794515585 3.6775095536286986
    vertex -34.71073508634199 34.6286457945164 3.144509329360515
    vertex -34.60694407059272 34.6286457945147 3.6943710688658444
  endloop
endfacet
facet normal -5.30562156936211e-12 -1.0 -2.13612312416865e-12
  outer loop
    vertex -34.60694407059272 34.6286457945147 3.6943710688658444
    vertex -34.71073508634199 34.6286457945164 3.144509329360515
    vertex -34.63282453484121 34.6286457945161 3.089921709070684
  endloop
endfacet
facet normal -5.30562156936211e-12 -1.0 -2.13612312416865e-12
  outer loop
    vertex -34.60694407059272 34.6286457945147 3.6943710688658444
    vertex -34.63282453484121 34.6286457945161 3.089921709070684
    vertex -34.5582686076298 34.628645794515855 3.0308346881462476
  endloop
endfacet
facet normal -5.30562156936211e-12 -1.0 -2.13612312416865e-12
  outer loop
    vertex -34.60694407059272 34.6286457945147 3.6943710688658444
    vertex -34.5582686076298 34.628645794515855 3.0308346881462476
    vertex -34.439043489916024 34.62864579451377 3.699999999999995
  endloop
endfacet
facet normal -5.30562156936211e-12 -1.0 -2.13612312416865e-12
  outer loop
    vertex -34.439043489916024 34.62864579451377 3.699999999999995
    vertex -34.5582686076298 34.628645794515855 3.0308346881462476
    vertex -34.48732679714292 34.62864579451559 2.96745391938384
  endloop
endfacet
facet normal -5.30562156936211e-12 -1.0 -2.13612312416865e-12
  outer loop
    vertex -34.439043489916024 34.62864579451377 3.699999999999995
    vertex -34.48732679714292 34.62864579451559 2.96745391938384
    vertex -34.4202460168565 34.62864579451538 2.899999999999994
  endloop
endfacet
facet normal -5.30562156936211e-12 -1.0 -2.13612312416865e-12
  outer loop
    vertex -34.439043489916024 34.62864579451377 3.699999999999995
    vertex -34.4202460168565 34.62864579451538 2.899999999999994
    vertex -34.271142909239366 34.62864579451292 3.694371068865842
  endloop
endfacet
facet normal -5.30562156936211e-12 -1.0 -2.13612312416865e-12
  outer loop
    vertex -29.001319223845115 34.628645794490716 1.0000000000000002
    vertex -29.388088830114825 34.628645794487326 3.5605366618731913
    vertex -29.544797484714746 34.628645794488236 3.4999999999999964
  endloop
endfacet
facet normal -5.30562156936211e-12 -1.0 -2.13612312416865e-12
  outer loop
    vertex -29.388088830114825 34.628645794487326 3.5605366618731913
    vertex -29.001319223845115 34.628645794490716 1.0000000000000002
    vertex -29.227677573386003 34.62864579448632 3.6104417575246166
  endloop
endfacet
facet normal -5.30562156936211e-12 -1.0 -2.13612312416865e-12
  outer loop
    vertex -29.227677573386003 34.62864579448632 3.6104417575246166
    vertex -29.001319223845115 34.628645794490716 1.0000000000000002
    vertex -29.064284082599826 34.628645794485365 3.6494911752663732
  endloop
endfacet
facet normal -5.30562156936211e-12 -1.0 -2.13612312416865e-12
  outer loop
    vertex -29.064284082599826 34.628645794485365 3.6494911752663732
    vertex -29.001319223845115 34.628645794490716 1.0000000000000002
    vertex -28.89864211831778 34.62864579448447 3.677509553628702
  endloop
endfacet
facet normal -5.30562156936211e-12 -1.0 -2.13612312416865e-12
  outer loop
    vertex -36.001319223845215 34.62864579452997 -1.4099832412739487e-15
    vertex -36.00131922384512 34.62864579452785 0.9999999999999989
    vertex -37.50131922384512 34.628645794535885 0.9999999999999989
  endloop
endfacet
facet normal -5.30562156936211e-12 -1.0 -2.13612312416865e-12
  outer loop
    vertex -36.00131922384512 34.62864579452785 0.9999999999999989
    vertex -36.001319223845215 34.62864579452997 -1.4099832412739487e-15
    vertex -27.001319223845186 34.62864579448221 -1.4099832412739487e-15
  endloop
endfacet
facet normal -5.30562156936211e-12 -1.0 -2.13612312416865e-12
  outer loop
    vertex -36.00131922384512 34.62864579452785 0.9999999999999989
    vertex -27.001319223845186 34.62864579448221 -1.4099832412739487e-15
    vertex -34.00131922384513 34.62864579451721 0.9999999999999989
  endloop
endfacet
facet normal -5.30562156936211e-12 -1.0 -2.13612312416865e-12
  outer loop
    vertex -36.00131922384512 34.62864579452785 0.9999999999999989
    vertex -34.00131922384513 34.62864579451721 0.9999999999999989
    vertex -34.4202460168565 34.62864579451538 2.899999999999994
  endloop
endfacet
facet normal -5.30562156936211e-12 -1.0 -2.13612312416865e-12
  outer loop
    vertex -34.4202460168565 34.62864579451538 2.899999999999994
    vertex -34.00131922384513 34.62864579451721 0.9999999999999989
    vertex -34.271142909239366 34.62864579451292 3.694371068865842
  endloop
endfacet
facet normal -5.30562156936211e-12 -1.0 -2.13612312416865e-12
  outer loop
    vertex -34.271142909239366 34.62864579451292 3.694371068865842
    vertex -34.00131922384513 34.62864579451721 0.9999999999999989
    vertex -34.103996329372464 34.62864579451207 3.677509553628701
  endloop
endfacet
facet normal -5.30562156936211e-12 -1.0 -2.13612312416865e-12
  outer loop
    vertex -34.00131922384513 34.62864579451721 0.9999999999999989
    vertex -27.001319223845186 34.62864579448221 -1.4099832412739487e-15
    vertex -29.001319223845115 34.628645794490716 1.0000000000000002
  endloop
endfacet
facet normal -5.30562156936211e-12 -1.0 -2.13612312416865e-12
  outer loop
    vertex -29.001319223845115 34.628645794490716 1.0000000000000002
    vertex -27.001319223845186 34.62864579448221 -1.4099832412739487e-15
    vertex -28.58239243083367 34.62864579448445 2.899999999999996
  endloop
endfacet
facet normal -5.30562156936211e-12 -1.0 -2.13612312416865e-12
  outer loop
    vertex -29.001319223845115 34.628645794490716 1.0000000000000002
    vertex -28.58239243083367 34.62864579448445 2.899999999999996
    vertex -28.89864211831778 34.62864579448447 3.677509553628702
  endloop
endfacet
facet normal -5.30562156936211e-12 -1.0 -2.13612312416865e-12
  outer loop
    vertex -28.89864211831778 34.62864579448447 3.677509553628702
    vertex -28.58239243083367 34.62864579448445 2.899999999999996
    vertex -28.731495538450876 34.628645794483546 3.694371068865844
  endloop
endfacet
facet normal -5.30562156936211e-12 -1.0 -2.13612312416865e-12
  outer loop
    vertex -28.58239243083367 34.62864579448445 2.899999999999996
    vertex -27.001319223845186 34.62864579448221 -1.4099832412739487e-15
    vertex -27.00131922384512 34.62864579448008 1.0000000000000002
  endloop
endfacet
facet normal -5.30562156936211e-12 -1.0 -2.13612312416865e-12
  outer loop
    vertex -27.00131922384512 34.62864579448008 1.0000000000000002
    vertex -27.001319223845186 34.62864579448221 -1.4099832412739487e-15
    vertex -25.626319223845115 34.62864579447271 0.9999999999999989
  endloop
endfacet
facet normal -5.30562156936211e-12 -1.0 -2.13612312416865e-12
  outer loop
    vertex -28.58239243083367 34.62864579448445 2.899999999999996
    vertex -28.563594957774267 34.62864579448262 3.699999999999996
    vertex -28.731495538450876 34.628645794483546 3.694371068865844
  endloop
endfacet
facet normal -5.30562156936211e-12 -1.0 -2.13612312416865e-12
  outer loop
    vertex -28.563594957774267 34.62864579448262 3.699999999999996
    vertex -28.58239243083367 34.62864579448445 2.899999999999996
    vertex -28.515311650547346 34.62864579448392 2.96745391938384
  endloop
endfacet
facet normal -5.30562156936211e-12 -1.0 -2.13612312416865e-12
  outer loop
    vertex -28.563594957774267 34.62864579448262 3.699999999999996
    vertex -28.515311650547346 34.62864579448392 2.96745391938384
    vertex -28.39569437709752 34.62864579448176 3.6943710688658458
  endloop
endfacet
facet normal -5.30562156936211e-12 -1.0 -2.13612312416865e-12
  outer loop
    vertex -28.39569437709752 34.62864579448176 3.6943710688658458
    vertex -28.515311650547346 34.62864579448392 2.96745391938384
    vertex -28.444369840060464 34.62864579448343 3.0308346881462476
  endloop
endfacet
facet normal -5.30562156936211e-12 -1.0 -2.13612312416865e-12
  outer loop
    vertex -28.39569437709752 34.62864579448176 3.6943710688658458
    vertex -28.444369840060464 34.62864579448343 3.0308346881462476
    vertex -28.369813912849033 34.628645794482914 3.0899217090706848
  endloop
endfacet
facet normal -5.30562156936211e-12 -1.0 -2.13612312416865e-12
  outer loop
    vertex -28.39569437709752 34.62864579448176 3.6943710688658458
    vertex -28.369813912849033 34.628645794482914 3.0899217090706848
    vertex -28.228547797230753 34.62864579448089 3.6775095536287
  endloop
endfacet
facet normal -5.30562156936211e-12 -1.0 -2.13612312416865e-12
  outer loop
    vertex -28.228547797230753 34.62864579448089 3.6775095536287
    vertex -28.369813912849033 34.628645794482914 3.0899217090706848
    vertex -28.291903361348183 34.62864579448236 3.1445093293605164
  endloop
endfacet
facet normal -5.30562156936211e-12 -1.0 -2.13612312416865e-12
  outer loop
    vertex -28.228547797230753 34.62864579448089 3.6775095536287
    vertex -28.291903361348183 34.62864579448236 3.1445093293605164
    vertex -28.210909353786597 34.62864579448182 3.1944075564150203
  endloop
endfacet
facet normal -5.30562156936211e-12 -1.0 -2.13612312416865e-12
  outer loop
    vertex -28.228547797230753 34.62864579448089 3.6775095536287
    vertex -28.210909353786597 34.62864579448182 3.1944075564150203
    vertex -28.062905832948637 34.628645794480065 3.6494911752663746
  endloop
endfacet
facet normal -5.30562156936211e-12 -1.0 -2.13612312416865e-12
  outer loop
    vertex -28.062905832948637 34.628645794480065 3.6494911752663746
    vertex -28.210909353786597 34.62864579448182 3.1944075564150203
    vertex -28.127113790383667 34.62864579448126 3.2394427190999835
  endloop
endfacet
facet normal -5.30562156936211e-12 -1.0 -2.13612312416865e-12
  outer loop
    vertex -28.062905832948637 34.628645794480065 3.6494911752663746
    vertex -28.127113790383667 34.62864579448126 3.2394427190999835
    vertex -28.04080832219399 34.62864579448071 3.2794580722113342
  endloop
endfacet
facet normal -5.30562156936211e-12 -1.0 -2.13612312416865e-12
  outer loop
    vertex -28.062905832948637 34.628645794480065 3.6494911752663746
    vertex -28.04080832219399 34.62864579448071 3.2794580722113342
    vertex -27.899512342162396 34.628645794479304 3.610441757524619
  endloop
endfacet
facet normal -5.30562156936211e-12 -1.0 -2.13612312416865e-12
  outer loop
    vertex -27.899512342162396 34.628645794479304 3.610441757524619
    vertex -28.04080832219399 34.62864579448071 3.2794580722113342
    vertex -27.952293336013394 34.62864579448019 3.314314342027918
  endloop
endfacet
facet normal -5.30562156936211e-12 -1.0 -2.13612312416865e-12
  outer loop
    vertex -27.899512342162396 34.628645794479304 3.610441757524619
    vertex -27.952293336013394 34.62864579448019 3.314314342027918
    vertex -27.86187690888103 34.6286457944796 3.343890211054691
  endloop
endfacet
facet normal -5.30562156936211e-12 -1.0 -2.13612312416865e-12
  outer loop
    vertex -27.899512342162396 34.628645794479304 3.610441757524619
    vertex -27.86187690888103 34.6286457944796 3.343890211054691
    vertex -27.73910108543371 34.62864579447854 3.560536661873191
  endloop
endfacet
facet normal -5.30562156936211e-12 -1.0 -2.13612312416865e-12
  outer loop
    vertex -27.73910108543371 34.62864579447854 3.560536661873191
    vertex -27.86187690888103 34.6286457944796 3.343890211054691
    vertex -27.769873735814645 34.628645794479105 3.3680827402691267
  endloop
endfacet
facet normal -5.30562156936211e-12 -1.0 -2.13612312416865e-12
  outer loop
    vertex -27.73910108543371 34.62864579447854 3.560536661873191
    vertex -27.769873735814645 34.628645794479105 3.3680827402691267
    vertex -27.67660403451257 34.628645794478544 3.3868077274011963
  endloop
endfacet
facet normal -5.30562156936211e-12 -1.0 -2.13612312416865e-12
  outer loop
    vertex -27.73910108543371 34.62864579447854 3.560536661873191
    vertex -27.67660403451257 34.628645794478544 3.3868077274011963
    vertex -27.582392430833742 34.628645794477855 3.4999999999999942
  endloop
endfacet
facet normal -5.30562156936211e-12 -1.0 -2.13612312416865e-12
  outer loop
    vertex -27.582392430833742 34.628645794477855 3.4999999999999942
    vertex -27.67660403451257 34.628645794478544 3.3868077274011963
    vertex -27.582392430833742 34.62864579447807 3.3999999999999946
  endloop
endfacet
facet normal -5.30562156936211e-12 -1.0 -2.13612312416865e-12
  outer loop
    vertex -34.00131922384513 34.62864579451721 0.9999999999999989
    vertex -33.93835436509042 34.6286457945112 3.649491175266371
    vertex -34.103996329372464 34.62864579451207 3.677509553628701
  endloop
endfacet
facet normal -5.30562156936211e-12 -1.0 -2.13612312416865e-12
  outer loop
    vertex -33.93835436509042 34.6286457945112 3.649491175266371
    vertex -34.00131922384513 34.62864579451721 0.9999999999999989
    vertex -33.457840962975496 34.62864579450896 3.499999999999995
  endloop
endfacet
facet normal -5.30562156936211e-12 -1.0 -2.13612312416865e-12
  outer loop
    vertex -33.93835436509042 34.6286457945112 3.649491175266371
    vertex -33.457840962975496 34.62864579450896 3.499999999999995
    vertex -33.77496087430422 34.62864579451043 3.6104417575246153
  endloop
endfacet
facet normal -5.30562156936211e-12 -1.0 -2.13612312416865e-12
  outer loop
    vertex -33.77496087430422 34.62864579451043 3.6104417575246153
    vertex -33.457840962975496 34.62864579450896 3.499999999999995
    vertex -33.61454961757542 34.628645794509715 3.5605366618731886
  endloop
endfacet
facet normal 5.3060239116850186e-12 1.0 2.1559632252349204e-12
  outer loop
    vertex -35.2635373621217 60.028645794518454 3.5605366619274506
    vertex -35.42024601672167 60.028645794519626 3.4000000000542543
    vertex -35.42024601672172 60.0286457945194 3.500000000054254
  endloop
endfacet
facet normal 5.3060239116850186e-12 1.0 2.1559632252349204e-12
  outer loop
    vertex -35.42024601672167 60.028645794519626 3.4000000000542543
    vertex -35.2635373621217 60.028645794518454 3.5605366619274506
    vertex -35.32603441304286 60.02864579451911 3.386807727455456
  endloop
endfacet
facet normal 5.3060239116850186e-12 1.0 2.1559632252349204e-12
  outer loop
    vertex -35.32603441304286 60.02864579451911 3.386807727455456
    vertex -35.2635373621217 60.028645794518454 3.5605366619274506
    vertex -35.2327647117407 60.02864579451866 3.3680827403233864
  endloop
endfacet
facet normal 5.3060239116850186e-12 1.0 2.1559632252349204e-12
  outer loop
    vertex -35.2327647117407 60.02864579451866 3.3680827403233864
    vertex -35.2635373621217 60.028645794518454 3.5605366619274506
    vertex -35.10312610539302 60.02864579451746 3.6104417575788785
  endloop
endfacet
facet normal 5.3060239116850186e-12 1.0 2.1559632252349204e-12
  outer loop
    vertex -35.2327647117407 60.02864579451866 3.3680827403233864
    vertex -35.10312610539302 60.02864579451746 3.6104417575788785
    vertex -35.140761538674404 60.028645794518205 3.343890211108951
  endloop
endfacet
facet normal 5.3060239116850186e-12 1.0 2.1559632252349204e-12
  outer loop
    vertex -35.140761538674404 60.028645794518205 3.343890211108951
    vertex -35.10312610539302 60.02864579451746 3.6104417575788785
    vertex -35.05034511154195 60.0286457945178 3.314314342082178
  endloop
endfacet
facet normal 5.3060239116850186e-12 1.0 2.1559632252349204e-12
  outer loop
    vertex -35.05034511154195 60.0286457945178 3.314314342082178
    vertex -35.10312610539302 60.02864579451746 3.6104417575788785
    vertex -34.9397326146068 60.02864579451649 3.6494911753206343
  endloop
endfacet
facet normal 5.3060239116850186e-12 1.0 2.1559632252349204e-12
  outer loop
    vertex -35.05034511154195 60.0286457945178 3.314314342082178
    vertex -34.9397326146068 60.02864579451649 3.6494911753206343
    vertex -34.96183012536145 60.028645794517395 3.279458072265594
  endloop
endfacet
facet normal 5.3060239116850186e-12 1.0 2.1559632252349204e-12
  outer loop
    vertex -34.96183012536145 60.028645794517395 3.279458072265594
    vertex -34.9397326146068 60.02864579451649 3.6494911753206343
    vertex -34.8755246571717 60.02864579451701 3.239442719154243
  endloop
endfacet
facet normal 5.3060239116850186e-12 1.0 2.1559632252349204e-12
  outer loop
    vertex -34.8755246571717 60.02864579451701 3.239442719154243
    vertex -34.9397326146068 60.02864579451649 3.6494911753206343
    vertex -34.77409065032466 60.02864579451557 3.6775095536829596
  endloop
endfacet
facet normal 5.3060239116850186e-12 1.0 2.1559632252349204e-12
  outer loop
    vertex -34.8755246571717 60.02864579451701 3.239442719154243
    vertex -34.77409065032466 60.02864579451557 3.6775095536829596
    vertex -34.791729093768836 60.02864579451669 3.19440755646928
  endloop
endfacet
facet normal 5.3060239116850186e-12 1.0 2.1559632252349204e-12
  outer loop
    vertex -34.791729093768836 60.02864579451669 3.19440755646928
    vertex -34.77409065032466 60.02864579451557 3.6775095536829596
    vertex -34.710735086207166 60.02864579451636 3.1445093294147766
  endloop
endfacet
facet normal 5.3060239116850186e-12 1.0 2.1559632252349204e-12
  outer loop
    vertex -34.710735086207166 60.02864579451636 3.1445093294147766
    vertex -34.77409065032466 60.02864579451557 3.6775095536829596
    vertex -34.606944070457914 60.02864579451467 3.6943710689201055
  endloop
endfacet
facet normal 5.3060239116850186e-12 1.0 2.1559632252349204e-12
  outer loop
    vertex -34.710735086207166 60.02864579451636 3.1445093294147766
    vertex -34.606944070457914 60.02864579451467 3.6943710689201055
    vertex -34.63282453470641 60.02864579451609 3.0899217091249453
  endloop
endfacet
facet normal 5.3060239116850186e-12 1.0 2.1559632252349204e-12
  outer loop
    vertex -34.63282453470641 60.02864579451609 3.0899217091249453
    vertex -34.606944070457914 60.02864579451467 3.6943710689201055
    vertex -34.55826860749497 60.02864579451584 3.030834688200509
  endloop
endfacet
facet normal 5.3060239116850186e-12 1.0 2.1559632252349204e-12
  outer loop
    vertex -34.55826860749497 60.02864579451584 3.030834688200509
    vertex -34.606944070457914 60.02864579451467 3.6943710689201055
    vertex -34.43904348978119 60.028645794513764 3.700000000054256
  endloop
endfacet
facet normal 5.3060239116850186e-12 1.0 2.1559632252349204e-12
  outer loop
    vertex -34.55826860749497 60.02864579451584 3.030834688200509
    vertex -34.43904348978119 60.028645794513764 3.700000000054256
    vertex -34.48732679700809 60.02864579451557 2.9674539194381016
  endloop
endfacet
facet normal 5.3060239116850186e-12 1.0 2.1559632252349204e-12
  outer loop
    vertex -34.48732679700809 60.02864579451557 2.9674539194381016
    vertex -34.43904348978119 60.028645794513764 3.700000000054256
    vertex -34.4202460167217 60.02864579451536 2.9000000000542556
  endloop
endfacet
facet normal 5.3060239116850186e-12 1.0 2.1559632252349204e-12
  outer loop
    vertex -34.4202460167217 60.02864579451536 2.9000000000542556
    vertex -34.43904348978119 60.028645794513764 3.700000000054256
    vertex -34.271142909104555 60.02864579451288 3.6943710689201037
  endloop
endfacet
facet normal 5.3060239116850186e-12 1.0 2.1559632252349204e-12
  outer loop
    vertex -33.93835436495561 60.028645794511164 3.649491175320632
    vertex -34.00131922371036 60.02864579451724 1.0000000000542109
    vertex -34.10399632923763 60.028645794512045 3.677509553682962
  endloop
endfacet
facet normal 5.3060239116850186e-12 1.0 2.1559632252349204e-12
  outer loop
    vertex -34.00131922371036 60.02864579451724 1.0000000000542109
    vertex -33.93835436495561 60.028645794511164 3.649491175320632
    vertex -33.457840962840685 60.02864579450891 3.500000000054256
  endloop
endfacet
facet normal 5.3060239116850186e-12 1.0 2.1559632252349204e-12
  outer loop
    vertex -33.457840962840685 60.02864579450891 3.500000000054256
    vertex -33.93835436495561 60.028645794511164 3.649491175320632
    vertex -33.77496087416941 60.0286457945104 3.6104417575788763
  endloop
endfacet
facet normal 5.3060239116850186e-12 1.0 2.1559632252349204e-12
  outer loop
    vertex -33.457840962840685 60.02864579450891 3.500000000054256
    vertex -33.77496087416941 60.0286457945104 3.6104417575788763
    vertex -33.61454961744058 60.02864579450968 3.5605366619274497
  endloop
endfacet
facet normal 5.3060239116850186e-12 1.0 2.1559632252349204e-12
  outer loop
    vertex -29.38808882998002 60.028645794487275 3.5605366619274523
    vertex -29.001319223710375 60.02864579449073 1.0000000000542126
    vertex -29.544797484579963 60.02864579448823 3.5000000000542575
  endloop
endfacet
facet normal 5.3060239116850186e-12 1.0 2.1559632252349204e-12
  outer loop
    vertex -29.001319223710375 60.02864579449073 1.0000000000542126
    vertex -29.38808882998002 60.028645794487275 3.5605366619274523
    vertex -29.22767757325122 60.02864579448626 3.6104417575788776
  endloop
endfacet
facet normal 5.3060239116850186e-12 1.0 2.1559632252349204e-12
  outer loop
    vertex -29.001319223710375 60.02864579449073 1.0000000000542126
    vertex -29.22767757325122 60.02864579448626 3.6104417575788776
    vertex -29.064284082465043 60.028645794485314 3.6494911753206343
  endloop
endfacet
facet normal 5.3060239116850186e-12 1.0 2.1559632252349204e-12
  outer loop
    vertex -29.001319223710375 60.02864579449073 1.0000000000542126
    vertex -29.064284082465043 60.028645794485314 3.6494911753206343
    vertex -28.898642118182973 60.02864579448443 3.677509553682963
  endloop
endfacet
facet normal 5.3060239116850186e-12 1.0 2.1559632252349204e-12
  outer loop
    vertex -28.56359495763946 60.028645794482586 3.700000000054257
    vertex -28.58239243069889 60.02864579448439 2.9000000000542574
    vertex -28.731495538316093 60.02864579448353 3.694371068920105
  endloop
endfacet
facet normal 5.3060239116850186e-12 1.0 2.1559632252349204e-12
  outer loop
    vertex -28.58239243069889 60.02864579448439 2.9000000000542574
    vertex -28.56359495763946 60.028645794482586 3.700000000054257
    vertex -28.515311650412542 60.02864579448389 2.9674539194381016
  endloop
endfacet
facet normal 5.3060239116850186e-12 1.0 2.1559632252349204e-12
  outer loop
    vertex -28.515311650412542 60.02864579448389 2.9674539194381016
    vertex -28.56359495763946 60.028645794482586 3.700000000054257
    vertex -28.395694376962737 60.028645794481726 3.694371068920107
  endloop
endfacet
facet normal 5.3060239116850186e-12 1.0 2.1559632252349204e-12
  outer loop
    vertex -28.515311650412542 60.02864579448389 2.9674539194381016
    vertex -28.395694376962737 60.028645794481726 3.694371068920107
    vertex -28.444369839925656 60.028645794483396 3.030834688200509
  endloop
endfacet
facet normal 5.3060239116850186e-12 1.0 2.1559632252349204e-12
  outer loop
    vertex -28.444369839925656 60.028645794483396 3.030834688200509
    vertex -28.395694376962737 60.028645794481726 3.694371068920107
    vertex -28.36981391271425 60.028645794482856 3.0899217091249462
  endloop
endfacet
facet normal 5.3060239116850186e-12 1.0 2.1559632252349204e-12
  outer loop
    vertex -28.36981391271425 60.028645794482856 3.0899217091249462
    vertex -28.395694376962737 60.028645794481726 3.694371068920107
    vertex -28.228547797095946 60.028645794480845 3.6775095536829614
  endloop
endfacet
facet normal 5.3060239116850186e-12 1.0 2.1559632252349204e-12
  outer loop
    vertex -28.36981391271425 60.028645794482856 3.0899217091249462
    vertex -28.228547797095946 60.028645794480845 3.6775095536829614
    vertex -28.291903361213375 60.02864579448234 3.144509329414778
  endloop
endfacet
facet normal 5.3060239116850186e-12 1.0 2.1559632252349204e-12
  outer loop
    vertex -28.291903361213375 60.02864579448234 3.144509329414778
    vertex -28.228547797095946 60.028645794480845 3.6775095536829614
    vertex -28.210909353651815 60.0286457944818 3.1944075564692818
  endloop
endfacet
facet normal 5.3060239116850186e-12 1.0 2.1559632252349204e-12
  outer loop
    vertex -28.210909353651815 60.0286457944818 3.1944075564692818
    vertex -28.228547797095946 60.028645794480845 3.6775095536829614
    vertex -28.062905832813854 60.02864579448001 3.6494911753206356
  endloop
endfacet
facet normal 5.3060239116850186e-12 1.0 2.1559632252349204e-12
  outer loop
    vertex -28.210909353651815 60.0286457944818 3.1944075564692818
    vertex -28.062905832813854 60.02864579448001 3.6494911753206356
    vertex -28.127113790248863 60.02864579448121 3.2394427191542445
  endloop
endfacet
facet normal 5.3060239116850186e-12 1.0 2.1559632252349204e-12
  outer loop
    vertex -28.127113790248863 60.02864579448121 3.2394427191542445
    vertex -28.062905832813854 60.02864579448001 3.6494911753206356
    vertex -28.040808322059206 60.02864579448067 3.2794580722655953
  endloop
endfacet
facet normal 5.3060239116850186e-12 1.0 2.1559632252349204e-12
  outer loop
    vertex -28.040808322059206 60.02864579448067 3.2794580722655953
    vertex -28.062905832813854 60.02864579448001 3.6494911753206356
    vertex -27.899512342027613 60.02864579447929 3.61044175757888
  endloop
endfacet
facet normal 5.3060239116850186e-12 1.0 2.1559632252349204e-12
  outer loop
    vertex -28.040808322059206 60.02864579448067 3.2794580722655953
    vertex -27.899512342027613 60.02864579447929 3.61044175757888
    vertex -27.952293335878586 60.02864579448017 3.314314342082179
  endloop
endfacet
facet normal 5.3060239116850186e-12 1.0 2.1559632252349204e-12
  outer loop
    vertex -27.952293335878586 60.02864579448017 3.314314342082179
    vertex -27.899512342027613 60.02864579447929 3.61044175757888
    vertex -27.861876908746247 60.02864579447958 3.343890211108952
  endloop
endfacet
facet normal 5.3060239116850186e-12 1.0 2.1559632252349204e-12
  outer loop
    vertex -27.861876908746247 60.02864579447958 3.343890211108952
    vertex -27.899512342027613 60.02864579447929 3.61044175757888
    vertex -27.739101085298902 60.0286457944785 3.560536661927452
  endloop
endfacet
facet normal 5.3060239116850186e-12 1.0 2.1559632252349204e-12
  outer loop
    vertex -27.861876908746247 60.02864579447958 3.343890211108952
    vertex -27.739101085298902 60.0286457944785 3.560536661927452
    vertex -27.76987373567984 60.02864579447909 3.3680827403233877
  endloop
endfacet
facet normal 5.3060239116850186e-12 1.0 2.1559632252349204e-12
  outer loop
    vertex -27.76987373567984 60.02864579447909 3.3680827403233877
    vertex -27.739101085298902 60.0286457944785 3.560536661927452
    vertex -27.67660403437779 60.0286457944785 3.3868077274554573
  endloop
endfacet
facet normal 5.3060239116850186e-12 1.0 2.1559632252349204e-12
  outer loop
    vertex -27.67660403437779 60.0286457944785 3.3868077274554573
    vertex -27.739101085298902 60.0286457944785 3.560536661927452
    vertex -27.582392430698935 60.028645794477804 3.5000000000542553
  endloop
endfacet
facet normal 5.3060239116850186e-12 1.0 2.1559632252349204e-12
  outer loop
    vertex -27.67660403437779 60.0286457944785 3.3868077274554573
    vertex -27.582392430698935 60.028645794477804 3.5000000000542553
    vertex -27.582392430698935 60.028645794478024 3.4000000000542556
  endloop
endfacet
facet normal 5.3060239116850186e-12 1.0 2.1559632252349204e-12
  outer loop
    vertex -36.00131922371036 60.02864579452786 1.0000000000542109
    vertex -36.00131922371039 60.02864579452998 5.4210330668880147e-11
    vertex -37.50131922371036 60.02864579453589 1.0000000000542109
  endloop
endfacet
facet normal 5.3060239116850186e-12 1.0 2.1559632252349204e-12
  outer loop
    vertex -36.00131922371039 60.02864579452998 5.4210330668880147e-11
    vertex -36.00131922371036 60.02864579452786 1.0000000000542109
    vertex -27.00131922371038 60.02864579448222 5.4210330668880147e-11
  endloop
endfacet
facet normal 5.3060239116850186e-12 1.0 2.1559632252349204e-12
  outer loop
    vertex -27.00131922371038 60.02864579448222 5.4210330668880147e-11
    vertex -36.00131922371036 60.02864579452786 1.0000000000542109
    vertex -34.00131922371036 60.02864579451724 1.0000000000542109
  endloop
endfacet
facet normal 5.3060239116850186e-12 1.0 2.1559632252349204e-12
  outer loop
    vertex -34.00131922371036 60.02864579451724 1.0000000000542109
    vertex -36.00131922371036 60.02864579452786 1.0000000000542109
    vertex -34.4202460167217 60.02864579451536 2.9000000000542556
  endloop
endfacet
facet normal 5.3060239116850186e-12 1.0 2.1559632252349204e-12
  outer loop
    vertex -34.00131922371036 60.02864579451724 1.0000000000542109
    vertex -34.4202460167217 60.02864579451536 2.9000000000542556
    vertex -34.271142909104555 60.02864579451288 3.6943710689201037
  endloop
endfacet
facet normal 5.3060239116850186e-12 1.0 2.1559632252349204e-12
  outer loop
    vertex -34.00131922371036 60.02864579451724 1.0000000000542109
    vertex -34.271142909104555 60.02864579451288 3.6943710689201037
    vertex -34.10399632923763 60.028645794512045 3.677509553682962
  endloop
endfacet
facet normal 5.3060239116850186e-12 1.0 2.1559632252349204e-12
  outer loop
    vertex -27.00131922371038 60.02864579448222 5.4210330668880147e-11
    vertex -34.00131922371036 60.02864579451724 1.0000000000542109
    vertex -29.001319223710375 60.02864579449073 1.0000000000542126
  endloop
endfacet
facet normal 5.3060239116850186e-12 1.0 2.1559632252349204e-12
  outer loop
    vertex -27.00131922371038 60.02864579448222 5.4210330668880147e-11
    vertex -29.001319223710375 60.02864579449073 1.0000000000542126
    vertex -28.58239243069889 60.02864579448439 2.9000000000542574
  endloop
endfacet
facet normal 5.3060239116850186e-12 1.0 2.1559632252349204e-12
  outer loop
    vertex -28.58239243069889 60.02864579448439 2.9000000000542574
    vertex -29.001319223710375 60.02864579449073 1.0000000000542126
    vertex -28.898642118182973 60.02864579448443 3.677509553682963
  endloop
endfacet
facet normal 5.3060239116850186e-12 1.0 2.1559632252349204e-12
  outer loop
    vertex -28.58239243069889 60.02864579448439 2.9000000000542574
    vertex -28.898642118182973 60.02864579448443 3.677509553682963
    vertex -28.731495538316093 60.02864579448353 3.694371068920105
  endloop
endfacet
facet normal 5.3060239116850186e-12 1.0 2.1559632252349204e-12
  outer loop
    vertex -27.00131922371038 60.02864579448222 5.4210330668880147e-11
    vertex -28.58239243069889 60.02864579448439 2.9000000000542574
    vertex -27.00131922371038 60.028645794480106 1.0000000000542126
  endloop
endfacet
facet normal 5.3060239116850186e-12 1.0 2.1559632252349204e-12
  outer loop
    vertex -27.00131922371038 60.02864579448222 5.4210330668880147e-11
    vertex -27.00131922371038 60.028645794480106 1.0000000000542126
    vertex -25.62631922371038 60.02864579447272 1.0000000000542109
  endloop
endfacet
facet normal -0.9771763639227983 5.638000807439999e-12 -0.212429644331056
  outer loop
    vertex -29.001319223710375 60.02864579449073 1.0000000000542126
    vertex -29.544797484714746 34.628645794488236 3.4999999999999964
    vertex -29.544797484579963 60.02864579448823 3.5000000000542575
  endloop
endfacet
facet normal -0.9771763639227983 5.638000807439999e-12 -0.212429644331056
  outer loop
    vertex -29.544797484714746 34.628645794488236 3.4999999999999964
    vertex -29.001319223710375 60.02864579449073 1.0000000000542126
    vertex -29.001319223845115 34.628645794490716 1.0000000000000002
  endloop
endfacet
facet normal 0.9771763639227935 -4.732389654082431e-12 -0.21242964433107858
  outer loop
    vertex -33.457840962975496 34.62864579450896 3.499999999999995
    vertex -34.00131922371036 60.02864579451724 1.0000000000542109
    vertex -33.457840962840685 60.02864579450891 3.500000000054256
  endloop
endfacet
facet normal 0.9771763639227935 -4.732389654082431e-12 -0.21242964433107858
  outer loop
    vertex -34.00131922371036 60.02864579451724 1.0000000000542109
    vertex -33.457840962975496 34.62864579450896 3.499999999999995
    vertex -34.00131922384513 34.62864579451721 0.9999999999999989
  endloop
endfacet
facet normal 0.3603481902914313 -3.905056145555665e-12 0.9328178716950541
  outer loop
    vertex -33.457840962840685 60.02864579450891 3.500000000054256
    vertex -33.61454961757542 34.628645794509715 3.5605366618731886
    vertex -33.457840962975496 34.62864579450896 3.499999999999995
  endloop
endfacet
facet normal 0.3603481902914313 -3.905056145555665e-12 0.9328178716950541
  outer loop
    vertex -33.61454961757542 34.628645794509715 3.5605366618731886
    vertex -33.457840962840685 60.02864579450891 3.500000000054256
    vertex -33.61454961744058 60.02864579450968 3.5605366619274497
  endloop
endfacet
facet normal 0.2970631407124357 -3.6163544258267615e-12 0.9548578378115057
  outer loop
    vertex -33.61454961757542 34.628645794509715 3.5605366618731886
    vertex -33.77496087416941 60.0286457945104 3.6104417575788763
    vertex -33.77496087430422 34.62864579451043 3.6104417575246153
  endloop
endfacet
facet normal 0.2970631407124357 -3.6163544258267615e-12 0.9548578378115057
  outer loop
    vertex -33.77496087416941 60.0286457945104 3.6104417575788763
    vertex -33.61454961757542 34.628645794509715 3.5605366618731886
    vertex -33.61454961744058 60.02864579450968 3.5605366619274497
  endloop
endfacet
facet normal 0.23244405257509468 -3.3114125349540025e-12 0.972609768829445
  outer loop
    vertex -33.77496087430422 34.62864579451043 3.6104417575246153
    vertex -33.93835436495561 60.028645794511164 3.649491175320632
    vertex -33.93835436509042 34.6286457945112 3.649491175266371
  endloop
endfacet
facet normal 0.23244405257509468 -3.3114125349540025e-12 0.972609768829445
  outer loop
    vertex -33.93835436495561 60.028645794511164 3.649491175320632
    vertex -33.77496087430422 34.62864579451043 3.6104417575246153
    vertex -33.77496087416941 60.0286457945104 3.6104417575788763
  endloop
endfacet
facet normal 0.16678111454038028 -2.9915998930505744e-12 0.9859939451298211
  outer loop
    vertex -33.93835436495561 60.028645794511164 3.649491175320632
    vertex -34.103996329372464 34.62864579451207 3.677509553628701
    vertex -33.93835436509042 34.6286457945112 3.649491175266371
  endloop
endfacet
facet normal 0.16678111454038028 -2.9915998930505744e-12 0.9859939451298211
  outer loop
    vertex -34.103996329372464 34.62864579451207 3.677509553628701
    vertex -33.93835436495561 60.028645794511164 3.649491175320632
    vertex -34.10399632923763 60.028645794512045 3.677509553682962
  endloop
endfacet
facet normal 0.10036920294675858 -2.6583527011707944e-12 0.9949502616210685
  outer loop
    vertex -34.10399632923763 60.028645794512045 3.677509553682962
    vertex -34.271142909239366 34.62864579451292 3.694371068865842
    vertex -34.103996329372464 34.62864579451207 3.677509553628701
  endloop
endfacet
facet normal 0.10036920294675858 -2.6583527011707944e-12 0.9949502616210685
  outer loop
    vertex -34.271142909239366 34.62864579451292 3.694371068865842
    vertex -34.10399632923763 60.028645794512045 3.677509553682962
    vertex -34.271142909104555 60.02864579451288 3.6943710689201037
  endloop
endfacet
facet normal 0.03350655759175714 -2.3131674916783442e-12 0.9994384976567345
  outer loop
    vertex -34.271142909239366 34.62864579451292 3.694371068865842
    vertex -34.43904348978119 60.028645794513764 3.700000000054256
    vertex -34.439043489916024 34.62864579451377 3.699999999999995
  endloop
endfacet
facet normal 0.03350655759175714 -2.3131674916783442e-12 0.9994384976567345
  outer loop
    vertex -34.43904348978119 60.028645794513764 3.700000000054256
    vertex -34.271142909239366 34.62864579451292 3.694371068865842
    vertex -34.271142909104555 60.02864579451288 3.6943710689201037
  endloop
endfacet
facet normal -0.03350655759172219 -1.957594407676794e-12 0.9994384976567356
  outer loop
    vertex -34.43904348978119 60.028645794513764 3.700000000054256
    vertex -34.60694407059272 34.6286457945147 3.6943710688658444
    vertex -34.439043489916024 34.62864579451377 3.699999999999995
  endloop
endfacet
facet normal -0.03350655759172219 -1.957594407676794e-12 0.9994384976567356
  outer loop
    vertex -34.60694407059272 34.6286457945147 3.6943710688658444
    vertex -34.43904348978119 60.028645794513764 3.700000000054256
    vertex -34.606944070457914 60.02864579451467 3.6943710689201055
  endloop
endfacet
facet normal -0.1003692029469 -1.5932302416979321e-12 0.994950261621054
  outer loop
    vertex -34.60694407059272 34.6286457945147 3.6943710688658444
    vertex -34.77409065032466 60.02864579451557 3.6775095536829596
    vertex -34.77409065045949 34.628645794515585 3.6775095536286986
  endloop
endfacet
facet normal -0.1003692029469 -1.5932302416979321e-12 0.994950261621054
  outer loop
    vertex -34.77409065032466 60.02864579451557 3.6775095536829596
    vertex -34.60694407059272 34.6286457945147 3.6943710688658444
    vertex -34.606944070457914 60.02864579451467 3.6943710689201055
  endloop
endfacet
facet normal -0.16678111454024314 -1.2217112648934097e-12 0.9859939451298444
  outer loop
    vertex -34.77409065032466 60.02864579451557 3.6775095536829596
    vertex -34.9397326147416 34.62864579451652 3.6494911752663732
    vertex -34.77409065045949 34.628645794515585 3.6775095536286986
  endloop
endfacet
facet normal -0.16678111454024314 -1.2217112648934097e-12 0.9859939451298444
  outer loop
    vertex -34.9397326147416 34.62864579451652 3.6494911752663732
    vertex -34.77409065032466 60.02864579451557 3.6775095536829596
    vertex -34.9397326146068 60.02864579451649 3.6494911753206343
  endloop
endfacet
facet normal -0.23244405257504405 -8.447058789317972e-13 0.9726097688294573
  outer loop
    vertex -34.9397326146068 60.02864579451649 3.6494911753206343
    vertex -35.10312610552782 34.62864579451752 3.6104417575246175
    vertex -34.9397326147416 34.62864579451652 3.6494911752663732
  endloop
endfacet
facet normal -0.23244405257504405 -8.447058789317972e-13 0.9726097688294573
  outer loop
    vertex -35.10312610552782 34.62864579451752 3.6104417575246175
    vertex -34.9397326146068 60.02864579451649 3.6494911753206343
    vertex -35.10312610539302 60.02864579451746 3.6104417575788785
  endloop
endfacet
facet normal -0.29706314071272477 -4.639071236184908e-13 0.9548578378114159
  outer loop
    vertex -35.10312610539302 60.02864579451746 3.6104417575788785
    vertex -35.263537362256535 34.62864579451848 3.560536661873189
    vertex -35.10312610552782 34.62864579451752 3.6104417575246175
  endloop
endfacet
facet normal -0.29706314071272477 -4.639071236184908e-13 0.9548578378114159
  outer loop
    vertex -35.263537362256535 34.62864579451848 3.560536661873189
    vertex -35.10312610539302 60.02864579451746 3.6104417575788785
    vertex -35.2635373621217 60.028645794518454 3.5605366619274506
  endloop
endfacet
facet normal -0.3603481902911843 -8.102507386360984e-14 0.9328178716951495
  outer loop
    vertex -35.2635373621217 60.028645794518454 3.5605366619274506
    vertex -35.420246016856545 34.628645794519436 3.499999999999993
    vertex -35.263537362256535 34.62864579451848 3.560536661873189
  endloop
endfacet
facet normal -0.3603481902911843 -8.102507386360984e-14 0.9328178716951495
  outer loop
    vertex -35.420246016856545 34.628645794519436 3.499999999999993
    vertex -35.2635373621217 60.028645794518454 3.5605366619274506
    vertex -35.42024601672172 60.0286457945194 3.500000000054254
  endloop
endfacet
facet normal -1.0 5.3060223066497584e-12 -5.474571776509541e-13
  outer loop
    vertex -35.42024601672167 60.028645794519626 3.4000000000542543
    vertex -35.420246016856545 34.628645794519436 3.499999999999993
    vertex -35.42024601672172 60.0286457945194 3.500000000054254
  endloop
endfacet
facet normal -1.0 5.3060223066497584e-12 -5.474571776509541e-13
  outer loop
    vertex -35.420246016856545 34.628645794519436 3.499999999999993
    vertex -35.42024601672167 60.028645794519626 3.4000000000542543
    vertex -35.4202460168565 34.62864579451965 3.3999999999999932
  endloop
endfacet
facet normal -0.13867514562952035 2.8517502565280714e-12 -0.9903379241373277
  outer loop
    vertex -35.4202460168565 34.62864579451965 3.3999999999999932
    vertex -35.32603441304286 60.02864579451911 3.386807727455456
    vertex -35.326034413177666 34.62864579451913 3.386807727401195
  endloop
endfacet
facet normal -0.13867514562952035 2.8517502565280714e-12 -0.9903379241373277
  outer loop
    vertex -35.32603441304286 60.02864579451911 3.386807727455456
    vertex -35.4202460168565 34.62864579451965 3.3999999999999932
    vertex -35.42024601672167 60.028645794519626 3.4000000000542543
  endloop
endfacet
facet normal -0.1968341919861811 3.139188884101521e-12 -0.980436790856579
  outer loop
    vertex -35.32603441304286 60.02864579451911 3.386807727455456
    vertex -35.232764711875525 34.6286457945187 3.3680827402691254
    vertex -35.326034413177666 34.62864579451913 3.386807727401195
  endloop
endfacet
facet normal -0.1968341919861811 3.139188884101521e-12 -0.980436790856579
  outer loop
    vertex -35.232764711875525 34.6286457945187 3.3680827402691254
    vertex -35.32603441304286 60.02864579451911 3.386807727455456
    vertex -35.2327647117407 60.02864579451866 3.3680827403233864
  endloop
endfacet
facet normal -0.25430815553808317 3.4157015424365313e-12 -0.9671232403508967
  outer loop
    vertex -35.232764711875525 34.6286457945187 3.3680827402691254
    vertex -35.140761538674404 60.028645794518205 3.343890211108951
    vertex -35.14076153880921 34.62864579451824 3.3438902110546898
  endloop
endfacet
facet normal -0.25430815553808317 3.4157015424365313e-12 -0.9671232403508967
  outer loop
    vertex -35.140761538674404 60.028645794518205 3.343890211108951
    vertex -35.232764711875525 34.6286457945187 3.3680827402691254
    vertex -35.2327647117407 60.02864579451866 3.3680827403233864
  endloop
endfacet
facet normal -0.31089699774503493 3.680325827252981e-12 -0.9504436105278019
  outer loop
    vertex -35.140761538674404 60.028645794518205 3.343890211108951
    vertex -35.05034511167678 34.628645794517844 3.314314342027917
    vertex -35.14076153880921 34.62864579451824 3.3438902110546898
  endloop
endfacet
facet normal -0.31089699774503493 3.680325827252981e-12 -0.9504436105278019
  outer loop
    vertex -35.05034511167678 34.628645794517844 3.314314342027917
    vertex -35.140761538674404 60.028645794518205 3.343890211108951
    vertex -35.05034511154195 60.0286457945178 3.314314342082178
  endloop
endfacet
facet normal -0.36640376074043673 3.932140711850984e-12 -0.930455954957173
  outer loop
    vertex -35.05034511167678 34.628645794517844 3.314314342027917
    vertex -34.96183012536145 60.028645794517395 3.279458072265594
    vertex -34.961830125496256 34.62864579451743 3.2794580722113325
  endloop
endfacet
facet normal -0.36640376074043673 3.932140711850984e-12 -0.930455954957173
  outer loop
    vertex -34.96183012536145 60.028645794517395 3.279458072265594
    vertex -35.05034511167678 34.628645794517844 3.314314342027917
    vertex -35.05034511154195 60.0286457945178 3.314314342082178
  endloop
endfacet
facet normal -0.42063525283967196 4.1702697527281095e-12 -0.9072298408168159
  outer loop
    vertex -34.96183012536145 60.028645794517395 3.279458072265594
    vertex -34.87552465730651 34.62864579451705 3.239442719099982
    vertex -34.961830125496256 34.62864579451743 3.2794580722113325
  endloop
endfacet
facet normal -0.42063525283967196 4.1702697527281095e-12 -0.9072298408168159
  outer loop
    vertex -34.87552465730651 34.62864579451705 3.239442719099982
    vertex -34.96183012536145 60.028645794517395 3.279458072265594
    vertex -34.8755246571717 60.02864579451701 3.239442719154243
  endloop
endfacet
facet normal -0.4734027209497278 4.3938841400681185e-12 -0.8808461067617851
  outer loop
    vertex -34.8755246571717 60.02864579451701 3.239442719154243
    vertex -34.79172909390365 34.62864579451674 3.194407556415019
    vertex -34.87552465730651 34.62864579451705 3.239442719099982
  endloop
endfacet
facet normal -0.4734027209497278 4.3938841400681185e-12 -0.8808461067617851
  outer loop
    vertex -34.79172909390365 34.62864579451674 3.194407556415019
    vertex -34.8755246571717 60.02864579451701 3.239442719154243
    vertex -34.791729093768836 60.02864579451669 3.19440755646928
  endloop
endfacet
facet normal -0.5245225075214272 4.602205582400738e-12 -0.8513965815666834
  outer loop
    vertex -34.79172909390365 34.62864579451674 3.194407556415019
    vertex -34.710735086207166 60.02864579451636 3.1445093294147766
    vertex -34.71073508634199 34.6286457945164 3.144509329360515
  endloop
endfacet
facet normal -0.5245225075214272 4.602205582400738e-12 -0.8513965815666834
  outer loop
    vertex -34.710735086207166 60.02864579451636 3.1445093294147766
    vertex -34.79172909390365 34.62864579451674 3.194407556415019
    vertex -34.791729093768836 60.02864579451669 3.19440755646928
  endloop
endfacet
facet normal -0.5738166897753433 4.79450901546959e-12 -0.818983764512623
  outer loop
    vertex -34.710735086207166 60.02864579451636 3.1445093294147766
    vertex -34.63282453484121 34.6286457945161 3.089921709070684
    vertex -34.71073508634199 34.6286457945164 3.144509329360515
  endloop
endfacet
facet normal -0.5738166897753433 4.79450901546959e-12 -0.818983764512623
  outer loop
    vertex -34.63282453484121 34.6286457945161 3.089921709070684
    vertex -34.710735086207166 60.02864579451636 3.1445093294147766
    vertex -34.63282453470641 60.02864579451609 3.0899217091249453
  endloop
endfacet
facet normal -0.6211136989575919 4.9701251258006345e-12 -0.7837204686412228
  outer loop
    vertex -34.63282453470641 60.02864579451609 3.0899217091249453
    vertex -34.5582686076298 34.628645794515855 3.0308346881462476
    vertex -34.63282453484121 34.6286457945161 3.089921709070684
  endloop
endfacet
facet normal -0.6211136989575919 4.9701251258006345e-12 -0.7837204686412228
  outer loop
    vertex -34.5582686076298 34.628645794515855 3.0308346881462476
    vertex -34.63282453470641 60.02864579451609 3.0899217091249453
    vertex -34.55826860749497 60.02864579451584 3.030834688200509
  endloop
endfacet
facet normal -0.6662489174934904 5.128442680280873e-12 -0.7457294281029497
  outer loop
    vertex -34.5582686076298 34.628645794515855 3.0308346881462476
    vertex -34.48732679700809 60.02864579451557 2.9674539194381016
    vertex -34.48732679714292 34.62864579451559 2.96745391938384
  endloop
endfacet
facet normal -0.6662489174934904 5.128442680280873e-12 -0.7457294281029497
  outer loop
    vertex -34.48732679700809 60.02864579451557 2.9674539194381016
    vertex -34.5582686076298 34.628645794515855 3.0308346881462476
    vertex -34.55826860749497 60.02864579451584 3.030834688200509
  endloop
endfacet
facet normal -0.7090652519322939 5.268910653530071e-12 -0.7051428709858683
  outer loop
    vertex -34.4202460167217 60.02864579451536 2.9000000000542556
    vertex -34.48732679714292 34.62864579451559 2.96745391938384
    vertex -34.48732679700809 60.02864579451557 2.9674539194381016
  endloop
endfacet
facet normal -0.7090652519322939 5.268910653530071e-12 -0.7051428709858683
  outer loop
    vertex -34.48732679714292 34.62864579451559 2.96745391938384
    vertex -34.4202460167217 60.02864579451536 2.9000000000542556
    vertex -34.4202460168565 34.62864579451538 2.899999999999994
  endloop
endfacet
facet normal -0.7686707776666225 2.7153587790461685e-12 0.6396446166125297
  outer loop
    vertex -36.00131922371036 60.02864579452786 1.0000000000542109
    vertex -34.4202460168565 34.62864579451538 2.899999999999994
    vertex -34.4202460167217 60.02864579451536 2.9000000000542556
  endloop
endfacet
facet normal -0.7686707776666225 2.7153587790461685e-12 0.6396446166125297
  outer loop
    vertex -34.4202460168565 34.62864579451538 2.899999999999994
    vertex -36.00131922371036 60.02864579452786 1.0000000000542109
    vertex -36.00131922384512 34.62864579452785 0.9999999999999989
  endloop
endfacet
facet normal 0.7686707776666438 -5.442249550827102e-12 0.6396446166125038
  outer loop
    vertex -28.58239243083367 34.62864579448445 2.899999999999996
    vertex -27.00131922371038 60.028645794480106 1.0000000000542126
    vertex -28.58239243069889 60.02864579448439 2.9000000000542574
  endloop
endfacet
facet normal 0.7686707776666438 -5.442249550827102e-12 0.6396446166125038
  outer loop
    vertex -27.00131922371038 60.028645794480106 1.0000000000542126
    vertex -28.58239243083367 34.62864579448445 2.899999999999996
    vertex -27.00131922384512 34.62864579448008 1.0000000000000002
  endloop
endfacet
facet normal 0.7090652519323686 -2.2557214337147913e-12 -0.7051428709857931
  outer loop
    vertex -28.515311650547346 34.62864579448392 2.96745391938384
    vertex -28.58239243069889 60.02864579448439 2.9000000000542574
    vertex -28.515311650412542 60.02864579448389 2.9674539194381016
  endloop
endfacet
facet normal 0.7090652519323686 -2.2557214337147913e-12 -0.7051428709857931
  outer loop
    vertex -28.58239243069889 60.02864579448439 2.9000000000542574
    vertex -28.515311650547346 34.62864579448392 2.96745391938384
    vertex -28.58239243083367 34.62864579448445 2.899999999999996
  endloop
endfacet
facet normal 0.6662489174934842 -1.9418205557209526e-12 -0.7457294281029551
  outer loop
    vertex -28.515311650412542 60.02864579448389 2.9674539194381016
    vertex -28.444369840060464 34.62864579448343 3.0308346881462476
    vertex -28.515311650547346 34.62864579448392 2.96745391938384
  endloop
endfacet
facet normal 0.6662489174934842 -1.9418205557209526e-12 -0.7457294281029551
  outer loop
    vertex -28.444369840060464 34.62864579448343 3.0308346881462476
    vertex -28.515311650412542 60.02864579448389 2.9674539194381016
    vertex -28.444369839925656 60.028645794483396 3.030834688200509
  endloop
endfacet
facet normal 0.6211136989578493 -1.621161157469165e-12 -0.7837204686410189
  outer loop
    vertex -28.444369839925656 60.028645794483396 3.030834688200509
    vertex -28.369813912849033 34.628645794482914 3.0899217090706848
    vertex -28.444369840060464 34.62864579448343 3.0308346881462476
  endloop
endfacet
facet normal 0.6211136989578493 -1.621161157469165e-12 -0.7837204686410189
  outer loop
    vertex -28.369813912849033 34.628645794482914 3.0899217090706848
    vertex -28.444369839925656 60.028645794483396 3.030834688200509
    vertex -28.36981391271425 60.028645794482856 3.0899217091249462
  endloop
endfacet
facet normal 0.5738166897750416 -1.2948592962788079e-12 -0.8189837645128344
  outer loop
    vertex -28.369813912849033 34.628645794482914 3.0899217090706848
    vertex -28.291903361213375 60.02864579448234 3.144509329414778
    vertex -28.291903361348183 34.62864579448236 3.1445093293605164
  endloop
endfacet
facet normal 0.5738166897750416 -1.2948592962788079e-12 -0.8189837645128344
  outer loop
    vertex -28.291903361213375 60.02864579448234 3.144509329414778
    vertex -28.369813912849033 34.628645794482914 3.0899217090706848
    vertex -28.36981391271425 60.028645794482856 3.0899217091249462
  endloop
endfacet
facet normal 0.524522507521675 -9.640506680967926e-13 -0.851396581566531
  outer loop
    vertex -28.291903361213375 60.02864579448234 3.144509329414778
    vertex -28.210909353786597 34.62864579448182 3.1944075564150203
    vertex -28.291903361348183 34.62864579448236 3.1445093293605164
  endloop
endfacet
facet normal 0.524522507521675 -9.640506680967926e-13 -0.851396581566531
  outer loop
    vertex -28.210909353786597 34.62864579448182 3.1944075564150203
    vertex -28.291903361213375 60.02864579448234 3.144509329414778
    vertex -28.210909353651815 60.0286457944818 3.1944075564692818
  endloop
endfacet
facet normal 0.4734027209494886 -6.29886654705124e-13 -0.8808461067619138
  outer loop
    vertex -28.210909353786597 34.62864579448182 3.1944075564150203
    vertex -28.127113790248863 60.02864579448121 3.2394427191542445
    vertex -28.127113790383667 34.62864579448126 3.2394427190999835
  endloop
endfacet
facet normal 0.4734027209494886 -6.29886654705124e-13 -0.8808461067619138
  outer loop
    vertex -28.127113790248863 60.02864579448121 3.2394427191542445
    vertex -28.210909353786597 34.62864579448182 3.1944075564150203
    vertex -28.210909353651815 60.0286457944818 3.1944075564692818
  endloop
endfacet
facet normal 0.42063525283990033 -2.935303163334664e-13 -0.9072298408167101
  outer loop
    vertex -28.127113790248863 60.02864579448121 3.2394427191542445
    vertex -28.04080832219399 34.62864579448071 3.2794580722113342
    vertex -28.127113790383667 34.62864579448126 3.2394427190999835
  endloop
endfacet
facet normal 0.42063525283990033 -2.935303163334664e-13 -0.9072298408167101
  outer loop
    vertex -28.04080832219399 34.62864579448071 3.2794580722113342
    vertex -28.127113790248863 60.02864579448121 3.2394427191542445
    vertex -28.040808322059206 60.02864579448067 3.2794580722655953
  endloop
endfacet
facet normal 0.36640376074023406 4.384765639484882e-14 -0.9304559549572529
  outer loop
    vertex -28.040808322059206 60.02864579448067 3.2794580722655953
    vertex -27.952293336013394 34.62864579448019 3.314314342027918
    vertex -28.04080832219399 34.62864579448071 3.2794580722113342
  endloop
endfacet
facet normal 0.36640376074023406 4.384765639484882e-14 -0.9304559549572529
  outer loop
    vertex -27.952293336013394 34.62864579448019 3.314314342027918
    vertex -28.040808322059206 60.02864579448067 3.2794580722655953
    vertex -27.952293335878586 60.02864579448017 3.314314342082179
  endloop
endfacet
facet normal 0.3108969977452255 3.8107301704137397e-13 -0.9504436105277396
  outer loop
    vertex -27.952293336013394 34.62864579448019 3.314314342027918
    vertex -27.861876908746247 60.02864579447958 3.343890211108952
    vertex -27.86187690888103 34.6286457944796 3.343890211054691
  endloop
endfacet
facet normal 0.3108969977452255 3.8107301704137397e-13 -0.9504436105277396
  outer loop
    vertex -27.861876908746247 60.02864579447958 3.343890211108952
    vertex -27.952293336013394 34.62864579448019 3.314314342027918
    vertex -27.952293335878586 60.02864579448017 3.314314342082179
  endloop
endfacet
facet normal 0.2543081555379414 7.169720503419062e-13 -0.967123240350934
  outer loop
    vertex -27.861876908746247 60.02864579447958 3.343890211108952
    vertex -27.769873735814645 34.628645794479105 3.3680827402691267
    vertex -27.86187690888103 34.6286457944796 3.343890211054691
  endloop
endfacet
facet normal 0.2543081555379414 7.169720503419062e-13 -0.967123240350934
  outer loop
    vertex -27.769873735814645 34.628645794479105 3.3680827402691267
    vertex -27.861876908746247 60.02864579447958 3.343890211108952
    vertex -27.76987373567984 60.02864579447909 3.3680827403233877
  endloop
endfacet
facet normal 0.19683419198629482 1.0503756573212132e-12 -0.9804367908565563
  outer loop
    vertex -27.769873735814645 34.628645794479105 3.3680827402691267
    vertex -27.67660403437779 60.0286457944785 3.3868077274554573
    vertex -27.67660403451257 34.628645794478544 3.3868077274011963
  endloop
endfacet
facet normal 0.19683419198629482 1.0503756573212132e-12 -0.9804367908565563
  outer loop
    vertex -27.67660403437779 60.0286457944785 3.3868077274554573
    vertex -27.769873735814645 34.628645794479105 3.3680827402691267
    vertex -27.76987373567984 60.02864579447909 3.3680827403233877
  endloop
endfacet
facet normal 0.13867514562940875 1.3801234243527438e-12 -0.9903379241373433
  outer loop
    vertex -27.67660403437779 60.0286457944785 3.3868077274554573
    vertex -27.582392430833742 34.62864579447807 3.3999999999999946
    vertex -27.67660403451257 34.628645794478544 3.3868077274011963
  endloop
endfacet
facet normal 0.13867514562940875 1.3801234243527438e-12 -0.9903379241373433
  outer loop
    vertex -27.582392430833742 34.62864579447807 3.3999999999999946
    vertex -27.67660403437779 60.0286457944785 3.3868077274554573
    vertex -27.582392430698935 60.028645794478024 3.4000000000542556
  endloop
endfacet
facet normal 1.0 -5.306022306648795e-12 9.626254044328965e-14
  outer loop
    vertex -27.582392430833742 34.628645794477855 3.4999999999999942
    vertex -27.582392430698935 60.028645794478024 3.4000000000542556
    vertex -27.582392430698935 60.028645794477804 3.5000000000542553
  endloop
endfacet
facet normal 1.0 -5.306022306648795e-12 9.626254044328965e-14
  outer loop
    vertex -27.582392430698935 60.028645794478024 3.4000000000542556
    vertex -27.582392430833742 34.628645794477855 3.4999999999999942
    vertex -27.582392430833742 34.62864579447807 3.3999999999999946
  endloop
endfacet
facet normal 0.36034819029129955 -3.905056145555076e-12 0.932817871695105
  outer loop
    vertex -27.582392430833742 34.628645794477855 3.4999999999999942
    vertex -27.739101085298902 60.0286457944785 3.560536661927452
    vertex -27.73910108543371 34.62864579447854 3.560536661873191
  endloop
endfacet
facet normal 0.36034819029129955 -3.905056145555076e-12 0.932817871695105
  outer loop
    vertex -27.739101085298902 60.0286457944785 3.560536661927452
    vertex -27.582392430833742 34.628645794477855 3.4999999999999942
    vertex -27.582392430698935 60.028645794477804 3.5000000000542553
  endloop
endfacet
facet normal 0.29706314071263384 -3.616354425827681e-12 0.954857837811444
  outer loop
    vertex -27.739101085298902 60.0286457944785 3.560536661927452
    vertex -27.899512342162396 34.628645794479304 3.610441757524619
    vertex -27.73910108543371 34.62864579447854 3.560536661873191
  endloop
endfacet
facet normal 0.29706314071263384 -3.616354425827681e-12 0.954857837811444
  outer loop
    vertex -27.899512342162396 34.628645794479304 3.610441757524619
    vertex -27.739101085298902 60.0286457944785 3.560536661927452
    vertex -27.899512342027613 60.02864579447929 3.61044175757888
  endloop
endfacet
facet normal 0.23244405257503395 -3.311412534953712e-12 0.9726097688294596
  outer loop
    vertex -27.899512342162396 34.628645794479304 3.610441757524619
    vertex -28.062905832813854 60.02864579448001 3.6494911753206356
    vertex -28.062905832948637 34.628645794480065 3.6494911752663746
  endloop
endfacet
facet normal 0.23244405257503395 -3.311412534953712e-12 0.9726097688294596
  outer loop
    vertex -28.062905832813854 60.02864579448001 3.6494911753206356
    vertex -27.899512342162396 34.628645794479304 3.610441757524619
    vertex -27.899512342027613 60.02864579447929 3.61044175757888
  endloop
endfacet
facet normal 0.16678111454030178 -2.9915998930501863e-12 0.9859939451298344
  outer loop
    vertex -28.062905832813854 60.02864579448001 3.6494911753206356
    vertex -28.228547797230753 34.62864579448089 3.6775095536287
    vertex -28.062905832948637 34.628645794480065 3.6494911752663746
  endloop
endfacet
facet normal 0.16678111454030178 -2.9915998930501863e-12 0.9859939451298344
  outer loop
    vertex -28.228547797230753 34.62864579448089 3.6775095536287
    vertex -28.062905832813854 60.02864579448001 3.6494911753206356
    vertex -28.228547797095946 60.028645794480845 3.6775095536829614
  endloop
endfacet
facet normal 0.1003692029468598 -2.658352701171309e-12 0.9949502616210582
  outer loop
    vertex -28.228547797095946 60.028645794480845 3.6775095536829614
    vertex -28.39569437709752 34.62864579448176 3.6943710688658458
    vertex -28.228547797230753 34.62864579448089 3.6775095536287
  endloop
endfacet
facet normal 0.1003692029468598 -2.658352701171309e-12 0.9949502616210582
  outer loop
    vertex -28.39569437709752 34.62864579448176 3.6943710688658458
    vertex -28.228547797095946 60.028645794480845 3.6775095536829614
    vertex -28.395694376962737 60.028645794481726 3.694371068920107
  endloop
endfacet
facet normal 0.033506557591722386 -2.3131674916781617e-12 0.9994384976567356
  outer loop
    vertex -28.39569437709752 34.62864579448176 3.6943710688658458
    vertex -28.56359495763946 60.028645794482586 3.700000000054257
    vertex -28.563594957774267 34.62864579448262 3.699999999999996
  endloop
endfacet
facet normal 0.033506557591722386 -2.3131674916781617e-12 0.9994384976567356
  outer loop
    vertex -28.56359495763946 60.028645794482586 3.700000000054257
    vertex -28.39569437709752 34.62864579448176 3.6943710688658458
    vertex -28.395694376962737 60.028645794481726 3.694371068920107
  endloop
endfacet
facet normal -0.03350655759174437 -1.9575944076766744e-12 0.9994384976567349
  outer loop
    vertex -28.56359495763946 60.028645794482586 3.700000000054257
    vertex -28.731495538450876 34.628645794483546 3.694371068865844
    vertex -28.563594957774267 34.62864579448262 3.699999999999996
  endloop
endfacet
facet normal -0.03350655759174437 -1.9575944076766744e-12 0.9994384976567349
  outer loop
    vertex -28.731495538450876 34.628645794483546 3.694371068865844
    vertex -28.56359495763946 60.028645794482586 3.700000000054257
    vertex -28.731495538316093 60.02864579448353 3.694371068920105
  endloop
endfacet
facet normal -0.1003692029468071 -1.5932302416984459e-12 0.9949502616210636
  outer loop
    vertex -28.731495538316093 60.02864579448353 3.694371068920105
    vertex -28.89864211831778 34.62864579448447 3.677509553628702
    vertex -28.731495538450876 34.628645794483546 3.694371068865844
  endloop
endfacet
facet normal -0.1003692029468071 -1.5932302416984459e-12 0.9949502616210636
  outer loop
    vertex -28.89864211831778 34.62864579448447 3.677509553628702
    vertex -28.731495538316093 60.02864579448353 3.694371068920105
    vertex -28.898642118182973 60.02864579448443 3.677509553682963
  endloop
endfacet
facet normal -0.16678111454031752 -1.2217112648929878e-12 0.9859939451298316
  outer loop
    vertex -28.89864211831778 34.62864579448447 3.677509553628702
    vertex -29.064284082465043 60.028645794485314 3.6494911753206343
    vertex -29.064284082599826 34.628645794485365 3.6494911752663732
  endloop
endfacet
facet normal -0.16678111454031752 -1.2217112648929878e-12 0.9859939451298316
  outer loop
    vertex -29.064284082465043 60.028645794485314 3.6494911753206343
    vertex -28.89864211831778 34.62864579448447 3.677509553628702
    vertex -28.898642118182973 60.02864579448443 3.677509553682963
  endloop
endfacet
facet normal -0.23244405257510872 -8.447058789314212e-13 0.9726097688294417
  outer loop
    vertex -29.064284082465043 60.028645794485314 3.6494911753206343
    vertex -29.227677573386003 34.62864579448632 3.6104417575246166
    vertex -29.064284082599826 34.628645794485365 3.6494911752663732
  endloop
endfacet
facet normal -0.23244405257510872 -8.447058789314212e-13 0.9726097688294417
  outer loop
    vertex -29.227677573386003 34.62864579448632 3.6104417575246166
    vertex -29.064284082465043 60.028645794485314 3.6494911753206343
    vertex -29.22767757325122 60.02864579448626 3.6104417575788776
  endloop
endfacet
facet normal -0.29706314071252665 -4.639071236196734e-13 0.9548578378114774
  outer loop
    vertex -29.22767757325122 60.02864579448626 3.6104417575788776
    vertex -29.388088830114825 34.628645794487326 3.5605366618731913
    vertex -29.227677573386003 34.62864579448632 3.6104417575246166
  endloop
endfacet
facet normal -0.29706314071252665 -4.639071236196734e-13 0.9548578378114774
  outer loop
    vertex -29.388088830114825 34.628645794487326 3.5605366618731913
    vertex -29.22767757325122 60.02864579448626 3.6104417575788776
    vertex -29.38808882998002 60.028645794487275 3.5605366619274523
  endloop
endfacet
facet normal -0.36034819029131615 -8.102507386280206e-14 0.9328178716950988
  outer loop
    vertex -29.388088830114825 34.628645794487326 3.5605366618731913
    vertex -29.544797484579963 60.02864579448823 3.5000000000542575
    vertex -29.544797484714746 34.628645794488236 3.4999999999999964
  endloop
endfacet
facet normal -0.36034819029131615 -8.102507386280206e-14 0.9328178716950988
  outer loop
    vertex -29.544797484579963 60.02864579448823 3.5000000000542575
    vertex -29.388088830114825 34.628645794487326 3.5605366618731913
    vertex -29.38808882998002 60.028645794487275 3.5605366619274523
  endloop
endfacet
facet normal 0.5881716976750373 -1.4024535512137169e-12 -0.808736084303195
  outer loop
    vertex -27.001319223845186 34.62864579448221 -1.4099832412739487e-15
    vertex -25.62631922371038 60.02864579447272 1.0000000000542109
    vertex -25.626319223845115 34.62864579447271 0.9999999999999989
  endloop
endfacet
facet normal 0.5881716976750373 -1.4024535512137169e-12 -0.808736084303195
  outer loop
    vertex -25.62631922371038 60.02864579447272 1.0000000000542109
    vertex -27.001319223845186 34.62864579448221 -1.4099832412739487e-15
    vertex -27.00131922371038 60.02864579448222 5.4210330668880147e-11
  endloop
endfacet
facet normal -7.981963515211289e-18 2.12663840788815e-12 -1.0
  outer loop
    vertex -36.00131922371039 60.02864579452998 5.4210330668880147e-11
    vertex -27.001319223845186 34.62864579448221 -1.4099832412739487e-15
    vertex -36.001319223845215 34.62864579452997 -1.4099832412739487e-15
  endloop
endfacet
facet normal -7.981963515211289e-18 2.12663840788815e-12 -1.0
  outer loop
    vertex -27.001319223845186 34.62864579448221 -1.4099832412739487e-15
    vertex -36.00131922371039 60.02864579452998 5.4210330668880147e-11
    vertex -27.00131922371038 60.02864579448222 5.4210330668880147e-11
  endloop
endfacet
facet normal 8.981228986590593e-16 -2.126638407888126e-12 1.0
  outer loop
    vertex -25.62631922371038 60.02864579447272 1.0000000000542109
    vertex -27.00131922384512 34.62864579448008 1.0000000000000002
    vertex -25.626319223845115 34.62864579447271 0.9999999999999989
  endloop
endfacet
facet normal 8.981228986590593e-16 -2.126638407888126e-12 1.0
  outer loop
    vertex -27.00131922384512 34.62864579448008 1.0000000000000002
    vertex -25.62631922371038 60.02864579447272 1.0000000000542109
    vertex -27.00131922371038 60.028645794480106 1.0000000000542126
  endloop
endfacet
facet normal -0.5547001962252425 4.714131014003224e-12 -0.832050294337835
  outer loop
    vertex -37.50131922384512 34.628645794535885 0.9999999999999989
    vertex -36.00131922371039 60.02864579452998 5.4210330668880147e-11
    vertex -36.001319223845215 34.62864579452997 -1.4099832412739487e-15
  endloop
endfacet
facet normal -0.5547001962252425 4.714131014003224e-12 -0.832050294337835
  outer loop
    vertex -36.00131922371039 60.02864579452998 5.4210330668880147e-11
    vertex -37.50131922384512 34.628645794535885 0.9999999999999989
    vertex -37.50131922371036 60.02864579453589 1.0000000000542109
  endloop
endfacet
facet normal 8.631436581272313e-17 -2.1266384078881217e-12 1.0
  outer loop
    vertex -36.00131922371036 60.02864579452786 1.0000000000542109
    vertex -37.50131922384512 34.628645794535885 0.9999999999999989
    vertex -36.00131922384512 34.62864579452785 0.9999999999999989
  endloop
endfacet
facet normal 8.631436581272313e-17 -2.1266384078881217e-12 1.0
  outer loop
    vertex -37.50131922384512 34.628645794535885 0.9999999999999989
    vertex -36.00131922371036 60.02864579452786 1.0000000000542109
    vertex -37.50131922371036 60.02864579453589 1.0000000000542109
  endloop
endfacet
facet normal -3.5249582163179884e-16 -2.134008247889338e-12 1.0
  outer loop
    vertex -29.001319223845115 34.628645794490716 1.0000000000000002
    vertex -34.00131922371036 60.02864579451724 1.0000000000542109
    vertex -34.00131922384513 34.62864579451721 0.9999999999999989
  endloop
endfacet
facet normal -3.5249582163179884e-16 -2.134008247889338e-12 1.0
  outer loop
    vertex -34.00131922371036 60.02864579451724 1.0000000000542109
    vertex -29.001319223845115 34.628645794490716 1.0000000000000002
    vertex -29.001319223710375 60.02864579449073 1.0000000000542126
  endloop
endfacet
endsolid v2
