solid v2
facet normal -0.9771763639227969 5.6377256233477996e-12 -0.21242964433106235
  outer loop
    vertex -49.54479748444517 85.42864579448822 3.5000000001084715
    vertex -49.00131922384507 34.628645794490716 1.0000000000000018
    vertex -49.54479748471471 34.628645794488236 3.499999999999998
  endloop
endfacet
facet normal -0.9771763639227969 5.6377256233477996e-12 -0.21242964433106235
  outer loop
    vertex -49.00131922384507 34.628645794490716 1.0000000000000018
    vertex -49.54479748444517 85.42864579448822 3.5000000001084715
    vertex -49.001319223575585 85.42864579449075 1.0000000001084266
  endloop
endfacet
facet normal 0.6662489174934872 -1.9428843400127356e-12 -0.7457294281029525
  outer loop
    vertex -48.51531165027775 85.42864579448391 2.9674539194923155
    vertex -48.44436984006042 34.62864579448343 3.030834688146249
    vertex -48.515311650547304 34.62864579448392 2.9674539193838414
  endloop
endfacet
facet normal 0.6662489174934872 -1.9428843400127356e-12 -0.7457294281029525
  outer loop
    vertex -48.44436984006042 34.62864579448343 3.030834688146249
    vertex -48.51531165027775 85.42864579448391 2.9674539194923155
    vertex -48.444369839790866 85.4286457944834 3.030834688254723
  endloop
endfacet
facet normal -0.10036920294678521 -1.5919663441565201e-12 0.9949502616210657
  outer loop
    vertex -48.73149553845084 34.628645794483546 3.6943710688658453
    vertex -48.89864211804818 85.42864579448444 3.677509553737177
    vertex -48.89864211831774 34.62864579448447 3.6775095536287035
  endloop
endfacet
facet normal -0.10036920294678521 -1.5919663441565201e-12 0.9949502616210657
  outer loop
    vertex -48.89864211804818 85.42864579448444 3.677509553737177
    vertex -48.73149553845084 34.628645794483546 3.6943710688658453
    vertex -48.7314955381813 85.42864579448353 3.6943710689743186
  endloop
endfacet
facet normal -0.23244405257511888 -8.435278706995359e-13 0.9726097688294394
  outer loop
    vertex -49.064284082599784 34.628645794485365 3.6494911752663746
    vertex -49.22767757311643 85.42864579448629 3.6104417576330916
    vertex -49.22767757338596 34.62864579448632 3.610441757524618
  endloop
endfacet
facet normal -0.23244405257511888 -8.435278706995359e-13 0.9726097688294394
  outer loop
    vertex -49.22767757311643 85.42864579448629 3.6104417576330916
    vertex -49.064284082599784 34.628645794485365 3.6494911752663746
    vertex -49.06428408233025 85.42864579448533 3.649491175374848
  endloop
endfacet
facet normal 0.3108969977452519 3.7987515212355027e-13 -0.9504436105277309
  outer loop
    vertex -47.952293335743796 85.42864579448018 3.314314342136393
    vertex -47.86187690888099 34.6286457944796 3.3438902110546924
    vertex -47.95229333601335 34.62864579448019 3.3143143420279193
  endloop
endfacet
facet normal 0.3108969977452519 3.7987515212355027e-13 -0.9504436105277309
  outer loop
    vertex -47.86187690888099 34.6286457944796 3.3438902110546924
    vertex -47.952293335743796 85.42864579448018 3.314314342136393
    vertex -47.86187690861146 85.42864579447958 3.343890211163166
  endloop
endfacet
facet normal 0.47340272094942115 -6.309885690567198e-13 -0.8808461067619499
  outer loop
    vertex -48.210909353517025 85.42864579448181 3.1944075565234953
    vertex -48.127113790383625 34.62864579448126 3.239442719099985
    vertex -48.210909353786555 34.62864579448182 3.194407556415022
  endloop
endfacet
facet normal 0.47340272094942115 -6.309885690567198e-13 -0.8808461067619499
  outer loop
    vertex -48.127113790383625 34.62864579448126 3.239442719099985
    vertex -48.210909353517025 85.42864579448181 3.1944075565234953
    vertex -48.12711379011407 85.42864579448123 3.2394427192084585
  endloop
endfacet
facet normal 0.25430815553791575 7.157504151827971e-13 -0.9671232403509407
  outer loop
    vertex -47.86187690861146 85.42864579447958 3.343890211163166
    vertex -47.769873735814606 34.628645794479105 3.368082740269128
    vertex -47.86187690888099 34.6286457944796 3.3438902110546924
  endloop
endfacet
facet normal 0.25430815553791575 7.157504151827971e-13 -0.9671232403509407
  outer loop
    vertex -47.769873735814606 34.628645794479105 3.368082740269128
    vertex -47.86187690861146 85.42864579447958 3.343890211163166
    vertex -47.76987373554505 85.42864579447908 3.3680827403776017
  endloop
endfacet
facet normal 0.5245225075217442 -9.65109734267699e-13 -0.8513965815664881
  outer loop
    vertex -48.29190336107858 85.42864579448234 3.1445093294689914
    vertex -48.210909353786555 34.62864579448182 3.194407556415022
    vertex -48.29190336134814 34.62864579448236 3.1445093293605177
  endloop
endfacet
facet normal 0.5245225075217442 -9.65109734267699e-13 -0.8513965815664881
  outer loop
    vertex -48.210909353786555 34.62864579448182 3.194407556415022
    vertex -48.29190336107858 85.42864579448234 3.1445093294689914
    vertex -48.210909353517025 85.42864579448181 3.1944075565234953
  endloop
endfacet
facet normal 0.29706314071268564 -3.6151238149601052e-12 0.954857837811428
  outer loop
    vertex -47.73910108543367 34.62864579447854 3.560536661873192
    vertex -47.89951234189282 85.4286457944793 3.610441757633094
    vertex -47.89951234216235 34.628645794479304 3.61044175752462
  endloop
endfacet
facet normal 0.29706314071268564 -3.6151238149601052e-12 0.954857837811428
  outer loop
    vertex -47.89951234189282 85.4286457944793 3.610441757633094
    vertex -47.73910108543367 34.62864579447854 3.560536661873192
    vertex -47.73910108516411 85.42864579447853 3.5605366619816654
  endloop
endfacet
facet normal 0.03350655759171929 -2.3118918981381938e-12 0.9994384976567358
  outer loop
    vertex -48.39569437709748 34.62864579448176 3.6943710688658475
    vertex -48.56359495750467 85.42864579448258 3.700000000108471
    vertex -48.56359495777422 34.62864579448262 3.6999999999999975
  endloop
endfacet
facet normal 0.03350655759171929 -2.3118918981381938e-12 0.9994384976567358
  outer loop
    vertex -48.56359495750467 85.42864579448258 3.700000000108471
    vertex -48.39569437709748 34.62864579448176 3.6943710688658475
    vertex -48.39569437682795 85.42864579448172 3.6943710689743208
  endloop
endfacet
facet normal -0.03350655759175584 -1.956321792370023e-12 0.9994384976567344
  outer loop
    vertex -48.56359495777422 34.62864579448262 3.6999999999999975
    vertex -48.7314955381813 85.42864579448353 3.6943710689743186
    vertex -48.73149553845084 34.628645794483546 3.6943710688658453
  endloop
endfacet
facet normal -0.03350655759175584 -1.956321792370023e-12 0.9994384976567344
  outer loop
    vertex -48.7314955381813 85.42864579448353 3.6943710689743186
    vertex -48.56359495777422 34.62864579448262 3.6999999999999975
    vertex -48.56359495750467 85.42864579448258 3.700000000108471
  endloop
endfacet
facet normal 0.16678111454027372 -2.990335509315076e-12 0.9859939451298391
  outer loop
    vertex -48.062905832948594 34.628645794480065 3.649491175266376
    vertex -48.22854779696116 85.42864579448084 3.677509553737175
    vertex -48.22854779723071 34.62864579448089 3.6775095536287017
  endloop
endfacet
facet normal 0.16678111454027372 -2.990335509315076e-12 0.9859939451298391
  outer loop
    vertex -48.22854779696116 85.42864579448084 3.677509553737175
    vertex -48.062905832948594 34.628645794480065 3.649491175266376
    vertex -48.062905832679064 85.42864579448003 3.6494911753748496
  endloop
endfacet
facet normal 0.13867514562945368 1.378867059977899e-12 -0.990337924137337
  outer loop
    vertex -47.676604034243 85.42864579447853 3.3868077275096713
    vertex -47.5823924308337 34.62864579447807 3.399999999999996
    vertex -47.67660403451253 34.628645794478544 3.386807727401198
  endloop
endfacet
facet normal 0.13867514562945368 1.378867059977899e-12 -0.990337924137337
  outer loop
    vertex -47.5823924308337 34.62864579447807 3.399999999999996
    vertex -47.676604034243 85.42864579447853 3.3868077275096713
    vertex -47.58239243056414 85.42864579447803 3.4000000001084696
  endloop
endfacet
facet normal 0.6211136989577024 -1.6221272683822089e-12 -0.7837204686411352
  outer loop
    vertex -48.444369839790866 85.4286457944834 3.030834688254723
    vertex -48.36981391284899 34.628645794482914 3.089921709070686
    vertex -48.44436984006042 34.62864579448343 3.030834688146249
  endloop
endfacet
facet normal 0.6211136989577024 -1.6221272683822089e-12 -0.7837204686411352
  outer loop
    vertex -48.36981391284899 34.628645794482914 3.089921709070686
    vertex -48.444369839790866 85.4286457944834 3.030834688254723
    vertex -48.36981391257946 85.42864579448288 3.08992170917916
  endloop
endfacet
facet normal 1.0 -5.306199923893477e-12 -1.1005586613852132e-23
  outer loop
    vertex -47.5823924308337 34.62864579447807 3.399999999999996
    vertex -47.58239243056414 85.42864579447782 3.5000000001084692
    vertex -47.5823924308337 34.628645794477855 3.4999999999999956
  endloop
endfacet
facet normal 1.0 -5.306199923893477e-12 -1.1005586613852132e-23
  outer loop
    vertex -47.58239243056414 85.42864579447782 3.5000000001084692
    vertex -47.5823924308337 34.62864579447807 3.399999999999996
    vertex -47.58239243056414 85.42864579447803 3.4000000001084696
  endloop
endfacet
facet normal -0.36034819029136045 -7.985190912334659e-14 0.9328178716950815
  outer loop
    vertex -49.38808883011478 34.628645794487326 3.5605366618731926
    vertex -49.54479748444517 85.42864579448822 3.5000000001084715
    vertex -49.54479748471471 34.628645794488236 3.499999999999998
  endloop
endfacet
facet normal -0.36034819029136045 -7.985190912334659e-14 0.9328178716950815
  outer loop
    vertex -49.54479748444517 85.42864579448822 3.5000000001084715
    vertex -49.38808883011478 34.628645794487326 3.5605366618731926
    vertex -49.38808882984523 85.42864579448728 3.5605366619816663
  endloop
endfacet
facet normal 0.42063525283996117 -2.946681814858711e-13 -0.9072298408166819
  outer loop
    vertex -48.12711379011407 85.42864579448123 3.2394427192084585
    vertex -48.040808322193946 34.62864579448071 3.2794580722113356
    vertex -48.127113790383625 34.62864579448126 3.239442719099985
  endloop
endfacet
facet normal 0.42063525283996117 -2.946681814858711e-13 -0.9072298408166819
  outer loop
    vertex -48.040808322193946 34.62864579448071 3.2794580722113356
    vertex -48.12711379011407 85.42864579448123 3.2394427192084585
    vertex -48.040808321924416 85.42864579448069 3.2794580723198092
  endloop
endfacet
facet normal 0.19683419198631122 1.0491345194512827e-12 -0.980436790856553
  outer loop
    vertex -47.76987373554505 85.42864579447908 3.3680827403776017
    vertex -47.67660403451253 34.628645794478544 3.386807727401198
    vertex -47.769873735814606 34.628645794479105 3.368082740269128
  endloop
endfacet
facet normal 0.19683419198631122 1.0491345194512827e-12 -0.980436790856553
  outer loop
    vertex -47.67660403451253 34.628645794478544 3.386807727401198
    vertex -47.76987373554505 85.42864579447908 3.3680827403776017
    vertex -47.676604034243 85.42864579447853 3.3868077275096713
  endloop
endfacet
facet normal -0.16678111454034564 -1.2204616955423705e-12 0.985993945129827
  outer loop
    vertex -48.89864211831774 34.62864579448447 3.6775095536287035
    vertex -49.06428408233025 85.42864579448533 3.649491175374848
    vertex -49.064284082599784 34.628645794485365 3.6494911752663746
  endloop
endfacet
facet normal -0.16678111454034564 -1.2204616955423705e-12 0.985993945129827
  outer loop
    vertex -49.06428408233025 85.42864579448533 3.649491175374848
    vertex -48.89864211831774 34.62864579448447 3.6775095536287035
    vertex -48.89864211804818 85.42864579448444 3.677509553737177
  endloop
endfacet
facet normal 0.36640376074018394 4.2677774446120265e-14 -0.9304559549572726
  outer loop
    vertex -48.040808321924416 85.42864579448069 3.2794580723198092
    vertex -47.95229333601335 34.62864579448019 3.3143143420279193
    vertex -48.040808322193946 34.62864579448071 3.2794580722113356
  endloop
endfacet
facet normal 0.36640376074018394 4.2677774446120265e-14 -0.9304559549572726
  outer loop
    vertex -47.95229333601335 34.62864579448019 3.3143143420279193
    vertex -48.040808321924416 85.42864579448069 3.2794580723198092
    vertex -47.952293335743796 85.42864579448018 3.314314342136393
  endloop
endfacet
facet normal 0.23244405257502382 -3.3101106955698362e-12 0.972609768829462
  outer loop
    vertex -47.89951234216235 34.628645794479304 3.61044175752462
    vertex -48.062905832679064 85.42864579448003 3.6494911753748496
    vertex -48.062905832948594 34.628645794480065 3.649491175266376
  endloop
endfacet
facet normal 0.23244405257502382 -3.3101106955698362e-12 0.972609768829462
  outer loop
    vertex -48.062905832679064 85.42864579448003 3.6494911753748496
    vertex -47.89951234216235 34.628645794479304 3.61044175752462
    vertex -47.89951234189282 85.4286457944793 3.610441757633094
  endloop
endfacet
facet normal 0.5738166897749882 -1.2958721537035072e-12 -0.8189837645128718
  outer loop
    vertex -48.36981391257946 85.42864579448288 3.08992170917916
    vertex -48.29190336134814 34.62864579448236 3.1445093293605177
    vertex -48.36981391284899 34.628645794482914 3.089921709070686
  endloop
endfacet
facet normal 0.5738166897749882 -1.2958721537035072e-12 -0.8189837645128718
  outer loop
    vertex -48.29190336134814 34.62864579448236 3.1445093293605177
    vertex -48.36981391257946 85.42864579448288 3.08992170917916
    vertex -48.29190336107858 85.42864579448234 3.1445093294689914
  endloop
endfacet
facet normal 0.10036920294688163 -2.657079854115475e-12 0.994950261621056
  outer loop
    vertex -48.22854779723071 34.62864579448089 3.6775095536287017
    vertex -48.39569437682795 85.42864579448172 3.6943710689743208
    vertex -48.39569437709748 34.62864579448176 3.6943710688658475
  endloop
endfacet
facet normal 0.10036920294688163 -2.657079854115475e-12 0.994950261621056
  outer loop
    vertex -48.39569437682795 85.42864579448172 3.6943710689743208
    vertex -48.22854779723071 34.62864579448089 3.6775095536287017
    vertex -48.22854779696116 85.42864579448084 3.677509553737175
  endloop
endfacet
facet normal 0.36034819029129256 -3.9039309703778885e-12 0.9328178716951077
  outer loop
    vertex -47.5823924308337 34.628645794477855 3.4999999999999956
    vertex -47.73910108516411 85.42864579447853 3.5605366619816654
    vertex -47.73910108543367 34.62864579447854 3.560536661873192
  endloop
endfacet
facet normal 0.36034819029129256 -3.9039309703778885e-12 0.9328178716951077
  outer loop
    vertex -47.73910108516411 85.42864579447853 3.5605366619816654
    vertex -47.5823924308337 34.628645794477855 3.4999999999999956
    vertex -47.58239243056414 85.42864579447782 3.5000000001084692
  endloop
endfacet
facet normal -0.2970631407124671 -4.627029800654427e-13 0.9548578378114958
  outer loop
    vertex -49.22767757338596 34.62864579448632 3.610441757524618
    vertex -49.38808882984523 85.42864579448728 3.5605366619816663
    vertex -49.38808883011478 34.628645794487326 3.5605366618731926
  endloop
endfacet
facet normal -0.2970631407124671 -4.627029800654427e-13 0.9548578378114958
  outer loop
    vertex -49.38808882984523 85.42864579448728 3.5605366619816663
    vertex -49.22767757338596 34.62864579448632 3.610441757524618
    vertex -49.22767757311643 85.42864579448629 3.6104417576330916
  endloop
endfacet
facet normal -0.166781114540259 -1.2203876496433931e-12 0.9859939451298416
  outer loop
    vertex -54.77409065045945 34.628645794515585 3.6775095536287
    vertex -54.93973261447201 85.42864579451651 3.649491175374848
    vertex -54.93973261474156 34.62864579451652 3.6494911752663746
  endloop
endfacet
facet normal -0.166781114540259 -1.2203876496433931e-12 0.9859939451298416
  outer loop
    vertex -54.93973261447201 85.42864579451651 3.649491175374848
    vertex -54.77409065045945 34.628645794515585 3.6775095536287
    vertex -54.77409065018987 85.42864579451556 3.6775095537371736
  endloop
endfacet
facet normal 0.36034819029138326 -3.904010924318502e-12 0.9328178716950727
  outer loop
    vertex -53.45784096297545 34.62864579450896 3.4999999999999964
    vertex -53.6145496173058 85.42864579450968 3.5605366619816636
    vertex -53.61454961757538 34.628645794509715 3.56053666187319
  endloop
endfacet
facet normal 0.36034819029138326 -3.904010924318502e-12 0.9328178716950727
  outer loop
    vertex -53.6145496173058 85.42864579450968 3.5605366619816636
    vertex -53.45784096297545 34.62864579450896 3.4999999999999964
    vertex -53.457840962705895 85.42864579450894 3.50000000010847
  endloop
endfacet
facet normal -1.0 5.306644013104289e-12 -4.511946371957115e-13
  outer loop
    vertex -55.42024601658693 85.4286457945194 3.500000000108468
    vertex -55.42024601685646 34.62864579451965 3.3999999999999946
    vertex -55.4202460168565 34.628645794519436 3.4999999999999942
  endloop
endfacet
facet normal -1.0 5.306644013104289e-12 -4.511946371957115e-13
  outer loop
    vertex -55.42024601685646 34.62864579451965 3.3999999999999946
    vertex -55.42024601658693 85.4286457945194 3.500000000108468
    vertex -55.42024601658688 85.42864579451965 3.400000000108468
  endloop
endfacet
facet normal -0.13867514562947536 2.8505431877123236e-12 -0.9903379241373339
  outer loop
    vertex -55.42024601658688 85.42864579451965 3.400000000108468
    vertex -55.326034413177624 34.62864579451913 3.3868077274011963
    vertex -55.42024601685646 34.62864579451965 3.3999999999999946
  endloop
endfacet
facet normal -0.13867514562947536 2.8505431877123236e-12 -0.9903379241373339
  outer loop
    vertex -55.326034413177624 34.62864579451913 3.3868077274011963
    vertex -55.42024601658688 85.42864579451965 3.400000000108468
    vertex -55.32603441290807 85.42864579451913 3.38680772750967
  endloop
endfacet
facet normal -0.19683419198614338 3.1380176356878693e-12 -0.9804367908565865
  outer loop
    vertex -55.32603441290807 85.42864579451913 3.38680772750967
    vertex -55.23276471187548 34.6286457945187 3.3680827402691267
    vertex -55.326034413177624 34.62864579451913 3.3868077274011963
  endloop
endfacet
facet normal -0.19683419198614338 3.1380176356878693e-12 -0.9804367908565865
  outer loop
    vertex -55.23276471187548 34.6286457945187 3.3680827402691267
    vertex -55.32603441290807 85.42864579451913 3.38680772750967
    vertex -55.23276471160591 85.42864579451866 3.3680827403776004
  endloop
endfacet
facet normal -0.2543081555381296 3.4145702576545697e-12 -0.9671232403508844
  outer loop
    vertex -55.23276471160591 85.42864579451866 3.3680827403776004
    vertex -55.140761538809166 34.62864579451824 3.343890211054691
    vertex -55.23276471187548 34.6286457945187 3.3680827402691267
  endloop
endfacet
facet normal -0.2543081555381296 3.4145702576545697e-12 -0.9671232403508844
  outer loop
    vertex -55.140761538809166 34.62864579451824 3.343890211054691
    vertex -55.23276471160591 85.42864579451866 3.3680827403776004
    vertex -55.140761538539614 85.42864579451823 3.3438902111631648
  endloop
endfacet
facet normal 0.2970631407124876 -3.6152557512822528e-12 0.9548578378114896
  outer loop
    vertex -53.61454961757538 34.628645794509715 3.56053666187319
    vertex -53.77496087403462 85.4286457945104 3.6104417576330903
    vertex -53.77496087430418 34.62864579451043 3.6104417575246166
  endloop
endfacet
facet normal 0.2970631407124876 -3.6152557512822528e-12 0.9548578378114896
  outer loop
    vertex -53.77496087403462 85.4286457945104 3.6104417576330903
    vertex -53.61454961757538 34.628645794509715 3.56053666187319
    vertex -53.6145496173058 85.42864579450968 3.5605366619816636
  endloop
endfacet
facet normal -0.1003692029468906 -1.5919217606264369e-12 0.9949502616210552
  outer loop
    vertex -54.606944070592675 34.6286457945147 3.6943710688658458
    vertex -54.77409065018987 85.42864579451556 3.6775095537371736
    vertex -54.77409065045945 34.628645794515585 3.6775095536287
  endloop
endfacet
facet normal -0.1003692029468906 -1.5919217606264369e-12 0.9949502616210552
  outer loop
    vertex -54.77409065018987 85.42864579451556 3.6775095537371736
    vertex -54.606944070592675 34.6286457945147 3.6943710688658458
    vertex -54.606944070323124 85.42864579451467 3.6943710689743194
  endloop
endfacet
facet normal -0.23244405257505418 -8.434246592163547e-13 0.9726097688294547
  outer loop
    vertex -54.93973261474156 34.62864579451652 3.6494911752663746
    vertex -55.10312610525823 85.42864579451748 3.610441757633092
    vertex -55.103126105527785 34.62864579451752 3.610441757524619
  endloop
endfacet
facet normal -0.23244405257505418 -8.434246592163547e-13 0.9726097688294547
  outer loop
    vertex -55.10312610525823 85.42864579451748 3.610441757633092
    vertex -54.93973261474156 34.62864579451652 3.6494911752663746
    vertex -54.93973261447201 85.42864579451651 3.649491175374848
  endloop
endfacet
facet normal -0.36034819029120224 -7.961188494039276e-14 0.9328178716951427
  outer loop
    vertex -55.26353736225649 34.62864579451848 3.560536661873191
    vertex -55.42024601658693 85.4286457945194 3.500000000108468
    vertex -55.4202460168565 34.628645794519436 3.4999999999999942
  endloop
endfacet
facet normal -0.36034819029120224 -7.961188494039276e-14 0.9328178716951427
  outer loop
    vertex -55.42024601658693 85.4286457945194 3.500000000108468
    vertex -55.26353736225649 34.62864579451848 3.560536661873191
    vertex -55.26353736198691 85.42864579451846 3.560536661981664
  endloop
endfacet
facet normal 0.9771763639227944 -4.731159420005474e-12 -0.21242964433107353
  outer loop
    vertex -54.00131922384509 34.62864579451721 1.0000000000000002
    vertex -53.457840962705895 85.42864579450894 3.50000000010847
    vertex -53.45784096297545 34.62864579450896 3.4999999999999964
  endloop
endfacet
facet normal 0.9771763639227944 -4.731159420005474e-12 -0.21242964433107353
  outer loop
    vertex -53.457840962705895 85.42864579450894 3.50000000010847
    vertex -54.00131922384509 34.62864579451721 1.0000000000000002
    vertex -54.00131922357558 85.42864579451725 1.0000000001084248
  endloop
endfacet
facet normal 0.23244405257508455 -3.3102138861555776e-12 0.9726097688294476
  outer loop
    vertex -53.77496087430418 34.62864579451043 3.6104417575246166
    vertex -53.93835436482082 85.42864579451118 3.649491175374846
    vertex -53.938354365090376 34.6286457945112 3.6494911752663723
  endloop
endfacet
facet normal 0.23244405257508455 -3.3102138861555776e-12 0.9726097688294476
  outer loop
    vertex -53.93835436482082 85.42864579451118 3.649491175374846
    vertex -53.77496087430418 34.62864579451043 3.6104417575246166
    vertex -53.77496087403462 85.4286457945104 3.6104417576330903
  endloop
endfacet
facet normal 0.10036920294677627 -2.6571244350424e-12 0.9949502616210666
  outer loop
    vertex -54.10399632937242 34.62864579451207 3.677509553628702
    vertex -54.27114290896977 85.42864579451287 3.694371068974317
    vertex -54.27114290923932 34.62864579451292 3.694371068865844
  endloop
endfacet
facet normal 0.10036920294677627 -2.6571244350424e-12 0.9949502616210666
  outer loop
    vertex -54.27114290896977 85.42864579451287 3.694371068974317
    vertex -54.10399632937242 34.62864579451207 3.677509553628702
    vertex -54.10399632910284 85.42864579451205 3.677509553737176
  endloop
endfacet
facet normal 0.03350655759174985 -2.311906772680338e-12 0.9994384976567346
  outer loop
    vertex -54.27114290923932 34.62864579451292 3.694371068865844
    vertex -54.4390434896464 85.42864579451376 3.7000000001084694
    vertex -54.43904348991598 34.62864579451377 3.699999999999996
  endloop
endfacet
facet normal 0.03350655759174985 -2.311906772680338e-12 0.9994384976567346
  outer loop
    vertex -54.4390434896464 85.42864579451376 3.7000000001084694
    vertex -54.27114290923932 34.62864579451292 3.694371068865844
    vertex -54.27114290896977 85.42864579451287 3.694371068974317
  endloop
endfacet
facet normal -0.2970631407126729 -4.625711139058603e-13 0.9548578378114319
  outer loop
    vertex -55.103126105527785 34.62864579451752 3.610441757524619
    vertex -55.26353736198691 85.42864579451846 3.560536661981664
    vertex -55.26353736225649 34.62864579451848 3.560536661873191
  endloop
endfacet
facet normal -0.2970631407126729 -4.625711139058603e-13 0.9548578378114319
  outer loop
    vertex -55.26353736198691 85.42864579451846 3.560536661981664
    vertex -55.103126105527785 34.62864579451752 3.610441757524619
    vertex -55.10312610525823 85.42864579451748 3.610441757633092
  endloop
endfacet
facet normal -0.03350655759172528 -1.9563069095107955e-12 0.9994384976567355
  outer loop
    vertex -54.43904348991598 34.62864579451377 3.699999999999996
    vertex -54.606944070323124 85.42864579451467 3.6943710689743194
    vertex -54.606944070592675 34.6286457945147 3.6943710688658458
  endloop
endfacet
facet normal -0.03350655759172528 -1.9563069095107955e-12 0.9994384976567355
  outer loop
    vertex -54.606944070323124 85.42864579451467 3.6943710689743194
    vertex -54.43904348991598 34.62864579451377 3.699999999999996
    vertex -54.4390434896464 85.42864579451376 3.7000000001084694
  endloop
endfacet
facet normal -5.30580903629715e-12 -1.0 -2.1337690686333e-12
  outer loop
    vertex -47.00131922384507 34.62864579448008 1.0000000000000018
    vertex -54.00131922384509 34.62864579451721 1.0000000000000002
    vertex -45.62631922384507 34.62864579447271 1.0000000000000002
  endloop
endfacet
facet normal -5.30580903629715e-12 -1.0 -2.1337690686333e-12
  outer loop
    vertex -54.00131922384509 34.62864579451721 1.0000000000000002
    vertex -47.00131922384507 34.62864579448008 1.0000000000000018
    vertex -49.00131922384507 34.628645794490716 1.0000000000000018
  endloop
endfacet
facet normal -5.30580903629715e-12 -1.0 -2.1337690686333e-12
  outer loop
    vertex -49.00131922384507 34.628645794490716 1.0000000000000018
    vertex -47.00131922384507 34.62864579448008 1.0000000000000018
    vertex -48.58239243083363 34.62864579448445 2.8999999999999972
  endloop
endfacet
facet normal -5.30580903629715e-12 -1.0 -2.1337690686333e-12
  outer loop
    vertex -49.00131922384507 34.628645794490716 1.0000000000000018
    vertex -48.58239243083363 34.62864579448445 2.8999999999999972
    vertex -49.54479748471471 34.628645794488236 3.499999999999998
  endloop
endfacet
facet normal -5.30580903629715e-12 -1.0 -2.1337690686333e-12
  outer loop
    vertex -49.54479748471471 34.628645794488236 3.499999999999998
    vertex -48.58239243083363 34.62864579448445 2.8999999999999972
    vertex -48.515311650547304 34.62864579448392 2.9674539193838414
  endloop
endfacet
facet normal -5.30580903629715e-12 -1.0 -2.1337690686333e-12
  outer loop
    vertex -49.54479748471471 34.628645794488236 3.499999999999998
    vertex -48.515311650547304 34.62864579448392 2.9674539193838414
    vertex -48.44436984006042 34.62864579448343 3.030834688146249
  endloop
endfacet
facet normal -5.30580903629715e-12 -1.0 -2.1337690686333e-12
  outer loop
    vertex -49.54479748471471 34.628645794488236 3.499999999999998
    vertex -48.44436984006042 34.62864579448343 3.030834688146249
    vertex -48.36981391284899 34.628645794482914 3.089921709070686
  endloop
endfacet
facet normal -5.30580903629715e-12 -1.0 -2.1337690686333e-12
  outer loop
    vertex -49.54479748471471 34.628645794488236 3.499999999999998
    vertex -48.36981391284899 34.628645794482914 3.089921709070686
    vertex -48.29190336134814 34.62864579448236 3.1445093293605177
  endloop
endfacet
facet normal -5.30580903629715e-12 -1.0 -2.1337690686333e-12
  outer loop
    vertex -49.54479748471471 34.628645794488236 3.499999999999998
    vertex -48.29190336134814 34.62864579448236 3.1445093293605177
    vertex -48.210909353786555 34.62864579448182 3.194407556415022
  endloop
endfacet
facet normal -5.30580903629715e-12 -1.0 -2.1337690686333e-12
  outer loop
    vertex -49.54479748471471 34.628645794488236 3.499999999999998
    vertex -48.210909353786555 34.62864579448182 3.194407556415022
    vertex -48.127113790383625 34.62864579448126 3.239442719099985
  endloop
endfacet
facet normal -5.30580903629715e-12 -1.0 -2.1337690686333e-12
  outer loop
    vertex -49.54479748471471 34.628645794488236 3.499999999999998
    vertex -48.127113790383625 34.62864579448126 3.239442719099985
    vertex -48.040808322193946 34.62864579448071 3.2794580722113356
  endloop
endfacet
facet normal -5.30580903629715e-12 -1.0 -2.1337690686333e-12
  outer loop
    vertex -49.54479748471471 34.628645794488236 3.499999999999998
    vertex -48.040808322193946 34.62864579448071 3.2794580722113356
    vertex -47.95229333601335 34.62864579448019 3.3143143420279193
  endloop
endfacet
facet normal -5.30580903629715e-12 -1.0 -2.1337690686333e-12
  outer loop
    vertex -49.54479748471471 34.628645794488236 3.499999999999998
    vertex -47.95229333601335 34.62864579448019 3.3143143420279193
    vertex -47.86187690888099 34.6286457944796 3.3438902110546924
  endloop
endfacet
facet normal -5.30580903629715e-12 -1.0 -2.1337690686333e-12
  outer loop
    vertex -49.54479748471471 34.628645794488236 3.499999999999998
    vertex -47.86187690888099 34.6286457944796 3.3438902110546924
    vertex -47.769873735814606 34.628645794479105 3.368082740269128
  endloop
endfacet
facet normal -5.30580903629715e-12 -1.0 -2.1337690686333e-12
  outer loop
    vertex -49.54479748471471 34.628645794488236 3.499999999999998
    vertex -47.769873735814606 34.628645794479105 3.368082740269128
    vertex -47.67660403451253 34.628645794478544 3.386807727401198
  endloop
endfacet
facet normal -5.30580903629715e-12 -1.0 -2.1337690686333e-12
  outer loop
    vertex -49.54479748471471 34.628645794488236 3.499999999999998
    vertex -47.67660403451253 34.628645794478544 3.386807727401198
    vertex -47.5823924308337 34.62864579447807 3.399999999999996
  endloop
endfacet
facet normal -5.30580903629715e-12 -1.0 -2.1337690686333e-12
  outer loop
    vertex -49.54479748471471 34.628645794488236 3.499999999999998
    vertex -47.5823924308337 34.62864579447807 3.399999999999996
    vertex -47.5823924308337 34.628645794477855 3.4999999999999956
  endloop
endfacet
facet normal -5.30580903629715e-12 -1.0 -2.1337690686333e-12
  outer loop
    vertex -49.54479748471471 34.628645794488236 3.499999999999998
    vertex -47.5823924308337 34.628645794477855 3.4999999999999956
    vertex -47.73910108543367 34.62864579447854 3.560536661873192
  endloop
endfacet
facet normal -5.30580903629715e-12 -1.0 -2.1337690686333e-12
  outer loop
    vertex -49.54479748471471 34.628645794488236 3.499999999999998
    vertex -47.73910108543367 34.62864579447854 3.560536661873192
    vertex -49.38808883011478 34.628645794487326 3.5605366618731926
  endloop
endfacet
facet normal -5.30580903629715e-12 -1.0 -2.1337690686333e-12
  outer loop
    vertex -49.38808883011478 34.628645794487326 3.5605366618731926
    vertex -47.73910108543367 34.62864579447854 3.560536661873192
    vertex -47.89951234216235 34.628645794479304 3.61044175752462
  endloop
endfacet
facet normal -5.30580903629715e-12 -1.0 -2.1337690686333e-12
  outer loop
    vertex -49.38808883011478 34.628645794487326 3.5605366618731926
    vertex -47.89951234216235 34.628645794479304 3.61044175752462
    vertex -49.22767757338596 34.62864579448632 3.610441757524618
  endloop
endfacet
facet normal -5.30580903629715e-12 -1.0 -2.1337690686333e-12
  outer loop
    vertex -49.22767757338596 34.62864579448632 3.610441757524618
    vertex -47.89951234216235 34.628645794479304 3.61044175752462
    vertex -49.064284082599784 34.628645794485365 3.6494911752663746
  endloop
endfacet
facet normal -5.30580903629715e-12 -1.0 -2.1337690686333e-12
  outer loop
    vertex -49.064284082599784 34.628645794485365 3.6494911752663746
    vertex -47.89951234216235 34.628645794479304 3.61044175752462
    vertex -48.062905832948594 34.628645794480065 3.649491175266376
  endloop
endfacet
facet normal -5.30580903629715e-12 -1.0 -2.1337690686333e-12
  outer loop
    vertex -49.064284082599784 34.628645794485365 3.6494911752663746
    vertex -48.062905832948594 34.628645794480065 3.649491175266376
    vertex -48.89864211831774 34.62864579448447 3.6775095536287035
  endloop
endfacet
facet normal -5.30580903629715e-12 -1.0 -2.1337690686333e-12
  outer loop
    vertex -48.89864211831774 34.62864579448447 3.6775095536287035
    vertex -48.062905832948594 34.628645794480065 3.649491175266376
    vertex -48.22854779723071 34.62864579448089 3.6775095536287017
  endloop
endfacet
facet normal -5.30580903629715e-12 -1.0 -2.1337690686333e-12
  outer loop
    vertex -48.89864211831774 34.62864579448447 3.6775095536287035
    vertex -48.22854779723071 34.62864579448089 3.6775095536287017
    vertex -48.39569437709748 34.62864579448176 3.6943710688658475
  endloop
endfacet
facet normal -5.30580903629715e-12 -1.0 -2.1337690686333e-12
  outer loop
    vertex -48.89864211831774 34.62864579448447 3.6775095536287035
    vertex -48.39569437709748 34.62864579448176 3.6943710688658475
    vertex -48.73149553845084 34.628645794483546 3.6943710688658453
  endloop
endfacet
facet normal -5.30580903629715e-12 -1.0 -2.1337690686333e-12
  outer loop
    vertex -48.73149553845084 34.628645794483546 3.6943710688658453
    vertex -48.39569437709748 34.62864579448176 3.6943710688658475
    vertex -48.56359495777422 34.62864579448262 3.6999999999999975
  endloop
endfacet
facet normal -5.30580903629715e-12 -1.0 -2.1337690686333e-12
  outer loop
    vertex -53.45784096297545 34.62864579450896 3.4999999999999964
    vertex -56.00131922384508 34.62864579452785 1.0000000000000002
    vertex -54.00131922384509 34.62864579451721 1.0000000000000002
  endloop
endfacet
facet normal -5.30580903629715e-12 -1.0 -2.1337690686333e-12
  outer loop
    vertex -56.00131922384508 34.62864579452785 1.0000000000000002
    vertex -53.45784096297545 34.62864579450896 3.4999999999999964
    vertex -54.42024601685646 34.62864579451538 2.899999999999996
  endloop
endfacet
facet normal -5.30580903629715e-12 -1.0 -2.1337690686333e-12
  outer loop
    vertex -54.42024601685646 34.62864579451538 2.899999999999996
    vertex -53.45784096297545 34.62864579450896 3.4999999999999964
    vertex -54.48732679714288 34.62864579451559 2.9674539193838414
  endloop
endfacet
facet normal -5.30580903629715e-12 -1.0 -2.1337690686333e-12
  outer loop
    vertex -54.48732679714288 34.62864579451559 2.9674539193838414
    vertex -53.45784096297545 34.62864579450896 3.4999999999999964
    vertex -54.55826860762976 34.628645794515855 3.030834688146249
  endloop
endfacet
facet normal -5.30580903629715e-12 -1.0 -2.1337690686333e-12
  outer loop
    vertex -54.55826860762976 34.628645794515855 3.030834688146249
    vertex -53.45784096297545 34.62864579450896 3.4999999999999964
    vertex -54.63282453484117 34.6286457945161 3.089921709070685
  endloop
endfacet
facet normal -5.30580903629715e-12 -1.0 -2.1337690686333e-12
  outer loop
    vertex -54.63282453484117 34.6286457945161 3.089921709070685
    vertex -53.45784096297545 34.62864579450896 3.4999999999999964
    vertex -54.71073508634195 34.6286457945164 3.144509329360517
  endloop
endfacet
facet normal -5.30580903629715e-12 -1.0 -2.1337690686333e-12
  outer loop
    vertex -54.71073508634195 34.6286457945164 3.144509329360517
    vertex -53.45784096297545 34.62864579450896 3.4999999999999964
    vertex -54.791729093903605 34.62864579451674 3.1944075564150203
  endloop
endfacet
facet normal -5.30580903629715e-12 -1.0 -2.1337690686333e-12
  outer loop
    vertex -54.791729093903605 34.62864579451674 3.1944075564150203
    vertex -53.45784096297545 34.62864579450896 3.4999999999999964
    vertex -54.875524657306464 34.62864579451705 3.2394427190999835
  endloop
endfacet
facet normal -5.30580903629715e-12 -1.0 -2.1337690686333e-12
  outer loop
    vertex -54.875524657306464 34.62864579451705 3.2394427190999835
    vertex -53.45784096297545 34.62864579450896 3.4999999999999964
    vertex -54.96183012549621 34.62864579451743 3.2794580722113342
  endloop
endfacet
facet normal -5.30580903629715e-12 -1.0 -2.1337690686333e-12
  outer loop
    vertex -54.96183012549621 34.62864579451743 3.2794580722113342
    vertex -53.45784096297545 34.62864579450896 3.4999999999999964
    vertex -55.05034511167674 34.628645794517844 3.3143143420279184
  endloop
endfacet
facet normal -5.30580903629715e-12 -1.0 -2.1337690686333e-12
  outer loop
    vertex -55.05034511167674 34.628645794517844 3.3143143420279184
    vertex -53.45784096297545 34.62864579450896 3.4999999999999964
    vertex -55.140761538809166 34.62864579451824 3.343890211054691
  endloop
endfacet
facet normal -5.30580903629715e-12 -1.0 -2.1337690686333e-12
  outer loop
    vertex -55.140761538809166 34.62864579451824 3.343890211054691
    vertex -53.45784096297545 34.62864579450896 3.4999999999999964
    vertex -55.23276471187548 34.6286457945187 3.3680827402691267
  endloop
endfacet
facet normal -5.30580903629715e-12 -1.0 -2.1337690686333e-12
  outer loop
    vertex -55.23276471187548 34.6286457945187 3.3680827402691267
    vertex -53.45784096297545 34.62864579450896 3.4999999999999964
    vertex -55.326034413177624 34.62864579451913 3.3868077274011963
  endloop
endfacet
facet normal -5.30580903629715e-12 -1.0 -2.1337690686333e-12
  outer loop
    vertex -55.326034413177624 34.62864579451913 3.3868077274011963
    vertex -53.45784096297545 34.62864579450896 3.4999999999999964
    vertex -55.42024601685646 34.62864579451965 3.3999999999999946
  endloop
endfacet
facet normal -5.30580903629715e-12 -1.0 -2.1337690686333e-12
  outer loop
    vertex -55.42024601685646 34.62864579451965 3.3999999999999946
    vertex -53.45784096297545 34.62864579450896 3.4999999999999964
    vertex -55.4202460168565 34.628645794519436 3.4999999999999942
  endloop
endfacet
facet normal -5.30580903629715e-12 -1.0 -2.1337690686333e-12
  outer loop
    vertex -55.4202460168565 34.628645794519436 3.4999999999999942
    vertex -53.45784096297545 34.62864579450896 3.4999999999999964
    vertex -55.26353736225649 34.62864579451848 3.560536661873191
  endloop
endfacet
facet normal -5.30580903629715e-12 -1.0 -2.1337690686333e-12
  outer loop
    vertex -55.26353736225649 34.62864579451848 3.560536661873191
    vertex -53.45784096297545 34.62864579450896 3.4999999999999964
    vertex -53.61454961757538 34.628645794509715 3.56053666187319
  endloop
endfacet
facet normal -5.30580903629715e-12 -1.0 -2.1337690686333e-12
  outer loop
    vertex -55.26353736225649 34.62864579451848 3.560536661873191
    vertex -53.61454961757538 34.628645794509715 3.56053666187319
    vertex -53.77496087430418 34.62864579451043 3.6104417575246166
  endloop
endfacet
facet normal -5.30580903629715e-12 -1.0 -2.1337690686333e-12
  outer loop
    vertex -55.26353736225649 34.62864579451848 3.560536661873191
    vertex -53.77496087430418 34.62864579451043 3.6104417575246166
    vertex -55.103126105527785 34.62864579451752 3.610441757524619
  endloop
endfacet
facet normal -5.30580903629715e-12 -1.0 -2.1337690686333e-12
  outer loop
    vertex -55.103126105527785 34.62864579451752 3.610441757524619
    vertex -53.77496087430418 34.62864579451043 3.6104417575246166
    vertex -53.938354365090376 34.6286457945112 3.6494911752663723
  endloop
endfacet
facet normal -5.30580903629715e-12 -1.0 -2.1337690686333e-12
  outer loop
    vertex -55.103126105527785 34.62864579451752 3.610441757524619
    vertex -53.938354365090376 34.6286457945112 3.6494911752663723
    vertex -54.93973261474156 34.62864579451652 3.6494911752663746
  endloop
endfacet
facet normal -5.30580903629715e-12 -1.0 -2.1337690686333e-12
  outer loop
    vertex -54.93973261474156 34.62864579451652 3.6494911752663746
    vertex -53.938354365090376 34.6286457945112 3.6494911752663723
    vertex -54.10399632937242 34.62864579451207 3.677509553628702
  endloop
endfacet
facet normal -5.30580903629715e-12 -1.0 -2.1337690686333e-12
  outer loop
    vertex -54.93973261474156 34.62864579451652 3.6494911752663746
    vertex -54.10399632937242 34.62864579451207 3.677509553628702
    vertex -54.77409065045945 34.628645794515585 3.6775095536287
  endloop
endfacet
facet normal -5.30580903629715e-12 -1.0 -2.1337690686333e-12
  outer loop
    vertex -54.77409065045945 34.628645794515585 3.6775095536287
    vertex -54.10399632937242 34.62864579451207 3.677509553628702
    vertex -54.606944070592675 34.6286457945147 3.6943710688658458
  endloop
endfacet
facet normal -5.30580903629715e-12 -1.0 -2.1337690686333e-12
  outer loop
    vertex -54.606944070592675 34.6286457945147 3.6943710688658458
    vertex -54.10399632937242 34.62864579451207 3.677509553628702
    vertex -54.27114290923932 34.62864579451292 3.694371068865844
  endloop
endfacet
facet normal -5.30580903629715e-12 -1.0 -2.1337690686333e-12
  outer loop
    vertex -54.606944070592675 34.6286457945147 3.6943710688658458
    vertex -54.27114290923932 34.62864579451292 3.694371068865844
    vertex -54.43904348991598 34.62864579451377 3.699999999999996
  endloop
endfacet
facet normal -5.30580903629715e-12 -1.0 -2.1337690686333e-12
  outer loop
    vertex -45.62631922384507 34.62864579447271 1.0000000000000002
    vertex -51.50131922384517 34.628645794506085 0.0
    vertex -47.001319223845144 34.62864579448221 0.0
  endloop
endfacet
facet normal -5.30580903629715e-12 -1.0 -2.1337690686333e-12
  outer loop
    vertex -51.50131922384517 34.628645794506085 0.0
    vertex -45.62631922384507 34.62864579447271 1.0000000000000002
    vertex -56.00131922384517 34.62864579452997 0.0
  endloop
endfacet
facet normal -5.30580903629715e-12 -1.0 -2.1337690686333e-12
  outer loop
    vertex -56.00131922384517 34.62864579452997 0.0
    vertex -45.62631922384507 34.62864579447271 1.0000000000000002
    vertex -57.50131922384508 34.628645794535885 1.0000000000000002
  endloop
endfacet
facet normal -5.30580903629715e-12 -1.0 -2.1337690686333e-12
  outer loop
    vertex -57.50131922384508 34.628645794535885 1.0000000000000002
    vertex -45.62631922384507 34.62864579447271 1.0000000000000002
    vertex -54.00131922384509 34.62864579451721 1.0000000000000002
  endloop
endfacet
facet normal -5.30580903629715e-12 -1.0 -2.1337690686333e-12
  outer loop
    vertex -57.50131922384508 34.628645794535885 1.0000000000000002
    vertex -54.00131922384509 34.62864579451721 1.0000000000000002
    vertex -56.00131922384508 34.62864579452785 1.0000000000000002
  endloop
endfacet
facet normal 0.16678111454036443 -2.9904095827369047e-12 0.9859939451298237
  outer loop
    vertex -53.938354365090376 34.6286457945112 3.6494911752663723
    vertex -54.10399632910284 85.42864579451205 3.677509553737176
    vertex -54.10399632937242 34.62864579451207 3.677509553628702
  endloop
endfacet
facet normal 0.16678111454036443 -2.9904095827369047e-12 0.9859939451298237
  outer loop
    vertex -54.10399632910284 85.42864579451205 3.677509553737176
    vertex -53.938354365090376 34.6286457945112 3.6494911752663723
    vertex -53.93835436482082 85.42864579451118 3.649491175374846
  endloop
endfacet
facet normal 1.1326121011313616e-23 2.1343351922432815e-12 -1.0
  outer loop
    vertex -56.00131922357559 85.42864579453 1.0842418629586348e-10
    vertex -51.50131922384517 34.628645794506085 0.0
    vertex -56.00131922384517 34.62864579452997 0.0
  endloop
endfacet
facet normal 1.1326121011313616e-23 2.1343351922432815e-12 -1.0
  outer loop
    vertex -51.50131922384517 34.628645794506085 0.0
    vertex -56.00131922357559 85.42864579453 1.0842418629586348e-10
    vertex -47.001319223575585 85.42864579448225 1.0842418629586348e-10
  endloop
endfacet
facet normal 1.1326121011313616e-23 2.1343351922432815e-12 -1.0
  outer loop
    vertex -51.50131922384517 34.628645794506085 0.0
    vertex -47.001319223575585 85.42864579448225 1.0842418629586348e-10
    vertex -47.001319223845144 34.62864579448221 0.0
  endloop
endfacet
facet normal 0.709065251932526 -2.2565839312792592e-12 -0.7051428709856347
  outer loop
    vertex -48.58239243083363 34.62864579448445 2.8999999999999972
    vertex -48.51531165027775 85.42864579448391 2.9674539194923155
    vertex -48.515311650547304 34.62864579448392 2.9674539193838414
  endloop
endfacet
facet normal 0.709065251932526 -2.2565839312792592e-12 -0.7051428709856347
  outer loop
    vertex -48.51531165027775 85.42864579448391 2.9674539194923155
    vertex -48.58239243083363 34.62864579448445 2.8999999999999972
    vertex -48.5823924305641 85.42864579448441 2.900000000108471
  endloop
endfacet
facet normal -0.5245225075213533 4.601332717320582e-12 -0.851396581566729
  outer loop
    vertex -54.791729093634046 85.42864579451671 3.194407556523494
    vertex -54.71073508634195 34.6286457945164 3.144509329360517
    vertex -54.791729093903605 34.62864579451674 3.1944075564150203
  endloop
endfacet
facet normal -0.5245225075213533 4.601332717320582e-12 -0.851396581566729
  outer loop
    vertex -54.71073508634195 34.6286457945164 3.144509329360517
    vertex -54.791729093634046 85.42864579451671 3.194407556523494
    vertex -54.710735086072376 85.42864579451636 3.1445093294689905
  endloop
endfacet
facet normal -0.5738166897753968 4.793699928562826e-12 -0.8189837645125855
  outer loop
    vertex -54.710735086072376 85.42864579451636 3.1445093294689905
    vertex -54.63282453484117 34.6286457945161 3.089921709070685
    vertex -54.71073508634195 34.6286457945164 3.144509329360517
  endloop
endfacet
facet normal -0.5738166897753968 4.793699928562826e-12 -0.8189837645125855
  outer loop
    vertex -54.63282453484117 34.6286457945161 3.089921709070685
    vertex -54.710735086072376 85.42864579451636 3.1445093294689905
    vertex -54.63282453457161 85.42864579451609 3.0899217091791593
  endloop
endfacet
facet normal -0.42063525283965947 4.169187912784326e-12 -0.9072298408168217
  outer loop
    vertex -54.961830125226655 85.42864579451741 3.2794580723198075
    vertex -54.875524657306464 34.62864579451705 3.2394427190999835
    vertex -54.96183012549621 34.62864579451743 3.2794580722113342
  endloop
endfacet
facet normal -0.42063525283965947 4.169187912784326e-12 -0.9072298408168217
  outer loop
    vertex -54.875524657306464 34.62864579451705 3.2394427190999835
    vertex -54.961830125226655 85.42864579451741 3.2794580723198075
    vertex -54.87552465703691 85.42864579451701 3.239442719208457
  endloop
endfacet
facet normal -0.768670777666622 2.7128493421387583e-12 0.6396446166125301
  outer loop
    vertex -54.42024601658691 85.42864579451536 2.9000000001084696
    vertex -56.00131922384508 34.62864579452785 1.0000000000000002
    vertex -54.42024601685646 34.62864579451538 2.899999999999996
  endloop
endfacet
facet normal -0.768670777666622 2.7128493421387583e-12 0.6396446166125301
  outer loop
    vertex -56.00131922384508 34.62864579452785 1.0000000000000002
    vertex -54.42024601658691 85.42864579451536 2.9000000001084696
    vertex -56.00131922357557 85.42864579452788 1.0000000001084248
  endloop
endfacet
facet normal -3.0549638025554715e-16 -2.1343447842436766e-12 1.0
  outer loop
    vertex -49.00131922384507 34.628645794490716 1.0000000000000018
    vertex -54.00131922357558 85.42864579451725 1.0000000001084248
    vertex -54.00131922384509 34.62864579451721 1.0000000000000002
  endloop
endfacet
facet normal -3.0549638025554715e-16 -2.1343447842436766e-12 1.0
  outer loop
    vertex -54.00131922357558 85.42864579451725 1.0000000001084248
    vertex -49.00131922384507 34.628645794490716 1.0000000000000018
    vertex -49.001319223575585 85.42864579449075 1.0000000001084266
  endloop
endfacet
facet normal -0.6662489174934874 5.127911464637616e-12 -0.7457294281029524
  outer loop
    vertex -54.55826860736018 85.42864579451583 3.030834688254723
    vertex -54.48732679714288 34.62864579451559 2.9674539193838414
    vertex -54.55826860762976 34.628645794515855 3.030834688146249
  endloop
endfacet
facet normal -0.6662489174934874 5.127911464637616e-12 -0.7457294281029524
  outer loop
    vertex -54.48732679714288 34.62864579451559 2.9674539193838414
    vertex -54.55826860736018 85.42864579451583 3.030834688254723
    vertex -54.4873267968733 85.42864579451559 2.9674539194923155
  endloop
endfacet
facet normal -0.7090652519321381 5.26829996656771e-12 -0.7051428709860247
  outer loop
    vertex -54.48732679714288 34.62864579451559 2.9674539193838414
    vertex -54.42024601658691 85.42864579451536 2.9000000001084696
    vertex -54.42024601685646 34.62864579451538 2.899999999999996
  endloop
endfacet
facet normal -0.7090652519321381 5.26829996656771e-12 -0.7051428709860247
  outer loop
    vertex -54.42024601658691 85.42864579451536 2.9000000001084696
    vertex -54.48732679714288 34.62864579451559 2.9674539193838414
    vertex -54.4873267968733 85.42864579451559 2.9674539194923155
  endloop
endfacet
facet normal -0.36640376074048686 3.9311009568257105e-12 -0.9304559549571533
  outer loop
    vertex -55.05034511140716 85.42864579451779 3.314314342136392
    vertex -54.96183012549621 34.62864579451743 3.2794580722113342
    vertex -55.05034511167674 34.628645794517844 3.3143143420279184
  endloop
endfacet
facet normal -0.36640376074048686 3.9311009568257105e-12 -0.9304559549571533
  outer loop
    vertex -54.96183012549621 34.62864579451743 3.2794580722113342
    vertex -55.05034511140716 85.42864579451779 3.314314342136392
    vertex -54.961830125226655 85.42864579451741 3.2794580723198075
  endloop
endfacet
facet normal -0.4734027209497509 4.392845275585071e-12 -0.8808461067617728
  outer loop
    vertex -54.87552465703691 85.42864579451701 3.239442719208457
    vertex -54.791729093903605 34.62864579451674 3.1944075564150203
    vertex -54.875524657306464 34.62864579451705 3.2394427190999835
  endloop
endfacet
facet normal -0.4734027209497509 4.392845275585071e-12 -0.8808461067617728
  outer loop
    vertex -54.791729093903605 34.62864579451674 3.1944075564150203
    vertex -54.87552465703691 85.42864579451701 3.239442719208457
    vertex -54.791729093634046 85.42864579451671 3.194407556523494
  endloop
endfacet
facet normal -0.6211136989577342 4.969379706265468e-12 -0.78372046864111
  outer loop
    vertex -54.63282453457161 85.42864579451609 3.0899217091791593
    vertex -54.55826860762976 34.628645794515855 3.030834688146249
    vertex -54.63282453484117 34.6286457945161 3.089921709070685
  endloop
endfacet
facet normal -0.6211136989577342 4.969379706265468e-12 -0.78372046864111
  outer loop
    vertex -54.55826860762976 34.628645794515855 3.030834688146249
    vertex -54.63282453457161 85.42864579451609 3.0899217091791593
    vertex -54.55826860736018 85.42864579451583 3.030834688254723
  endloop
endfacet
facet normal 0.7686707776666415 -5.443570121037894e-12 0.6396446166125067
  outer loop
    vertex -47.001319223575585 85.42864579448012 1.0000000001084266
    vertex -48.58239243083363 34.62864579448445 2.8999999999999972
    vertex -47.00131922384507 34.62864579448008 1.0000000000000018
  endloop
endfacet
facet normal 0.7686707776666415 -5.443570121037894e-12 0.6396446166125067
  outer loop
    vertex -48.58239243083363 34.62864579448445 2.8999999999999972
    vertex -47.001319223575585 85.42864579448012 1.0000000001084266
    vertex -48.5823924305641 85.42864579448441 2.900000000108471
  endloop
endfacet
facet normal -0.31089699774498836 3.679238439083016e-12 -0.9504436105278171
  outer loop
    vertex -55.140761538539614 85.42864579451823 3.3438902111631648
    vertex -55.05034511167674 34.628645794517844 3.3143143420279184
    vertex -55.140761538809166 34.62864579451824 3.343890211054691
  endloop
endfacet
facet normal -0.31089699774498836 3.679238439083016e-12 -0.9504436105278171
  outer loop
    vertex -55.05034511167674 34.628645794517844 3.3143143420279184
    vertex -55.140761538539614 85.42864579451823 3.3438902111631648
    vertex -55.05034511140716 85.42864579451779 3.314314342136392
  endloop
endfacet
facet normal -0.5547001962252474 4.71910364381069e-12 -0.8320502943378315
  outer loop
    vertex -57.50131922357557 85.42864579453591 1.0000000001084248
    vertex -56.00131922384517 34.62864579452997 0.0
    vertex -57.50131922384508 34.628645794535885 1.0000000000000002
  endloop
endfacet
facet normal -0.5547001962252474 4.71910364381069e-12 -0.8320502943378315
  outer loop
    vertex -56.00131922384517 34.62864579452997 0.0
    vertex -57.50131922357557 85.42864579453591 1.0000000001084248
    vertex -56.00131922357559 85.42864579453 1.0842418629586348e-10
  endloop
endfacet
facet normal 0.5881716976750327 -1.3944489122939403e-12 -0.8087360843031982
  outer loop
    vertex -47.001319223575585 85.42864579448225 1.0842418629586348e-10
    vertex -45.62631922384507 34.62864579447271 1.0000000000000002
    vertex -47.001319223845144 34.62864579448221 0.0
  endloop
endfacet
facet normal 0.5881716976750327 -1.3944489122939403e-12 -0.8087360843031982
  outer loop
    vertex -45.62631922384507 34.62864579447271 1.0000000000000002
    vertex -47.001319223575585 85.42864579448225 1.0842418629586348e-10
    vertex -45.626319223575585 85.42864579447274 1.0000000001084248
  endloop
endfacet
facet normal -1.1432743486504168e-23 -2.134341314796727e-12 1.0
  outer loop
    vertex -56.00131922384508 34.62864579452785 1.0000000000000002
    vertex -57.50131922357557 85.42864579453591 1.0000000001084248
    vertex -57.50131922384508 34.628645794535885 1.0000000000000002
  endloop
endfacet
facet normal -1.1432743486504168e-23 -2.134341314796727e-12 1.0
  outer loop
    vertex -57.50131922357557 85.42864579453591 1.0000000001084248
    vertex -56.00131922384508 34.62864579452785 1.0000000000000002
    vertex -56.00131922357557 85.42864579452788 1.0000000001084248
  endloop
endfacet
facet normal 1.110895875624827e-15 -2.134344784243684e-12 1.0
  outer loop
    vertex -45.62631922384507 34.62864579447271 1.0000000000000002
    vertex -47.001319223575585 85.42864579448012 1.0000000001084266
    vertex -47.00131922384507 34.62864579448008 1.0000000000000018
  endloop
endfacet
facet normal 1.110895875624827e-15 -2.134344784243684e-12 1.0
  outer loop
    vertex -47.001319223575585 85.42864579448012 1.0000000001084266
    vertex -45.62631922384507 34.62864579447271 1.0000000000000002
    vertex -45.626319223575585 85.42864579447274 1.0000000001084248
  endloop
endfacet
facet normal 5.3060239116850186e-12 1.0 2.1559632252349204e-12
  outer loop
    vertex -54.42024601658691 85.42864579451536 2.9000000001084696
    vertex -54.00131922357558 85.42864579451725 1.0000000001084248
    vertex -56.00131922357557 85.42864579452788 1.0000000001084248
  endloop
endfacet
facet normal 5.3060239116850186e-12 1.0 2.1559632252349204e-12
  outer loop
    vertex -54.00131922357558 85.42864579451725 1.0000000001084248
    vertex -54.42024601658691 85.42864579451536 2.9000000001084696
    vertex -53.457840962705895 85.42864579450894 3.50000000010847
  endloop
endfacet
facet normal 5.3060239116850186e-12 1.0 2.1559632252349204e-12
  outer loop
    vertex -53.457840962705895 85.42864579450894 3.50000000010847
    vertex -54.42024601658691 85.42864579451536 2.9000000001084696
    vertex -54.4873267968733 85.42864579451559 2.9674539194923155
  endloop
endfacet
facet normal 5.3060239116850186e-12 1.0 2.1559632252349204e-12
  outer loop
    vertex -53.457840962705895 85.42864579450894 3.50000000010847
    vertex -54.4873267968733 85.42864579451559 2.9674539194923155
    vertex -54.55826860736018 85.42864579451583 3.030834688254723
  endloop
endfacet
facet normal 5.3060239116850186e-12 1.0 2.1559632252349204e-12
  outer loop
    vertex -53.457840962705895 85.42864579450894 3.50000000010847
    vertex -54.55826860736018 85.42864579451583 3.030834688254723
    vertex -54.63282453457161 85.42864579451609 3.0899217091791593
  endloop
endfacet
facet normal 5.3060239116850186e-12 1.0 2.1559632252349204e-12
  outer loop
    vertex -53.457840962705895 85.42864579450894 3.50000000010847
    vertex -54.63282453457161 85.42864579451609 3.0899217091791593
    vertex -54.710735086072376 85.42864579451636 3.1445093294689905
  endloop
endfacet
facet normal 5.3060239116850186e-12 1.0 2.1559632252349204e-12
  outer loop
    vertex -53.457840962705895 85.42864579450894 3.50000000010847
    vertex -54.710735086072376 85.42864579451636 3.1445093294689905
    vertex -54.791729093634046 85.42864579451671 3.194407556523494
  endloop
endfacet
facet normal 5.3060239116850186e-12 1.0 2.1559632252349204e-12
  outer loop
    vertex -53.457840962705895 85.42864579450894 3.50000000010847
    vertex -54.791729093634046 85.42864579451671 3.194407556523494
    vertex -54.87552465703691 85.42864579451701 3.239442719208457
  endloop
endfacet
facet normal 5.3060239116850186e-12 1.0 2.1559632252349204e-12
  outer loop
    vertex -53.457840962705895 85.42864579450894 3.50000000010847
    vertex -54.87552465703691 85.42864579451701 3.239442719208457
    vertex -54.961830125226655 85.42864579451741 3.2794580723198075
  endloop
endfacet
facet normal 5.3060239116850186e-12 1.0 2.1559632252349204e-12
  outer loop
    vertex -53.457840962705895 85.42864579450894 3.50000000010847
    vertex -54.961830125226655 85.42864579451741 3.2794580723198075
    vertex -55.05034511140716 85.42864579451779 3.314314342136392
  endloop
endfacet
facet normal 5.3060239116850186e-12 1.0 2.1559632252349204e-12
  outer loop
    vertex -53.457840962705895 85.42864579450894 3.50000000010847
    vertex -55.05034511140716 85.42864579451779 3.314314342136392
    vertex -55.140761538539614 85.42864579451823 3.3438902111631648
  endloop
endfacet
facet normal 5.3060239116850186e-12 1.0 2.1559632252349204e-12
  outer loop
    vertex -53.457840962705895 85.42864579450894 3.50000000010847
    vertex -55.140761538539614 85.42864579451823 3.3438902111631648
    vertex -55.23276471160591 85.42864579451866 3.3680827403776004
  endloop
endfacet
facet normal 5.3060239116850186e-12 1.0 2.1559632252349204e-12
  outer loop
    vertex -53.457840962705895 85.42864579450894 3.50000000010847
    vertex -55.23276471160591 85.42864579451866 3.3680827403776004
    vertex -55.32603441290807 85.42864579451913 3.38680772750967
  endloop
endfacet
facet normal 5.3060239116850186e-12 1.0 2.1559632252349204e-12
  outer loop
    vertex -53.457840962705895 85.42864579450894 3.50000000010847
    vertex -55.32603441290807 85.42864579451913 3.38680772750967
    vertex -55.42024601658688 85.42864579451965 3.400000000108468
  endloop
endfacet
facet normal 5.3060239116850186e-12 1.0 2.1559632252349204e-12
  outer loop
    vertex -53.457840962705895 85.42864579450894 3.50000000010847
    vertex -55.42024601658688 85.42864579451965 3.400000000108468
    vertex -55.42024601658693 85.4286457945194 3.500000000108468
  endloop
endfacet
facet normal 5.3060239116850186e-12 1.0 2.1559632252349204e-12
  outer loop
    vertex -53.457840962705895 85.42864579450894 3.50000000010847
    vertex -55.42024601658693 85.4286457945194 3.500000000108468
    vertex -55.26353736198691 85.42864579451846 3.560536661981664
  endloop
endfacet
facet normal 5.3060239116850186e-12 1.0 2.1559632252349204e-12
  outer loop
    vertex -53.457840962705895 85.42864579450894 3.50000000010847
    vertex -55.26353736198691 85.42864579451846 3.560536661981664
    vertex -53.6145496173058 85.42864579450968 3.5605366619816636
  endloop
endfacet
facet normal 5.3060239116850186e-12 1.0 2.1559632252349204e-12
  outer loop
    vertex -53.6145496173058 85.42864579450968 3.5605366619816636
    vertex -55.26353736198691 85.42864579451846 3.560536661981664
    vertex -53.77496087403462 85.4286457945104 3.6104417576330903
  endloop
endfacet
facet normal 5.3060239116850186e-12 1.0 2.1559632252349204e-12
  outer loop
    vertex -53.77496087403462 85.4286457945104 3.6104417576330903
    vertex -55.26353736198691 85.42864579451846 3.560536661981664
    vertex -55.10312610525823 85.42864579451748 3.610441757633092
  endloop
endfacet
facet normal 5.3060239116850186e-12 1.0 2.1559632252349204e-12
  outer loop
    vertex -53.77496087403462 85.4286457945104 3.6104417576330903
    vertex -55.10312610525823 85.42864579451748 3.610441757633092
    vertex -53.93835436482082 85.42864579451118 3.649491175374846
  endloop
endfacet
facet normal 5.3060239116850186e-12 1.0 2.1559632252349204e-12
  outer loop
    vertex -53.93835436482082 85.42864579451118 3.649491175374846
    vertex -55.10312610525823 85.42864579451748 3.610441757633092
    vertex -54.93973261447201 85.42864579451651 3.649491175374848
  endloop
endfacet
facet normal 5.3060239116850186e-12 1.0 2.1559632252349204e-12
  outer loop
    vertex -53.93835436482082 85.42864579451118 3.649491175374846
    vertex -54.93973261447201 85.42864579451651 3.649491175374848
    vertex -54.10399632910284 85.42864579451205 3.677509553737176
  endloop
endfacet
facet normal 5.3060239116850186e-12 1.0 2.1559632252349204e-12
  outer loop
    vertex -54.10399632910284 85.42864579451205 3.677509553737176
    vertex -54.93973261447201 85.42864579451651 3.649491175374848
    vertex -54.77409065018987 85.42864579451556 3.6775095537371736
  endloop
endfacet
facet normal 5.3060239116850186e-12 1.0 2.1559632252349204e-12
  outer loop
    vertex -54.10399632910284 85.42864579451205 3.677509553737176
    vertex -54.77409065018987 85.42864579451556 3.6775095537371736
    vertex -54.606944070323124 85.42864579451467 3.6943710689743194
  endloop
endfacet
facet normal 5.3060239116850186e-12 1.0 2.1559632252349204e-12
  outer loop
    vertex -54.10399632910284 85.42864579451205 3.677509553737176
    vertex -54.606944070323124 85.42864579451467 3.6943710689743194
    vertex -54.27114290896977 85.42864579451287 3.694371068974317
  endloop
endfacet
facet normal 5.3060239116850186e-12 1.0 2.1559632252349204e-12
  outer loop
    vertex -54.27114290896977 85.42864579451287 3.694371068974317
    vertex -54.606944070323124 85.42864579451467 3.6943710689743194
    vertex -54.4390434896464 85.42864579451376 3.7000000001084694
  endloop
endfacet
facet normal 5.3060239116850186e-12 1.0 2.1559632252349204e-12
  outer loop
    vertex -57.50131922357557 85.42864579453591 1.0000000001084248
    vertex -47.001319223575585 85.42864579448225 1.0842418629586348e-10
    vertex -56.00131922357559 85.42864579453 1.0842418629586348e-10
  endloop
endfacet
facet normal 5.3060239116850186e-12 1.0 2.1559632252349204e-12
  outer loop
    vertex -47.001319223575585 85.42864579448225 1.0842418629586348e-10
    vertex -57.50131922357557 85.42864579453591 1.0000000001084248
    vertex -45.626319223575585 85.42864579447274 1.0000000001084248
  endloop
endfacet
facet normal 5.3060239116850186e-12 1.0 2.1559632252349204e-12
  outer loop
    vertex -45.626319223575585 85.42864579447274 1.0000000001084248
    vertex -57.50131922357557 85.42864579453591 1.0000000001084248
    vertex -56.00131922357557 85.42864579452788 1.0000000001084248
  endloop
endfacet
facet normal 5.3060239116850186e-12 1.0 2.1559632252349204e-12
  outer loop
    vertex -45.626319223575585 85.42864579447274 1.0000000001084248
    vertex -56.00131922357557 85.42864579452788 1.0000000001084248
    vertex -54.00131922357558 85.42864579451725 1.0000000001084248
  endloop
endfacet
facet normal 5.3060239116850186e-12 1.0 2.1559632252349204e-12
  outer loop
    vertex -45.626319223575585 85.42864579447274 1.0000000001084248
    vertex -54.00131922357558 85.42864579451725 1.0000000001084248
    vertex -49.001319223575585 85.42864579449075 1.0000000001084266
  endloop
endfacet
facet normal 5.3060239116850186e-12 1.0 2.1559632252349204e-12
  outer loop
    vertex -45.626319223575585 85.42864579447274 1.0000000001084248
    vertex -49.001319223575585 85.42864579449075 1.0000000001084266
    vertex -47.001319223575585 85.42864579448012 1.0000000001084266
  endloop
endfacet
facet normal 5.3060239116850186e-12 1.0 2.1559632252349204e-12
  outer loop
    vertex -47.001319223575585 85.42864579448012 1.0000000001084266
    vertex -49.001319223575585 85.42864579449075 1.0000000001084266
    vertex -49.54479748444517 85.42864579448822 3.5000000001084715
  endloop
endfacet
facet normal 5.3060239116850186e-12 1.0 2.1559632252349204e-12
  outer loop
    vertex -47.001319223575585 85.42864579448012 1.0000000001084266
    vertex -49.54479748444517 85.42864579448822 3.5000000001084715
    vertex -48.5823924305641 85.42864579448441 2.900000000108471
  endloop
endfacet
facet normal 5.3060239116850186e-12 1.0 2.1559632252349204e-12
  outer loop
    vertex -48.5823924305641 85.42864579448441 2.900000000108471
    vertex -49.54479748444517 85.42864579448822 3.5000000001084715
    vertex -48.51531165027775 85.42864579448391 2.9674539194923155
  endloop
endfacet
facet normal 5.3060239116850186e-12 1.0 2.1559632252349204e-12
  outer loop
    vertex -48.51531165027775 85.42864579448391 2.9674539194923155
    vertex -49.54479748444517 85.42864579448822 3.5000000001084715
    vertex -48.444369839790866 85.4286457944834 3.030834688254723
  endloop
endfacet
facet normal 5.3060239116850186e-12 1.0 2.1559632252349204e-12
  outer loop
    vertex -48.444369839790866 85.4286457944834 3.030834688254723
    vertex -49.54479748444517 85.42864579448822 3.5000000001084715
    vertex -48.36981391257946 85.42864579448288 3.08992170917916
  endloop
endfacet
facet normal 5.3060239116850186e-12 1.0 2.1559632252349204e-12
  outer loop
    vertex -48.36981391257946 85.42864579448288 3.08992170917916
    vertex -49.54479748444517 85.42864579448822 3.5000000001084715
    vertex -48.29190336107858 85.42864579448234 3.1445093294689914
  endloop
endfacet
facet normal 5.3060239116850186e-12 1.0 2.1559632252349204e-12
  outer loop
    vertex -48.29190336107858 85.42864579448234 3.1445093294689914
    vertex -49.54479748444517 85.42864579448822 3.5000000001084715
    vertex -48.210909353517025 85.42864579448181 3.1944075565234953
  endloop
endfacet
facet normal 5.3060239116850186e-12 1.0 2.1559632252349204e-12
  outer loop
    vertex -48.210909353517025 85.42864579448181 3.1944075565234953
    vertex -49.54479748444517 85.42864579448822 3.5000000001084715
    vertex -48.12711379011407 85.42864579448123 3.2394427192084585
  endloop
endfacet
facet normal 5.3060239116850186e-12 1.0 2.1559632252349204e-12
  outer loop
    vertex -48.12711379011407 85.42864579448123 3.2394427192084585
    vertex -49.54479748444517 85.42864579448822 3.5000000001084715
    vertex -48.040808321924416 85.42864579448069 3.2794580723198092
  endloop
endfacet
facet normal 5.3060239116850186e-12 1.0 2.1559632252349204e-12
  outer loop
    vertex -48.040808321924416 85.42864579448069 3.2794580723198092
    vertex -49.54479748444517 85.42864579448822 3.5000000001084715
    vertex -47.952293335743796 85.42864579448018 3.314314342136393
  endloop
endfacet
facet normal 5.3060239116850186e-12 1.0 2.1559632252349204e-12
  outer loop
    vertex -47.952293335743796 85.42864579448018 3.314314342136393
    vertex -49.54479748444517 85.42864579448822 3.5000000001084715
    vertex -47.86187690861146 85.42864579447958 3.343890211163166
  endloop
endfacet
facet normal 5.3060239116850186e-12 1.0 2.1559632252349204e-12
  outer loop
    vertex -47.86187690861146 85.42864579447958 3.343890211163166
    vertex -49.54479748444517 85.42864579448822 3.5000000001084715
    vertex -47.76987373554505 85.42864579447908 3.3680827403776017
  endloop
endfacet
facet normal 5.3060239116850186e-12 1.0 2.1559632252349204e-12
  outer loop
    vertex -47.76987373554505 85.42864579447908 3.3680827403776017
    vertex -49.54479748444517 85.42864579448822 3.5000000001084715
    vertex -47.676604034243 85.42864579447853 3.3868077275096713
  endloop
endfacet
facet normal 5.3060239116850186e-12 1.0 2.1559632252349204e-12
  outer loop
    vertex -47.676604034243 85.42864579447853 3.3868077275096713
    vertex -49.54479748444517 85.42864579448822 3.5000000001084715
    vertex -47.58239243056414 85.42864579447803 3.4000000001084696
  endloop
endfacet
facet normal 5.3060239116850186e-12 1.0 2.1559632252349204e-12
  outer loop
    vertex -47.58239243056414 85.42864579447803 3.4000000001084696
    vertex -49.54479748444517 85.42864579448822 3.5000000001084715
    vertex -47.58239243056414 85.42864579447782 3.5000000001084692
  endloop
endfacet
facet normal 5.3060239116850186e-12 1.0 2.1559632252349204e-12
  outer loop
    vertex -47.58239243056414 85.42864579447782 3.5000000001084692
    vertex -49.54479748444517 85.42864579448822 3.5000000001084715
    vertex -47.73910108516411 85.42864579447853 3.5605366619816654
  endloop
endfacet
facet normal 5.3060239116850186e-12 1.0 2.1559632252349204e-12
  outer loop
    vertex -47.73910108516411 85.42864579447853 3.5605366619816654
    vertex -49.54479748444517 85.42864579448822 3.5000000001084715
    vertex -49.38808882984523 85.42864579448728 3.5605366619816663
  endloop
endfacet
facet normal 5.3060239116850186e-12 1.0 2.1559632252349204e-12
  outer loop
    vertex -47.73910108516411 85.42864579447853 3.5605366619816654
    vertex -49.38808882984523 85.42864579448728 3.5605366619816663
    vertex -47.89951234189282 85.4286457944793 3.610441757633094
  endloop
endfacet
facet normal 5.3060239116850186e-12 1.0 2.1559632252349204e-12
  outer loop
    vertex -47.89951234189282 85.4286457944793 3.610441757633094
    vertex -49.38808882984523 85.42864579448728 3.5605366619816663
    vertex -49.22767757311643 85.42864579448629 3.6104417576330916
  endloop
endfacet
facet normal 5.3060239116850186e-12 1.0 2.1559632252349204e-12
  outer loop
    vertex -47.89951234189282 85.4286457944793 3.610441757633094
    vertex -49.22767757311643 85.42864579448629 3.6104417576330916
    vertex -49.06428408233025 85.42864579448533 3.649491175374848
  endloop
endfacet
facet normal 5.3060239116850186e-12 1.0 2.1559632252349204e-12
  outer loop
    vertex -47.89951234189282 85.4286457944793 3.610441757633094
    vertex -49.06428408233025 85.42864579448533 3.649491175374848
    vertex -48.062905832679064 85.42864579448003 3.6494911753748496
  endloop
endfacet
facet normal 5.3060239116850186e-12 1.0 2.1559632252349204e-12
  outer loop
    vertex -48.062905832679064 85.42864579448003 3.6494911753748496
    vertex -49.06428408233025 85.42864579448533 3.649491175374848
    vertex -48.89864211804818 85.42864579448444 3.677509553737177
  endloop
endfacet
facet normal 5.3060239116850186e-12 1.0 2.1559632252349204e-12
  outer loop
    vertex -48.062905832679064 85.42864579448003 3.6494911753748496
    vertex -48.89864211804818 85.42864579448444 3.677509553737177
    vertex -48.22854779696116 85.42864579448084 3.677509553737175
  endloop
endfacet
facet normal 5.3060239116850186e-12 1.0 2.1559632252349204e-12
  outer loop
    vertex -48.22854779696116 85.42864579448084 3.677509553737175
    vertex -48.89864211804818 85.42864579448444 3.677509553737177
    vertex -48.39569437682795 85.42864579448172 3.6943710689743208
  endloop
endfacet
facet normal 5.3060239116850186e-12 1.0 2.1559632252349204e-12
  outer loop
    vertex -48.39569437682795 85.42864579448172 3.6943710689743208
    vertex -48.89864211804818 85.42864579448444 3.677509553737177
    vertex -48.7314955381813 85.42864579448353 3.6943710689743186
  endloop
endfacet
facet normal 5.3060239116850186e-12 1.0 2.1559632252349204e-12
  outer loop
    vertex -48.39569437682795 85.42864579448172 3.6943710689743208
    vertex -48.7314955381813 85.42864579448353 3.6943710689743186
    vertex -48.56359495750467 85.42864579448258 3.700000000108471
  endloop
endfacet
endsolid v2
