solid v2
facet normal 0.6211136989577409 -1.6224428587512376e-12 -0.7837204686411047
  outer loop
    vertex -68.4443698396561 110.82864579448342 3.0308346883089348
    vertex -68.369813912849 34.628645794482914 3.0899217090706883
    vertex -68.44436984006043 34.62864579448343 3.030834688146251
  endloop
endfacet
facet normal 0.6211136989577409 -1.6224428587512376e-12 -0.7837204686411047
  outer loop
    vertex -68.369813912849 34.628645794482914 3.0899217090706883
    vertex -68.4443698396561 110.82864579448342 3.0308346883089348
    vertex -68.3698139124447 110.8286457944829 3.089921709233372
  endloop
endfacet
facet normal -1.0 5.3062950858679756e-12 -4.51194637195432e-13
  outer loop
    vertex -75.42024601645217 110.82864579451942 3.5000000001626796
    vertex -75.42024601685647 34.62864579451965 3.399999999999997
    vertex -75.42024601685651 34.628645794519436 3.4999999999999964
  endloop
endfacet
facet normal -1.0 5.3062950858679756e-12 -4.51194637195432e-13
  outer loop
    vertex -75.42024601685647 34.62864579451965 3.399999999999997
    vertex -75.42024601645217 110.82864579451942 3.5000000001626796
    vertex -75.42024601645211 110.82864579451967 3.4000000001626796
  endloop
endfacet
facet normal 0.5245225075217786 -9.654609600126824e-13 -0.8513965815664669
  outer loop
    vertex -68.29190336094382 110.82864579448236 3.144509329523203
    vertex -68.21090935378656 34.62864579448182 3.194407556415024
    vertex -68.29190336134815 34.62864579448236 3.14450932936052
  endloop
endfacet
facet normal 0.5245225075217786 -9.654609600126824e-13 -0.8513965815664669
  outer loop
    vertex -68.21090935378656 34.62864579448182 3.194407556415024
    vertex -68.29190336094382 110.82864579448236 3.144509329523203
    vertex -68.21090935338226 110.82864579448183 3.194407556577707
  endloop
endfacet
facet normal -0.4734027209497508 4.392373806195709e-12 -0.8808461067617728
  outer loop
    vertex -74.87552465690214 110.82864579451703 3.2394427192626685
    vertex -74.79172909390361 34.62864579451674 3.1944075564150225
    vertex -74.87552465730647 34.62864579451705 3.2394427190999857
  endloop
endfacet
facet normal -0.4734027209497508 4.392373806195709e-12 -0.8808461067617728
  outer loop
    vertex -74.79172909390361 34.62864579451674 3.1944075564150225
    vertex -74.87552465690214 110.82864579451703 3.2394427192626685
    vertex -74.79172909349928 110.82864579451673 3.1944075565777057
  endloop
endfacet
facet normal -0.16678111454033828 -1.2200285468906386e-12 0.9859939451298283
  outer loop
    vertex -68.89864211831775 34.62864579448447 3.6775095536287057
    vertex -69.06428408219548 110.82864579448535 3.6494911754290595
    vertex -69.0642840825998 34.628645794485365 3.649491175266377
  endloop
endfacet
facet normal -0.16678111454033828 -1.2200285468906386e-12 0.9859939451298283
  outer loop
    vertex -69.06428408219548 110.82864579448535 3.6494911754290595
    vertex -68.89864211831775 34.62864579448447 3.6775095536287057
    vertex -68.89864211791343 110.82864579448446 3.677509553791389
  endloop
endfacet
facet normal 0.10036920294687719 -2.656625723683118e-12 0.9949502616210564
  outer loop
    vertex -68.22854779723072 34.62864579448089 3.6775095536287035
    vertex -68.39569437669319 110.82864579448174 3.6943710690285325
    vertex -68.39569437709748 34.62864579448176 3.6943710688658493
  endloop
endfacet
facet normal 0.10036920294687719 -2.656625723683118e-12 0.9949502616210564
  outer loop
    vertex -68.39569437669319 110.82864579448174 3.6943710690285325
    vertex -68.22854779723072 34.62864579448089 3.6775095536287035
    vertex -68.22854779682639 110.82864579448086 3.6775095537913867
  endloop
endfacet
facet normal -0.5245225075213171 4.600815302654887e-12 -0.8513965815667515
  outer loop
    vertex -74.79172909349928 110.82864579451673 3.1944075565777057
    vertex -74.71073508634196 34.6286457945164 3.1445093293605186
    vertex -74.79172909390361 34.62864579451674 3.1944075564150225
  endloop
endfacet
facet normal -0.5245225075213171 4.600815302654887e-12 -0.8513965815667515
  outer loop
    vertex -74.71073508634196 34.6286457945164 3.1445093293605186
    vertex -74.79172909349928 110.82864579451673 3.1944075565777057
    vertex -74.71073508593761 110.82864579451638 3.1445093295232023
  endloop
endfacet
facet normal 0.7090652519324865 -2.2568584026116285e-12 -0.7051428709856745
  outer loop
    vertex -68.58239243083364 34.62864579448445 2.8999999999999995
    vertex -68.51531165014299 110.82864579448393 2.9674539195465273
    vertex -68.51531165054732 34.62864579448392 2.9674539193838436
  endloop
endfacet
facet normal 0.7090652519324865 -2.2568584026116285e-12 -0.7051428709856745
  outer loop
    vertex -68.51531165014299 110.82864579448393 2.9674539195465273
    vertex -68.58239243083364 34.62864579448445 2.8999999999999995
    vertex -68.58239243042934 110.82864579448443 2.9000000001626827
  endloop
endfacet
facet normal 0.1968341919863264 1.0487057706247074e-12 -0.9804367908565498
  outer loop
    vertex -67.76987373541029 110.8286457944791 3.3680827404318134
    vertex -67.67660403451254 34.628645794478544 3.3868077274012
    vertex -67.76987373581461 34.628645794479105 3.3680827402691302
  endloop
endfacet
facet normal 0.1968341919863264 1.0487057706247074e-12 -0.9804367908565498
  outer loop
    vertex -67.67660403451254 34.628645794478544 3.3868077274012
    vertex -67.76987373541029 110.8286457944791 3.3680827404318134
    vertex -67.67660403410824 110.82864579447855 3.386807727563883
  endloop
endfacet
facet normal -0.5738166897754339 4.7931833438034595e-12 -0.8189837645125594
  outer loop
    vertex -74.71073508593761 110.82864579451638 3.1445093295232023
    vertex -74.63282453484118 34.6286457945161 3.0899217090706874
    vertex -74.71073508634196 34.6286457945164 3.1445093293605186
  endloop
endfacet
facet normal -0.5738166897754339 4.7931833438034595e-12 -0.8189837645125594
  outer loop
    vertex -74.63282453484118 34.6286457945161 3.0899217090706874
    vertex -74.71073508593761 110.82864579451638 3.1445093295232023
    vertex -74.63282453443685 110.8286457945161 3.089921709233371
  endloop
endfacet
facet normal 0.297063140712673 -3.6146753435011903e-12 0.9548578378114319
  outer loop
    vertex -67.73910108543367 34.62864579447854 3.5605366618731944
    vertex -67.89951234175805 110.82864579447931 3.6104417576873056
    vertex -67.89951234216237 34.628645794479304 3.6104417575246224
  endloop
endfacet
facet normal 0.297063140712673 -3.6146753435011903e-12 0.9548578378114319
  outer loop
    vertex -67.89951234175805 110.82864579447931 3.6104417576873056
    vertex -67.73910108543367 34.62864579447854 3.5605366618731944
    vertex -67.73910108502935 110.82864579447855 3.560536662035877
  endloop
endfacet
facet normal -0.7686707776666217 2.7130294457898214e-12 0.6396446166125304
  outer loop
    vertex -74.42024601645214 110.82864579451538 2.9000000001626813
    vertex -76.00131922384509 34.62864579452785 1.0000000000000024
    vertex -74.42024601685647 34.62864579451538 2.8999999999999977
  endloop
endfacet
facet normal -0.7686707776666217 2.7130294457898214e-12 0.6396446166125304
  outer loop
    vertex -76.00131922384509 34.62864579452785 1.0000000000000024
    vertex -74.42024601645214 110.82864579451538 2.9000000001626813
    vertex -76.0013192234408 110.8286457945279 1.0000000001626366
  endloop
endfacet
facet normal -0.13867514562948624 2.850062288743265e-12 -0.9903379241373325
  outer loop
    vertex -75.42024601645211 110.82864579451967 3.4000000001626796
    vertex -75.32603441317764 34.62864579451913 3.3868077274011985
    vertex -75.42024601685647 34.62864579451965 3.399999999999997
  endloop
endfacet
facet normal -0.13867514562948624 2.850062288743265e-12 -0.9903379241373325
  outer loop
    vertex -75.32603441317764 34.62864579451913 3.3868077274011985
    vertex -75.42024601645211 110.82864579451967 3.4000000001626796
    vertex -75.32603441277331 110.82864579451915 3.3868077275638817
  endloop
endfacet
facet normal 0.573816689774951 -1.2962067653814767e-12 -0.8189837645128978
  outer loop
    vertex -68.3698139124447 110.8286457944829 3.089921709233372
    vertex -68.29190336134815 34.62864579448236 3.14450932936052
    vertex -68.369813912849 34.628645794482914 3.0899217090706883
  endloop
endfacet
facet normal 0.573816689774951 -1.2962067653814767e-12 -0.8189837645128978
  outer loop
    vertex -68.29190336134815 34.62864579448236 3.14450932936052
    vertex -68.3698139124447 110.8286457944829 3.089921709233372
    vertex -68.29190336094382 110.82864579448236 3.144509329523203
  endloop
endfacet
facet normal 0.7686707776666473 -5.4435840049353444e-12 0.6396446166124998
  outer loop
    vertex -67.00131922344083 110.82864579448014 1.0000000001626383
    vertex -68.58239243083364 34.62864579448445 2.8999999999999995
    vertex -67.00131922384509 34.62864579448008 1.0000000000000038
  endloop
endfacet
facet normal 0.7686707776666473 -5.4435840049353444e-12 0.6396446166124998
  outer loop
    vertex -68.58239243083364 34.62864579448445 2.8999999999999995
    vertex -67.00131922344083 110.82864579448014 1.0000000001626383
    vertex -68.58239243042934 110.82864579448443 2.9000000001626827
  endloop
endfacet
facet normal 0.03350655759172078 -2.3114399820338424e-12 0.9994384976567358
  outer loop
    vertex -68.39569437709748 34.62864579448176 3.6943710688658493
    vertex -68.5635949573699 110.8286457944826 3.700000000162683
    vertex -68.56359495777423 34.62864579448262 3.6999999999999997
  endloop
endfacet
facet normal 0.03350655759172078 -2.3114399820338424e-12 0.9994384976567358
  outer loop
    vertex -68.5635949573699 110.8286457944826 3.700000000162683
    vertex -68.39569437709748 34.62864579448176 3.6943710688658493
    vertex -68.39569437669319 110.82864579448174 3.6943710690285325
  endloop
endfacet
facet normal -0.03350655759175435 -1.9558741303132587e-12 0.9994384976567346
  outer loop
    vertex -68.56359495777423 34.62864579448262 3.6999999999999997
    vertex -68.73149553804654 110.82864579448355 3.6943710690285303
    vertex -68.73149553845084 34.628645794483546 3.6943710688658475
  endloop
endfacet
facet normal -0.03350655759175435 -1.9558741303132587e-12 0.9994384976567346
  outer loop
    vertex -68.73149553804654 110.82864579448355 3.6943710690285303
    vertex -68.56359495777423 34.62864579448262 3.6999999999999997
    vertex -68.5635949573699 110.8286457944826 3.700000000162683
  endloop
endfacet
facet normal -0.29706314071247997 -4.622921600287434e-13 0.9548578378114919
  outer loop
    vertex -69.22767757338598 34.62864579448632 3.61044175752462
    vertex -69.38808882971047 110.8286457944873 3.560536662035878
    vertex -69.3880888301148 34.628645794487326 3.560536661873195
  endloop
endfacet
facet normal -0.29706314071247997 -4.622921600287434e-13 0.9548578378114919
  outer loop
    vertex -69.38808882971047 110.8286457944873 3.560536662035878
    vertex -69.22767757338598 34.62864579448632 3.61044175752462
    vertex -69.22767757298166 110.8286457944863 3.6104417576873034
  endloop
endfacet
facet normal -0.4206352528396595 4.168712916137898e-12 -0.9072298408168217
  outer loop
    vertex -74.9618301250919 110.82864579451744 3.279458072374019
    vertex -74.87552465730647 34.62864579451705 3.2394427190999857
    vertex -74.96183012549622 34.62864579451743 3.279458072211336
  endloop
endfacet
facet normal -0.4206352528396595 4.168712916137898e-12 -0.9072298408168217
  outer loop
    vertex -74.87552465730647 34.62864579451705 3.2394427190999857
    vertex -74.9618301250919 110.82864579451744 3.279458072374019
    vertex -74.87552465690214 110.82864579451703 3.2394427192626685
  endloop
endfacet
facet normal 0.6662489174934872 -1.9431165469223545e-12 -0.7457294281029525
  outer loop
    vertex -68.51531165014299 110.82864579448393 2.9674539195465273
    vertex -68.44436984006043 34.62864579448343 3.030834688146251
    vertex -68.51531165054732 34.62864579448392 2.9674539193838436
  endloop
endfacet
facet normal 0.6662489174934872 -1.9431165469223545e-12 -0.7457294281029525
  outer loop
    vertex -68.44436984006043 34.62864579448343 3.030834688146251
    vertex -68.51531165014299 110.82864579448393 2.9674539195465273
    vertex -68.4443698396561 110.82864579448342 3.0308346883089348
  endloop
endfacet
facet normal 0.16678111454028108 -2.989881210270913e-12 0.985993945129838
  outer loop
    vertex -68.0629058329486 34.628645794480065 3.649491175266378
    vertex -68.22854779682639 110.82864579448086 3.6775095537913867
    vertex -68.22854779723072 34.62864579448089 3.6775095536287035
  endloop
endfacet
facet normal 0.16678111454028108 -2.989881210270913e-12 0.985993945129838
  outer loop
    vertex -68.22854779682639 110.82864579448086 3.6775095537913867
    vertex -68.0629058329486 34.628645794480065 3.649491175266378
    vertex -68.0629058325443 110.82864579448005 3.6494911754290613
  endloop
endfacet
facet normal 0.3664037607401571 4.228227726669733e-14 -0.9304559549572832
  outer loop
    vertex -68.04080832178965 110.8286457944807 3.2794580723740205
    vertex -67.95229333601335 34.62864579448019 3.3143143420279215
    vertex -68.04080832219395 34.62864579448071 3.279458072211338
  endloop
endfacet
facet normal 0.3664037607401571 4.228227726669733e-14 -0.9304559549572832
  outer loop
    vertex -67.95229333601335 34.62864579448019 3.3143143420279215
    vertex -68.04080832178965 110.8286457944807 3.2794580723740205
    vertex -67.95229333560903 110.8286457944802 3.3143143421906047
  endloop
endfacet
facet normal -0.19683419198612812 3.1375264899215226e-12 -0.9804367908565897
  outer loop
    vertex -75.32603441277331 110.82864579451915 3.3868077275638817
    vertex -75.23276471187549 34.6286457945187 3.368082740269129
    vertex -75.32603441317764 34.62864579451913 3.3868077274011985
  endloop
endfacet
facet normal -0.19683419198612812 3.1375264899215226e-12 -0.9804367908565897
  outer loop
    vertex -75.23276471187549 34.6286457945187 3.368082740269129
    vertex -75.32603441277331 110.82864579451915 3.3868077275638817
    vertex -75.23276471147115 110.82864579451868 3.368082740431812
  endloop
endfacet
facet normal 0.5881716976750392 -1.394551308217474e-12 -0.8087360843031937
  outer loop
    vertex -67.00131922344083 110.82864579448227 1.626359269479849e-10
    vertex -65.62631922384509 34.62864579447271 1.0000000000000024
    vertex -67.00131922384516 34.62864579448221 2.114974861910923e-15
  endloop
endfacet
facet normal 0.5881716976750392 -1.394551308217474e-12 -0.8087360843031937
  outer loop
    vertex -65.62631922384509 34.62864579447271 1.0000000000000024
    vertex -67.00131922344083 110.82864579448227 1.626359269479849e-10
    vertex -65.62631922344082 110.82864579447276 1.0000000001626366
  endloop
endfacet
facet normal -0.10036920294678967 -1.5915249256770801e-12 0.9949502616210653
  outer loop
    vertex -68.73149553845084 34.628645794483546 3.6943710688658475
    vertex -68.89864211791343 110.82864579448446 3.677509553791389
    vertex -68.89864211831775 34.62864579448447 3.6775095536287057
  endloop
endfacet
facet normal -0.10036920294678967 -1.5915249256770801e-12 0.9949502616210653
  outer loop
    vertex -68.89864211791343 110.82864579448446 3.677509553791389
    vertex -68.73149553845084 34.628645794483546 3.6943710688658475
    vertex -68.73149553804654 110.82864579448355 3.6943710690285303
  endloop
endfacet
facet normal 0.36034819029129256 -3.9034540863812994e-12 0.9328178716951077
  outer loop
    vertex -67.5823924308337 34.628645794477855 3.499999999999998
    vertex -67.73910108502935 110.82864579447855 3.560536662035877
    vertex -67.73910108543367 34.62864579447854 3.5605366618731944
  endloop
endfacet
facet normal 0.36034819029129256 -3.9034540863812994e-12 0.9328178716951077
  outer loop
    vertex -67.73910108502935 110.82864579447855 3.560536662035877
    vertex -67.5823924308337 34.628645794477855 3.499999999999998
    vertex -67.58239243042938 110.82864579447785 3.500000000162681
  endloop
endfacet
facet normal 0.25430815553789626 7.153313263081791e-13 -0.9671232403509457
  outer loop
    vertex -67.86187690847669 110.8286457944796 3.343890211217378
    vertex -67.76987373581461 34.628645794479105 3.3680827402691302
    vertex -67.861876908881 34.6286457944796 3.3438902110546946
  endloop
endfacet
facet normal 0.25430815553789626 7.153313263081791e-13 -0.9671232403509457
  outer loop
    vertex -67.76987373581461 34.628645794479105 3.3680827402691302
    vertex -67.86187690847669 110.8286457944796 3.343890211217378
    vertex -67.76987373541029 110.8286457944791 3.3680827404318134
  endloop
endfacet
facet normal 0.13867514562944286 1.3784301949729745e-12 -0.9903379241373386
  outer loop
    vertex -67.67660403410824 110.82864579447855 3.386807727563883
    vertex -67.5823924308337 34.62864579447807 3.399999999999998
    vertex -67.67660403451254 34.628645794478544 3.3868077274012
  endloop
endfacet
facet normal 0.13867514562944286 1.3784301949729745e-12 -0.9903379241373386
  outer loop
    vertex -67.5823924308337 34.62864579447807 3.399999999999998
    vertex -67.67660403410824 110.82864579447855 3.386807727563883
    vertex -67.58239243042938 110.82864579447805 3.4000000001626813
  endloop
endfacet
facet normal -0.310896997744965 3.67873180379629e-12 -0.9504436105278248
  outer loop
    vertex -75.14076153840485 110.82864579451825 3.3438902112173765
    vertex -75.05034511167675 34.628645794517844 3.3143143420279206
    vertex -75.14076153880917 34.62864579451824 3.3438902110546933
  endloop
endfacet
facet normal -0.310896997744965 3.67873180379629e-12 -0.9504436105278248
  outer loop
    vertex -75.05034511167675 34.628645794517844 3.3143143420279206
    vertex -75.14076153840485 110.82864579451825 3.3438902112173765
    vertex -75.05034511127239 110.82864579451783 3.314314342190604
  endloop
endfacet
facet normal -0.6211136989576957 4.968867084651304e-12 -0.7837204686411405
  outer loop
    vertex -74.63282453443685 110.8286457945161 3.089921709233371
    vertex -74.55826860762977 34.628645794515855 3.030834688146251
    vertex -74.63282453484118 34.6286457945161 3.0899217090706874
  endloop
endfacet
facet normal -0.6211136989576957 4.968867084651304e-12 -0.7837204686411405
  outer loop
    vertex -74.55826860762977 34.628645794515855 3.030834688146251
    vertex -74.63282453443685 110.8286457945161 3.089921709233371
    vertex -74.55826860722541 110.82864579451585 3.0308346883089348
  endloop
endfacet
facet normal 0.4206352528399913 -2.950497795848198e-13 -0.9072298408166678
  outer loop
    vertex -68.1271137899793 110.82864579448125 3.2394427192626702
    vertex -68.04080832219395 34.62864579448071 3.279458072211338
    vertex -68.12711379038363 34.62864579448126 3.239442719099987
  endloop
endfacet
facet normal 0.4206352528399913 -2.950497795848198e-13 -0.9072298408166678
  outer loop
    vertex -68.04080832219395 34.62864579448071 3.279458072211338
    vertex -68.1271137899793 110.82864579448125 3.2394427192626702
    vertex -68.04080832178965 110.8286457944807 3.2794580723740205
  endloop
endfacet
facet normal 0.3108969977452754 3.7946717050339957e-13 -0.9504436105277232
  outer loop
    vertex -67.95229333560903 110.8286457944802 3.3143143421906047
    vertex -67.861876908881 34.6286457944796 3.3438902110546946
    vertex -67.95229333601335 34.62864579448019 3.3143143420279215
  endloop
endfacet
facet normal 0.3108969977452754 3.7946717050339957e-13 -0.9504436105277232
  outer loop
    vertex -67.861876908881 34.6286457944796 3.3438902110546946
    vertex -67.95229333560903 110.8286457944802 3.3143143421906047
    vertex -67.86187690847669 110.8286457944796 3.343890211217378
  endloop
endfacet
facet normal 1.0 -5.306041320604242e-12 -1.1431645250989116e-23
  outer loop
    vertex -67.5823924308337 34.62864579447807 3.399999999999998
    vertex -67.58239243042938 110.82864579447785 3.500000000162681
    vertex -67.5823924308337 34.628645794477855 3.499999999999998
  endloop
endfacet
facet normal 1.0 -5.306041320604242e-12 -1.1431645250989116e-23
  outer loop
    vertex -67.58239243042938 110.82864579447785 3.500000000162681
    vertex -67.5823924308337 34.62864579447807 3.399999999999998
    vertex -67.58239243042938 110.82864579447805 3.4000000001626813
  endloop
endfacet
facet normal -0.23244405257511885 -8.430827925955219e-13 0.9726097688294394
  outer loop
    vertex -69.0642840825998 34.628645794485365 3.649491175266377
    vertex -69.22767757298166 110.8286457944863 3.6104417576873034
    vertex -69.22767757338598 34.62864579448632 3.61044175752462
  endloop
endfacet
facet normal -0.23244405257511885 -8.430827925955219e-13 0.9726097688294394
  outer loop
    vertex -69.22767757298166 110.8286457944863 3.6104417576873034
    vertex -69.0642840825998 34.628645794485365 3.649491175266377
    vertex -69.06428408219548 110.82864579448535 3.6494911754290595
  endloop
endfacet
facet normal -0.36034819029134546 -7.945495538565282e-14 0.9328178716950872
  outer loop
    vertex -69.3880888301148 34.628645794487326 3.560536661873195
    vertex -69.54479748431041 110.82864579448824 3.500000000162683
    vertex -69.5447974847147 34.628645794488236 3.5
  endloop
endfacet
facet normal -0.36034819029134546 -7.945495538565282e-14 0.9328178716950872
  outer loop
    vertex -69.54479748431041 110.82864579448824 3.500000000162683
    vertex -69.3880888301148 34.628645794487326 3.560536661873195
    vertex -69.38808882971047 110.8286457944873 3.560536662035878
  endloop
endfacet
facet normal 1.1326794727127253e-23 2.13431027237663e-12 -1.0
  outer loop
    vertex -76.00131922344083 110.82864579453002 1.626359269479849e-10
    vertex -71.50131922384517 34.628645794506085 0.0
    vertex -76.00131922384519 34.62864579452997 2.114974861910923e-15
  endloop
endfacet
facet normal 1.1326794727127253e-23 2.13431027237663e-12 -1.0
  outer loop
    vertex -71.50131922384517 34.628645794506085 0.0
    vertex -76.00131922344083 110.82864579453002 1.626359269479849e-10
    vertex -67.00131922344083 110.82864579448227 1.626359269479849e-10
  endloop
endfacet
facet normal 1.1326794727127253e-23 2.13431027237663e-12 -1.0
  outer loop
    vertex -71.50131922384517 34.628645794506085 0.0
    vertex -67.00131922344083 110.82864579448227 1.626359269479849e-10
    vertex -67.00131922384516 34.62864579448221 2.114974861910923e-15
  endloop
endfacet
facet normal 0.2324440525750238 -3.309680359639542e-12 0.972609768829462
  outer loop
    vertex -67.89951234216237 34.628645794479304 3.6104417575246224
    vertex -68.0629058325443 110.82864579448005 3.6494911754290613
    vertex -68.0629058329486 34.628645794480065 3.649491175266378
  endloop
endfacet
facet normal 0.2324440525750238 -3.309680359639542e-12 0.972609768829462
  outer loop
    vertex -68.0629058325443 110.82864579448005 3.6494911754290613
    vertex -67.89951234216237 34.628645794479304 3.6104417575246224
    vertex -67.89951234175805 110.82864579447931 3.6104417576873056
  endloop
endfacet
facet normal 1.1963494053948301e-15 -2.134306620327213e-12 1.0
  outer loop
    vertex -65.62631922384509 34.62864579447271 1.0000000000000024
    vertex -67.00131922344083 110.82864579448014 1.0000000001626383
    vertex -67.00131922384509 34.62864579448008 1.0000000000000038
  endloop
endfacet
facet normal 1.1963494053948301e-15 -2.134306620327213e-12 1.0
  outer loop
    vertex -67.00131922344083 110.82864579448014 1.0000000001626383
    vertex -65.62631922384509 34.62864579447271 1.0000000000000024
    vertex -65.62631922344082 110.82864579447276 1.0000000001626366
  endloop
endfacet
facet normal -0.25430815553814895 3.4140704875843652e-12 -0.9671232403508793
  outer loop
    vertex -75.23276471147115 110.82864579451868 3.368082740431812
    vertex -75.14076153880917 34.62864579451824 3.3438902110546933
    vertex -75.23276471187549 34.6286457945187 3.368082740269129
  endloop
endfacet
facet normal -0.25430815553814895 3.4140704875843652e-12 -0.9671232403508793
  outer loop
    vertex -75.14076153880917 34.62864579451824 3.3438902110546933
    vertex -75.23276471147115 110.82864579451868 3.368082740431812
    vertex -75.14076153840485 110.82864579451825 3.3438902112173765
  endloop
endfacet
facet normal -0.5547001962252417 4.719039825919693e-12 -0.8320502943378354
  outer loop
    vertex -77.5013192234408 110.82864579453593 1.0000000001626366
    vertex -76.00131922384519 34.62864579452997 2.114974861910923e-15
    vertex -77.50131922384509 34.628645794535885 1.0000000000000024
  endloop
endfacet
facet normal -0.5547001962252417 4.719039825919693e-12 -0.8320502943378354
  outer loop
    vertex -76.00131922384519 34.62864579452997 2.114974861910923e-15
    vertex -77.5013192234408 110.82864579453593 1.0000000001626366
    vertex -76.00131922344083 110.82864579453002 1.626359269479849e-10
  endloop
endfacet
facet normal -0.6662489174934872 5.127341051516829e-12 -0.7457294281029524
  outer loop
    vertex -74.55826860722541 110.82864579451585 3.0308346883089348
    vertex -74.48732679714288 34.62864579451559 2.9674539193838436
    vertex -74.55826860762977 34.628645794515855 3.030834688146251
  endloop
endfacet
facet normal -0.6662489174934872 5.127341051516829e-12 -0.7457294281029524
  outer loop
    vertex -74.48732679714288 34.62864579451559 2.9674539193838436
    vertex -74.55826860722541 110.82864579451585 3.0308346883089348
    vertex -74.48732679673853 110.82864579451561 2.9674539195465273
  endloop
endfacet
facet normal 0.47340272094938823 -6.313549227432906e-13 -0.8808461067619676
  outer loop
    vertex -68.21090935338226 110.82864579448183 3.194407556577707
    vertex -68.12711379038363 34.62864579448126 3.239442719099987
    vertex -68.21090935378656 34.62864579448182 3.194407556415024
  endloop
endfacet
facet normal 0.47340272094938823 -6.313549227432906e-13 -0.8808461067619676
  outer loop
    vertex -68.12711379038363 34.62864579448126 3.239442719099987
    vertex -68.21090935338226 110.82864579448183 3.194407556577707
    vertex -68.1271137899793 110.82864579448125 3.2394427192626702
  endloop
endfacet
facet normal -0.3664037607405138 3.930589248798419e-12 -0.9304559549571426
  outer loop
    vertex -75.05034511127239 110.82864579451783 3.314314342190604
    vertex -74.96183012549622 34.62864579451743 3.279458072211336
    vertex -75.05034511167675 34.628645794517844 3.3143143420279206
  endloop
endfacet
facet normal -0.3664037607405138 3.930589248798419e-12 -0.9304559549571426
  outer loop
    vertex -74.96183012549622 34.62864579451743 3.279458072211336
    vertex -75.05034511127239 110.82864579451783 3.314314342190604
    vertex -74.9618301250919 110.82864579451744 3.279458072374019
  endloop
endfacet
facet normal -0.7090652519321777 5.267800667412116e-12 -0.705142870985985
  outer loop
    vertex -74.48732679714288 34.62864579451559 2.9674539193838436
    vertex -74.42024601645214 110.82864579451538 2.9000000001626813
    vertex -74.42024601685647 34.62864579451538 2.8999999999999977
  endloop
endfacet
facet normal -0.7090652519321777 5.267800667412116e-12 -0.705142870985985
  outer loop
    vertex -74.42024601645214 110.82864579451538 2.9000000001626813
    vertex -74.48732679714288 34.62864579451559 2.9674539193838436
    vertex -74.48732679673853 110.82864579451561 2.9674539195465273
  endloop
endfacet
facet normal -1.1428995434707054e-23 -2.134304637786091e-12 1.0
  outer loop
    vertex -76.00131922384509 34.62864579452785 1.0000000000000024
    vertex -77.5013192234408 110.82864579453593 1.0000000001626366
    vertex -77.50131922384509 34.628645794535885 1.0000000000000024
  endloop
endfacet
facet normal -1.1428995434707054e-23 -2.134304637786091e-12 1.0
  outer loop
    vertex -77.5013192234408 110.82864579453593 1.0000000001626366
    vertex -76.00131922384509 34.62864579452785 1.0000000000000024
    vertex -76.0013192234408 110.8286457945279 1.0000000001626366
  endloop
endfacet
facet normal 5.3060239116850186e-12 1.0 2.1559632252349204e-12
  outer loop
    vertex -74.42024601645214 110.82864579451538 2.9000000001626813
    vertex -74.00131922344082 110.82864579451727 1.0000000001626366
    vertex -76.0013192234408 110.8286457945279 1.0000000001626366
  endloop
endfacet
facet normal 5.3060239116850186e-12 1.0 2.1559632252349204e-12
  outer loop
    vertex -74.00131922344082 110.82864579451727 1.0000000001626366
    vertex -74.42024601645214 110.82864579451538 2.9000000001626813
    vertex -73.45784096257114 110.82864579450896 3.500000000162682
  endloop
endfacet
facet normal 5.3060239116850186e-12 1.0 2.1559632252349204e-12
  outer loop
    vertex -73.45784096257114 110.82864579450896 3.500000000162682
    vertex -74.42024601645214 110.82864579451538 2.9000000001626813
    vertex -74.48732679673853 110.82864579451561 2.9674539195465273
  endloop
endfacet
facet normal 5.3060239116850186e-12 1.0 2.1559632252349204e-12
  outer loop
    vertex -73.45784096257114 110.82864579450896 3.500000000162682
    vertex -74.48732679673853 110.82864579451561 2.9674539195465273
    vertex -74.55826860722541 110.82864579451585 3.0308346883089348
  endloop
endfacet
facet normal 5.3060239116850186e-12 1.0 2.1559632252349204e-12
  outer loop
    vertex -73.45784096257114 110.82864579450896 3.500000000162682
    vertex -74.55826860722541 110.82864579451585 3.0308346883089348
    vertex -74.63282453443685 110.8286457945161 3.089921709233371
  endloop
endfacet
facet normal 5.3060239116850186e-12 1.0 2.1559632252349204e-12
  outer loop
    vertex -73.45784096257114 110.82864579450896 3.500000000162682
    vertex -74.63282453443685 110.8286457945161 3.089921709233371
    vertex -74.71073508593761 110.82864579451638 3.1445093295232023
  endloop
endfacet
facet normal 5.3060239116850186e-12 1.0 2.1559632252349204e-12
  outer loop
    vertex -73.45784096257114 110.82864579450896 3.500000000162682
    vertex -74.71073508593761 110.82864579451638 3.1445093295232023
    vertex -74.79172909349928 110.82864579451673 3.1944075565777057
  endloop
endfacet
facet normal 5.3060239116850186e-12 1.0 2.1559632252349204e-12
  outer loop
    vertex -73.45784096257114 110.82864579450896 3.500000000162682
    vertex -74.79172909349928 110.82864579451673 3.1944075565777057
    vertex -74.87552465690214 110.82864579451703 3.2394427192626685
  endloop
endfacet
facet normal 5.3060239116850186e-12 1.0 2.1559632252349204e-12
  outer loop
    vertex -73.45784096257114 110.82864579450896 3.500000000162682
    vertex -74.87552465690214 110.82864579451703 3.2394427192626685
    vertex -74.9618301250919 110.82864579451744 3.279458072374019
  endloop
endfacet
facet normal 5.3060239116850186e-12 1.0 2.1559632252349204e-12
  outer loop
    vertex -73.45784096257114 110.82864579450896 3.500000000162682
    vertex -74.9618301250919 110.82864579451744 3.279458072374019
    vertex -75.05034511127239 110.82864579451783 3.314314342190604
  endloop
endfacet
facet normal 5.3060239116850186e-12 1.0 2.1559632252349204e-12
  outer loop
    vertex -73.45784096257114 110.82864579450896 3.500000000162682
    vertex -75.05034511127239 110.82864579451783 3.314314342190604
    vertex -75.14076153840485 110.82864579451825 3.3438902112173765
  endloop
endfacet
facet normal 5.3060239116850186e-12 1.0 2.1559632252349204e-12
  outer loop
    vertex -73.45784096257114 110.82864579450896 3.500000000162682
    vertex -75.14076153840485 110.82864579451825 3.3438902112173765
    vertex -75.23276471147115 110.82864579451868 3.368082740431812
  endloop
endfacet
facet normal 5.3060239116850186e-12 1.0 2.1559632252349204e-12
  outer loop
    vertex -73.45784096257114 110.82864579450896 3.500000000162682
    vertex -75.23276471147115 110.82864579451868 3.368082740431812
    vertex -75.32603441277331 110.82864579451915 3.3868077275638817
  endloop
endfacet
facet normal 5.3060239116850186e-12 1.0 2.1559632252349204e-12
  outer loop
    vertex -73.45784096257114 110.82864579450896 3.500000000162682
    vertex -75.32603441277331 110.82864579451915 3.3868077275638817
    vertex -75.42024601645211 110.82864579451967 3.4000000001626796
  endloop
endfacet
facet normal 5.3060239116850186e-12 1.0 2.1559632252349204e-12
  outer loop
    vertex -73.45784096257114 110.82864579450896 3.500000000162682
    vertex -75.42024601645211 110.82864579451967 3.4000000001626796
    vertex -75.42024601645217 110.82864579451942 3.5000000001626796
  endloop
endfacet
facet normal 5.3060239116850186e-12 1.0 2.1559632252349204e-12
  outer loop
    vertex -73.45784096257114 110.82864579450896 3.500000000162682
    vertex -75.42024601645217 110.82864579451942 3.5000000001626796
    vertex -75.26353736185214 110.82864579451848 3.560536662035876
  endloop
endfacet
facet normal 5.3060239116850186e-12 1.0 2.1559632252349204e-12
  outer loop
    vertex -73.45784096257114 110.82864579450896 3.500000000162682
    vertex -75.26353736185214 110.82864579451848 3.560536662035876
    vertex -73.61454961717104 110.8286457945097 3.5605366620358754
  endloop
endfacet
facet normal 5.3060239116850186e-12 1.0 2.1559632252349204e-12
  outer loop
    vertex -73.61454961717104 110.8286457945097 3.5605366620358754
    vertex -75.26353736185214 110.82864579451848 3.560536662035876
    vertex -73.77496087389986 110.82864579451042 3.610441757687302
  endloop
endfacet
facet normal 5.3060239116850186e-12 1.0 2.1559632252349204e-12
  outer loop
    vertex -73.77496087389986 110.82864579451042 3.610441757687302
    vertex -75.26353736185214 110.82864579451848 3.560536662035876
    vertex -75.10312610512347 110.8286457945175 3.610441757687304
  endloop
endfacet
facet normal 5.3060239116850186e-12 1.0 2.1559632252349204e-12
  outer loop
    vertex -73.77496087389986 110.82864579451042 3.610441757687302
    vertex -75.10312610512347 110.8286457945175 3.610441757687304
    vertex -73.93835436468605 110.8286457945112 3.6494911754290578
  endloop
endfacet
facet normal 5.3060239116850186e-12 1.0 2.1559632252349204e-12
  outer loop
    vertex -73.93835436468605 110.8286457945112 3.6494911754290578
    vertex -75.10312610512347 110.8286457945175 3.610441757687304
    vertex -74.93973261433725 110.82864579451653 3.6494911754290595
  endloop
endfacet
facet normal 5.3060239116850186e-12 1.0 2.1559632252349204e-12
  outer loop
    vertex -73.93835436468605 110.8286457945112 3.6494911754290578
    vertex -74.93973261433725 110.82864579451653 3.6494911754290595
    vertex -74.10399632896808 110.82864579451207 3.6775095537913876
  endloop
endfacet
facet normal 5.3060239116850186e-12 1.0 2.1559632252349204e-12
  outer loop
    vertex -74.10399632896808 110.82864579451207 3.6775095537913876
    vertex -74.93973261433725 110.82864579451653 3.6494911754290595
    vertex -74.7740906500551 110.82864579451558 3.6775095537913853
  endloop
endfacet
facet normal 5.3060239116850186e-12 1.0 2.1559632252349204e-12
  outer loop
    vertex -74.10399632896808 110.82864579451207 3.6775095537913876
    vertex -74.7740906500551 110.82864579451558 3.6775095537913853
    vertex -74.60694407018836 110.82864579451469 3.694371069028531
  endloop
endfacet
facet normal 5.3060239116850186e-12 1.0 2.1559632252349204e-12
  outer loop
    vertex -74.10399632896808 110.82864579451207 3.6775095537913876
    vertex -74.60694407018836 110.82864579451469 3.694371069028531
    vertex -74.271142908835 110.8286457945129 3.694371069028529
  endloop
endfacet
facet normal 5.3060239116850186e-12 1.0 2.1559632252349204e-12
  outer loop
    vertex -74.271142908835 110.8286457945129 3.694371069028529
    vertex -74.60694407018836 110.82864579451469 3.694371069028531
    vertex -74.43904348951163 110.82864579451378 3.700000000162681
  endloop
endfacet
facet normal 5.3060239116850186e-12 1.0 2.1559632252349204e-12
  outer loop
    vertex -77.5013192234408 110.82864579453593 1.0000000001626366
    vertex -67.00131922344083 110.82864579448227 1.626359269479849e-10
    vertex -76.00131922344083 110.82864579453002 1.626359269479849e-10
  endloop
endfacet
facet normal 5.3060239116850186e-12 1.0 2.1559632252349204e-12
  outer loop
    vertex -67.00131922344083 110.82864579448227 1.626359269479849e-10
    vertex -77.5013192234408 110.82864579453593 1.0000000001626366
    vertex -65.62631922344082 110.82864579447276 1.0000000001626366
  endloop
endfacet
facet normal 5.3060239116850186e-12 1.0 2.1559632252349204e-12
  outer loop
    vertex -65.62631922344082 110.82864579447276 1.0000000001626366
    vertex -77.5013192234408 110.82864579453593 1.0000000001626366
    vertex -76.0013192234408 110.8286457945279 1.0000000001626366
  endloop
endfacet
facet normal 5.3060239116850186e-12 1.0 2.1559632252349204e-12
  outer loop
    vertex -65.62631922344082 110.82864579447276 1.0000000001626366
    vertex -76.0013192234408 110.8286457945279 1.0000000001626366
    vertex -74.00131922344082 110.82864579451727 1.0000000001626366
  endloop
endfacet
facet normal 5.3060239116850186e-12 1.0 2.1559632252349204e-12
  outer loop
    vertex -65.62631922344082 110.82864579447276 1.0000000001626366
    vertex -74.00131922344082 110.82864579451727 1.0000000001626366
    vertex -69.00131922344082 110.82864579449077 1.0000000001626383
  endloop
endfacet
facet normal 5.3060239116850186e-12 1.0 2.1559632252349204e-12
  outer loop
    vertex -65.62631922344082 110.82864579447276 1.0000000001626366
    vertex -69.00131922344082 110.82864579449077 1.0000000001626383
    vertex -67.00131922344083 110.82864579448014 1.0000000001626383
  endloop
endfacet
facet normal 5.3060239116850186e-12 1.0 2.1559632252349204e-12
  outer loop
    vertex -67.00131922344083 110.82864579448014 1.0000000001626383
    vertex -69.00131922344082 110.82864579449077 1.0000000001626383
    vertex -69.54479748431041 110.82864579448824 3.500000000162683
  endloop
endfacet
facet normal 5.3060239116850186e-12 1.0 2.1559632252349204e-12
  outer loop
    vertex -67.00131922344083 110.82864579448014 1.0000000001626383
    vertex -69.54479748431041 110.82864579448824 3.500000000162683
    vertex -68.58239243042934 110.82864579448443 2.9000000001626827
  endloop
endfacet
facet normal 5.3060239116850186e-12 1.0 2.1559632252349204e-12
  outer loop
    vertex -68.58239243042934 110.82864579448443 2.9000000001626827
    vertex -69.54479748431041 110.82864579448824 3.500000000162683
    vertex -68.51531165014299 110.82864579448393 2.9674539195465273
  endloop
endfacet
facet normal 5.3060239116850186e-12 1.0 2.1559632252349204e-12
  outer loop
    vertex -68.51531165014299 110.82864579448393 2.9674539195465273
    vertex -69.54479748431041 110.82864579448824 3.500000000162683
    vertex -68.4443698396561 110.82864579448342 3.0308346883089348
  endloop
endfacet
facet normal 5.3060239116850186e-12 1.0 2.1559632252349204e-12
  outer loop
    vertex -68.4443698396561 110.82864579448342 3.0308346883089348
    vertex -69.54479748431041 110.82864579448824 3.500000000162683
    vertex -68.3698139124447 110.8286457944829 3.089921709233372
  endloop
endfacet
facet normal 5.3060239116850186e-12 1.0 2.1559632252349204e-12
  outer loop
    vertex -68.3698139124447 110.8286457944829 3.089921709233372
    vertex -69.54479748431041 110.82864579448824 3.500000000162683
    vertex -68.29190336094382 110.82864579448236 3.144509329523203
  endloop
endfacet
facet normal 5.3060239116850186e-12 1.0 2.1559632252349204e-12
  outer loop
    vertex -68.29190336094382 110.82864579448236 3.144509329523203
    vertex -69.54479748431041 110.82864579448824 3.500000000162683
    vertex -68.21090935338226 110.82864579448183 3.194407556577707
  endloop
endfacet
facet normal 5.3060239116850186e-12 1.0 2.1559632252349204e-12
  outer loop
    vertex -68.21090935338226 110.82864579448183 3.194407556577707
    vertex -69.54479748431041 110.82864579448824 3.500000000162683
    vertex -68.1271137899793 110.82864579448125 3.2394427192626702
  endloop
endfacet
facet normal 5.3060239116850186e-12 1.0 2.1559632252349204e-12
  outer loop
    vertex -68.1271137899793 110.82864579448125 3.2394427192626702
    vertex -69.54479748431041 110.82864579448824 3.500000000162683
    vertex -68.04080832178965 110.8286457944807 3.2794580723740205
  endloop
endfacet
facet normal 5.3060239116850186e-12 1.0 2.1559632252349204e-12
  outer loop
    vertex -68.04080832178965 110.8286457944807 3.2794580723740205
    vertex -69.54479748431041 110.82864579448824 3.500000000162683
    vertex -67.95229333560903 110.8286457944802 3.3143143421906047
  endloop
endfacet
facet normal 5.3060239116850186e-12 1.0 2.1559632252349204e-12
  outer loop
    vertex -67.95229333560903 110.8286457944802 3.3143143421906047
    vertex -69.54479748431041 110.82864579448824 3.500000000162683
    vertex -67.86187690847669 110.8286457944796 3.343890211217378
  endloop
endfacet
facet normal 5.3060239116850186e-12 1.0 2.1559632252349204e-12
  outer loop
    vertex -67.86187690847669 110.8286457944796 3.343890211217378
    vertex -69.54479748431041 110.82864579448824 3.500000000162683
    vertex -67.76987373541029 110.8286457944791 3.3680827404318134
  endloop
endfacet
facet normal 5.3060239116850186e-12 1.0 2.1559632252349204e-12
  outer loop
    vertex -67.76987373541029 110.8286457944791 3.3680827404318134
    vertex -69.54479748431041 110.82864579448824 3.500000000162683
    vertex -67.67660403410824 110.82864579447855 3.386807727563883
  endloop
endfacet
facet normal 5.3060239116850186e-12 1.0 2.1559632252349204e-12
  outer loop
    vertex -67.67660403410824 110.82864579447855 3.386807727563883
    vertex -69.54479748431041 110.82864579448824 3.500000000162683
    vertex -67.58239243042938 110.82864579447805 3.4000000001626813
  endloop
endfacet
facet normal 5.3060239116850186e-12 1.0 2.1559632252349204e-12
  outer loop
    vertex -67.58239243042938 110.82864579447805 3.4000000001626813
    vertex -69.54479748431041 110.82864579448824 3.500000000162683
    vertex -67.58239243042938 110.82864579447785 3.500000000162681
  endloop
endfacet
facet normal 5.3060239116850186e-12 1.0 2.1559632252349204e-12
  outer loop
    vertex -67.58239243042938 110.82864579447785 3.500000000162681
    vertex -69.54479748431041 110.82864579448824 3.500000000162683
    vertex -67.73910108502935 110.82864579447855 3.560536662035877
  endloop
endfacet
facet normal 5.3060239116850186e-12 1.0 2.1559632252349204e-12
  outer loop
    vertex -67.73910108502935 110.82864579447855 3.560536662035877
    vertex -69.54479748431041 110.82864579448824 3.500000000162683
    vertex -69.38808882971047 110.8286457944873 3.560536662035878
  endloop
endfacet
facet normal 5.3060239116850186e-12 1.0 2.1559632252349204e-12
  outer loop
    vertex -67.73910108502935 110.82864579447855 3.560536662035877
    vertex -69.38808882971047 110.8286457944873 3.560536662035878
    vertex -67.89951234175805 110.82864579447931 3.6104417576873056
  endloop
endfacet
facet normal 5.3060239116850186e-12 1.0 2.1559632252349204e-12
  outer loop
    vertex -67.89951234175805 110.82864579447931 3.6104417576873056
    vertex -69.38808882971047 110.8286457944873 3.560536662035878
    vertex -69.22767757298166 110.8286457944863 3.6104417576873034
  endloop
endfacet
facet normal 5.3060239116850186e-12 1.0 2.1559632252349204e-12
  outer loop
    vertex -67.89951234175805 110.82864579447931 3.6104417576873056
    vertex -69.22767757298166 110.8286457944863 3.6104417576873034
    vertex -69.06428408219548 110.82864579448535 3.6494911754290595
  endloop
endfacet
facet normal 5.3060239116850186e-12 1.0 2.1559632252349204e-12
  outer loop
    vertex -67.89951234175805 110.82864579447931 3.6104417576873056
    vertex -69.06428408219548 110.82864579448535 3.6494911754290595
    vertex -68.0629058325443 110.82864579448005 3.6494911754290613
  endloop
endfacet
facet normal 5.3060239116850186e-12 1.0 2.1559632252349204e-12
  outer loop
    vertex -68.0629058325443 110.82864579448005 3.6494911754290613
    vertex -69.06428408219548 110.82864579448535 3.6494911754290595
    vertex -68.89864211791343 110.82864579448446 3.677509553791389
  endloop
endfacet
facet normal 5.3060239116850186e-12 1.0 2.1559632252349204e-12
  outer loop
    vertex -68.0629058325443 110.82864579448005 3.6494911754290613
    vertex -68.89864211791343 110.82864579448446 3.677509553791389
    vertex -68.22854779682639 110.82864579448086 3.6775095537913867
  endloop
endfacet
facet normal 5.3060239116850186e-12 1.0 2.1559632252349204e-12
  outer loop
    vertex -68.22854779682639 110.82864579448086 3.6775095537913867
    vertex -68.89864211791343 110.82864579448446 3.677509553791389
    vertex -68.39569437669319 110.82864579448174 3.6943710690285325
  endloop
endfacet
facet normal 5.3060239116850186e-12 1.0 2.1559632252349204e-12
  outer loop
    vertex -68.39569437669319 110.82864579448174 3.6943710690285325
    vertex -68.89864211791343 110.82864579448446 3.677509553791389
    vertex -68.73149553804654 110.82864579448355 3.6943710690285303
  endloop
endfacet
facet normal 5.3060239116850186e-12 1.0 2.1559632252349204e-12
  outer loop
    vertex -68.39569437669319 110.82864579448174 3.6943710690285325
    vertex -68.73149553804654 110.82864579448355 3.6943710690285303
    vertex -68.5635949573699 110.8286457944826 3.700000000162683
  endloop
endfacet
facet normal 0.03350655759175135 -2.31144849040928e-12 0.9994384976567346
  outer loop
    vertex -74.27114290923933 34.62864579451292 3.6943710688658458
    vertex -74.43904348951163 110.82864579451378 3.700000000162681
    vertex -74.43904348991599 34.62864579451377 3.699999999999998
  endloop
endfacet
facet normal 0.03350655759175135 -2.31144849040928e-12 0.9994384976567346
  outer loop
    vertex -74.43904348951163 110.82864579451378 3.700000000162681
    vertex -74.27114290923933 34.62864579451292 3.6943710688658458
    vertex -74.271142908835 110.8286457945129 3.694371069028529
  endloop
endfacet
facet normal -0.10036920294689508 -1.5914994541743081e-12 0.9949502616210547
  outer loop
    vertex -74.60694407059269 34.6286457945147 3.694371068865848
    vertex -74.7740906500551 110.82864579451558 3.6775095537913853
    vertex -74.77409065045946 34.628645794515585 3.677509553628702
  endloop
endfacet
facet normal -0.10036920294689508 -1.5914994541743081e-12 0.9949502616210547
  outer loop
    vertex -74.7740906500551 110.82864579451558 3.6775095537913853
    vertex -74.60694407059269 34.6286457945147 3.694371068865848
    vertex -74.60694407018836 110.82864579451469 3.694371069028531
  endloop
endfacet
facet normal -0.2324440525750542 -8.430238530269256e-13 0.9726097688294549
  outer loop
    vertex -74.93973261474157 34.62864579451652 3.649491175266377
    vertex -75.10312610512347 110.8286457945175 3.610441757687304
    vertex -75.10312610552779 34.62864579451752 3.610441757524621
  endloop
endfacet
facet normal -0.2324440525750542 -8.430238530269256e-13 0.9726097688294549
  outer loop
    vertex -75.10312610512347 110.8286457945175 3.610441757687304
    vertex -74.93973261474157 34.62864579451652 3.649491175266377
    vertex -74.93973261433725 110.82864579451653 3.6494911754290595
  endloop
endfacet
facet normal -0.2970631407126856 -4.62216762580044e-13 0.954857837811428
  outer loop
    vertex -75.10312610552779 34.62864579451752 3.610441757524621
    vertex -75.26353736185214 110.82864579451848 3.560536662035876
    vertex -75.2635373622565 34.62864579451848 3.5605366618731926
  endloop
endfacet
facet normal -0.2970631407126856 -4.62216762580044e-13 0.954857837811428
  outer loop
    vertex -75.26353736185214 110.82864579451848 3.560536662035876
    vertex -75.10312610552779 34.62864579451752 3.610441757524621
    vertex -75.10312610512347 110.8286457945175 3.610441757687304
  endloop
endfacet
facet normal -0.36034819029120224 -7.931778366888687e-14 0.9328178716951427
  outer loop
    vertex -75.2635373622565 34.62864579451848 3.5605366618731926
    vertex -75.42024601645217 110.82864579451942 3.5000000001626796
    vertex -75.42024601685651 34.628645794519436 3.4999999999999964
  endloop
endfacet
facet normal -0.36034819029120224 -7.931778366888687e-14 0.9328178716951427
  outer loop
    vertex -75.42024601645217 110.82864579451942 3.5000000001626796
    vertex -75.2635373622565 34.62864579451848 3.5605366618731926
    vertex -75.26353736185214 110.82864579451848 3.560536662035876
  endloop
endfacet
facet normal 0.23244405257508455 -3.3097393228005033e-12 0.9726097688294476
  outer loop
    vertex -73.77496087430418 34.62864579451043 3.610441757524619
    vertex -73.93835436468605 110.8286457945112 3.6494911754290578
    vertex -73.93835436509038 34.6286457945112 3.6494911752663746
  endloop
endfacet
facet normal 0.23244405257508455 -3.3097393228005033e-12 0.9726097688294476
  outer loop
    vertex -73.93835436468605 110.8286457945112 3.6494911754290578
    vertex -73.77496087430418 34.62864579451043 3.610441757524619
    vertex -73.77496087389986 110.82864579451042 3.610441757687302
  endloop
endfacet
facet normal -0.16678111454025163 -1.219986242112346e-12 0.985993945129843
  outer loop
    vertex -74.77409065045946 34.628645794515585 3.677509553628702
    vertex -74.93973261433725 110.82864579451653 3.6494911754290595
    vertex -74.93973261474157 34.62864579451652 3.649491175266377
  endloop
endfacet
facet normal -0.16678111454025163 -1.219986242112346e-12 0.985993945129843
  outer loop
    vertex -74.93973261433725 110.82864579451653 3.6494911754290595
    vertex -74.77409065045946 34.628645794515585 3.677509553628702
    vertex -74.7740906500551 110.82864579451558 3.6775095537913853
  endloop
endfacet
facet normal 0.9771763639227935 -4.7312416022619355e-12 -0.21242964433107783
  outer loop
    vertex -74.00131922384509 34.62864579451721 1.0000000000000024
    vertex -73.45784096257114 110.82864579450896 3.500000000162682
    vertex -73.45784096297547 34.62864579450896 3.4999999999999987
  endloop
endfacet
facet normal 0.9771763639227935 -4.7312416022619355e-12 -0.21242964433107783
  outer loop
    vertex -73.45784096257114 110.82864579450896 3.500000000162682
    vertex -74.00131922384509 34.62864579451721 1.0000000000000024
    vertex -74.00131922344082 110.82864579451727 1.0000000001626366
  endloop
endfacet
facet normal 0.10036920294677178 -2.656651193766838e-12 0.994950261621067
  outer loop
    vertex -74.10399632937242 34.62864579451207 3.6775095536287044
    vertex -74.271142908835 110.8286457945129 3.694371069028529
    vertex -74.27114290923933 34.62864579451292 3.6943710688658458
  endloop
endfacet
facet normal 0.10036920294677178 -2.656651193766838e-12 0.994950261621067
  outer loop
    vertex -74.271142908835 110.8286457945129 3.694371069028529
    vertex -74.10399632937242 34.62864579451207 3.6775095536287044
    vertex -74.10399632896808 110.82864579451207 3.6775095537913876
  endloop
endfacet
facet normal 0.36034819029139836 -3.903499750003152e-12 0.9328178716950669
  outer loop
    vertex -73.45784096297547 34.62864579450896 3.4999999999999987
    vertex -73.61454961717104 110.8286457945097 3.5605366620358754
    vertex -73.61454961757538 34.628645794509715 3.560536661873192
  endloop
endfacet
facet normal 0.36034819029139836 -3.903499750003152e-12 0.9328178716950669
  outer loop
    vertex -73.61454961717104 110.8286457945097 3.5605366620358754
    vertex -73.45784096297547 34.62864579450896 3.4999999999999987
    vertex -73.45784096257114 110.82864579450896 3.500000000162682
  endloop
endfacet
facet normal 0.2970631407124749 -3.614750800594553e-12 0.9548578378114936
  outer loop
    vertex -73.61454961757538 34.628645794509715 3.560536661873192
    vertex -73.77496087389986 110.82864579451042 3.610441757687302
    vertex -73.77496087430418 34.62864579451043 3.610441757524619
  endloop
endfacet
facet normal 0.2970631407124749 -3.614750800594553e-12 0.9548578378114936
  outer loop
    vertex -73.77496087389986 110.82864579451042 3.610441757687302
    vertex -73.61454961757538 34.628645794509715 3.560536661873192
    vertex -73.61454961717104 110.8286457945097 3.5605366620358754
  endloop
endfacet
facet normal -0.03350655759172379 -1.955865629744022e-12 0.9994384976567355
  outer loop
    vertex -74.43904348991599 34.62864579451377 3.699999999999998
    vertex -74.60694407018836 110.82864579451469 3.694371069028531
    vertex -74.60694407059269 34.6286457945147 3.694371068865848
  endloop
endfacet
facet normal -0.03350655759172379 -1.955865629744022e-12 0.9994384976567355
  outer loop
    vertex -74.60694407018836 110.82864579451469 3.694371069028531
    vertex -74.43904348991599 34.62864579451377 3.699999999999998
    vertex -74.43904348951163 110.82864579451378 3.700000000162681
  endloop
endfacet
facet normal 0.16678111454037184 -2.989923530549382e-12 0.9859939451298226
  outer loop
    vertex -73.93835436509038 34.6286457945112 3.6494911752663746
    vertex -74.10399632896808 110.82864579451207 3.6775095537913876
    vertex -74.10399632937242 34.62864579451207 3.6775095536287044
  endloop
endfacet
facet normal 0.16678111454037184 -2.989923530549382e-12 0.9859939451298226
  outer loop
    vertex -74.10399632896808 110.82864579451207 3.6775095537913876
    vertex -73.93835436509038 34.6286457945112 3.6494911752663746
    vertex -73.93835436468605 110.8286457945112 3.6494911754290578
  endloop
endfacet
facet normal -3.28996100944135e-16 -2.1343066203272047e-12 1.0
  outer loop
    vertex -69.00131922384509 34.628645794490716 1.0000000000000038
    vertex -74.00131922344082 110.82864579451727 1.0000000001626366
    vertex -74.00131922384509 34.62864579451721 1.0000000000000024
  endloop
endfacet
facet normal -3.28996100944135e-16 -2.1343066203272047e-12 1.0
  outer loop
    vertex -74.00131922344082 110.82864579451727 1.0000000001626366
    vertex -69.00131922384509 34.628645794490716 1.0000000000000038
    vertex -69.00131922344082 110.82864579449077 1.0000000001626383
  endloop
endfacet
facet normal -5.305809036297151e-12 -1.0 -2.1337690686332994e-12
  outer loop
    vertex -67.00131922384509 34.62864579448008 1.0000000000000038
    vertex -74.00131922384509 34.62864579451721 1.0000000000000024
    vertex -65.62631922384509 34.62864579447271 1.0000000000000024
  endloop
endfacet
facet normal -5.305809036297151e-12 -1.0 -2.1337690686332994e-12
  outer loop
    vertex -74.00131922384509 34.62864579451721 1.0000000000000024
    vertex -67.00131922384509 34.62864579448008 1.0000000000000038
    vertex -69.00131922384509 34.628645794490716 1.0000000000000038
  endloop
endfacet
facet normal -5.305809036297151e-12 -1.0 -2.1337690686332994e-12
  outer loop
    vertex -69.00131922384509 34.628645794490716 1.0000000000000038
    vertex -67.00131922384509 34.62864579448008 1.0000000000000038
    vertex -68.58239243083364 34.62864579448445 2.8999999999999995
  endloop
endfacet
facet normal -5.305809036297151e-12 -1.0 -2.1337690686332994e-12
  outer loop
    vertex -69.00131922384509 34.628645794490716 1.0000000000000038
    vertex -68.58239243083364 34.62864579448445 2.8999999999999995
    vertex -69.5447974847147 34.628645794488236 3.5
  endloop
endfacet
facet normal -5.305809036297151e-12 -1.0 -2.1337690686332994e-12
  outer loop
    vertex -69.5447974847147 34.628645794488236 3.5
    vertex -68.58239243083364 34.62864579448445 2.8999999999999995
    vertex -68.51531165054732 34.62864579448392 2.9674539193838436
  endloop
endfacet
facet normal -5.305809036297151e-12 -1.0 -2.1337690686332994e-12
  outer loop
    vertex -69.5447974847147 34.628645794488236 3.5
    vertex -68.51531165054732 34.62864579448392 2.9674539193838436
    vertex -68.44436984006043 34.62864579448343 3.030834688146251
  endloop
endfacet
facet normal -5.305809036297151e-12 -1.0 -2.1337690686332994e-12
  outer loop
    vertex -69.5447974847147 34.628645794488236 3.5
    vertex -68.44436984006043 34.62864579448343 3.030834688146251
    vertex -68.369813912849 34.628645794482914 3.0899217090706883
  endloop
endfacet
facet normal -5.305809036297151e-12 -1.0 -2.1337690686332994e-12
  outer loop
    vertex -69.5447974847147 34.628645794488236 3.5
    vertex -68.369813912849 34.628645794482914 3.0899217090706883
    vertex -68.29190336134815 34.62864579448236 3.14450932936052
  endloop
endfacet
facet normal -5.305809036297151e-12 -1.0 -2.1337690686332994e-12
  outer loop
    vertex -69.5447974847147 34.628645794488236 3.5
    vertex -68.29190336134815 34.62864579448236 3.14450932936052
    vertex -68.21090935378656 34.62864579448182 3.194407556415024
  endloop
endfacet
facet normal -5.305809036297151e-12 -1.0 -2.1337690686332994e-12
  outer loop
    vertex -69.5447974847147 34.628645794488236 3.5
    vertex -68.21090935378656 34.62864579448182 3.194407556415024
    vertex -68.12711379038363 34.62864579448126 3.239442719099987
  endloop
endfacet
facet normal -5.305809036297151e-12 -1.0 -2.1337690686332994e-12
  outer loop
    vertex -69.5447974847147 34.628645794488236 3.5
    vertex -68.12711379038363 34.62864579448126 3.239442719099987
    vertex -68.04080832219395 34.62864579448071 3.279458072211338
  endloop
endfacet
facet normal -5.305809036297151e-12 -1.0 -2.1337690686332994e-12
  outer loop
    vertex -69.5447974847147 34.628645794488236 3.5
    vertex -68.04080832219395 34.62864579448071 3.279458072211338
    vertex -67.95229333601335 34.62864579448019 3.3143143420279215
  endloop
endfacet
facet normal -5.305809036297151e-12 -1.0 -2.1337690686332994e-12
  outer loop
    vertex -69.5447974847147 34.628645794488236 3.5
    vertex -67.95229333601335 34.62864579448019 3.3143143420279215
    vertex -67.861876908881 34.6286457944796 3.3438902110546946
  endloop
endfacet
facet normal -5.305809036297151e-12 -1.0 -2.1337690686332994e-12
  outer loop
    vertex -69.5447974847147 34.628645794488236 3.5
    vertex -67.861876908881 34.6286457944796 3.3438902110546946
    vertex -67.76987373581461 34.628645794479105 3.3680827402691302
  endloop
endfacet
facet normal -5.305809036297151e-12 -1.0 -2.1337690686332994e-12
  outer loop
    vertex -69.5447974847147 34.628645794488236 3.5
    vertex -67.76987373581461 34.628645794479105 3.3680827402691302
    vertex -67.67660403451254 34.628645794478544 3.3868077274012
  endloop
endfacet
facet normal -5.305809036297151e-12 -1.0 -2.1337690686332994e-12
  outer loop
    vertex -69.5447974847147 34.628645794488236 3.5
    vertex -67.67660403451254 34.628645794478544 3.3868077274012
    vertex -67.5823924308337 34.62864579447807 3.399999999999998
  endloop
endfacet
facet normal -5.305809036297151e-12 -1.0 -2.1337690686332994e-12
  outer loop
    vertex -69.5447974847147 34.628645794488236 3.5
    vertex -67.5823924308337 34.62864579447807 3.399999999999998
    vertex -67.5823924308337 34.628645794477855 3.499999999999998
  endloop
endfacet
facet normal -5.305809036297151e-12 -1.0 -2.1337690686332994e-12
  outer loop
    vertex -69.5447974847147 34.628645794488236 3.5
    vertex -67.5823924308337 34.628645794477855 3.499999999999998
    vertex -67.73910108543367 34.62864579447854 3.5605366618731944
  endloop
endfacet
facet normal -5.305809036297151e-12 -1.0 -2.1337690686332994e-12
  outer loop
    vertex -69.5447974847147 34.628645794488236 3.5
    vertex -67.73910108543367 34.62864579447854 3.5605366618731944
    vertex -69.3880888301148 34.628645794487326 3.560536661873195
  endloop
endfacet
facet normal -5.305809036297151e-12 -1.0 -2.1337690686332994e-12
  outer loop
    vertex -69.3880888301148 34.628645794487326 3.560536661873195
    vertex -67.73910108543367 34.62864579447854 3.5605366618731944
    vertex -67.89951234216237 34.628645794479304 3.6104417575246224
  endloop
endfacet
facet normal -5.305809036297151e-12 -1.0 -2.1337690686332994e-12
  outer loop
    vertex -69.3880888301148 34.628645794487326 3.560536661873195
    vertex -67.89951234216237 34.628645794479304 3.6104417575246224
    vertex -69.22767757338598 34.62864579448632 3.61044175752462
  endloop
endfacet
facet normal -5.305809036297151e-12 -1.0 -2.1337690686332994e-12
  outer loop
    vertex -69.22767757338598 34.62864579448632 3.61044175752462
    vertex -67.89951234216237 34.628645794479304 3.6104417575246224
    vertex -69.0642840825998 34.628645794485365 3.649491175266377
  endloop
endfacet
facet normal -5.305809036297151e-12 -1.0 -2.1337690686332994e-12
  outer loop
    vertex -69.0642840825998 34.628645794485365 3.649491175266377
    vertex -67.89951234216237 34.628645794479304 3.6104417575246224
    vertex -68.0629058329486 34.628645794480065 3.649491175266378
  endloop
endfacet
facet normal -5.305809036297151e-12 -1.0 -2.1337690686332994e-12
  outer loop
    vertex -69.0642840825998 34.628645794485365 3.649491175266377
    vertex -68.0629058329486 34.628645794480065 3.649491175266378
    vertex -68.89864211831775 34.62864579448447 3.6775095536287057
  endloop
endfacet
facet normal -5.305809036297151e-12 -1.0 -2.1337690686332994e-12
  outer loop
    vertex -68.89864211831775 34.62864579448447 3.6775095536287057
    vertex -68.0629058329486 34.628645794480065 3.649491175266378
    vertex -68.22854779723072 34.62864579448089 3.6775095536287035
  endloop
endfacet
facet normal -5.305809036297151e-12 -1.0 -2.1337690686332994e-12
  outer loop
    vertex -68.89864211831775 34.62864579448447 3.6775095536287057
    vertex -68.22854779723072 34.62864579448089 3.6775095536287035
    vertex -68.39569437709748 34.62864579448176 3.6943710688658493
  endloop
endfacet
facet normal -5.305809036297151e-12 -1.0 -2.1337690686332994e-12
  outer loop
    vertex -68.89864211831775 34.62864579448447 3.6775095536287057
    vertex -68.39569437709748 34.62864579448176 3.6943710688658493
    vertex -68.73149553845084 34.628645794483546 3.6943710688658475
  endloop
endfacet
facet normal -5.305809036297151e-12 -1.0 -2.1337690686332994e-12
  outer loop
    vertex -68.73149553845084 34.628645794483546 3.6943710688658475
    vertex -68.39569437709748 34.62864579448176 3.6943710688658493
    vertex -68.56359495777423 34.62864579448262 3.6999999999999997
  endloop
endfacet
facet normal -5.305809036297151e-12 -1.0 -2.1337690686332994e-12
  outer loop
    vertex -73.45784096297547 34.62864579450896 3.4999999999999987
    vertex -76.00131922384509 34.62864579452785 1.0000000000000024
    vertex -74.00131922384509 34.62864579451721 1.0000000000000024
  endloop
endfacet
facet normal -5.305809036297151e-12 -1.0 -2.1337690686332994e-12
  outer loop
    vertex -76.00131922384509 34.62864579452785 1.0000000000000024
    vertex -73.45784096297547 34.62864579450896 3.4999999999999987
    vertex -74.42024601685647 34.62864579451538 2.8999999999999977
  endloop
endfacet
facet normal -5.305809036297151e-12 -1.0 -2.1337690686332994e-12
  outer loop
    vertex -74.42024601685647 34.62864579451538 2.8999999999999977
    vertex -73.45784096297547 34.62864579450896 3.4999999999999987
    vertex -74.48732679714288 34.62864579451559 2.9674539193838436
  endloop
endfacet
facet normal -5.305809036297151e-12 -1.0 -2.1337690686332994e-12
  outer loop
    vertex -74.48732679714288 34.62864579451559 2.9674539193838436
    vertex -73.45784096297547 34.62864579450896 3.4999999999999987
    vertex -74.55826860762977 34.628645794515855 3.030834688146251
  endloop
endfacet
facet normal -5.305809036297151e-12 -1.0 -2.1337690686332994e-12
  outer loop
    vertex -74.55826860762977 34.628645794515855 3.030834688146251
    vertex -73.45784096297547 34.62864579450896 3.4999999999999987
    vertex -74.63282453484118 34.6286457945161 3.0899217090706874
  endloop
endfacet
facet normal -5.305809036297151e-12 -1.0 -2.1337690686332994e-12
  outer loop
    vertex -74.63282453484118 34.6286457945161 3.0899217090706874
    vertex -73.45784096297547 34.62864579450896 3.4999999999999987
    vertex -74.71073508634196 34.6286457945164 3.1445093293605186
  endloop
endfacet
facet normal -5.305809036297151e-12 -1.0 -2.1337690686332994e-12
  outer loop
    vertex -74.71073508634196 34.6286457945164 3.1445093293605186
    vertex -73.45784096297547 34.62864579450896 3.4999999999999987
    vertex -74.79172909390361 34.62864579451674 3.1944075564150225
  endloop
endfacet
facet normal -5.305809036297151e-12 -1.0 -2.1337690686332994e-12
  outer loop
    vertex -74.79172909390361 34.62864579451674 3.1944075564150225
    vertex -73.45784096297547 34.62864579450896 3.4999999999999987
    vertex -74.87552465730647 34.62864579451705 3.2394427190999857
  endloop
endfacet
facet normal -5.305809036297151e-12 -1.0 -2.1337690686332994e-12
  outer loop
    vertex -74.87552465730647 34.62864579451705 3.2394427190999857
    vertex -73.45784096297547 34.62864579450896 3.4999999999999987
    vertex -74.96183012549622 34.62864579451743 3.279458072211336
  endloop
endfacet
facet normal -5.305809036297151e-12 -1.0 -2.1337690686332994e-12
  outer loop
    vertex -74.96183012549622 34.62864579451743 3.279458072211336
    vertex -73.45784096297547 34.62864579450896 3.4999999999999987
    vertex -75.05034511167675 34.628645794517844 3.3143143420279206
  endloop
endfacet
facet normal -5.305809036297151e-12 -1.0 -2.1337690686332994e-12
  outer loop
    vertex -75.05034511167675 34.628645794517844 3.3143143420279206
    vertex -73.45784096297547 34.62864579450896 3.4999999999999987
    vertex -75.14076153880917 34.62864579451824 3.3438902110546933
  endloop
endfacet
facet normal -5.305809036297151e-12 -1.0 -2.1337690686332994e-12
  outer loop
    vertex -75.14076153880917 34.62864579451824 3.3438902110546933
    vertex -73.45784096297547 34.62864579450896 3.4999999999999987
    vertex -75.23276471187549 34.6286457945187 3.368082740269129
  endloop
endfacet
facet normal -5.305809036297151e-12 -1.0 -2.1337690686332994e-12
  outer loop
    vertex -75.23276471187549 34.6286457945187 3.368082740269129
    vertex -73.45784096297547 34.62864579450896 3.4999999999999987
    vertex -75.32603441317764 34.62864579451913 3.3868077274011985
  endloop
endfacet
facet normal -5.305809036297151e-12 -1.0 -2.1337690686332994e-12
  outer loop
    vertex -75.32603441317764 34.62864579451913 3.3868077274011985
    vertex -73.45784096297547 34.62864579450896 3.4999999999999987
    vertex -75.42024601685647 34.62864579451965 3.399999999999997
  endloop
endfacet
facet normal -5.305809036297151e-12 -1.0 -2.1337690686332994e-12
  outer loop
    vertex -75.42024601685647 34.62864579451965 3.399999999999997
    vertex -73.45784096297547 34.62864579450896 3.4999999999999987
    vertex -75.42024601685651 34.628645794519436 3.4999999999999964
  endloop
endfacet
facet normal -5.305809036297151e-12 -1.0 -2.1337690686332994e-12
  outer loop
    vertex -75.42024601685651 34.628645794519436 3.4999999999999964
    vertex -73.45784096297547 34.62864579450896 3.4999999999999987
    vertex -75.2635373622565 34.62864579451848 3.5605366618731926
  endloop
endfacet
facet normal -5.305809036297151e-12 -1.0 -2.1337690686332994e-12
  outer loop
    vertex -75.2635373622565 34.62864579451848 3.5605366618731926
    vertex -73.45784096297547 34.62864579450896 3.4999999999999987
    vertex -73.61454961757538 34.628645794509715 3.560536661873192
  endloop
endfacet
facet normal -5.305809036297151e-12 -1.0 -2.1337690686332994e-12
  outer loop
    vertex -75.2635373622565 34.62864579451848 3.5605366618731926
    vertex -73.61454961757538 34.628645794509715 3.560536661873192
    vertex -73.77496087430418 34.62864579451043 3.610441757524619
  endloop
endfacet
facet normal -5.305809036297151e-12 -1.0 -2.1337690686332994e-12
  outer loop
    vertex -75.2635373622565 34.62864579451848 3.5605366618731926
    vertex -73.77496087430418 34.62864579451043 3.610441757524619
    vertex -75.10312610552779 34.62864579451752 3.610441757524621
  endloop
endfacet
facet normal -5.305809036297151e-12 -1.0 -2.1337690686332994e-12
  outer loop
    vertex -75.10312610552779 34.62864579451752 3.610441757524621
    vertex -73.77496087430418 34.62864579451043 3.610441757524619
    vertex -73.93835436509038 34.6286457945112 3.6494911752663746
  endloop
endfacet
facet normal -5.305809036297151e-12 -1.0 -2.1337690686332994e-12
  outer loop
    vertex -75.10312610552779 34.62864579451752 3.610441757524621
    vertex -73.93835436509038 34.6286457945112 3.6494911752663746
    vertex -74.93973261474157 34.62864579451652 3.649491175266377
  endloop
endfacet
facet normal -5.305809036297151e-12 -1.0 -2.1337690686332994e-12
  outer loop
    vertex -74.93973261474157 34.62864579451652 3.649491175266377
    vertex -73.93835436509038 34.6286457945112 3.6494911752663746
    vertex -74.10399632937242 34.62864579451207 3.6775095536287044
  endloop
endfacet
facet normal -5.305809036297151e-12 -1.0 -2.1337690686332994e-12
  outer loop
    vertex -74.93973261474157 34.62864579451652 3.649491175266377
    vertex -74.10399632937242 34.62864579451207 3.6775095536287044
    vertex -74.77409065045946 34.628645794515585 3.677509553628702
  endloop
endfacet
facet normal -5.305809036297151e-12 -1.0 -2.1337690686332994e-12
  outer loop
    vertex -74.77409065045946 34.628645794515585 3.677509553628702
    vertex -74.10399632937242 34.62864579451207 3.6775095536287044
    vertex -74.60694407059269 34.6286457945147 3.694371068865848
  endloop
endfacet
facet normal -5.305809036297151e-12 -1.0 -2.1337690686332994e-12
  outer loop
    vertex -74.60694407059269 34.6286457945147 3.694371068865848
    vertex -74.10399632937242 34.62864579451207 3.6775095536287044
    vertex -74.27114290923933 34.62864579451292 3.6943710688658458
  endloop
endfacet
facet normal -5.305809036297151e-12 -1.0 -2.1337690686332994e-12
  outer loop
    vertex -74.60694407059269 34.6286457945147 3.694371068865848
    vertex -74.27114290923933 34.62864579451292 3.6943710688658458
    vertex -74.43904348991599 34.62864579451377 3.699999999999998
  endloop
endfacet
facet normal -5.305809036297151e-12 -1.0 -2.1337690686332994e-12
  outer loop
    vertex -67.00131922384516 34.62864579448221 2.114974861910923e-15
    vertex -76.00131922384519 34.62864579452997 2.114974861910923e-15
    vertex -71.50131922384517 34.628645794506085 0.0
  endloop
endfacet
facet normal -5.305809036297151e-12 -1.0 -2.1337690686332994e-12
  outer loop
    vertex -76.00131922384519 34.62864579452997 2.114974861910923e-15
    vertex -67.00131922384516 34.62864579448221 2.114974861910923e-15
    vertex -65.62631922384509 34.62864579447271 1.0000000000000024
  endloop
endfacet
facet normal -5.305809036297151e-12 -1.0 -2.1337690686332994e-12
  outer loop
    vertex -76.00131922384519 34.62864579452997 2.114974861910923e-15
    vertex -65.62631922384509 34.62864579447271 1.0000000000000024
    vertex -77.50131922384509 34.628645794535885 1.0000000000000024
  endloop
endfacet
facet normal -5.305809036297151e-12 -1.0 -2.1337690686332994e-12
  outer loop
    vertex -77.50131922384509 34.628645794535885 1.0000000000000024
    vertex -65.62631922384509 34.62864579447271 1.0000000000000024
    vertex -74.00131922384509 34.62864579451721 1.0000000000000024
  endloop
endfacet
facet normal -5.305809036297151e-12 -1.0 -2.1337690686332994e-12
  outer loop
    vertex -77.50131922384509 34.628645794535885 1.0000000000000024
    vertex -74.00131922384509 34.62864579451721 1.0000000000000024
    vertex -76.00131922384509 34.62864579452785 1.0000000000000024
  endloop
endfacet
facet normal -0.9771763639227984 5.6378911855074905e-12 -0.21242964433105535
  outer loop
    vertex -69.54479748431041 110.82864579448824 3.500000000162683
    vertex -69.00131922384509 34.628645794490716 1.0000000000000038
    vertex -69.5447974847147 34.628645794488236 3.5
  endloop
endfacet
facet normal -0.9771763639227984 5.6378911855074905e-12 -0.21242964433105535
  outer loop
    vertex -69.00131922384509 34.628645794490716 1.0000000000000038
    vertex -69.54479748431041 110.82864579448824 3.500000000162683
    vertex -69.00131922344082 110.82864579449077 1.0000000001626383
  endloop
endfacet
endsolid v2
