solid v2
facet normal 5.3060239116850186e-12 1.0 2.1559632252349204e-12
  outer loop
    vertex -94.42024601631742 136.22864579451536 2.900000000216894
    vertex -94.0013192233061 136.22864579451726 1.000000000216849
    vertex -96.00131922330608 136.2286457945279 1.000000000216849
  endloop
endfacet
facet normal 5.3060239116850186e-12 1.0 2.1559632252349204e-12
  outer loop
    vertex -94.0013192233061 136.22864579451726 1.000000000216849
    vertex -94.42024601631742 136.22864579451536 2.900000000216894
    vertex -93.45784096243642 136.22864579450894 3.500000000216894
  endloop
endfacet
facet normal 5.3060239116850186e-12 1.0 2.1559632252349204e-12
  outer loop
    vertex -93.45784096243642 136.22864579450894 3.500000000216894
    vertex -94.42024601631742 136.22864579451536 2.900000000216894
    vertex -94.48732679660381 136.2286457945156 2.9674539196007395
  endloop
endfacet
facet normal 5.3060239116850186e-12 1.0 2.1559632252349204e-12
  outer loop
    vertex -93.45784096243642 136.22864579450894 3.500000000216894
    vertex -94.48732679660381 136.2286457945156 2.9674539196007395
    vertex -94.5582686070907 136.22864579451584 3.030834688363147
  endloop
endfacet
facet normal 5.3060239116850186e-12 1.0 2.1559632252349204e-12
  outer loop
    vertex -93.45784096243642 136.22864579450894 3.500000000216894
    vertex -94.5582686070907 136.22864579451584 3.030834688363147
    vertex -94.63282453430213 136.22864579451607 3.0899217092875833
  endloop
endfacet
facet normal 5.3060239116850186e-12 1.0 2.1559632252349204e-12
  outer loop
    vertex -93.45784096243642 136.22864579450894 3.500000000216894
    vertex -94.63282453430213 136.22864579451607 3.0899217092875833
    vertex -94.7107350858029 136.22864579451635 3.144509329577415
  endloop
endfacet
facet normal 5.3060239116850186e-12 1.0 2.1559632252349204e-12
  outer loop
    vertex -93.45784096243642 136.22864579450894 3.500000000216894
    vertex -94.7107350858029 136.22864579451635 3.144509329577415
    vertex -94.79172909336457 136.22864579451672 3.1944075566319183
  endloop
endfacet
facet normal 5.3060239116850186e-12 1.0 2.1559632252349204e-12
  outer loop
    vertex -93.45784096243642 136.22864579450894 3.500000000216894
    vertex -94.79172909336457 136.22864579451672 3.1944075566319183
    vertex -94.87552465676742 136.22864579451704 3.239442719316881
  endloop
endfacet
facet normal 5.3060239116850186e-12 1.0 2.1559632252349204e-12
  outer loop
    vertex -93.45784096243642 136.22864579450894 3.500000000216894
    vertex -94.87552465676742 136.22864579451704 3.239442719316881
    vertex -94.96183012495717 136.2286457945174 3.279458072428232
  endloop
endfacet
facet normal 5.3060239116850186e-12 1.0 2.1559632252349204e-12
  outer loop
    vertex -93.45784096243642 136.22864579450894 3.500000000216894
    vertex -94.96183012495717 136.2286457945174 3.279458072428232
    vertex -95.05034511113767 136.2286457945178 3.3143143422448165
  endloop
endfacet
facet normal 5.3060239116850186e-12 1.0 2.1559632252349204e-12
  outer loop
    vertex -93.45784096243642 136.22864579450894 3.500000000216894
    vertex -95.05034511113767 136.2286457945178 3.3143143422448165
    vertex -95.14076153827013 136.22864579451823 3.3438902112715887
  endloop
endfacet
facet normal 5.3060239116850186e-12 1.0 2.1559632252349204e-12
  outer loop
    vertex -93.45784096243642 136.22864579450894 3.500000000216894
    vertex -95.14076153827013 136.22864579451823 3.3438902112715887
    vertex -95.23276471133643 136.22864579451866 3.3680827404860243
  endloop
endfacet
facet normal 5.3060239116850186e-12 1.0 2.1559632252349204e-12
  outer loop
    vertex -93.45784096243642 136.22864579450894 3.500000000216894
    vertex -95.23276471133643 136.22864579451866 3.3680827404860243
    vertex -95.32603441263859 136.22864579451914 3.3868077276180943
  endloop
endfacet
facet normal 5.3060239116850186e-12 1.0 2.1559632252349204e-12
  outer loop
    vertex -93.45784096243642 136.22864579450894 3.500000000216894
    vertex -95.32603441263859 136.22864579451914 3.3868077276180943
    vertex -95.4202460163174 136.22864579451965 3.400000000216892
  endloop
endfacet
facet normal 5.3060239116850186e-12 1.0 2.1559632252349204e-12
  outer loop
    vertex -93.45784096243642 136.22864579450894 3.500000000216894
    vertex -95.4202460163174 136.22864579451965 3.400000000216892
    vertex -95.42024601631745 136.22864579451942 3.500000000216892
  endloop
endfacet
facet normal 5.3060239116850186e-12 1.0 2.1559632252349204e-12
  outer loop
    vertex -93.45784096243642 136.22864579450894 3.500000000216894
    vertex -95.42024601631745 136.22864579451942 3.500000000216892
    vertex -95.26353736171744 136.22864579451848 3.5605366620900885
  endloop
endfacet
facet normal 5.3060239116850186e-12 1.0 2.1559632252349204e-12
  outer loop
    vertex -93.45784096243642 136.22864579450894 3.500000000216894
    vertex -95.26353736171744 136.22864579451848 3.5605366620900885
    vertex -93.61454961703632 136.22864579450967 3.5605366620900876
  endloop
endfacet
facet normal 5.3060239116850186e-12 1.0 2.1559632252349204e-12
  outer loop
    vertex -93.61454961703632 136.22864579450967 3.5605366620900876
    vertex -95.26353736171744 136.22864579451848 3.5605366620900885
    vertex -93.77496087376514 136.22864579451038 3.610441757741514
  endloop
endfacet
facet normal 5.3060239116850186e-12 1.0 2.1559632252349204e-12
  outer loop
    vertex -93.77496087376514 136.22864579451038 3.610441757741514
    vertex -95.26353736171744 136.22864579451848 3.5605366620900885
    vertex -95.10312610498875 136.2286457945175 3.6104417577415164
  endloop
endfacet
facet normal 5.3060239116850186e-12 1.0 2.1559632252349204e-12
  outer loop
    vertex -93.77496087376514 136.22864579451038 3.610441757741514
    vertex -95.10312610498875 136.2286457945175 3.6104417577415164
    vertex -93.93835436455133 136.22864579451118 3.64949117548327
  endloop
endfacet
facet normal 5.3060239116850186e-12 1.0 2.1559632252349204e-12
  outer loop
    vertex -93.93835436455133 136.22864579451118 3.64949117548327
    vertex -95.10312610498875 136.2286457945175 3.6104417577415164
    vertex -94.93973261420253 136.2286457945165 3.649491175483272
  endloop
endfacet
facet normal 5.3060239116850186e-12 1.0 2.1559632252349204e-12
  outer loop
    vertex -93.93835436455133 136.22864579451118 3.64949117548327
    vertex -94.93973261420253 136.2286457945165 3.649491175483272
    vertex -94.10399632883336 136.22864579451206 3.6775095538455997
  endloop
endfacet
facet normal 5.3060239116850186e-12 1.0 2.1559632252349204e-12
  outer loop
    vertex -94.10399632883336 136.22864579451206 3.6775095538455997
    vertex -94.93973261420253 136.2286457945165 3.649491175483272
    vertex -94.77409064992038 136.2286457945156 3.677509553845598
  endloop
endfacet
facet normal 5.3060239116850186e-12 1.0 2.1559632252349204e-12
  outer loop
    vertex -94.10399632883336 136.22864579451206 3.6775095538455997
    vertex -94.77409064992038 136.2286457945156 3.677509553845598
    vertex -94.60694407005364 136.22864579451468 3.694371069082744
  endloop
endfacet
facet normal 5.3060239116850186e-12 1.0 2.1559632252349204e-12
  outer loop
    vertex -94.10399632883336 136.22864579451206 3.6775095538455997
    vertex -94.60694407005364 136.22864579451468 3.694371069082744
    vertex -94.27114290870028 136.2286457945129 3.6943710690827416
  endloop
endfacet
facet normal 5.3060239116850186e-12 1.0 2.1559632252349204e-12
  outer loop
    vertex -94.27114290870028 136.2286457945129 3.6943710690827416
    vertex -94.60694407005364 136.22864579451468 3.694371069082744
    vertex -94.43904348937691 136.22864579451377 3.700000000216894
  endloop
endfacet
facet normal 5.3060239116850186e-12 1.0 2.1559632252349204e-12
  outer loop
    vertex -97.50131922330608 136.2286457945359 1.000000000216849
    vertex -87.00131922330611 136.22864579448225 2.1684837259172696e-10
    vertex -96.00131922330611 136.22864579453 2.1684837259172696e-10
  endloop
endfacet
facet normal 5.3060239116850186e-12 1.0 2.1559632252349204e-12
  outer loop
    vertex -87.00131922330611 136.22864579448225 2.1684837259172696e-10
    vertex -97.50131922330608 136.2286457945359 1.000000000216849
    vertex -85.6263192233061 136.22864579447275 1.000000000216849
  endloop
endfacet
facet normal 5.3060239116850186e-12 1.0 2.1559632252349204e-12
  outer loop
    vertex -85.6263192233061 136.22864579447275 1.000000000216849
    vertex -97.50131922330608 136.2286457945359 1.000000000216849
    vertex -96.00131922330608 136.2286457945279 1.000000000216849
  endloop
endfacet
facet normal 5.3060239116850186e-12 1.0 2.1559632252349204e-12
  outer loop
    vertex -85.6263192233061 136.22864579447275 1.000000000216849
    vertex -96.00131922330608 136.2286457945279 1.000000000216849
    vertex -94.0013192233061 136.22864579451726 1.000000000216849
  endloop
endfacet
facet normal 5.3060239116850186e-12 1.0 2.1559632252349204e-12
  outer loop
    vertex -85.6263192233061 136.22864579447275 1.000000000216849
    vertex -94.0013192233061 136.22864579451726 1.000000000216849
    vertex -89.0013192233061 136.22864579449075 1.0000000002168508
  endloop
endfacet
facet normal 5.3060239116850186e-12 1.0 2.1559632252349204e-12
  outer loop
    vertex -85.6263192233061 136.22864579447275 1.000000000216849
    vertex -89.0013192233061 136.22864579449075 1.0000000002168508
    vertex -87.00131922330611 136.22864579448012 1.0000000002168508
  endloop
endfacet
facet normal 5.3060239116850186e-12 1.0 2.1559632252349204e-12
  outer loop
    vertex -87.00131922330611 136.22864579448012 1.0000000002168508
    vertex -89.0013192233061 136.22864579449075 1.0000000002168508
    vertex -89.54479748417569 136.22864579448824 3.5000000002168954
  endloop
endfacet
facet normal 5.3060239116850186e-12 1.0 2.1559632252349204e-12
  outer loop
    vertex -87.00131922330611 136.22864579448012 1.0000000002168508
    vertex -89.54479748417569 136.22864579448824 3.5000000002168954
    vertex -88.58239243029462 136.2286457944844 2.9000000002168953
  endloop
endfacet
facet normal 5.3060239116850186e-12 1.0 2.1559632252349204e-12
  outer loop
    vertex -88.58239243029462 136.2286457944844 2.9000000002168953
    vertex -89.54479748417569 136.22864579448824 3.5000000002168954
    vertex -88.51531165000827 136.22864579448392 2.9674539196007395
  endloop
endfacet
facet normal 5.3060239116850186e-12 1.0 2.1559632252349204e-12
  outer loop
    vertex -88.51531165000827 136.22864579448392 2.9674539196007395
    vertex -89.54479748417569 136.22864579448824 3.5000000002168954
    vertex -88.44436983952139 136.2286457944834 3.030834688363147
  endloop
endfacet
facet normal 5.3060239116850186e-12 1.0 2.1559632252349204e-12
  outer loop
    vertex -88.44436983952139 136.2286457944834 3.030834688363147
    vertex -89.54479748417569 136.22864579448824 3.5000000002168954
    vertex -88.36981391230998 136.22864579448287 3.0899217092875846
  endloop
endfacet
facet normal 5.3060239116850186e-12 1.0 2.1559632252349204e-12
  outer loop
    vertex -88.36981391230998 136.22864579448287 3.0899217092875846
    vertex -89.54479748417569 136.22864579448824 3.5000000002168954
    vertex -88.2919033608091 136.22864579448233 3.144509329577416
  endloop
endfacet
facet normal 5.3060239116850186e-12 1.0 2.1559632252349204e-12
  outer loop
    vertex -88.2919033608091 136.22864579448233 3.144509329577416
    vertex -89.54479748417569 136.22864579448824 3.5000000002168954
    vertex -88.21090935324754 136.22864579448182 3.1944075566319197
  endloop
endfacet
facet normal 5.3060239116850186e-12 1.0 2.1559632252349204e-12
  outer loop
    vertex -88.21090935324754 136.22864579448182 3.1944075566319197
    vertex -89.54479748417569 136.22864579448824 3.5000000002168954
    vertex -88.12711378984459 136.22864579448122 3.2394427193168824
  endloop
endfacet
facet normal 5.3060239116850186e-12 1.0 2.1559632252349204e-12
  outer loop
    vertex -88.12711378984459 136.22864579448122 3.2394427193168824
    vertex -89.54479748417569 136.22864579448824 3.5000000002168954
    vertex -88.04080832165494 136.22864579448068 3.279458072428233
  endloop
endfacet
facet normal 5.3060239116850186e-12 1.0 2.1559632252349204e-12
  outer loop
    vertex -88.04080832165494 136.22864579448068 3.279458072428233
    vertex -89.54479748417569 136.22864579448824 3.5000000002168954
    vertex -87.95229333547431 136.22864579448017 3.314314342244817
  endloop
endfacet
facet normal 5.3060239116850186e-12 1.0 2.1559632252349204e-12
  outer loop
    vertex -87.95229333547431 136.22864579448017 3.314314342244817
    vertex -89.54479748417569 136.22864579448824 3.5000000002168954
    vertex -87.86187690834197 136.22864579447958 3.34389021127159
  endloop
endfacet
facet normal 5.3060239116850186e-12 1.0 2.1559632252349204e-12
  outer loop
    vertex -87.86187690834197 136.22864579447958 3.34389021127159
    vertex -89.54479748417569 136.22864579448824 3.5000000002168954
    vertex -87.76987373527557 136.2286457944791 3.368082740486026
  endloop
endfacet
facet normal 5.3060239116850186e-12 1.0 2.1559632252349204e-12
  outer loop
    vertex -87.76987373527557 136.2286457944791 3.368082740486026
    vertex -89.54479748417569 136.22864579448824 3.5000000002168954
    vertex -87.67660403397352 136.22864579447852 3.3868077276180957
  endloop
endfacet
facet normal 5.3060239116850186e-12 1.0 2.1559632252349204e-12
  outer loop
    vertex -87.67660403397352 136.22864579447852 3.3868077276180957
    vertex -89.54479748417569 136.22864579448824 3.5000000002168954
    vertex -87.58239243029466 136.22864579447804 3.4000000002168935
  endloop
endfacet
facet normal 5.3060239116850186e-12 1.0 2.1559632252349204e-12
  outer loop
    vertex -87.58239243029466 136.22864579447804 3.4000000002168935
    vertex -89.54479748417569 136.22864579448824 3.5000000002168954
    vertex -87.58239243029466 136.2286457944778 3.5000000002168936
  endloop
endfacet
facet normal 5.3060239116850186e-12 1.0 2.1559632252349204e-12
  outer loop
    vertex -87.58239243029466 136.2286457944778 3.5000000002168936
    vertex -89.54479748417569 136.22864579448824 3.5000000002168954
    vertex -87.73910108489463 136.22864579447852 3.56053666209009
  endloop
endfacet
facet normal 5.3060239116850186e-12 1.0 2.1559632252349204e-12
  outer loop
    vertex -87.73910108489463 136.22864579447852 3.56053666209009
    vertex -89.54479748417569 136.22864579448824 3.5000000002168954
    vertex -89.38808882957575 136.2286457944873 3.5605366620900907
  endloop
endfacet
facet normal 5.3060239116850186e-12 1.0 2.1559632252349204e-12
  outer loop
    vertex -87.73910108489463 136.22864579447852 3.56053666209009
    vertex -89.38808882957575 136.2286457944873 3.5605366620900907
    vertex -87.89951234162334 136.22864579447932 3.6104417577415178
  endloop
endfacet
facet normal 5.3060239116850186e-12 1.0 2.1559632252349204e-12
  outer loop
    vertex -87.89951234162334 136.22864579447932 3.6104417577415178
    vertex -89.38808882957575 136.2286457944873 3.5605366620900907
    vertex -89.22767757284694 136.22864579448628 3.6104417577415155
  endloop
endfacet
facet normal 5.3060239116850186e-12 1.0 2.1559632252349204e-12
  outer loop
    vertex -87.89951234162334 136.22864579447932 3.6104417577415178
    vertex -89.22767757284694 136.22864579448628 3.6104417577415155
    vertex -89.06428408206077 136.22864579448535 3.649491175483272
  endloop
endfacet
facet normal 5.3060239116850186e-12 1.0 2.1559632252349204e-12
  outer loop
    vertex -87.89951234162334 136.22864579447932 3.6104417577415178
    vertex -89.06428408206077 136.22864579448535 3.649491175483272
    vertex -88.06290583240958 136.22864579448003 3.6494911754832735
  endloop
endfacet
facet normal 5.3060239116850186e-12 1.0 2.1559632252349204e-12
  outer loop
    vertex -88.06290583240958 136.22864579448003 3.6494911754832735
    vertex -89.06428408206077 136.22864579448535 3.649491175483272
    vertex -88.8986421177787 136.22864579448446 3.6775095538456015
  endloop
endfacet
facet normal 5.3060239116850186e-12 1.0 2.1559632252349204e-12
  outer loop
    vertex -88.06290583240958 136.22864579448003 3.6494911754832735
    vertex -88.8986421177787 136.22864579448446 3.6775095538456015
    vertex -88.22854779669167 136.22864579448085 3.6775095538455993
  endloop
endfacet
facet normal 5.3060239116850186e-12 1.0 2.1559632252349204e-12
  outer loop
    vertex -88.22854779669167 136.22864579448085 3.6775095538455993
    vertex -88.8986421177787 136.22864579448446 3.6775095538456015
    vertex -88.39569437655847 136.22864579448174 3.694371069082745
  endloop
endfacet
facet normal 5.3060239116850186e-12 1.0 2.1559632252349204e-12
  outer loop
    vertex -88.39569437655847 136.22864579448174 3.694371069082745
    vertex -88.8986421177787 136.22864579448446 3.6775095538456015
    vertex -88.73149553791183 136.22864579448355 3.694371069082743
  endloop
endfacet
facet normal 5.3060239116850186e-12 1.0 2.1559632252349204e-12
  outer loop
    vertex -88.39569437655847 136.22864579448174 3.694371069082745
    vertex -88.73149553791183 136.22864579448355 3.694371069082743
    vertex -88.56359495723518 136.2286457944826 3.700000000216895
  endloop
endfacet
facet normal -5.3058090362971496e-12 -1.0 -2.13376906863331e-12
  outer loop
    vertex -85.62631922384512 34.62864579447271 0.9999999999999996
    vertex -91.50131922384516 34.628645794506085 0.0
    vertex -87.00131922384519 34.62864579448221 -7.049916206369744e-16
  endloop
endfacet
facet normal -5.3058090362971496e-12 -1.0 -2.13376906863331e-12
  outer loop
    vertex -87.00131922384512 34.62864579448008 1.0000000000000009
    vertex -94.00131922384513 34.62864579451721 0.9999999999999996
    vertex -85.62631922384512 34.62864579447271 0.9999999999999996
  endloop
endfacet
facet normal -5.3058090362971496e-12 -1.0 -2.13376906863331e-12
  outer loop
    vertex -94.00131922384513 34.62864579451721 0.9999999999999996
    vertex -87.00131922384512 34.62864579448008 1.0000000000000009
    vertex -89.00131922384512 34.628645794490716 1.0000000000000009
  endloop
endfacet
facet normal -5.3058090362971496e-12 -1.0 -2.13376906863331e-12
  outer loop
    vertex -89.00131922384512 34.628645794490716 1.0000000000000009
    vertex -87.00131922384512 34.62864579448008 1.0000000000000009
    vertex -88.58239243083366 34.62864579448445 2.8999999999999964
  endloop
endfacet
facet normal -5.3058090362971496e-12 -1.0 -2.13376906863331e-12
  outer loop
    vertex -89.00131922384512 34.628645794490716 1.0000000000000009
    vertex -88.58239243083366 34.62864579448445 2.8999999999999964
    vertex -89.54479748471475 34.628645794488236 3.499999999999997
  endloop
endfacet
facet normal -5.3058090362971496e-12 -1.0 -2.13376906863331e-12
  outer loop
    vertex -89.54479748471475 34.628645794488236 3.499999999999997
    vertex -88.58239243083366 34.62864579448445 2.8999999999999964
    vertex -88.51531165054735 34.62864579448392 2.9674539193838405
  endloop
endfacet
facet normal -5.3058090362971496e-12 -1.0 -2.13376906863331e-12
  outer loop
    vertex -89.54479748471475 34.628645794488236 3.499999999999997
    vertex -88.51531165054735 34.62864579448392 2.9674539193838405
    vertex -88.44436984006046 34.62864579448343 3.0308346881462485
  endloop
endfacet
facet normal -5.3058090362971496e-12 -1.0 -2.13376906863331e-12
  outer loop
    vertex -89.54479748471475 34.628645794488236 3.499999999999997
    vertex -88.44436984006046 34.62864579448343 3.0308346881462485
    vertex -88.36981391284903 34.628645794482914 3.0899217090706856
  endloop
endfacet
facet normal -5.3058090362971496e-12 -1.0 -2.13376906863331e-12
  outer loop
    vertex -89.54479748471475 34.628645794488236 3.499999999999997
    vertex -88.36981391284903 34.628645794482914 3.0899217090706856
    vertex -88.29190336134818 34.62864579448236 3.144509329360517
  endloop
endfacet
facet normal -5.3058090362971496e-12 -1.0 -2.13376906863331e-12
  outer loop
    vertex -89.54479748471475 34.628645794488236 3.499999999999997
    vertex -88.29190336134818 34.62864579448236 3.144509329360517
    vertex -88.21090935378659 34.62864579448182 3.194407556415021
  endloop
endfacet
facet normal -5.3058090362971496e-12 -1.0 -2.13376906863331e-12
  outer loop
    vertex -89.54479748471475 34.628645794488236 3.499999999999997
    vertex -88.21090935378659 34.62864579448182 3.194407556415021
    vertex -88.12711379038366 34.62864579448126 3.239442719099984
  endloop
endfacet
facet normal -5.3058090362971496e-12 -1.0 -2.13376906863331e-12
  outer loop
    vertex -89.54479748471475 34.628645794488236 3.499999999999997
    vertex -88.12711379038366 34.62864579448126 3.239442719099984
    vertex -88.04080832219398 34.62864579448071 3.2794580722113347
  endloop
endfacet
facet normal -5.3058090362971496e-12 -1.0 -2.13376906863331e-12
  outer loop
    vertex -89.54479748471475 34.628645794488236 3.499999999999997
    vertex -88.04080832219398 34.62864579448071 3.2794580722113347
    vertex -87.9522933360134 34.62864579448019 3.3143143420279184
  endloop
endfacet
facet normal -5.3058090362971496e-12 -1.0 -2.13376906863331e-12
  outer loop
    vertex -89.54479748471475 34.628645794488236 3.499999999999997
    vertex -87.9522933360134 34.62864579448019 3.3143143420279184
    vertex -87.86187690888103 34.6286457944796 3.343890211054692
  endloop
endfacet
facet normal -5.3058090362971496e-12 -1.0 -2.13376906863331e-12
  outer loop
    vertex -89.54479748471475 34.628645794488236 3.499999999999997
    vertex -87.86187690888103 34.6286457944796 3.343890211054692
    vertex -87.76987373581464 34.628645794479105 3.3680827402691276
  endloop
endfacet
facet normal -5.3058090362971496e-12 -1.0 -2.13376906863331e-12
  outer loop
    vertex -89.54479748471475 34.628645794488236 3.499999999999997
    vertex -87.76987373581464 34.628645794479105 3.3680827402691276
    vertex -87.67660403451256 34.628645794478544 3.386807727401197
  endloop
endfacet
facet normal -5.3058090362971496e-12 -1.0 -2.13376906863331e-12
  outer loop
    vertex -89.54479748471475 34.628645794488236 3.499999999999997
    vertex -87.67660403451256 34.628645794478544 3.386807727401197
    vertex -87.58239243083374 34.62864579447807 3.399999999999995
  endloop
endfacet
facet normal -5.3058090362971496e-12 -1.0 -2.13376906863331e-12
  outer loop
    vertex -89.54479748471475 34.628645794488236 3.499999999999997
    vertex -87.58239243083374 34.62864579447807 3.399999999999995
    vertex -87.58239243083374 34.628645794477855 3.499999999999995
  endloop
endfacet
facet normal -5.3058090362971496e-12 -1.0 -2.13376906863331e-12
  outer loop
    vertex -89.54479748471475 34.628645794488236 3.499999999999997
    vertex -87.58239243083374 34.628645794477855 3.499999999999995
    vertex -87.7391010854337 34.62864579447854 3.5605366618731913
  endloop
endfacet
facet normal -5.3058090362971496e-12 -1.0 -2.13376906863331e-12
  outer loop
    vertex -89.54479748471475 34.628645794488236 3.499999999999997
    vertex -87.7391010854337 34.62864579447854 3.5605366618731913
    vertex -89.38808883011482 34.628645794487326 3.560536661873192
  endloop
endfacet
facet normal -5.3058090362971496e-12 -1.0 -2.13376906863331e-12
  outer loop
    vertex -89.38808883011482 34.628645794487326 3.560536661873192
    vertex -87.7391010854337 34.62864579447854 3.5605366618731913
    vertex -87.8995123421624 34.628645794479304 3.6104417575246193
  endloop
endfacet
facet normal -5.3058090362971496e-12 -1.0 -2.13376906863331e-12
  outer loop
    vertex -89.38808883011482 34.628645794487326 3.560536661873192
    vertex -87.8995123421624 34.628645794479304 3.6104417575246193
    vertex -89.227677573386 34.62864579448632 3.6104417575246175
  endloop
endfacet
facet normal -5.3058090362971496e-12 -1.0 -2.13376906863331e-12
  outer loop
    vertex -89.227677573386 34.62864579448632 3.6104417575246175
    vertex -87.8995123421624 34.628645794479304 3.6104417575246193
    vertex -89.06428408259983 34.628645794485365 3.6494911752663737
  endloop
endfacet
facet normal -5.3058090362971496e-12 -1.0 -2.13376906863331e-12
  outer loop
    vertex -89.06428408259983 34.628645794485365 3.6494911752663737
    vertex -87.8995123421624 34.628645794479304 3.6104417575246193
    vertex -88.06290583294863 34.628645794480065 3.649491175266375
  endloop
endfacet
facet normal -5.3058090362971496e-12 -1.0 -2.13376906863331e-12
  outer loop
    vertex -89.06428408259983 34.628645794485365 3.6494911752663737
    vertex -88.06290583294863 34.628645794480065 3.649491175266375
    vertex -88.89864211831778 34.62864579448447 3.677509553628703
  endloop
endfacet
facet normal -5.3058090362971496e-12 -1.0 -2.13376906863331e-12
  outer loop
    vertex -88.89864211831778 34.62864579448447 3.677509553628703
    vertex -88.06290583294863 34.628645794480065 3.649491175266375
    vertex -88.22854779723075 34.62864579448089 3.677509553628701
  endloop
endfacet
facet normal -5.3058090362971496e-12 -1.0 -2.13376906863331e-12
  outer loop
    vertex -88.89864211831778 34.62864579448447 3.677509553628703
    vertex -88.22854779723075 34.62864579448089 3.677509553628701
    vertex -88.39569437709751 34.62864579448176 3.6943710688658467
  endloop
endfacet
facet normal -5.3058090362971496e-12 -1.0 -2.13376906863331e-12
  outer loop
    vertex -88.89864211831778 34.62864579448447 3.677509553628703
    vertex -88.39569437709751 34.62864579448176 3.6943710688658467
    vertex -88.73149553845087 34.628645794483546 3.6943710688658444
  endloop
endfacet
facet normal -5.3058090362971496e-12 -1.0 -2.13376906863331e-12
  outer loop
    vertex -88.73149553845087 34.628645794483546 3.6943710688658444
    vertex -88.39569437709751 34.62864579448176 3.6943710688658467
    vertex -88.56359495777427 34.62864579448262 3.6999999999999966
  endloop
endfacet
facet normal -5.3058090362971496e-12 -1.0 -2.13376906863331e-12
  outer loop
    vertex -93.4578409629755 34.62864579450896 3.4999999999999956
    vertex -96.00131922384512 34.62864579452785 0.9999999999999996
    vertex -94.00131922384513 34.62864579451721 0.9999999999999996
  endloop
endfacet
facet normal -5.3058090362971496e-12 -1.0 -2.13376906863331e-12
  outer loop
    vertex -96.00131922384512 34.62864579452785 0.9999999999999996
    vertex -93.4578409629755 34.62864579450896 3.4999999999999956
    vertex -94.4202460168565 34.62864579451538 2.899999999999995
  endloop
endfacet
facet normal -5.3058090362971496e-12 -1.0 -2.13376906863331e-12
  outer loop
    vertex -94.4202460168565 34.62864579451538 2.899999999999995
    vertex -93.4578409629755 34.62864579450896 3.4999999999999956
    vertex -94.48732679714291 34.62864579451559 2.9674539193838405
  endloop
endfacet
facet normal -5.3058090362971496e-12 -1.0 -2.13376906863331e-12
  outer loop
    vertex -94.48732679714291 34.62864579451559 2.9674539193838405
    vertex -93.4578409629755 34.62864579450896 3.4999999999999956
    vertex -94.5582686076298 34.628645794515855 3.0308346881462485
  endloop
endfacet
facet normal -5.3058090362971496e-12 -1.0 -2.13376906863331e-12
  outer loop
    vertex -94.5582686076298 34.628645794515855 3.0308346881462485
    vertex -93.4578409629755 34.62864579450896 3.4999999999999956
    vertex -94.6328245348412 34.6286457945161 3.0899217090706843
  endloop
endfacet
facet normal -5.3058090362971496e-12 -1.0 -2.13376906863331e-12
  outer loop
    vertex -94.6328245348412 34.6286457945161 3.0899217090706843
    vertex -93.4578409629755 34.62864579450896 3.4999999999999956
    vertex -94.71073508634198 34.6286457945164 3.144509329360516
  endloop
endfacet
facet normal -5.3058090362971496e-12 -1.0 -2.13376906863331e-12
  outer loop
    vertex -94.71073508634198 34.6286457945164 3.144509329360516
    vertex -93.4578409629755 34.62864579450896 3.4999999999999956
    vertex -94.79172909390364 34.62864579451674 3.19440755641502
  endloop
endfacet
facet normal -5.3058090362971496e-12 -1.0 -2.13376906863331e-12
  outer loop
    vertex -94.79172909390364 34.62864579451674 3.19440755641502
    vertex -93.4578409629755 34.62864579450896 3.4999999999999956
    vertex -94.8755246573065 34.62864579451705 3.2394427190999826
  endloop
endfacet
facet normal -5.3058090362971496e-12 -1.0 -2.13376906863331e-12
  outer loop
    vertex -94.8755246573065 34.62864579451705 3.2394427190999826
    vertex -93.4578409629755 34.62864579450896 3.4999999999999956
    vertex -94.96183012549625 34.62864579451743 3.2794580722113333
  endloop
endfacet
facet normal -5.3058090362971496e-12 -1.0 -2.13376906863331e-12
  outer loop
    vertex -94.96183012549625 34.62864579451743 3.2794580722113333
    vertex -93.4578409629755 34.62864579450896 3.4999999999999956
    vertex -95.05034511167678 34.628645794517844 3.314314342027918
  endloop
endfacet
facet normal -5.3058090362971496e-12 -1.0 -2.13376906863331e-12
  outer loop
    vertex -95.05034511167678 34.628645794517844 3.314314342027918
    vertex -93.4578409629755 34.62864579450896 3.4999999999999956
    vertex -95.14076153880922 34.62864579451824 3.34389021105469
  endloop
endfacet
facet normal -5.3058090362971496e-12 -1.0 -2.13376906863331e-12
  outer loop
    vertex -95.14076153880922 34.62864579451824 3.34389021105469
    vertex -93.4578409629755 34.62864579450896 3.4999999999999956
    vertex -95.23276471187553 34.6286457945187 3.3680827402691262
  endloop
endfacet
facet normal -5.3058090362971496e-12 -1.0 -2.13376906863331e-12
  outer loop
    vertex -95.23276471187553 34.6286457945187 3.3680827402691262
    vertex -93.4578409629755 34.62864579450896 3.4999999999999956
    vertex -95.32603441317767 34.62864579451913 3.386807727401196
  endloop
endfacet
facet normal -5.3058090362971496e-12 -1.0 -2.13376906863331e-12
  outer loop
    vertex -95.32603441317767 34.62864579451913 3.386807727401196
    vertex -93.4578409629755 34.62864579450896 3.4999999999999956
    vertex -95.4202460168565 34.62864579451965 3.3999999999999937
  endloop
endfacet
facet normal -5.3058090362971496e-12 -1.0 -2.13376906863331e-12
  outer loop
    vertex -95.4202460168565 34.62864579451965 3.3999999999999937
    vertex -93.4578409629755 34.62864579450896 3.4999999999999956
    vertex -95.42024601685654 34.628645794519436 3.499999999999994
  endloop
endfacet
facet normal -5.3058090362971496e-12 -1.0 -2.13376906863331e-12
  outer loop
    vertex -95.42024601685654 34.628645794519436 3.499999999999994
    vertex -93.4578409629755 34.62864579450896 3.4999999999999956
    vertex -95.26353736225653 34.62864579451848 3.56053666187319
  endloop
endfacet
facet normal -5.3058090362971496e-12 -1.0 -2.13376906863331e-12
  outer loop
    vertex -95.26353736225653 34.62864579451848 3.56053666187319
    vertex -93.4578409629755 34.62864579450896 3.4999999999999956
    vertex -93.61454961757542 34.628645794509715 3.560536661873189
  endloop
endfacet
facet normal -5.3058090362971496e-12 -1.0 -2.13376906863331e-12
  outer loop
    vertex -95.26353736225653 34.62864579451848 3.56053666187319
    vertex -93.61454961757542 34.628645794509715 3.560536661873189
    vertex -93.77496087430421 34.62864579451043 3.6104417575246157
  endloop
endfacet
facet normal -5.3058090362971496e-12 -1.0 -2.13376906863331e-12
  outer loop
    vertex -95.26353736225653 34.62864579451848 3.56053666187319
    vertex -93.77496087430421 34.62864579451043 3.6104417575246157
    vertex -95.10312610552782 34.62864579451752 3.610441757524618
  endloop
endfacet
facet normal -5.3058090362971496e-12 -1.0 -2.13376906863331e-12
  outer loop
    vertex -95.10312610552782 34.62864579451752 3.610441757524618
    vertex -93.77496087430421 34.62864579451043 3.6104417575246157
    vertex -93.93835436509042 34.6286457945112 3.6494911752663715
  endloop
endfacet
facet normal -5.3058090362971496e-12 -1.0 -2.13376906863331e-12
  outer loop
    vertex -95.10312610552782 34.62864579451752 3.610441757524618
    vertex -93.93835436509042 34.6286457945112 3.6494911752663715
    vertex -94.9397326147416 34.62864579451652 3.6494911752663737
  endloop
endfacet
facet normal -5.3058090362971496e-12 -1.0 -2.13376906863331e-12
  outer loop
    vertex -94.9397326147416 34.62864579451652 3.6494911752663737
    vertex -93.93835436509042 34.6286457945112 3.6494911752663715
    vertex -94.10399632937246 34.62864579451207 3.6775095536287017
  endloop
endfacet
facet normal -5.3058090362971496e-12 -1.0 -2.13376906863331e-12
  outer loop
    vertex -94.9397326147416 34.62864579451652 3.6494911752663737
    vertex -94.10399632937246 34.62864579451207 3.6775095536287017
    vertex -94.77409065045948 34.628645794515585 3.6775095536286995
  endloop
endfacet
facet normal -5.3058090362971496e-12 -1.0 -2.13376906863331e-12
  outer loop
    vertex -94.77409065045948 34.628645794515585 3.6775095536286995
    vertex -94.10399632937246 34.62864579451207 3.6775095536287017
    vertex -94.60694407059272 34.6286457945147 3.6943710688658453
  endloop
endfacet
facet normal -5.3058090362971496e-12 -1.0 -2.13376906863331e-12
  outer loop
    vertex -94.60694407059272 34.6286457945147 3.6943710688658453
    vertex -94.10399632937246 34.62864579451207 3.6775095536287017
    vertex -94.27114290923936 34.62864579451292 3.694371068865843
  endloop
endfacet
facet normal -5.3058090362971496e-12 -1.0 -2.13376906863331e-12
  outer loop
    vertex -94.60694407059272 34.6286457945147 3.6943710688658453
    vertex -94.27114290923936 34.62864579451292 3.694371068865843
    vertex -94.43904348991602 34.62864579451377 3.6999999999999953
  endloop
endfacet
facet normal -5.3058090362971496e-12 -1.0 -2.13376906863331e-12
  outer loop
    vertex -91.50131922384516 34.628645794506085 0.0
    vertex -97.50131922384512 34.628645794535885 0.9999999999999996
    vertex -96.00131922384521 34.62864579452997 -7.049916206369744e-16
  endloop
endfacet
facet normal -5.3058090362971496e-12 -1.0 -2.13376906863331e-12
  outer loop
    vertex -97.50131922384512 34.628645794535885 0.9999999999999996
    vertex -91.50131922384516 34.628645794506085 0.0
    vertex -85.62631922384512 34.62864579447271 0.9999999999999996
  endloop
endfacet
facet normal -5.3058090362971496e-12 -1.0 -2.13376906863331e-12
  outer loop
    vertex -97.50131922384512 34.628645794535885 0.9999999999999996
    vertex -85.62631922384512 34.62864579447271 0.9999999999999996
    vertex -94.00131922384513 34.62864579451721 0.9999999999999996
  endloop
endfacet
facet normal -5.3058090362971496e-12 -1.0 -2.13376906863331e-12
  outer loop
    vertex -97.50131922384512 34.628645794535885 0.9999999999999996
    vertex -94.00131922384513 34.62864579451721 0.9999999999999996
    vertex -96.00131922384512 34.62864579452785 0.9999999999999996
  endloop
endfacet
facet normal -0.9771763639227984 5.637763450559625e-12 -0.21242964433105538
  outer loop
    vertex -89.54479748417569 136.22864579448824 3.5000000002168954
    vertex -89.00131922384512 34.628645794490716 1.0000000000000009
    vertex -89.54479748471475 34.628645794488236 3.499999999999997
  endloop
endfacet
facet normal -0.9771763639227984 5.637763450559625e-12 -0.21242964433105538
  outer loop
    vertex -89.00131922384512 34.628645794490716 1.0000000000000009
    vertex -89.54479748417569 136.22864579448824 3.5000000002168954
    vertex -89.0013192233061 136.22864579449075 1.0000000002168508
  endloop
endfacet
facet normal 0.9771763639227935 -4.7310544948118625e-12 -0.2124296443310778
  outer loop
    vertex -94.00131922384513 34.62864579451721 0.9999999999999996
    vertex -93.45784096243642 136.22864579450894 3.500000000216894
    vertex -93.4578409629755 34.62864579450896 3.4999999999999956
  endloop
endfacet
facet normal 0.9771763639227935 -4.7310544948118625e-12 -0.2124296443310778
  outer loop
    vertex -93.45784096243642 136.22864579450894 3.500000000216894
    vertex -94.00131922384513 34.62864579451721 0.9999999999999996
    vertex -94.0013192233061 136.22864579451726 1.000000000216849
  endloop
endfacet
facet normal 0.10036920294677176 -2.6564798419985696e-12 0.994950261621067
  outer loop
    vertex -94.10399632937246 34.62864579451207 3.6775095536287017
    vertex -94.27114290870028 136.2286457945129 3.6943710690827416
    vertex -94.27114290923936 34.62864579451292 3.694371068865843
  endloop
endfacet
facet normal 0.10036920294677176 -2.6564798419985696e-12 0.994950261621067
  outer loop
    vertex -94.27114290870028 136.2286457945129 3.6943710690827416
    vertex -94.10399632937246 34.62864579451207 3.6775095536287017
    vertex -94.10399632883336 136.22864579451206 3.6775095538455997
  endloop
endfacet
facet normal -0.10036920294689508 -1.5913937246813126e-12 0.9949502616210547
  outer loop
    vertex -94.60694407059272 34.6286457945147 3.6943710688658453
    vertex -94.77409064992038 136.2286457945156 3.677509553845598
    vertex -94.77409065045948 34.628645794515585 3.6775095536286995
  endloop
endfacet
facet normal -0.10036920294689508 -1.5913937246813126e-12 0.9949502616210547
  outer loop
    vertex -94.77409064992038 136.2286457945156 3.677509553845598
    vertex -94.60694407059272 34.6286457945147 3.6943710688658453
    vertex -94.60694407005364 136.22864579451468 3.694371069082744
  endloop
endfacet
facet normal 0.3603481902913983 -3.903252014999348e-12 0.9328178716950669
  outer loop
    vertex -93.4578409629755 34.62864579450896 3.4999999999999956
    vertex -93.61454961703632 136.22864579450967 3.5605366620900876
    vertex -93.61454961757542 34.628645794509715 3.560536661873189
  endloop
endfacet
facet normal 0.3603481902913983 -3.903252014999348e-12 0.9328178716950669
  outer loop
    vertex -93.61454961703632 136.22864579450967 3.5605366620900876
    vertex -93.4578409629755 34.62864579450896 3.4999999999999956
    vertex -93.45784096243642 136.22864579450894 3.500000000216894
  endloop
endfacet
facet normal 0.16678111454037178 -2.9897317236149525e-12 0.9859939451298226
  outer loop
    vertex -93.93835436509042 34.6286457945112 3.6494911752663715
    vertex -94.10399632883336 136.22864579451206 3.6775095538455997
    vertex -94.10399632937246 34.62864579451207 3.6775095536287017
  endloop
endfacet
facet normal 0.16678111454037178 -2.9897317236149525e-12 0.9859939451298226
  outer loop
    vertex -94.10399632883336 136.22864579451206 3.6775095538455997
    vertex -93.93835436509042 34.6286457945112 3.6494911752663715
    vertex -93.93835436455133 136.22864579451118 3.64949117548327
  endloop
endfacet
facet normal 0.03350655759175135 -2.3112983767860388e-12 0.9994384976567346
  outer loop
    vertex -94.27114290923936 34.62864579451292 3.694371068865843
    vertex -94.43904348937691 136.22864579451377 3.700000000216894
    vertex -94.43904348991602 34.62864579451377 3.6999999999999953
  endloop
endfacet
facet normal 0.03350655759175135 -2.3112983767860388e-12 0.9994384976567346
  outer loop
    vertex -94.43904348937691 136.22864579451377 3.700000000216894
    vertex -94.27114290923936 34.62864579451292 3.694371068865843
    vertex -94.27114290870028 136.2286457945129 3.6943710690827416
  endloop
endfacet
facet normal -1.0 5.305926638226836e-12 -4.5119463719582803e-13
  outer loop
    vertex -95.42024601631745 136.22864579451942 3.500000000216892
    vertex -95.4202460168565 34.62864579451965 3.3999999999999937
    vertex -95.42024601685654 34.628645794519436 3.499999999999994
  endloop
endfacet
facet normal -1.0 5.305926638226836e-12 -4.5119463719582803e-13
  outer loop
    vertex -95.4202460168565 34.62864579451965 3.3999999999999937
    vertex -95.42024601631745 136.22864579451942 3.500000000216892
    vertex -95.4202460163174 136.22864579451965 3.400000000216892
  endloop
endfacet
facet normal 0.2324440525750845 -3.309537552346746e-12 0.9726097688294476
  outer loop
    vertex -93.77496087430421 34.62864579451043 3.6104417575246157
    vertex -93.93835436455133 136.22864579451118 3.64949117548327
    vertex -93.93835436509042 34.6286457945112 3.6494911752663715
  endloop
endfacet
facet normal 0.2324440525750845 -3.309537552346746e-12 0.9726097688294476
  outer loop
    vertex -93.93835436455133 136.22864579451118 3.64949117548327
    vertex -93.77496087430421 34.62864579451043 3.6104417575246157
    vertex -93.77496087376514 136.22864579451038 3.610441757741514
  endloop
endfacet
facet normal -0.36034819029120224 -7.932070058496888e-14 0.9328178716951425
  outer loop
    vertex -95.26353736225653 34.62864579451848 3.56053666187319
    vertex -95.42024601631745 136.22864579451942 3.500000000216892
    vertex -95.42024601685654 34.628645794519436 3.499999999999994
  endloop
endfacet
facet normal -0.36034819029120224 -7.932070058496888e-14 0.9328178716951425
  outer loop
    vertex -95.42024601631745 136.22864579451942 3.500000000216892
    vertex -95.26353736225653 34.62864579451848 3.56053666187319
    vertex -95.26353736171744 136.22864579451848 3.5605366620900885
  endloop
endfacet
facet normal -0.310896997744965 3.67849779069032e-12 -0.9504436105278248
  outer loop
    vertex -95.14076153827013 136.22864579451823 3.3438902112715887
    vertex -95.05034511167678 34.628645794517844 3.314314342027918
    vertex -95.14076153880922 34.62864579451824 3.34389021105469
  endloop
endfacet
facet normal -0.310896997744965 3.67849779069032e-12 -0.9504436105278248
  outer loop
    vertex -95.05034511167678 34.628645794517844 3.314314342027918
    vertex -95.14076153827013 136.22864579451823 3.3438902112715887
    vertex -95.05034511113767 136.2286457945178 3.3143143422448165
  endloop
endfacet
facet normal -0.36640376074051373 3.930339907659432e-12 -0.9304559549571426
  outer loop
    vertex -95.05034511113767 136.2286457945178 3.3143143422448165
    vertex -94.96183012549625 34.62864579451743 3.2794580722113333
    vertex -95.05034511167678 34.628645794517844 3.314314342027918
  endloop
endfacet
facet normal -0.36640376074051373 3.930339907659432e-12 -0.9304559549571426
  outer loop
    vertex -94.96183012549625 34.62864579451743 3.2794580722113333
    vertex -95.05034511113767 136.2286457945178 3.3143143422448165
    vertex -94.96183012495717 136.2286457945174 3.279458072428232
  endloop
endfacet
facet normal -0.03350655759172378 -1.9557374236918943e-12 0.9994384976567355
  outer loop
    vertex -94.43904348991602 34.62864579451377 3.6999999999999953
    vertex -94.60694407005364 136.22864579451468 3.694371069082744
    vertex -94.60694407059272 34.6286457945147 3.6943710688658453
  endloop
endfacet
facet normal -0.03350655759172378 -1.9557374236918943e-12 0.9994384976567355
  outer loop
    vertex -94.60694407005364 136.22864579451468 3.694371069082744
    vertex -94.43904348991602 34.62864579451377 3.6999999999999953
    vertex -94.43904348937691 136.22864579451377 3.700000000216894
  endloop
endfacet
facet normal -0.1386751456294863 2.8498790607314845e-12 -0.9903379241373325
  outer loop
    vertex -95.4202460163174 136.22864579451965 3.400000000216892
    vertex -95.32603441317767 34.62864579451913 3.386807727401196
    vertex -95.4202460168565 34.62864579451965 3.3999999999999937
  endloop
endfacet
facet normal -0.1386751456294863 2.8498790607314845e-12 -0.9903379241373325
  outer loop
    vertex -95.32603441317767 34.62864579451913 3.386807727401196
    vertex -95.4202460163174 136.22864579451965 3.400000000216892
    vertex -95.32603441263859 136.22864579451914 3.3868077276180943
  endloop
endfacet
facet normal -0.254308155538149 3.413852688200544e-12 -0.9671232403508793
  outer loop
    vertex -95.23276471133643 136.22864579451866 3.3680827404860243
    vertex -95.14076153880922 34.62864579451824 3.34389021105469
    vertex -95.23276471187553 34.6286457945187 3.3680827402691262
  endloop
endfacet
facet normal -0.254308155538149 3.413852688200544e-12 -0.9671232403508793
  outer loop
    vertex -95.14076153880922 34.62864579451824 3.34389021105469
    vertex -95.23276471133643 136.22864579451866 3.3680827404860243
    vertex -95.14076153827013 136.22864579451823 3.3438902112715887
  endloop
endfacet
facet normal -0.1667811145402516 -1.2199034668651152e-12 0.985993945129843
  outer loop
    vertex -94.77409065045948 34.628645794515585 3.6775095536286995
    vertex -94.93973261420253 136.2286457945165 3.649491175483272
    vertex -94.9397326147416 34.62864579451652 3.6494911752663737
  endloop
endfacet
facet normal -0.1667811145402516 -1.2199034668651152e-12 0.985993945129843
  outer loop
    vertex -94.93973261420253 136.2286457945165 3.649491175483272
    vertex -94.77409065045948 34.628645794515585 3.6775095536286995
    vertex -94.77409064992038 136.2286457945156 3.677509553845598
  endloop
endfacet
facet normal -0.1968341919861281 3.1373256174371755e-12 -0.9804367908565897
  outer loop
    vertex -95.32603441263859 136.22864579451914 3.3868077276180943
    vertex -95.23276471187553 34.6286457945187 3.3680827402691262
    vertex -95.32603441317767 34.62864579451913 3.386807727401196
  endloop
endfacet
facet normal -0.1968341919861281 3.1373256174371755e-12 -0.9804367908565897
  outer loop
    vertex -95.23276471187553 34.6286457945187 3.3680827402691262
    vertex -95.32603441263859 136.22864579451914 3.3868077276180943
    vertex -95.23276471133643 136.22864579451866 3.3680827404860243
  endloop
endfacet
facet normal -0.4206352528396595 4.168466507060602e-12 -0.9072298408168217
  outer loop
    vertex -94.96183012495717 136.2286457945174 3.279458072428232
    vertex -94.8755246573065 34.62864579451705 3.2394427190999826
    vertex -94.96183012549625 34.62864579451743 3.2794580722113333
  endloop
endfacet
facet normal -0.4206352528396595 4.168466507060602e-12 -0.9072298408168217
  outer loop
    vertex -94.8755246573065 34.62864579451705 3.2394427190999826
    vertex -94.96183012495717 136.2286457945174 3.279458072428232
    vertex -94.87552465676742 136.22864579451704 3.239442719316881
  endloop
endfacet
facet normal -0.2324440525750542 -8.429547781301187e-13 0.9726097688294549
  outer loop
    vertex -94.9397326147416 34.62864579451652 3.6494911752663737
    vertex -95.10312610498875 136.2286457945175 3.6104417577415164
    vertex -95.10312610552782 34.62864579451752 3.610441757524618
  endloop
endfacet
facet normal -0.2324440525750542 -8.429547781301187e-13 0.9726097688294549
  outer loop
    vertex -95.10312610498875 136.2286457945175 3.6104417577415164
    vertex -94.9397326147416 34.62864579451652 3.6494911752663737
    vertex -94.93973261420253 136.2286457945165 3.649491175483272
  endloop
endfacet
facet normal -0.4734027209497508 4.392115989889967e-12 -0.8808461067617728
  outer loop
    vertex -94.87552465676742 136.22864579451704 3.239442719316881
    vertex -94.79172909390364 34.62864579451674 3.19440755641502
    vertex -94.8755246573065 34.62864579451705 3.2394427190999826
  endloop
endfacet
facet normal -0.4734027209497508 4.392115989889967e-12 -0.8808461067617728
  outer loop
    vertex -94.79172909390364 34.62864579451674 3.19440755641502
    vertex -94.87552465676742 136.22864579451704 3.239442719316881
    vertex -94.79172909336457 136.22864579451672 3.1944075566319183
  endloop
endfacet
facet normal -0.524522507521317 4.600524666420955e-12 -0.8513965815667515
  outer loop
    vertex -94.79172909336457 136.22864579451672 3.1944075566319183
    vertex -94.71073508634198 34.6286457945164 3.144509329360516
    vertex -94.79172909390364 34.62864579451674 3.19440755641502
  endloop
endfacet
facet normal -0.524522507521317 4.600524666420955e-12 -0.8513965815667515
  outer loop
    vertex -94.71073508634198 34.6286457945164 3.144509329360516
    vertex -94.79172909336457 136.22864579451672 3.1944075566319183
    vertex -94.7107350858029 136.22864579451635 3.144509329577415
  endloop
endfacet
facet normal -0.573816689775434 4.7928806246989475e-12 -0.8189837645125594
  outer loop
    vertex -94.7107350858029 136.22864579451635 3.144509329577415
    vertex -94.6328245348412 34.6286457945161 3.0899217090706843
    vertex -94.71073508634198 34.6286457945164 3.144509329360516
  endloop
endfacet
facet normal -0.573816689775434 4.7928806246989475e-12 -0.8189837645125594
  outer loop
    vertex -94.6328245348412 34.6286457945161 3.0899217090706843
    vertex -94.7107350858029 136.22864579451635 3.144509329577415
    vertex -94.63282453430213 136.22864579451607 3.0899217092875833
  endloop
endfacet
facet normal -0.6211136989576956 4.968553808796401e-12 -0.7837204686411408
  outer loop
    vertex -94.63282453430213 136.22864579451607 3.0899217092875833
    vertex -94.5582686076298 34.628645794515855 3.0308346881462485
    vertex -94.6328245348412 34.6286457945161 3.0899217090706843
  endloop
endfacet
facet normal -0.6211136989576956 4.968553808796401e-12 -0.7837204686411408
  outer loop
    vertex -94.5582686076298 34.628645794515855 3.0308346881462485
    vertex -94.63282453430213 136.22864579451607 3.0899217092875833
    vertex -94.5582686070907 136.22864579451584 3.030834688363147
  endloop
endfacet
facet normal 0.29706314071247486 -3.6145206907439526e-12 0.9548578378114936
  outer loop
    vertex -93.61454961757542 34.628645794509715 3.560536661873189
    vertex -93.77496087376514 136.22864579451038 3.610441757741514
    vertex -93.77496087430421 34.62864579451043 3.6104417575246157
  endloop
endfacet
facet normal 0.29706314071247486 -3.6145206907439526e-12 0.9548578378114936
  outer loop
    vertex -93.77496087376514 136.22864579451038 3.610441757741514
    vertex -93.61454961757542 34.628645794509715 3.560536661873189
    vertex -93.61454961703632 136.22864579450967 3.5605366620900876
  endloop
endfacet
facet normal -0.29706314071268564 -4.621809443079086e-13 0.954857837811428
  outer loop
    vertex -95.10312610552782 34.62864579451752 3.610441757524618
    vertex -95.26353736171744 136.22864579451848 3.5605366620900885
    vertex -95.26353736225653 34.62864579451848 3.56053666187319
  endloop
endfacet
facet normal -0.29706314071268564 -4.621809443079086e-13 0.954857837811428
  outer loop
    vertex -95.26353736171744 136.22864579451848 3.5605366620900885
    vertex -95.10312610552782 34.62864579451752 3.610441757524618
    vertex -95.10312610498875 136.2286457945175 3.6104417577415164
  endloop
endfacet
facet normal 0.6662489174934872 -1.943031111602034e-12 -0.7457294281029524
  outer loop
    vertex -88.51531165000827 136.22864579448392 2.9674539196007395
    vertex -88.44436984006046 34.62864579448343 3.0308346881462485
    vertex -88.51531165054735 34.62864579448392 2.9674539193838405
  endloop
endfacet
facet normal 0.6662489174934872 -1.943031111602034e-12 -0.7457294281029524
  outer loop
    vertex -88.44436984006046 34.62864579448343 3.0308346881462485
    vertex -88.51531165000827 136.22864579448392 2.9674539196007395
    vertex -88.44436983952139 136.2286457944834 3.030834688363147
  endloop
endfacet
facet normal 0.6211136989577409 -1.6224014423433606e-12 -0.7837204686411047
  outer loop
    vertex -88.44436983952139 136.2286457944834 3.030834688363147
    vertex -88.36981391284903 34.628645794482914 3.0899217090706856
    vertex -88.44436984006046 34.62864579448343 3.0308346881462485
  endloop
endfacet
facet normal 0.6211136989577409 -1.6224014423433606e-12 -0.7837204686411047
  outer loop
    vertex -88.36981391284903 34.628645794482914 3.0899217090706856
    vertex -88.44436983952139 136.2286457944834 3.030834688363147
    vertex -88.36981391230998 136.22864579448287 3.0899217092875846
  endloop
endfacet
facet normal -0.23244405257511888 -8.429944718546343e-13 0.9726097688294394
  outer loop
    vertex -89.06428408259983 34.628645794485365 3.6494911752663737
    vertex -89.22767757284694 136.22864579448628 3.6104417577415155
    vertex -89.227677573386 34.62864579448632 3.6104417575246175
  endloop
endfacet
facet normal -0.23244405257511888 -8.429944718546343e-13 0.9726097688294394
  outer loop
    vertex -89.22767757284694 136.22864579448628 3.6104417577415155
    vertex -89.06428408259983 34.628645794485365 3.6494911752663737
    vertex -89.06428408206077 136.22864579448535 3.649491175483272
  endloop
endfacet
facet normal -0.7090652519321777 5.267469689299977e-12 -0.7051428709859849
  outer loop
    vertex -94.48732679714291 34.62864579451559 2.9674539193838405
    vertex -94.42024601631742 136.22864579451536 2.900000000216894
    vertex -94.4202460168565 34.62864579451538 2.899999999999995
  endloop
endfacet
facet normal -0.7090652519321777 5.267469689299977e-12 -0.7051428709859849
  outer loop
    vertex -94.42024601631742 136.22864579451536 2.900000000216894
    vertex -94.48732679714291 34.62864579451559 2.9674539193838405
    vertex -94.48732679660381 136.2286457945156 2.9674539196007395
  endloop
endfacet
facet normal -0.03350655759175436 -1.955743152567136e-12 0.9994384976567346
  outer loop
    vertex -88.56359495777427 34.62864579448262 3.6999999999999966
    vertex -88.73149553791183 136.22864579448355 3.694371069082743
    vertex -88.73149553845087 34.628645794483546 3.6943710688658444
  endloop
endfacet
facet normal -0.03350655759175436 -1.955743152567136e-12 0.9994384976567346
  outer loop
    vertex -88.73149553791183 136.22864579448355 3.694371069082743
    vertex -88.56359495777427 34.62864579448262 3.6999999999999966
    vertex -88.56359495723518 136.2286457944826 3.700000000216895
  endloop
endfacet
facet normal -0.16678111454033825 -1.219931973351793e-12 0.9859939451298283
  outer loop
    vertex -88.89864211831778 34.62864579448447 3.677509553628703
    vertex -89.06428408206077 136.22864579448535 3.649491175483272
    vertex -89.06428408259983 34.628645794485365 3.6494911752663737
  endloop
endfacet
facet normal -0.16678111454033825 -1.219931973351793e-12 0.9859939451298283
  outer loop
    vertex -89.06428408206077 136.22864579448535 3.649491175483272
    vertex -88.89864211831778 34.62864579448447 3.677509553628703
    vertex -88.8986421177787 136.22864579448446 3.6775095538456015
  endloop
endfacet
facet normal 0.5881716976750392 -1.394423227819664e-12 -0.8087360843031937
  outer loop
    vertex -87.00131922330611 136.22864579448225 2.1684837259172696e-10
    vertex -85.62631922384512 34.62864579447271 0.9999999999999996
    vertex -87.00131922384519 34.62864579448221 -7.049916206369744e-16
  endloop
endfacet
facet normal 0.5881716976750392 -1.394423227819664e-12 -0.8087360843031937
  outer loop
    vertex -85.62631922384512 34.62864579447271 0.9999999999999996
    vertex -87.00131922330611 136.22864579448225 2.1684837259172696e-10
    vertex -85.6263192233061 136.22864579447275 1.000000000216849
  endloop
endfacet
facet normal 0.033506557591720804 -2.311292650641587e-12 0.9994384976567358
  outer loop
    vertex -88.39569437709751 34.62864579448176 3.6943710688658467
    vertex -88.56359495723518 136.2286457944826 3.700000000216895
    vertex -88.56359495777427 34.62864579448262 3.6999999999999966
  endloop
endfacet
facet normal 0.033506557591720804 -2.311292650641587e-12 0.9994384976567358
  outer loop
    vertex -88.56359495723518 136.2286457944826 3.700000000216895
    vertex -88.39569437709751 34.62864579448176 3.6943710688658467
    vertex -88.39569437655847 136.22864579448174 3.694371069082745
  endloop
endfacet
facet normal -0.6662489174934872 5.126990800609732e-12 -0.7457294281029524
  outer loop
    vertex -94.5582686070907 136.22864579451584 3.030834688363147
    vertex -94.48732679714291 34.62864579451559 2.9674539193838405
    vertex -94.5582686076298 34.628645794515855 3.0308346881462485
  endloop
endfacet
facet normal -0.6662489174934872 5.126990800609732e-12 -0.7457294281029524
  outer loop
    vertex -94.48732679714291 34.62864579451559 2.9674539193838405
    vertex -94.5582686070907 136.22864579451584 3.030834688363147
    vertex -94.48732679660381 136.2286457945156 2.9674539196007395
  endloop
endfacet
facet normal 0.7686707776666472 -5.4434600163106865e-12 0.6396446166124999
  outer loop
    vertex -87.00131922330611 136.22864579448012 1.0000000002168508
    vertex -88.58239243083366 34.62864579448445 2.8999999999999964
    vertex -87.00131922384512 34.62864579448008 1.0000000000000009
  endloop
endfacet
facet normal 0.7686707776666472 -5.4434600163106865e-12 0.6396446166124999
  outer loop
    vertex -88.58239243083366 34.62864579448445 2.8999999999999964
    vertex -87.00131922330611 136.22864579448012 1.0000000002168508
    vertex -88.58239243029462 136.2286457944844 2.9000000002168953
  endloop
endfacet
facet normal 0.7090652519324865 -2.256784480505669e-12 -0.7051428709856744
  outer loop
    vertex -88.58239243083366 34.62864579448445 2.8999999999999964
    vertex -88.51531165000827 136.22864579448392 2.9674539196007395
    vertex -88.51531165054735 34.62864579448392 2.9674539193838405
  endloop
endfacet
facet normal 0.7090652519324865 -2.256784480505669e-12 -0.7051428709856744
  outer loop
    vertex -88.51531165000827 136.22864579448392 2.9674539196007395
    vertex -88.58239243083366 34.62864579448445 2.8999999999999964
    vertex -88.58239243029462 136.2286457944844 2.9000000002168953
  endloop
endfacet
facet normal 0.36640376074015707 4.2242122643434235e-14 -0.9304559549572832
  outer loop
    vertex -88.04080832165494 136.22864579448068 3.279458072428233
    vertex -87.9522933360134 34.62864579448019 3.3143143420279184
    vertex -88.04080832219398 34.62864579448071 3.2794580722113347
  endloop
endfacet
facet normal 0.36640376074015707 4.2242122643434235e-14 -0.9304559549572832
  outer loop
    vertex -87.9522933360134 34.62864579448019 3.3143143420279184
    vertex -88.04080832165494 136.22864579448068 3.279458072428233
    vertex -87.95229333547431 136.22864579448017 3.314314342244817
  endloop
endfacet
facet normal 0.297063140712673 -3.6144699907765004e-12 0.9548578378114319
  outer loop
    vertex -87.7391010854337 34.62864579447854 3.5605366618731913
    vertex -87.89951234162334 136.22864579447932 3.6104417577415178
    vertex -87.8995123421624 34.628645794479304 3.6104417575246193
  endloop
endfacet
facet normal 0.297063140712673 -3.6144699907765004e-12 0.9548578378114319
  outer loop
    vertex -87.89951234162334 136.22864579447932 3.6104417577415178
    vertex -87.7391010854337 34.62864579447854 3.5605366618731913
    vertex -87.73910108489463 136.22864579447852 3.56053666209009
  endloop
endfacet
facet normal -0.5547001962252415 4.718938155065672e-12 -0.8320502943378354
  outer loop
    vertex -97.50131922330608 136.2286457945359 1.000000000216849
    vertex -96.00131922384521 34.62864579452997 -7.049916206369744e-16
    vertex -97.50131922384512 34.628645794535885 0.9999999999999996
  endloop
endfacet
facet normal -0.5547001962252415 4.718938155065672e-12 -0.8320502943378354
  outer loop
    vertex -96.00131922384521 34.62864579452997 -7.049916206369744e-16
    vertex -97.50131922330608 136.2286457945359 1.000000000216849
    vertex -96.00131922330611 136.22864579453 2.1684837259172696e-10
  endloop
endfacet
facet normal 1.196349405394985e-15 -2.134346919287964e-12 1.0
  outer loop
    vertex -85.62631922384512 34.62864579447271 0.9999999999999996
    vertex -87.00131922330611 136.22864579448012 1.0000000002168508
    vertex -87.00131922384512 34.62864579448008 1.0000000000000009
  endloop
endfacet
facet normal 1.196349405394985e-15 -2.134346919287964e-12 1.0
  outer loop
    vertex -87.00131922330611 136.22864579448012 1.0000000002168508
    vertex -85.62631922384512 34.62864579447271 0.9999999999999996
    vertex -85.6263192233061 136.22864579447275 1.000000000216849
  endloop
endfacet
facet normal -1.1432635755469443e-23 -2.1343455848852845e-12 1.0
  outer loop
    vertex -96.00131922384512 34.62864579452785 0.9999999999999996
    vertex -97.50131922330608 136.2286457945359 1.000000000216849
    vertex -97.50131922384512 34.628645794535885 0.9999999999999996
  endloop
endfacet
facet normal -1.1432635755469443e-23 -2.1343455848852845e-12 1.0
  outer loop
    vertex -97.50131922330608 136.2286457945359 1.000000000216849
    vertex -96.00131922384512 34.62864579452785 0.9999999999999996
    vertex -96.00131922330608 136.2286457945279 1.000000000216849
  endloop
endfacet
facet normal 1.1326274495424234e-23 2.1343402085962504e-12 -1.0
  outer loop
    vertex -96.00131922330611 136.22864579453 2.1684837259172696e-10
    vertex -91.50131922384516 34.628645794506085 0.0
    vertex -96.00131922384521 34.62864579452997 -7.049916206369744e-16
  endloop
endfacet
facet normal 1.1326274495424234e-23 2.1343402085962504e-12 -1.0
  outer loop
    vertex -91.50131922384516 34.628645794506085 0.0
    vertex -96.00131922330611 136.22864579453 2.1684837259172696e-10
    vertex -87.00131922330611 136.22864579448225 2.1684837259172696e-10
  endloop
endfacet
facet normal 1.1326274495424234e-23 2.1343402085962504e-12 -1.0
  outer loop
    vertex -91.50131922384516 34.628645794506085 0.0
    vertex -87.00131922330611 136.22864579448225 2.1684837259172696e-10
    vertex -87.00131922384519 34.62864579448221 -7.049916206369744e-16
  endloop
endfacet
facet normal 0.3603481902912926 -3.903221272723651e-12 0.9328178716951077
  outer loop
    vertex -87.58239243083374 34.628645794477855 3.499999999999995
    vertex -87.73910108489463 136.22864579447852 3.56053666209009
    vertex -87.7391010854337 34.62864579447854 3.5605366618731913
  endloop
endfacet
facet normal 0.3603481902912926 -3.903221272723651e-12 0.9328178716951077
  outer loop
    vertex -87.73910108489463 136.22864579447852 3.56053666209009
    vertex -87.58239243083374 34.628645794477855 3.499999999999995
    vertex -87.58239243029466 136.2286457944778 3.5000000002168936
  endloop
endfacet
facet normal -0.7686707776666217 2.712906041079789e-12 0.6396446166125302
  outer loop
    vertex -94.42024601631742 136.22864579451536 2.900000000216894
    vertex -96.00131922384512 34.62864579452785 0.9999999999999996
    vertex -94.4202460168565 34.62864579451538 2.899999999999995
  endloop
endfacet
facet normal -0.7686707776666217 2.712906041079789e-12 0.6396446166125302
  outer loop
    vertex -96.00131922384512 34.62864579452785 0.9999999999999996
    vertex -94.42024601631742 136.22864579451536 2.900000000216894
    vertex -96.00131922330608 136.2286457945279 1.000000000216849
  endloop
endfacet
facet normal -0.10036920294678968 -1.5914108592174802e-12 0.9949502616210653
  outer loop
    vertex -88.73149553845087 34.628645794483546 3.6943710688658444
    vertex -88.8986421177787 136.22864579448446 3.6775095538456015
    vertex -88.89864211831778 34.62864579448447 3.677509553628703
  endloop
endfacet
facet normal -0.10036920294678968 -1.5914108592174802e-12 0.9949502616210653
  outer loop
    vertex -88.8986421177787 136.22864579448446 3.6775095538456015
    vertex -88.73149553845087 34.628645794483546 3.6943710688658444
    vertex -88.73149553791183 136.22864579448355 3.694371069082743
  endloop
endfacet
facet normal 0.10036920294687718 -2.6564627041867602e-12 0.9949502616210564
  outer loop
    vertex -88.22854779723075 34.62864579448089 3.677509553628701
    vertex -88.39569437655847 136.22864579448174 3.694371069082745
    vertex -88.39569437709751 34.62864579448176 3.6943710688658467
  endloop
endfacet
facet normal 0.10036920294687718 -2.6564627041867602e-12 0.9949502616210564
  outer loop
    vertex -88.39569437655847 136.22864579448174 3.694371069082745
    vertex -88.22854779723075 34.62864579448089 3.677509553628701
    vertex -88.22854779669167 136.22864579448085 3.6775095538455993
  endloop
endfacet
facet normal 0.23244405257502385 -3.309497844846643e-12 0.972609768829462
  outer loop
    vertex -87.8995123421624 34.628645794479304 3.6104417575246193
    vertex -88.06290583240958 136.22864579448003 3.6494911754832735
    vertex -88.06290583294863 34.628645794480065 3.649491175266375
  endloop
endfacet
facet normal 0.23244405257502385 -3.309497844846643e-12 0.972609768829462
  outer loop
    vertex -88.06290583240958 136.22864579448003 3.6494911754832735
    vertex -87.8995123421624 34.628645794479304 3.6104417575246193
    vertex -87.89951234162334 136.22864579447932 3.6104417577415178
  endloop
endfacet
facet normal 0.19683419198632637 1.048617299358848e-12 -0.9804367908565498
  outer loop
    vertex -87.76987373527557 136.2286457944791 3.368082740486026
    vertex -87.67660403451256 34.628645794478544 3.386807727401197
    vertex -87.76987373581464 34.628645794479105 3.3680827402691276
  endloop
endfacet
facet normal 0.19683419198632637 1.048617299358848e-12 -0.9804367908565498
  outer loop
    vertex -87.67660403451256 34.628645794478544 3.386807727401197
    vertex -87.76987373527557 136.2286457944791 3.368082740486026
    vertex -87.67660403397352 136.22864579447852 3.3868077276180957
  endloop
endfacet
facet normal 0.16678111454028105 -2.9897032174949506e-12 0.985993945129838
  outer loop
    vertex -88.06290583294863 34.628645794480065 3.649491175266375
    vertex -88.22854779669167 136.22864579448085 3.6775095538455993
    vertex -88.22854779723075 34.62864579448089 3.677509553628701
  endloop
endfacet
facet normal 0.16678111454028105 -2.9897032174949506e-12 0.985993945129838
  outer loop
    vertex -88.22854779669167 136.22864579448085 3.6775095538455993
    vertex -88.06290583294863 34.628645794480065 3.649491175266375
    vertex -88.06290583240958 136.22864579448003 3.6494911754832735
  endloop
endfacet
facet normal -3.2899610094589174e-16 -2.134346919287956e-12 1.0
  outer loop
    vertex -89.00131922384512 34.628645794490716 1.0000000000000009
    vertex -94.0013192233061 136.22864579451726 1.000000000216849
    vertex -94.00131922384513 34.62864579451721 0.9999999999999996
  endloop
endfacet
facet normal -3.2899610094589174e-16 -2.134346919287956e-12 1.0
  outer loop
    vertex -94.0013192233061 136.22864579451726 1.000000000216849
    vertex -89.00131922384512 34.628645794490716 1.0000000000000009
    vertex -89.0013192233061 136.22864579449075 1.0000000002168508
  endloop
endfacet
facet normal -0.3603481902913454 -7.941297811412188e-14 0.9328178716950872
  outer loop
    vertex -89.38808883011482 34.628645794487326 3.560536661873192
    vertex -89.54479748417569 136.22864579448824 3.5000000002168954
    vertex -89.54479748471475 34.628645794488236 3.499999999999997
  endloop
endfacet
facet normal -0.3603481902913454 -7.941297811412188e-14 0.9328178716950872
  outer loop
    vertex -89.54479748417569 136.22864579448824 3.5000000002168954
    vertex -89.38808883011482 34.628645794487326 3.560536661873192
    vertex -89.38808882957575 136.2286457944873 3.5605366620900907
  endloop
endfacet
facet normal 0.25430815553789626 7.152587289694877e-13 -0.9671232403509459
  outer loop
    vertex -87.86187690834197 136.22864579447958 3.34389021127159
    vertex -87.76987373581464 34.628645794479105 3.3680827402691276
    vertex -87.86187690888103 34.6286457944796 3.343890211054692
  endloop
endfacet
facet normal 0.25430815553789626 7.152587289694877e-13 -0.9671232403509459
  outer loop
    vertex -87.76987373581464 34.628645794479105 3.3680827402691276
    vertex -87.86187690834197 136.22864579447958 3.34389021127159
    vertex -87.76987373527557 136.2286457944791 3.368082740486026
  endloop
endfacet
facet normal 0.47340272094938823 -6.313620624260668e-13 -0.8808461067619676
  outer loop
    vertex -88.21090935324754 136.22864579448182 3.1944075566319197
    vertex -88.12711379038366 34.62864579448126 3.239442719099984
    vertex -88.21090935378659 34.62864579448182 3.194407556415021
  endloop
endfacet
facet normal 0.47340272094938823 -6.313620624260668e-13 -0.8808461067619676
  outer loop
    vertex -88.12711379038366 34.62864579448126 3.239442719099984
    vertex -88.21090935324754 136.22864579448182 3.1944075566319197
    vertex -88.12711378984459 136.22864579448122 3.2394427193168824
  endloop
endfacet
facet normal 0.42063525283999137 -2.9507350041418355e-13 -0.9072298408166678
  outer loop
    vertex -88.12711378984459 136.22864579448122 3.2394427193168824
    vertex -88.04080832219398 34.62864579448071 3.2794580722113347
    vertex -88.12711379038366 34.62864579448126 3.239442719099984
  endloop
endfacet
facet normal 0.42063525283999137 -2.9507350041418355e-13 -0.9072298408166678
  outer loop
    vertex -88.04080832219398 34.62864579448071 3.2794580722113347
    vertex -88.12711378984459 136.22864579448122 3.2394427193168824
    vertex -88.04080832165494 136.22864579448068 3.279458072428233
  endloop
endfacet
facet normal 0.1386751456294428 1.3783261364709492e-12 -0.9903379241373386
  outer loop
    vertex -87.67660403397352 136.22864579447852 3.3868077276180957
    vertex -87.58239243083374 34.62864579447807 3.399999999999995
    vertex -87.67660403451256 34.628645794478544 3.386807727401197
  endloop
endfacet
facet normal 0.1386751456294428 1.3783261364709492e-12 -0.9903379241373386
  outer loop
    vertex -87.58239243083374 34.62864579447807 3.399999999999995
    vertex -87.67660403397352 136.22864579447852 3.3868077276180957
    vertex -87.58239243029466 136.22864579447804 3.4000000002168935
  endloop
endfacet
facet normal 0.5245225075217786 -9.654520226259164e-13 -0.851396581566467
  outer loop
    vertex -88.2919033608091 136.22864579448233 3.144509329577416
    vertex -88.21090935378659 34.62864579448182 3.194407556415021
    vertex -88.29190336134818 34.62864579448236 3.144509329360517
  endloop
endfacet
facet normal 0.5245225075217786 -9.654520226259164e-13 -0.851396581566467
  outer loop
    vertex -88.21090935378659 34.62864579448182 3.194407556415021
    vertex -88.2919033608091 136.22864579448233 3.144509329577416
    vertex -88.21090935324754 136.22864579448182 3.1944075566319197
  endloop
endfacet
facet normal -0.29706314071247986 -4.622317106421321e-13 0.9548578378114919
  outer loop
    vertex -89.227677573386 34.62864579448632 3.6104417575246175
    vertex -89.38808882957575 136.2286457944873 3.5605366620900907
    vertex -89.38808883011482 34.628645794487326 3.560536661873192
  endloop
endfacet
facet normal -0.29706314071247986 -4.622317106421321e-13 0.9548578378114919
  outer loop
    vertex -89.38808882957575 136.2286457944873 3.5605366620900907
    vertex -89.227677573386 34.62864579448632 3.6104417575246175
    vertex -89.22767757284694 136.22864579448628 3.6104417577415155
  endloop
endfacet
facet normal 1.0 -5.305755834683624e-12 -1.1719595756928941e-23
  outer loop
    vertex -87.58239243083374 34.62864579447807 3.399999999999995
    vertex -87.58239243029466 136.2286457944778 3.5000000002168936
    vertex -87.58239243083374 34.628645794477855 3.499999999999995
  endloop
endfacet
facet normal 1.0 -5.305755834683624e-12 -1.1719595756928941e-23
  outer loop
    vertex -87.58239243029466 136.2286457944778 3.5000000002168936
    vertex -87.58239243083374 34.62864579447807 3.399999999999995
    vertex -87.58239243029466 136.22864579447804 3.4000000002168935
  endloop
endfacet
facet normal 0.5738166897749511 -1.2961818622125783e-12 -0.8189837645128978
  outer loop
    vertex -88.36981391230998 136.22864579448287 3.0899217092875846
    vertex -88.29190336134818 34.62864579448236 3.144509329360517
    vertex -88.36981391284903 34.628645794482914 3.0899217090706856
  endloop
endfacet
facet normal 0.5738166897749511 -1.2961818622125783e-12 -0.8189837645128978
  outer loop
    vertex -88.29190336134818 34.62864579448236 3.144509329360517
    vertex -88.36981391230998 136.22864579448287 3.0899217092875846
    vertex -88.2919033608091 136.22864579448233 3.144509329577416
  endloop
endfacet
facet normal 0.31089699774527535 3.794107098686589e-13 -0.9504436105277232
  outer loop
    vertex -87.95229333547431 136.22864579448017 3.314314342244817
    vertex -87.86187690888103 34.6286457944796 3.343890211054692
    vertex -87.9522933360134 34.62864579448019 3.3143143420279184
  endloop
endfacet
facet normal 0.31089699774527535 3.794107098686589e-13 -0.9504436105277232
  outer loop
    vertex -87.86187690888103 34.6286457944796 3.343890211054692
    vertex -87.95229333547431 136.22864579448017 3.314314342244817
    vertex -87.86187690834197 136.22864579447958 3.34389021127159
  endloop
endfacet
endsolid v2
