solid v2
facet normal 5.3060239116850186e-12 1.0 2.1559632252349204e-12
  outer loop
    vertex -114.42024601618259 161.62864579451545 2.900000000271104
    vertex -114.00131922317125 161.62864579451733 1.0000000002710594
    vertex -116.00131922317125 161.62864579452796 1.0000000002710594
  endloop
endfacet
facet normal 5.3060239116850186e-12 1.0 2.1559632252349204e-12
  outer loop
    vertex -114.00131922317125 161.62864579451733 1.0000000002710594
    vertex -114.42024601618259 161.62864579451545 2.900000000271104
    vertex -113.45784096230157 161.628645794509 3.5000000002711045
  endloop
endfacet
facet normal 5.3060239116850186e-12 1.0 2.1559632252349204e-12
  outer loop
    vertex -113.45784096230157 161.628645794509 3.5000000002711045
    vertex -114.42024601618259 161.62864579451545 2.900000000271104
    vertex -114.48732679646898 161.62864579451565 2.96745391965495
  endloop
endfacet
facet normal 5.3060239116850186e-12 1.0 2.1559632252349204e-12
  outer loop
    vertex -113.45784096230157 161.628645794509 3.5000000002711045
    vertex -114.48732679646898 161.62864579451565 2.96745391965495
    vertex -114.55826860695586 161.6286457945159 3.0308346884173574
  endloop
endfacet
facet normal 5.3060239116850186e-12 1.0 2.1559632252349204e-12
  outer loop
    vertex -113.45784096230157 161.628645794509 3.5000000002711045
    vertex -114.55826860695586 161.6286457945159 3.0308346884173574
    vertex -114.63282453416728 161.62864579451616 3.0899217093417937
  endloop
endfacet
facet normal 5.3060239116850186e-12 1.0 2.1559632252349204e-12
  outer loop
    vertex -113.45784096230157 161.628645794509 3.5000000002711045
    vertex -114.63282453416728 161.62864579451616 3.0899217093417937
    vertex -114.71073508566805 161.62864579451644 3.144509329631625
  endloop
endfacet
facet normal 5.3060239116850186e-12 1.0 2.1559632252349204e-12
  outer loop
    vertex -113.45784096230157 161.628645794509 3.5000000002711045
    vertex -114.71073508566805 161.62864579451644 3.144509329631625
    vertex -114.79172909322972 161.62864579451679 3.1944075566861283
  endloop
endfacet
facet normal 5.3060239116850186e-12 1.0 2.1559632252349204e-12
  outer loop
    vertex -113.45784096230157 161.628645794509 3.5000000002711045
    vertex -114.79172909322972 161.62864579451679 3.1944075566861283
    vertex -114.87552465663259 161.62864579451707 3.2394427193710915
  endloop
endfacet
facet normal 5.3060239116850186e-12 1.0 2.1559632252349204e-12
  outer loop
    vertex -113.45784096230157 161.628645794509 3.5000000002711045
    vertex -114.87552465663259 161.62864579451707 3.2394427193710915
    vertex -114.96183012482233 161.62864579451747 3.2794580724824423
  endloop
endfacet
facet normal 5.3060239116850186e-12 1.0 2.1559632252349204e-12
  outer loop
    vertex -113.45784096230157 161.628645794509 3.5000000002711045
    vertex -114.96183012482233 161.62864579451747 3.2794580724824423
    vertex -115.05034511100284 161.6286457945179 3.3143143422990264
  endloop
endfacet
facet normal 5.3060239116850186e-12 1.0 2.1559632252349204e-12
  outer loop
    vertex -113.45784096230157 161.628645794509 3.5000000002711045
    vertex -115.05034511100284 161.6286457945179 3.3143143422990264
    vertex -115.1407615381353 161.6286457945183 3.343890211325799
  endloop
endfacet
facet normal 5.3060239116850186e-12 1.0 2.1559632252349204e-12
  outer loop
    vertex -113.45784096230157 161.628645794509 3.5000000002711045
    vertex -115.1407615381353 161.6286457945183 3.343890211325799
    vertex -115.23276471120158 161.62864579451875 3.3680827405402347
  endloop
endfacet
facet normal 5.3060239116850186e-12 1.0 2.1559632252349204e-12
  outer loop
    vertex -113.45784096230157 161.628645794509 3.5000000002711045
    vertex -115.23276471120158 161.62864579451875 3.3680827405402347
    vertex -115.32603441250374 161.6286457945192 3.3868077276723043
  endloop
endfacet
facet normal 5.3060239116850186e-12 1.0 2.1559632252349204e-12
  outer loop
    vertex -113.45784096230157 161.628645794509 3.5000000002711045
    vertex -115.32603441250374 161.6286457945192 3.3868077276723043
    vertex -115.42024601618256 161.6286457945197 3.4000000002711026
  endloop
endfacet
facet normal 5.3060239116850186e-12 1.0 2.1559632252349204e-12
  outer loop
    vertex -113.45784096230157 161.628645794509 3.5000000002711045
    vertex -115.42024601618256 161.6286457945197 3.4000000002711026
    vertex -115.4202460161826 161.62864579451946 3.5000000002711023
  endloop
endfacet
facet normal 5.3060239116850186e-12 1.0 2.1559632252349204e-12
  outer loop
    vertex -113.45784096230157 161.628645794509 3.5000000002711045
    vertex -115.4202460161826 161.62864579451946 3.5000000002711023
    vertex -115.26353736158259 161.62864579451852 3.560536662144299
  endloop
endfacet
facet normal 5.3060239116850186e-12 1.0 2.1559632252349204e-12
  outer loop
    vertex -113.45784096230157 161.628645794509 3.5000000002711045
    vertex -115.26353736158259 161.62864579451852 3.560536662144299
    vertex -113.61454961690147 161.62864579450977 3.560536662144298
  endloop
endfacet
facet normal 5.3060239116850186e-12 1.0 2.1559632252349204e-12
  outer loop
    vertex -113.61454961690147 161.62864579450977 3.560536662144298
    vertex -115.26353736158259 161.62864579451852 3.560536662144299
    vertex -113.77496087363029 161.62864579451048 3.6104417577957246
  endloop
endfacet
facet normal 5.3060239116850186e-12 1.0 2.1559632252349204e-12
  outer loop
    vertex -113.77496087363029 161.62864579451048 3.6104417577957246
    vertex -115.26353736158259 161.62864579451852 3.560536662144299
    vertex -115.1031261048539 161.62864579451755 3.610441757795727
  endloop
endfacet
facet normal 5.3060239116850186e-12 1.0 2.1559632252349204e-12
  outer loop
    vertex -113.77496087363029 161.62864579451048 3.6104417577957246
    vertex -115.1031261048539 161.62864579451755 3.610441757795727
    vertex -113.9383543644165 161.62864579451124 3.6494911755374804
  endloop
endfacet
facet normal 5.3060239116850186e-12 1.0 2.1559632252349204e-12
  outer loop
    vertex -113.9383543644165 161.62864579451124 3.6494911755374804
    vertex -115.1031261048539 161.62864579451755 3.610441757795727
    vertex -114.93973261406768 161.6286457945166 3.6494911755374826
  endloop
endfacet
facet normal 5.3060239116850186e-12 1.0 2.1559632252349204e-12
  outer loop
    vertex -113.9383543644165 161.62864579451124 3.6494911755374804
    vertex -114.93973261406768 161.6286457945166 3.6494911755374826
    vertex -114.10399632869851 161.6286457945121 3.67750955389981
  endloop
endfacet
facet normal 5.3060239116850186e-12 1.0 2.1559632252349204e-12
  outer loop
    vertex -114.10399632869851 161.6286457945121 3.67750955389981
    vertex -114.93973261406768 161.6286457945166 3.6494911755374826
    vertex -114.77409064978555 161.62864579451562 3.6775095538998084
  endloop
endfacet
facet normal 5.3060239116850186e-12 1.0 2.1559632252349204e-12
  outer loop
    vertex -114.10399632869851 161.6286457945121 3.67750955389981
    vertex -114.77409064978555 161.62864579451562 3.6775095538998084
    vertex -114.6069440699188 161.62864579451474 3.694371069136954
  endloop
endfacet
facet normal 5.3060239116850186e-12 1.0 2.1559632252349204e-12
  outer loop
    vertex -114.10399632869851 161.6286457945121 3.67750955389981
    vertex -114.6069440699188 161.62864579451474 3.694371069136954
    vertex -114.27114290856545 161.62864579451298 3.694371069136952
  endloop
endfacet
facet normal 5.3060239116850186e-12 1.0 2.1559632252349204e-12
  outer loop
    vertex -114.27114290856545 161.62864579451298 3.694371069136952
    vertex -114.6069440699188 161.62864579451474 3.694371069136954
    vertex -114.43904348924208 161.62864579451383 3.700000000271104
  endloop
endfacet
facet normal 5.3060239116850186e-12 1.0 2.1559632252349204e-12
  outer loop
    vertex -117.50131922317125 161.62864579453597 1.0000000002710594
    vertex -107.00131922317127 161.6286457944823 2.710587032606071e-10
    vertex -116.00131922317127 161.62864579453006 2.710587032606071e-10
  endloop
endfacet
facet normal 5.3060239116850186e-12 1.0 2.1559632252349204e-12
  outer loop
    vertex -107.00131922317127 161.6286457944823 2.710587032606071e-10
    vertex -117.50131922317125 161.62864579453597 1.0000000002710594
    vertex -105.62631922317127 161.62864579447282 1.0000000002710594
  endloop
endfacet
facet normal 5.3060239116850186e-12 1.0 2.1559632252349204e-12
  outer loop
    vertex -105.62631922317127 161.62864579447282 1.0000000002710594
    vertex -117.50131922317125 161.62864579453597 1.0000000002710594
    vertex -116.00131922317125 161.62864579452796 1.0000000002710594
  endloop
endfacet
facet normal 5.3060239116850186e-12 1.0 2.1559632252349204e-12
  outer loop
    vertex -105.62631922317127 161.62864579447282 1.0000000002710594
    vertex -116.00131922317125 161.62864579452796 1.0000000002710594
    vertex -114.00131922317125 161.62864579451733 1.0000000002710594
  endloop
endfacet
facet normal 5.3060239116850186e-12 1.0 2.1559632252349204e-12
  outer loop
    vertex -105.62631922317127 161.62864579447282 1.0000000002710594
    vertex -114.00131922317125 161.62864579451733 1.0000000002710594
    vertex -109.00131922317127 161.6286457944908 1.0000000002710612
  endloop
endfacet
facet normal 5.3060239116850186e-12 1.0 2.1559632252349204e-12
  outer loop
    vertex -105.62631922317127 161.62864579447282 1.0000000002710594
    vertex -109.00131922317127 161.6286457944908 1.0000000002710612
    vertex -107.00131922317127 161.62864579448018 1.0000000002710612
  endloop
endfacet
facet normal 5.3060239116850186e-12 1.0 2.1559632252349204e-12
  outer loop
    vertex -107.00131922317127 161.62864579448018 1.0000000002710612
    vertex -109.00131922317127 161.6286457944908 1.0000000002710612
    vertex -109.54479748404084 161.62864579448828 3.500000000271106
  endloop
endfacet
facet normal 5.3060239116850186e-12 1.0 2.1559632252349204e-12
  outer loop
    vertex -107.00131922317127 161.62864579448018 1.0000000002710612
    vertex -109.54479748404084 161.62864579448828 3.500000000271106
    vertex -108.58239243015977 161.62864579448447 2.9000000002711057
  endloop
endfacet
facet normal 5.3060239116850186e-12 1.0 2.1559632252349204e-12
  outer loop
    vertex -108.58239243015977 161.62864579448447 2.9000000002711057
    vertex -109.54479748404084 161.62864579448828 3.500000000271106
    vertex -108.51531164987342 161.628645794484 2.96745391965495
  endloop
endfacet
facet normal 5.3060239116850186e-12 1.0 2.1559632252349204e-12
  outer loop
    vertex -108.51531164987342 161.628645794484 2.96745391965495
    vertex -109.54479748404084 161.62864579448828 3.500000000271106
    vertex -108.44436983938654 161.62864579448345 3.0308346884173574
  endloop
endfacet
facet normal 5.3060239116850186e-12 1.0 2.1559632252349204e-12
  outer loop
    vertex -108.44436983938654 161.62864579448345 3.0308346884173574
    vertex -109.54479748404084 161.62864579448828 3.500000000271106
    vertex -108.36981391217513 161.62864579448294 3.0899217093417946
  endloop
endfacet
facet normal 5.3060239116850186e-12 1.0 2.1559632252349204e-12
  outer loop
    vertex -108.36981391217513 161.62864579448294 3.0899217093417946
    vertex -109.54479748404084 161.62864579448828 3.500000000271106
    vertex -108.29190336067425 161.62864579448242 3.144509329631626
  endloop
endfacet
facet normal 5.3060239116850186e-12 1.0 2.1559632252349204e-12
  outer loop
    vertex -108.29190336067425 161.62864579448242 3.144509329631626
    vertex -109.54479748404084 161.62864579448828 3.500000000271106
    vertex -108.2109093531127 161.62864579448188 3.19440755668613
  endloop
endfacet
facet normal 5.3060239116850186e-12 1.0 2.1559632252349204e-12
  outer loop
    vertex -108.2109093531127 161.62864579448188 3.19440755668613
    vertex -109.54479748404084 161.62864579448828 3.500000000271106
    vertex -108.12711378970975 161.6286457944813 3.239442719371093
  endloop
endfacet
facet normal 5.3060239116850186e-12 1.0 2.1559632252349204e-12
  outer loop
    vertex -108.12711378970975 161.6286457944813 3.239442719371093
    vertex -109.54479748404084 161.62864579448828 3.500000000271106
    vertex -108.04080832152009 161.62864579448075 3.2794580724824436
  endloop
endfacet
facet normal 5.3060239116850186e-12 1.0 2.1559632252349204e-12
  outer loop
    vertex -108.04080832152009 161.62864579448075 3.2794580724824436
    vertex -109.54479748404084 161.62864579448828 3.500000000271106
    vertex -107.95229333533948 161.62864579448026 3.3143143422990273
  endloop
endfacet
facet normal 5.3060239116850186e-12 1.0 2.1559632252349204e-12
  outer loop
    vertex -107.95229333533948 161.62864579448026 3.3143143422990273
    vertex -109.54479748404084 161.62864579448828 3.500000000271106
    vertex -107.86187690820714 161.62864579447967 3.3438902113258004
  endloop
endfacet
facet normal 5.3060239116850186e-12 1.0 2.1559632252349204e-12
  outer loop
    vertex -107.86187690820714 161.62864579447967 3.3438902113258004
    vertex -109.54479748404084 161.62864579448828 3.500000000271106
    vertex -107.76987373514072 161.62864579447918 3.368082740540236
  endloop
endfacet
facet normal 5.3060239116850186e-12 1.0 2.1559632252349204e-12
  outer loop
    vertex -107.76987373514072 161.62864579447918 3.368082740540236
    vertex -109.54479748404084 161.62864579448828 3.500000000271106
    vertex -107.67660403383867 161.6286457944786 3.386807727672306
  endloop
endfacet
facet normal 5.3060239116850186e-12 1.0 2.1559632252349204e-12
  outer loop
    vertex -107.67660403383867 161.6286457944786 3.386807727672306
    vertex -109.54479748404084 161.62864579448828 3.500000000271106
    vertex -107.58239243015981 161.62864579447808 3.400000000271104
  endloop
endfacet
facet normal 5.3060239116850186e-12 1.0 2.1559632252349204e-12
  outer loop
    vertex -107.58239243015981 161.62864579447808 3.400000000271104
    vertex -109.54479748404084 161.62864579448828 3.500000000271106
    vertex -107.58239243015981 161.62864579447788 3.5000000002711036
  endloop
endfacet
facet normal 5.3060239116850186e-12 1.0 2.1559632252349204e-12
  outer loop
    vertex -107.58239243015981 161.62864579447788 3.5000000002711036
    vertex -109.54479748404084 161.62864579448828 3.500000000271106
    vertex -107.73910108475978 161.6286457944786 3.5605366621443
  endloop
endfacet
facet normal 5.3060239116850186e-12 1.0 2.1559632252349204e-12
  outer loop
    vertex -107.73910108475978 161.6286457944786 3.5605366621443
    vertex -109.54479748404084 161.62864579448828 3.500000000271106
    vertex -109.3880888294409 161.62864579448734 3.5605366621443006
  endloop
endfacet
facet normal 5.3060239116850186e-12 1.0 2.1559632252349204e-12
  outer loop
    vertex -107.73910108475978 161.6286457944786 3.5605366621443
    vertex -109.3880888294409 161.62864579448734 3.5605366621443006
    vertex -107.8995123414885 161.62864579447935 3.610441757795728
  endloop
endfacet
facet normal 5.3060239116850186e-12 1.0 2.1559632252349204e-12
  outer loop
    vertex -107.8995123414885 161.62864579447935 3.610441757795728
    vertex -109.3880888294409 161.62864579448734 3.5605366621443006
    vertex -109.22767757271211 161.62864579448635 3.610441757795726
  endloop
endfacet
facet normal 5.3060239116850186e-12 1.0 2.1559632252349204e-12
  outer loop
    vertex -107.8995123414885 161.62864579447935 3.610441757795728
    vertex -109.22767757271211 161.62864579448635 3.610441757795726
    vertex -109.06428408192593 161.6286457944854 3.6494911755374826
  endloop
endfacet
facet normal 5.3060239116850186e-12 1.0 2.1559632252349204e-12
  outer loop
    vertex -107.8995123414885 161.62864579447935 3.610441757795728
    vertex -109.06428408192593 161.6286457944854 3.6494911755374826
    vertex -108.06290583227474 161.6286457944801 3.649491175537484
  endloop
endfacet
facet normal 5.3060239116850186e-12 1.0 2.1559632252349204e-12
  outer loop
    vertex -108.06290583227474 161.6286457944801 3.649491175537484
    vertex -109.06428408192593 161.6286457944854 3.6494911755374826
    vertex -108.89864211764386 161.6286457944845 3.6775095538998115
  endloop
endfacet
facet normal 5.3060239116850186e-12 1.0 2.1559632252349204e-12
  outer loop
    vertex -108.06290583227474 161.6286457944801 3.649491175537484
    vertex -108.89864211764386 161.6286457944845 3.6775095538998115
    vertex -108.22854779655682 161.62864579448092 3.6775095538998097
  endloop
endfacet
facet normal 5.3060239116850186e-12 1.0 2.1559632252349204e-12
  outer loop
    vertex -108.22854779655682 161.62864579448092 3.6775095538998097
    vertex -108.89864211764386 161.6286457944845 3.6775095538998115
    vertex -108.39569437642362 161.6286457944818 3.6943710691369556
  endloop
endfacet
facet normal 5.3060239116850186e-12 1.0 2.1559632252349204e-12
  outer loop
    vertex -108.39569437642362 161.6286457944818 3.6943710691369556
    vertex -108.89864211764386 161.6286457944845 3.6775095538998115
    vertex -108.73149553777698 161.6286457944836 3.6943710691369533
  endloop
endfacet
facet normal 5.3060239116850186e-12 1.0 2.1559632252349204e-12
  outer loop
    vertex -108.39569437642362 161.6286457944818 3.6943710691369556
    vertex -108.73149553777698 161.6286457944836 3.6943710691369533
    vertex -108.56359495710035 161.62864579448265 3.7000000002711055
  endloop
endfacet
facet normal -5.305809036297159e-12 -1.0 -2.1337690686333027e-12
  outer loop
    vertex -107.00131922384507 34.62864579448008 1.0000000000000018
    vertex -114.00131922384509 34.62864579451721 1.0000000000000002
    vertex -105.62631922384507 34.62864579447271 1.0000000000000002
  endloop
endfacet
facet normal -5.305809036297159e-12 -1.0 -2.1337690686333027e-12
  outer loop
    vertex -114.00131922384509 34.62864579451721 1.0000000000000002
    vertex -107.00131922384507 34.62864579448008 1.0000000000000018
    vertex -109.00131922384507 34.628645794490716 1.0000000000000018
  endloop
endfacet
facet normal -5.305809036297159e-12 -1.0 -2.1337690686333027e-12
  outer loop
    vertex -109.00131922384507 34.628645794490716 1.0000000000000018
    vertex -107.00131922384507 34.62864579448008 1.0000000000000018
    vertex -108.58239243083364 34.62864579448445 2.8999999999999972
  endloop
endfacet
facet normal -5.305809036297159e-12 -1.0 -2.1337690686333027e-12
  outer loop
    vertex -109.00131922384507 34.628645794490716 1.0000000000000018
    vertex -108.58239243083364 34.62864579448445 2.8999999999999972
    vertex -109.5447974847147 34.628645794488236 3.499999999999998
  endloop
endfacet
facet normal -5.305809036297159e-12 -1.0 -2.1337690686333027e-12
  outer loop
    vertex -109.5447974847147 34.628645794488236 3.499999999999998
    vertex -108.58239243083364 34.62864579448445 2.8999999999999972
    vertex -108.5153116505473 34.62864579448392 2.9674539193838414
  endloop
endfacet
facet normal -5.305809036297159e-12 -1.0 -2.1337690686333027e-12
  outer loop
    vertex -109.5447974847147 34.628645794488236 3.499999999999998
    vertex -108.5153116505473 34.62864579448392 2.9674539193838414
    vertex -108.44436984006042 34.62864579448343 3.030834688146249
  endloop
endfacet
facet normal -5.305809036297159e-12 -1.0 -2.1337690686333027e-12
  outer loop
    vertex -109.5447974847147 34.628645794488236 3.499999999999998
    vertex -108.44436984006042 34.62864579448343 3.030834688146249
    vertex -108.369813912849 34.628645794482914 3.089921709070686
  endloop
endfacet
facet normal -5.305809036297159e-12 -1.0 -2.1337690686333027e-12
  outer loop
    vertex -109.5447974847147 34.628645794488236 3.499999999999998
    vertex -108.369813912849 34.628645794482914 3.089921709070686
    vertex -108.29190336134815 34.62864579448236 3.1445093293605177
  endloop
endfacet
facet normal -5.305809036297159e-12 -1.0 -2.1337690686333027e-12
  outer loop
    vertex -109.5447974847147 34.628645794488236 3.499999999999998
    vertex -108.29190336134815 34.62864579448236 3.1445093293605177
    vertex -108.21090935378656 34.62864579448182 3.194407556415022
  endloop
endfacet
facet normal -5.305809036297159e-12 -1.0 -2.1337690686333027e-12
  outer loop
    vertex -109.5447974847147 34.628645794488236 3.499999999999998
    vertex -108.21090935378656 34.62864579448182 3.194407556415022
    vertex -108.12711379038363 34.62864579448126 3.239442719099985
  endloop
endfacet
facet normal -5.305809036297159e-12 -1.0 -2.1337690686333027e-12
  outer loop
    vertex -109.5447974847147 34.628645794488236 3.499999999999998
    vertex -108.12711379038363 34.62864579448126 3.239442719099985
    vertex -108.04080832219395 34.62864579448071 3.2794580722113356
  endloop
endfacet
facet normal -5.305809036297159e-12 -1.0 -2.1337690686333027e-12
  outer loop
    vertex -109.5447974847147 34.628645794488236 3.499999999999998
    vertex -108.04080832219395 34.62864579448071 3.2794580722113356
    vertex -107.95229333601335 34.62864579448019 3.3143143420279193
  endloop
endfacet
facet normal -5.305809036297159e-12 -1.0 -2.1337690686333027e-12
  outer loop
    vertex -109.5447974847147 34.628645794488236 3.499999999999998
    vertex -107.95229333601335 34.62864579448019 3.3143143420279193
    vertex -107.86187690888099 34.6286457944796 3.3438902110546924
  endloop
endfacet
facet normal -5.305809036297159e-12 -1.0 -2.1337690686333027e-12
  outer loop
    vertex -109.5447974847147 34.628645794488236 3.499999999999998
    vertex -107.86187690888099 34.6286457944796 3.3438902110546924
    vertex -107.76987373581461 34.628645794479105 3.368082740269128
  endloop
endfacet
facet normal -5.305809036297159e-12 -1.0 -2.1337690686333027e-12
  outer loop
    vertex -109.5447974847147 34.628645794488236 3.499999999999998
    vertex -107.76987373581461 34.628645794479105 3.368082740269128
    vertex -107.67660403451254 34.628645794478544 3.386807727401198
  endloop
endfacet
facet normal -5.305809036297159e-12 -1.0 -2.1337690686333027e-12
  outer loop
    vertex -109.5447974847147 34.628645794488236 3.499999999999998
    vertex -107.67660403451254 34.628645794478544 3.386807727401198
    vertex -107.5823924308337 34.62864579447807 3.399999999999996
  endloop
endfacet
facet normal -5.305809036297159e-12 -1.0 -2.1337690686333027e-12
  outer loop
    vertex -109.5447974847147 34.628645794488236 3.499999999999998
    vertex -107.5823924308337 34.62864579447807 3.399999999999996
    vertex -107.5823924308337 34.628645794477855 3.4999999999999956
  endloop
endfacet
facet normal -5.305809036297159e-12 -1.0 -2.1337690686333027e-12
  outer loop
    vertex -109.5447974847147 34.628645794488236 3.499999999999998
    vertex -107.5823924308337 34.628645794477855 3.4999999999999956
    vertex -107.73910108543367 34.62864579447854 3.560536661873192
  endloop
endfacet
facet normal -5.305809036297159e-12 -1.0 -2.1337690686333027e-12
  outer loop
    vertex -109.5447974847147 34.628645794488236 3.499999999999998
    vertex -107.73910108543367 34.62864579447854 3.560536661873192
    vertex -109.38808883011478 34.628645794487326 3.5605366618731926
  endloop
endfacet
facet normal -5.305809036297159e-12 -1.0 -2.1337690686333027e-12
  outer loop
    vertex -109.38808883011478 34.628645794487326 3.5605366618731926
    vertex -107.73910108543367 34.62864579447854 3.560536661873192
    vertex -107.89951234216235 34.628645794479304 3.61044175752462
  endloop
endfacet
facet normal -5.305809036297159e-12 -1.0 -2.1337690686333027e-12
  outer loop
    vertex -109.38808883011478 34.628645794487326 3.5605366618731926
    vertex -107.89951234216235 34.628645794479304 3.61044175752462
    vertex -109.22767757338596 34.62864579448632 3.610441757524618
  endloop
endfacet
facet normal -5.305809036297159e-12 -1.0 -2.1337690686333027e-12
  outer loop
    vertex -109.22767757338596 34.62864579448632 3.610441757524618
    vertex -107.89951234216235 34.628645794479304 3.61044175752462
    vertex -109.06428408259978 34.628645794485365 3.6494911752663746
  endloop
endfacet
facet normal -5.305809036297159e-12 -1.0 -2.1337690686333027e-12
  outer loop
    vertex -109.06428408259978 34.628645794485365 3.6494911752663746
    vertex -107.89951234216235 34.628645794479304 3.61044175752462
    vertex -108.0629058329486 34.628645794480065 3.649491175266376
  endloop
endfacet
facet normal -5.305809036297159e-12 -1.0 -2.1337690686333027e-12
  outer loop
    vertex -109.06428408259978 34.628645794485365 3.6494911752663746
    vertex -108.0629058329486 34.628645794480065 3.649491175266376
    vertex -108.89864211831774 34.62864579448447 3.6775095536287035
  endloop
endfacet
facet normal -5.305809036297159e-12 -1.0 -2.1337690686333027e-12
  outer loop
    vertex -108.89864211831774 34.62864579448447 3.6775095536287035
    vertex -108.0629058329486 34.628645794480065 3.649491175266376
    vertex -108.22854779723072 34.62864579448089 3.6775095536287017
  endloop
endfacet
facet normal -5.305809036297159e-12 -1.0 -2.1337690686333027e-12
  outer loop
    vertex -108.89864211831774 34.62864579448447 3.6775095536287035
    vertex -108.22854779723072 34.62864579448089 3.6775095536287017
    vertex -108.39569437709748 34.62864579448176 3.6943710688658475
  endloop
endfacet
facet normal -5.305809036297159e-12 -1.0 -2.1337690686333027e-12
  outer loop
    vertex -108.89864211831774 34.62864579448447 3.6775095536287035
    vertex -108.39569437709748 34.62864579448176 3.6943710688658475
    vertex -108.73149553845083 34.628645794483546 3.6943710688658453
  endloop
endfacet
facet normal -5.305809036297159e-12 -1.0 -2.1337690686333027e-12
  outer loop
    vertex -108.73149553845083 34.628645794483546 3.6943710688658453
    vertex -108.39569437709748 34.62864579448176 3.6943710688658475
    vertex -108.56359495777423 34.62864579448262 3.6999999999999975
  endloop
endfacet
facet normal -5.305809036297159e-12 -1.0 -2.1337690686333027e-12
  outer loop
    vertex -113.45784096297544 34.62864579450896 3.4999999999999964
    vertex -116.00131922384506 34.62864579452785 1.0000000000000002
    vertex -114.00131922384509 34.62864579451721 1.0000000000000002
  endloop
endfacet
facet normal -5.305809036297159e-12 -1.0 -2.1337690686333027e-12
  outer loop
    vertex -116.00131922384506 34.62864579452785 1.0000000000000002
    vertex -113.45784096297544 34.62864579450896 3.4999999999999964
    vertex -114.42024601685644 34.62864579451538 2.899999999999996
  endloop
endfacet
facet normal -5.305809036297159e-12 -1.0 -2.1337690686333027e-12
  outer loop
    vertex -114.42024601685644 34.62864579451538 2.899999999999996
    vertex -113.45784096297544 34.62864579450896 3.4999999999999964
    vertex -114.48732679714287 34.62864579451559 2.9674539193838414
  endloop
endfacet
facet normal -5.305809036297159e-12 -1.0 -2.1337690686333027e-12
  outer loop
    vertex -114.48732679714287 34.62864579451559 2.9674539193838414
    vertex -113.45784096297544 34.62864579450896 3.4999999999999964
    vertex -114.55826860762976 34.628645794515855 3.030834688146249
  endloop
endfacet
facet normal -5.305809036297159e-12 -1.0 -2.1337690686333027e-12
  outer loop
    vertex -114.55826860762976 34.628645794515855 3.030834688146249
    vertex -113.45784096297544 34.62864579450896 3.4999999999999964
    vertex -114.63282453484118 34.6286457945161 3.089921709070685
  endloop
endfacet
facet normal -5.305809036297159e-12 -1.0 -2.1337690686333027e-12
  outer loop
    vertex -114.63282453484118 34.6286457945161 3.089921709070685
    vertex -113.45784096297544 34.62864579450896 3.4999999999999964
    vertex -114.71073508634193 34.6286457945164 3.144509329360517
  endloop
endfacet
facet normal -5.305809036297159e-12 -1.0 -2.1337690686333027e-12
  outer loop
    vertex -114.71073508634193 34.6286457945164 3.144509329360517
    vertex -113.45784096297544 34.62864579450896 3.4999999999999964
    vertex -114.79172909390358 34.62864579451674 3.1944075564150203
  endloop
endfacet
facet normal -5.305809036297159e-12 -1.0 -2.1337690686333027e-12
  outer loop
    vertex -114.79172909390358 34.62864579451674 3.1944075564150203
    vertex -113.45784096297544 34.62864579450896 3.4999999999999964
    vertex -114.87552465730647 34.62864579451705 3.2394427190999835
  endloop
endfacet
facet normal -5.305809036297159e-12 -1.0 -2.1337690686333027e-12
  outer loop
    vertex -114.87552465730647 34.62864579451705 3.2394427190999835
    vertex -113.45784096297544 34.62864579450896 3.4999999999999964
    vertex -114.96183012549622 34.62864579451743 3.2794580722113342
  endloop
endfacet
facet normal -5.305809036297159e-12 -1.0 -2.1337690686333027e-12
  outer loop
    vertex -114.96183012549622 34.62864579451743 3.2794580722113342
    vertex -113.45784096297544 34.62864579450896 3.4999999999999964
    vertex -115.05034511167675 34.628645794517844 3.3143143420279184
  endloop
endfacet
facet normal -5.305809036297159e-12 -1.0 -2.1337690686333027e-12
  outer loop
    vertex -115.05034511167675 34.628645794517844 3.3143143420279184
    vertex -113.45784096297544 34.62864579450896 3.4999999999999964
    vertex -115.14076153880917 34.62864579451824 3.343890211054691
  endloop
endfacet
facet normal -5.305809036297159e-12 -1.0 -2.1337690686333027e-12
  outer loop
    vertex -115.14076153880917 34.62864579451824 3.343890211054691
    vertex -113.45784096297544 34.62864579450896 3.4999999999999964
    vertex -115.23276471187549 34.6286457945187 3.3680827402691267
  endloop
endfacet
facet normal -5.305809036297159e-12 -1.0 -2.1337690686333027e-12
  outer loop
    vertex -115.23276471187549 34.6286457945187 3.3680827402691267
    vertex -113.45784096297544 34.62864579450896 3.4999999999999964
    vertex -115.32603441317761 34.62864579451913 3.3868077274011963
  endloop
endfacet
facet normal -5.305809036297159e-12 -1.0 -2.1337690686333027e-12
  outer loop
    vertex -115.32603441317761 34.62864579451913 3.3868077274011963
    vertex -113.45784096297544 34.62864579450896 3.4999999999999964
    vertex -115.42024601685644 34.62864579451965 3.3999999999999946
  endloop
endfacet
facet normal -5.305809036297159e-12 -1.0 -2.1337690686333027e-12
  outer loop
    vertex -115.42024601685644 34.62864579451965 3.3999999999999946
    vertex -113.45784096297544 34.62864579450896 3.4999999999999964
    vertex -115.42024601685648 34.628645794519436 3.4999999999999942
  endloop
endfacet
facet normal -5.305809036297159e-12 -1.0 -2.1337690686333027e-12
  outer loop
    vertex -115.42024601685648 34.628645794519436 3.4999999999999942
    vertex -113.45784096297544 34.62864579450896 3.4999999999999964
    vertex -115.26353736225647 34.62864579451848 3.560536661873191
  endloop
endfacet
facet normal -5.305809036297159e-12 -1.0 -2.1337690686333027e-12
  outer loop
    vertex -115.26353736225647 34.62864579451848 3.560536661873191
    vertex -113.45784096297544 34.62864579450896 3.4999999999999964
    vertex -113.61454961757535 34.628645794509715 3.56053666187319
  endloop
endfacet
facet normal -5.305809036297159e-12 -1.0 -2.1337690686333027e-12
  outer loop
    vertex -115.26353736225647 34.62864579451848 3.560536661873191
    vertex -113.61454961757535 34.628645794509715 3.56053666187319
    vertex -113.77496087430418 34.62864579451043 3.6104417575246166
  endloop
endfacet
facet normal -5.305809036297159e-12 -1.0 -2.1337690686333027e-12
  outer loop
    vertex -115.26353736225647 34.62864579451848 3.560536661873191
    vertex -113.77496087430418 34.62864579451043 3.6104417575246166
    vertex -115.10312610552778 34.62864579451752 3.610441757524619
  endloop
endfacet
facet normal -5.305809036297159e-12 -1.0 -2.1337690686333027e-12
  outer loop
    vertex -115.10312610552778 34.62864579451752 3.610441757524619
    vertex -113.77496087430418 34.62864579451043 3.6104417575246166
    vertex -113.93835436509035 34.6286457945112 3.6494911752663723
  endloop
endfacet
facet normal -5.305809036297159e-12 -1.0 -2.1337690686333027e-12
  outer loop
    vertex -115.10312610552778 34.62864579451752 3.610441757524619
    vertex -113.93835436509035 34.6286457945112 3.6494911752663723
    vertex -114.93973261474156 34.62864579451652 3.6494911752663746
  endloop
endfacet
facet normal -5.305809036297159e-12 -1.0 -2.1337690686333027e-12
  outer loop
    vertex -114.93973261474156 34.62864579451652 3.6494911752663746
    vertex -113.93835436509035 34.6286457945112 3.6494911752663723
    vertex -114.1039963293724 34.62864579451207 3.677509553628702
  endloop
endfacet
facet normal -5.305809036297159e-12 -1.0 -2.1337690686333027e-12
  outer loop
    vertex -114.93973261474156 34.62864579451652 3.6494911752663746
    vertex -114.1039963293724 34.62864579451207 3.677509553628702
    vertex -114.77409065045943 34.628645794515585 3.6775095536287
  endloop
endfacet
facet normal -5.305809036297159e-12 -1.0 -2.1337690686333027e-12
  outer loop
    vertex -114.77409065045943 34.628645794515585 3.6775095536287
    vertex -114.1039963293724 34.62864579451207 3.677509553628702
    vertex -114.60694407059266 34.6286457945147 3.6943710688658458
  endloop
endfacet
facet normal -5.305809036297159e-12 -1.0 -2.1337690686333027e-12
  outer loop
    vertex -114.60694407059266 34.6286457945147 3.6943710688658458
    vertex -114.1039963293724 34.62864579451207 3.677509553628702
    vertex -114.2711429092393 34.62864579451292 3.694371068865844
  endloop
endfacet
facet normal -5.305809036297159e-12 -1.0 -2.1337690686333027e-12
  outer loop
    vertex -114.60694407059266 34.6286457945147 3.6943710688658458
    vertex -114.2711429092393 34.62864579451292 3.694371068865844
    vertex -114.43904348991597 34.62864579451377 3.699999999999996
  endloop
endfacet
facet normal -5.305809036297159e-12 -1.0 -2.1337690686333027e-12
  outer loop
    vertex -105.62631922384507 34.62864579447271 1.0000000000000002
    vertex -111.50131922384516 34.628645794506085 0.0
    vertex -107.00131922384514 34.62864579448221 0.0
  endloop
endfacet
facet normal -5.305809036297159e-12 -1.0 -2.1337690686333027e-12
  outer loop
    vertex -111.50131922384516 34.628645794506085 0.0
    vertex -105.62631922384507 34.62864579447271 1.0000000000000002
    vertex -116.00131922384516 34.62864579452997 0.0
  endloop
endfacet
facet normal -5.305809036297159e-12 -1.0 -2.1337690686333027e-12
  outer loop
    vertex -116.00131922384516 34.62864579452997 0.0
    vertex -105.62631922384507 34.62864579447271 1.0000000000000002
    vertex -117.50131922384506 34.628645794535885 1.0000000000000002
  endloop
endfacet
facet normal -5.305809036297159e-12 -1.0 -2.1337690686333027e-12
  outer loop
    vertex -117.50131922384506 34.628645794535885 1.0000000000000002
    vertex -105.62631922384507 34.62864579447271 1.0000000000000002
    vertex -114.00131922384509 34.62864579451721 1.0000000000000002
  endloop
endfacet
facet normal -5.305809036297159e-12 -1.0 -2.1337690686333027e-12
  outer loop
    vertex -117.50131922384506 34.628645794535885 1.0000000000000002
    vertex -114.00131922384509 34.62864579451721 1.0000000000000002
    vertex -116.00131922384506 34.62864579452785 1.0000000000000002
  endloop
endfacet
facet normal -0.03350655759172528 -1.9556122907510073e-12 0.9994384976567355
  outer loop
    vertex -114.43904348991597 34.62864579451377 3.699999999999996
    vertex -114.6069440699188 161.62864579451474 3.694371069136954
    vertex -114.60694407059266 34.6286457945147 3.6943710688658458
  endloop
endfacet
facet normal -0.03350655759172528 -1.9556122907510073e-12 0.9994384976567355
  outer loop
    vertex -114.6069440699188 161.62864579451474 3.694371069136954
    vertex -114.43904348991597 34.62864579451377 3.699999999999996
    vertex -114.43904348924208 161.62864579451383 3.700000000271104
  endloop
endfacet
facet normal -0.16678111454024425 -1.2197532643814538e-12 0.9859939451298441
  outer loop
    vertex -114.77409065045943 34.628645794515585 3.6775095536287
    vertex -114.93973261406768 161.6286457945166 3.6494911755374826
    vertex -114.93973261474156 34.62864579451652 3.6494911752663746
  endloop
endfacet
facet normal -0.16678111454024425 -1.2197532643814538e-12 0.9859939451298441
  outer loop
    vertex -114.93973261406768 161.6286457945166 3.6494911755374826
    vertex -114.77409065045943 34.628645794515585 3.6775095536287
    vertex -114.77409064978555 161.62864579451562 3.6775095538998084
  endloop
endfacet
facet normal 0.3603481902913982 -3.903190711095374e-12 0.9328178716950669
  outer loop
    vertex -113.45784096297544 34.62864579450896 3.4999999999999964
    vertex -113.61454961690147 161.62864579450977 3.560536662144298
    vertex -113.61454961757535 34.628645794509715 3.56053666187319
  endloop
endfacet
facet normal 0.3603481902913982 -3.903190711095374e-12 0.9328178716950669
  outer loop
    vertex -113.61454961690147 161.62864579450977 3.560536662144298
    vertex -113.45784096297544 34.62864579450896 3.4999999999999964
    vertex -113.45784096230157 161.628645794509 3.5000000002711045
  endloop
endfacet
facet normal -0.2970631407126984 -4.620083933341968e-13 0.954857837811424
  outer loop
    vertex -115.10312610552778 34.62864579451752 3.610441757524619
    vertex -115.26353736158259 161.62864579451852 3.560536662144299
    vertex -115.26353736225647 34.62864579451848 3.560536661873191
  endloop
endfacet
facet normal -0.2970631407126984 -4.620083933341968e-13 0.954857837811424
  outer loop
    vertex -115.26353736158259 161.62864579451852 3.560536662144299
    vertex -115.10312610552778 34.62864579451752 3.610441757524619
    vertex -115.1031261048539 161.62864579451755 3.610441757795727
  endloop
endfacet
facet normal -0.36034819029120224 -7.916882334708812e-14 0.9328178716951425
  outer loop
    vertex -115.26353736225647 34.62864579451848 3.560536661873191
    vertex -115.4202460161826 161.62864579451946 3.5000000002711023
    vertex -115.42024601685648 34.628645794519436 3.4999999999999942
  endloop
endfacet
facet normal -0.36034819029120224 -7.916882334708812e-14 0.9328178716951425
  outer loop
    vertex -115.4202460161826 161.62864579451946 3.5000000002711023
    vertex -115.26353736225647 34.62864579451848 3.560536661873191
    vertex -115.26353736158259 161.62864579451852 3.560536662144299
  endloop
endfacet
facet normal -0.25430815553814895 3.4138050997269993e-12 -0.9671232403508793
  outer loop
    vertex -115.23276471120158 161.62864579451875 3.3680827405402347
    vertex -115.14076153880917 34.62864579451824 3.343890211054691
    vertex -115.23276471187549 34.6286457945187 3.3680827402691267
  endloop
endfacet
facet normal -0.25430815553814895 3.4138050997269993e-12 -0.9671232403508793
  outer loop
    vertex -115.14076153880917 34.62864579451824 3.343890211054691
    vertex -115.23276471120158 161.62864579451875 3.3680827405402347
    vertex -115.1407615381353 161.6286457945183 3.343890211325799
  endloop
endfacet
facet normal -0.5245225075213171 4.600495157912488e-12 -0.8513965815667512
  outer loop
    vertex -114.79172909322972 161.62864579451679 3.1944075566861283
    vertex -114.71073508634193 34.6286457945164 3.144509329360517
    vertex -114.79172909390358 34.62864579451674 3.1944075564150203
  endloop
endfacet
facet normal -0.5245225075213171 4.600495157912488e-12 -0.8513965815667512
  outer loop
    vertex -114.71073508634193 34.6286457945164 3.144509329360517
    vertex -114.79172909322972 161.62864579451679 3.1944075566861283
    vertex -114.71073508566805 161.62864579451644 3.144509329631625
  endloop
endfacet
facet normal -0.1003692029468951 -1.5912621277926525e-12 0.9949502616210547
  outer loop
    vertex -114.60694407059266 34.6286457945147 3.6943710688658458
    vertex -114.77409064978555 161.62864579451562 3.6775095538998084
    vertex -114.77409065045943 34.628645794515585 3.6775095536287
  endloop
endfacet
facet normal -0.1003692029468951 -1.5912621277926525e-12 0.9949502616210547
  outer loop
    vertex -114.77409064978555 161.62864579451562 3.6775095538998084
    vertex -114.60694407059266 34.6286457945147 3.6943710688658458
    vertex -114.6069440699188 161.62864579451474 3.694371069136954
  endloop
endfacet
facet normal -0.36640376074051373 3.930326204620165e-12 -0.9304559549571426
  outer loop
    vertex -115.05034511100284 161.6286457945179 3.3143143422990264
    vertex -114.96183012549622 34.62864579451743 3.2794580722113342
    vertex -115.05034511167675 34.628645794517844 3.3143143420279184
  endloop
endfacet
facet normal -0.36640376074051373 3.930326204620165e-12 -0.9304559549571426
  outer loop
    vertex -114.96183012549622 34.62864579451743 3.2794580722113342
    vertex -115.05034511100284 161.6286457945179 3.3143143422990264
    vertex -114.96183012482233 161.62864579451747 3.2794580724824423
  endloop
endfacet
facet normal -0.6211136989576956 4.968624076851479e-12 -0.7837204686411408
  outer loop
    vertex -114.63282453416728 161.62864579451616 3.0899217093417937
    vertex -114.55826860762976 34.628645794515855 3.030834688146249
    vertex -114.63282453484118 34.6286457945161 3.089921709070685
  endloop
endfacet
facet normal -0.6211136989576956 4.968624076851479e-12 -0.7837204686411408
  outer loop
    vertex -114.55826860762976 34.628645794515855 3.030834688146249
    vertex -114.63282453416728 161.62864579451616 3.0899217093417937
    vertex -114.55826860695586 161.6286457945159 3.0308346884173574
  endloop
endfacet
facet normal -0.6662489174934872 5.1270629128349934e-12 -0.7457294281029524
  outer loop
    vertex -114.55826860695586 161.6286457945159 3.0308346884173574
    vertex -114.48732679714287 34.62864579451559 2.9674539193838414
    vertex -114.55826860762976 34.628645794515855 3.030834688146249
  endloop
endfacet
facet normal -0.6662489174934872 5.1270629128349934e-12 -0.7457294281029524
  outer loop
    vertex -114.48732679714287 34.62864579451559 2.9674539193838414
    vertex -114.55826860695586 161.6286457945159 3.0308346884173574
    vertex -114.48732679646898 161.62864579451565 2.96745391965495
  endloop
endfacet
facet normal -0.7090652519321382 5.267527541126149e-12 -0.7051428709860246
  outer loop
    vertex -114.48732679714287 34.62864579451559 2.9674539193838414
    vertex -114.42024601618259 161.62864579451545 2.900000000271104
    vertex -114.42024601685644 34.62864579451538 2.899999999999996
  endloop
endfacet
facet normal -0.7090652519321382 5.267527541126149e-12 -0.7051428709860246
  outer loop
    vertex -114.42024601618259 161.62864579451545 2.900000000271104
    vertex -114.48732679714287 34.62864579451559 2.9674539193838414
    vertex -114.48732679646898 161.62864579451565 2.96745391965495
  endloop
endfacet
facet normal 0.23244405257509462 -3.3094739343932464e-12 0.972609768829445
  outer loop
    vertex -113.77496087430418 34.62864579451043 3.6104417575246166
    vertex -113.9383543644165 161.62864579451124 3.6494911755374804
    vertex -113.93835436509035 34.6286457945112 3.6494911752663723
  endloop
endfacet
facet normal 0.23244405257509462 -3.3094739343932464e-12 0.972609768829445
  outer loop
    vertex -113.9383543644165 161.62864579451124 3.6494911755374804
    vertex -113.77496087430418 34.62864579451043 3.6104417575246166
    vertex -113.77496087363029 161.62864579451048 3.6104417577957246
  endloop
endfacet
facet normal 0.2970631407124622 -3.614466977856826e-12 0.9548578378114975
  outer loop
    vertex -113.61454961757535 34.628645794509715 3.56053666187319
    vertex -113.77496087363029 161.62864579451048 3.6104417577957246
    vertex -113.77496087430418 34.62864579451043 3.6104417575246166
  endloop
endfacet
facet normal 0.2970631407124622 -3.614466977856826e-12 0.9548578378114975
  outer loop
    vertex -113.77496087363029 161.62864579451048 3.6104417577957246
    vertex -113.61454961757535 34.628645794509715 3.56053666187319
    vertex -113.61454961690147 161.62864579450977 3.560536662144298
  endloop
endfacet
facet normal -1.0 5.306041320605201e-12 -4.511946371955706e-13
  outer loop
    vertex -115.4202460161826 161.62864579451946 3.5000000002711023
    vertex -115.42024601685644 34.62864579451965 3.3999999999999946
    vertex -115.42024601685648 34.628645794519436 3.4999999999999942
  endloop
endfacet
facet normal -1.0 5.306041320605201e-12 -4.511946371955706e-13
  outer loop
    vertex -115.42024601685644 34.62864579451965 3.3999999999999946
    vertex -115.4202460161826 161.62864579451946 3.5000000002711023
    vertex -115.42024601618256 161.6286457945197 3.4000000002711026
  endloop
endfacet
facet normal 0.7686707776666472 -5.4437017179545074e-12 0.6396446166124999
  outer loop
    vertex -107.00131922317127 161.62864579448018 1.0000000002710612
    vertex -108.58239243083364 34.62864579448445 2.8999999999999972
    vertex -107.00131922384507 34.62864579448008 1.0000000000000018
  endloop
endfacet
facet normal 0.7686707776666472 -5.4437017179545074e-12 0.6396446166124999
  outer loop
    vertex -108.58239243083364 34.62864579448445 2.8999999999999972
    vertex -107.00131922317127 161.62864579448018 1.0000000002710612
    vertex -108.58239243015977 161.62864579448447 2.9000000002711057
  endloop
endfacet
facet normal 0.1667811145403718 -2.989637659554558e-12 0.9859939451298226
  outer loop
    vertex -113.93835436509035 34.6286457945112 3.6494911752663723
    vertex -114.10399632869851 161.6286457945121 3.67750955389981
    vertex -114.1039963293724 34.62864579451207 3.677509553628702
  endloop
endfacet
facet normal 0.1667811145403718 -2.989637659554558e-12 0.9859939451298226
  outer loop
    vertex -114.10399632869851 161.6286457945121 3.67750955389981
    vertex -113.93835436509035 34.6286457945112 3.6494911752663723
    vertex -113.9383543644165 161.62864579451124 3.6494911755374804
  endloop
endfacet
facet normal 0.6662489174934872 -1.9433102245378628e-12 -0.7457294281029524
  outer loop
    vertex -108.51531164987342 161.628645794484 2.96745391965495
    vertex -108.44436984006042 34.62864579448343 3.030834688146249
    vertex -108.5153116505473 34.62864579448392 2.9674539193838414
  endloop
endfacet
facet normal 0.6662489174934872 -1.9433102245378628e-12 -0.7457294281029524
  outer loop
    vertex -108.44436984006042 34.62864579448343 3.030834688146249
    vertex -108.51531164987342 161.628645794484 2.96745391965495
    vertex -108.44436983938654 161.62864579448345 3.0308346884173574
  endloop
endfacet
facet normal 0.5738166897749511 -1.2964559038450311e-12 -0.8189837645128977
  outer loop
    vertex -108.36981391217513 161.62864579448294 3.0899217093417946
    vertex -108.29190336134815 34.62864579448236 3.1445093293605177
    vertex -108.369813912849 34.628645794482914 3.089921709070686
  endloop
endfacet
facet normal 0.5738166897749511 -1.2964559038450311e-12 -0.8189837645128977
  outer loop
    vertex -108.29190336134815 34.62864579448236 3.1445093293605177
    vertex -108.36981391217513 161.62864579448294 3.0899217093417946
    vertex -108.29190336067425 161.62864579448242 3.144509329631626
  endloop
endfacet
facet normal 0.977176363922793 -4.731329591130975e-12 -0.21242964433108058
  outer loop
    vertex -114.00131922384509 34.62864579451721 1.0000000000000002
    vertex -113.45784096230157 161.628645794509 3.5000000002711045
    vertex -113.45784096297544 34.62864579450896 3.4999999999999964
  endloop
endfacet
facet normal 0.977176363922793 -4.731329591130975e-12 -0.21242964433108058
  outer loop
    vertex -113.45784096230157 161.628645794509 3.5000000002711045
    vertex -114.00131922384509 34.62864579451721 1.0000000000000002
    vertex -114.00131922317125 161.62864579451733 1.0000000002710594
  endloop
endfacet
facet normal 0.1003692029467718 -2.6563756601672993e-12 0.994950261621067
  outer loop
    vertex -114.1039963293724 34.62864579451207 3.677509553628702
    vertex -114.27114290856545 161.62864579451298 3.694371069136952
    vertex -114.2711429092393 34.62864579451292 3.694371068865844
  endloop
endfacet
facet normal 0.1003692029467718 -2.6563756601672993e-12 0.994950261621067
  outer loop
    vertex -114.27114290856545 161.62864579451298 3.694371069136952
    vertex -114.1039963293724 34.62864579451207 3.677509553628702
    vertex -114.10399632869851 161.6286457945121 3.67750955389981
  endloop
endfacet
facet normal -0.5738166897754711 4.79289782757717e-12 -0.8189837645125335
  outer loop
    vertex -114.71073508566805 161.62864579451644 3.144509329631625
    vertex -114.63282453484118 34.6286457945161 3.089921709070685
    vertex -114.71073508634193 34.6286457945164 3.144509329360517
  endloop
endfacet
facet normal -0.5738166897754711 4.79289782757717e-12 -0.8189837645125335
  outer loop
    vertex -114.63282453484118 34.6286457945161 3.089921709070685
    vertex -114.71073508566805 161.62864579451644 3.144509329631625
    vertex -114.63282453416728 161.62864579451616 3.0899217093417937
  endloop
endfacet
facet normal 0.5245225075217786 -9.657144818022817e-13 -0.851396581566467
  outer loop
    vertex -108.29190336067425 161.62864579448242 3.144509329631626
    vertex -108.21090935378656 34.62864579448182 3.194407556415022
    vertex -108.29190336134815 34.62864579448236 3.1445093293605177
  endloop
endfacet
facet normal 0.5245225075217786 -9.657144818022817e-13 -0.851396581566467
  outer loop
    vertex -108.21090935378656 34.62864579448182 3.194407556415022
    vertex -108.29190336067425 161.62864579448242 3.144509329631626
    vertex -108.2109093531127 161.62864579448188 3.19440755668613
  endloop
endfacet
facet normal -0.19683419198614333 3.1372488183420086e-12 -0.9804367908565865
  outer loop
    vertex -115.32603441250374 161.6286457945192 3.3868077276723043
    vertex -115.23276471187549 34.6286457945187 3.3680827402691267
    vertex -115.32603441317761 34.62864579451913 3.3868077274011963
  endloop
endfacet
facet normal -0.19683419198614333 3.1372488183420086e-12 -0.9804367908565865
  outer loop
    vertex -115.23276471187549 34.6286457945187 3.3680827402691267
    vertex -115.32603441250374 161.6286457945192 3.3868077276723043
    vertex -115.23276471120158 161.62864579451875 3.3680827405402347
  endloop
endfacet
facet normal -0.23244405257505418 -8.427731649689258e-13 0.9726097688294547
  outer loop
    vertex -114.93973261474156 34.62864579451652 3.6494911752663746
    vertex -115.1031261048539 161.62864579451755 3.610441757795727
    vertex -115.10312610552778 34.62864579451752 3.610441757524619
  endloop
endfacet
facet normal -0.23244405257505418 -8.427731649689258e-13 0.9726097688294547
  outer loop
    vertex -115.1031261048539 161.62864579451755 3.610441757795727
    vertex -114.93973261474156 34.62864579451652 3.6494911752663746
    vertex -114.93973261406768 161.6286457945166 3.6494911755374826
  endloop
endfacet
facet normal -0.4206352528396596 4.168479085190092e-12 -0.9072298408168217
  outer loop
    vertex -114.96183012482233 161.62864579451747 3.2794580724824423
    vertex -114.87552465730647 34.62864579451705 3.2394427190999835
    vertex -114.96183012549622 34.62864579451743 3.2794580722113342
  endloop
endfacet
facet normal -0.4206352528396596 4.168479085190092e-12 -0.9072298408168217
  outer loop
    vertex -114.87552465730647 34.62864579451705 3.2394427190999835
    vertex -114.96183012482233 161.62864579451747 3.2794580724824423
    vertex -114.87552465663259 161.62864579451707 3.2394427193710915
  endloop
endfacet
facet normal -0.310896997744965 3.678467117339196e-12 -0.9504436105278248
  outer loop
    vertex -115.1407615381353 161.6286457945183 3.343890211325799
    vertex -115.05034511167675 34.628645794517844 3.3143143420279184
    vertex -115.14076153880917 34.62864579451824 3.343890211054691
  endloop
endfacet
facet normal -0.310896997744965 3.678467117339196e-12 -0.9504436105278248
  outer loop
    vertex -115.05034511167675 34.628645794517844 3.3143143420279184
    vertex -115.1407615381353 161.6286457945183 3.343890211325799
    vertex -115.05034511100284 161.6286457945179 3.3143143422990264
  endloop
endfacet
facet normal 0.4734027209493881 -6.316119847404068e-13 -0.8808461067619676
  outer loop
    vertex -108.2109093531127 161.62864579448188 3.19440755668613
    vertex -108.12711379038363 34.62864579448126 3.239442719099985
    vertex -108.21090935378656 34.62864579448182 3.194407556415022
  endloop
endfacet
facet normal 0.4734027209493881 -6.316119847404068e-13 -0.8808461067619676
  outer loop
    vertex -108.12711379038363 34.62864579448126 3.239442719099985
    vertex -108.2109093531127 161.62864579448188 3.19440755668613
    vertex -108.12711378970975 161.6286457944813 3.239442719371093
  endloop
endfacet
facet normal 0.3664037607401571 4.2019230162162956e-14 -0.9304559549572832
  outer loop
    vertex -108.04080832152009 161.62864579448075 3.2794580724824436
    vertex -107.95229333601335 34.62864579448019 3.3143143420279193
    vertex -108.04080832219395 34.62864579448071 3.2794580722113356
  endloop
endfacet
facet normal 0.3664037607401571 4.2019230162162956e-14 -0.9304559549572832
  outer loop
    vertex -107.95229333601335 34.62864579448019 3.3143143420279193
    vertex -108.04080832152009 161.62864579448075 3.2794580724824436
    vertex -107.95229333533948 161.62864579448026 3.3143143422990273
  endloop
endfacet
facet normal 0.3108969977452753 3.792024893485338e-13 -0.9504436105277232
  outer loop
    vertex -107.95229333533948 161.62864579448026 3.3143143422990273
    vertex -107.86187690888099 34.6286457944796 3.3438902110546924
    vertex -107.95229333601335 34.62864579448019 3.3143143420279193
  endloop
endfacet
facet normal 0.3108969977452753 3.792024893485338e-13 -0.9504436105277232
  outer loop
    vertex -107.86187690888099 34.6286457944796 3.3438902110546924
    vertex -107.95229333533948 161.62864579448026 3.3143143422990273
    vertex -107.86187690820714 161.62864579447967 3.3438902113258004
  endloop
endfacet
facet normal 0.25430815553789626 7.150659377545651e-13 -0.9671232403509457
  outer loop
    vertex -107.86187690820714 161.62864579447967 3.3438902113258004
    vertex -107.76987373581461 34.628645794479105 3.368082740269128
    vertex -107.86187690888099 34.6286457944796 3.3438902110546924
  endloop
endfacet
facet normal 0.25430815553789626 7.150659377545651e-13 -0.9671232403509457
  outer loop
    vertex -107.76987373581461 34.628645794479105 3.368082740269128
    vertex -107.86187690820714 161.62864579447967 3.3438902113258004
    vertex -107.76987373514072 161.62864579447918 3.368082740540236
  endloop
endfacet
facet normal 0.19683419198632637 1.0484405913474946e-12 -0.9804367908565498
  outer loop
    vertex -107.76987373514072 161.62864579447918 3.368082740540236
    vertex -107.67660403451254 34.628645794478544 3.386807727401198
    vertex -107.76987373581461 34.628645794479105 3.368082740269128
  endloop
endfacet
facet normal 0.19683419198632637 1.0484405913474946e-12 -0.9804367908565498
  outer loop
    vertex -107.67660403451254 34.628645794478544 3.386807727401198
    vertex -107.76987373514072 161.62864579447918 3.368082740540236
    vertex -107.67660403383867 161.6286457944786 3.386807727672306
  endloop
endfacet
facet normal -0.13867514562948627 2.8497806534857956e-12 -0.9903379241373325
  outer loop
    vertex -115.42024601618256 161.6286457945197 3.4000000002711026
    vertex -115.32603441317761 34.62864579451913 3.3868077274011963
    vertex -115.42024601685644 34.62864579451965 3.3999999999999946
  endloop
endfacet
facet normal -0.13867514562948627 2.8497806534857956e-12 -0.9903379241373325
  outer loop
    vertex -115.32603441317761 34.62864579451913 3.3868077274011963
    vertex -115.42024601618256 161.6286457945197 3.4000000002711026
    vertex -115.32603441250374 161.6286457945192 3.3868077276723043
  endloop
endfacet
facet normal -0.47340272094971786 4.392116755153202e-12 -0.8808461067617905
  outer loop
    vertex -114.87552465663259 161.62864579451707 3.2394427193710915
    vertex -114.79172909390358 34.62864579451674 3.1944075564150203
    vertex -114.87552465730647 34.62864579451705 3.2394427190999835
  endloop
endfacet
facet normal -0.47340272094971786 4.392116755153202e-12 -0.8808461067617905
  outer loop
    vertex -114.79172909390358 34.62864579451674 3.1944075564150203
    vertex -114.87552465663259 161.62864579451707 3.2394427193710915
    vertex -114.79172909322972 161.62864579451679 3.1944075566861283
  endloop
endfacet
facet normal 0.621113698957741 -1.622685822844928e-12 -0.7837204686411047
  outer loop
    vertex -108.44436983938654 161.62864579448345 3.0308346884173574
    vertex -108.369813912849 34.628645794482914 3.089921709070686
    vertex -108.44436984006042 34.62864579448343 3.030834688146249
  endloop
endfacet
facet normal 0.621113698957741 -1.622685822844928e-12 -0.7837204686411047
  outer loop
    vertex -108.369813912849 34.628645794482914 3.089921709070686
    vertex -108.44436983938654 161.62864579448345 3.0308346884173574
    vertex -108.36981391217513 161.62864579448294 3.0899217093417946
  endloop
endfacet
facet normal 0.7090652519324866 -2.25708655436975e-12 -0.7051428709856743
  outer loop
    vertex -108.58239243083364 34.62864579448445 2.8999999999999972
    vertex -108.51531164987342 161.628645794484 2.96745391965495
    vertex -108.5153116505473 34.62864579448392 2.9674539193838414
  endloop
endfacet
facet normal 0.7090652519324866 -2.25708655436975e-12 -0.7051428709856743
  outer loop
    vertex -108.51531164987342 161.628645794484 2.96745391965495
    vertex -108.58239243083364 34.62864579448445 2.8999999999999972
    vertex -108.58239243015977 161.62864579448447 2.9000000002711057
  endloop
endfacet
facet normal -0.9771763639227984 5.6381132423751145e-12 -0.21242964433105538
  outer loop
    vertex -109.54479748404084 161.62864579448828 3.500000000271106
    vertex -109.00131922384507 34.628645794490716 1.0000000000000018
    vertex -109.5447974847147 34.628645794488236 3.499999999999998
  endloop
endfacet
facet normal -0.9771763639227984 5.6381132423751145e-12 -0.21242964433105538
  outer loop
    vertex -109.00131922384507 34.628645794490716 1.0000000000000018
    vertex -109.54479748404084 161.62864579448828 3.500000000271106
    vertex -109.00131922317127 161.6286457944908 1.0000000002710612
  endloop
endfacet
facet normal 0.03350655759174986 -2.311186652847029e-12 0.9994384976567346
  outer loop
    vertex -114.2711429092393 34.62864579451292 3.694371068865844
    vertex -114.43904348924208 161.62864579451383 3.700000000271104
    vertex -114.43904348991597 34.62864579451377 3.699999999999996
  endloop
endfacet
facet normal 0.03350655759174986 -2.311186652847029e-12 0.9994384976567346
  outer loop
    vertex -114.43904348924208 161.62864579451383 3.700000000271104
    vertex -114.2711429092393 34.62864579451292 3.694371068865844
    vertex -114.27114290856545 161.62864579451298 3.694371069136952
  endloop
endfacet
facet normal -0.7686707776666217 2.7131065344138808e-12 0.6396446166125305
  outer loop
    vertex -114.42024601618259 161.62864579451545 2.900000000271104
    vertex -116.00131922384506 34.62864579452785 1.0000000000000002
    vertex -114.42024601685644 34.62864579451538 2.899999999999996
  endloop
endfacet
facet normal -0.7686707776666217 2.7131065344138808e-12 0.6396446166125305
  outer loop
    vertex -116.00131922384506 34.62864579452785 1.0000000000000002
    vertex -114.42024601618259 161.62864579451545 2.900000000271104
    vertex -116.00131922317125 161.62864579452796 1.0000000002710594
  endloop
endfacet
facet normal 0.4206352528399915 -2.9531029594437496e-13 -0.9072298408166678
  outer loop
    vertex -108.12711378970975 161.6286457944813 3.239442719371093
    vertex -108.04080832219395 34.62864579448071 3.2794580722113356
    vertex -108.12711379038363 34.62864579448126 3.239442719099985
  endloop
endfacet
facet normal 0.4206352528399915 -2.9531029594437496e-13 -0.9072298408166678
  outer loop
    vertex -108.04080832219395 34.62864579448071 3.2794580722113356
    vertex -108.12711378970975 161.6286457944813 3.239442719371093
    vertex -108.04080832152009 161.62864579448075 3.2794580724824436
  endloop
endfacet
facet normal -0.03350655759175435 -1.9556144204101126e-12 0.9994384976567346
  outer loop
    vertex -108.56359495777423 34.62864579448262 3.6999999999999975
    vertex -108.73149553777698 161.6286457944836 3.6943710691369533
    vertex -108.73149553845083 34.628645794483546 3.6943710688658453
  endloop
endfacet
facet normal -0.03350655759175435 -1.9556144204101126e-12 0.9994384976567346
  outer loop
    vertex -108.73149553777698 161.6286457944836 3.6943710691369533
    vertex -108.56359495777423 34.62864579448262 3.6999999999999975
    vertex -108.56359495710035 161.62864579448265 3.7000000002711055
  endloop
endfacet
facet normal -0.5547001962252416 4.719019412442448e-12 -0.8320502943378354
  outer loop
    vertex -117.50131922317125 161.62864579453597 1.0000000002710594
    vertex -116.00131922384516 34.62864579452997 0.0
    vertex -117.50131922384506 34.628645794535885 1.0000000000000002
  endloop
endfacet
facet normal -0.5547001962252416 4.719019412442448e-12 -0.8320502943378354
  outer loop
    vertex -116.00131922384516 34.62864579452997 0.0
    vertex -117.50131922317125 161.62864579453597 1.0000000002710594
    vertex -116.00131922317127 161.62864579453006 2.710587032606071e-10
  endloop
endfacet
facet normal -1.1438203569091505e-23 -2.13432248065613e-12 1.0
  outer loop
    vertex -116.00131922384506 34.62864579452785 1.0000000000000002
    vertex -117.50131922317125 161.62864579453597 1.0000000002710594
    vertex -117.50131922384506 34.628645794535885 1.0000000000000002
  endloop
endfacet
facet normal -1.1438203569091505e-23 -2.13432248065613e-12 1.0
  outer loop
    vertex -117.50131922317125 161.62864579453597 1.0000000002710594
    vertex -116.00131922384506 34.62864579452785 1.0000000000000002
    vertex -116.00131922317125 161.62864579452796 1.0000000002710594
  endloop
endfacet
facet normal 1.1326582629846674e-23 2.134320498115014e-12 -1.0
  outer loop
    vertex -116.00131922317127 161.62864579453006 2.710587032606071e-10
    vertex -111.50131922384516 34.628645794506085 0.0
    vertex -116.00131922384516 34.62864579452997 0.0
  endloop
endfacet
facet normal 1.1326582629846674e-23 2.134320498115014e-12 -1.0
  outer loop
    vertex -111.50131922384516 34.628645794506085 0.0
    vertex -116.00131922317127 161.62864579453006 2.710587032606071e-10
    vertex -107.00131922317127 161.6286457944823 2.710587032606071e-10
  endloop
endfacet
facet normal 1.1326582629846674e-23 2.134320498115014e-12 -1.0
  outer loop
    vertex -111.50131922384516 34.628645794506085 0.0
    vertex -107.00131922317127 161.6286457944823 2.710587032606071e-10
    vertex -107.00131922384514 34.62864579448221 0.0
  endloop
endfacet
facet normal 0.1386751456294428 1.378166156815606e-12 -0.9903379241373386
  outer loop
    vertex -107.67660403383867 161.6286457944786 3.386807727672306
    vertex -107.5823924308337 34.62864579447807 3.399999999999996
    vertex -107.67660403451254 34.628645794478544 3.386807727401198
  endloop
endfacet
facet normal 0.1386751456294428 1.378166156815606e-12 -0.9903379241373386
  outer loop
    vertex -107.5823924308337 34.62864579447807 3.399999999999996
    vertex -107.67660403383867 161.6286457944786 3.386807727672306
    vertex -107.58239243015981 161.62864579447808 3.400000000271104
  endloop
endfacet
facet normal 1.0 -5.3060413206042385e-12 -1.1805326988210064e-23
  outer loop
    vertex -107.5823924308337 34.62864579447807 3.399999999999996
    vertex -107.58239243015981 161.62864579447788 3.5000000002711036
    vertex -107.5823924308337 34.628645794477855 3.4999999999999956
  endloop
endfacet
facet normal 1.0 -5.3060413206042385e-12 -1.1805326988210064e-23
  outer loop
    vertex -107.58239243015981 161.62864579447788 3.5000000002711036
    vertex -107.5823924308337 34.62864579447807 3.399999999999996
    vertex -107.58239243015981 161.62864579447808 3.400000000271104
  endloop
endfacet
facet normal 0.3603481902912925 -3.903213640299849e-12 0.9328178716951077
  outer loop
    vertex -107.5823924308337 34.628645794477855 3.4999999999999956
    vertex -107.73910108475978 161.6286457944786 3.5605366621443
    vertex -107.73910108543367 34.62864579447854 3.560536661873192
  endloop
endfacet
facet normal 0.3603481902912925 -3.903213640299849e-12 0.9328178716951077
  outer loop
    vertex -107.73910108475978 161.6286457944786 3.5605366621443
    vertex -107.5823924308337 34.628645794477855 3.4999999999999956
    vertex -107.58239243015981 161.62864579447788 3.5000000002711036
  endloop
endfacet
facet normal -0.1667811145403383 -1.2197638541616659e-12 0.9859939451298283
  outer loop
    vertex -108.89864211831774 34.62864579448447 3.6775095536287035
    vertex -109.06428408192593 161.6286457944854 3.6494911755374826
    vertex -109.06428408259978 34.628645794485365 3.6494911752663746
  endloop
endfacet
facet normal -0.1667811145403383 -1.2197638541616659e-12 0.9859939451298283
  outer loop
    vertex -109.06428408192593 161.6286457944854 3.6494911755374826
    vertex -108.89864211831774 34.62864579448447 3.6775095536287035
    vertex -108.89864211764386 161.6286457944845 3.6775095538998115
  endloop
endfacet
facet normal 0.03350655759172079 -2.311184525282237e-12 0.9994384976567358
  outer loop
    vertex -108.39569437709748 34.62864579448176 3.6943710688658475
    vertex -108.56359495710035 161.62864579448265 3.7000000002711055
    vertex -108.56359495777423 34.62864579448262 3.6999999999999975
  endloop
endfacet
facet normal 0.03350655759172079 -2.311184525282237e-12 0.9994384976567358
  outer loop
    vertex -108.56359495710035 161.62864579448265 3.7000000002711055
    vertex -108.39569437709748 34.62864579448176 3.6943710688658475
    vertex -108.39569437642362 161.6286457944818 3.6943710691369556
  endloop
endfacet
facet normal 0.29706314071267287 -3.614448099576272e-12 0.9548578378114319
  outer loop
    vertex -107.73910108543367 34.62864579447854 3.560536661873192
    vertex -107.8995123414885 161.62864579447935 3.610441757795728
    vertex -107.89951234216235 34.628645794479304 3.61044175752462
  endloop
endfacet
facet normal 0.29706314071267287 -3.614448099576272e-12 0.9548578378114319
  outer loop
    vertex -107.8995123414885 161.62864579447935 3.610441757795728
    vertex -107.73910108543367 34.62864579447854 3.560536661873192
    vertex -107.73910108475978 161.6286457944786 3.5605366621443
  endloop
endfacet
facet normal -0.2324440525751189 -8.428026555251469e-13 0.9726097688294394
  outer loop
    vertex -109.06428408259978 34.628645794485365 3.6494911752663746
    vertex -109.22767757271211 161.62864579448635 3.610441757795726
    vertex -109.22767757338596 34.62864579448632 3.610441757524618
  endloop
endfacet
facet normal -0.2324440525751189 -8.428026555251469e-13 0.9726097688294394
  outer loop
    vertex -109.22767757271211 161.62864579448635 3.610441757795726
    vertex -109.06428408259978 34.628645794485365 3.6494911752663746
    vertex -109.06428408192593 161.6286457944854 3.6494911755374826
  endloop
endfacet
facet normal -0.36034819029134535 -7.919168498260918e-14 0.9328178716950875
  outer loop
    vertex -109.38808883011478 34.628645794487326 3.5605366618731926
    vertex -109.54479748404084 161.62864579448828 3.500000000271106
    vertex -109.5447974847147 34.628645794488236 3.499999999999998
  endloop
endfacet
facet normal -0.36034819029134535 -7.919168498260918e-14 0.9328178716950875
  outer loop
    vertex -109.54479748404084 161.62864579448828 3.500000000271106
    vertex -109.38808883011478 34.628645794487326 3.5605366618731926
    vertex -109.3880888294409 161.62864579448734 3.5605366621443006
  endloop
endfacet
facet normal 0.5881716976750392 -1.3946483292659772e-12 -0.8087360843031937
  outer loop
    vertex -107.00131922317127 161.6286457944823 2.710587032606071e-10
    vertex -105.62631922384507 34.62864579447271 1.0000000000000002
    vertex -107.00131922384514 34.62864579448221 0.0
  endloop
endfacet
facet normal 0.5881716976750392 -1.3946483292659772e-12 -0.8087360843031937
  outer loop
    vertex -105.62631922384507 34.62864579447271 1.0000000000000002
    vertex -107.00131922317127 161.6286457944823 2.710587032606071e-10
    vertex -105.62631922317127 161.62864579447282 1.0000000002710594
  endloop
endfacet
facet normal 0.16678111454028108 -2.98963766091953e-12 0.985993945129838
  outer loop
    vertex -108.0629058329486 34.628645794480065 3.649491175266376
    vertex -108.22854779655682 161.62864579448092 3.6775095538998097
    vertex -108.22854779723072 34.62864579448089 3.6775095536287017
  endloop
endfacet
facet normal 0.16678111454028108 -2.98963766091953e-12 0.985993945129838
  outer loop
    vertex -108.22854779655682 161.62864579448092 3.6775095538998097
    vertex -108.0629058329486 34.628645794480065 3.649491175266376
    vertex -108.06290583227474 161.6286457944801 3.649491175537484
  endloop
endfacet
facet normal -0.2970631407124799 -4.620272315229134e-13 0.9548578378114919
  outer loop
    vertex -109.22767757338596 34.62864579448632 3.610441757524618
    vertex -109.3880888294409 161.62864579448734 3.5605366621443006
    vertex -109.38808883011478 34.628645794487326 3.5605366618731926
  endloop
endfacet
facet normal -0.2970631407124799 -4.620272315229134e-13 0.9548578378114919
  outer loop
    vertex -109.3880888294409 161.62864579448734 3.5605366621443006
    vertex -109.22767757338596 34.62864579448632 3.610441757524618
    vertex -109.22767757271211 161.62864579448635 3.610441757795726
  endloop
endfacet
facet normal -3.289961009435731e-16 -2.134323471926686e-12 1.0
  outer loop
    vertex -109.00131922384507 34.628645794490716 1.0000000000000018
    vertex -114.00131922317125 161.62864579451733 1.0000000002710594
    vertex -114.00131922384509 34.62864579451721 1.0000000000000002
  endloop
endfacet
facet normal -3.289961009435731e-16 -2.134323471926686e-12 1.0
  outer loop
    vertex -114.00131922317125 161.62864579451733 1.0000000002710594
    vertex -109.00131922384507 34.628645794490716 1.0000000000000018
    vertex -109.00131922317127 161.6286457944908 1.0000000002710612
  endloop
endfacet
facet normal 0.23244405257502382 -3.3094591766553292e-12 0.972609768829462
  outer loop
    vertex -107.89951234216235 34.628645794479304 3.61044175752462
    vertex -108.06290583227474 161.6286457944801 3.649491175537484
    vertex -108.0629058329486 34.628645794480065 3.649491175266376
  endloop
endfacet
facet normal 0.23244405257502382 -3.3094591766553292e-12 0.972609768829462
  outer loop
    vertex -108.06290583227474 161.6286457944801 3.649491175537484
    vertex -107.89951234216235 34.628645794479304 3.61044175752462
    vertex -107.8995123414885 161.62864579447935 3.610441757795728
  endloop
endfacet
facet normal 0.10036920294687719 -2.656375659897041e-12 0.9949502616210564
  outer loop
    vertex -108.22854779723072 34.62864579448089 3.6775095536287017
    vertex -108.39569437642362 161.6286457944818 3.6943710691369556
    vertex -108.39569437709748 34.62864579448176 3.6943710688658475
  endloop
endfacet
facet normal 0.10036920294687719 -2.656375659897041e-12 0.9949502616210564
  outer loop
    vertex -108.39569437642362 161.6286457944818 3.6943710691369556
    vertex -108.22854779723072 34.62864579448089 3.6775095536287017
    vertex -108.22854779655682 161.62864579448092 3.6775095538998097
  endloop
endfacet
facet normal 1.1963494053968705e-15 -2.1343234719266938e-12 1.0
  outer loop
    vertex -105.62631922384507 34.62864579447271 1.0000000000000002
    vertex -107.00131922317127 161.62864579448018 1.0000000002710612
    vertex -107.00131922384507 34.62864579448008 1.0000000000000018
  endloop
endfacet
facet normal 1.1963494053968705e-15 -2.1343234719266938e-12 1.0
  outer loop
    vertex -107.00131922317127 161.62864579448018 1.0000000002710612
    vertex -105.62631922384507 34.62864579447271 1.0000000000000002
    vertex -105.62631922317127 161.62864579447282 1.0000000002710594
  endloop
endfacet
facet normal -0.10036920294678968 -1.5912621233325944e-12 0.9949502616210653
  outer loop
    vertex -108.73149553845083 34.628645794483546 3.6943710688658453
    vertex -108.89864211764386 161.6286457944845 3.6775095538998115
    vertex -108.89864211831774 34.62864579448447 3.6775095536287035
  endloop
endfacet
facet normal -0.10036920294678968 -1.5912621233325944e-12 0.9949502616210653
  outer loop
    vertex -108.89864211764386 161.6286457944845 3.6775095538998115
    vertex -108.73149553845083 34.628645794483546 3.6943710688658453
    vertex -108.73149553777698 161.6286457944836 3.6943710691369533
  endloop
endfacet
endsolid v2
