solid v2
facet normal 5.3060239116850186e-12 1.0 2.1559632252349204e-12
  outer loop
    vertex -134.42024601604786 187.02864579451546 2.900000000325318
    vertex -134.00131922303652 187.02864579451733 1.0000000003252731
    vertex -136.00131922303652 187.02864579452793 1.0000000003252731
  endloop
endfacet
facet normal 5.3060239116850186e-12 1.0 2.1559632252349204e-12
  outer loop
    vertex -134.00131922303652 187.02864579451733 1.0000000003252731
    vertex -134.42024601604786 187.02864579451546 2.900000000325318
    vertex -133.45784096216684 187.028645794509 3.5000000003253184
  endloop
endfacet
facet normal 5.3060239116850186e-12 1.0 2.1559632252349204e-12
  outer loop
    vertex -133.45784096216684 187.028645794509 3.5000000003253184
    vertex -134.42024601604786 187.02864579451546 2.900000000325318
    vertex -134.48732679633423 187.02864579451565 2.967453919709164
  endloop
endfacet
facet normal 5.3060239116850186e-12 1.0 2.1559632252349204e-12
  outer loop
    vertex -133.45784096216684 187.028645794509 3.5000000003253184
    vertex -134.48732679633423 187.02864579451565 2.967453919709164
    vertex -134.55826860682112 187.0286457945159 3.0308346884715713
  endloop
endfacet
facet normal 5.3060239116850186e-12 1.0 2.1559632252349204e-12
  outer loop
    vertex -133.45784096216684 187.028645794509 3.5000000003253184
    vertex -134.55826860682112 187.0286457945159 3.0308346884715713
    vertex -134.63282453403255 187.02864579451617 3.0899217093960076
  endloop
endfacet
facet normal 5.3060239116850186e-12 1.0 2.1559632252349204e-12
  outer loop
    vertex -133.45784096216684 187.028645794509 3.5000000003253184
    vertex -134.63282453403255 187.02864579451617 3.0899217093960076
    vertex -134.71073508553332 187.02864579451645 3.144509329685839
  endloop
endfacet
facet normal 5.3060239116850186e-12 1.0 2.1559632252349204e-12
  outer loop
    vertex -133.45784096216684 187.028645794509 3.5000000003253184
    vertex -134.71073508553332 187.02864579451645 3.144509329685839
    vertex -134.79172909309497 187.0286457945168 3.1944075567403423
  endloop
endfacet
facet normal 5.3060239116850186e-12 1.0 2.1559632252349204e-12
  outer loop
    vertex -133.45784096216684 187.028645794509 3.5000000003253184
    vertex -134.79172909309497 187.0286457945168 3.1944075567403423
    vertex -134.87552465649784 187.02864579451708 3.2394427194253055
  endloop
endfacet
facet normal 5.3060239116850186e-12 1.0 2.1559632252349204e-12
  outer loop
    vertex -133.45784096216684 187.028645794509 3.5000000003253184
    vertex -134.87552465649784 187.02864579451708 3.2394427194253055
    vertex -134.9618301246876 187.02864579451747 3.2794580725366558
  endloop
endfacet
facet normal 5.3060239116850186e-12 1.0 2.1559632252349204e-12
  outer loop
    vertex -133.45784096216684 187.028645794509 3.5000000003253184
    vertex -134.9618301246876 187.02864579451747 3.2794580725366558
    vertex -135.0503451108681 187.02864579451787 3.3143143423532404
  endloop
endfacet
facet normal 5.3060239116850186e-12 1.0 2.1559632252349204e-12
  outer loop
    vertex -133.45784096216684 187.028645794509 3.5000000003253184
    vertex -135.0503451108681 187.02864579451787 3.3143143423532404
    vertex -135.14076153800056 187.0286457945183 3.343890211380013
  endloop
endfacet
facet normal 5.3060239116850186e-12 1.0 2.1559632252349204e-12
  outer loop
    vertex -133.45784096216684 187.028645794509 3.5000000003253184
    vertex -135.14076153800056 187.0286457945183 3.343890211380013
    vertex -135.23276471106684 187.02864579451875 3.3680827405944487
  endloop
endfacet
facet normal 5.3060239116850186e-12 1.0 2.1559632252349204e-12
  outer loop
    vertex -133.45784096216684 187.028645794509 3.5000000003253184
    vertex -135.23276471106684 187.02864579451875 3.3680827405944487
    vertex -135.326034412369 187.02864579451918 3.3868077277265183
  endloop
endfacet
facet normal 5.3060239116850186e-12 1.0 2.1559632252349204e-12
  outer loop
    vertex -133.45784096216684 187.028645794509 3.5000000003253184
    vertex -135.326034412369 187.02864579451918 3.3868077277265183
    vertex -135.42024601604783 187.02864579451972 3.4000000003253166
  endloop
endfacet
facet normal 5.3060239116850186e-12 1.0 2.1559632252349204e-12
  outer loop
    vertex -133.45784096216684 187.028645794509 3.5000000003253184
    vertex -135.42024601604783 187.02864579451972 3.4000000003253166
    vertex -135.42024601604786 187.02864579451946 3.500000000325316
  endloop
endfacet
facet normal 5.3060239116850186e-12 1.0 2.1559632252349204e-12
  outer loop
    vertex -133.45784096216684 187.028645794509 3.5000000003253184
    vertex -135.42024601604786 187.02864579451946 3.500000000325316
    vertex -135.26353736144785 187.02864579451852 3.5605366621985124
  endloop
endfacet
facet normal 5.3060239116850186e-12 1.0 2.1559632252349204e-12
  outer loop
    vertex -133.45784096216684 187.028645794509 3.5000000003253184
    vertex -135.26353736144785 187.02864579451852 3.5605366621985124
    vertex -133.61454961676674 187.02864579450977 3.560536662198512
  endloop
endfacet
facet normal 5.3060239116850186e-12 1.0 2.1559632252349204e-12
  outer loop
    vertex -133.61454961676674 187.02864579450977 3.560536662198512
    vertex -135.26353736144785 187.02864579451852 3.5605366621985124
    vertex -133.77496087349556 187.02864579451048 3.6104417578499386
  endloop
endfacet
facet normal 5.3060239116850186e-12 1.0 2.1559632252349204e-12
  outer loop
    vertex -133.77496087349556 187.02864579451048 3.6104417578499386
    vertex -135.26353736144785 187.02864579451852 3.5605366621985124
    vertex -135.10312610471917 187.02864579451756 3.610441757849941
  endloop
endfacet
facet normal 5.3060239116850186e-12 1.0 2.1559632252349204e-12
  outer loop
    vertex -133.77496087349556 187.02864579451048 3.6104417578499386
    vertex -135.10312610471917 187.02864579451756 3.610441757849941
    vertex -133.93835436428176 187.02864579451125 3.6494911755916943
  endloop
endfacet
facet normal 5.3060239116850186e-12 1.0 2.1559632252349204e-12
  outer loop
    vertex -133.93835436428176 187.02864579451125 3.6494911755916943
    vertex -135.10312610471917 187.02864579451756 3.610441757849941
    vertex -134.93973261393293 187.02864579451656 3.6494911755916966
  endloop
endfacet
facet normal 5.3060239116850186e-12 1.0 2.1559632252349204e-12
  outer loop
    vertex -133.93835436428176 187.02864579451125 3.6494911755916943
    vertex -134.93973261393293 187.02864579451656 3.6494911755916966
    vertex -134.10399632856377 187.0286457945121 3.677509553954024
  endloop
endfacet
facet normal 5.3060239116850186e-12 1.0 2.1559632252349204e-12
  outer loop
    vertex -134.10399632856377 187.0286457945121 3.677509553954024
    vertex -134.93973261393293 187.02864579451656 3.6494911755916966
    vertex -134.77409064965082 187.02864579451563 3.677509553954022
  endloop
endfacet
facet normal 5.3060239116850186e-12 1.0 2.1559632252349204e-12
  outer loop
    vertex -134.10399632856377 187.0286457945121 3.677509553954024
    vertex -134.77409064965082 187.02864579451563 3.677509553954022
    vertex -134.60694406978405 187.02864579451472 3.6943710691911678
  endloop
endfacet
facet normal 5.3060239116850186e-12 1.0 2.1559632252349204e-12
  outer loop
    vertex -134.10399632856377 187.0286457945121 3.677509553954024
    vertex -134.60694406978405 187.02864579451472 3.6943710691911678
    vertex -134.2711429084307 187.02864579451295 3.6943710691911655
  endloop
endfacet
facet normal 5.3060239116850186e-12 1.0 2.1559632252349204e-12
  outer loop
    vertex -134.2711429084307 187.02864579451295 3.6943710691911655
    vertex -134.60694406978405 187.02864579451472 3.6943710691911678
    vertex -134.43904348910735 187.02864579451384 3.7000000003253177
  endloop
endfacet
facet normal 5.3060239116850186e-12 1.0 2.1559632252349204e-12
  outer loop
    vertex -137.50131922303652 187.02864579453598 1.0000000003252731
    vertex -127.00131922303652 187.02864579448232 3.2527255888759044e-10
    vertex -136.00131922303652 187.02864579453006 3.2527255888759044e-10
  endloop
endfacet
facet normal 5.3060239116850186e-12 1.0 2.1559632252349204e-12
  outer loop
    vertex -127.00131922303652 187.02864579448232 3.2527255888759044e-10
    vertex -137.50131922303652 187.02864579453598 1.0000000003252731
    vertex -125.62631922303652 187.0286457944728 1.0000000003252731
  endloop
endfacet
facet normal 5.3060239116850186e-12 1.0 2.1559632252349204e-12
  outer loop
    vertex -125.62631922303652 187.0286457944728 1.0000000003252731
    vertex -137.50131922303652 187.02864579453598 1.0000000003252731
    vertex -136.00131922303652 187.02864579452793 1.0000000003252731
  endloop
endfacet
facet normal 5.3060239116850186e-12 1.0 2.1559632252349204e-12
  outer loop
    vertex -125.62631922303652 187.0286457944728 1.0000000003252731
    vertex -136.00131922303652 187.02864579452793 1.0000000003252731
    vertex -134.00131922303652 187.02864579451733 1.0000000003252731
  endloop
endfacet
facet normal 5.3060239116850186e-12 1.0 2.1559632252349204e-12
  outer loop
    vertex -125.62631922303652 187.0286457944728 1.0000000003252731
    vertex -134.00131922303652 187.02864579451733 1.0000000003252731
    vertex -129.00131922303652 187.0286457944908 1.000000000325275
  endloop
endfacet
facet normal 5.3060239116850186e-12 1.0 2.1559632252349204e-12
  outer loop
    vertex -125.62631922303652 187.0286457944728 1.0000000003252731
    vertex -129.00131922303652 187.0286457944908 1.000000000325275
    vertex -127.00131922303652 187.02864579448018 1.000000000325275
  endloop
endfacet
facet normal 5.3060239116850186e-12 1.0 2.1559632252349204e-12
  outer loop
    vertex -127.00131922303652 187.02864579448018 1.000000000325275
    vertex -129.00131922303652 187.0286457944908 1.000000000325275
    vertex -129.5447974839061 187.02864579448828 3.5000000003253198
  endloop
endfacet
facet normal 5.3060239116850186e-12 1.0 2.1559632252349204e-12
  outer loop
    vertex -127.00131922303652 187.02864579448018 1.000000000325275
    vertex -129.5447974839061 187.02864579448828 3.5000000003253198
    vertex -128.58239243002504 187.02864579448448 2.9000000003253192
  endloop
endfacet
facet normal 5.3060239116850186e-12 1.0 2.1559632252349204e-12
  outer loop
    vertex -128.58239243002504 187.02864579448448 2.9000000003253192
    vertex -129.5447974839061 187.02864579448828 3.5000000003253198
    vertex -128.5153116497387 187.02864579448396 2.967453919709164
  endloop
endfacet
facet normal 5.3060239116850186e-12 1.0 2.1559632252349204e-12
  outer loop
    vertex -128.5153116497387 187.02864579448396 2.967453919709164
    vertex -129.5447974839061 187.02864579448828 3.5000000003253198
    vertex -128.4443698392518 187.02864579448345 3.0308346884715713
  endloop
endfacet
facet normal 5.3060239116850186e-12 1.0 2.1559632252349204e-12
  outer loop
    vertex -128.4443698392518 187.02864579448345 3.0308346884715713
    vertex -129.5447974839061 187.02864579448828 3.5000000003253198
    vertex -128.3698139120404 187.02864579448294 3.0899217093960085
  endloop
endfacet
facet normal 5.3060239116850186e-12 1.0 2.1559632252349204e-12
  outer loop
    vertex -128.3698139120404 187.02864579448294 3.0899217093960085
    vertex -129.5447974839061 187.02864579448828 3.5000000003253198
    vertex -128.29190336053952 187.02864579448243 3.14450932968584
  endloop
endfacet
facet normal 5.3060239116850186e-12 1.0 2.1559632252349204e-12
  outer loop
    vertex -128.29190336053952 187.02864579448243 3.14450932968584
    vertex -129.5447974839061 187.02864579448828 3.5000000003253198
    vertex -128.21090935297795 187.0286457944819 3.1944075567403436
  endloop
endfacet
facet normal 5.3060239116850186e-12 1.0 2.1559632252349204e-12
  outer loop
    vertex -128.21090935297795 187.0286457944819 3.1944075567403436
    vertex -129.5447974839061 187.02864579448828 3.5000000003253198
    vertex -128.127113789575 187.0286457944813 3.239442719425307
  endloop
endfacet
facet normal 5.3060239116850186e-12 1.0 2.1559632252349204e-12
  outer loop
    vertex -128.127113789575 187.0286457944813 3.239442719425307
    vertex -129.5447974839061 187.02864579448828 3.5000000003253198
    vertex -128.04080832138536 187.02864579448075 3.2794580725366576
  endloop
endfacet
facet normal 5.3060239116850186e-12 1.0 2.1559632252349204e-12
  outer loop
    vertex -128.04080832138536 187.02864579448075 3.2794580725366576
    vertex -129.5447974839061 187.02864579448828 3.5000000003253198
    vertex -127.95229333520473 187.02864579448024 3.3143143423532413
  endloop
endfacet
facet normal 5.3060239116850186e-12 1.0 2.1559632252349204e-12
  outer loop
    vertex -127.95229333520473 187.02864579448024 3.3143143423532413
    vertex -129.5447974839061 187.02864579448828 3.5000000003253198
    vertex -127.86187690807239 187.02864579447967 3.3438902113800144
  endloop
endfacet
facet normal 5.3060239116850186e-12 1.0 2.1559632252349204e-12
  outer loop
    vertex -127.86187690807239 187.02864579447967 3.3438902113800144
    vertex -129.5447974839061 187.02864579448828 3.5000000003253198
    vertex -127.76987373500599 187.02864579447916 3.36808274059445
  endloop
endfacet
facet normal 5.3060239116850186e-12 1.0 2.1559632252349204e-12
  outer loop
    vertex -127.76987373500599 187.02864579447916 3.36808274059445
    vertex -129.5447974839061 187.02864579448828 3.5000000003253198
    vertex -127.67660403370394 187.0286457944786 3.3868077277265196
  endloop
endfacet
facet normal 5.3060239116850186e-12 1.0 2.1559632252349204e-12
  outer loop
    vertex -127.67660403370394 187.0286457944786 3.3868077277265196
    vertex -129.5447974839061 187.02864579448828 3.5000000003253198
    vertex -127.58239243002508 187.02864579447808 3.400000000325318
  endloop
endfacet
facet normal 5.3060239116850186e-12 1.0 2.1559632252349204e-12
  outer loop
    vertex -127.58239243002508 187.02864579447808 3.400000000325318
    vertex -129.5447974839061 187.02864579448828 3.5000000003253198
    vertex -127.58239243002508 187.02864579447788 3.5000000003253176
  endloop
endfacet
facet normal 5.3060239116850186e-12 1.0 2.1559632252349204e-12
  outer loop
    vertex -127.58239243002508 187.02864579447788 3.5000000003253176
    vertex -129.5447974839061 187.02864579448828 3.5000000003253198
    vertex -127.73910108462505 187.0286457944786 3.560536662198514
  endloop
endfacet
facet normal 5.3060239116850186e-12 1.0 2.1559632252349204e-12
  outer loop
    vertex -127.73910108462505 187.0286457944786 3.560536662198514
    vertex -129.5447974839061 187.02864579448828 3.5000000003253198
    vertex -129.38808882930616 187.02864579448735 3.5605366621985146
  endloop
endfacet
facet normal 5.3060239116850186e-12 1.0 2.1559632252349204e-12
  outer loop
    vertex -127.73910108462505 187.0286457944786 3.560536662198514
    vertex -129.38808882930616 187.02864579448735 3.5605366621985146
    vertex -127.89951234135376 187.02864579447936 3.610441757849942
  endloop
endfacet
facet normal 5.3060239116850186e-12 1.0 2.1559632252349204e-12
  outer loop
    vertex -127.89951234135376 187.02864579447936 3.610441757849942
    vertex -129.38808882930616 187.02864579448735 3.5605366621985146
    vertex -129.22767757257736 187.02864579448635 3.61044175784994
  endloop
endfacet
facet normal 5.3060239116850186e-12 1.0 2.1559632252349204e-12
  outer loop
    vertex -127.89951234135376 187.02864579447936 3.610441757849942
    vertex -129.22767757257736 187.02864579448635 3.61044175784994
    vertex -129.0642840817912 187.02864579448539 3.6494911755916966
  endloop
endfacet
facet normal 5.3060239116850186e-12 1.0 2.1559632252349204e-12
  outer loop
    vertex -127.89951234135376 187.02864579447936 3.610441757849942
    vertex -129.0642840817912 187.02864579448539 3.6494911755916966
    vertex -128.06290583214 187.0286457944801 3.649491175591698
  endloop
endfacet
facet normal 5.3060239116850186e-12 1.0 2.1559632252349204e-12
  outer loop
    vertex -128.06290583214 187.0286457944801 3.649491175591698
    vertex -129.0642840817912 187.02864579448539 3.6494911755916966
    vertex -128.89864211750913 187.0286457944845 3.6775095539540255
  endloop
endfacet
facet normal 5.3060239116850186e-12 1.0 2.1559632252349204e-12
  outer loop
    vertex -128.06290583214 187.0286457944801 3.649491175591698
    vertex -128.89864211750913 187.0286457944845 3.6775095539540255
    vertex -128.22854779642208 187.02864579448092 3.6775095539540232
  endloop
endfacet
facet normal 5.3060239116850186e-12 1.0 2.1559632252349204e-12
  outer loop
    vertex -128.22854779642208 187.02864579448092 3.6775095539540232
    vertex -128.89864211750913 187.0286457944845 3.6775095539540255
    vertex -128.39569437628887 187.02864579448178 3.694371069191169
  endloop
endfacet
facet normal 5.3060239116850186e-12 1.0 2.1559632252349204e-12
  outer loop
    vertex -128.39569437628887 187.02864579448178 3.694371069191169
    vertex -128.89864211750913 187.0286457944845 3.6775095539540255
    vertex -128.73149553764225 187.0286457944836 3.6943710691911673
  endloop
endfacet
facet normal 5.3060239116850186e-12 1.0 2.1559632252349204e-12
  outer loop
    vertex -128.39569437628887 187.02864579448178 3.694371069191169
    vertex -128.73149553764225 187.0286457944836 3.6943710691911673
    vertex -128.5635949569656 187.02864579448266 3.7000000003253195
  endloop
endfacet
facet normal 0.23244405257509465 -3.3093933935433333e-12 0.972609768829445
  outer loop
    vertex -133.77496087430418 34.62864579451043 3.6104417575246166
    vertex -133.93835436428176 187.02864579451125 3.6494911755916943
    vertex -133.93835436509036 34.6286457945112 3.6494911752663723
  endloop
endfacet
facet normal 0.23244405257509465 -3.3093933935433333e-12 0.972609768829445
  outer loop
    vertex -133.93835436428176 187.02864579451125 3.6494911755916943
    vertex -133.77496087430418 34.62864579451043 3.6104417575246166
    vertex -133.77496087349556 187.02864579451048 3.6104417578499386
  endloop
endfacet
facet normal 0.10036920294677178 -2.6563159207379804e-12 0.994950261621067
  outer loop
    vertex -134.10399632937242 34.62864579451207 3.677509553628702
    vertex -134.2711429084307 187.02864579451295 3.6943710691911655
    vertex -134.2711429092393 34.62864579451292 3.694371068865844
  endloop
endfacet
facet normal 0.10036920294677178 -2.6563159207379804e-12 0.994950261621067
  outer loop
    vertex -134.2711429084307 187.02864579451295 3.6943710691911655
    vertex -134.10399632937242 34.62864579451207 3.677509553628702
    vertex -134.10399632856377 187.0286457945121 3.677509553954024
  endloop
endfacet
facet normal -0.16678111454024425 -1.2197401540879356e-12 0.9859939451298441
  outer loop
    vertex -134.77409065045944 34.628645794515585 3.6775095536287
    vertex -134.93973261393293 187.02864579451656 3.6494911755916966
    vertex -134.9397326147416 34.62864579451652 3.6494911752663746
  endloop
endfacet
facet normal -0.16678111454024425 -1.2197401540879356e-12 0.9859939451298441
  outer loop
    vertex -134.93973261393293 187.02864579451656 3.6494911755916966
    vertex -134.77409065045944 34.628645794515585 3.6775095536287
    vertex -134.77409064965082 187.02864579451563 3.677509553954022
  endloop
endfacet
facet normal 0.36034819029139836 -3.903090851475344e-12 0.9328178716950669
  outer loop
    vertex -133.45784096297544 34.62864579450896 3.4999999999999964
    vertex -133.61454961676674 187.02864579450977 3.560536662198512
    vertex -133.61454961757536 34.628645794509715 3.56053666187319
  endloop
endfacet
facet normal 0.36034819029139836 -3.903090851475344e-12 0.9328178716950669
  outer loop
    vertex -133.61454961676674 187.02864579450977 3.560536662198512
    vertex -133.45784096297544 34.62864579450896 3.4999999999999964
    vertex -133.45784096216684 187.028645794509 3.5000000003253184
  endloop
endfacet
facet normal -0.13867514562948624 2.8497148065615156e-12 -0.9903379241373325
  outer loop
    vertex -135.42024601604783 187.02864579451972 3.4000000003253166
    vertex -135.3260344131776 34.62864579451913 3.3868077274011963
    vertex -135.42024601685645 34.62864579451965 3.3999999999999946
  endloop
endfacet
facet normal -0.13867514562948624 2.8497148065615156e-12 -0.9903379241373325
  outer loop
    vertex -135.3260344131776 34.62864579451913 3.3868077274011963
    vertex -135.42024601604783 187.02864579451972 3.4000000003253166
    vertex -135.326034412369 187.02864579451918 3.3868077277265183
  endloop
endfacet
facet normal -0.1968341919861434 3.1371712072656895e-12 -0.9804367908565865
  outer loop
    vertex -135.326034412369 187.02864579451918 3.3868077277265183
    vertex -135.2327647118755 34.6286457945187 3.3680827402691267
    vertex -135.3260344131776 34.62864579451913 3.3868077274011963
  endloop
endfacet
facet normal -0.1968341919861434 3.1371712072656895e-12 -0.9804367908565865
  outer loop
    vertex -135.2327647118755 34.6286457945187 3.3680827402691267
    vertex -135.326034412369 187.02864579451918 3.3868077277265183
    vertex -135.23276471106684 187.02864579451875 3.3680827405944487
  endloop
endfacet
facet normal -0.25430815553814895 3.4137144434672883e-12 -0.9671232403508793
  outer loop
    vertex -135.23276471106684 187.02864579451875 3.3680827405944487
    vertex -135.1407615388092 34.62864579451824 3.343890211054691
    vertex -135.2327647118755 34.6286457945187 3.3680827402691267
  endloop
endfacet
facet normal -0.25430815553814895 3.4137144434672883e-12 -0.9671232403508793
  outer loop
    vertex -135.1407615388092 34.62864579451824 3.343890211054691
    vertex -135.23276471106684 187.02864579451875 3.3680827405944487
    vertex -135.14076153800056 187.0286457945183 3.343890211380013
  endloop
endfacet
facet normal -0.31089699774496493 3.678366366843734e-12 -0.9504436105278248
  outer loop
    vertex -135.14076153800056 187.0286457945183 3.343890211380013
    vertex -135.05034511167676 34.628645794517844 3.3143143420279184
    vertex -135.1407615388092 34.62864579451824 3.343890211054691
  endloop
endfacet
facet normal -0.31089699774496493 3.678366366843734e-12 -0.9504436105278248
  outer loop
    vertex -135.05034511167676 34.628645794517844 3.3143143420279184
    vertex -135.14076153800056 187.0286457945183 3.343890211380013
    vertex -135.0503451108681 187.02864579451787 3.3143143423532404
  endloop
endfacet
facet normal -0.36640376074051373 3.930215691474584e-12 -0.9304559549571426
  outer loop
    vertex -135.0503451108681 187.02864579451787 3.3143143423532404
    vertex -134.96183012549622 34.62864579451743 3.2794580722113342
    vertex -135.05034511167676 34.628645794517844 3.3143143420279184
  endloop
endfacet
facet normal -0.36640376074051373 3.930215691474584e-12 -0.9304559549571426
  outer loop
    vertex -134.96183012549622 34.62864579451743 3.2794580722113342
    vertex -135.0503451108681 187.02864579451787 3.3143143423532404
    vertex -134.9618301246876 187.02864579451747 3.2794580725366558
  endloop
endfacet
facet normal -0.42063525283965947 4.168364793158437e-12 -0.9072298408168217
  outer loop
    vertex -134.9618301246876 187.02864579451747 3.2794580725366558
    vertex -134.87552465730647 34.62864579451705 3.2394427190999835
    vertex -134.96183012549622 34.62864579451743 3.2794580722113342
  endloop
endfacet
facet normal -0.42063525283965947 4.168364793158437e-12 -0.9072298408168217
  outer loop
    vertex -134.87552465730647 34.62864579451705 3.2394427190999835
    vertex -134.9618301246876 187.02864579451747 3.2794580725366558
    vertex -134.87552465649784 187.02864579451708 3.2394427194253055
  endloop
endfacet
facet normal -0.47340272094971786 4.3920005028653296e-12 -0.8808461067617905
  outer loop
    vertex -134.87552465649784 187.02864579451708 3.2394427194253055
    vertex -134.7917290939036 34.62864579451674 3.1944075564150203
    vertex -134.87552465730647 34.62864579451705 3.2394427190999835
  endloop
endfacet
facet normal -0.47340272094971786 4.3920005028653296e-12 -0.8808461067617905
  outer loop
    vertex -134.7917290939036 34.62864579451674 3.1944075564150203
    vertex -134.87552465649784 187.02864579451708 3.2394427194253055
    vertex -134.79172909309497 187.0286457945168 3.1944075567403423
  endloop
endfacet
facet normal -0.5245225075213171 4.600371579993589e-12 -0.8513965815667515
  outer loop
    vertex -134.79172909309497 187.0286457945168 3.1944075567403423
    vertex -134.71073508634194 34.6286457945164 3.144509329360517
    vertex -134.7917290939036 34.62864579451674 3.1944075564150203
  endloop
endfacet
facet normal -0.5245225075213171 4.600371579993589e-12 -0.8513965815667515
  outer loop
    vertex -134.71073508634194 34.6286457945164 3.144509329360517
    vertex -134.79172909309497 187.0286457945168 3.1944075567403423
    vertex -134.71073508553332 187.02864579451645 3.144509329685839
  endloop
endfacet
facet normal 0.977176363922793 -4.731197819591382e-12 -0.2124296443310807
  outer loop
    vertex -134.0013192238451 34.62864579451721 1.0000000000000002
    vertex -133.45784096216684 187.028645794509 3.5000000003253184
    vertex -133.45784096297544 34.62864579450896 3.4999999999999964
  endloop
endfacet
facet normal 0.977176363922793 -4.731197819591382e-12 -0.2124296443310807
  outer loop
    vertex -133.45784096216684 187.028645794509 3.5000000003253184
    vertex -134.0013192238451 34.62864579451721 1.0000000000000002
    vertex -134.00131922303652 187.02864579451733 1.0000000003252731
  endloop
endfacet
facet normal 0.03350655759174985 -2.3111372855574938e-12 0.9994384976567346
  outer loop
    vertex -134.2711429092393 34.62864579451292 3.694371068865844
    vertex -134.43904348910735 187.02864579451384 3.7000000003253177
    vertex -134.439043489916 34.62864579451377 3.699999999999996
  endloop
endfacet
facet normal 0.03350655759174985 -2.3111372855574938e-12 0.9994384976567346
  outer loop
    vertex -134.43904348910735 187.02864579451384 3.7000000003253177
    vertex -134.2711429092393 34.62864579451292 3.694371068865844
    vertex -134.2711429084307 187.02864579451295 3.6943710691911655
  endloop
endfacet
facet normal -0.2324440525750542 -8.427723287464616e-13 0.9726097688294549
  outer loop
    vertex -134.9397326147416 34.62864579451652 3.6494911752663746
    vertex -135.10312610471917 187.02864579451756 3.610441757849941
    vertex -135.1031261055278 34.62864579451752 3.610441757524619
  endloop
endfacet
facet normal -0.2324440525750542 -8.427723287464616e-13 0.9726097688294549
  outer loop
    vertex -135.10312610471917 187.02864579451756 3.610441757849941
    vertex -134.9397326147416 34.62864579451652 3.6494911752663746
    vertex -134.93973261393293 187.02864579451656 3.6494911755916966
  endloop
endfacet
facet normal -0.9771763639227984 5.637987921061162e-12 -0.2124296443310554
  outer loop
    vertex -129.5447974839061 187.02864579448828 3.5000000003253198
    vertex -129.0013192238451 34.628645794490716 1.0000000000000018
    vertex -129.5447974847147 34.628645794488236 3.499999999999998
  endloop
endfacet
facet normal -0.9771763639227984 5.637987921061162e-12 -0.2124296443310554
  outer loop
    vertex -129.0013192238451 34.628645794490716 1.0000000000000018
    vertex -129.5447974839061 187.02864579448828 3.5000000003253198
    vertex -129.00131922303652 187.0286457944908 1.000000000325275
  endloop
endfacet
facet normal -0.033506557591725286 -1.9555748576688548e-12 0.9994384976567355
  outer loop
    vertex -134.439043489916 34.62864579451377 3.699999999999996
    vertex -134.60694406978405 187.02864579451472 3.6943710691911678
    vertex -134.60694407059268 34.6286457945147 3.6943710688658458
  endloop
endfacet
facet normal -0.033506557591725286 -1.9555748576688548e-12 0.9994384976567355
  outer loop
    vertex -134.60694406978405 187.02864579451472 3.6943710691911678
    vertex -134.439043489916 34.62864579451377 3.699999999999996
    vertex -134.43904348910735 187.02864579451384 3.7000000003253177
  endloop
endfacet
facet normal -0.10036920294689508 -1.5912354544068057e-12 0.9949502616210547
  outer loop
    vertex -134.60694407059268 34.6286457945147 3.6943710688658458
    vertex -134.77409064965082 187.02864579451563 3.677509553954022
    vertex -134.77409065045944 34.628645794515585 3.6775095536287
  endloop
endfacet
facet normal -0.10036920294689508 -1.5912354544068057e-12 0.9949502616210547
  outer loop
    vertex -134.77409064965082 187.02864579451563 3.677509553954022
    vertex -134.60694407059268 34.6286457945147 3.6943710688658458
    vertex -134.60694406978405 187.02864579451472 3.6943710691911678
  endloop
endfacet
facet normal -0.29706314071269835 -4.620198105349302e-13 0.954857837811424
  outer loop
    vertex -135.1031261055278 34.62864579451752 3.610441757524619
    vertex -135.26353736144785 187.02864579451852 3.5605366621985124
    vertex -135.26353736225647 34.62864579451848 3.560536661873191
  endloop
endfacet
facet normal -0.29706314071269835 -4.620198105349302e-13 0.954857837811424
  outer loop
    vertex -135.26353736144785 187.02864579451852 3.5605366621985124
    vertex -135.1031261055278 34.62864579451752 3.610441757524619
    vertex -135.10312610471917 187.02864579451756 3.610441757849941
  endloop
endfacet
facet normal 0.2970631407124622 -3.614372628510206e-12 0.9548578378114975
  outer loop
    vertex -133.61454961757536 34.628645794509715 3.56053666187319
    vertex -133.77496087349556 187.02864579451048 3.6104417578499386
    vertex -133.77496087430418 34.62864579451043 3.6104417575246166
  endloop
endfacet
facet normal 0.2970631407124622 -3.614372628510206e-12 0.9548578378114975
  outer loop
    vertex -133.77496087349556 187.02864579451048 3.6104417578499386
    vertex -133.61454961757536 34.628645794509715 3.56053666187319
    vertex -133.61454961676674 187.02864579450977 3.560536662198512
  endloop
endfacet
facet normal -0.36034819029120224 -7.919246811757236e-14 0.9328178716951427
  outer loop
    vertex -135.26353736225647 34.62864579451848 3.560536661873191
    vertex -135.42024601604786 187.02864579451946 3.500000000325316
    vertex -135.42024601685648 34.628645794519436 3.4999999999999942
  endloop
endfacet
facet normal -0.36034819029120224 -7.919246811757236e-14 0.9328178716951427
  outer loop
    vertex -135.42024601604786 187.02864579451946 3.500000000325316
    vertex -135.26353736225647 34.62864579451848 3.560536661873191
    vertex -135.26353736144785 187.02864579451852 3.5605366621985124
  endloop
endfacet
facet normal -1.0 5.305863275622451e-12 -4.511946371956372e-13
  outer loop
    vertex -135.42024601604786 187.02864579451946 3.500000000325316
    vertex -135.42024601685645 34.62864579451965 3.3999999999999946
    vertex -135.42024601685648 34.628645794519436 3.4999999999999942
  endloop
endfacet
facet normal -1.0 5.305863275622451e-12 -4.511946371956372e-13
  outer loop
    vertex -135.42024601685645 34.62864579451965 3.3999999999999946
    vertex -135.42024601604786 187.02864579451946 3.500000000325316
    vertex -135.42024601604783 187.02864579451972 3.4000000003253166
  endloop
endfacet
facet normal 0.16678111454037176 -2.989567377978227e-12 0.9859939451298226
  outer loop
    vertex -133.93835436509036 34.6286457945112 3.6494911752663723
    vertex -134.10399632856377 187.0286457945121 3.677509553954024
    vertex -134.10399632937242 34.62864579451207 3.677509553628702
  endloop
endfacet
facet normal 0.16678111454037176 -2.989567377978227e-12 0.9859939451298226
  outer loop
    vertex -134.10399632856377 187.0286457945121 3.677509553954024
    vertex -133.93835436509036 34.6286457945112 3.6494911752663723
    vertex -133.93835436428176 187.02864579451125 3.6494911755916943
  endloop
endfacet
facet normal -5.305809036297161e-12 -1.0 -2.133769068633304e-12
  outer loop
    vertex -127.00131922384509 34.62864579448008 1.0000000000000018
    vertex -134.0013192238451 34.62864579451721 1.0000000000000002
    vertex -125.62631922384509 34.62864579447271 1.0000000000000002
  endloop
endfacet
facet normal -5.305809036297161e-12 -1.0 -2.133769068633304e-12
  outer loop
    vertex -134.0013192238451 34.62864579451721 1.0000000000000002
    vertex -127.00131922384509 34.62864579448008 1.0000000000000018
    vertex -129.0013192238451 34.628645794490716 1.0000000000000018
  endloop
endfacet
facet normal -5.305809036297161e-12 -1.0 -2.133769068633304e-12
  outer loop
    vertex -129.0013192238451 34.628645794490716 1.0000000000000018
    vertex -127.00131922384509 34.62864579448008 1.0000000000000018
    vertex -128.58239243083364 34.62864579448445 2.8999999999999972
  endloop
endfacet
facet normal -5.305809036297161e-12 -1.0 -2.133769068633304e-12
  outer loop
    vertex -129.0013192238451 34.628645794490716 1.0000000000000018
    vertex -128.58239243083364 34.62864579448445 2.8999999999999972
    vertex -129.5447974847147 34.628645794488236 3.499999999999998
  endloop
endfacet
facet normal -5.305809036297161e-12 -1.0 -2.133769068633304e-12
  outer loop
    vertex -129.5447974847147 34.628645794488236 3.499999999999998
    vertex -128.58239243083364 34.62864579448445 2.8999999999999972
    vertex -128.51531165054732 34.62864579448392 2.9674539193838414
  endloop
endfacet
facet normal -5.305809036297161e-12 -1.0 -2.133769068633304e-12
  outer loop
    vertex -129.5447974847147 34.628645794488236 3.499999999999998
    vertex -128.51531165054732 34.62864579448392 2.9674539193838414
    vertex -128.44436984006043 34.62864579448343 3.030834688146249
  endloop
endfacet
facet normal -5.305809036297161e-12 -1.0 -2.133769068633304e-12
  outer loop
    vertex -129.5447974847147 34.628645794488236 3.499999999999998
    vertex -128.44436984006043 34.62864579448343 3.030834688146249
    vertex -128.369813912849 34.628645794482914 3.089921709070686
  endloop
endfacet
facet normal -5.305809036297161e-12 -1.0 -2.133769068633304e-12
  outer loop
    vertex -129.5447974847147 34.628645794488236 3.499999999999998
    vertex -128.369813912849 34.628645794482914 3.089921709070686
    vertex -128.29190336134815 34.62864579448236 3.1445093293605177
  endloop
endfacet
facet normal -5.305809036297161e-12 -1.0 -2.133769068633304e-12
  outer loop
    vertex -129.5447974847147 34.628645794488236 3.499999999999998
    vertex -128.29190336134815 34.62864579448236 3.1445093293605177
    vertex -128.21090935378658 34.62864579448182 3.194407556415022
  endloop
endfacet
facet normal -5.305809036297161e-12 -1.0 -2.133769068633304e-12
  outer loop
    vertex -129.5447974847147 34.628645794488236 3.499999999999998
    vertex -128.21090935378658 34.62864579448182 3.194407556415022
    vertex -128.12711379038365 34.62864579448126 3.239442719099985
  endloop
endfacet
facet normal -5.305809036297161e-12 -1.0 -2.133769068633304e-12
  outer loop
    vertex -129.5447974847147 34.628645794488236 3.499999999999998
    vertex -128.12711379038365 34.62864579448126 3.239442719099985
    vertex -128.04080832219395 34.62864579448071 3.2794580722113356
  endloop
endfacet
facet normal -5.305809036297161e-12 -1.0 -2.133769068633304e-12
  outer loop
    vertex -129.5447974847147 34.628645794488236 3.499999999999998
    vertex -128.04080832219395 34.62864579448071 3.2794580722113356
    vertex -127.95229333601337 34.62864579448019 3.3143143420279193
  endloop
endfacet
facet normal -5.305809036297161e-12 -1.0 -2.133769068633304e-12
  outer loop
    vertex -129.5447974847147 34.628645794488236 3.499999999999998
    vertex -127.95229333601337 34.62864579448019 3.3143143420279193
    vertex -127.861876908881 34.6286457944796 3.3438902110546924
  endloop
endfacet
facet normal -5.305809036297161e-12 -1.0 -2.133769068633304e-12
  outer loop
    vertex -129.5447974847147 34.628645794488236 3.499999999999998
    vertex -127.861876908881 34.6286457944796 3.3438902110546924
    vertex -127.76987373581461 34.628645794479105 3.368082740269128
  endloop
endfacet
facet normal -5.305809036297161e-12 -1.0 -2.133769068633304e-12
  outer loop
    vertex -129.5447974847147 34.628645794488236 3.499999999999998
    vertex -127.76987373581461 34.628645794479105 3.368082740269128
    vertex -127.67660403451254 34.628645794478544 3.386807727401198
  endloop
endfacet
facet normal -5.305809036297161e-12 -1.0 -2.133769068633304e-12
  outer loop
    vertex -129.5447974847147 34.628645794488236 3.499999999999998
    vertex -127.67660403451254 34.628645794478544 3.386807727401198
    vertex -127.5823924308337 34.62864579447807 3.399999999999996
  endloop
endfacet
facet normal -5.305809036297161e-12 -1.0 -2.133769068633304e-12
  outer loop
    vertex -129.5447974847147 34.628645794488236 3.499999999999998
    vertex -127.5823924308337 34.62864579447807 3.399999999999996
    vertex -127.5823924308337 34.628645794477855 3.4999999999999956
  endloop
endfacet
facet normal -5.305809036297161e-12 -1.0 -2.133769068633304e-12
  outer loop
    vertex -129.5447974847147 34.628645794488236 3.499999999999998
    vertex -127.5823924308337 34.628645794477855 3.4999999999999956
    vertex -127.73910108543367 34.62864579447854 3.560536661873192
  endloop
endfacet
facet normal -5.305809036297161e-12 -1.0 -2.133769068633304e-12
  outer loop
    vertex -129.5447974847147 34.628645794488236 3.499999999999998
    vertex -127.73910108543367 34.62864579447854 3.560536661873192
    vertex -129.38808883011478 34.628645794487326 3.5605366618731926
  endloop
endfacet
facet normal -5.305809036297161e-12 -1.0 -2.133769068633304e-12
  outer loop
    vertex -129.38808883011478 34.628645794487326 3.5605366618731926
    vertex -127.73910108543367 34.62864579447854 3.560536661873192
    vertex -127.89951234216237 34.628645794479304 3.61044175752462
  endloop
endfacet
facet normal -5.305809036297161e-12 -1.0 -2.133769068633304e-12
  outer loop
    vertex -129.38808883011478 34.628645794487326 3.5605366618731926
    vertex -127.89951234216237 34.628645794479304 3.61044175752462
    vertex -129.22767757338596 34.62864579448632 3.610441757524618
  endloop
endfacet
facet normal -5.305809036297161e-12 -1.0 -2.133769068633304e-12
  outer loop
    vertex -129.22767757338596 34.62864579448632 3.610441757524618
    vertex -127.89951234216237 34.628645794479304 3.61044175752462
    vertex -129.06428408259978 34.628645794485365 3.6494911752663746
  endloop
endfacet
facet normal -5.305809036297161e-12 -1.0 -2.133769068633304e-12
  outer loop
    vertex -129.06428408259978 34.628645794485365 3.6494911752663746
    vertex -127.89951234216237 34.628645794479304 3.61044175752462
    vertex -128.06290583294862 34.628645794480065 3.649491175266376
  endloop
endfacet
facet normal -5.305809036297161e-12 -1.0 -2.133769068633304e-12
  outer loop
    vertex -129.06428408259978 34.628645794485365 3.6494911752663746
    vertex -128.06290583294862 34.628645794480065 3.649491175266376
    vertex -128.89864211831775 34.62864579448447 3.6775095536287035
  endloop
endfacet
facet normal -5.305809036297161e-12 -1.0 -2.133769068633304e-12
  outer loop
    vertex -128.89864211831775 34.62864579448447 3.6775095536287035
    vertex -128.06290583294862 34.628645794480065 3.649491175266376
    vertex -128.22854779723073 34.62864579448089 3.6775095536287017
  endloop
endfacet
facet normal -5.305809036297161e-12 -1.0 -2.133769068633304e-12
  outer loop
    vertex -128.89864211831775 34.62864579448447 3.6775095536287035
    vertex -128.22854779723073 34.62864579448089 3.6775095536287017
    vertex -128.3956943770975 34.62864579448176 3.6943710688658475
  endloop
endfacet
facet normal -5.305809036297161e-12 -1.0 -2.133769068633304e-12
  outer loop
    vertex -128.89864211831775 34.62864579448447 3.6775095536287035
    vertex -128.3956943770975 34.62864579448176 3.6943710688658475
    vertex -128.73149553845084 34.628645794483546 3.6943710688658453
  endloop
endfacet
facet normal -5.305809036297161e-12 -1.0 -2.133769068633304e-12
  outer loop
    vertex -128.73149553845084 34.628645794483546 3.6943710688658453
    vertex -128.3956943770975 34.62864579448176 3.6943710688658475
    vertex -128.56359495777423 34.62864579448262 3.6999999999999975
  endloop
endfacet
facet normal -5.305809036297161e-12 -1.0 -2.133769068633304e-12
  outer loop
    vertex -133.45784096297544 34.62864579450896 3.4999999999999964
    vertex -136.00131922384506 34.62864579452785 1.0000000000000002
    vertex -134.0013192238451 34.62864579451721 1.0000000000000002
  endloop
endfacet
facet normal -5.305809036297161e-12 -1.0 -2.133769068633304e-12
  outer loop
    vertex -136.00131922384506 34.62864579452785 1.0000000000000002
    vertex -133.45784096297544 34.62864579450896 3.4999999999999964
    vertex -134.42024601685645 34.62864579451538 2.899999999999996
  endloop
endfacet
facet normal -5.305809036297161e-12 -1.0 -2.133769068633304e-12
  outer loop
    vertex -134.42024601685645 34.62864579451538 2.899999999999996
    vertex -133.45784096297544 34.62864579450896 3.4999999999999964
    vertex -134.48732679714288 34.62864579451559 2.9674539193838414
  endloop
endfacet
facet normal -5.305809036297161e-12 -1.0 -2.133769068633304e-12
  outer loop
    vertex -134.48732679714288 34.62864579451559 2.9674539193838414
    vertex -133.45784096297544 34.62864579450896 3.4999999999999964
    vertex -134.55826860762977 34.628645794515855 3.030834688146249
  endloop
endfacet
facet normal -5.305809036297161e-12 -1.0 -2.133769068633304e-12
  outer loop
    vertex -134.55826860762977 34.628645794515855 3.030834688146249
    vertex -133.45784096297544 34.62864579450896 3.4999999999999964
    vertex -134.63282453484118 34.6286457945161 3.089921709070685
  endloop
endfacet
facet normal -5.305809036297161e-12 -1.0 -2.133769068633304e-12
  outer loop
    vertex -134.63282453484118 34.6286457945161 3.089921709070685
    vertex -133.45784096297544 34.62864579450896 3.4999999999999964
    vertex -134.71073508634194 34.6286457945164 3.144509329360517
  endloop
endfacet
facet normal -5.305809036297161e-12 -1.0 -2.133769068633304e-12
  outer loop
    vertex -134.71073508634194 34.6286457945164 3.144509329360517
    vertex -133.45784096297544 34.62864579450896 3.4999999999999964
    vertex -134.7917290939036 34.62864579451674 3.1944075564150203
  endloop
endfacet
facet normal -5.305809036297161e-12 -1.0 -2.133769068633304e-12
  outer loop
    vertex -134.7917290939036 34.62864579451674 3.1944075564150203
    vertex -133.45784096297544 34.62864579450896 3.4999999999999964
    vertex -134.87552465730647 34.62864579451705 3.2394427190999835
  endloop
endfacet
facet normal -5.305809036297161e-12 -1.0 -2.133769068633304e-12
  outer loop
    vertex -134.87552465730647 34.62864579451705 3.2394427190999835
    vertex -133.45784096297544 34.62864579450896 3.4999999999999964
    vertex -134.96183012549622 34.62864579451743 3.2794580722113342
  endloop
endfacet
facet normal -5.305809036297161e-12 -1.0 -2.133769068633304e-12
  outer loop
    vertex -134.96183012549622 34.62864579451743 3.2794580722113342
    vertex -133.45784096297544 34.62864579450896 3.4999999999999964
    vertex -135.05034511167676 34.628645794517844 3.3143143420279184
  endloop
endfacet
facet normal -5.305809036297161e-12 -1.0 -2.133769068633304e-12
  outer loop
    vertex -135.05034511167676 34.628645794517844 3.3143143420279184
    vertex -133.45784096297544 34.62864579450896 3.4999999999999964
    vertex -135.1407615388092 34.62864579451824 3.343890211054691
  endloop
endfacet
facet normal -5.305809036297161e-12 -1.0 -2.133769068633304e-12
  outer loop
    vertex -135.1407615388092 34.62864579451824 3.343890211054691
    vertex -133.45784096297544 34.62864579450896 3.4999999999999964
    vertex -135.2327647118755 34.6286457945187 3.3680827402691267
  endloop
endfacet
facet normal -5.305809036297161e-12 -1.0 -2.133769068633304e-12
  outer loop
    vertex -135.2327647118755 34.6286457945187 3.3680827402691267
    vertex -133.45784096297544 34.62864579450896 3.4999999999999964
    vertex -135.3260344131776 34.62864579451913 3.3868077274011963
  endloop
endfacet
facet normal -5.305809036297161e-12 -1.0 -2.133769068633304e-12
  outer loop
    vertex -135.3260344131776 34.62864579451913 3.3868077274011963
    vertex -133.45784096297544 34.62864579450896 3.4999999999999964
    vertex -135.42024601685645 34.62864579451965 3.3999999999999946
  endloop
endfacet
facet normal -5.305809036297161e-12 -1.0 -2.133769068633304e-12
  outer loop
    vertex -135.42024601685645 34.62864579451965 3.3999999999999946
    vertex -133.45784096297544 34.62864579450896 3.4999999999999964
    vertex -135.42024601685648 34.628645794519436 3.4999999999999942
  endloop
endfacet
facet normal -5.305809036297161e-12 -1.0 -2.133769068633304e-12
  outer loop
    vertex -135.42024601685648 34.628645794519436 3.4999999999999942
    vertex -133.45784096297544 34.62864579450896 3.4999999999999964
    vertex -135.26353736225647 34.62864579451848 3.560536661873191
  endloop
endfacet
facet normal -5.305809036297161e-12 -1.0 -2.133769068633304e-12
  outer loop
    vertex -135.26353736225647 34.62864579451848 3.560536661873191
    vertex -133.45784096297544 34.62864579450896 3.4999999999999964
    vertex -133.61454961757536 34.628645794509715 3.56053666187319
  endloop
endfacet
facet normal -5.305809036297161e-12 -1.0 -2.133769068633304e-12
  outer loop
    vertex -135.26353736225647 34.62864579451848 3.560536661873191
    vertex -133.61454961757536 34.628645794509715 3.56053666187319
    vertex -133.77496087430418 34.62864579451043 3.6104417575246166
  endloop
endfacet
facet normal -5.305809036297161e-12 -1.0 -2.133769068633304e-12
  outer loop
    vertex -135.26353736225647 34.62864579451848 3.560536661873191
    vertex -133.77496087430418 34.62864579451043 3.6104417575246166
    vertex -135.1031261055278 34.62864579451752 3.610441757524619
  endloop
endfacet
facet normal -5.305809036297161e-12 -1.0 -2.133769068633304e-12
  outer loop
    vertex -135.1031261055278 34.62864579451752 3.610441757524619
    vertex -133.77496087430418 34.62864579451043 3.6104417575246166
    vertex -133.93835436509036 34.6286457945112 3.6494911752663723
  endloop
endfacet
facet normal -5.305809036297161e-12 -1.0 -2.133769068633304e-12
  outer loop
    vertex -135.1031261055278 34.62864579451752 3.610441757524619
    vertex -133.93835436509036 34.6286457945112 3.6494911752663723
    vertex -134.9397326147416 34.62864579451652 3.6494911752663746
  endloop
endfacet
facet normal -5.305809036297161e-12 -1.0 -2.133769068633304e-12
  outer loop
    vertex -134.9397326147416 34.62864579451652 3.6494911752663746
    vertex -133.93835436509036 34.6286457945112 3.6494911752663723
    vertex -134.10399632937242 34.62864579451207 3.677509553628702
  endloop
endfacet
facet normal -5.305809036297161e-12 -1.0 -2.133769068633304e-12
  outer loop
    vertex -134.9397326147416 34.62864579451652 3.6494911752663746
    vertex -134.10399632937242 34.62864579451207 3.677509553628702
    vertex -134.77409065045944 34.628645794515585 3.6775095536287
  endloop
endfacet
facet normal -5.305809036297161e-12 -1.0 -2.133769068633304e-12
  outer loop
    vertex -134.77409065045944 34.628645794515585 3.6775095536287
    vertex -134.10399632937242 34.62864579451207 3.677509553628702
    vertex -134.60694407059268 34.6286457945147 3.6943710688658458
  endloop
endfacet
facet normal -5.305809036297161e-12 -1.0 -2.133769068633304e-12
  outer loop
    vertex -134.60694407059268 34.6286457945147 3.6943710688658458
    vertex -134.10399632937242 34.62864579451207 3.677509553628702
    vertex -134.2711429092393 34.62864579451292 3.694371068865844
  endloop
endfacet
facet normal -5.305809036297161e-12 -1.0 -2.133769068633304e-12
  outer loop
    vertex -134.60694407059268 34.6286457945147 3.6943710688658458
    vertex -134.2711429092393 34.62864579451292 3.694371068865844
    vertex -134.439043489916 34.62864579451377 3.699999999999996
  endloop
endfacet
facet normal -5.305809036297161e-12 -1.0 -2.133769068633304e-12
  outer loop
    vertex -125.62631922384509 34.62864579447271 1.0000000000000002
    vertex -131.50131922384517 34.628645794506085 0.0
    vertex -127.00131922384516 34.62864579448221 0.0
  endloop
endfacet
facet normal -5.305809036297161e-12 -1.0 -2.133769068633304e-12
  outer loop
    vertex -131.50131922384517 34.628645794506085 0.0
    vertex -125.62631922384509 34.62864579447271 1.0000000000000002
    vertex -136.00131922384517 34.62864579452997 0.0
  endloop
endfacet
facet normal -5.305809036297161e-12 -1.0 -2.133769068633304e-12
  outer loop
    vertex -136.00131922384517 34.62864579452997 0.0
    vertex -125.62631922384509 34.62864579447271 1.0000000000000002
    vertex -137.50131922384506 34.628645794535885 1.0000000000000002
  endloop
endfacet
facet normal -5.305809036297161e-12 -1.0 -2.133769068633304e-12
  outer loop
    vertex -137.50131922384506 34.628645794535885 1.0000000000000002
    vertex -125.62631922384509 34.62864579447271 1.0000000000000002
    vertex -134.0013192238451 34.62864579451721 1.0000000000000002
  endloop
endfacet
facet normal -5.305809036297161e-12 -1.0 -2.133769068633304e-12
  outer loop
    vertex -137.50131922384506 34.628645794535885 1.0000000000000002
    vertex -134.0013192238451 34.62864579451721 1.0000000000000002
    vertex -136.00131922384506 34.62864579452785 1.0000000000000002
  endloop
endfacet
facet normal 0.36640376074015696 4.20391721465638e-14 -0.9304559549572832
  outer loop
    vertex -128.04080832138536 187.02864579448075 3.2794580725366576
    vertex -127.95229333601337 34.62864579448019 3.3143143420279193
    vertex -128.04080832219395 34.62864579448071 3.2794580722113356
  endloop
endfacet
facet normal 0.36640376074015696 4.20391721465638e-14 -0.9304559549572832
  outer loop
    vertex -127.95229333601337 34.62864579448019 3.3143143420279193
    vertex -128.04080832138536 187.02864579448075 3.2794580725366576
    vertex -127.95229333520473 187.02864579448024 3.3143143423532413
  endloop
endfacet
facet normal -0.10036920294678969 -1.5912354513856632e-12 0.9949502616210653
  outer loop
    vertex -128.73149553845084 34.628645794483546 3.6943710688658453
    vertex -128.89864211750913 187.0286457944845 3.6775095539540255
    vertex -128.89864211831775 34.62864579448447 3.6775095536287035
  endloop
endfacet
facet normal -0.10036920294678969 -1.5912354513856632e-12 0.9949502616210653
  outer loop
    vertex -128.89864211750913 187.0286457944845 3.6775095539540255
    vertex -128.73149553845084 34.628645794483546 3.6943710688658453
    vertex -128.73149553764225 187.0286457944836 3.6943710691911673
  endloop
endfacet
facet normal 0.16678111454028105 -2.989567368557416e-12 0.985993945129838
  outer loop
    vertex -128.06290583294862 34.628645794480065 3.649491175266376
    vertex -128.22854779642208 187.02864579448092 3.6775095539540232
    vertex -128.22854779723073 34.62864579448089 3.6775095536287017
  endloop
endfacet
facet normal 0.16678111454028105 -2.989567368557416e-12 0.985993945129838
  outer loop
    vertex -128.22854779642208 187.02864579448092 3.6775095539540232
    vertex -128.06290583294862 34.628645794480065 3.649491175266376
    vertex -128.06290583214 187.0286457944801 3.649491175591698
  endloop
endfacet
facet normal 0.13867514562944286 1.3781459872382994e-12 -0.9903379241373386
  outer loop
    vertex -127.67660403370394 187.0286457944786 3.3868077277265196
    vertex -127.5823924308337 34.62864579447807 3.399999999999996
    vertex -127.67660403451254 34.628645794478544 3.386807727401198
  endloop
endfacet
facet normal 0.13867514562944286 1.3781459872382994e-12 -0.9903379241373386
  outer loop
    vertex -127.5823924308337 34.62864579447807 3.399999999999996
    vertex -127.67660403370394 187.0286457944786 3.3868077277265196
    vertex -127.58239243002508 187.02864579447808 3.400000000325318
  endloop
endfacet
facet normal 1.0 -5.305863275621488e-12 -1.1529607127889502e-23
  outer loop
    vertex -127.5823924308337 34.62864579447807 3.399999999999996
    vertex -127.58239243002508 187.02864579447788 3.5000000003253176
    vertex -127.5823924308337 34.628645794477855 3.4999999999999956
  endloop
endfacet
facet normal 1.0 -5.305863275621488e-12 -1.1529607127889502e-23
  outer loop
    vertex -127.58239243002508 187.02864579447788 3.5000000003253176
    vertex -127.5823924308337 34.62864579447807 3.399999999999996
    vertex -127.58239243002508 187.02864579447808 3.400000000325318
  endloop
endfacet
facet normal 0.03350655759172079 -2.3111356066969343e-12 0.9994384976567358
  outer loop
    vertex -128.3956943770975 34.62864579448176 3.6943710688658475
    vertex -128.5635949569656 187.02864579448266 3.7000000003253195
    vertex -128.56359495777423 34.62864579448262 3.6999999999999975
  endloop
endfacet
facet normal 0.03350655759172079 -2.3111356066969343e-12 0.9994384976567358
  outer loop
    vertex -128.5635949569656 187.02864579448266 3.7000000003253195
    vertex -128.3956943770975 34.62864579448176 3.6943710688658475
    vertex -128.39569437628887 187.02864579448178 3.694371069191169
  endloop
endfacet
facet normal 0.31089699774527524 3.7921243783610846e-13 -0.9504436105277232
  outer loop
    vertex -127.95229333520473 187.02864579448024 3.3143143423532413
    vertex -127.861876908881 34.6286457944796 3.3438902110546924
    vertex -127.95229333601337 34.62864579448019 3.3143143420279193
  endloop
endfacet
facet normal 0.31089699774527524 3.7921243783610846e-13 -0.9504436105277232
  outer loop
    vertex -127.861876908881 34.6286457944796 3.3438902110546924
    vertex -127.95229333520473 187.02864579448024 3.3143143423532413
    vertex -127.86187690807239 187.02864579447967 3.3438902113800144
  endloop
endfacet
facet normal 0.1968341919863264 1.0484304463823973e-12 -0.9804367908565498
  outer loop
    vertex -127.76987373500599 187.02864579447916 3.36808274059445
    vertex -127.67660403451254 34.628645794478544 3.386807727401198
    vertex -127.76987373581461 34.628645794479105 3.368082740269128
  endloop
endfacet
facet normal 0.1968341919863264 1.0484304463823973e-12 -0.9804367908565498
  outer loop
    vertex -127.67660403451254 34.628645794478544 3.386807727401198
    vertex -127.76987373500599 187.02864579447916 3.36808274059445
    vertex -127.67660403370394 187.0286457944786 3.3868077277265196
  endloop
endfacet
facet normal -0.03350655759175436 -1.9555765372926447e-12 0.9994384976567346
  outer loop
    vertex -128.56359495777423 34.62864579448262 3.6999999999999975
    vertex -128.73149553764225 187.0286457944836 3.6943710691911673
    vertex -128.73149553845084 34.628645794483546 3.6943710688658453
  endloop
endfacet
facet normal -0.03350655759175436 -1.9555765372926447e-12 0.9994384976567346
  outer loop
    vertex -128.73149553764225 187.0286457944836 3.6943710691911673
    vertex -128.56359495777423 34.62864579448262 3.6999999999999975
    vertex -128.5635949569656 187.02864579448266 3.7000000003253195
  endloop
endfacet
facet normal 0.36034819029129256 -3.903108924909274e-12 0.9328178716951077
  outer loop
    vertex -127.5823924308337 34.628645794477855 3.4999999999999956
    vertex -127.73910108462505 187.0286457944786 3.560536662198514
    vertex -127.73910108543367 34.62864579447854 3.560536661873192
  endloop
endfacet
facet normal 0.36034819029129256 -3.903108924909274e-12 0.9328178716951077
  outer loop
    vertex -127.73910108462505 187.0286457944786 3.560536662198514
    vertex -127.5823924308337 34.628645794477855 3.4999999999999956
    vertex -127.58239243002508 187.02864579447788 3.5000000003253176
  endloop
endfacet
facet normal -0.2324440525751189 -8.427956270591074e-13 0.9726097688294394
  outer loop
    vertex -129.06428408259978 34.628645794485365 3.6494911752663746
    vertex -129.22767757257736 187.02864579448635 3.61044175784994
    vertex -129.22767757338596 34.62864579448632 3.610441757524618
  endloop
endfacet
facet normal -0.2324440525751189 -8.427956270591074e-13 0.9726097688294394
  outer loop
    vertex -129.22767757257736 187.02864579448635 3.61044175784994
    vertex -129.06428408259978 34.628645794485365 3.6494911752663746
    vertex -129.0642840817912 187.02864579448539 3.6494911755916966
  endloop
endfacet
facet normal 0.2970631407126729 -3.6143577305453448e-12 0.9548578378114319
  outer loop
    vertex -127.73910108543367 34.62864579447854 3.560536661873192
    vertex -127.89951234135376 187.02864579447936 3.610441757849942
    vertex -127.89951234216237 34.628645794479304 3.61044175752462
  endloop
endfacet
facet normal 0.2970631407126729 -3.6143577305453448e-12 0.9548578378114319
  outer loop
    vertex -127.89951234135376 187.02864579447936 3.610441757849942
    vertex -127.73910108543367 34.62864579447854 3.560536661873192
    vertex -127.73910108462505 187.0286457944786 3.560536662198514
  endloop
endfacet
facet normal -0.3603481902913454 -7.921053892370297e-14 0.9328178716950872
  outer loop
    vertex -129.38808883011478 34.628645794487326 3.5605366618731926
    vertex -129.5447974839061 187.02864579448828 3.5000000003253198
    vertex -129.5447974847147 34.628645794488236 3.499999999999998
  endloop
endfacet
facet normal -0.3603481902913454 -7.921053892370297e-14 0.9328178716950872
  outer loop
    vertex -129.5447974839061 187.02864579448828 3.5000000003253198
    vertex -129.38808883011478 34.628645794487326 3.5605366618731926
    vertex -129.38808882930616 187.02864579448735 3.5605366621985146
  endloop
endfacet
facet normal -0.1667811145403383 -1.2197485037520513e-12 0.9859939451298283
  outer loop
    vertex -128.89864211831775 34.62864579448447 3.6775095536287035
    vertex -129.0642840817912 187.02864579448539 3.6494911755916966
    vertex -129.06428408259978 34.628645794485365 3.6494911752663746
  endloop
endfacet
facet normal -0.1667811145403383 -1.2197485037520513e-12 0.9859939451298283
  outer loop
    vertex -129.0642840817912 187.02864579448539 3.6494911755916966
    vertex -128.89864211831775 34.62864579448447 3.6775095536287035
    vertex -128.89864211750913 187.0286457944845 3.6775095539540255
  endloop
endfacet
facet normal 1.132821957838812e-23 2.134334979284901e-12 -1.0
  outer loop
    vertex -136.00131922303652 187.02864579453006 3.2527255888759044e-10
    vertex -131.50131922384517 34.628645794506085 0.0
    vertex -136.00131922384517 34.62864579452997 0.0
  endloop
endfacet
facet normal 1.132821957838812e-23 2.134334979284901e-12 -1.0
  outer loop
    vertex -131.50131922384517 34.628645794506085 0.0
    vertex -136.00131922303652 187.02864579453006 3.2527255888759044e-10
    vertex -127.00131922303652 187.02864579448232 3.2527255888759044e-10
  endloop
endfacet
facet normal 1.132821957838812e-23 2.134334979284901e-12 -1.0
  outer loop
    vertex -131.50131922384517 34.628645794506085 0.0
    vertex -127.00131922303652 187.02864579448232 3.2527255888759044e-10
    vertex -127.00131922384516 34.62864579448221 0.0
  endloop
endfacet
facet normal 1.196349405384714e-15 -2.1343376215144934e-12 1.0
  outer loop
    vertex -125.62631922384509 34.62864579447271 1.0000000000000002
    vertex -127.00131922303652 187.02864579448018 1.000000000325275
    vertex -127.00131922384509 34.62864579448008 1.0000000000000018
  endloop
endfacet
facet normal 1.196349405384714e-15 -2.1343376215144934e-12 1.0
  outer loop
    vertex -127.00131922303652 187.02864579448018 1.000000000325275
    vertex -125.62631922384509 34.62864579447271 1.0000000000000002
    vertex -125.62631922303652 187.0286457944728 1.0000000003252731
  endloop
endfacet
facet normal -0.29706314071247986 -4.620347038276534e-13 0.9548578378114919
  outer loop
    vertex -129.22767757338596 34.62864579448632 3.610441757524618
    vertex -129.38808882930616 187.02864579448735 3.5605366621985146
    vertex -129.38808883011478 34.628645794487326 3.5605366618731926
  endloop
endfacet
facet normal -0.29706314071247986 -4.620347038276534e-13 0.9548578378114919
  outer loop
    vertex -129.38808882930616 187.02864579448735 3.5605366621985146
    vertex -129.22767757338596 34.62864579448632 3.610441757524618
    vertex -129.22767757257736 187.02864579448635 3.61044175784994
  endloop
endfacet
facet normal 0.5881716976750392 -1.3945557532890467e-12 -0.8087360843031937
  outer loop
    vertex -127.00131922303652 187.02864579448232 3.2527255888759044e-10
    vertex -125.62631922384509 34.62864579447271 1.0000000000000002
    vertex -127.00131922384516 34.62864579448221 0.0
  endloop
endfacet
facet normal 0.5881716976750392 -1.3945557532890467e-12 -0.8087360843031937
  outer loop
    vertex -125.62631922384509 34.62864579447271 1.0000000000000002
    vertex -127.00131922303652 187.02864579448232 3.2527255888759044e-10
    vertex -125.62631922303652 187.0286457944728 1.0000000003252731
  endloop
endfacet
facet normal 0.23244405257502382 -3.309381733058035e-12 0.972609768829462
  outer loop
    vertex -127.89951234216237 34.628645794479304 3.61044175752462
    vertex -128.06290583214 187.0286457944801 3.649491175591698
    vertex -128.06290583294862 34.628645794480065 3.649491175266376
  endloop
endfacet
facet normal 0.23244405257502382 -3.309381733058035e-12 0.972609768829462
  outer loop
    vertex -128.06290583214 187.0286457944801 3.649491175591698
    vertex -127.89951234216237 34.628645794479304 3.61044175752462
    vertex -127.89951234135376 187.02864579447936 3.610441757849942
  endloop
endfacet
facet normal -1.1429328364288211e-23 -2.1343368380909823e-12 1.0
  outer loop
    vertex -136.00131922384506 34.62864579452785 1.0000000000000002
    vertex -137.50131922303652 187.02864579453598 1.0000000003252731
    vertex -137.50131922384506 34.628645794535885 1.0000000000000002
  endloop
endfacet
facet normal -1.1429328364288211e-23 -2.1343368380909823e-12 1.0
  outer loop
    vertex -137.50131922303652 187.02864579453598 1.0000000003252731
    vertex -136.00131922384506 34.62864579452785 1.0000000000000002
    vertex -136.00131922303652 187.02864579452793 1.0000000003252731
  endloop
endfacet
facet normal 0.25430815553789626 7.15065838039997e-13 -0.9671232403509459
  outer loop
    vertex -127.86187690807239 187.02864579447967 3.3438902113800144
    vertex -127.76987373581461 34.628645794479105 3.368082740269128
    vertex -127.861876908881 34.6286457944796 3.3438902110546924
  endloop
endfacet
facet normal 0.25430815553789626 7.15065838039997e-13 -0.9671232403509459
  outer loop
    vertex -127.76987373581461 34.628645794479105 3.368082740269128
    vertex -127.86187690807239 187.02864579447967 3.3438902113800144
    vertex -127.76987373500599 187.02864579447916 3.36808274059445
  endloop
endfacet
facet normal 0.10036920294687716 -2.656315923760241e-12 0.9949502616210564
  outer loop
    vertex -128.22854779723073 34.62864579448089 3.6775095536287017
    vertex -128.39569437628887 187.02864579448178 3.694371069191169
    vertex -128.3956943770975 34.62864579448176 3.6943710688658475
  endloop
endfacet
facet normal 0.10036920294687716 -2.656315923760241e-12 0.9949502616210564
  outer loop
    vertex -128.39569437628887 187.02864579448178 3.694371069191169
    vertex -128.22854779723073 34.62864579448089 3.6775095536287017
    vertex -128.22854779642208 187.02864579448092 3.6775095539540232
  endloop
endfacet
facet normal -0.5547001962252416 4.718954719878207e-12 -0.8320502943378354
  outer loop
    vertex -137.50131922303652 187.02864579453598 1.0000000003252731
    vertex -136.00131922384517 34.62864579452997 0.0
    vertex -137.50131922384506 34.628645794535885 1.0000000000000002
  endloop
endfacet
facet normal -0.5547001962252416 4.718954719878207e-12 -0.8320502943378354
  outer loop
    vertex -136.00131922384517 34.62864579452997 0.0
    vertex -137.50131922303652 187.02864579453598 1.0000000003252731
    vertex -136.00131922303652 187.02864579453006 3.2527255888759044e-10
  endloop
endfacet
facet normal -3.2899610094591624e-16 -2.134337621514486e-12 1.0
  outer loop
    vertex -129.0013192238451 34.628645794490716 1.0000000000000018
    vertex -134.00131922303652 187.02864579451733 1.0000000003252731
    vertex -134.0013192238451 34.62864579451721 1.0000000000000002
  endloop
endfacet
facet normal -3.2899610094591624e-16 -2.134337621514486e-12 1.0
  outer loop
    vertex -134.00131922303652 187.02864579451733 1.0000000003252731
    vertex -129.0013192238451 34.628645794490716 1.0000000000000018
    vertex -129.00131922303652 187.0286457944908 1.000000000325275
  endloop
endfacet
facet normal 0.768670777666647 -5.443595206432128e-12 0.6396446166124999
  outer loop
    vertex -127.00131922303652 187.02864579448018 1.000000000325275
    vertex -128.58239243083364 34.62864579448445 2.8999999999999972
    vertex -127.00131922384509 34.62864579448008 1.0000000000000018
  endloop
endfacet
facet normal 0.768670777666647 -5.443595206432128e-12 0.6396446166124999
  outer loop
    vertex -128.58239243083364 34.62864579448445 2.8999999999999972
    vertex -127.00131922303652 187.02864579448018 1.000000000325275
    vertex -128.58239243002504 187.02864579448448 2.9000000003253192
  endloop
endfacet
facet normal -0.6211136989576956 4.968470884421502e-12 -0.7837204686411408
  outer loop
    vertex -134.63282453403255 187.02864579451617 3.0899217093960076
    vertex -134.55826860762977 34.628645794515855 3.030834688146249
    vertex -134.63282453484118 34.6286457945161 3.089921709070685
  endloop
endfacet
facet normal -0.6211136989576956 4.968470884421502e-12 -0.7837204686411408
  outer loop
    vertex -134.55826860762977 34.628645794515855 3.030834688146249
    vertex -134.63282453403255 187.02864579451617 3.0899217093960076
    vertex -134.55826860682112 187.0286457945159 3.0308346884715713
  endloop
endfacet
facet normal 0.7090652519324865 -2.257000636086625e-12 -0.7051428709856744
  outer loop
    vertex -128.58239243083364 34.62864579448445 2.8999999999999972
    vertex -128.5153116497387 187.02864579448396 2.967453919709164
    vertex -128.51531165054732 34.62864579448392 2.9674539193838414
  endloop
endfacet
facet normal 0.7090652519324865 -2.257000636086625e-12 -0.7051428709856744
  outer loop
    vertex -128.5153116497387 187.02864579448396 2.967453919709164
    vertex -128.58239243083364 34.62864579448445 2.8999999999999972
    vertex -128.58239243002504 187.02864579448448 2.9000000003253192
  endloop
endfacet
facet normal -0.5738166897754711 4.792759794734393e-12 -0.8189837645125335
  outer loop
    vertex -134.71073508553332 187.02864579451645 3.144509329685839
    vertex -134.63282453484118 34.6286457945161 3.089921709070685
    vertex -134.71073508634194 34.6286457945164 3.144509329360517
  endloop
endfacet
facet normal -0.5738166897754711 4.792759794734393e-12 -0.8189837645125335
  outer loop
    vertex -134.63282453484118 34.6286457945161 3.089921709070685
    vertex -134.71073508553332 187.02864579451645 3.144509329685839
    vertex -134.63282453403255 187.02864579451617 3.0899217093960076
  endloop
endfacet
facet normal -0.6662489174934874 5.1268938311934045e-12 -0.7457294281029524
  outer loop
    vertex -134.55826860682112 187.0286457945159 3.0308346884715713
    vertex -134.48732679714288 34.62864579451559 2.9674539193838414
    vertex -134.55826860762977 34.628645794515855 3.030834688146249
  endloop
endfacet
facet normal -0.6662489174934874 5.1268938311934045e-12 -0.7457294281029524
  outer loop
    vertex -134.48732679714288 34.62864579451559 2.9674539193838414
    vertex -134.55826860682112 187.0286457945159 3.0308346884715713
    vertex -134.48732679633423 187.02864579451565 2.967453919709164
  endloop
endfacet
facet normal 0.6662489174934874 -1.9432242903636895e-12 -0.7457294281029524
  outer loop
    vertex -128.5153116497387 187.02864579448396 2.967453919709164
    vertex -128.44436984006043 34.62864579448343 3.030834688146249
    vertex -128.51531165054732 34.62864579448392 2.9674539193838414
  endloop
endfacet
facet normal 0.6662489174934874 -1.9432242903636895e-12 -0.7457294281029524
  outer loop
    vertex -128.44436984006043 34.62864579448343 3.030834688146249
    vertex -128.5153116497387 187.02864579448396 2.967453919709164
    vertex -128.4443698392518 187.02864579448345 3.0308346884715713
  endloop
endfacet
facet normal -0.7090652519321381 5.267370352138465e-12 -0.7051428709860247
  outer loop
    vertex -134.48732679714288 34.62864579451559 2.9674539193838414
    vertex -134.42024601604786 187.02864579451546 2.900000000325318
    vertex -134.42024601685645 34.62864579451538 2.899999999999996
  endloop
endfacet
facet normal -0.7090652519321381 5.267370352138465e-12 -0.7051428709860247
  outer loop
    vertex -134.42024601604786 187.02864579451546 2.900000000325318
    vertex -134.48732679714288 34.62864579451559 2.9674539193838414
    vertex -134.48732679633423 187.02864579451565 2.967453919709164
  endloop
endfacet
facet normal -0.7686707776666217 2.713020304988487e-12 0.6396446166125304
  outer loop
    vertex -134.42024601604786 187.02864579451546 2.900000000325318
    vertex -136.00131922384506 34.62864579452785 1.0000000000000002
    vertex -134.42024601685645 34.62864579451538 2.899999999999996
  endloop
endfacet
facet normal -0.7686707776666217 2.713020304988487e-12 0.6396446166125304
  outer loop
    vertex -136.00131922384506 34.62864579452785 1.0000000000000002
    vertex -134.42024601604786 187.02864579451546 2.900000000325318
    vertex -136.00131922303652 187.02864579452793 1.0000000003252731
  endloop
endfacet
facet normal 0.6211136989577409 -1.6226178391503125e-12 -0.7837204686411049
  outer loop
    vertex -128.4443698392518 187.02864579448345 3.0308346884715713
    vertex -128.369813912849 34.628645794482914 3.089921709070686
    vertex -128.44436984006043 34.62864579448343 3.030834688146249
  endloop
endfacet
facet normal 0.6211136989577409 -1.6226178391503125e-12 -0.7837204686411049
  outer loop
    vertex -128.369813912849 34.628645794482914 3.089921709070686
    vertex -128.4443698392518 187.02864579448345 3.0308346884715713
    vertex -128.3698139120404 187.02864579448294 3.0899217093960085
  endloop
endfacet
facet normal 0.5738166897749509 -1.2963972632564801e-12 -0.818983764512898
  outer loop
    vertex -128.3698139120404 187.02864579448294 3.0899217093960085
    vertex -128.29190336134815 34.62864579448236 3.1445093293605177
    vertex -128.369813912849 34.628645794482914 3.089921709070686
  endloop
endfacet
facet normal 0.5738166897749509 -1.2963972632564801e-12 -0.818983764512898
  outer loop
    vertex -128.29190336134815 34.62864579448236 3.1445093293605177
    vertex -128.3698139120404 187.02864579448294 3.0899217093960085
    vertex -128.29190336053952 187.02864579448243 3.14450932968584
  endloop
endfacet
facet normal 0.5245225075217786 -9.656652170488868e-13 -0.851396581566467
  outer loop
    vertex -128.29190336053952 187.02864579448243 3.14450932968584
    vertex -128.21090935378658 34.62864579448182 3.194407556415022
    vertex -128.29190336134815 34.62864579448236 3.1445093293605177
  endloop
endfacet
facet normal 0.5245225075217786 -9.656652170488868e-13 -0.851396581566467
  outer loop
    vertex -128.21090935378658 34.62864579448182 3.194407556415022
    vertex -128.29190336053952 187.02864579448243 3.14450932968584
    vertex -128.21090935297795 187.0286457944819 3.1944075567403436
  endloop
endfacet
facet normal 0.4734027209493881 -6.315722467797344e-13 -0.8808461067619676
  outer loop
    vertex -128.21090935297795 187.0286457944819 3.1944075567403436
    vertex -128.12711379038365 34.62864579448126 3.239442719099985
    vertex -128.21090935378658 34.62864579448182 3.194407556415022
  endloop
endfacet
facet normal 0.4734027209493881 -6.315722467797344e-13 -0.8808461067619676
  outer loop
    vertex -128.12711379038365 34.62864579448126 3.239442719099985
    vertex -128.21090935297795 187.0286457944819 3.1944075567403436
    vertex -128.127113789575 187.0286457944813 3.239442719425307
  endloop
endfacet
facet normal 0.42063525283999137 -2.95280396949686e-13 -0.907229840816668
  outer loop
    vertex -128.127113789575 187.0286457944813 3.239442719425307
    vertex -128.04080832219395 34.62864579448071 3.2794580722113356
    vertex -128.12711379038365 34.62864579448126 3.239442719099985
  endloop
endfacet
facet normal 0.42063525283999137 -2.95280396949686e-13 -0.907229840816668
  outer loop
    vertex -128.04080832219395 34.62864579448071 3.2794580722113356
    vertex -128.127113789575 187.0286457944813 3.239442719425307
    vertex -128.04080832138536 187.02864579448075 3.2794580725366576
  endloop
endfacet
endsolid v2
