solid v2
facet normal 0.16678111454028105 -2.9895794224573505e-12 0.985993945129838
  outer loop
    vertex -148.06290583294864 34.628645794480065 3.649491175266375
    vertex -148.2285477962873 212.42864579448107 3.677509554008235
    vertex -148.22854779723076 34.62864579448089 3.677509553628701
  endloop
endfacet
facet normal 0.16678111454028105 -2.9895794224573505e-12 0.985993945129838
  outer loop
    vertex -148.2285477962873 212.42864579448107 3.677509554008235
    vertex -148.06290583294864 34.628645794480065 3.649491175266375
    vertex -148.0629058320052 212.42864579448025 3.6494911756459096
  endloop
endfacet
facet normal 0.5881716976750392 -1.394734384044116e-12 -0.8087360843031937
  outer loop
    vertex -147.00131922290174 212.4286457944824 3.794842995397118e-10
    vertex -145.62631922384512 34.62864579447271 0.9999999999999996
    vertex -147.00131922384517 34.62864579448221 -7.049916206369744e-16
  endloop
endfacet
facet normal 0.5881716976750392 -1.394734384044116e-12 -0.8087360843031937
  outer loop
    vertex -145.62631922384512 34.62864579447271 0.9999999999999996
    vertex -147.00131922290174 212.4286457944824 3.794842995397118e-10
    vertex -145.62631922290174 212.42864579447294 1.0000000003794849
  endloop
endfacet
facet normal 0.03350655759172079 -2.3111086832512137e-12 0.9994384976567358
  outer loop
    vertex -148.39569437709753 34.62864579448176 3.6943710688658467
    vertex -148.56359495683083 212.42864579448278 3.7000000003795313
    vertex -148.56359495777426 34.62864579448262 3.6999999999999966
  endloop
endfacet
facet normal 0.03350655759172079 -2.3111086832512137e-12 0.9994384976567358
  outer loop
    vertex -148.56359495683083 212.42864579448278 3.7000000003795313
    vertex -148.39569437709753 34.62864579448176 3.6943710688658467
    vertex -148.3956943761541 212.42864579448192 3.694371069245381
  endloop
endfacet
facet normal -0.03350655759175436 -1.9555302730808085e-12 0.9994384976567346
  outer loop
    vertex -148.56359495777426 34.62864579448262 3.6999999999999966
    vertex -148.73149553750744 212.4286457944837 3.694371069245379
    vertex -148.73149553845087 34.628645794483546 3.6943710688658444
  endloop
endfacet
facet normal -0.03350655759175436 -1.9555302730808085e-12 0.9994384976567346
  outer loop
    vertex -148.73149553750744 212.4286457944837 3.694371069245379
    vertex -148.56359495777426 34.62864579448262 3.6999999999999966
    vertex -148.56359495683083 212.42864579448278 3.7000000003795313
  endloop
endfacet
facet normal -0.23244405257511888 -8.426908654401872e-13 0.9726097688294394
  outer loop
    vertex -149.06428408259984 34.628645794485365 3.6494911752663737
    vertex -149.2276775724426 212.42864579448647 3.6104417579041517
    vertex -149.227677573386 34.62864579448632 3.6104417575246175
  endloop
endfacet
facet normal -0.23244405257511888 -8.426908654401872e-13 0.9726097688294394
  outer loop
    vertex -149.2276775724426 212.42864579448647 3.6104417579041517
    vertex -149.06428408259984 34.628645794485365 3.6494911752663737
    vertex -149.0642840816564 212.42864579448553 3.6494911756459083
  endloop
endfacet
facet normal 1.1327748948596516e-23 2.1343360012293213e-12 -1.0
  outer loop
    vertex -156.00131922290174 212.4286457945302 3.794842995397118e-10
    vertex -151.50131922384517 34.628645794506085 0.0
    vertex -156.0013192238452 34.62864579452997 -7.049916206369744e-16
  endloop
endfacet
facet normal 1.1327748948596516e-23 2.1343360012293213e-12 -1.0
  outer loop
    vertex -151.50131922384517 34.628645794506085 0.0
    vertex -156.00131922290174 212.4286457945302 3.794842995397118e-10
    vertex -147.00131922290174 212.4286457944824 3.794842995397118e-10
  endloop
endfacet
facet normal 1.1327748948596516e-23 2.1343360012293213e-12 -1.0
  outer loop
    vertex -151.50131922384517 34.628645794506085 0.0
    vertex -147.00131922290174 212.4286457944824 3.794842995397118e-10
    vertex -147.00131922384517 34.62864579448221 -7.049916206369744e-16
  endloop
endfacet
facet normal 0.10036920294687719 -2.6563084636484045e-12 0.9949502616210564
  outer loop
    vertex -148.22854779723076 34.62864579448089 3.677509553628701
    vertex -148.3956943761541 212.42864579448192 3.694371069245381
    vertex -148.39569437709753 34.62864579448176 3.6943710688658467
  endloop
endfacet
facet normal 0.10036920294687719 -2.6563084636484045e-12 0.9949502616210564
  outer loop
    vertex -148.3956943761541 212.42864579448192 3.694371069245381
    vertex -148.22854779723076 34.62864579448089 3.677509553628701
    vertex -148.2285477962873 212.42864579448107 3.677509554008235
  endloop
endfacet
facet normal -0.36034819029134535 -7.90723810915378e-14 0.9328178716950872
  outer loop
    vertex -149.38808883011484 34.628645794487326 3.560536661873192
    vertex -149.54479748377133 212.42864579448843 3.5000000003795315
    vertex -149.54479748471473 34.628645794488236 3.499999999999997
  endloop
endfacet
facet normal -0.36034819029134535 -7.90723810915378e-14 0.9328178716950872
  outer loop
    vertex -149.54479748377133 212.42864579448843 3.5000000003795315
    vertex -149.38808883011484 34.628645794487326 3.560536661873192
    vertex -149.38808882917138 212.42864579448747 3.5605366622527264
  endloop
endfacet
facet normal -1.1435639642163835e-23 -2.1343385715130883e-12 1.0
  outer loop
    vertex -156.00131922384512 34.62864579452785 0.9999999999999996
    vertex -157.5013192229017 212.42864579453612 1.0000000003794849
    vertex -157.5013192238451 34.628645794535885 0.9999999999999996
  endloop
endfacet
facet normal -1.1435639642163835e-23 -2.1343385715130883e-12 1.0
  outer loop
    vertex -157.5013192229017 212.42864579453612 1.0000000003794849
    vertex -156.00131922384512 34.62864579452785 0.9999999999999996
    vertex -156.0013192229017 212.42864579452808 1.0000000003794849
  endloop
endfacet
facet normal -0.29706314071247997 -4.619139892821779e-13 0.9548578378114919
  outer loop
    vertex -149.227677573386 34.62864579448632 3.6104417575246175
    vertex -149.38808882917138 212.42864579448747 3.5605366622527264
    vertex -149.38808883011484 34.628645794487326 3.560536661873192
  endloop
endfacet
facet normal -0.29706314071247997 -4.619139892821779e-13 0.9548578378114919
  outer loop
    vertex -149.38808882917138 212.42864579448747 3.5605366622527264
    vertex -149.227677573386 34.62864579448632 3.6104417575246175
    vertex -149.2276775724426 212.42864579448647 3.6104417579041517
  endloop
endfacet
facet normal -3.2899610094322356e-16 -2.13433921699159e-12 1.0
  outer loop
    vertex -149.00131922384512 34.628645794490716 1.0000000000000009
    vertex -154.0013192229017 212.42864579451742 1.0000000003794849
    vertex -154.00131922384512 34.62864579451721 0.9999999999999996
  endloop
endfacet
facet normal -3.2899610094322356e-16 -2.13433921699159e-12 1.0
  outer loop
    vertex -154.0013192229017 212.42864579451742 1.0000000003794849
    vertex -149.00131922384512 34.628645794490716 1.0000000000000009
    vertex -149.00131922290174 212.42864579449093 1.0000000003794867
  endloop
endfacet
facet normal -0.5547001962252416 4.719126318259133e-12 -0.8320502943378354
  outer loop
    vertex -157.5013192229017 212.42864579453612 1.0000000003794849
    vertex -156.0013192238452 34.62864579452997 -7.049916206369744e-16
    vertex -157.5013192238451 34.628645794535885 0.9999999999999996
  endloop
endfacet
facet normal -0.5547001962252416 4.719126318259133e-12 -0.8320502943378354
  outer loop
    vertex -156.0013192238452 34.62864579452997 -7.049916206369744e-16
    vertex -157.5013192229017 212.42864579453612 1.0000000003794849
    vertex -156.00131922290174 212.4286457945302 3.794842995397118e-10
  endloop
endfacet
facet normal -0.16678111454033828 -1.21966426480582e-12 0.9859939451298283
  outer loop
    vertex -148.89864211831778 34.62864579448447 3.677509553628703
    vertex -149.0642840816564 212.42864579448553 3.6494911756459083
    vertex -149.06428408259984 34.628645794485365 3.6494911752663737
  endloop
endfacet
facet normal -0.16678111454033828 -1.21966426480582e-12 0.9859939451298283
  outer loop
    vertex -149.0642840816564 212.42864579448553 3.6494911756459083
    vertex -148.89864211831778 34.62864579448447 3.677509553628703
    vertex -148.89864211737432 212.42864579448462 3.677509554008237
  endloop
endfacet
facet normal 1.1963494053750506e-15 -2.134339216991598e-12 1.0
  outer loop
    vertex -145.62631922384512 34.62864579447271 0.9999999999999996
    vertex -147.00131922290174 212.42864579448033 1.0000000003794867
    vertex -147.00131922384512 34.62864579448008 1.0000000000000009
  endloop
endfacet
facet normal 1.1963494053750506e-15 -2.134339216991598e-12 1.0
  outer loop
    vertex -147.00131922290174 212.42864579448033 1.0000000003794867
    vertex -145.62631922384512 34.62864579447271 0.9999999999999996
    vertex -145.62631922290174 212.42864579447294 1.0000000003794849
  endloop
endfacet
facet normal -0.10036920294678969 -1.5911700463219533e-12 0.9949502616210653
  outer loop
    vertex -148.73149553845087 34.628645794483546 3.6943710688658444
    vertex -148.89864211737432 212.42864579448462 3.677509554008237
    vertex -148.89864211831778 34.62864579448447 3.677509553628703
  endloop
endfacet
facet normal -0.10036920294678969 -1.5911700463219533e-12 0.9949502616210653
  outer loop
    vertex -148.89864211737432 212.42864579448462 3.677509554008237
    vertex -148.73149553845087 34.628645794483546 3.6943710688658444
    vertex -148.73149553750744 212.4286457944837 3.694371069245379
  endloop
endfacet
facet normal 0.16678111454037178 -2.989593195678681e-12 0.9859939451298226
  outer loop
    vertex -153.93835436509042 34.6286457945112 3.6494911752663715
    vertex -154.103996328429 212.42864579451225 3.677509554008236
    vertex -154.10399632937245 34.62864579451207 3.6775095536287017
  endloop
endfacet
facet normal 0.16678111454037178 -2.989593195678681e-12 0.9859939451298226
  outer loop
    vertex -154.103996328429 212.42864579451225 3.677509554008236
    vertex -153.93835436509042 34.6286457945112 3.6494911752663715
    vertex -153.93835436414696 212.4286457945114 3.649491175645906
  endloop
endfacet
facet normal 0.033506557591752854 -2.3111100689114364e-12 0.9994384976567346
  outer loop
    vertex -154.27114290923936 34.62864579451292 3.694371068865843
    vertex -154.43904348897254 212.42864579451395 3.7000000003795295
    vertex -154.439043489916 34.62864579451377 3.6999999999999953
  endloop
endfacet
facet normal 0.033506557591752854 -2.3111100689114364e-12 0.9994384976567346
  outer loop
    vertex -154.43904348897254 212.42864579451395 3.7000000003795295
    vertex -154.27114290923936 34.62864579451292 3.694371068865843
    vertex -154.27114290829593 212.4286457945131 3.6943710692453773
  endloop
endfacet
facet normal -0.254308155538149 3.4137269443469803e-12 -0.9671232403508793
  outer loop
    vertex -155.23276471093206 212.42864579451887 3.3680827406486604
    vertex -155.1407615388092 34.62864579451824 3.34389021105469
    vertex -155.23276471187552 34.6286457945187 3.3680827402691262
  endloop
endfacet
facet normal -0.254308155538149 3.4137269443469803e-12 -0.9671232403508793
  outer loop
    vertex -155.1407615388092 34.62864579451824 3.34389021105469
    vertex -155.23276471093206 212.42864579451887 3.3680827406486604
    vertex -155.14076153786576 212.42864579451842 3.343890211434225
  endloop
endfacet
facet normal 0.2970631407124876 -3.6144207863821134e-12 0.9548578378114896
  outer loop
    vertex -153.61454961757542 34.628645794509715 3.560536661873189
    vertex -153.77496087336078 212.42864579451063 3.6104417579041503
    vertex -153.77496087430418 34.62864579451043 3.6104417575246157
  endloop
endfacet
facet normal 0.2970631407124876 -3.6144207863821134e-12 0.9548578378114896
  outer loop
    vertex -153.77496087336078 212.42864579451063 3.6104417579041503
    vertex -153.61454961757542 34.628645794509715 3.560536661873189
    vertex -153.61454961663193 212.4286457945099 3.5605366622527237
  endloop
endfacet
facet normal -0.10036920294689507 -1.5911617578955483e-12 0.9949502616210547
  outer loop
    vertex -154.60694407059273 34.6286457945147 3.6943710688658453
    vertex -154.774090649516 212.42864579451577 3.6775095540082336
    vertex -154.7740906504595 34.628645794515585 3.6775095536286995
  endloop
endfacet
facet normal -0.10036920294689507 -1.5911617578955483e-12 0.9949502616210547
  outer loop
    vertex -154.774090649516 212.42864579451577 3.6775095540082336
    vertex -154.60694407059273 34.6286457945147 3.6943710688658453
    vertex -154.60694406964927 212.42864579451486 3.6943710692453795
  endloop
endfacet
facet normal -0.36034819029120224 -7.902770193627246e-14 0.9328178716951426
  outer loop
    vertex -155.26353736225653 34.62864579451848 3.56053666187319
    vertex -155.42024601591308 212.42864579451958 3.500000000379528
    vertex -155.42024601685654 34.628645794519436 3.499999999999994
  endloop
endfacet
facet normal -0.36034819029120224 -7.902770193627246e-14 0.9328178716951426
  outer loop
    vertex -155.42024601591308 212.42864579451958 3.500000000379528
    vertex -155.26353736225653 34.62864579451848 3.56053666187319
    vertex -155.26353736131307 212.42864579451864 3.560536662252724
  endloop
endfacet
facet normal -1.0 5.306225743034537e-12 -4.5119463719462795e-13
  outer loop
    vertex -155.42024601591308 212.42864579451958 3.500000000379528
    vertex -155.4202460168565 34.62864579451965 3.3999999999999937
    vertex -155.42024601685654 34.628645794519436 3.499999999999994
  endloop
endfacet
facet normal -1.0 5.306225743034537e-12 -4.5119463719462795e-13
  outer loop
    vertex -155.4202460168565 34.62864579451965 3.3999999999999937
    vertex -155.42024601591308 212.42864579451958 3.500000000379528
    vertex -155.42024601591302 212.42864579451987 3.4000000003795283
  endloop
endfacet
facet normal 0.9771763639227942 -4.7315006289205935e-12 -0.21242964433107497
  outer loop
    vertex -154.00131922384512 34.62864579451721 0.9999999999999996
    vertex -153.45784096203204 212.42864579450912 3.50000000037953
    vertex -153.4578409629755 34.62864579450896 3.4999999999999956
  endloop
endfacet
facet normal 0.9771763639227942 -4.7315006289205935e-12 -0.21242964433107497
  outer loop
    vertex -153.45784096203204 212.42864579450912 3.50000000037953
    vertex -154.00131922384512 34.62864579451721 0.9999999999999996
    vertex -154.0013192229017 212.42864579451742 1.0000000003794849
  endloop
endfacet
facet normal -0.16678111454025904 -1.2196573773232478e-12 0.9859939451298416
  outer loop
    vertex -154.7740906504595 34.628645794515585 3.6775095536286995
    vertex -154.93973261379816 212.4286457945167 3.6494911756459083
    vertex -154.9397326147416 34.62864579451652 3.6494911752663737
  endloop
endfacet
facet normal -0.16678111454025904 -1.2196573773232478e-12 0.9859939451298416
  outer loop
    vertex -154.93973261379816 212.4286457945167 3.6494911756459083
    vertex -154.7740906504595 34.628645794515585 3.6775095536286995
    vertex -154.774090649516 212.42864579451577 3.6775095540082336
  endloop
endfacet
facet normal -0.13867514562948624 2.8497300385453877e-12 -0.9903379241373325
  outer loop
    vertex -155.42024601591302 212.42864579451987 3.4000000003795283
    vertex -155.32603441317767 34.62864579451913 3.386807727401196
    vertex -155.4202460168565 34.62864579451965 3.3999999999999937
  endloop
endfacet
facet normal -0.13867514562948624 2.8497300385453877e-12 -0.9903379241373325
  outer loop
    vertex -155.32603441317767 34.62864579451913 3.386807727401196
    vertex -155.42024601591302 212.42864579451987 3.4000000003795283
    vertex -155.3260344122342 212.42864579451933 3.38680772778073
  endloop
endfacet
facet normal -0.42063525283965963 4.1684145291112906e-12 -0.9072298408168217
  outer loop
    vertex -154.96183012455282 212.42864579451762 3.2794580725908675
    vertex -154.87552465730647 34.62864579451705 3.2394427190999826
    vertex -154.96183012549622 34.62864579451743 3.2794580722113333
  endloop
endfacet
facet normal -0.42063525283965963 4.1684145291112906e-12 -0.9072298408168217
  outer loop
    vertex -154.87552465730647 34.62864579451705 3.2394427190999826
    vertex -154.96183012455282 212.42864579451762 3.2794580725908675
    vertex -154.87552465636307 212.4286457945172 3.2394427194795172
  endloop
endfacet
facet normal -0.4734027209497838 4.392104917902956e-12 -0.880846106761755
  outer loop
    vertex -154.87552465636307 212.4286457945172 3.2394427194795172
    vertex -154.79172909390365 34.62864579451674 3.19440755641502
    vertex -154.87552465730647 34.62864579451705 3.2394427190999826
  endloop
endfacet
facet normal -0.4734027209497838 4.392104917902956e-12 -0.880846106761755
  outer loop
    vertex -154.79172909390365 34.62864579451674 3.19440755641502
    vertex -154.87552465636307 212.4286457945172 3.2394427194795172
    vertex -154.7917290929602 212.42864579451688 3.194407556794554
  endloop
endfacet
facet normal -0.5245225075213171 4.600535060915744e-12 -0.8513965815667512
  outer loop
    vertex -154.7917290929602 212.42864579451688 3.194407556794554
    vertex -154.710735086342 34.6286457945164 3.144509329360516
    vertex -154.79172909390365 34.62864579451674 3.19440755641502
  endloop
endfacet
facet normal -0.5245225075213171 4.600535060915744e-12 -0.8513965815667512
  outer loop
    vertex -154.710735086342 34.6286457945164 3.144509329360516
    vertex -154.7917290929602 212.42864579451688 3.194407556794554
    vertex -154.7107350853985 212.42864579451657 3.1445093297400506
  endloop
endfacet
facet normal -0.9771763639227984 5.638292182245896e-12 -0.21242964433105532
  outer loop
    vertex -149.54479748377133 212.42864579448843 3.5000000003795315
    vertex -149.00131922384512 34.628645794490716 1.0000000000000009
    vertex -149.54479748471473 34.628645794488236 3.499999999999997
  endloop
endfacet
facet normal -0.9771763639227984 5.638292182245896e-12 -0.21242964433105532
  outer loop
    vertex -149.00131922384512 34.628645794490716 1.0000000000000009
    vertex -149.54479748377133 212.42864579448843 3.5000000003795315
    vertex -149.00131922290174 212.42864579449093 1.0000000003794867
  endloop
endfacet
facet normal -0.297063140712673 -4.619017261925331e-13 0.9548578378114319
  outer loop
    vertex -155.1031261055278 34.62864579451752 3.610441757524618
    vertex -155.26353736131307 212.42864579451864 3.560536662252724
    vertex -155.26353736225653 34.62864579451848 3.56053666187319
  endloop
endfacet
facet normal -0.297063140712673 -4.619017261925331e-13 0.9548578378114319
  outer loop
    vertex -155.26353736131307 212.42864579451864 3.560536662252724
    vertex -155.1031261055278 34.62864579451752 3.610441757524618
    vertex -155.1031261045844 212.4286457945177 3.6104417579041526
  endloop
endfacet
facet normal 0.10036920294677178 -2.656316758147394e-12 0.994950261621067
  outer loop
    vertex -154.10399632937245 34.62864579451207 3.6775095536287017
    vertex -154.27114290829593 212.4286457945131 3.6943710692453773
    vertex -154.27114290923936 34.62864579451292 3.694371068865843
  endloop
endfacet
facet normal 0.10036920294677178 -2.656316758147394e-12 0.994950261621067
  outer loop
    vertex -154.27114290829593 212.4286457945131 3.6943710692453773
    vertex -154.10399632937245 34.62864579451207 3.6775095536287017
    vertex -154.103996328429 212.42864579451225 3.677509554008236
  endloop
endfacet
facet normal 0.3603481902913983 -3.903190526374713e-12 0.9328178716950669
  outer loop
    vertex -153.4578409629755 34.62864579450896 3.4999999999999956
    vertex -153.61454961663193 212.4286457945099 3.5605366622527237
    vertex -153.61454961757542 34.628645794509715 3.560536661873189
  endloop
endfacet
facet normal 0.3603481902913983 -3.903190526374713e-12 0.9328178716950669
  outer loop
    vertex -153.61454961663193 212.4286457945099 3.5605366622527237
    vertex -153.4578409629755 34.62864579450896 3.4999999999999956
    vertex -153.45784096203204 212.42864579450912 3.50000000037953
  endloop
endfacet
facet normal -0.19683419198611282 3.137190382422446e-12 -0.9804367908565926
  outer loop
    vertex -155.3260344122342 212.42864579451933 3.38680772778073
    vertex -155.23276471187552 34.6286457945187 3.3680827402691262
    vertex -155.32603441317767 34.62864579451913 3.386807727401196
  endloop
endfacet
facet normal -0.19683419198611282 3.137190382422446e-12 -0.9804367908565926
  outer loop
    vertex -155.23276471187552 34.6286457945187 3.3680827402691262
    vertex -155.3260344122342 212.42864579451933 3.38680772778073
    vertex -155.23276471093206 212.42864579451887 3.3680827406486604
  endloop
endfacet
facet normal -0.36640376074051373 3.930250656133775e-12 -0.9304559549571426
  outer loop
    vertex -155.0503451107333 212.42864579451802 3.314314342407452
    vertex -154.96183012549622 34.62864579451743 3.2794580722113333
    vertex -155.05034511167676 34.628645794517844 3.314314342027918
  endloop
endfacet
facet normal -0.36640376074051373 3.930250656133775e-12 -0.9304559549571426
  outer loop
    vertex -154.96183012549622 34.62864579451743 3.2794580722113333
    vertex -155.0503451107333 212.42864579451802 3.314314342407452
    vertex -154.96183012455282 212.42864579451762 3.2794580725908675
  endloop
endfacet
facet normal -0.23244405257505418 -8.426908698815646e-13 0.9726097688294549
  outer loop
    vertex -154.9397326147416 34.62864579451652 3.6494911752663737
    vertex -155.1031261045844 212.4286457945177 3.6104417579041526
    vertex -155.1031261055278 34.62864579451752 3.610441757524618
  endloop
endfacet
facet normal -0.23244405257505418 -8.426908698815646e-13 0.9726097688294549
  outer loop
    vertex -155.1031261045844 212.4286457945177 3.6104417579041526
    vertex -154.9397326147416 34.62864579451652 3.6494911752663737
    vertex -154.93973261379816 212.4286457945167 3.6494911756459083
  endloop
endfacet
facet normal -0.6211136989576956 4.9685589853075996e-12 -0.7837204686411408
  outer loop
    vertex -154.63282453389778 212.4286457945163 3.0899217094502194
    vertex -154.55826860762977 34.628645794515855 3.0308346881462485
    vertex -154.63282453484118 34.6286457945161 3.0899217090706843
  endloop
endfacet
facet normal -0.6211136989576956 4.9685589853075996e-12 -0.7837204686411408
  outer loop
    vertex -154.55826860762977 34.628645794515855 3.0308346881462485
    vertex -154.63282453389778 212.4286457945163 3.0899217094502194
    vertex -154.55826860668634 212.42864579451603 3.030834688525783
  endloop
endfacet
facet normal 0.7686707776666472 -5.443826150514918e-12 0.6396446166124998
  outer loop
    vertex -147.00131922290174 212.42864579448033 1.0000000003794867
    vertex -148.58239243083366 34.62864579448445 2.8999999999999964
    vertex -147.00131922384512 34.62864579448008 1.0000000000000009
  endloop
endfacet
facet normal 0.7686707776666472 -5.443826150514918e-12 0.6396446166124998
  outer loop
    vertex -148.58239243083366 34.62864579448445 2.8999999999999964
    vertex -147.00131922290174 212.42864579448033 1.0000000003794867
    vertex -148.58239242989023 212.4286457944846 2.900000000379531
  endloop
endfacet
facet normal 0.7090652519324866 -2.2572313266761583e-12 -0.7051428709856744
  outer loop
    vertex -148.58239243083366 34.62864579448445 2.8999999999999964
    vertex -148.5153116496039 212.42864579448414 2.9674539197633756
    vertex -148.51531165054735 34.62864579448392 2.9674539193838405
  endloop
endfacet
facet normal 0.7090652519324866 -2.2572313266761583e-12 -0.7051428709856744
  outer loop
    vertex -148.5153116496039 212.42864579448414 2.9674539197633756
    vertex -148.58239243083366 34.62864579448445 2.8999999999999964
    vertex -148.58239242989023 212.4286457944846 2.900000000379531
  endloop
endfacet
facet normal -0.31089699774496504 3.678390126515374e-12 -0.9504436105278248
  outer loop
    vertex -155.14076153786576 212.42864579451842 3.343890211434225
    vertex -155.05034511167676 34.628645794517844 3.314314342027918
    vertex -155.1407615388092 34.62864579451824 3.34389021105469
  endloop
endfacet
facet normal -0.31089699774496504 3.678390126515374e-12 -0.9504436105278248
  outer loop
    vertex -155.05034511167676 34.628645794517844 3.314314342027918
    vertex -155.14076153786576 212.42864579451842 3.343890211434225
    vertex -155.0503451107333 212.42864579451802 3.314314342407452
  endloop
endfacet
facet normal 0.6662489174934872 -1.9434382538114126e-12 -0.7457294281029524
  outer loop
    vertex -148.5153116496039 212.42864579448414 2.9674539197633756
    vertex -148.44436984006046 34.62864579448343 3.0308346881462485
    vertex -148.51531165054735 34.62864579448392 2.9674539193838405
  endloop
endfacet
facet normal 0.6662489174934872 -1.9434382538114126e-12 -0.7457294281029524
  outer loop
    vertex -148.44436984006046 34.62864579448343 3.0308346881462485
    vertex -148.5153116496039 212.42864579448414 2.9674539197633756
    vertex -148.444369839117 212.4286457944836 3.030834688525783
  endloop
endfacet
facet normal 0.6211136989577409 -1.6228260517956195e-12 -0.7837204686411047
  outer loop
    vertex -148.444369839117 212.4286457944836 3.030834688525783
    vertex -148.36981391284903 34.628645794482914 3.0899217090706856
    vertex -148.44436984006046 34.62864579448343 3.0308346881462485
  endloop
endfacet
facet normal 0.6211136989577409 -1.6228260517956195e-12 -0.7837204686411047
  outer loop
    vertex -148.36981391284903 34.628645794482914 3.0899217090706856
    vertex -148.444369839117 212.4286457944836 3.030834688525783
    vertex -148.3698139119056 212.42864579448306 3.0899217094502203
  endloop
endfacet
facet normal 0.573816689774951 -1.2965931255590439e-12 -0.8189837645128978
  outer loop
    vertex -148.3698139119056 212.42864579448306 3.0899217094502203
    vertex -148.29190336134818 34.62864579448236 3.144509329360517
    vertex -148.36981391284903 34.628645794482914 3.0899217090706856
  endloop
endfacet
facet normal 0.573816689774951 -1.2965931255590439e-12 -0.8189837645128978
  outer loop
    vertex -148.29190336134818 34.62864579448236 3.144509329360517
    vertex -148.3698139119056 212.42864579448306 3.0899217094502203
    vertex -148.29190336040475 212.42864579448255 3.1445093297400515
  endloop
endfacet
facet normal 0.5245225075217786 -9.658479373400149e-13 -0.8513965815664669
  outer loop
    vertex -148.29190336040475 212.42864579448255 3.1445093297400515
    vertex -148.2109093537866 34.62864579448182 3.194407556415021
    vertex -148.29190336134818 34.62864579448236 3.144509329360517
  endloop
endfacet
facet normal 0.5245225075217786 -9.658479373400149e-13 -0.8513965815664669
  outer loop
    vertex -148.2109093537866 34.62864579448182 3.194407556415021
    vertex -148.29190336040475 212.42864579448255 3.1445093297400515
    vertex -148.21090935284317 212.428645794482 3.1944075567945553
  endloop
endfacet
facet normal 0.366403760740157 4.1899349235387045e-14 -0.9304559549572832
  outer loop
    vertex -148.04080832125055 212.42864579448087 3.2794580725908693
    vertex -147.95229333601338 34.62864579448019 3.3143143420279184
    vertex -148.04080832219398 34.62864579448071 3.2794580722113347
  endloop
endfacet
facet normal 0.366403760740157 4.1899349235387045e-14 -0.9304559549572832
  outer loop
    vertex -147.95229333601338 34.62864579448019 3.3143143420279184
    vertex -148.04080832125055 212.42864579448087 3.2794580725908693
    vertex -147.95229333506995 212.4286457944804 3.314314342407453
  endloop
endfacet
facet normal 0.3108969977452753 3.7908787939007575e-13 -0.9504436105277232
  outer loop
    vertex -147.95229333506995 212.4286457944804 3.314314342407453
    vertex -147.86187690888104 34.6286457944796 3.343890211054692
    vertex -147.95229333601338 34.62864579448019 3.3143143420279184
  endloop
endfacet
facet normal 0.3108969977452753 3.7908787939007575e-13 -0.9504436105277232
  outer loop
    vertex -147.86187690888104 34.6286457944796 3.343890211054692
    vertex -147.95229333506995 212.4286457944804 3.314314342407453
    vertex -147.8618769079376 212.4286457944798 3.343890211434226
  endloop
endfacet
facet normal 0.23244405257507442 -3.3094248982583804e-12 0.97260976882945
  outer loop
    vertex -153.77496087430418 34.62864579451043 3.6104417575246157
    vertex -153.93835436414696 212.4286457945114 3.649491175645906
    vertex -153.93835436509042 34.6286457945112 3.6494911752663715
  endloop
endfacet
facet normal 0.23244405257507442 -3.3094248982583804e-12 0.97260976882945
  outer loop
    vertex -153.93835436414696 212.4286457945114 3.649491175645906
    vertex -153.77496087430418 34.62864579451043 3.6104417575246157
    vertex -153.77496087336078 212.42864579451063 3.6104417579041503
  endloop
endfacet
facet normal -0.7090652519322173 5.267542789100682e-12 -0.7051428709859451
  outer loop
    vertex -154.48732679714288 34.62864579451559 2.9674539193838405
    vertex -154.42024601591305 212.42864579451557 2.9000000003795297
    vertex -154.4202460168565 34.62864579451538 2.899999999999995
  endloop
endfacet
facet normal -0.7090652519322173 5.267542789100682e-12 -0.7051428709859451
  outer loop
    vertex -154.42024601591305 212.42864579451557 2.9000000003795297
    vertex -154.48732679714288 34.62864579451559 2.9674539193838405
    vertex -154.48732679619945 212.4286457945158 2.9674539197633756
  endloop
endfacet
facet normal 0.47340272094938834 -6.317411537218666e-13 -0.8808461067619676
  outer loop
    vertex -148.21090935284317 212.428645794482 3.1944075567945553
    vertex -148.12711379038367 34.62864579448126 3.239442719099984
    vertex -148.2109093537866 34.62864579448182 3.194407556415021
  endloop
endfacet
facet normal 0.47340272094938834 -6.317411537218666e-13 -0.8808461067619676
  outer loop
    vertex -148.12711379038367 34.62864579448126 3.239442719099984
    vertex -148.21090935284317 212.428645794482 3.1944075567945553
    vertex -148.12711378944022 212.4286457944814 3.2394427194795186
  endloop
endfacet
facet normal 0.25430815553789626 7.149570106640942e-13 -0.9671232403509459
  outer loop
    vertex -147.8618769079376 212.4286457944798 3.343890211434226
    vertex -147.76987373581466 34.628645794479105 3.3680827402691276
    vertex -147.86187690888104 34.6286457944796 3.343890211054692
  endloop
endfacet
facet normal 0.25430815553789626 7.149570106640942e-13 -0.9671232403509459
  outer loop
    vertex -147.76987373581466 34.628645794479105 3.3680827402691276
    vertex -147.8618769079376 212.4286457944798 3.343890211434226
    vertex -147.7698737348712 212.4286457944793 3.3680827406486618
  endloop
endfacet
facet normal -0.03350655759172229 -1.955528886870468e-12 0.9994384976567355
  outer loop
    vertex -154.439043489916 34.62864579451377 3.6999999999999953
    vertex -154.60694406964927 212.42864579451486 3.6943710692453795
    vertex -154.60694407059273 34.6286457945147 3.6943710688658453
  endloop
endfacet
facet normal -0.03350655759172229 -1.955528886870468e-12 0.9994384976567355
  outer loop
    vertex -154.60694406964927 212.42864579451486 3.6943710692453795
    vertex -154.439043489916 34.62864579451377 3.6999999999999953
    vertex -154.43904348897254 212.42864579451395 3.7000000003795295
  endloop
endfacet
facet normal -0.7686707776666233 2.7133058228586082e-12 0.6396446166125287
  outer loop
    vertex -154.42024601591305 212.42864579451557 2.9000000003795297
    vertex -156.00131922384512 34.62864579452785 0.9999999999999996
    vertex -154.4202460168565 34.62864579451538 2.899999999999995
  endloop
endfacet
facet normal -0.7686707776666233 2.7133058228586082e-12 0.6396446166125287
  outer loop
    vertex -156.00131922384512 34.62864579452785 0.9999999999999996
    vertex -154.42024601591305 212.42864579451557 2.9000000003795297
    vertex -156.0013192229017 212.42864579452808 1.0000000003794849
  endloop
endfacet
facet normal 0.4206352528399913 -2.954350391542015e-13 -0.9072298408166678
  outer loop
    vertex -148.12711378944022 212.4286457944814 3.2394427194795186
    vertex -148.04080832219398 34.62864579448071 3.2794580722113347
    vertex -148.12711379038367 34.62864579448126 3.239442719099984
  endloop
endfacet
facet normal 0.4206352528399913 -2.954350391542015e-13 -0.9072298408166678
  outer loop
    vertex -148.04080832219398 34.62864579448071 3.2794580722113347
    vertex -148.12711378944022 212.4286457944814 3.2394427194795186
    vertex -148.04080832125055 212.42864579448087 3.2794580725908693
  endloop
endfacet
facet normal 0.19683419198632637 1.0483377275122467e-12 -0.9804367908565498
  outer loop
    vertex -147.7698737348712 212.4286457944793 3.3680827406486618
    vertex -147.67660403451256 34.628645794478544 3.386807727401197
    vertex -147.76987373581466 34.628645794479105 3.3680827402691276
  endloop
endfacet
facet normal 0.19683419198632637 1.0483377275122467e-12 -0.9804367908565498
  outer loop
    vertex -147.67660403451256 34.628645794478544 3.386807727401197
    vertex -147.7698737348712 212.4286457944793 3.3680827406486618
    vertex -147.67660403356913 212.4286457944787 3.3868077277807314
  endloop
endfacet
facet normal 0.13867514562944283 1.3780696992626047e-12 -0.9903379241373386
  outer loop
    vertex -147.67660403356913 212.4286457944787 3.3868077277807314
    vertex -147.58239243083375 34.62864579447807 3.399999999999995
    vertex -147.67660403451256 34.628645794478544 3.386807727401197
  endloop
endfacet
facet normal 0.13867514562944283 1.3780696992626047e-12 -0.9903379241373386
  outer loop
    vertex -147.58239243083375 34.62864579447807 3.399999999999995
    vertex -147.67660403356913 212.4286457944787 3.3868077277807314
    vertex -147.5823924298903 212.42864579447823 3.4000000003795297
  endloop
endfacet
facet normal 1.0 -5.30614312178523e-12 -1.1924238655837873e-23
  outer loop
    vertex -147.58239243083375 34.62864579447807 3.399999999999995
    vertex -147.5823924298903 212.428645794478 3.5000000003795293
    vertex -147.58239243083375 34.628645794477855 3.499999999999995
  endloop
endfacet
facet normal 1.0 -5.30614312178523e-12 -1.1924238655837873e-23
  outer loop
    vertex -147.5823924298903 212.428645794478 3.5000000003795293
    vertex -147.58239243083375 34.62864579447807 3.399999999999995
    vertex -147.5823924298903 212.42864579447823 3.4000000003795297
  endloop
endfacet
facet normal -0.5738166897753968 4.7928901336671175e-12 -0.8189837645125854
  outer loop
    vertex -154.7107350853985 212.42864579451657 3.1445093297400506
    vertex -154.63282453484118 34.6286457945161 3.0899217090706843
    vertex -154.710735086342 34.6286457945164 3.144509329360516
  endloop
endfacet
facet normal -0.5738166897753968 4.7928901336671175e-12 -0.8189837645125854
  outer loop
    vertex -154.63282453484118 34.6286457945161 3.0899217090706843
    vertex -154.7107350853985 212.42864579451657 3.1445093297400506
    vertex -154.63282453389778 212.4286457945163 3.0899217094502194
  endloop
endfacet
facet normal -0.6662489174934874 5.126985963143626e-12 -0.7457294281029523
  outer loop
    vertex -154.55826860668634 212.42864579451603 3.030834688525783
    vertex -154.48732679714288 34.62864579451559 2.9674539193838405
    vertex -154.55826860762977 34.628645794515855 3.0308346881462485
  endloop
endfacet
facet normal -0.6662489174934874 5.126985963143626e-12 -0.7457294281029523
  outer loop
    vertex -154.48732679714288 34.62864579451559 2.9674539193838405
    vertex -154.55826860668634 212.42864579451603 3.030834688525783
    vertex -154.48732679619945 212.4286457945158 2.9674539197633756
  endloop
endfacet
facet normal 0.3603481902912925 -3.903175608500255e-12 0.9328178716951077
  outer loop
    vertex -147.58239243083375 34.628645794477855 3.499999999999995
    vertex -147.73910108449027 212.4286457944787 3.560536662252726
    vertex -147.7391010854337 34.62864579447854 3.5605366618731913
  endloop
endfacet
facet normal 0.3603481902912925 -3.903175608500255e-12 0.9328178716951077
  outer loop
    vertex -147.73910108449027 212.4286457944787 3.560536662252726
    vertex -147.58239243083375 34.628645794477855 3.499999999999995
    vertex -147.5823924298903 212.428645794478 3.5000000003795293
  endloop
endfacet
facet normal 0.2324440525750238 -3.309415275474527e-12 0.972609768829462
  outer loop
    vertex -147.89951234216238 34.628645794479304 3.6104417575246193
    vertex -148.0629058320052 212.42864579448025 3.6494911756459096
    vertex -148.06290583294864 34.628645794480065 3.649491175266375
  endloop
endfacet
facet normal 0.2324440525750238 -3.309415275474527e-12 0.972609768829462
  outer loop
    vertex -148.0629058320052 212.42864579448025 3.6494911756459096
    vertex -147.89951234216238 34.628645794479304 3.6104417575246193
    vertex -147.89951234121898 212.42864579447948 3.610441757904154
  endloop
endfacet
facet normal 0.297063140712673 -3.6144085342090657e-12 0.9548578378114319
  outer loop
    vertex -147.7391010854337 34.62864579447854 3.5605366618731913
    vertex -147.89951234121898 212.42864579447948 3.610441757904154
    vertex -147.89951234216238 34.628645794479304 3.6104417575246193
  endloop
endfacet
facet normal 0.297063140712673 -3.6144085342090657e-12 0.9548578378114319
  outer loop
    vertex -147.89951234121898 212.42864579447948 3.610441757904154
    vertex -147.7391010854337 34.62864579447854 3.5605366618731913
    vertex -147.73910108449027 212.4286457944787 3.560536662252726
  endloop
endfacet
facet normal 5.3060239116850186e-12 1.0 2.1559632252349204e-12
  outer loop
    vertex -154.42024601591305 212.42864579451557 2.9000000003795297
    vertex -154.0013192229017 212.42864579451742 1.0000000003794849
    vertex -156.0013192229017 212.42864579452808 1.0000000003794849
  endloop
endfacet
facet normal 5.3060239116850186e-12 1.0 2.1559632252349204e-12
  outer loop
    vertex -154.0013192229017 212.42864579451742 1.0000000003794849
    vertex -154.42024601591305 212.42864579451557 2.9000000003795297
    vertex -153.45784096203204 212.42864579450912 3.50000000037953
  endloop
endfacet
facet normal 5.3060239116850186e-12 1.0 2.1559632252349204e-12
  outer loop
    vertex -153.45784096203204 212.42864579450912 3.50000000037953
    vertex -154.42024601591305 212.42864579451557 2.9000000003795297
    vertex -154.48732679619945 212.4286457945158 2.9674539197633756
  endloop
endfacet
facet normal 5.3060239116850186e-12 1.0 2.1559632252349204e-12
  outer loop
    vertex -153.45784096203204 212.42864579450912 3.50000000037953
    vertex -154.48732679619945 212.4286457945158 2.9674539197633756
    vertex -154.55826860668634 212.42864579451603 3.030834688525783
  endloop
endfacet
facet normal 5.3060239116850186e-12 1.0 2.1559632252349204e-12
  outer loop
    vertex -153.45784096203204 212.42864579450912 3.50000000037953
    vertex -154.55826860668634 212.42864579451603 3.030834688525783
    vertex -154.63282453389778 212.4286457945163 3.0899217094502194
  endloop
endfacet
facet normal 5.3060239116850186e-12 1.0 2.1559632252349204e-12
  outer loop
    vertex -153.45784096203204 212.42864579450912 3.50000000037953
    vertex -154.63282453389778 212.4286457945163 3.0899217094502194
    vertex -154.7107350853985 212.42864579451657 3.1445093297400506
  endloop
endfacet
facet normal 5.3060239116850186e-12 1.0 2.1559632252349204e-12
  outer loop
    vertex -153.45784096203204 212.42864579450912 3.50000000037953
    vertex -154.7107350853985 212.42864579451657 3.1445093297400506
    vertex -154.7917290929602 212.42864579451688 3.194407556794554
  endloop
endfacet
facet normal 5.3060239116850186e-12 1.0 2.1559632252349204e-12
  outer loop
    vertex -153.45784096203204 212.42864579450912 3.50000000037953
    vertex -154.7917290929602 212.42864579451688 3.194407556794554
    vertex -154.87552465636307 212.4286457945172 3.2394427194795172
  endloop
endfacet
facet normal 5.3060239116850186e-12 1.0 2.1559632252349204e-12
  outer loop
    vertex -153.45784096203204 212.42864579450912 3.50000000037953
    vertex -154.87552465636307 212.4286457945172 3.2394427194795172
    vertex -154.96183012455282 212.42864579451762 3.2794580725908675
  endloop
endfacet
facet normal 5.3060239116850186e-12 1.0 2.1559632252349204e-12
  outer loop
    vertex -153.45784096203204 212.42864579450912 3.50000000037953
    vertex -154.96183012455282 212.42864579451762 3.2794580725908675
    vertex -155.0503451107333 212.42864579451802 3.314314342407452
  endloop
endfacet
facet normal 5.3060239116850186e-12 1.0 2.1559632252349204e-12
  outer loop
    vertex -153.45784096203204 212.42864579450912 3.50000000037953
    vertex -155.0503451107333 212.42864579451802 3.314314342407452
    vertex -155.14076153786576 212.42864579451842 3.343890211434225
  endloop
endfacet
facet normal 5.3060239116850186e-12 1.0 2.1559632252349204e-12
  outer loop
    vertex -153.45784096203204 212.42864579450912 3.50000000037953
    vertex -155.14076153786576 212.42864579451842 3.343890211434225
    vertex -155.23276471093206 212.42864579451887 3.3680827406486604
  endloop
endfacet
facet normal 5.3060239116850186e-12 1.0 2.1559632252349204e-12
  outer loop
    vertex -153.45784096203204 212.42864579450912 3.50000000037953
    vertex -155.23276471093206 212.42864579451887 3.3680827406486604
    vertex -155.3260344122342 212.42864579451933 3.38680772778073
  endloop
endfacet
facet normal 5.3060239116850186e-12 1.0 2.1559632252349204e-12
  outer loop
    vertex -153.45784096203204 212.42864579450912 3.50000000037953
    vertex -155.3260344122342 212.42864579451933 3.38680772778073
    vertex -155.42024601591302 212.42864579451987 3.4000000003795283
  endloop
endfacet
facet normal 5.3060239116850186e-12 1.0 2.1559632252349204e-12
  outer loop
    vertex -153.45784096203204 212.42864579450912 3.50000000037953
    vertex -155.42024601591302 212.42864579451987 3.4000000003795283
    vertex -155.42024601591308 212.42864579451958 3.500000000379528
  endloop
endfacet
facet normal 5.3060239116850186e-12 1.0 2.1559632252349204e-12
  outer loop
    vertex -153.45784096203204 212.42864579450912 3.50000000037953
    vertex -155.42024601591308 212.42864579451958 3.500000000379528
    vertex -155.26353736131307 212.42864579451864 3.560536662252724
  endloop
endfacet
facet normal 5.3060239116850186e-12 1.0 2.1559632252349204e-12
  outer loop
    vertex -153.45784096203204 212.42864579450912 3.50000000037953
    vertex -155.26353736131307 212.42864579451864 3.560536662252724
    vertex -153.61454961663193 212.4286457945099 3.5605366622527237
  endloop
endfacet
facet normal 5.3060239116850186e-12 1.0 2.1559632252349204e-12
  outer loop
    vertex -153.61454961663193 212.4286457945099 3.5605366622527237
    vertex -155.26353736131307 212.42864579451864 3.560536662252724
    vertex -153.77496087336078 212.42864579451063 3.6104417579041503
  endloop
endfacet
facet normal 5.3060239116850186e-12 1.0 2.1559632252349204e-12
  outer loop
    vertex -153.77496087336078 212.42864579451063 3.6104417579041503
    vertex -155.26353736131307 212.42864579451864 3.560536662252724
    vertex -155.1031261045844 212.4286457945177 3.6104417579041526
  endloop
endfacet
facet normal 5.3060239116850186e-12 1.0 2.1559632252349204e-12
  outer loop
    vertex -153.77496087336078 212.42864579451063 3.6104417579041503
    vertex -155.1031261045844 212.4286457945177 3.6104417579041526
    vertex -153.93835436414696 212.4286457945114 3.649491175645906
  endloop
endfacet
facet normal 5.3060239116850186e-12 1.0 2.1559632252349204e-12
  outer loop
    vertex -153.93835436414696 212.4286457945114 3.649491175645906
    vertex -155.1031261045844 212.4286457945177 3.6104417579041526
    vertex -154.93973261379816 212.4286457945167 3.6494911756459083
  endloop
endfacet
facet normal 5.3060239116850186e-12 1.0 2.1559632252349204e-12
  outer loop
    vertex -153.93835436414696 212.4286457945114 3.649491175645906
    vertex -154.93973261379816 212.4286457945167 3.6494911756459083
    vertex -154.103996328429 212.42864579451225 3.677509554008236
  endloop
endfacet
facet normal 5.3060239116850186e-12 1.0 2.1559632252349204e-12
  outer loop
    vertex -154.103996328429 212.42864579451225 3.677509554008236
    vertex -154.93973261379816 212.4286457945167 3.6494911756459083
    vertex -154.774090649516 212.42864579451577 3.6775095540082336
  endloop
endfacet
facet normal 5.3060239116850186e-12 1.0 2.1559632252349204e-12
  outer loop
    vertex -154.103996328429 212.42864579451225 3.677509554008236
    vertex -154.774090649516 212.42864579451577 3.6775095540082336
    vertex -154.60694406964927 212.42864579451486 3.6943710692453795
  endloop
endfacet
facet normal 5.3060239116850186e-12 1.0 2.1559632252349204e-12
  outer loop
    vertex -154.103996328429 212.42864579451225 3.677509554008236
    vertex -154.60694406964927 212.42864579451486 3.6943710692453795
    vertex -154.27114290829593 212.4286457945131 3.6943710692453773
  endloop
endfacet
facet normal 5.3060239116850186e-12 1.0 2.1559632252349204e-12
  outer loop
    vertex -154.27114290829593 212.4286457945131 3.6943710692453773
    vertex -154.60694406964927 212.42864579451486 3.6943710692453795
    vertex -154.43904348897254 212.42864579451395 3.7000000003795295
  endloop
endfacet
facet normal 5.3060239116850186e-12 1.0 2.1559632252349204e-12
  outer loop
    vertex -157.5013192229017 212.42864579453612 1.0000000003794849
    vertex -147.00131922290174 212.4286457944824 3.794842995397118e-10
    vertex -156.00131922290174 212.4286457945302 3.794842995397118e-10
  endloop
endfacet
facet normal 5.3060239116850186e-12 1.0 2.1559632252349204e-12
  outer loop
    vertex -147.00131922290174 212.4286457944824 3.794842995397118e-10
    vertex -157.5013192229017 212.42864579453612 1.0000000003794849
    vertex -145.62631922290174 212.42864579447294 1.0000000003794849
  endloop
endfacet
facet normal 5.3060239116850186e-12 1.0 2.1559632252349204e-12
  outer loop
    vertex -145.62631922290174 212.42864579447294 1.0000000003794849
    vertex -157.5013192229017 212.42864579453612 1.0000000003794849
    vertex -156.0013192229017 212.42864579452808 1.0000000003794849
  endloop
endfacet
facet normal 5.3060239116850186e-12 1.0 2.1559632252349204e-12
  outer loop
    vertex -145.62631922290174 212.42864579447294 1.0000000003794849
    vertex -156.0013192229017 212.42864579452808 1.0000000003794849
    vertex -154.0013192229017 212.42864579451742 1.0000000003794849
  endloop
endfacet
facet normal 5.3060239116850186e-12 1.0 2.1559632252349204e-12
  outer loop
    vertex -145.62631922290174 212.42864579447294 1.0000000003794849
    vertex -154.0013192229017 212.42864579451742 1.0000000003794849
    vertex -149.00131922290174 212.42864579449093 1.0000000003794867
  endloop
endfacet
facet normal 5.3060239116850186e-12 1.0 2.1559632252349204e-12
  outer loop
    vertex -145.62631922290174 212.42864579447294 1.0000000003794849
    vertex -149.00131922290174 212.42864579449093 1.0000000003794867
    vertex -147.00131922290174 212.42864579448033 1.0000000003794867
  endloop
endfacet
facet normal 5.3060239116850186e-12 1.0 2.1559632252349204e-12
  outer loop
    vertex -147.00131922290174 212.42864579448033 1.0000000003794867
    vertex -149.00131922290174 212.42864579449093 1.0000000003794867
    vertex -149.54479748377133 212.42864579448843 3.5000000003795315
  endloop
endfacet
facet normal 5.3060239116850186e-12 1.0 2.1559632252349204e-12
  outer loop
    vertex -147.00131922290174 212.42864579448033 1.0000000003794867
    vertex -149.54479748377133 212.42864579448843 3.5000000003795315
    vertex -148.58239242989023 212.4286457944846 2.900000000379531
  endloop
endfacet
facet normal 5.3060239116850186e-12 1.0 2.1559632252349204e-12
  outer loop
    vertex -148.58239242989023 212.4286457944846 2.900000000379531
    vertex -149.54479748377133 212.42864579448843 3.5000000003795315
    vertex -148.5153116496039 212.42864579448414 2.9674539197633756
  endloop
endfacet
facet normal 5.3060239116850186e-12 1.0 2.1559632252349204e-12
  outer loop
    vertex -148.5153116496039 212.42864579448414 2.9674539197633756
    vertex -149.54479748377133 212.42864579448843 3.5000000003795315
    vertex -148.444369839117 212.4286457944836 3.030834688525783
  endloop
endfacet
facet normal 5.3060239116850186e-12 1.0 2.1559632252349204e-12
  outer loop
    vertex -148.444369839117 212.4286457944836 3.030834688525783
    vertex -149.54479748377133 212.42864579448843 3.5000000003795315
    vertex -148.3698139119056 212.42864579448306 3.0899217094502203
  endloop
endfacet
facet normal 5.3060239116850186e-12 1.0 2.1559632252349204e-12
  outer loop
    vertex -148.3698139119056 212.42864579448306 3.0899217094502203
    vertex -149.54479748377133 212.42864579448843 3.5000000003795315
    vertex -148.29190336040475 212.42864579448255 3.1445093297400515
  endloop
endfacet
facet normal 5.3060239116850186e-12 1.0 2.1559632252349204e-12
  outer loop
    vertex -148.29190336040475 212.42864579448255 3.1445093297400515
    vertex -149.54479748377133 212.42864579448843 3.5000000003795315
    vertex -148.21090935284317 212.428645794482 3.1944075567945553
  endloop
endfacet
facet normal 5.3060239116850186e-12 1.0 2.1559632252349204e-12
  outer loop
    vertex -148.21090935284317 212.428645794482 3.1944075567945553
    vertex -149.54479748377133 212.42864579448843 3.5000000003795315
    vertex -148.12711378944022 212.4286457944814 3.2394427194795186
  endloop
endfacet
facet normal 5.3060239116850186e-12 1.0 2.1559632252349204e-12
  outer loop
    vertex -148.12711378944022 212.4286457944814 3.2394427194795186
    vertex -149.54479748377133 212.42864579448843 3.5000000003795315
    vertex -148.04080832125055 212.42864579448087 3.2794580725908693
  endloop
endfacet
facet normal 5.3060239116850186e-12 1.0 2.1559632252349204e-12
  outer loop
    vertex -148.04080832125055 212.42864579448087 3.2794580725908693
    vertex -149.54479748377133 212.42864579448843 3.5000000003795315
    vertex -147.95229333506995 212.4286457944804 3.314314342407453
  endloop
endfacet
facet normal 5.3060239116850186e-12 1.0 2.1559632252349204e-12
  outer loop
    vertex -147.95229333506995 212.4286457944804 3.314314342407453
    vertex -149.54479748377133 212.42864579448843 3.5000000003795315
    vertex -147.8618769079376 212.4286457944798 3.343890211434226
  endloop
endfacet
facet normal 5.3060239116850186e-12 1.0 2.1559632252349204e-12
  outer loop
    vertex -147.8618769079376 212.4286457944798 3.343890211434226
    vertex -149.54479748377133 212.42864579448843 3.5000000003795315
    vertex -147.7698737348712 212.4286457944793 3.3680827406486618
  endloop
endfacet
facet normal 5.3060239116850186e-12 1.0 2.1559632252349204e-12
  outer loop
    vertex -147.7698737348712 212.4286457944793 3.3680827406486618
    vertex -149.54479748377133 212.42864579448843 3.5000000003795315
    vertex -147.67660403356913 212.4286457944787 3.3868077277807314
  endloop
endfacet
facet normal 5.3060239116850186e-12 1.0 2.1559632252349204e-12
  outer loop
    vertex -147.67660403356913 212.4286457944787 3.3868077277807314
    vertex -149.54479748377133 212.42864579448843 3.5000000003795315
    vertex -147.5823924298903 212.42864579447823 3.4000000003795297
  endloop
endfacet
facet normal 5.3060239116850186e-12 1.0 2.1559632252349204e-12
  outer loop
    vertex -147.5823924298903 212.42864579447823 3.4000000003795297
    vertex -149.54479748377133 212.42864579448843 3.5000000003795315
    vertex -147.5823924298903 212.428645794478 3.5000000003795293
  endloop
endfacet
facet normal 5.3060239116850186e-12 1.0 2.1559632252349204e-12
  outer loop
    vertex -147.5823924298903 212.428645794478 3.5000000003795293
    vertex -149.54479748377133 212.42864579448843 3.5000000003795315
    vertex -147.73910108449027 212.4286457944787 3.560536662252726
  endloop
endfacet
facet normal 5.3060239116850186e-12 1.0 2.1559632252349204e-12
  outer loop
    vertex -147.73910108449027 212.4286457944787 3.560536662252726
    vertex -149.54479748377133 212.42864579448843 3.5000000003795315
    vertex -149.38808882917138 212.42864579448747 3.5605366622527264
  endloop
endfacet
facet normal 5.3060239116850186e-12 1.0 2.1559632252349204e-12
  outer loop
    vertex -147.73910108449027 212.4286457944787 3.560536662252726
    vertex -149.38808882917138 212.42864579448747 3.5605366622527264
    vertex -147.89951234121898 212.42864579447948 3.610441757904154
  endloop
endfacet
facet normal 5.3060239116850186e-12 1.0 2.1559632252349204e-12
  outer loop
    vertex -147.89951234121898 212.42864579447948 3.610441757904154
    vertex -149.38808882917138 212.42864579448747 3.5605366622527264
    vertex -149.2276775724426 212.42864579448647 3.6104417579041517
  endloop
endfacet
facet normal 5.3060239116850186e-12 1.0 2.1559632252349204e-12
  outer loop
    vertex -147.89951234121898 212.42864579447948 3.610441757904154
    vertex -149.2276775724426 212.42864579448647 3.6104417579041517
    vertex -149.0642840816564 212.42864579448553 3.6494911756459083
  endloop
endfacet
facet normal 5.3060239116850186e-12 1.0 2.1559632252349204e-12
  outer loop
    vertex -147.89951234121898 212.42864579447948 3.610441757904154
    vertex -149.0642840816564 212.42864579448553 3.6494911756459083
    vertex -148.0629058320052 212.42864579448025 3.6494911756459096
  endloop
endfacet
facet normal 5.3060239116850186e-12 1.0 2.1559632252349204e-12
  outer loop
    vertex -148.0629058320052 212.42864579448025 3.6494911756459096
    vertex -149.0642840816564 212.42864579448553 3.6494911756459083
    vertex -148.89864211737432 212.42864579448462 3.677509554008237
  endloop
endfacet
facet normal 5.3060239116850186e-12 1.0 2.1559632252349204e-12
  outer loop
    vertex -148.0629058320052 212.42864579448025 3.6494911756459096
    vertex -148.89864211737432 212.42864579448462 3.677509554008237
    vertex -148.2285477962873 212.42864579448107 3.677509554008235
  endloop
endfacet
facet normal 5.3060239116850186e-12 1.0 2.1559632252349204e-12
  outer loop
    vertex -148.2285477962873 212.42864579448107 3.677509554008235
    vertex -148.89864211737432 212.42864579448462 3.677509554008237
    vertex -148.3956943761541 212.42864579448192 3.694371069245381
  endloop
endfacet
facet normal 5.3060239116850186e-12 1.0 2.1559632252349204e-12
  outer loop
    vertex -148.3956943761541 212.42864579448192 3.694371069245381
    vertex -148.89864211737432 212.42864579448462 3.677509554008237
    vertex -148.73149553750744 212.4286457944837 3.694371069245379
  endloop
endfacet
facet normal 5.3060239116850186e-12 1.0 2.1559632252349204e-12
  outer loop
    vertex -148.3956943761541 212.42864579448192 3.694371069245381
    vertex -148.73149553750744 212.4286457944837 3.694371069245379
    vertex -148.56359495683083 212.42864579448278 3.7000000003795313
  endloop
endfacet
facet normal -5.305809036297159e-12 -1.0 -2.1337690686333172e-12
  outer loop
    vertex -145.62631922384512 34.62864579447271 0.9999999999999996
    vertex -151.50131922384517 34.628645794506085 0.0
    vertex -147.00131922384517 34.62864579448221 -7.049916206369744e-16
  endloop
endfacet
facet normal -5.305809036297159e-12 -1.0 -2.1337690686333172e-12
  outer loop
    vertex -147.00131922384512 34.62864579448008 1.0000000000000009
    vertex -154.00131922384512 34.62864579451721 0.9999999999999996
    vertex -145.62631922384512 34.62864579447271 0.9999999999999996
  endloop
endfacet
facet normal -5.305809036297159e-12 -1.0 -2.1337690686333172e-12
  outer loop
    vertex -154.00131922384512 34.62864579451721 0.9999999999999996
    vertex -147.00131922384512 34.62864579448008 1.0000000000000009
    vertex -149.00131922384512 34.628645794490716 1.0000000000000009
  endloop
endfacet
facet normal -5.305809036297159e-12 -1.0 -2.1337690686333172e-12
  outer loop
    vertex -149.00131922384512 34.628645794490716 1.0000000000000009
    vertex -147.00131922384512 34.62864579448008 1.0000000000000009
    vertex -148.58239243083366 34.62864579448445 2.8999999999999964
  endloop
endfacet
facet normal -5.305809036297159e-12 -1.0 -2.1337690686333172e-12
  outer loop
    vertex -149.00131922384512 34.628645794490716 1.0000000000000009
    vertex -148.58239243083366 34.62864579448445 2.8999999999999964
    vertex -149.54479748471473 34.628645794488236 3.499999999999997
  endloop
endfacet
facet normal -5.305809036297159e-12 -1.0 -2.1337690686333172e-12
  outer loop
    vertex -149.54479748471473 34.628645794488236 3.499999999999997
    vertex -148.58239243083366 34.62864579448445 2.8999999999999964
    vertex -148.51531165054735 34.62864579448392 2.9674539193838405
  endloop
endfacet
facet normal -5.305809036297159e-12 -1.0 -2.1337690686333172e-12
  outer loop
    vertex -149.54479748471473 34.628645794488236 3.499999999999997
    vertex -148.51531165054735 34.62864579448392 2.9674539193838405
    vertex -148.44436984006046 34.62864579448343 3.0308346881462485
  endloop
endfacet
facet normal -5.305809036297159e-12 -1.0 -2.1337690686333172e-12
  outer loop
    vertex -149.54479748471473 34.628645794488236 3.499999999999997
    vertex -148.44436984006046 34.62864579448343 3.0308346881462485
    vertex -148.36981391284903 34.628645794482914 3.0899217090706856
  endloop
endfacet
facet normal -5.305809036297159e-12 -1.0 -2.1337690686333172e-12
  outer loop
    vertex -149.54479748471473 34.628645794488236 3.499999999999997
    vertex -148.36981391284903 34.628645794482914 3.0899217090706856
    vertex -148.29190336134818 34.62864579448236 3.144509329360517
  endloop
endfacet
facet normal -5.305809036297159e-12 -1.0 -2.1337690686333172e-12
  outer loop
    vertex -149.54479748471473 34.628645794488236 3.499999999999997
    vertex -148.29190336134818 34.62864579448236 3.144509329360517
    vertex -148.2109093537866 34.62864579448182 3.194407556415021
  endloop
endfacet
facet normal -5.305809036297159e-12 -1.0 -2.1337690686333172e-12
  outer loop
    vertex -149.54479748471473 34.628645794488236 3.499999999999997
    vertex -148.2109093537866 34.62864579448182 3.194407556415021
    vertex -148.12711379038367 34.62864579448126 3.239442719099984
  endloop
endfacet
facet normal -5.305809036297159e-12 -1.0 -2.1337690686333172e-12
  outer loop
    vertex -149.54479748471473 34.628645794488236 3.499999999999997
    vertex -148.12711379038367 34.62864579448126 3.239442719099984
    vertex -148.04080832219398 34.62864579448071 3.2794580722113347
  endloop
endfacet
facet normal -5.305809036297159e-12 -1.0 -2.1337690686333172e-12
  outer loop
    vertex -149.54479748471473 34.628645794488236 3.499999999999997
    vertex -148.04080832219398 34.62864579448071 3.2794580722113347
    vertex -147.95229333601338 34.62864579448019 3.3143143420279184
  endloop
endfacet
facet normal -5.305809036297159e-12 -1.0 -2.1337690686333172e-12
  outer loop
    vertex -149.54479748471473 34.628645794488236 3.499999999999997
    vertex -147.95229333601338 34.62864579448019 3.3143143420279184
    vertex -147.86187690888104 34.6286457944796 3.343890211054692
  endloop
endfacet
facet normal -5.305809036297159e-12 -1.0 -2.1337690686333172e-12
  outer loop
    vertex -149.54479748471473 34.628645794488236 3.499999999999997
    vertex -147.86187690888104 34.6286457944796 3.343890211054692
    vertex -147.76987373581466 34.628645794479105 3.3680827402691276
  endloop
endfacet
facet normal -5.305809036297159e-12 -1.0 -2.1337690686333172e-12
  outer loop
    vertex -149.54479748471473 34.628645794488236 3.499999999999997
    vertex -147.76987373581466 34.628645794479105 3.3680827402691276
    vertex -147.67660403451256 34.628645794478544 3.386807727401197
  endloop
endfacet
facet normal -5.305809036297159e-12 -1.0 -2.1337690686333172e-12
  outer loop
    vertex -149.54479748471473 34.628645794488236 3.499999999999997
    vertex -147.67660403451256 34.628645794478544 3.386807727401197
    vertex -147.58239243083375 34.62864579447807 3.399999999999995
  endloop
endfacet
facet normal -5.305809036297159e-12 -1.0 -2.1337690686333172e-12
  outer loop
    vertex -149.54479748471473 34.628645794488236 3.499999999999997
    vertex -147.58239243083375 34.62864579447807 3.399999999999995
    vertex -147.58239243083375 34.628645794477855 3.499999999999995
  endloop
endfacet
facet normal -5.305809036297159e-12 -1.0 -2.1337690686333172e-12
  outer loop
    vertex -149.54479748471473 34.628645794488236 3.499999999999997
    vertex -147.58239243083375 34.628645794477855 3.499999999999995
    vertex -147.7391010854337 34.62864579447854 3.5605366618731913
  endloop
endfacet
facet normal -5.305809036297159e-12 -1.0 -2.1337690686333172e-12
  outer loop
    vertex -149.54479748471473 34.628645794488236 3.499999999999997
    vertex -147.7391010854337 34.62864579447854 3.5605366618731913
    vertex -149.38808883011484 34.628645794487326 3.560536661873192
  endloop
endfacet
facet normal -5.305809036297159e-12 -1.0 -2.1337690686333172e-12
  outer loop
    vertex -149.38808883011484 34.628645794487326 3.560536661873192
    vertex -147.7391010854337 34.62864579447854 3.5605366618731913
    vertex -147.89951234216238 34.628645794479304 3.6104417575246193
  endloop
endfacet
facet normal -5.305809036297159e-12 -1.0 -2.1337690686333172e-12
  outer loop
    vertex -149.38808883011484 34.628645794487326 3.560536661873192
    vertex -147.89951234216238 34.628645794479304 3.6104417575246193
    vertex -149.227677573386 34.62864579448632 3.6104417575246175
  endloop
endfacet
facet normal -5.305809036297159e-12 -1.0 -2.1337690686333172e-12
  outer loop
    vertex -149.227677573386 34.62864579448632 3.6104417575246175
    vertex -147.89951234216238 34.628645794479304 3.6104417575246193
    vertex -149.06428408259984 34.628645794485365 3.6494911752663737
  endloop
endfacet
facet normal -5.305809036297159e-12 -1.0 -2.1337690686333172e-12
  outer loop
    vertex -149.06428408259984 34.628645794485365 3.6494911752663737
    vertex -147.89951234216238 34.628645794479304 3.6104417575246193
    vertex -148.06290583294864 34.628645794480065 3.649491175266375
  endloop
endfacet
facet normal -5.305809036297159e-12 -1.0 -2.1337690686333172e-12
  outer loop
    vertex -149.06428408259984 34.628645794485365 3.6494911752663737
    vertex -148.06290583294864 34.628645794480065 3.649491175266375
    vertex -148.89864211831778 34.62864579448447 3.677509553628703
  endloop
endfacet
facet normal -5.305809036297159e-12 -1.0 -2.1337690686333172e-12
  outer loop
    vertex -148.89864211831778 34.62864579448447 3.677509553628703
    vertex -148.06290583294864 34.628645794480065 3.649491175266375
    vertex -148.22854779723076 34.62864579448089 3.677509553628701
  endloop
endfacet
facet normal -5.305809036297159e-12 -1.0 -2.1337690686333172e-12
  outer loop
    vertex -148.89864211831778 34.62864579448447 3.677509553628703
    vertex -148.22854779723076 34.62864579448089 3.677509553628701
    vertex -148.39569437709753 34.62864579448176 3.6943710688658467
  endloop
endfacet
facet normal -5.305809036297159e-12 -1.0 -2.1337690686333172e-12
  outer loop
    vertex -148.89864211831778 34.62864579448447 3.677509553628703
    vertex -148.39569437709753 34.62864579448176 3.6943710688658467
    vertex -148.73149553845087 34.628645794483546 3.6943710688658444
  endloop
endfacet
facet normal -5.305809036297159e-12 -1.0 -2.1337690686333172e-12
  outer loop
    vertex -148.73149553845087 34.628645794483546 3.6943710688658444
    vertex -148.39569437709753 34.62864579448176 3.6943710688658467
    vertex -148.56359495777426 34.62864579448262 3.6999999999999966
  endloop
endfacet
facet normal -5.305809036297159e-12 -1.0 -2.1337690686333172e-12
  outer loop
    vertex -153.4578409629755 34.62864579450896 3.4999999999999956
    vertex -156.00131922384512 34.62864579452785 0.9999999999999996
    vertex -154.00131922384512 34.62864579451721 0.9999999999999996
  endloop
endfacet
facet normal -5.305809036297159e-12 -1.0 -2.1337690686333172e-12
  outer loop
    vertex -156.00131922384512 34.62864579452785 0.9999999999999996
    vertex -153.4578409629755 34.62864579450896 3.4999999999999956
    vertex -154.4202460168565 34.62864579451538 2.899999999999995
  endloop
endfacet
facet normal -5.305809036297159e-12 -1.0 -2.1337690686333172e-12
  outer loop
    vertex -154.4202460168565 34.62864579451538 2.899999999999995
    vertex -153.4578409629755 34.62864579450896 3.4999999999999956
    vertex -154.48732679714288 34.62864579451559 2.9674539193838405
  endloop
endfacet
facet normal -5.305809036297159e-12 -1.0 -2.1337690686333172e-12
  outer loop
    vertex -154.48732679714288 34.62864579451559 2.9674539193838405
    vertex -153.4578409629755 34.62864579450896 3.4999999999999956
    vertex -154.55826860762977 34.628645794515855 3.0308346881462485
  endloop
endfacet
facet normal -5.305809036297159e-12 -1.0 -2.1337690686333172e-12
  outer loop
    vertex -154.55826860762977 34.628645794515855 3.0308346881462485
    vertex -153.4578409629755 34.62864579450896 3.4999999999999956
    vertex -154.63282453484118 34.6286457945161 3.0899217090706843
  endloop
endfacet
facet normal -5.305809036297159e-12 -1.0 -2.1337690686333172e-12
  outer loop
    vertex -154.63282453484118 34.6286457945161 3.0899217090706843
    vertex -153.4578409629755 34.62864579450896 3.4999999999999956
    vertex -154.710735086342 34.6286457945164 3.144509329360516
  endloop
endfacet
facet normal -5.305809036297159e-12 -1.0 -2.1337690686333172e-12
  outer loop
    vertex -154.710735086342 34.6286457945164 3.144509329360516
    vertex -153.4578409629755 34.62864579450896 3.4999999999999956
    vertex -154.79172909390365 34.62864579451674 3.19440755641502
  endloop
endfacet
facet normal -5.305809036297159e-12 -1.0 -2.1337690686333172e-12
  outer loop
    vertex -154.79172909390365 34.62864579451674 3.19440755641502
    vertex -153.4578409629755 34.62864579450896 3.4999999999999956
    vertex -154.87552465730647 34.62864579451705 3.2394427190999826
  endloop
endfacet
facet normal -5.305809036297159e-12 -1.0 -2.1337690686333172e-12
  outer loop
    vertex -154.87552465730647 34.62864579451705 3.2394427190999826
    vertex -153.4578409629755 34.62864579450896 3.4999999999999956
    vertex -154.96183012549622 34.62864579451743 3.2794580722113333
  endloop
endfacet
facet normal -5.305809036297159e-12 -1.0 -2.1337690686333172e-12
  outer loop
    vertex -154.96183012549622 34.62864579451743 3.2794580722113333
    vertex -153.4578409629755 34.62864579450896 3.4999999999999956
    vertex -155.05034511167676 34.628645794517844 3.314314342027918
  endloop
endfacet
facet normal -5.305809036297159e-12 -1.0 -2.1337690686333172e-12
  outer loop
    vertex -155.05034511167676 34.628645794517844 3.314314342027918
    vertex -153.4578409629755 34.62864579450896 3.4999999999999956
    vertex -155.1407615388092 34.62864579451824 3.34389021105469
  endloop
endfacet
facet normal -5.305809036297159e-12 -1.0 -2.1337690686333172e-12
  outer loop
    vertex -155.1407615388092 34.62864579451824 3.34389021105469
    vertex -153.4578409629755 34.62864579450896 3.4999999999999956
    vertex -155.23276471187552 34.6286457945187 3.3680827402691262
  endloop
endfacet
facet normal -5.305809036297159e-12 -1.0 -2.1337690686333172e-12
  outer loop
    vertex -155.23276471187552 34.6286457945187 3.3680827402691262
    vertex -153.4578409629755 34.62864579450896 3.4999999999999956
    vertex -155.32603441317767 34.62864579451913 3.386807727401196
  endloop
endfacet
facet normal -5.305809036297159e-12 -1.0 -2.1337690686333172e-12
  outer loop
    vertex -155.32603441317767 34.62864579451913 3.386807727401196
    vertex -153.4578409629755 34.62864579450896 3.4999999999999956
    vertex -155.4202460168565 34.62864579451965 3.3999999999999937
  endloop
endfacet
facet normal -5.305809036297159e-12 -1.0 -2.1337690686333172e-12
  outer loop
    vertex -155.4202460168565 34.62864579451965 3.3999999999999937
    vertex -153.4578409629755 34.62864579450896 3.4999999999999956
    vertex -155.42024601685654 34.628645794519436 3.499999999999994
  endloop
endfacet
facet normal -5.305809036297159e-12 -1.0 -2.1337690686333172e-12
  outer loop
    vertex -155.42024601685654 34.628645794519436 3.499999999999994
    vertex -153.4578409629755 34.62864579450896 3.4999999999999956
    vertex -155.26353736225653 34.62864579451848 3.56053666187319
  endloop
endfacet
facet normal -5.305809036297159e-12 -1.0 -2.1337690686333172e-12
  outer loop
    vertex -155.26353736225653 34.62864579451848 3.56053666187319
    vertex -153.4578409629755 34.62864579450896 3.4999999999999956
    vertex -153.61454961757542 34.628645794509715 3.560536661873189
  endloop
endfacet
facet normal -5.305809036297159e-12 -1.0 -2.1337690686333172e-12
  outer loop
    vertex -155.26353736225653 34.62864579451848 3.56053666187319
    vertex -153.61454961757542 34.628645794509715 3.560536661873189
    vertex -153.77496087430418 34.62864579451043 3.6104417575246157
  endloop
endfacet
facet normal -5.305809036297159e-12 -1.0 -2.1337690686333172e-12
  outer loop
    vertex -155.26353736225653 34.62864579451848 3.56053666187319
    vertex -153.77496087430418 34.62864579451043 3.6104417575246157
    vertex -155.1031261055278 34.62864579451752 3.610441757524618
  endloop
endfacet
facet normal -5.305809036297159e-12 -1.0 -2.1337690686333172e-12
  outer loop
    vertex -155.1031261055278 34.62864579451752 3.610441757524618
    vertex -153.77496087430418 34.62864579451043 3.6104417575246157
    vertex -153.93835436509042 34.6286457945112 3.6494911752663715
  endloop
endfacet
facet normal -5.305809036297159e-12 -1.0 -2.1337690686333172e-12
  outer loop
    vertex -155.1031261055278 34.62864579451752 3.610441757524618
    vertex -153.93835436509042 34.6286457945112 3.6494911752663715
    vertex -154.9397326147416 34.62864579451652 3.6494911752663737
  endloop
endfacet
facet normal -5.305809036297159e-12 -1.0 -2.1337690686333172e-12
  outer loop
    vertex -154.9397326147416 34.62864579451652 3.6494911752663737
    vertex -153.93835436509042 34.6286457945112 3.6494911752663715
    vertex -154.10399632937245 34.62864579451207 3.6775095536287017
  endloop
endfacet
facet normal -5.305809036297159e-12 -1.0 -2.1337690686333172e-12
  outer loop
    vertex -154.9397326147416 34.62864579451652 3.6494911752663737
    vertex -154.10399632937245 34.62864579451207 3.6775095536287017
    vertex -154.7740906504595 34.628645794515585 3.6775095536286995
  endloop
endfacet
facet normal -5.305809036297159e-12 -1.0 -2.1337690686333172e-12
  outer loop
    vertex -154.7740906504595 34.628645794515585 3.6775095536286995
    vertex -154.10399632937245 34.62864579451207 3.6775095536287017
    vertex -154.60694407059273 34.6286457945147 3.6943710688658453
  endloop
endfacet
facet normal -5.305809036297159e-12 -1.0 -2.1337690686333172e-12
  outer loop
    vertex -154.60694407059273 34.6286457945147 3.6943710688658453
    vertex -154.10399632937245 34.62864579451207 3.6775095536287017
    vertex -154.27114290923936 34.62864579451292 3.694371068865843
  endloop
endfacet
facet normal -5.305809036297159e-12 -1.0 -2.1337690686333172e-12
  outer loop
    vertex -154.60694407059273 34.6286457945147 3.6943710688658453
    vertex -154.27114290923936 34.62864579451292 3.694371068865843
    vertex -154.439043489916 34.62864579451377 3.6999999999999953
  endloop
endfacet
facet normal -5.305809036297159e-12 -1.0 -2.1337690686333172e-12
  outer loop
    vertex -151.50131922384517 34.628645794506085 0.0
    vertex -157.5013192238451 34.628645794535885 0.9999999999999996
    vertex -156.0013192238452 34.62864579452997 -7.049916206369744e-16
  endloop
endfacet
facet normal -5.305809036297159e-12 -1.0 -2.1337690686333172e-12
  outer loop
    vertex -157.5013192238451 34.628645794535885 0.9999999999999996
    vertex -151.50131922384517 34.628645794506085 0.0
    vertex -145.62631922384512 34.62864579447271 0.9999999999999996
  endloop
endfacet
facet normal -5.305809036297159e-12 -1.0 -2.1337690686333172e-12
  outer loop
    vertex -157.5013192238451 34.628645794535885 0.9999999999999996
    vertex -145.62631922384512 34.62864579447271 0.9999999999999996
    vertex -154.00131922384512 34.62864579451721 0.9999999999999996
  endloop
endfacet
facet normal -5.305809036297159e-12 -1.0 -2.1337690686333172e-12
  outer loop
    vertex -157.5013192238451 34.628645794535885 0.9999999999999996
    vertex -154.00131922384512 34.62864579451721 0.9999999999999996
    vertex -156.00131922384512 34.62864579452785 0.9999999999999996
  endloop
endfacet
endsolid v2
