solid v2
facet normal 5.3060239116850186e-12 1.0 2.1559632252349204e-12
  outer loop
    vertex -174.42024601577842 237.82864579451558 2.9000000004337436
    vertex -174.0013192227671 237.82864579451743 1.0000000004336989
    vertex -176.00131922276708 237.8286457945281 1.0000000004336989
  endloop
endfacet
facet normal 5.3060239116850186e-12 1.0 2.1559632252349204e-12
  outer loop
    vertex -174.0013192227671 237.82864579451743 1.0000000004336989
    vertex -174.42024601577842 237.82864579451558 2.9000000004337436
    vertex -173.45784096189743 237.82864579450913 3.5000000004337437
  endloop
endfacet
facet normal 5.3060239116850186e-12 1.0 2.1559632252349204e-12
  outer loop
    vertex -173.45784096189743 237.82864579450913 3.5000000004337437
    vertex -174.42024601577842 237.82864579451558 2.9000000004337436
    vertex -174.48732679606482 237.8286457945158 2.967453919817589
  endloop
endfacet
facet normal 5.3060239116850186e-12 1.0 2.1559632252349204e-12
  outer loop
    vertex -173.45784096189743 237.82864579450913 3.5000000004337437
    vertex -174.48732679606482 237.8286457945158 2.967453919817589
    vertex -174.5582686065517 237.82864579451604 3.030834688579997
  endloop
endfacet
facet normal 5.3060239116850186e-12 1.0 2.1559632252349204e-12
  outer loop
    vertex -173.45784096189743 237.82864579450913 3.5000000004337437
    vertex -174.5582686065517 237.82864579451604 3.030834688579997
    vertex -174.63282453376314 237.8286457945163 3.089921709504433
  endloop
endfacet
facet normal 5.3060239116850186e-12 1.0 2.1559632252349204e-12
  outer loop
    vertex -173.45784096189743 237.82864579450913 3.5000000004337437
    vertex -174.63282453376314 237.8286457945163 3.089921709504433
    vertex -174.7107350852639 237.82864579451658 3.1445093297942646
  endloop
endfacet
facet normal 5.3060239116850186e-12 1.0 2.1559632252349204e-12
  outer loop
    vertex -173.45784096189743 237.82864579450913 3.5000000004337437
    vertex -174.7107350852639 237.82864579451658 3.1445093297942646
    vertex -174.79172909282556 237.8286457945169 3.194407556848768
  endloop
endfacet
facet normal 5.3060239116850186e-12 1.0 2.1559632252349204e-12
  outer loop
    vertex -173.45784096189743 237.82864579450913 3.5000000004337437
    vertex -174.79172909282556 237.8286457945169 3.194407556848768
    vertex -174.87552465622844 237.8286457945172 3.2394427195337308
  endloop
endfacet
facet normal 5.3060239116850186e-12 1.0 2.1559632252349204e-12
  outer loop
    vertex -173.45784096189743 237.82864579450913 3.5000000004337437
    vertex -174.87552465622844 237.8286457945172 3.2394427195337308
    vertex -174.96183012441819 237.8286457945176 3.2794580726450815
  endloop
endfacet
facet normal 5.3060239116850186e-12 1.0 2.1559632252349204e-12
  outer loop
    vertex -173.45784096189743 237.82864579450913 3.5000000004337437
    vertex -174.96183012441819 237.8286457945176 3.2794580726450815
    vertex -175.05034511059867 237.82864579451802 3.314314342461666
  endloop
endfacet
facet normal 5.3060239116850186e-12 1.0 2.1559632252349204e-12
  outer loop
    vertex -173.45784096189743 237.82864579450913 3.5000000004337437
    vertex -175.05034511059867 237.82864579451802 3.314314342461666
    vertex -175.14076153773112 237.82864579451842 3.343890211488439
  endloop
endfacet
facet normal 5.3060239116850186e-12 1.0 2.1559632252349204e-12
  outer loop
    vertex -173.45784096189743 237.82864579450913 3.5000000004337437
    vertex -175.14076153773112 237.82864579451842 3.343890211488439
    vertex -175.23276471079743 237.82864579451888 3.3680827407028744
  endloop
endfacet
facet normal 5.3060239116850186e-12 1.0 2.1559632252349204e-12
  outer loop
    vertex -173.45784096189743 237.82864579450913 3.5000000004337437
    vertex -175.23276471079743 237.82864579451888 3.3680827407028744
    vertex -175.3260344120996 237.82864579451933 3.386807727834944
  endloop
endfacet
facet normal 5.3060239116850186e-12 1.0 2.1559632252349204e-12
  outer loop
    vertex -173.45784096189743 237.82864579450913 3.5000000004337437
    vertex -175.3260344120996 237.82864579451933 3.386807727834944
    vertex -175.4202460157784 237.82864579451987 3.400000000433742
  endloop
endfacet
facet normal 5.3060239116850186e-12 1.0 2.1559632252349204e-12
  outer loop
    vertex -173.45784096189743 237.82864579450913 3.5000000004337437
    vertex -175.4202460157784 237.82864579451987 3.400000000433742
    vertex -175.42024601577845 237.8286457945196 3.500000000433742
  endloop
endfacet
facet normal 5.3060239116850186e-12 1.0 2.1559632252349204e-12
  outer loop
    vertex -173.45784096189743 237.82864579450913 3.5000000004337437
    vertex -175.42024601577845 237.8286457945196 3.500000000433742
    vertex -175.26353736117844 237.82864579451865 3.560536662306938
  endloop
endfacet
facet normal 5.3060239116850186e-12 1.0 2.1559632252349204e-12
  outer loop
    vertex -173.45784096189743 237.82864579450913 3.5000000004337437
    vertex -175.26353736117844 237.82864579451865 3.560536662306938
    vertex -173.61454961649733 237.8286457945099 3.5605366623069377
  endloop
endfacet
facet normal 5.3060239116850186e-12 1.0 2.1559632252349204e-12
  outer loop
    vertex -173.61454961649733 237.8286457945099 3.5605366623069377
    vertex -175.26353736117844 237.82864579451865 3.560536662306938
    vertex -173.77496087322615 237.8286457945106 3.6104417579583643
  endloop
endfacet
facet normal 5.3060239116850186e-12 1.0 2.1559632252349204e-12
  outer loop
    vertex -173.77496087322615 237.8286457945106 3.6104417579583643
    vertex -175.26353736117844 237.82864579451865 3.560536662306938
    vertex -175.10312610444976 237.8286457945177 3.610441757958366
  endloop
endfacet
facet normal 5.3060239116850186e-12 1.0 2.1559632252349204e-12
  outer loop
    vertex -173.77496087322615 237.8286457945106 3.6104417579583643
    vertex -175.10312610444976 237.8286457945177 3.610441757958366
    vertex -173.93835436401233 237.82864579451137 3.64949117570012
  endloop
endfacet
facet normal 5.3060239116850186e-12 1.0 2.1559632252349204e-12
  outer loop
    vertex -173.93835436401233 237.82864579451137 3.64949117570012
    vertex -175.10312610444976 237.8286457945177 3.610441757958366
    vertex -174.93973261366352 237.82864579451672 3.649491175700122
  endloop
endfacet
facet normal 5.3060239116850186e-12 1.0 2.1559632252349204e-12
  outer loop
    vertex -173.93835436401233 237.82864579451137 3.64949117570012
    vertex -174.93973261366352 237.82864579451672 3.649491175700122
    vertex -174.10399632829436 237.82864579451223 3.67750955406245
  endloop
endfacet
facet normal 5.3060239116850186e-12 1.0 2.1559632252349204e-12
  outer loop
    vertex -174.10399632829436 237.82864579451223 3.67750955406245
    vertex -174.93973261366352 237.82864579451672 3.649491175700122
    vertex -174.77409064938138 237.82864579451575 3.6775095540624476
  endloop
endfacet
facet normal 5.3060239116850186e-12 1.0 2.1559632252349204e-12
  outer loop
    vertex -174.10399632829436 237.82864579451223 3.67750955406245
    vertex -174.77409064938138 237.82864579451575 3.6775095540624476
    vertex -174.60694406951464 237.82864579451487 3.6943710692995935
  endloop
endfacet
facet normal 5.3060239116850186e-12 1.0 2.1559632252349204e-12
  outer loop
    vertex -174.10399632829436 237.82864579451223 3.67750955406245
    vertex -174.60694406951464 237.82864579451487 3.6943710692995935
    vertex -174.2711429081613 237.8286457945131 3.6943710692995912
  endloop
endfacet
facet normal 5.3060239116850186e-12 1.0 2.1559632252349204e-12
  outer loop
    vertex -174.2711429081613 237.8286457945131 3.6943710692995912
    vertex -174.60694406951464 237.82864579451487 3.6943710692995935
    vertex -174.4390434888379 237.82864579451396 3.7000000004337434
  endloop
endfacet
facet normal 5.3060239116850186e-12 1.0 2.1559632252349204e-12
  outer loop
    vertex -177.50131922276708 237.8286457945361 1.0000000004336989
    vertex -167.0013192227671 237.8286457944824 4.3369815516669516e-10
    vertex -176.0013192227671 237.8286457945302 4.3369815516669516e-10
  endloop
endfacet
facet normal 5.3060239116850186e-12 1.0 2.1559632252349204e-12
  outer loop
    vertex -167.0013192227671 237.8286457944824 4.3369815516669516e-10
    vertex -177.50131922276708 237.8286457945361 1.0000000004336989
    vertex -165.6263192227671 237.82864579447295 1.0000000004336989
  endloop
endfacet
facet normal 5.3060239116850186e-12 1.0 2.1559632252349204e-12
  outer loop
    vertex -165.6263192227671 237.82864579447295 1.0000000004336989
    vertex -177.50131922276708 237.8286457945361 1.0000000004336989
    vertex -176.00131922276708 237.8286457945281 1.0000000004336989
  endloop
endfacet
facet normal 5.3060239116850186e-12 1.0 2.1559632252349204e-12
  outer loop
    vertex -165.6263192227671 237.82864579447295 1.0000000004336989
    vertex -176.00131922276708 237.8286457945281 1.0000000004336989
    vertex -174.0013192227671 237.82864579451743 1.0000000004336989
  endloop
endfacet
facet normal 5.3060239116850186e-12 1.0 2.1559632252349204e-12
  outer loop
    vertex -165.6263192227671 237.82864579447295 1.0000000004336989
    vertex -174.0013192227671 237.82864579451743 1.0000000004336989
    vertex -169.0013192227671 237.82864579449094 1.0000000004337006
  endloop
endfacet
facet normal 5.3060239116850186e-12 1.0 2.1559632252349204e-12
  outer loop
    vertex -165.6263192227671 237.82864579447295 1.0000000004336989
    vertex -169.0013192227671 237.82864579449094 1.0000000004337006
    vertex -167.0013192227671 237.82864579448034 1.0000000004337006
  endloop
endfacet
facet normal 5.3060239116850186e-12 1.0 2.1559632252349204e-12
  outer loop
    vertex -167.0013192227671 237.82864579448034 1.0000000004337006
    vertex -169.0013192227671 237.82864579449094 1.0000000004337006
    vertex -169.5447974836367 237.8286457944884 3.5000000004337455
  endloop
endfacet
facet normal 5.3060239116850186e-12 1.0 2.1559632252349204e-12
  outer loop
    vertex -167.0013192227671 237.82864579448034 1.0000000004337006
    vertex -169.5447974836367 237.8286457944884 3.5000000004337455
    vertex -168.58239242975563 237.82864579448457 2.900000000433745
  endloop
endfacet
facet normal 5.3060239116850186e-12 1.0 2.1559632252349204e-12
  outer loop
    vertex -168.58239242975563 237.82864579448457 2.900000000433745
    vertex -169.5447974836367 237.8286457944884 3.5000000004337455
    vertex -168.51531164946928 237.82864579448412 2.967453919817589
  endloop
endfacet
facet normal 5.3060239116850186e-12 1.0 2.1559632252349204e-12
  outer loop
    vertex -168.51531164946928 237.82864579448412 2.967453919817589
    vertex -169.5447974836367 237.8286457944884 3.5000000004337455
    vertex -168.4443698389824 237.82864579448358 3.030834688579997
  endloop
endfacet
facet normal 5.3060239116850186e-12 1.0 2.1559632252349204e-12
  outer loop
    vertex -168.4443698389824 237.82864579448358 3.030834688579997
    vertex -169.5447974836367 237.8286457944884 3.5000000004337455
    vertex -168.369813911771 237.82864579448304 3.0899217095044342
  endloop
endfacet
facet normal 5.3060239116850186e-12 1.0 2.1559632252349204e-12
  outer loop
    vertex -168.369813911771 237.82864579448304 3.0899217095044342
    vertex -169.5447974836367 237.8286457944884 3.5000000004337455
    vertex -168.2919033602701 237.82864579448255 3.1445093297942655
  endloop
endfacet
facet normal 5.3060239116850186e-12 1.0 2.1559632252349204e-12
  outer loop
    vertex -168.2919033602701 237.82864579448255 3.1445093297942655
    vertex -169.5447974836367 237.8286457944884 3.5000000004337455
    vertex -168.21090935270854 237.82864579448201 3.1944075568487693
  endloop
endfacet
facet normal 5.3060239116850186e-12 1.0 2.1559632252349204e-12
  outer loop
    vertex -168.21090935270854 237.82864579448201 3.1944075568487693
    vertex -169.5447974836367 237.8286457944884 3.5000000004337455
    vertex -168.12711378930558 237.82864579448142 3.2394427195337325
  endloop
endfacet
facet normal 5.3060239116850186e-12 1.0 2.1559632252349204e-12
  outer loop
    vertex -168.12711378930558 237.82864579448142 3.2394427195337325
    vertex -169.5447974836367 237.8286457944884 3.5000000004337455
    vertex -168.04080832111595 237.82864579448088 3.279458072645083
  endloop
endfacet
facet normal 5.3060239116850186e-12 1.0 2.1559632252349204e-12
  outer loop
    vertex -168.04080832111595 237.82864579448088 3.279458072645083
    vertex -169.5447974836367 237.8286457944884 3.5000000004337455
    vertex -167.95229333493532 237.8286457944804 3.3143143424616666
  endloop
endfacet
facet normal 5.3060239116850186e-12 1.0 2.1559632252349204e-12
  outer loop
    vertex -167.95229333493532 237.8286457944804 3.3143143424616666
    vertex -169.5447974836367 237.8286457944884 3.5000000004337455
    vertex -167.86187690780298 237.8286457944798 3.34389021148844
  endloop
endfacet
facet normal 5.3060239116850186e-12 1.0 2.1559632252349204e-12
  outer loop
    vertex -167.86187690780298 237.8286457944798 3.34389021148844
    vertex -169.5447974836367 237.8286457944884 3.5000000004337455
    vertex -167.76987373473656 237.8286457944793 3.3680827407028757
  endloop
endfacet
facet normal 5.3060239116850186e-12 1.0 2.1559632252349204e-12
  outer loop
    vertex -167.76987373473656 237.8286457944793 3.3680827407028757
    vertex -169.5447974836367 237.8286457944884 3.5000000004337455
    vertex -167.67660403343453 237.82864579447872 3.3868077278349453
  endloop
endfacet
facet normal 5.3060239116850186e-12 1.0 2.1559632252349204e-12
  outer loop
    vertex -167.67660403343453 237.82864579447872 3.3868077278349453
    vertex -169.5447974836367 237.8286457944884 3.5000000004337455
    vertex -167.58239242975566 237.8286457944782 3.400000000433743
  endloop
endfacet
facet normal 5.3060239116850186e-12 1.0 2.1559632252349204e-12
  outer loop
    vertex -167.58239242975566 237.8286457944782 3.400000000433743
    vertex -169.5447974836367 237.8286457944884 3.5000000004337455
    vertex -167.58239242975566 237.828645794478 3.5000000004337433
  endloop
endfacet
facet normal 5.3060239116850186e-12 1.0 2.1559632252349204e-12
  outer loop
    vertex -167.58239242975566 237.828645794478 3.5000000004337433
    vertex -169.5447974836367 237.8286457944884 3.5000000004337455
    vertex -167.73910108435564 237.82864579447872 3.5605366623069394
  endloop
endfacet
facet normal 5.3060239116850186e-12 1.0 2.1559632252349204e-12
  outer loop
    vertex -167.73910108435564 237.82864579447872 3.5605366623069394
    vertex -169.5447974836367 237.8286457944884 3.5000000004337455
    vertex -169.38808882903675 237.82864579448747 3.5605366623069403
  endloop
endfacet
facet normal 5.3060239116850186e-12 1.0 2.1559632252349204e-12
  outer loop
    vertex -167.73910108435564 237.82864579447872 3.5605366623069394
    vertex -169.38808882903675 237.82864579448747 3.5605366623069403
    vertex -167.89951234108435 237.82864579447948 3.610441757958368
  endloop
endfacet
facet normal 5.3060239116850186e-12 1.0 2.1559632252349204e-12
  outer loop
    vertex -167.89951234108435 237.82864579447948 3.610441757958368
    vertex -169.38808882903675 237.82864579448747 3.5605366623069403
    vertex -169.22767757230795 237.82864579448648 3.6104417579583656
  endloop
endfacet
facet normal 5.3060239116850186e-12 1.0 2.1559632252349204e-12
  outer loop
    vertex -167.89951234108435 237.82864579447948 3.610441757958368
    vertex -169.22767757230795 237.82864579448648 3.6104417579583656
    vertex -169.06428408152178 237.82864579448554 3.649491175700122
  endloop
endfacet
facet normal 5.3060239116850186e-12 1.0 2.1559632252349204e-12
  outer loop
    vertex -167.89951234108435 237.82864579447948 3.610441757958368
    vertex -169.06428408152178 237.82864579448554 3.649491175700122
    vertex -168.06290583187058 237.82864579448025 3.6494911757001236
  endloop
endfacet
facet normal 5.3060239116850186e-12 1.0 2.1559632252349204e-12
  outer loop
    vertex -168.06290583187058 237.82864579448025 3.6494911757001236
    vertex -169.06428408152178 237.82864579448554 3.649491175700122
    vertex -168.89864211723972 237.82864579448463 3.677509554062451
  endloop
endfacet
facet normal 5.3060239116850186e-12 1.0 2.1559632252349204e-12
  outer loop
    vertex -168.06290583187058 237.82864579448025 3.6494911757001236
    vertex -168.89864211723972 237.82864579448463 3.677509554062451
    vertex -168.22854779615267 237.82864579448108 3.677509554062449
  endloop
endfacet
facet normal 5.3060239116850186e-12 1.0 2.1559632252349204e-12
  outer loop
    vertex -168.22854779615267 237.82864579448108 3.677509554062449
    vertex -168.89864211723972 237.82864579448463 3.677509554062451
    vertex -168.39569437601946 237.82864579448193 3.694371069299595
  endloop
endfacet
facet normal 5.3060239116850186e-12 1.0 2.1559632252349204e-12
  outer loop
    vertex -168.39569437601946 237.82864579448193 3.694371069299595
    vertex -168.89864211723972 237.82864579448463 3.677509554062451
    vertex -168.73149553737284 237.82864579448372 3.6943710692995926
  endloop
endfacet
facet normal 5.3060239116850186e-12 1.0 2.1559632252349204e-12
  outer loop
    vertex -168.39569437601946 237.82864579448193 3.694371069299595
    vertex -168.73149553737284 237.82864579448372 3.6943710692995926
    vertex -168.5635949566962 237.82864579448278 3.7000000004337448
  endloop
endfacet
facet normal -5.3058088099261565e-12 -1.0 -2.134308251626846e-12
  outer loop
    vertex -167.00131922384512 34.62864579448007 1.0000000000000024
    vertex -174.00131922384512 34.628645794517205 1.0000000000000009
    vertex -165.62631922384512 34.628645794472696 1.0000000000000009
  endloop
endfacet
facet normal -5.3058088099261565e-12 -1.0 -2.134308251626846e-12
  outer loop
    vertex -174.00131922384512 34.628645794517205 1.0000000000000009
    vertex -167.00131922384512 34.62864579448007 1.0000000000000024
    vertex -169.00131922384512 34.6286457944907 1.0000000000000024
  endloop
endfacet
facet normal -5.3058088099261565e-12 -1.0 -2.134308251626846e-12
  outer loop
    vertex -169.00131922384512 34.6286457944907 1.0000000000000024
    vertex -167.00131922384512 34.62864579448007 1.0000000000000024
    vertex -168.5823924308337 34.628645794484434 2.8999999999999977
  endloop
endfacet
facet normal -5.3058088099261565e-12 -1.0 -2.134308251626846e-12
  outer loop
    vertex -169.00131922384512 34.6286457944907 1.0000000000000024
    vertex -168.5823924308337 34.628645794484434 2.8999999999999977
    vertex -169.54479748471476 34.62864579448823 3.4999999999999987
  endloop
endfacet
facet normal -5.3058088099261565e-12 -1.0 -2.134308251626846e-12
  outer loop
    vertex -169.54479748471476 34.62864579448823 3.4999999999999987
    vertex -168.5823924308337 34.628645794484434 2.8999999999999977
    vertex -168.51531165054735 34.62864579448391 2.9674539193838423
  endloop
endfacet
facet normal -5.3058088099261565e-12 -1.0 -2.134308251626846e-12
  outer loop
    vertex -169.54479748471476 34.62864579448823 3.4999999999999987
    vertex -168.51531165054735 34.62864579448391 2.9674539193838423
    vertex -168.44436984006046 34.62864579448342 3.03083468814625
  endloop
endfacet
facet normal -5.3058088099261565e-12 -1.0 -2.134308251626846e-12
  outer loop
    vertex -169.54479748471476 34.62864579448823 3.4999999999999987
    vertex -168.44436984006046 34.62864579448342 3.03083468814625
    vertex -168.36981391284905 34.6286457944829 3.089921709070687
  endloop
endfacet
facet normal -5.3058088099261565e-12 -1.0 -2.134308251626846e-12
  outer loop
    vertex -169.54479748471476 34.62864579448823 3.4999999999999987
    vertex -168.36981391284905 34.6286457944829 3.089921709070687
    vertex -168.2919033613482 34.628645794482345 3.144509329360518
  endloop
endfacet
facet normal -5.3058088099261565e-12 -1.0 -2.134308251626846e-12
  outer loop
    vertex -169.54479748471476 34.62864579448823 3.4999999999999987
    vertex -168.2919033613482 34.628645794482345 3.144509329360518
    vertex -168.2109093537866 34.628645794481805 3.1944075564150225
  endloop
endfacet
facet normal -5.3058088099261565e-12 -1.0 -2.134308251626846e-12
  outer loop
    vertex -169.54479748471476 34.62864579448823 3.4999999999999987
    vertex -168.2109093537866 34.628645794481805 3.1944075564150225
    vertex -168.12711379038367 34.62864579448125 3.2394427190999857
  endloop
endfacet
facet normal -5.3058088099261565e-12 -1.0 -2.134308251626846e-12
  outer loop
    vertex -169.54479748471476 34.62864579448823 3.4999999999999987
    vertex -168.12711379038367 34.62864579448125 3.2394427190999857
    vertex -168.040808322194 34.628645794480704 3.279458072211336
  endloop
endfacet
facet normal -5.3058088099261565e-12 -1.0 -2.134308251626846e-12
  outer loop
    vertex -169.54479748471476 34.62864579448823 3.4999999999999987
    vertex -168.040808322194 34.628645794480704 3.279458072211336
    vertex -167.9522933360134 34.628645794480185 3.31431434202792
  endloop
endfacet
facet normal -5.3058088099261565e-12 -1.0 -2.134308251626846e-12
  outer loop
    vertex -169.54479748471476 34.62864579448823 3.4999999999999987
    vertex -167.9522933360134 34.628645794480185 3.31431434202792
    vertex -167.86187690888104 34.62864579447959 3.3438902110546933
  endloop
endfacet
facet normal -5.3058088099261565e-12 -1.0 -2.134308251626846e-12
  outer loop
    vertex -169.54479748471476 34.62864579448823 3.4999999999999987
    vertex -167.86187690888104 34.62864579447959 3.3438902110546933
    vertex -167.76987373581466 34.62864579447909 3.368082740269129
  endloop
endfacet
facet normal -5.3058088099261565e-12 -1.0 -2.134308251626846e-12
  outer loop
    vertex -169.54479748471476 34.62864579448823 3.4999999999999987
    vertex -167.76987373581466 34.62864579447909 3.368082740269129
    vertex -167.6766040345126 34.62864579447854 3.3868077274011985
  endloop
endfacet
facet normal -5.3058088099261565e-12 -1.0 -2.134308251626846e-12
  outer loop
    vertex -169.54479748471476 34.62864579448823 3.4999999999999987
    vertex -167.6766040345126 34.62864579447854 3.3868077274011985
    vertex -167.58239243083375 34.628645794478054 3.399999999999997
  endloop
endfacet
facet normal -5.3058088099261565e-12 -1.0 -2.134308251626846e-12
  outer loop
    vertex -169.54479748471476 34.62864579448823 3.4999999999999987
    vertex -167.58239243083375 34.628645794478054 3.399999999999997
    vertex -167.58239243083375 34.62864579447784 3.4999999999999964
  endloop
endfacet
facet normal -5.3058088099261565e-12 -1.0 -2.134308251626846e-12
  outer loop
    vertex -169.54479748471476 34.62864579448823 3.4999999999999987
    vertex -167.58239243083375 34.62864579447784 3.4999999999999964
    vertex -167.7391010854337 34.62864579447852 3.5605366618731926
  endloop
endfacet
facet normal -5.3058088099261565e-12 -1.0 -2.134308251626846e-12
  outer loop
    vertex -169.54479748471476 34.62864579448823 3.4999999999999987
    vertex -167.7391010854337 34.62864579447852 3.5605366618731926
    vertex -169.38808883011484 34.62864579448731 3.5605366618731935
  endloop
endfacet
facet normal -5.3058088099261565e-12 -1.0 -2.134308251626846e-12
  outer loop
    vertex -169.38808883011484 34.62864579448731 3.5605366618731935
    vertex -167.7391010854337 34.62864579447852 3.5605366618731926
    vertex -167.8995123421624 34.62864579447929 3.610441757524621
  endloop
endfacet
facet normal -5.3058088099261565e-12 -1.0 -2.134308251626846e-12
  outer loop
    vertex -169.38808883011484 34.62864579448731 3.5605366618731935
    vertex -167.8995123421624 34.62864579447929 3.610441757524621
    vertex -169.22767757338602 34.62864579448631 3.610441757524619
  endloop
endfacet
facet normal -5.3058088099261565e-12 -1.0 -2.134308251626846e-12
  outer loop
    vertex -169.22767757338602 34.62864579448631 3.610441757524619
    vertex -167.8995123421624 34.62864579447929 3.610441757524621
    vertex -169.06428408259984 34.62864579448535 3.649491175266375
  endloop
endfacet
facet normal -5.3058088099261565e-12 -1.0 -2.134308251626846e-12
  outer loop
    vertex -169.06428408259984 34.62864579448535 3.649491175266375
    vertex -167.8995123421624 34.62864579447929 3.610441757524621
    vertex -168.06290583294864 34.62864579448005 3.649491175266377
  endloop
endfacet
facet normal -5.3058088099261565e-12 -1.0 -2.134308251626846e-12
  outer loop
    vertex -169.06428408259984 34.62864579448535 3.649491175266375
    vertex -168.06290583294864 34.62864579448005 3.649491175266377
    vertex -168.89864211831778 34.628645794484456 3.6775095536287044
  endloop
endfacet
facet normal -5.3058088099261565e-12 -1.0 -2.134308251626846e-12
  outer loop
    vertex -168.89864211831778 34.628645794484456 3.6775095536287044
    vertex -168.06290583294864 34.62864579448005 3.649491175266377
    vertex -168.22854779723076 34.628645794480875 3.677509553628702
  endloop
endfacet
facet normal -5.3058088099261565e-12 -1.0 -2.134308251626846e-12
  outer loop
    vertex -168.89864211831778 34.628645794484456 3.6775095536287044
    vertex -168.22854779723076 34.628645794480875 3.677509553628702
    vertex -168.39569437709753 34.62864579448175 3.694371068865848
  endloop
endfacet
facet normal -5.3058088099261565e-12 -1.0 -2.134308251626846e-12
  outer loop
    vertex -168.89864211831778 34.628645794484456 3.6775095536287044
    vertex -168.39569437709753 34.62864579448175 3.694371068865848
    vertex -168.73149553845087 34.62864579448353 3.6943710688658458
  endloop
endfacet
facet normal -5.3058088099261565e-12 -1.0 -2.134308251626846e-12
  outer loop
    vertex -168.73149553845087 34.62864579448353 3.6943710688658458
    vertex -168.39569437709753 34.62864579448175 3.694371068865848
    vertex -168.56359495777428 34.62864579448261 3.699999999999998
  endloop
endfacet
facet normal -5.3058088099261565e-12 -1.0 -2.134308251626846e-12
  outer loop
    vertex -173.4578409629755 34.628645794508955 3.499999999999997
    vertex -176.00131922384512 34.628645794527834 1.0000000000000009
    vertex -174.00131922384512 34.628645794517205 1.0000000000000009
  endloop
endfacet
facet normal -5.3058088099261565e-12 -1.0 -2.134308251626846e-12
  outer loop
    vertex -176.00131922384512 34.628645794527834 1.0000000000000009
    vertex -173.4578409629755 34.628645794508955 3.499999999999997
    vertex -174.4202460168565 34.628645794515364 2.8999999999999964
  endloop
endfacet
facet normal -5.3058088099261565e-12 -1.0 -2.134308251626846e-12
  outer loop
    vertex -174.4202460168565 34.628645794515364 2.8999999999999964
    vertex -173.4578409629755 34.628645794508955 3.499999999999997
    vertex -174.4873267971429 34.62864579451558 2.9674539193838423
  endloop
endfacet
facet normal -5.3058088099261565e-12 -1.0 -2.134308251626846e-12
  outer loop
    vertex -174.4873267971429 34.62864579451558 2.9674539193838423
    vertex -173.4578409629755 34.628645794508955 3.499999999999997
    vertex -174.5582686076298 34.62864579451584 3.03083468814625
  endloop
endfacet
facet normal -5.3058088099261565e-12 -1.0 -2.134308251626846e-12
  outer loop
    vertex -174.5582686076298 34.62864579451584 3.03083468814625
    vertex -173.4578409629755 34.628645794508955 3.499999999999997
    vertex -174.6328245348412 34.62864579451609 3.089921709070686
  endloop
endfacet
facet normal -5.3058088099261565e-12 -1.0 -2.134308251626846e-12
  outer loop
    vertex -174.6328245348412 34.62864579451609 3.089921709070686
    vertex -173.4578409629755 34.628645794508955 3.499999999999997
    vertex -174.710735086342 34.62864579451639 3.1445093293605173
  endloop
endfacet
facet normal -5.3058088099261565e-12 -1.0 -2.134308251626846e-12
  outer loop
    vertex -174.710735086342 34.62864579451639 3.1445093293605173
    vertex -173.4578409629755 34.628645794508955 3.499999999999997
    vertex -174.79172909390365 34.628645794516736 3.194407556415021
  endloop
endfacet
facet normal -5.3058088099261565e-12 -1.0 -2.134308251626846e-12
  outer loop
    vertex -174.79172909390365 34.628645794516736 3.194407556415021
    vertex -173.4578409629755 34.628645794508955 3.499999999999997
    vertex -174.8755246573065 34.62864579451704 3.239442719099984
  endloop
endfacet
facet normal -5.3058088099261565e-12 -1.0 -2.134308251626846e-12
  outer loop
    vertex -174.8755246573065 34.62864579451704 3.239442719099984
    vertex -173.4578409629755 34.628645794508955 3.499999999999997
    vertex -174.96183012549625 34.62864579451742 3.2794580722113347
  endloop
endfacet
facet normal -5.3058088099261565e-12 -1.0 -2.134308251626846e-12
  outer loop
    vertex -174.96183012549625 34.62864579451742 3.2794580722113347
    vertex -173.4578409629755 34.628645794508955 3.499999999999997
    vertex -175.05034511167676 34.62864579451784 3.3143143420279193
  endloop
endfacet
facet normal -5.3058088099261565e-12 -1.0 -2.134308251626846e-12
  outer loop
    vertex -175.05034511167676 34.62864579451784 3.3143143420279193
    vertex -173.4578409629755 34.628645794508955 3.499999999999997
    vertex -175.1407615388092 34.62864579451823 3.343890211054692
  endloop
endfacet
facet normal -5.3058088099261565e-12 -1.0 -2.134308251626846e-12
  outer loop
    vertex -175.1407615388092 34.62864579451823 3.343890211054692
    vertex -173.4578409629755 34.628645794508955 3.499999999999997
    vertex -175.23276471187552 34.62864579451869 3.3680827402691276
  endloop
endfacet
facet normal -5.3058088099261565e-12 -1.0 -2.134308251626846e-12
  outer loop
    vertex -175.23276471187552 34.62864579451869 3.3680827402691276
    vertex -173.4578409629755 34.628645794508955 3.499999999999997
    vertex -175.32603441317767 34.62864579451912 3.386807727401197
  endloop
endfacet
facet normal -5.3058088099261565e-12 -1.0 -2.134308251626846e-12
  outer loop
    vertex -175.32603441317767 34.62864579451912 3.386807727401197
    vertex -173.4578409629755 34.628645794508955 3.499999999999997
    vertex -175.4202460168565 34.62864579451964 3.399999999999995
  endloop
endfacet
facet normal -5.3058088099261565e-12 -1.0 -2.134308251626846e-12
  outer loop
    vertex -175.4202460168565 34.62864579451964 3.399999999999995
    vertex -173.4578409629755 34.628645794508955 3.499999999999997
    vertex -175.42024601685657 34.62864579451943 3.499999999999995
  endloop
endfacet
facet normal -5.3058088099261565e-12 -1.0 -2.134308251626846e-12
  outer loop
    vertex -175.42024601685657 34.62864579451943 3.499999999999995
    vertex -173.4578409629755 34.628645794508955 3.499999999999997
    vertex -175.26353736225656 34.62864579451847 3.5605366618731913
  endloop
endfacet
facet normal -5.3058088099261565e-12 -1.0 -2.134308251626846e-12
  outer loop
    vertex -175.26353736225656 34.62864579451847 3.5605366618731913
    vertex -173.4578409629755 34.628645794508955 3.499999999999997
    vertex -173.61454961757542 34.6286457945097 3.560536661873191
  endloop
endfacet
facet normal -5.3058088099261565e-12 -1.0 -2.134308251626846e-12
  outer loop
    vertex -175.26353736225656 34.62864579451847 3.5605366618731913
    vertex -173.61454961757542 34.6286457945097 3.560536661873191
    vertex -173.7749608743042 34.628645794510426 3.6104417575246175
  endloop
endfacet
facet normal -5.3058088099261565e-12 -1.0 -2.134308251626846e-12
  outer loop
    vertex -175.26353736225656 34.62864579451847 3.5605366618731913
    vertex -173.7749608743042 34.628645794510426 3.6104417575246175
    vertex -175.10312610552782 34.62864579451751 3.6104417575246193
  endloop
endfacet
facet normal -5.3058088099261565e-12 -1.0 -2.134308251626846e-12
  outer loop
    vertex -175.10312610552782 34.62864579451751 3.6104417575246193
    vertex -173.7749608743042 34.628645794510426 3.6104417575246175
    vertex -173.93835436509042 34.62864579451119 3.6494911752663732
  endloop
endfacet
facet normal -5.3058088099261565e-12 -1.0 -2.134308251626846e-12
  outer loop
    vertex -175.10312610552782 34.62864579451751 3.6104417575246193
    vertex -173.93835436509042 34.62864579451119 3.6494911752663732
    vertex -174.9397326147416 34.62864579451651 3.649491175266375
  endloop
endfacet
facet normal -5.3058088099261565e-12 -1.0 -2.134308251626846e-12
  outer loop
    vertex -174.9397326147416 34.62864579451651 3.649491175266375
    vertex -173.93835436509042 34.62864579451119 3.6494911752663732
    vertex -174.10399632937248 34.62864579451205 3.677509553628703
  endloop
endfacet
facet normal -5.3058088099261565e-12 -1.0 -2.134308251626846e-12
  outer loop
    vertex -174.9397326147416 34.62864579451651 3.649491175266375
    vertex -174.10399632937248 34.62864579451205 3.677509553628703
    vertex -174.7740906504595 34.62864579451557 3.677509553628701
  endloop
endfacet
facet normal -5.3058088099261565e-12 -1.0 -2.134308251626846e-12
  outer loop
    vertex -174.7740906504595 34.62864579451557 3.677509553628701
    vertex -174.10399632937248 34.62864579451205 3.677509553628703
    vertex -174.60694407059273 34.628645794514696 3.6943710688658467
  endloop
endfacet
facet normal -5.3058088099261565e-12 -1.0 -2.134308251626846e-12
  outer loop
    vertex -174.60694407059273 34.628645794514696 3.6943710688658467
    vertex -174.10399632937248 34.62864579451205 3.677509553628703
    vertex -174.2711429092394 34.628645794512906 3.6943710688658444
  endloop
endfacet
facet normal -5.3058088099261565e-12 -1.0 -2.134308251626846e-12
  outer loop
    vertex -174.60694407059273 34.628645794514696 3.6943710688658467
    vertex -174.2711429092394 34.628645794512906 3.6943710688658444
    vertex -174.439043489916 34.628645794513766 3.6999999999999966
  endloop
endfacet
facet normal -5.3058088099261565e-12 -1.0 -2.134308251626846e-12
  outer loop
    vertex -167.0013192238452 34.628645794482196 7.049916206369744e-16
    vertex -176.0013192238452 34.62864579452996 7.049916206369744e-16
    vertex -171.50131922384517 34.628645794506085 0.0
  endloop
endfacet
facet normal -5.3058088099261565e-12 -1.0 -2.134308251626846e-12
  outer loop
    vertex -176.0013192238452 34.62864579452996 7.049916206369744e-16
    vertex -167.0013192238452 34.628645794482196 7.049916206369744e-16
    vertex -165.62631922384512 34.628645794472696 1.0000000000000009
  endloop
endfacet
facet normal -5.3058088099261565e-12 -1.0 -2.134308251626846e-12
  outer loop
    vertex -176.0013192238452 34.62864579452996 7.049916206369744e-16
    vertex -165.62631922384512 34.628645794472696 1.0000000000000009
    vertex -177.50131922384512 34.62864579453587 1.0000000000000009
  endloop
endfacet
facet normal -5.3058088099261565e-12 -1.0 -2.134308251626846e-12
  outer loop
    vertex -177.50131922384512 34.62864579453587 1.0000000000000009
    vertex -165.62631922384512 34.628645794472696 1.0000000000000009
    vertex -174.00131922384512 34.628645794517205 1.0000000000000009
  endloop
endfacet
facet normal -5.3058088099261565e-12 -1.0 -2.134308251626846e-12
  outer loop
    vertex -177.50131922384512 34.62864579453587 1.0000000000000009
    vertex -174.00131922384512 34.628645794517205 1.0000000000000009
    vertex -176.00131922384512 34.628645794527834 1.0000000000000009
  endloop
endfacet
facet normal -0.9771763639227969 5.637707022487684e-12 -0.2124296443310624
  outer loop
    vertex -169.5447974836367 237.8286457944884 3.5000000004337455
    vertex -169.00131922384512 34.6286457944907 1.0000000000000024
    vertex -169.54479748471476 34.62864579448823 3.4999999999999987
  endloop
endfacet
facet normal -0.9771763639227969 5.637707022487684e-12 -0.2124296443310624
  outer loop
    vertex -169.00131922384512 34.6286457944907 1.0000000000000024
    vertex -169.5447974836367 237.8286457944884 3.5000000004337455
    vertex -169.0013192227671 237.82864579449094 1.0000000004337006
  endloop
endfacet
facet normal 0.29706314071268564 -3.614317604245785e-12 0.954857837811428
  outer loop
    vertex -167.7391010854337 34.62864579447852 3.5605366618731926
    vertex -167.89951234108435 237.82864579447948 3.610441757958368
    vertex -167.8995123421624 34.62864579447929 3.610441757524621
  endloop
endfacet
facet normal 0.29706314071268564 -3.614317604245785e-12 0.954857837811428
  outer loop
    vertex -167.89951234108435 237.82864579447948 3.610441757958368
    vertex -167.7391010854337 34.62864579447852 3.5605366618731926
    vertex -167.73910108435564 237.82864579447872 3.5605366623069394
  endloop
endfacet
facet normal 0.6211136989577024 -1.6224190615807977e-12 -0.7837204686411351
  outer loop
    vertex -168.4443698389824 237.82864579448358 3.030834688579997
    vertex -168.36981391284905 34.6286457944829 3.089921709070687
    vertex -168.44436984006046 34.62864579448342 3.03083468814625
  endloop
endfacet
facet normal 0.6211136989577024 -1.6224190615807977e-12 -0.7837204686411351
  outer loop
    vertex -168.36981391284905 34.6286457944829 3.089921709070687
    vertex -168.4443698389824 237.82864579448358 3.030834688579997
    vertex -168.369813911771 237.82864579448304 3.0899217095044342
  endloop
endfacet
facet normal 0.1386751456294537 1.3782239432245398e-12 -0.990337924137337
  outer loop
    vertex -167.67660403343453 237.82864579447872 3.3868077278349453
    vertex -167.58239243083375 34.628645794478054 3.399999999999997
    vertex -167.6766040345126 34.62864579447854 3.3868077274011985
  endloop
endfacet
facet normal 0.1386751456294537 1.3782239432245398e-12 -0.990337924137337
  outer loop
    vertex -167.58239243083375 34.628645794478054 3.399999999999997
    vertex -167.67660403343453 237.82864579447872 3.3868077278349453
    vertex -167.58239242975566 237.8286457944782 3.400000000433743
  endloop
endfacet
facet normal 0.03350655759175285 -2.31116980640115e-12 0.9994384976567346
  outer loop
    vertex -174.2711429092394 34.628645794512906 3.6943710688658444
    vertex -174.4390434888379 237.82864579451396 3.7000000004337434
    vertex -174.439043489916 34.628645794513766 3.6999999999999966
  endloop
endfacet
facet normal 0.03350655759175285 -2.31116980640115e-12 0.9994384976567346
  outer loop
    vertex -174.4390434888379 237.82864579451396 3.7000000004337434
    vertex -174.2711429092394 34.628645794512906 3.6943710688658444
    vertex -174.2711429081613 237.8286457945131 3.6943710692995912
  endloop
endfacet
facet normal -0.5738166897753225 4.79264491644024e-12 -0.8189837645126374
  outer loop
    vertex -174.7107350852639 237.82864579451658 3.1445093297942646
    vertex -174.6328245348412 34.62864579451609 3.089921709070686
    vertex -174.710735086342 34.62864579451639 3.1445093293605173
  endloop
endfacet
facet normal -0.5738166897753225 4.79264491644024e-12 -0.8189837645126374
  outer loop
    vertex -174.6328245348412 34.62864579451609 3.089921709070686
    vertex -174.7107350852639 237.82864579451658 3.1445093297942646
    vertex -174.63282453376314 237.8286457945163 3.089921709504433
  endloop
endfacet
facet normal 0.23244405257502376 -3.3093576995878482e-12 0.972609768829462
  outer loop
    vertex -167.8995123421624 34.62864579447929 3.610441757524621
    vertex -168.06290583187058 237.82864579448025 3.6494911757001236
    vertex -168.06290583294864 34.62864579448005 3.649491175266377
  endloop
endfacet
facet normal 0.23244405257502376 -3.3093576995878482e-12 0.972609768829462
  outer loop
    vertex -168.06290583187058 237.82864579448025 3.6494911757001236
    vertex -167.8995123421624 34.62864579447929 3.610441757524621
    vertex -167.89951234108435 237.82864579447948 3.610441757958368
  endloop
endfacet
facet normal 0.033506557591719284 -2.311167848519306e-12 0.9994384976567358
  outer loop
    vertex -168.39569437709753 34.62864579448175 3.694371068865848
    vertex -168.5635949566962 237.82864579448278 3.7000000004337448
    vertex -168.56359495777428 34.62864579448261 3.699999999999998
  endloop
endfacet
facet normal 0.033506557591719284 -2.311167848519306e-12 0.9994384976567358
  outer loop
    vertex -168.5635949566962 237.82864579448278 3.7000000004337448
    vertex -168.39569437709753 34.62864579448175 3.694371068865848
    vertex -168.39569437601946 237.82864579448193 3.694371069299595
  endloop
endfacet
facet normal -0.4734027209498168 4.3919101136389615e-12 -0.8808461067617375
  outer loop
    vertex -174.87552465622844 237.8286457945172 3.2394427195337308
    vertex -174.79172909390365 34.628645794516736 3.194407556415021
    vertex -174.8755246573065 34.62864579451704 3.239442719099984
  endloop
endfacet
facet normal -0.4734027209498168 4.3919101136389615e-12 -0.8808461067617375
  outer loop
    vertex -174.79172909390365 34.628645794516736 3.194407556415021
    vertex -174.87552465622844 237.8286457945172 3.2394427195337308
    vertex -174.79172909282556 237.8286457945169 3.194407556848768
  endloop
endfacet
facet normal 0.9771763639227957 -4.730915016670459e-12 -0.21242964433106795
  outer loop
    vertex -174.00131922384512 34.628645794517205 1.0000000000000009
    vertex -173.45784096189743 237.82864579450913 3.5000000004337437
    vertex -173.4578409629755 34.628645794508955 3.499999999999997
  endloop
endfacet
facet normal 0.9771763639227957 -4.730915016670459e-12 -0.21242964433106795
  outer loop
    vertex -173.45784096189743 237.82864579450913 3.5000000004337437
    vertex -174.00131922384512 34.628645794517205 1.0000000000000009
    vertex -174.0013192227671 237.82864579451743 1.0000000004336989
  endloop
endfacet
facet normal 0.1667811145403644 -2.989582879001643e-12 0.9859939451298237
  outer loop
    vertex -173.93835436509042 34.62864579451119 3.6494911752663732
    vertex -174.10399632829436 237.82864579451223 3.67750955406245
    vertex -174.10399632937248 34.62864579451205 3.677509553628703
  endloop
endfacet
facet normal 0.1667811145403644 -2.989582879001643e-12 0.9859939451298237
  outer loop
    vertex -174.10399632829436 237.82864579451223 3.67750955406245
    vertex -173.93835436509042 34.62864579451119 3.6494911752663732
    vertex -173.93835436401233 237.82864579451137 3.64949117570012
  endloop
endfacet
facet normal 0.10036920294677626 -2.6563418119790222e-12 0.9949502616210666
  outer loop
    vertex -174.10399632937248 34.62864579451205 3.677509553628703
    vertex -174.2711429081613 237.8286457945131 3.6943710692995912
    vertex -174.2711429092394 34.628645794512906 3.6943710688658444
  endloop
endfacet
facet normal 0.10036920294677626 -2.6563418119790222e-12 0.9949502616210666
  outer loop
    vertex -174.2711429081613 237.8286457945131 3.6943710692995912
    vertex -174.10399632937248 34.62864579451205 3.677509553628703
    vertex -174.10399632829436 237.82864579451223 3.67750955406245
  endloop
endfacet
facet normal -0.2324440525750542 -8.428998760626767e-13 0.9726097688294549
  outer loop
    vertex -174.9397326147416 34.62864579451651 3.649491175266375
    vertex -175.10312610444976 237.8286457945177 3.610441757958366
    vertex -175.10312610552782 34.62864579451751 3.6104417575246193
  endloop
endfacet
facet normal -0.2324440525750542 -8.428998760626767e-13 0.9726097688294549
  outer loop
    vertex -175.10312610444976 237.8286457945177 3.610441757958366
    vertex -174.9397326147416 34.62864579451651 3.649491175266375
    vertex -174.93973261366352 237.82864579451672 3.649491175700122
  endloop
endfacet
facet normal -0.5245225075213534 4.600327709017826e-12 -0.851396581566729
  outer loop
    vertex -174.79172909282556 237.8286457945169 3.194407556848768
    vertex -174.710735086342 34.62864579451639 3.1445093293605173
    vertex -174.79172909390365 34.628645794516736 3.194407556415021
  endloop
endfacet
facet normal -0.5245225075213534 4.600327709017826e-12 -0.851396581566729
  outer loop
    vertex -174.710735086342 34.62864579451639 3.1445093293605173
    vertex -174.79172909282556 237.8286457945169 3.194407556848768
    vertex -174.7107350852639 237.82864579451658 3.1445093297942646
  endloop
endfacet
facet normal -0.6211136989577342 4.96827486607243e-12 -0.78372046864111
  outer loop
    vertex -174.63282453376314 237.8286457945163 3.089921709504433
    vertex -174.5582686076298 34.62864579451584 3.03083468814625
    vertex -174.6328245348412 34.62864579451609 3.089921709070686
  endloop
endfacet
facet normal -0.6211136989577342 4.96827486607243e-12 -0.78372046864111
  outer loop
    vertex -174.5582686076298 34.62864579451584 3.03083468814625
    vertex -174.63282453376314 237.8286457945163 3.089921709504433
    vertex -174.5582686065517 237.82864579451604 3.030834688579997
  endloop
endfacet
facet normal -0.6662489174934874 5.1266851673798065e-12 -0.7457294281029524
  outer loop
    vertex -174.5582686065517 237.82864579451604 3.030834688579997
    vertex -174.4873267971429 34.62864579451558 2.9674539193838423
    vertex -174.5582686076298 34.62864579451584 3.03083468814625
  endloop
endfacet
facet normal -0.6662489174934874 5.1266851673798065e-12 -0.7457294281029524
  outer loop
    vertex -174.4873267971429 34.62864579451558 2.9674539193838423
    vertex -174.5582686065517 237.82864579451604 3.030834688579997
    vertex -174.48732679606482 237.8286457945158 2.967453919817589
  endloop
endfacet
facet normal 0.5245225075217442 -9.654896234373237e-13 -0.8513965815664881
  outer loop
    vertex -168.2919033602701 237.82864579448255 3.1445093297942655
    vertex -168.2109093537866 34.628645794481805 3.1944075564150225
    vertex -168.2919033613482 34.628645794482345 3.144509329360518
  endloop
endfacet
facet normal 0.5245225075217442 -9.654896234373237e-13 -0.8513965815664881
  outer loop
    vertex -168.2109093537866 34.628645794481805 3.1944075564150225
    vertex -168.2919033602701 237.82864579448255 3.1445093297942655
    vertex -168.21090935270854 237.82864579448201 3.1944075568487693
  endloop
endfacet
facet normal -0.13867514562947536 2.8497347338024624e-12 -0.9903379241373339
  outer loop
    vertex -175.4202460157784 237.82864579451987 3.400000000433742
    vertex -175.32603441317767 34.62864579451912 3.386807727401197
    vertex -175.4202460168565 34.62864579451964 3.399999999999995
  endloop
endfacet
facet normal -0.13867514562947536 2.8497347338024624e-12 -0.9903379241373339
  outer loop
    vertex -175.32603441317767 34.62864579451912 3.386807727401197
    vertex -175.4202460157784 237.82864579451987 3.400000000433742
    vertex -175.3260344120996 237.82864579451933 3.386807727834944
  endloop
endfacet
facet normal 0.47340272094942115 -6.314092070794305e-13 -0.8808461067619499
  outer loop
    vertex -168.21090935270854 237.82864579448201 3.1944075568487693
    vertex -168.12711379038367 34.62864579448125 3.2394427190999857
    vertex -168.2109093537866 34.628645794481805 3.1944075564150225
  endloop
endfacet
facet normal 0.47340272094942115 -6.314092070794305e-13 -0.8808461067619499
  outer loop
    vertex -168.12711379038367 34.62864579448125 3.2394427190999857
    vertex -168.21090935270854 237.82864579448201 3.1944075568487693
    vertex -168.12711378930558 237.82864579448142 3.2394427195337325
  endloop
endfacet
facet normal -0.36640376074048686 3.9301192557620034e-12 -0.9304559549571534
  outer loop
    vertex -175.05034511059867 237.82864579451802 3.314314342461666
    vertex -174.96183012549625 34.62864579451742 3.2794580722113347
    vertex -175.05034511167676 34.62864579451784 3.3143143420279193
  endloop
endfacet
facet normal -0.36640376074048686 3.9301192557620034e-12 -0.9304559549571534
  outer loop
    vertex -174.96183012549625 34.62864579451742 3.2794580722113347
    vertex -175.05034511059867 237.82864579451802 3.314314342461666
    vertex -174.96183012441819 237.8286457945176 3.2794580726450815
  endloop
endfacet
facet normal 0.2543081555379157 7.151737816443132e-13 -0.9671232403509407
  outer loop
    vertex -167.86187690780298 237.8286457944798 3.34389021148844
    vertex -167.76987373581466 34.62864579447909 3.368082740269129
    vertex -167.86187690888104 34.62864579447959 3.3438902110546933
  endloop
endfacet
facet normal 0.2543081555379157 7.151737816443132e-13 -0.9671232403509407
  outer loop
    vertex -167.76987373581466 34.62864579447909 3.368082740269129
    vertex -167.86187690780298 237.8286457944798 3.34389021148844
    vertex -167.76987373473656 237.8286457944793 3.3680827407028757
  endloop
endfacet
facet normal 1.0 -5.305603909427617e-12 -1.135425752970202e-23
  outer loop
    vertex -167.58239243083375 34.628645794478054 3.399999999999997
    vertex -167.58239242975566 237.828645794478 3.5000000004337433
    vertex -167.58239243083375 34.62864579447784 3.4999999999999964
  endloop
endfacet
facet normal 1.0 -5.305603909427617e-12 -1.135425752970202e-23
  outer loop
    vertex -167.58239242975566 237.828645794478 3.5000000004337433
    vertex -167.58239243083375 34.628645794478054 3.399999999999997
    vertex -167.58239242975566 237.8286457944782 3.400000000433743
  endloop
endfacet
facet normal -0.31089699774498836 3.678291151919731e-12 -0.9504436105278171
  outer loop
    vertex -175.14076153773112 237.82864579451842 3.343890211488439
    vertex -175.05034511167676 34.62864579451784 3.3143143420279193
    vertex -175.1407615388092 34.62864579451823 3.343890211054692
  endloop
endfacet
facet normal -0.31089699774498836 3.678291151919731e-12 -0.9504436105278171
  outer loop
    vertex -175.05034511167676 34.62864579451784 3.3143143420279193
    vertex -175.14076153773112 237.82864579451842 3.343890211488439
    vertex -175.05034511059867 237.82864579451802 3.314314342461666
  endloop
endfacet
facet normal 0.16678111454027367 -2.9895633867127296e-12 0.9859939451298391
  outer loop
    vertex -168.06290583294864 34.62864579448005 3.649491175266377
    vertex -168.22854779615267 237.82864579448108 3.677509554062449
    vertex -168.22854779723076 34.628645794480875 3.677509553628702
  endloop
endfacet
facet normal 0.16678111454027367 -2.9895633867127296e-12 0.9859939451298391
  outer loop
    vertex -168.22854779615267 237.82864579448108 3.677509554062449
    vertex -168.06290583294864 34.62864579448005 3.649491175266377
    vertex -168.06290583187058 237.82864579448025 3.6494911757001236
  endloop
endfacet
facet normal -0.033506557591755845 -1.9556267172531546e-12 0.9994384976567344
  outer loop
    vertex -168.56359495777428 34.62864579448261 3.699999999999998
    vertex -168.73149553737284 237.82864579448372 3.6943710692995926
    vertex -168.73149553845087 34.62864579448353 3.6943710688658458
  endloop
endfacet
facet normal -0.033506557591755845 -1.9556267172531546e-12 0.9994384976567344
  outer loop
    vertex -168.73149553737284 237.82864579448372 3.6943710692995926
    vertex -168.56359495777428 34.62864579448261 3.699999999999998
    vertex -168.5635949566962 237.82864579448278 3.7000000004337448
  endloop
endfacet
facet normal -0.7686707776666251 2.7128255580651084e-12 0.6396446166125265
  outer loop
    vertex -174.42024601577842 237.82864579451558 2.9000000004337436
    vertex -176.00131922384512 34.628645794527834 1.0000000000000009
    vertex -174.4202460168565 34.628645794515364 2.8999999999999964
  endloop
endfacet
facet normal -0.7686707776666251 2.7128255580651084e-12 0.6396446166125265
  outer loop
    vertex -176.00131922384512 34.628645794527834 1.0000000000000009
    vertex -174.42024601577842 237.82864579451558 2.9000000004337436
    vertex -176.00131922276708 237.8286457945281 1.0000000004336989
  endloop
endfacet
facet normal -0.1667811145402737 -1.2198240686515878e-12 0.9859939451298391
  outer loop
    vertex -174.7740906504595 34.62864579451557 3.677509553628701
    vertex -174.93973261366352 237.82864579451672 3.649491175700122
    vertex -174.9397326147416 34.62864579451651 3.649491175266375
  endloop
endfacet
facet normal -0.1667811145402737 -1.2198240686515878e-12 0.9859939451298391
  outer loop
    vertex -174.93973261366352 237.82864579451672 3.649491175700122
    vertex -174.7740906504595 34.62864579451557 3.677509553628701
    vertex -174.77409064938138 237.82864579451575 3.6775095540624476
  endloop
endfacet
facet normal 0.1968341919863112 1.0485235599439128e-12 -0.980436790856553
  outer loop
    vertex -167.76987373473656 237.8286457944793 3.3680827407028757
    vertex -167.6766040345126 34.62864579447854 3.3868077274011985
    vertex -167.76987373581466 34.62864579447909 3.368082740269129
  endloop
endfacet
facet normal 0.1968341919863112 1.0485235599439128e-12 -0.980436790856553
  outer loop
    vertex -167.6766040345126 34.62864579447854 3.3868077274011985
    vertex -167.76987373473656 237.8286457944793 3.3680827407028757
    vertex -167.67660403343453 237.82864579447872 3.3868077278349453
  endloop
endfacet
facet normal 0.10036920294688167 -2.6563300844654797e-12 0.994950261621056
  outer loop
    vertex -168.22854779723076 34.628645794480875 3.677509553628702
    vertex -168.39569437601946 237.82864579448193 3.694371069299595
    vertex -168.39569437709753 34.62864579448175 3.694371068865848
  endloop
endfacet
facet normal 0.10036920294688167 -2.6563300844654797e-12 0.994950261621056
  outer loop
    vertex -168.39569437601946 237.82864579448193 3.694371069299595
    vertex -168.22854779723076 34.628645794480875 3.677509553628702
    vertex -168.22854779615267 237.82864579448108 3.677509554062449
  endloop
endfacet
facet normal -0.1667811145403456 -1.219833804200867e-12 0.985993945129827
  outer loop
    vertex -168.89864211831778 34.628645794484456 3.6775095536287044
    vertex -169.06428408152178 237.82864579448554 3.649491175700122
    vertex -169.06428408259984 34.62864579448535 3.649491175266375
  endloop
endfacet
facet normal -0.1667811145403456 -1.219833804200867e-12 0.985993945129827
  outer loop
    vertex -169.06428408152178 237.82864579448554 3.649491175700122
    vertex -168.89864211831778 34.628645794484456 3.6775095536287044
    vertex -168.89864211723972 237.82864579448463 3.677509554062451
  endloop
endfacet
facet normal -0.3603481902912023 -7.928231204248305e-14 0.9328178716951425
  outer loop
    vertex -175.26353736225656 34.62864579451847 3.5605366618731913
    vertex -175.42024601577845 237.8286457945196 3.500000000433742
    vertex -175.42024601685657 34.62864579451943 3.499999999999995
  endloop
endfacet
facet normal -0.3603481902912023 -7.928231204248305e-14 0.9328178716951425
  outer loop
    vertex -175.42024601577845 237.8286457945196 3.500000000433742
    vertex -175.26353736225656 34.62864579451847 3.5605366618731913
    vertex -175.26353736117844 237.82864579451865 3.560536662306938
  endloop
endfacet
facet normal -0.23244405257511888 -8.428998674064641e-13 0.9726097688294394
  outer loop
    vertex -169.06428408259984 34.62864579448535 3.649491175266375
    vertex -169.22767757230795 237.82864579448648 3.6104417579583656
    vertex -169.22767757338602 34.62864579448631 3.610441757524619
  endloop
endfacet
facet normal -0.23244405257511888 -8.428998674064641e-13 0.9726097688294394
  outer loop
    vertex -169.22767757230795 237.82864579448648 3.6104417579583656
    vertex -169.06428408259984 34.62864579448535 3.649491175266375
    vertex -169.06428408152178 237.82864579448554 3.649491175700122
  endloop
endfacet
facet normal 0.3603481902912925 -3.903053925266354e-12 0.9328178716951077
  outer loop
    vertex -167.58239243083375 34.62864579447784 3.4999999999999964
    vertex -167.73910108435564 237.82864579447872 3.5605366623069394
    vertex -167.7391010854337 34.62864579447852 3.5605366618731926
  endloop
endfacet
facet normal 0.3603481902912925 -3.903053925266354e-12 0.9328178716951077
  outer loop
    vertex -167.73910108435564 237.82864579447872 3.5605366623069394
    vertex -167.58239243083375 34.62864579447784 3.4999999999999964
    vertex -167.58239242975566 237.828645794478 3.5000000004337433
  endloop
endfacet
facet normal -0.29706314071264756 -4.621362230986009e-13 0.9548578378114397
  outer loop
    vertex -175.10312610552782 34.62864579451751 3.6104417575246193
    vertex -175.26353736117844 237.82864579451865 3.560536662306938
    vertex -175.26353736225656 34.62864579451847 3.5605366618731913
  endloop
endfacet
facet normal -0.29706314071264756 -4.621362230986009e-13 0.9548578378114397
  outer loop
    vertex -175.26353736117844 237.82864579451865 3.560536662306938
    vertex -175.10312610552782 34.62864579451751 3.6104417575246193
    vertex -175.10312610444976 237.8286457945177 3.610441757958366
  endloop
endfacet
facet normal -1.0 5.305720775010119e-12 -4.511946371952635e-13
  outer loop
    vertex -175.42024601577845 237.8286457945196 3.500000000433742
    vertex -175.4202460168565 34.62864579451964 3.399999999999995
    vertex -175.42024601685657 34.62864579451943 3.499999999999995
  endloop
endfacet
facet normal -1.0 5.305720775010119e-12 -4.511946371952635e-13
  outer loop
    vertex -175.4202460168565 34.62864579451964 3.399999999999995
    vertex -175.42024601577845 237.8286457945196 3.500000000433742
    vertex -175.4202460157784 237.82864579451987 3.400000000433742
  endloop
endfacet
facet normal -0.10036920294678515 -1.5913033442973e-12 0.9949502616210657
  outer loop
    vertex -168.73149553845087 34.62864579448353 3.6943710688658458
    vertex -168.89864211723972 237.82864579448463 3.677509554062451
    vertex -168.89864211831778 34.628645794484456 3.6775095536287044
  endloop
endfacet
facet normal -0.10036920294678515 -1.5913033442973e-12 0.9949502616210657
  outer loop
    vertex -168.89864211723972 237.82864579448463 3.677509554062451
    vertex -168.73149553845087 34.62864579448353 3.6943710688658458
    vertex -168.73149553737284 237.82864579448372 3.6943710692995926
  endloop
endfacet
facet normal -0.03350655759172229 -1.9556247584511472e-12 0.9994384976567355
  outer loop
    vertex -174.439043489916 34.628645794513766 3.6999999999999966
    vertex -174.60694406951464 237.82864579451487 3.6943710692995935
    vertex -174.60694407059273 34.628645794514696 3.6943710688658467
  endloop
endfacet
facet normal -0.03350655759172229 -1.9556247584511472e-12 0.9994384976567355
  outer loop
    vertex -174.60694406951464 237.82864579451487 3.6943710692995935
    vertex -174.439043489916 34.628645794513766 3.6999999999999966
    vertex -174.4390434888379 237.82864579451396 3.7000000004337434
  endloop
endfacet
facet normal -0.19683419198611288 3.137160579409784e-12 -0.9804367908565926
  outer loop
    vertex -175.3260344120996 237.82864579451933 3.386807727834944
    vertex -175.23276471187552 34.62864579451869 3.3680827402691276
    vertex -175.32603441317767 34.62864579451912 3.386807727401197
  endloop
endfacet
facet normal -0.19683419198611288 3.137160579409784e-12 -0.9804367908565926
  outer loop
    vertex -175.23276471187552 34.62864579451869 3.3680827402691276
    vertex -175.3260344120996 237.82864579451933 3.386807727834944
    vertex -175.23276471079743 237.82864579451888 3.3680827407028744
  endloop
endfacet
facet normal -0.4206352528396596 4.168243945681515e-12 -0.9072298408168217
  outer loop
    vertex -174.96183012441819 237.8286457945176 3.2794580726450815
    vertex -174.8755246573065 34.62864579451704 3.239442719099984
    vertex -174.96183012549625 34.62864579451742 3.2794580722113347
  endloop
endfacet
facet normal -0.4206352528396596 4.168243945681515e-12 -0.9072298408168217
  outer loop
    vertex -174.8755246573065 34.62864579451704 3.239442719099984
    vertex -174.96183012441819 237.8286457945176 3.2794580726450815
    vertex -174.87552465622844 237.8286457945172 3.2394427195337308
  endloop
endfacet
facet normal 0.36034819029138326 -3.9030749974008025e-12 0.9328178716950727
  outer loop
    vertex -173.4578409629755 34.628645794508955 3.499999999999997
    vertex -173.61454961649733 237.8286457945099 3.5605366623069377
    vertex -173.61454961757542 34.6286457945097 3.560536661873191
  endloop
endfacet
facet normal 0.36034819029138326 -3.9030749974008025e-12 0.9328178716950727
  outer loop
    vertex -173.61454961649733 237.8286457945099 3.5605366623069377
    vertex -173.4578409629755 34.628645794508955 3.499999999999997
    vertex -173.45784096189743 237.82864579450913 3.5000000004337437
  endloop
endfacet
facet normal 0.709065251932526 -2.2567815934167427e-12 -0.7051428709856347
  outer loop
    vertex -168.5823924308337 34.628645794484434 2.8999999999999977
    vertex -168.51531164946928 237.82864579448412 2.967453919817589
    vertex -168.51531165054735 34.62864579448391 2.9674539193838423
  endloop
endfacet
facet normal 0.709065251932526 -2.2567815934167427e-12 -0.7051428709856347
  outer loop
    vertex -168.51531164946928 237.82864579448412 2.967453919817589
    vertex -168.5823924308337 34.628645794484434 2.8999999999999977
    vertex -168.58239242975563 237.82864579448457 2.900000000433745
  endloop
endfacet
facet normal 0.2324440525750643 -3.3093712821871542e-12 0.9726097688294524
  outer loop
    vertex -173.7749608743042 34.628645794510426 3.6104417575246175
    vertex -173.93835436401233 237.82864579451137 3.64949117570012
    vertex -173.93835436509042 34.62864579451119 3.6494911752663732
  endloop
endfacet
facet normal 0.2324440525750643 -3.3093712821871542e-12 0.9726097688294524
  outer loop
    vertex -173.93835436401233 237.82864579451137 3.64949117570012
    vertex -173.7749608743042 34.628645794510426 3.6104417575246175
    vertex -173.77496087322615 237.8286457945106 3.6104417579583643
  endloop
endfacet
facet normal 0.29706314071251294 -3.614334951333018e-12 0.9548578378114816
  outer loop
    vertex -173.61454961757542 34.6286457945097 3.560536661873191
    vertex -173.77496087322615 237.8286457945106 3.6104417579583643
    vertex -173.7749608743042 34.628645794510426 3.6104417575246175
  endloop
endfacet
facet normal 0.29706314071251294 -3.614334951333018e-12 0.9548578378114816
  outer loop
    vertex -173.77496087322615 237.8286457945106 3.6104417579583643
    vertex -173.61454961757542 34.6286457945097 3.560536661873191
    vertex -173.61454961649733 237.8286457945099 3.5605366623069377
  endloop
endfacet
facet normal 0.7686707776666414 -5.443385371114979e-12 0.6396446166125068
  outer loop
    vertex -167.0013192227671 237.82864579448034 1.0000000004337006
    vertex -168.5823924308337 34.628645794484434 2.8999999999999977
    vertex -167.00131922384512 34.62864579448007 1.0000000000000024
  endloop
endfacet
facet normal 0.7686707776666414 -5.443385371114979e-12 0.6396446166125068
  outer loop
    vertex -168.5823924308337 34.628645794484434 2.8999999999999977
    vertex -167.0013192227671 237.82864579448034 1.0000000004337006
    vertex -168.58239242975563 237.82864579448457 2.900000000433745
  endloop
endfacet
facet normal 0.6662489174934872 -1.943020549678915e-12 -0.7457294281029524
  outer loop
    vertex -168.51531164946928 237.82864579448412 2.967453919817589
    vertex -168.44436984006046 34.62864579448342 3.03083468814625
    vertex -168.51531165054735 34.62864579448391 2.9674539193838423
  endloop
endfacet
facet normal 0.6662489174934872 -1.943020549678915e-12 -0.7457294281029524
  outer loop
    vertex -168.44436984006046 34.62864579448342 3.03083468814625
    vertex -168.51531164946928 237.82864579448412 2.967453919817589
    vertex -168.4443698389824 237.82864579448358 3.030834688579997
  endloop
endfacet
facet normal 0.5738166897749881 -1.2962096923297824e-12 -0.8189837645128718
  outer loop
    vertex -168.369813911771 237.82864579448304 3.0899217095044342
    vertex -168.2919033613482 34.628645794482345 3.144509329360518
    vertex -168.36981391284905 34.6286457944829 3.089921709070687
  endloop
endfacet
facet normal 0.5738166897749881 -1.2962096923297824e-12 -0.8189837645128718
  outer loop
    vertex -168.2919033613482 34.628645794482345 3.144509329360518
    vertex -168.369813911771 237.82864579448304 3.0899217095044342
    vertex -168.2919033602701 237.82864579448255 3.1445093297942655
  endloop
endfacet
facet normal 0.4206352528399612 -2.951304039794326e-13 -0.9072298408166819
  outer loop
    vertex -168.12711378930558 237.82864579448142 3.2394427195337325
    vertex -168.040808322194 34.628645794480704 3.279458072211336
    vertex -168.12711379038367 34.62864579448125 3.2394427190999857
  endloop
endfacet
facet normal 0.4206352528399612 -2.951304039794326e-13 -0.9072298408166819
  outer loop
    vertex -168.040808322194 34.628645794480704 3.279458072211336
    vertex -168.12711378930558 237.82864579448142 3.2394427195337325
    vertex -168.04080832111595 237.82864579448088 3.279458072645083
  endloop
endfacet
facet normal -0.1003692029468906 -1.5912916161350744e-12 0.9949502616210552
  outer loop
    vertex -174.60694407059273 34.628645794514696 3.6943710688658467
    vertex -174.77409064938138 237.82864579451575 3.6775095540624476
    vertex -174.7740906504595 34.62864579451557 3.677509553628701
  endloop
endfacet
facet normal -0.1003692029468906 -1.5912916161350744e-12 0.9949502616210552
  outer loop
    vertex -174.77409064938138 237.82864579451575 3.6775095540624476
    vertex -174.60694407059273 34.628645794514696 3.6943710688658467
    vertex -174.60694406951464 237.82864579451487 3.6943710692995935
  endloop
endfacet
facet normal -0.25430815553812947 3.413660752205159e-12 -0.9671232403508844
  outer loop
    vertex -175.23276471079743 237.82864579451888 3.3680827407028744
    vertex -175.1407615388092 34.62864579451823 3.343890211054692
    vertex -175.23276471187552 34.62864579451869 3.3680827402691276
  endloop
endfacet
facet normal -0.25430815553812947 3.413660752205159e-12 -0.9671232403508844
  outer loop
    vertex -175.1407615388092 34.62864579451823 3.343890211054692
    vertex -175.23276471079743 237.82864579451888 3.3680827407028744
    vertex -175.14076153773112 237.82864579451842 3.343890211488439
  endloop
endfacet
facet normal -0.7090652519322173 5.2672157135758475e-12 -0.7051428709859453
  outer loop
    vertex -174.4873267971429 34.62864579451558 2.9674539193838423
    vertex -174.42024601577842 237.82864579451558 2.9000000004337436
    vertex -174.4202460168565 34.628645794515364 2.8999999999999964
  endloop
endfacet
facet normal -0.7090652519322173 5.2672157135758475e-12 -0.7051428709859453
  outer loop
    vertex -174.42024601577842 237.82864579451558 2.9000000004337436
    vertex -174.4873267971429 34.62864579451558 2.9674539193838423
    vertex -174.48732679606482 237.8286457945158 2.967453919817589
  endloop
endfacet
facet normal 0.36640376074018405 4.217562634461843e-14 -0.9304559549572726
  outer loop
    vertex -168.04080832111595 237.82864579448088 3.279458072645083
    vertex -167.9522933360134 34.628645794480185 3.31431434202792
    vertex -168.040808322194 34.628645794480704 3.279458072211336
  endloop
endfacet
facet normal 0.36640376074018405 4.217562634461843e-14 -0.9304559549572726
  outer loop
    vertex -167.9522933360134 34.628645794480185 3.31431434202792
    vertex -168.04080832111595 237.82864579448088 3.279458072645083
    vertex -167.95229333493532 237.8286457944804 3.3143143424616666
  endloop
endfacet
facet normal 0.310896997745252 3.7933482993323946e-13 -0.9504436105277309
  outer loop
    vertex -167.95229333493532 237.8286457944804 3.3143143424616666
    vertex -167.86187690888104 34.62864579447959 3.3438902110546933
    vertex -167.9522933360134 34.628645794480185 3.31431434202792
  endloop
endfacet
facet normal 0.310896997745252 3.7933482993323946e-13 -0.9504436105277309
  outer loop
    vertex -167.86187690888104 34.62864579447959 3.3438902110546933
    vertex -167.95229333493532 237.8286457944804 3.3143143424616666
    vertex -167.86187690780298 237.8286457944798 3.34389021148844
  endloop
endfacet
facet normal -0.36034819029136045 -7.934546259894237e-14 0.9328178716950815
  outer loop
    vertex -169.38808883011484 34.62864579448731 3.5605366618731935
    vertex -169.5447974836367 237.8286457944884 3.5000000004337455
    vertex -169.54479748471476 34.62864579448823 3.4999999999999987
  endloop
endfacet
facet normal -0.36034819029136045 -7.934546259894237e-14 0.9328178716950815
  outer loop
    vertex -169.5447974836367 237.8286457944884 3.5000000004337455
    vertex -169.38808883011484 34.62864579448731 3.5605366618731935
    vertex -169.38808882903675 237.82864579448747 3.5605366623069403
  endloop
endfacet
facet normal 1.1328848739405684e-23 2.1343403911896874e-12 -1.0
  outer loop
    vertex -176.0013192227671 237.8286457945302 4.3369815516669516e-10
    vertex -171.50131922384517 34.628645794506085 0.0
    vertex -176.0013192238452 34.62864579452996 7.049916206369744e-16
  endloop
endfacet
facet normal 1.1328848739405684e-23 2.1343403911896874e-12 -1.0
  outer loop
    vertex -171.50131922384517 34.628645794506085 0.0
    vertex -176.0013192227671 237.8286457945302 4.3369815516669516e-10
    vertex -167.0013192227671 237.8286457944824 4.3369815516669516e-10
  endloop
endfacet
facet normal 1.1328848739405684e-23 2.1343403911896874e-12 -1.0
  outer loop
    vertex -171.50131922384517 34.628645794506085 0.0
    vertex -167.0013192227671 237.8286457944824 4.3369815516669516e-10
    vertex -167.0013192238452 34.628645794482196 7.049916206369744e-16
  endloop
endfacet
facet normal -0.29706314071246714 -4.621535905293863e-13 0.9548578378114958
  outer loop
    vertex -169.22767757338602 34.62864579448631 3.610441757524619
    vertex -169.38808882903675 237.82864579448747 3.5605366623069403
    vertex -169.38808883011484 34.62864579448731 3.5605366618731935
  endloop
endfacet
facet normal -0.29706314071246714 -4.621535905293863e-13 0.9548578378114958
  outer loop
    vertex -169.38808882903675 237.82864579448747 3.5605366623069403
    vertex -169.22767757338602 34.62864579448631 3.610441757524619
    vertex -169.22767757230795 237.82864579448648 3.6104417579583656
  endloop
endfacet
facet normal 1.1108958756122023e-15 -2.134342958218972e-12 1.0
  outer loop
    vertex -165.62631922384512 34.628645794472696 1.0000000000000009
    vertex -167.0013192227671 237.82864579448034 1.0000000004337006
    vertex -167.00131922384512 34.62864579448007 1.0000000000000024
  endloop
endfacet
facet normal 1.1108958756122023e-15 -2.134342958218972e-12 1.0
  outer loop
    vertex -167.0013192227671 237.82864579448034 1.0000000004337006
    vertex -165.62631922384512 34.628645794472696 1.0000000000000009
    vertex -165.6263192227671 237.82864579447295 1.0000000004336989
  endloop
endfacet
facet normal -0.5547001962252472 4.718801585483016e-12 -0.8320502943378317
  outer loop
    vertex -177.50131922276708 237.8286457945361 1.0000000004336989
    vertex -176.0013192238452 34.62864579452996 7.049916206369744e-16
    vertex -177.50131922384512 34.62864579453587 1.0000000000000009
  endloop
endfacet
facet normal -0.5547001962252472 4.718801585483016e-12 -0.8320502943378317
  outer loop
    vertex -176.0013192238452 34.62864579452996 7.049916206369744e-16
    vertex -177.50131922276708 237.8286457945361 1.0000000004336989
    vertex -176.0013192227671 237.8286457945302 4.3369815516669516e-10
  endloop
endfacet
facet normal -1.143144686679908e-23 -2.1343420452066103e-12 1.0
  outer loop
    vertex -176.00131922384512 34.628645794527834 1.0000000000000009
    vertex -177.50131922276708 237.8286457945361 1.0000000004336989
    vertex -177.50131922384512 34.62864579453587 1.0000000000000009
  endloop
endfacet
facet normal -1.143144686679908e-23 -2.1343420452066103e-12 1.0
  outer loop
    vertex -177.50131922276708 237.8286457945361 1.0000000004336989
    vertex -176.00131922384512 34.628645794527834 1.0000000000000009
    vertex -176.00131922276708 237.8286457945281 1.0000000004336989
  endloop
endfacet
facet normal -3.0549638025203405e-16 -2.1343429582189648e-12 1.0
  outer loop
    vertex -169.00131922384512 34.6286457944907 1.0000000000000024
    vertex -174.0013192227671 237.82864579451743 1.0000000004336989
    vertex -174.00131922384512 34.628645794517205 1.0000000000000009
  endloop
endfacet
facet normal -3.0549638025203405e-16 -2.1343429582189648e-12 1.0
  outer loop
    vertex -174.0013192227671 237.82864579451743 1.0000000004336989
    vertex -169.00131922384512 34.6286457944907 1.0000000000000024
    vertex -169.0013192227671 237.82864579449094 1.0000000004337006
  endloop
endfacet
facet normal 0.5881716976750329 -1.3943842900904544e-12 -0.8087360843031982
  outer loop
    vertex -167.0013192227671 237.8286457944824 4.3369815516669516e-10
    vertex -165.62631922384512 34.628645794472696 1.0000000000000009
    vertex -167.0013192238452 34.628645794482196 7.049916206369744e-16
  endloop
endfacet
facet normal 0.5881716976750329 -1.3943842900904544e-12 -0.8087360843031982
  outer loop
    vertex -165.62631922384512 34.628645794472696 1.0000000000000009
    vertex -167.0013192227671 237.8286457944824 4.3369815516669516e-10
    vertex -165.6263192227671 237.82864579447295 1.0000000004336989
  endloop
endfacet
endsolid v2
