solid v2
facet normal -5.305809036297159e-12 -1.0 -2.133769068633316e-12
  outer loop
    vertex -187.00131922384514 34.62864579448008 1.0000000000000018
    vertex -194.00131922384512 34.62864579451721 1.0000000000000002
    vertex -185.62631922384514 34.62864579447271 1.0000000000000002
  endloop
endfacet
facet normal -5.305809036297159e-12 -1.0 -2.133769068633316e-12
  outer loop
    vertex -194.00131922384512 34.62864579451721 1.0000000000000002
    vertex -187.00131922384514 34.62864579448008 1.0000000000000018
    vertex -189.00131922384514 34.628645794490716 1.0000000000000018
  endloop
endfacet
facet normal -5.305809036297159e-12 -1.0 -2.133769068633316e-12
  outer loop
    vertex -189.00131922384514 34.628645794490716 1.0000000000000018
    vertex -187.00131922384514 34.62864579448008 1.0000000000000018
    vertex -188.5823924308337 34.62864579448445 2.8999999999999972
  endloop
endfacet
facet normal -5.305809036297159e-12 -1.0 -2.133769068633316e-12
  outer loop
    vertex -189.00131922384514 34.628645794490716 1.0000000000000018
    vertex -188.5823924308337 34.62864579448445 2.8999999999999972
    vertex -189.54479748471476 34.628645794488236 3.499999999999998
  endloop
endfacet
facet normal -5.305809036297159e-12 -1.0 -2.133769068633316e-12
  outer loop
    vertex -189.54479748471476 34.628645794488236 3.499999999999998
    vertex -188.5823924308337 34.62864579448445 2.8999999999999972
    vertex -188.51531165054737 34.62864579448392 2.9674539193838414
  endloop
endfacet
facet normal -5.305809036297159e-12 -1.0 -2.133769068633316e-12
  outer loop
    vertex -189.54479748471476 34.628645794488236 3.499999999999998
    vertex -188.51531165054737 34.62864579448392 2.9674539193838414
    vertex -188.4443698400605 34.62864579448343 3.030834688146249
  endloop
endfacet
facet normal -5.305809036297159e-12 -1.0 -2.133769068633316e-12
  outer loop
    vertex -189.54479748471476 34.628645794488236 3.499999999999998
    vertex -188.4443698400605 34.62864579448343 3.030834688146249
    vertex -188.36981391284905 34.628645794482914 3.089921709070686
  endloop
endfacet
facet normal -5.305809036297159e-12 -1.0 -2.133769068633316e-12
  outer loop
    vertex -189.54479748471476 34.628645794488236 3.499999999999998
    vertex -188.36981391284905 34.628645794482914 3.089921709070686
    vertex -188.2919033613482 34.62864579448236 3.1445093293605177
  endloop
endfacet
facet normal -5.305809036297159e-12 -1.0 -2.133769068633316e-12
  outer loop
    vertex -189.54479748471476 34.628645794488236 3.499999999999998
    vertex -188.2919033613482 34.62864579448236 3.1445093293605177
    vertex -188.2109093537866 34.62864579448182 3.194407556415022
  endloop
endfacet
facet normal -5.305809036297159e-12 -1.0 -2.133769068633316e-12
  outer loop
    vertex -189.54479748471476 34.628645794488236 3.499999999999998
    vertex -188.2109093537866 34.62864579448182 3.194407556415022
    vertex -188.12711379038367 34.62864579448126 3.239442719099985
  endloop
endfacet
facet normal -5.305809036297159e-12 -1.0 -2.133769068633316e-12
  outer loop
    vertex -189.54479748471476 34.628645794488236 3.499999999999998
    vertex -188.12711379038367 34.62864579448126 3.239442719099985
    vertex -188.040808322194 34.62864579448071 3.2794580722113356
  endloop
endfacet
facet normal -5.305809036297159e-12 -1.0 -2.133769068633316e-12
  outer loop
    vertex -189.54479748471476 34.628645794488236 3.499999999999998
    vertex -188.040808322194 34.62864579448071 3.2794580722113356
    vertex -187.9522933360134 34.62864579448019 3.3143143420279193
  endloop
endfacet
facet normal -5.305809036297159e-12 -1.0 -2.133769068633316e-12
  outer loop
    vertex -189.54479748471476 34.628645794488236 3.499999999999998
    vertex -187.9522933360134 34.62864579448019 3.3143143420279193
    vertex -187.86187690888104 34.6286457944796 3.3438902110546924
  endloop
endfacet
facet normal -5.305809036297159e-12 -1.0 -2.133769068633316e-12
  outer loop
    vertex -189.54479748471476 34.628645794488236 3.499999999999998
    vertex -187.86187690888104 34.6286457944796 3.3438902110546924
    vertex -187.76987373581466 34.628645794479105 3.368082740269128
  endloop
endfacet
facet normal -5.305809036297159e-12 -1.0 -2.133769068633316e-12
  outer loop
    vertex -189.54479748471476 34.628645794488236 3.499999999999998
    vertex -187.76987373581466 34.628645794479105 3.368082740269128
    vertex -187.6766040345126 34.628645794478544 3.386807727401198
  endloop
endfacet
facet normal -5.305809036297159e-12 -1.0 -2.133769068633316e-12
  outer loop
    vertex -189.54479748471476 34.628645794488236 3.499999999999998
    vertex -187.6766040345126 34.628645794478544 3.386807727401198
    vertex -187.58239243083375 34.62864579447807 3.399999999999996
  endloop
endfacet
facet normal -5.305809036297159e-12 -1.0 -2.133769068633316e-12
  outer loop
    vertex -189.54479748471476 34.628645794488236 3.499999999999998
    vertex -187.58239243083375 34.62864579447807 3.399999999999996
    vertex -187.58239243083375 34.628645794477855 3.4999999999999956
  endloop
endfacet
facet normal -5.305809036297159e-12 -1.0 -2.133769068633316e-12
  outer loop
    vertex -189.54479748471476 34.628645794488236 3.499999999999998
    vertex -187.58239243083375 34.628645794477855 3.4999999999999956
    vertex -187.73910108543373 34.62864579447854 3.560536661873192
  endloop
endfacet
facet normal -5.305809036297159e-12 -1.0 -2.133769068633316e-12
  outer loop
    vertex -189.54479748471476 34.628645794488236 3.499999999999998
    vertex -187.73910108543373 34.62864579447854 3.560536661873192
    vertex -189.38808883011484 34.628645794487326 3.5605366618731926
  endloop
endfacet
facet normal -5.305809036297159e-12 -1.0 -2.133769068633316e-12
  outer loop
    vertex -189.38808883011484 34.628645794487326 3.5605366618731926
    vertex -187.73910108543373 34.62864579447854 3.560536661873192
    vertex -187.8995123421624 34.628645794479304 3.61044175752462
  endloop
endfacet
facet normal -5.305809036297159e-12 -1.0 -2.133769068633316e-12
  outer loop
    vertex -189.38808883011484 34.628645794487326 3.5605366618731926
    vertex -187.8995123421624 34.628645794479304 3.61044175752462
    vertex -189.22767757338602 34.62864579448632 3.610441757524618
  endloop
endfacet
facet normal -5.305809036297159e-12 -1.0 -2.133769068633316e-12
  outer loop
    vertex -189.22767757338602 34.62864579448632 3.610441757524618
    vertex -187.8995123421624 34.628645794479304 3.61044175752462
    vertex -189.06428408259984 34.628645794485365 3.6494911752663746
  endloop
endfacet
facet normal -5.305809036297159e-12 -1.0 -2.133769068633316e-12
  outer loop
    vertex -189.06428408259984 34.628645794485365 3.6494911752663746
    vertex -187.8995123421624 34.628645794479304 3.61044175752462
    vertex -188.06290583294864 34.628645794480065 3.649491175266376
  endloop
endfacet
facet normal -5.305809036297159e-12 -1.0 -2.133769068633316e-12
  outer loop
    vertex -189.06428408259984 34.628645794485365 3.6494911752663746
    vertex -188.06290583294864 34.628645794480065 3.649491175266376
    vertex -188.8986421183178 34.62864579448447 3.6775095536287035
  endloop
endfacet
facet normal -5.305809036297159e-12 -1.0 -2.133769068633316e-12
  outer loop
    vertex -188.8986421183178 34.62864579448447 3.6775095536287035
    vertex -188.06290583294864 34.628645794480065 3.649491175266376
    vertex -188.22854779723076 34.62864579448089 3.6775095536287017
  endloop
endfacet
facet normal -5.305809036297159e-12 -1.0 -2.133769068633316e-12
  outer loop
    vertex -188.8986421183178 34.62864579448447 3.6775095536287035
    vertex -188.22854779723076 34.62864579448089 3.6775095536287017
    vertex -188.39569437709753 34.62864579448176 3.6943710688658475
  endloop
endfacet
facet normal -5.305809036297159e-12 -1.0 -2.133769068633316e-12
  outer loop
    vertex -188.8986421183178 34.62864579448447 3.6775095536287035
    vertex -188.39569437709753 34.62864579448176 3.6943710688658475
    vertex -188.7314955384509 34.628645794483546 3.6943710688658453
  endloop
endfacet
facet normal -5.305809036297159e-12 -1.0 -2.133769068633316e-12
  outer loop
    vertex -188.7314955384509 34.628645794483546 3.6943710688658453
    vertex -188.39569437709753 34.62864579448176 3.6943710688658475
    vertex -188.56359495777428 34.62864579448262 3.6999999999999975
  endloop
endfacet
facet normal -5.305809036297159e-12 -1.0 -2.133769068633316e-12
  outer loop
    vertex -193.45784096297552 34.62864579450896 3.4999999999999964
    vertex -196.00131922384512 34.62864579452785 1.0000000000000002
    vertex -194.00131922384512 34.62864579451721 1.0000000000000002
  endloop
endfacet
facet normal -5.305809036297159e-12 -1.0 -2.133769068633316e-12
  outer loop
    vertex -196.00131922384512 34.62864579452785 1.0000000000000002
    vertex -193.45784096297552 34.62864579450896 3.4999999999999964
    vertex -194.4202460168565 34.62864579451538 2.899999999999996
  endloop
endfacet
facet normal -5.305809036297159e-12 -1.0 -2.133769068633316e-12
  outer loop
    vertex -194.4202460168565 34.62864579451538 2.899999999999996
    vertex -193.45784096297552 34.62864579450896 3.4999999999999964
    vertex -194.4873267971429 34.62864579451559 2.9674539193838414
  endloop
endfacet
facet normal -5.305809036297159e-12 -1.0 -2.133769068633316e-12
  outer loop
    vertex -194.4873267971429 34.62864579451559 2.9674539193838414
    vertex -193.45784096297552 34.62864579450896 3.4999999999999964
    vertex -194.5582686076298 34.628645794515855 3.030834688146249
  endloop
endfacet
facet normal -5.305809036297159e-12 -1.0 -2.133769068633316e-12
  outer loop
    vertex -194.5582686076298 34.628645794515855 3.030834688146249
    vertex -193.45784096297552 34.62864579450896 3.4999999999999964
    vertex -194.6328245348412 34.6286457945161 3.089921709070685
  endloop
endfacet
facet normal -5.305809036297159e-12 -1.0 -2.133769068633316e-12
  outer loop
    vertex -194.6328245348412 34.6286457945161 3.089921709070685
    vertex -193.45784096297552 34.62864579450896 3.4999999999999964
    vertex -194.710735086342 34.6286457945164 3.144509329360517
  endloop
endfacet
facet normal -5.305809036297159e-12 -1.0 -2.133769068633316e-12
  outer loop
    vertex -194.710735086342 34.6286457945164 3.144509329360517
    vertex -193.45784096297552 34.62864579450896 3.4999999999999964
    vertex -194.79172909390365 34.62864579451674 3.1944075564150203
  endloop
endfacet
facet normal -5.305809036297159e-12 -1.0 -2.133769068633316e-12
  outer loop
    vertex -194.79172909390365 34.62864579451674 3.1944075564150203
    vertex -193.45784096297552 34.62864579450896 3.4999999999999964
    vertex -194.8755246573065 34.62864579451705 3.2394427190999835
  endloop
endfacet
facet normal -5.305809036297159e-12 -1.0 -2.133769068633316e-12
  outer loop
    vertex -194.8755246573065 34.62864579451705 3.2394427190999835
    vertex -193.45784096297552 34.62864579450896 3.4999999999999964
    vertex -194.96183012549625 34.62864579451743 3.2794580722113342
  endloop
endfacet
facet normal -5.305809036297159e-12 -1.0 -2.133769068633316e-12
  outer loop
    vertex -194.96183012549625 34.62864579451743 3.2794580722113342
    vertex -193.45784096297552 34.62864579450896 3.4999999999999964
    vertex -195.05034511167676 34.628645794517844 3.3143143420279184
  endloop
endfacet
facet normal -5.305809036297159e-12 -1.0 -2.133769068633316e-12
  outer loop
    vertex -195.05034511167676 34.628645794517844 3.3143143420279184
    vertex -193.45784096297552 34.62864579450896 3.4999999999999964
    vertex -195.14076153880922 34.62864579451824 3.343890211054691
  endloop
endfacet
facet normal -5.305809036297159e-12 -1.0 -2.133769068633316e-12
  outer loop
    vertex -195.14076153880922 34.62864579451824 3.343890211054691
    vertex -193.45784096297552 34.62864579450896 3.4999999999999964
    vertex -195.23276471187552 34.6286457945187 3.3680827402691267
  endloop
endfacet
facet normal -5.305809036297159e-12 -1.0 -2.133769068633316e-12
  outer loop
    vertex -195.23276471187552 34.6286457945187 3.3680827402691267
    vertex -193.45784096297552 34.62864579450896 3.4999999999999964
    vertex -195.3260344131777 34.62864579451913 3.3868077274011963
  endloop
endfacet
facet normal -5.305809036297159e-12 -1.0 -2.133769068633316e-12
  outer loop
    vertex -195.3260344131777 34.62864579451913 3.3868077274011963
    vertex -193.45784096297552 34.62864579450896 3.4999999999999964
    vertex -195.4202460168565 34.62864579451965 3.3999999999999946
  endloop
endfacet
facet normal -5.305809036297159e-12 -1.0 -2.133769068633316e-12
  outer loop
    vertex -195.4202460168565 34.62864579451965 3.3999999999999946
    vertex -193.45784096297552 34.62864579450896 3.4999999999999964
    vertex -195.42024601685657 34.628645794519436 3.4999999999999942
  endloop
endfacet
facet normal -5.305809036297159e-12 -1.0 -2.133769068633316e-12
  outer loop
    vertex -195.42024601685657 34.628645794519436 3.4999999999999942
    vertex -193.45784096297552 34.62864579450896 3.4999999999999964
    vertex -195.26353736225656 34.62864579451848 3.560536661873191
  endloop
endfacet
facet normal -5.305809036297159e-12 -1.0 -2.133769068633316e-12
  outer loop
    vertex -195.26353736225656 34.62864579451848 3.560536661873191
    vertex -193.45784096297552 34.62864579450896 3.4999999999999964
    vertex -193.61454961757542 34.628645794509715 3.56053666187319
  endloop
endfacet
facet normal -5.305809036297159e-12 -1.0 -2.133769068633316e-12
  outer loop
    vertex -195.26353736225656 34.62864579451848 3.560536661873191
    vertex -193.61454961757542 34.628645794509715 3.56053666187319
    vertex -193.7749608743042 34.62864579451043 3.6104417575246166
  endloop
endfacet
facet normal -5.305809036297159e-12 -1.0 -2.133769068633316e-12
  outer loop
    vertex -195.26353736225656 34.62864579451848 3.560536661873191
    vertex -193.7749608743042 34.62864579451043 3.6104417575246166
    vertex -195.10312610552782 34.62864579451752 3.610441757524619
  endloop
endfacet
facet normal -5.305809036297159e-12 -1.0 -2.133769068633316e-12
  outer loop
    vertex -195.10312610552782 34.62864579451752 3.610441757524619
    vertex -193.7749608743042 34.62864579451043 3.6104417575246166
    vertex -193.93835436509042 34.6286457945112 3.6494911752663723
  endloop
endfacet
facet normal -5.305809036297159e-12 -1.0 -2.133769068633316e-12
  outer loop
    vertex -195.10312610552782 34.62864579451752 3.610441757524619
    vertex -193.93835436509042 34.6286457945112 3.6494911752663723
    vertex -194.9397326147416 34.62864579451652 3.6494911752663746
  endloop
endfacet
facet normal -5.305809036297159e-12 -1.0 -2.133769068633316e-12
  outer loop
    vertex -194.9397326147416 34.62864579451652 3.6494911752663746
    vertex -193.93835436509042 34.6286457945112 3.6494911752663723
    vertex -194.10399632937248 34.62864579451207 3.677509553628702
  endloop
endfacet
facet normal -5.305809036297159e-12 -1.0 -2.133769068633316e-12
  outer loop
    vertex -194.9397326147416 34.62864579451652 3.6494911752663746
    vertex -194.10399632937248 34.62864579451207 3.677509553628702
    vertex -194.7740906504595 34.628645794515585 3.6775095536287
  endloop
endfacet
facet normal -5.305809036297159e-12 -1.0 -2.133769068633316e-12
  outer loop
    vertex -194.7740906504595 34.628645794515585 3.6775095536287
    vertex -194.10399632937248 34.62864579451207 3.677509553628702
    vertex -194.60694407059273 34.6286457945147 3.6943710688658458
  endloop
endfacet
facet normal -5.305809036297159e-12 -1.0 -2.133769068633316e-12
  outer loop
    vertex -194.60694407059273 34.6286457945147 3.6943710688658458
    vertex -194.10399632937248 34.62864579451207 3.677509553628702
    vertex -194.2711429092394 34.62864579451292 3.694371068865844
  endloop
endfacet
facet normal -5.305809036297159e-12 -1.0 -2.133769068633316e-12
  outer loop
    vertex -194.60694407059273 34.6286457945147 3.6943710688658458
    vertex -194.2711429092394 34.62864579451292 3.694371068865844
    vertex -194.439043489916 34.62864579451377 3.699999999999996
  endloop
endfacet
facet normal -5.305809036297159e-12 -1.0 -2.133769068633316e-12
  outer loop
    vertex -185.62631922384514 34.62864579447271 1.0000000000000002
    vertex -191.5013192238452 34.628645794506085 0.0
    vertex -187.0013192238452 34.62864579448221 0.0
  endloop
endfacet
facet normal -5.305809036297159e-12 -1.0 -2.133769068633316e-12
  outer loop
    vertex -191.5013192238452 34.628645794506085 0.0
    vertex -185.62631922384514 34.62864579447271 1.0000000000000002
    vertex -196.0013192238452 34.62864579452997 0.0
  endloop
endfacet
facet normal -5.305809036297159e-12 -1.0 -2.133769068633316e-12
  outer loop
    vertex -196.0013192238452 34.62864579452997 0.0
    vertex -185.62631922384514 34.62864579447271 1.0000000000000002
    vertex -197.50131922384512 34.628645794535885 1.0000000000000002
  endloop
endfacet
facet normal -5.305809036297159e-12 -1.0 -2.133769068633316e-12
  outer loop
    vertex -197.50131922384512 34.628645794535885 1.0000000000000002
    vertex -185.62631922384514 34.62864579447271 1.0000000000000002
    vertex -194.00131922384512 34.62864579451721 1.0000000000000002
  endloop
endfacet
facet normal -5.305809036297159e-12 -1.0 -2.133769068633316e-12
  outer loop
    vertex -197.50131922384512 34.628645794535885 1.0000000000000002
    vertex -194.00131922384512 34.62864579451721 1.0000000000000002
    vertex -196.00131922384512 34.62864579452785 1.0000000000000002
  endloop
endfacet
facet normal 5.3060239116850186e-12 1.0 2.1559632252349204e-12
  outer loop
    vertex -194.4202460156436 263.22864579451533 2.900000000487954
    vertex -194.00131922263228 263.22864579451726 1.000000000487909
    vertex -196.00131922263228 263.2286457945279 1.000000000487909
  endloop
endfacet
facet normal 5.3060239116850186e-12 1.0 2.1559632252349204e-12
  outer loop
    vertex -194.00131922263228 263.22864579451726 1.000000000487909
    vertex -194.4202460156436 263.22864579451533 2.900000000487954
    vertex -193.4578409617626 263.22864579450896 3.500000000487954
  endloop
endfacet
facet normal 5.3060239116850186e-12 1.0 2.1559632252349204e-12
  outer loop
    vertex -193.4578409617626 263.22864579450896 3.500000000487954
    vertex -194.4202460156436 263.22864579451533 2.900000000487954
    vertex -194.48732679593002 263.22864579451556 2.9674539198717995
  endloop
endfacet
facet normal 5.3060239116850186e-12 1.0 2.1559632252349204e-12
  outer loop
    vertex -193.4578409617626 263.22864579450896 3.500000000487954
    vertex -194.48732679593002 263.22864579451556 2.9674539198717995
    vertex -194.5582686064169 263.22864579451584 3.030834688634207
  endloop
endfacet
facet normal 5.3060239116850186e-12 1.0 2.1559632252349204e-12
  outer loop
    vertex -193.4578409617626 263.22864579450896 3.500000000487954
    vertex -194.5582686064169 263.22864579451584 3.030834688634207
    vertex -194.63282453362834 263.22864579451607 3.0899217095586433
  endloop
endfacet
facet normal 5.3060239116850186e-12 1.0 2.1559632252349204e-12
  outer loop
    vertex -193.4578409617626 263.22864579450896 3.500000000487954
    vertex -194.63282453362834 263.22864579451607 3.0899217095586433
    vertex -194.71073508512907 263.22864579451635 3.144509329848475
  endloop
endfacet
facet normal 5.3060239116850186e-12 1.0 2.1559632252349204e-12
  outer loop
    vertex -193.4578409617626 263.22864579450896 3.500000000487954
    vertex -194.71073508512907 263.22864579451635 3.144509329848475
    vertex -194.79172909269076 263.2286457945167 3.1944075569029784
  endloop
endfacet
facet normal 5.3060239116850186e-12 1.0 2.1559632252349204e-12
  outer loop
    vertex -193.4578409617626 263.22864579450896 3.500000000487954
    vertex -194.79172909269076 263.2286457945167 3.1944075569029784
    vertex -194.87552465609363 263.22864579451704 3.239442719587941
  endloop
endfacet
facet normal 5.3060239116850186e-12 1.0 2.1559632252349204e-12
  outer loop
    vertex -193.4578409617626 263.22864579450896 3.500000000487954
    vertex -194.87552465609363 263.22864579451704 3.239442719587941
    vertex -194.96183012428338 263.22864579451743 3.279458072699292
  endloop
endfacet
facet normal 5.3060239116850186e-12 1.0 2.1559632252349204e-12
  outer loop
    vertex -193.4578409617626 263.22864579450896 3.500000000487954
    vertex -194.96183012428338 263.22864579451743 3.279458072699292
    vertex -195.05034511046387 263.2286457945178 3.3143143425158765
  endloop
endfacet
facet normal 5.3060239116850186e-12 1.0 2.1559632252349204e-12
  outer loop
    vertex -193.4578409617626 263.22864579450896 3.500000000487954
    vertex -195.05034511046387 263.2286457945178 3.3143143425158765
    vertex -195.14076153759632 263.22864579451823 3.3438902115426488
  endloop
endfacet
facet normal 5.3060239116850186e-12 1.0 2.1559632252349204e-12
  outer loop
    vertex -193.4578409617626 263.22864579450896 3.500000000487954
    vertex -195.14076153759632 263.22864579451823 3.3438902115426488
    vertex -195.23276471066262 263.2286457945186 3.3680827407570844
  endloop
endfacet
facet normal 5.3060239116850186e-12 1.0 2.1559632252349204e-12
  outer loop
    vertex -193.4578409617626 263.22864579450896 3.500000000487954
    vertex -195.23276471066262 263.2286457945186 3.3680827407570844
    vertex -195.3260344119648 263.22864579451914 3.3868077278891544
  endloop
endfacet
facet normal 5.3060239116850186e-12 1.0 2.1559632252349204e-12
  outer loop
    vertex -193.4578409617626 263.22864579450896 3.500000000487954
    vertex -195.3260344119648 263.22864579451914 3.3868077278891544
    vertex -195.42024601564358 263.22864579451965 3.4000000004879523
  endloop
endfacet
facet normal 5.3060239116850186e-12 1.0 2.1559632252349204e-12
  outer loop
    vertex -193.4578409617626 263.22864579450896 3.500000000487954
    vertex -195.42024601564358 263.22864579451965 3.4000000004879523
    vertex -195.42024601564364 263.2286457945194 3.5000000004879523
  endloop
endfacet
facet normal 5.3060239116850186e-12 1.0 2.1559632252349204e-12
  outer loop
    vertex -193.4578409617626 263.22864579450896 3.500000000487954
    vertex -195.42024601564364 263.2286457945194 3.5000000004879523
    vertex -195.26353736104363 263.22864579451846 3.5605366623611485
  endloop
endfacet
facet normal 5.3060239116850186e-12 1.0 2.1559632252349204e-12
  outer loop
    vertex -193.4578409617626 263.22864579450896 3.500000000487954
    vertex -195.26353736104363 263.22864579451846 3.5605366623611485
    vertex -193.61454961636252 263.22864579450965 3.5605366623611476
  endloop
endfacet
facet normal 5.3060239116850186e-12 1.0 2.1559632252349204e-12
  outer loop
    vertex -193.61454961636252 263.22864579450965 3.5605366623611476
    vertex -195.26353736104363 263.22864579451846 3.5605366623611485
    vertex -193.77496087309135 263.2286457945104 3.6104417580125743
  endloop
endfacet
facet normal 5.3060239116850186e-12 1.0 2.1559632252349204e-12
  outer loop
    vertex -193.77496087309135 263.2286457945104 3.6104417580125743
    vertex -195.26353736104363 263.22864579451846 3.5605366623611485
    vertex -195.10312610431495 263.2286457945175 3.6104417580125765
  endloop
endfacet
facet normal 5.3060239116850186e-12 1.0 2.1559632252349204e-12
  outer loop
    vertex -193.77496087309135 263.2286457945104 3.6104417580125743
    vertex -195.10312610431495 263.2286457945175 3.6104417580125765
    vertex -193.93835436387752 263.2286457945112 3.64949117575433
  endloop
endfacet
facet normal 5.3060239116850186e-12 1.0 2.1559632252349204e-12
  outer loop
    vertex -193.93835436387752 263.2286457945112 3.64949117575433
    vertex -195.10312610431495 263.2286457945175 3.6104417580125765
    vertex -194.93973261352872 263.2286457945165 3.6494911757543322
  endloop
endfacet
facet normal 5.3060239116850186e-12 1.0 2.1559632252349204e-12
  outer loop
    vertex -193.93835436387752 263.2286457945112 3.64949117575433
    vertex -194.93973261352872 263.2286457945165 3.6494911757543322
    vertex -194.10399632815955 263.22864579451203 3.6775095541166603
  endloop
endfacet
facet normal 5.3060239116850186e-12 1.0 2.1559632252349204e-12
  outer loop
    vertex -194.10399632815955 263.22864579451203 3.6775095541166603
    vertex -194.93973261352872 263.2286457945165 3.6494911757543322
    vertex -194.77409064924657 263.22864579451556 3.677509554116658
  endloop
endfacet
facet normal 5.3060239116850186e-12 1.0 2.1559632252349204e-12
  outer loop
    vertex -194.10399632815955 263.22864579451203 3.6775095541166603
    vertex -194.77409064924657 263.22864579451556 3.677509554116658
    vertex -194.60694406937984 263.22864579451465 3.694371069353804
  endloop
endfacet
facet normal 5.3060239116850186e-12 1.0 2.1559632252349204e-12
  outer loop
    vertex -194.10399632815955 263.22864579451203 3.6775095541166603
    vertex -194.60694406937984 263.22864579451465 3.694371069353804
    vertex -194.2711429080265 263.2286457945129 3.6943710693538017
  endloop
endfacet
facet normal 5.3060239116850186e-12 1.0 2.1559632252349204e-12
  outer loop
    vertex -194.2711429080265 263.2286457945129 3.6943710693538017
    vertex -194.60694406937984 263.22864579451465 3.694371069353804
    vertex -194.4390434887031 263.2286457945138 3.700000000487954
  endloop
endfacet
facet normal 5.3060239116850186e-12 1.0 2.1559632252349204e-12
  outer loop
    vertex -197.50131922263228 263.2286457945359 1.000000000487909
    vertex -187.0013192226323 263.22864579448225 4.879084858355754e-10
    vertex -196.0013192226323 263.22864579453 4.879084858355754e-10
  endloop
endfacet
facet normal 5.3060239116850186e-12 1.0 2.1559632252349204e-12
  outer loop
    vertex -187.0013192226323 263.22864579448225 4.879084858355754e-10
    vertex -197.50131922263228 263.2286457945359 1.000000000487909
    vertex -185.6263192226323 263.22864579447275 1.000000000487909
  endloop
endfacet
facet normal 5.3060239116850186e-12 1.0 2.1559632252349204e-12
  outer loop
    vertex -185.6263192226323 263.22864579447275 1.000000000487909
    vertex -197.50131922263228 263.2286457945359 1.000000000487909
    vertex -196.00131922263228 263.2286457945279 1.000000000487909
  endloop
endfacet
facet normal 5.3060239116850186e-12 1.0 2.1559632252349204e-12
  outer loop
    vertex -185.6263192226323 263.22864579447275 1.000000000487909
    vertex -196.00131922263228 263.2286457945279 1.000000000487909
    vertex -194.00131922263228 263.22864579451726 1.000000000487909
  endloop
endfacet
facet normal 5.3060239116850186e-12 1.0 2.1559632252349204e-12
  outer loop
    vertex -185.6263192226323 263.22864579447275 1.000000000487909
    vertex -194.00131922263228 263.22864579451726 1.000000000487909
    vertex -189.0013192226323 263.2286457944907 1.0000000004879108
  endloop
endfacet
facet normal 5.3060239116850186e-12 1.0 2.1559632252349204e-12
  outer loop
    vertex -185.6263192226323 263.22864579447275 1.000000000487909
    vertex -189.0013192226323 263.2286457944907 1.0000000004879108
    vertex -187.0013192226323 263.2286457944801 1.0000000004879108
  endloop
endfacet
facet normal 5.3060239116850186e-12 1.0 2.1559632252349204e-12
  outer loop
    vertex -187.0013192226323 263.2286457944801 1.0000000004879108
    vertex -189.0013192226323 263.2286457944907 1.0000000004879108
    vertex -189.5447974835019 263.2286457944882 3.5000000004879555
  endloop
endfacet
facet normal 5.3060239116850186e-12 1.0 2.1559632252349204e-12
  outer loop
    vertex -187.0013192226323 263.2286457944801 1.0000000004879108
    vertex -189.5447974835019 263.2286457944882 3.5000000004879555
    vertex -188.5823924296208 263.2286457944844 2.9000000004879554
  endloop
endfacet
facet normal 5.3060239116850186e-12 1.0 2.1559632252349204e-12
  outer loop
    vertex -188.5823924296208 263.2286457944844 2.9000000004879554
    vertex -189.5447974835019 263.2286457944882 3.5000000004879555
    vertex -188.51531164933445 263.2286457944839 2.9674539198717995
  endloop
endfacet
facet normal 5.3060239116850186e-12 1.0 2.1559632252349204e-12
  outer loop
    vertex -188.51531164933445 263.2286457944839 2.9674539198717995
    vertex -189.5447974835019 263.2286457944882 3.5000000004879555
    vertex -188.44436983884756 263.2286457944834 3.030834688634207
  endloop
endfacet
facet normal 5.3060239116850186e-12 1.0 2.1559632252349204e-12
  outer loop
    vertex -188.44436983884756 263.2286457944834 3.030834688634207
    vertex -189.5447974835019 263.2286457944882 3.5000000004879555
    vertex -188.36981391163616 263.2286457944829 3.0899217095586446
  endloop
endfacet
facet normal 5.3060239116850186e-12 1.0 2.1559632252349204e-12
  outer loop
    vertex -188.36981391163616 263.2286457944829 3.0899217095586446
    vertex -189.5447974835019 263.2286457944882 3.5000000004879555
    vertex -188.2919033601353 263.2286457944823 3.144509329848476
  endloop
endfacet
facet normal 5.3060239116850186e-12 1.0 2.1559632252349204e-12
  outer loop
    vertex -188.2919033601353 263.2286457944823 3.144509329848476
    vertex -189.5447974835019 263.2286457944882 3.5000000004879555
    vertex -188.21090935257374 263.2286457944818 3.1944075569029797
  endloop
endfacet
facet normal 5.3060239116850186e-12 1.0 2.1559632252349204e-12
  outer loop
    vertex -188.21090935257374 263.2286457944818 3.1944075569029797
    vertex -189.5447974835019 263.2286457944882 3.5000000004879555
    vertex -188.12711378917078 263.2286457944812 3.2394427195879425
  endloop
endfacet
facet normal 5.3060239116850186e-12 1.0 2.1559632252349204e-12
  outer loop
    vertex -188.12711378917078 263.2286457944812 3.2394427195879425
    vertex -189.5447974835019 263.2286457944882 3.5000000004879555
    vertex -188.0408083209811 263.2286457944807 3.2794580726992932
  endloop
endfacet
facet normal 5.3060239116850186e-12 1.0 2.1559632252349204e-12
  outer loop
    vertex -188.0408083209811 263.2286457944807 3.2794580726992932
    vertex -189.5447974835019 263.2286457944882 3.5000000004879555
    vertex -187.95229333480052 263.22864579448014 3.314314342515877
  endloop
endfacet
facet normal 5.3060239116850186e-12 1.0 2.1559632252349204e-12
  outer loop
    vertex -187.95229333480052 263.22864579448014 3.314314342515877
    vertex -189.5447974835019 263.2286457944882 3.5000000004879555
    vertex -187.86187690766818 263.2286457944796 3.34389021154265
  endloop
endfacet
facet normal 5.3060239116850186e-12 1.0 2.1559632252349204e-12
  outer loop
    vertex -187.86187690766818 263.2286457944796 3.34389021154265
    vertex -189.5447974835019 263.2286457944882 3.5000000004879555
    vertex -187.76987373460176 263.22864579447906 3.368082740757086
  endloop
endfacet
facet normal 5.3060239116850186e-12 1.0 2.1559632252349204e-12
  outer loop
    vertex -187.76987373460176 263.22864579447906 3.368082740757086
    vertex -189.5447974835019 263.2286457944882 3.5000000004879555
    vertex -187.67660403329972 263.22864579447855 3.3868077278891557
  endloop
endfacet
facet normal 5.3060239116850186e-12 1.0 2.1559632252349204e-12
  outer loop
    vertex -187.67660403329972 263.22864579447855 3.3868077278891557
    vertex -189.5447974835019 263.2286457944882 3.5000000004879555
    vertex -187.58239242962085 263.22864579447804 3.4000000004879536
  endloop
endfacet
facet normal 5.3060239116850186e-12 1.0 2.1559632252349204e-12
  outer loop
    vertex -187.58239242962085 263.22864579447804 3.4000000004879536
    vertex -189.5447974835019 263.2286457944882 3.5000000004879555
    vertex -187.58239242962085 263.2286457944778 3.5000000004879537
  endloop
endfacet
facet normal 5.3060239116850186e-12 1.0 2.1559632252349204e-12
  outer loop
    vertex -187.58239242962085 263.2286457944778 3.5000000004879537
    vertex -189.5447974835019 263.2286457944882 3.5000000004879555
    vertex -187.73910108422083 263.22864579447855 3.56053666236115
  endloop
endfacet
facet normal 5.3060239116850186e-12 1.0 2.1559632252349204e-12
  outer loop
    vertex -187.73910108422083 263.22864579447855 3.56053666236115
    vertex -189.5447974835019 263.2286457944882 3.5000000004879555
    vertex -189.38808882890194 263.2286457944873 3.5605366623611507
  endloop
endfacet
facet normal 5.3060239116850186e-12 1.0 2.1559632252349204e-12
  outer loop
    vertex -187.73910108422083 263.22864579447855 3.56053666236115
    vertex -189.38808882890194 263.2286457944873 3.5605366623611507
    vertex -187.89951234094954 263.2286457944793 3.610441758012578
  endloop
endfacet
facet normal 5.3060239116850186e-12 1.0 2.1559632252349204e-12
  outer loop
    vertex -187.89951234094954 263.2286457944793 3.610441758012578
    vertex -189.38808882890194 263.2286457944873 3.5605366623611507
    vertex -189.22767757217315 263.2286457944863 3.610441758012576
  endloop
endfacet
facet normal 5.3060239116850186e-12 1.0 2.1559632252349204e-12
  outer loop
    vertex -187.89951234094954 263.2286457944793 3.610441758012578
    vertex -189.22767757217315 263.2286457944863 3.610441758012576
    vertex -189.06428408138697 263.2286457944853 3.6494911757543322
  endloop
endfacet
facet normal 5.3060239116850186e-12 1.0 2.1559632252349204e-12
  outer loop
    vertex -187.89951234094954 263.2286457944793 3.610441758012578
    vertex -189.06428408138697 263.2286457944853 3.6494911757543322
    vertex -188.06290583173578 263.22864579448003 3.6494911757543336
  endloop
endfacet
facet normal 5.3060239116850186e-12 1.0 2.1559632252349204e-12
  outer loop
    vertex -188.06290583173578 263.22864579448003 3.6494911757543336
    vertex -189.06428408138697 263.2286457944853 3.6494911757543322
    vertex -188.89864211710488 263.22864579448446 3.6775095541166616
  endloop
endfacet
facet normal 5.3060239116850186e-12 1.0 2.1559632252349204e-12
  outer loop
    vertex -188.06290583173578 263.22864579448003 3.6494911757543336
    vertex -188.89864211710488 263.22864579448446 3.6775095541166616
    vertex -188.22854779601786 263.2286457944808 3.6775095541166594
  endloop
endfacet
facet normal 5.3060239116850186e-12 1.0 2.1559632252349204e-12
  outer loop
    vertex -188.22854779601786 263.2286457944808 3.6775095541166594
    vertex -188.89864211710488 263.22864579448446 3.6775095541166616
    vertex -188.39569437588466 263.22864579448174 3.694371069353805
  endloop
endfacet
facet normal 5.3060239116850186e-12 1.0 2.1559632252349204e-12
  outer loop
    vertex -188.39569437588466 263.22864579448174 3.694371069353805
    vertex -188.89864211710488 263.22864579448446 3.6775095541166616
    vertex -188.731495537238 263.22864579448355 3.694371069353803
  endloop
endfacet
facet normal 5.3060239116850186e-12 1.0 2.1559632252349204e-12
  outer loop
    vertex -188.39569437588466 263.22864579448174 3.694371069353805
    vertex -188.731495537238 263.22864579448355 3.694371069353803
    vertex -188.5635949565614 263.2286457944826 3.700000000487955
  endloop
endfacet
facet normal -0.5738166897753225 4.792758777392008e-12 -0.8189837645126377
  outer loop
    vertex -194.71073508512907 263.22864579451635 3.144509329848475
    vertex -194.6328245348412 34.6286457945161 3.089921709070685
    vertex -194.710735086342 34.6286457945164 3.144509329360517
  endloop
endfacet
facet normal -0.5738166897753225 4.792758777392008e-12 -0.8189837645126377
  outer loop
    vertex -194.6328245348412 34.6286457945161 3.089921709070685
    vertex -194.71073508512907 263.22864579451635 3.144509329848475
    vertex -194.63282453362834 263.22864579451607 3.0899217095586433
  endloop
endfacet
facet normal -1.0 5.305959629048011e-12 -4.5119463719626843e-13
  outer loop
    vertex -195.42024601564364 263.2286457945194 3.5000000004879523
    vertex -195.4202460168565 34.62864579451965 3.3999999999999946
    vertex -195.42024601685657 34.628645794519436 3.4999999999999942
  endloop
endfacet
facet normal -1.0 5.305959629048011e-12 -4.5119463719626843e-13
  outer loop
    vertex -195.4202460168565 34.62864579451965 3.3999999999999946
    vertex -195.42024601564364 263.2286457945194 3.5000000004879523
    vertex -195.42024601564358 263.22864579451965 3.4000000004879523
  endloop
endfacet
facet normal -0.31089699774498836 3.678336001441054e-12 -0.9504436105278171
  outer loop
    vertex -195.14076153759632 263.22864579451823 3.3438902115426488
    vertex -195.05034511167676 34.628645794517844 3.3143143420279184
    vertex -195.14076153880922 34.62864579451824 3.343890211054691
  endloop
endfacet
facet normal -0.31089699774498836 3.678336001441054e-12 -0.9504436105278171
  outer loop
    vertex -195.05034511167676 34.628645794517844 3.3143143420279184
    vertex -195.14076153759632 263.22864579451823 3.3438902115426488
    vertex -195.05034511046387 263.2286457945178 3.3143143425158765
  endloop
endfacet
facet normal -0.7090652519322173 5.2673679921513655e-12 -0.7051428709859451
  outer loop
    vertex -194.4873267971429 34.62864579451559 2.9674539193838414
    vertex -194.4202460156436 263.22864579451533 2.900000000487954
    vertex -194.4202460168565 34.62864579451538 2.899999999999996
  endloop
endfacet
facet normal -0.7090652519322173 5.2673679921513655e-12 -0.7051428709859451
  outer loop
    vertex -194.4202460156436 263.22864579451533 2.900000000487954
    vertex -194.4873267971429 34.62864579451559 2.9674539193838414
    vertex -194.48732679593002 263.22864579451556 2.9674539198717995
  endloop
endfacet
facet normal 0.6211136989577025 -1.6226095422913119e-12 -0.7837204686411351
  outer loop
    vertex -188.44436983884756 263.2286457944834 3.030834688634207
    vertex -188.36981391284905 34.628645794482914 3.089921709070686
    vertex -188.4443698400605 34.62864579448343 3.030834688146249
  endloop
endfacet
facet normal 0.6211136989577025 -1.6226095422913119e-12 -0.7837204686411351
  outer loop
    vertex -188.36981391284905 34.628645794482914 3.089921709070686
    vertex -188.44436983884756 263.2286457944834 3.030834688634207
    vertex -188.36981391163616 263.2286457944829 3.0899217095586446
  endloop
endfacet
facet normal 0.13867514562945366 1.3781508457906287e-12 -0.990337924137337
  outer loop
    vertex -187.67660403329972 263.22864579447855 3.3868077278891557
    vertex -187.58239243083375 34.62864579447807 3.399999999999996
    vertex -187.6766040345126 34.628645794478544 3.386807727401198
  endloop
endfacet
facet normal 0.13867514562945366 1.3781508457906287e-12 -0.990337924137337
  outer loop
    vertex -187.58239243083375 34.62864579447807 3.399999999999996
    vertex -187.67660403329972 263.22864579447855 3.3868077278891557
    vertex -187.58239242962085 263.22864579447804 3.4000000004879536
  endloop
endfacet
facet normal 0.2324440525750238 -3.3093829421894172e-12 0.972609768829462
  outer loop
    vertex -187.8995123421624 34.628645794479304 3.61044175752462
    vertex -188.06290583173578 263.22864579448003 3.6494911757543336
    vertex -188.06290583294864 34.628645794480065 3.649491175266376
  endloop
endfacet
facet normal 0.2324440525750238 -3.3093829421894172e-12 0.972609768829462
  outer loop
    vertex -188.06290583173578 263.22864579448003 3.6494911757543336
    vertex -187.8995123421624 34.628645794479304 3.61044175752462
    vertex -187.89951234094954 263.2286457944793 3.610441758012578
  endloop
endfacet
facet normal 0.10036920294688166 -2.6563187271445625e-12 0.994950261621056
  outer loop
    vertex -188.22854779723076 34.62864579448089 3.6775095536287017
    vertex -188.39569437588466 263.22864579448174 3.694371069353805
    vertex -188.39569437709753 34.62864579448176 3.6943710688658475
  endloop
endfacet
facet normal 0.10036920294688166 -2.6563187271445625e-12 0.994950261621056
  outer loop
    vertex -188.39569437588466 263.22864579448174 3.694371069353805
    vertex -188.22854779723076 34.62864579448089 3.6775095536287017
    vertex -188.22854779601786 263.2286457944808 3.6775095541166594
  endloop
endfacet
facet normal -0.10036920294678522 -1.5912399905427671e-12 0.9949502616210657
  outer loop
    vertex -188.7314955384509 34.628645794483546 3.6943710688658453
    vertex -188.89864211710488 263.22864579448446 3.6775095541166616
    vertex -188.8986421183178 34.62864579448447 3.6775095536287035
  endloop
endfacet
facet normal -0.10036920294678522 -1.5912399905427671e-12 0.9949502616210657
  outer loop
    vertex -188.89864211710488 263.22864579448446 3.6775095541166616
    vertex -188.7314955384509 34.628645794483546 3.6943710688658453
    vertex -188.731495537238 263.22864579448355 3.694371069353803
  endloop
endfacet
facet normal -0.16678111454034564 -1.219753585098835e-12 0.985993945129827
  outer loop
    vertex -188.8986421183178 34.62864579448447 3.6775095536287035
    vertex -189.06428408138697 263.2286457944853 3.6494911757543322
    vertex -189.06428408259984 34.628645794485365 3.6494911752663746
  endloop
endfacet
facet normal -0.16678111454034564 -1.219753585098835e-12 0.985993945129827
  outer loop
    vertex -189.06428408138697 263.2286457944853 3.6494911757543322
    vertex -188.8986421183178 34.62864579448447 3.6775095536287035
    vertex -188.89864211710488 263.22864579448446 3.6775095541166616
  endloop
endfacet
facet normal -0.768670777666625 2.7130498656250576e-12 0.6396446166125266
  outer loop
    vertex -194.4202460156436 263.22864579451533 2.900000000487954
    vertex -196.00131922384512 34.62864579452785 1.0000000000000002
    vertex -194.4202460168565 34.62864579451538 2.899999999999996
  endloop
endfacet
facet normal -0.768670777666625 2.7130498656250576e-12 0.6396446166125266
  outer loop
    vertex -196.00131922384512 34.62864579452785 1.0000000000000002
    vertex -194.4202460156436 263.22864579451533 2.900000000487954
    vertex -196.00131922263228 263.2286457945279 1.000000000487909
  endloop
endfacet
facet normal 0.5738166897749881 -1.2963892441542026e-12 -0.8189837645128718
  outer loop
    vertex -188.36981391163616 263.2286457944829 3.0899217095586446
    vertex -188.2919033613482 34.62864579448236 3.1445093293605177
    vertex -188.36981391284905 34.628645794482914 3.089921709070686
  endloop
endfacet
facet normal 0.5738166897749881 -1.2963892441542026e-12 -0.8189837645128718
  outer loop
    vertex -188.2919033613482 34.62864579448236 3.1445093293605177
    vertex -188.36981391163616 263.2286457944829 3.0899217095586446
    vertex -188.2919033601353 263.2286457944823 3.144509329848476
  endloop
endfacet
facet normal 0.47340272094942115 -6.315649032674799e-13 -0.8808461067619499
  outer loop
    vertex -188.21090935257374 263.2286457944818 3.1944075569029797
    vertex -188.12711379038367 34.62864579448126 3.239442719099985
    vertex -188.2109093537866 34.62864579448182 3.194407556415022
  endloop
endfacet
facet normal 0.47340272094942115 -6.315649032674799e-13 -0.8808461067619499
  outer loop
    vertex -188.12711379038367 34.62864579448126 3.239442719099985
    vertex -188.21090935257374 263.2286457944818 3.1944075569029797
    vertex -188.12711378917078 263.2286457944812 3.2394427195879425
  endloop
endfacet
facet normal 0.0335065575917193 -2.3111390065468854e-12 0.9994384976567358
  outer loop
    vertex -188.39569437709753 34.62864579448176 3.6943710688658475
    vertex -188.5635949565614 263.2286457944826 3.700000000487955
    vertex -188.56359495777428 34.62864579448262 3.6999999999999975
  endloop
endfacet
facet normal 0.0335065575917193 -2.3111390065468854e-12 0.9994384976567358
  outer loop
    vertex -188.5635949565614 263.2286457944826 3.700000000487955
    vertex -188.39569437709753 34.62864579448176 3.6943710688658475
    vertex -188.39569437588466 263.22864579448174 3.694371069353805
  endloop
endfacet
facet normal -0.033506557591755845 -1.9555805198171855e-12 0.9994384976567344
  outer loop
    vertex -188.56359495777428 34.62864579448262 3.6999999999999975
    vertex -188.731495537238 263.22864579448355 3.694371069353803
    vertex -188.7314955384509 34.628645794483546 3.6943710688658453
  endloop
endfacet
facet normal -0.033506557591755845 -1.9555805198171855e-12 0.9994384976567344
  outer loop
    vertex -188.731495537238 263.22864579448355 3.694371069353803
    vertex -188.56359495777428 34.62864579448262 3.6999999999999975
    vertex -188.5635949565614 263.2286457944826 3.700000000487955
  endloop
endfacet
facet normal -0.4206352528396596 4.168321675679406e-12 -0.9072298408168217
  outer loop
    vertex -194.96183012428338 263.22864579451743 3.279458072699292
    vertex -194.8755246573065 34.62864579451705 3.2394427190999835
    vertex -194.96183012549625 34.62864579451743 3.2794580722113342
  endloop
endfacet
facet normal -0.4206352528396596 4.168321675679406e-12 -0.9072298408168217
  outer loop
    vertex -194.8755246573065 34.62864579451705 3.2394427190999835
    vertex -194.96183012428338 263.22864579451743 3.279458072699292
    vertex -194.87552465609363 263.22864579451704 3.239442719587941
  endloop
endfacet
facet normal -0.23244405257511885 -8.428015888739904e-13 0.9726097688294394
  outer loop
    vertex -189.06428408259984 34.628645794485365 3.6494911752663746
    vertex -189.22767757217315 263.2286457944863 3.610441758012576
    vertex -189.22767757338602 34.62864579448632 3.610441757524618
  endloop
endfacet
facet normal -0.23244405257511885 -8.428015888739904e-13 0.9726097688294394
  outer loop
    vertex -189.22767757217315 263.2286457944863 3.610441758012576
    vertex -189.06428408259984 34.628645794485365 3.6494911752663746
    vertex -189.06428408138697 263.2286457944853 3.6494911757543322
  endloop
endfacet
facet normal -0.9771763639227969 5.637974865372287e-12 -0.21242964433106235
  outer loop
    vertex -189.5447974835019 263.2286457944882 3.5000000004879555
    vertex -189.00131922384514 34.628645794490716 1.0000000000000018
    vertex -189.54479748471476 34.628645794488236 3.499999999999998
  endloop
endfacet
facet normal -0.9771763639227969 5.637974865372287e-12 -0.21242964433106235
  outer loop
    vertex -189.00131922384514 34.628645794490716 1.0000000000000018
    vertex -189.5447974835019 263.2286457944882 3.5000000004879555
    vertex -189.0013192226323 263.2286457944907 1.0000000004879108
  endloop
endfacet
facet normal 0.16678111454036437 -2.989586818074173e-12 0.9859939451298237
  outer loop
    vertex -193.93835436509042 34.6286457945112 3.6494911752663723
    vertex -194.10399632815955 263.22864579451203 3.6775095541166603
    vertex -194.10399632937248 34.62864579451207 3.677509553628702
  endloop
endfacet
facet normal 0.16678111454036437 -2.989586818074173e-12 0.9859939451298237
  outer loop
    vertex -194.10399632815955 263.22864579451203 3.6775095541166603
    vertex -193.93835436509042 34.6286457945112 3.6494911752663723
    vertex -193.93835436387752 263.2286457945112 3.64949117575433
  endloop
endfacet
facet normal -0.23244405257505418 -8.428015967781341e-13 0.9726097688294547
  outer loop
    vertex -194.9397326147416 34.62864579451652 3.6494911752663746
    vertex -195.10312610431495 263.2286457945175 3.6104417580125765
    vertex -195.10312610552782 34.62864579451752 3.610441757524619
  endloop
endfacet
facet normal -0.23244405257505418 -8.428015967781341e-13 0.9726097688294547
  outer loop
    vertex -195.10312610431495 263.2286457945175 3.6104417580125765
    vertex -194.9397326147416 34.62864579451652 3.6494911752663746
    vertex -194.93973261352872 263.2286457945165 3.6494911757543322
  endloop
endfacet
facet normal 0.36640376074018394 4.204577802959408e-14 -0.9304559549572726
  outer loop
    vertex -188.0408083209811 263.2286457944807 3.2794580726992932
    vertex -187.9522933360134 34.62864579448019 3.3143143420279193
    vertex -188.040808322194 34.62864579448071 3.2794580722113356
  endloop
endfacet
facet normal 0.36640376074018394 4.204577802959408e-14 -0.9304559549572726
  outer loop
    vertex -187.9522933360134 34.62864579448019 3.3143143420279193
    vertex -188.0408083209811 263.2286457944807 3.2794580726992932
    vertex -187.95229333480052 263.22864579448014 3.314314342515877
  endloop
endfacet
facet normal -0.2970631407124671 -4.620407934187598e-13 0.9548578378114958
  outer loop
    vertex -189.22767757338602 34.62864579448632 3.610441757524618
    vertex -189.38808882890194 263.2286457944873 3.5605366623611507
    vertex -189.38808883011484 34.628645794487326 3.5605366618731926
  endloop
endfacet
facet normal -0.2970631407124671 -4.620407934187598e-13 0.9548578378114958
  outer loop
    vertex -189.38808882890194 263.2286457944873 3.5605366623611507
    vertex -189.22767757338602 34.62864579448632 3.610441757524618
    vertex -189.22767757217315 263.2286457944863 3.610441758012576
  endloop
endfacet
facet normal -0.03350655759172228 -1.9555787844393935e-12 0.9994384976567355
  outer loop
    vertex -194.439043489916 34.62864579451377 3.699999999999996
    vertex -194.60694406937984 263.22864579451465 3.694371069353804
    vertex -194.60694407059273 34.6286457945147 3.6943710688658458
  endloop
endfacet
facet normal -0.03350655759172228 -1.9555787844393935e-12 0.9994384976567355
  outer loop
    vertex -194.60694406937984 263.22864579451465 3.694371069353804
    vertex -194.439043489916 34.62864579451377 3.699999999999996
    vertex -194.4390434887031 263.2286457945138 3.700000000487954
  endloop
endfacet
facet normal -0.3603481902913604 -7.921710630051895e-14 0.9328178716950815
  outer loop
    vertex -189.38808883011484 34.628645794487326 3.5605366618731926
    vertex -189.5447974835019 263.2286457944882 3.5000000004879555
    vertex -189.54479748471476 34.628645794488236 3.499999999999998
  endloop
endfacet
facet normal -0.3603481902913604 -7.921710630051895e-14 0.9328178716950815
  outer loop
    vertex -189.5447974835019 263.2286457944882 3.5000000004879555
    vertex -189.38808883011484 34.628645794487326 3.5605366618731926
    vertex -189.38808882890194 263.2286457944873 3.5605366623611507
  endloop
endfacet
facet normal 0.588171697675033 -1.3945509944854685e-12 -0.8087360843031983
  outer loop
    vertex -187.0013192226323 263.22864579448225 4.879084858355754e-10
    vertex -185.62631922384514 34.62864579447271 1.0000000000000002
    vertex -187.0013192238452 34.62864579448221 0.0
  endloop
endfacet
facet normal 0.588171697675033 -1.3945509944854685e-12 -0.8087360843031983
  outer loop
    vertex -185.62631922384514 34.62864579447271 1.0000000000000002
    vertex -187.0013192226323 263.22864579448225 4.879084858355754e-10
    vertex -185.6263192226323 263.22864579447275 1.000000000487909
  endloop
endfacet
facet normal -0.2543081555381295 3.4136903181725517e-12 -0.9671232403508844
  outer loop
    vertex -195.23276471066262 263.2286457945186 3.3680827407570844
    vertex -195.14076153880922 34.62864579451824 3.343890211054691
    vertex -195.23276471187552 34.6286457945187 3.3680827402691267
  endloop
endfacet
facet normal -0.2543081555381295 3.4136903181725517e-12 -0.9671232403508844
  outer loop
    vertex -195.14076153880922 34.62864579451824 3.343890211054691
    vertex -195.23276471066262 263.2286457945186 3.3680827407570844
    vertex -195.14076153759632 263.22864579451823 3.3438902115426488
  endloop
endfacet
facet normal 0.23244405257506429 -3.309394982502777e-12 0.9726097688294524
  outer loop
    vertex -193.7749608743042 34.62864579451043 3.6104417575246166
    vertex -193.93835436387752 263.2286457945112 3.64949117575433
    vertex -193.93835436509042 34.6286457945112 3.6494911752663723
  endloop
endfacet
facet normal 0.23244405257506429 -3.309394982502777e-12 0.9726097688294524
  outer loop
    vertex -193.93835436387752 263.2286457945112 3.64949117575433
    vertex -193.7749608743042 34.62864579451043 3.6104417575246166
    vertex -193.77496087309135 263.2286457945104 3.6104417580125743
  endloop
endfacet
facet normal -0.19683419198611285 3.1371734303223656e-12 -0.9804367908565926
  outer loop
    vertex -195.3260344119648 263.22864579451914 3.3868077278891544
    vertex -195.23276471187552 34.6286457945187 3.3680827402691267
    vertex -195.3260344131777 34.62864579451913 3.3868077274011963
  endloop
endfacet
facet normal -0.19683419198611285 3.1371734303223656e-12 -0.9804367908565926
  outer loop
    vertex -195.23276471187552 34.6286457945187 3.3680827402691267
    vertex -195.3260344119648 263.22864579451914 3.3868077278891544
    vertex -195.23276471066262 263.2286457945186 3.3680827407570844
  endloop
endfacet
facet normal -0.47340272094981667 4.391999684279398e-12 -0.8808461067617375
  outer loop
    vertex -194.87552465609363 263.22864579451704 3.239442719587941
    vertex -194.79172909390365 34.62864579451674 3.1944075564150203
    vertex -194.8755246573065 34.62864579451705 3.2394427190999835
  endloop
endfacet
facet normal -0.47340272094981667 4.391999684279398e-12 -0.8808461067617375
  outer loop
    vertex -194.79172909390365 34.62864579451674 3.1944075564150203
    vertex -194.87552465609363 263.22864579451704 3.239442719587941
    vertex -194.79172909269076 263.2286457945167 3.1944075569029784
  endloop
endfacet
facet normal -0.6211136989577342 4.968406185113706e-12 -0.7837204686411102
  outer loop
    vertex -194.63282453362834 263.22864579451607 3.0899217095586433
    vertex -194.5582686076298 34.628645794515855 3.030834688146249
    vertex -194.6328245348412 34.6286457945161 3.089921709070685
  endloop
endfacet
facet normal -0.6211136989577342 4.968406185113706e-12 -0.7837204686411102
  outer loop
    vertex -194.5582686076298 34.628645794515855 3.030834688146249
    vertex -194.63282453362834 263.22864579451607 3.0899217095586433
    vertex -194.5582686064169 263.22864579451584 3.030834688634207
  endloop
endfacet
facet normal 0.9771763639227957 -4.731186130682948e-12 -0.21242964433106798
  outer loop
    vertex -194.00131922384512 34.62864579451721 1.0000000000000002
    vertex -193.4578409617626 263.22864579450896 3.500000000487954
    vertex -193.45784096297552 34.62864579450896 3.4999999999999964
  endloop
endfacet
facet normal 0.9771763639227957 -4.731186130682948e-12 -0.21242964433106798
  outer loop
    vertex -193.4578409617626 263.22864579450896 3.500000000487954
    vertex -194.00131922384512 34.62864579451721 1.0000000000000002
    vertex -194.00131922263228 263.22864579451726 1.000000000487909
  endloop
endfacet
facet normal -0.36034819029120224 -7.916119520715619e-14 0.9328178716951427
  outer loop
    vertex -195.26353736225656 34.62864579451848 3.560536661873191
    vertex -195.42024601564364 263.2286457945194 3.5000000004879523
    vertex -195.42024601685657 34.628645794519436 3.4999999999999942
  endloop
endfacet
facet normal -0.36034819029120224 -7.916119520715619e-14 0.9328178716951427
  outer loop
    vertex -195.42024601564364 263.2286457945194 3.5000000004879523
    vertex -195.26353736225656 34.62864579451848 3.560536661873191
    vertex -195.26353736104363 263.22864579451846 3.5605366623611485
  endloop
endfacet
facet normal 0.7686707776666414 -5.443585613441427e-12 0.6396446166125067
  outer loop
    vertex -187.0013192226323 263.2286457944801 1.0000000004879108
    vertex -188.5823924308337 34.62864579448445 2.8999999999999972
    vertex -187.00131922384514 34.62864579448008 1.0000000000000018
  endloop
endfacet
facet normal 0.7686707776666414 -5.443585613441427e-12 0.6396446166125067
  outer loop
    vertex -188.5823924308337 34.62864579448445 2.8999999999999972
    vertex -187.0013192226323 263.2286457944801 1.0000000004879108
    vertex -188.5823924296208 263.2286457944844 2.9000000004879554
  endloop
endfacet
facet normal 0.310896997745252 3.792186253636247e-13 -0.9504436105277309
  outer loop
    vertex -187.95229333480052 263.22864579448014 3.314314342515877
    vertex -187.86187690888104 34.6286457944796 3.3438902110546924
    vertex -187.9522933360134 34.62864579448019 3.3143143420279193
  endloop
endfacet
facet normal 0.310896997745252 3.792186253636247e-13 -0.9504436105277309
  outer loop
    vertex -187.86187690888104 34.6286457944796 3.3438902110546924
    vertex -187.95229333480052 263.22864579448014 3.314314342515877
    vertex -187.86187690766818 263.2286457944796 3.34389021154265
  endloop
endfacet
facet normal 0.6662489174934872 -1.9432168075311564e-12 -0.7457294281029525
  outer loop
    vertex -188.51531164933445 263.2286457944839 2.9674539198717995
    vertex -188.4443698400605 34.62864579448343 3.030834688146249
    vertex -188.51531165054737 34.62864579448392 2.9674539193838414
  endloop
endfacet
facet normal 0.6662489174934872 -1.9432168075311564e-12 -0.7457294281029525
  outer loop
    vertex -188.4443698400605 34.62864579448343 3.030834688146249
    vertex -188.51531164933445 263.2286457944839 2.9674539198717995
    vertex -188.44436983884756 263.2286457944834 3.030834688634207
  endloop
endfacet
facet normal 0.5245225075217442 -9.65657528547366e-13 -0.8513965815664881
  outer loop
    vertex -188.2919033601353 263.2286457944823 3.144509329848476
    vertex -188.2109093537866 34.62864579448182 3.194407556415022
    vertex -188.2919033613482 34.62864579448236 3.1445093293605177
  endloop
endfacet
facet normal 0.5245225075217442 -9.65657528547366e-13 -0.8513965815664881
  outer loop
    vertex -188.2109093537866 34.62864579448182 3.194407556415022
    vertex -188.2919033601353 263.2286457944823 3.144509329848476
    vertex -188.21090935257374 263.2286457944818 3.1944075569029797
  endloop
endfacet
facet normal 0.2970631407125129 -3.6143740476038726e-12 0.9548578378114816
  outer loop
    vertex -193.61454961757542 34.628645794509715 3.56053666187319
    vertex -193.77496087309135 263.2286457945104 3.6104417580125743
    vertex -193.7749608743042 34.62864579451043 3.6104417575246166
  endloop
endfacet
facet normal 0.2970631407125129 -3.6143740476038726e-12 0.9548578378114816
  outer loop
    vertex -193.77496087309135 263.2286457945104 3.6104417580125743
    vertex -193.61454961757542 34.628645794509715 3.56053666187319
    vertex -193.61454961636252 263.22864579450965 3.5605366623611476
  endloop
endfacet
facet normal 0.033506557591752854 -2.311140738260948e-12 0.9994384976567346
  outer loop
    vertex -194.2711429092394 34.62864579451292 3.694371068865844
    vertex -194.4390434887031 263.2286457945138 3.700000000487954
    vertex -194.439043489916 34.62864579451377 3.699999999999996
  endloop
endfacet
facet normal 0.033506557591752854 -2.311140738260948e-12 0.9994384976567346
  outer loop
    vertex -194.4390434887031 263.2286457945138 3.700000000487954
    vertex -194.2711429092394 34.62864579451292 3.694371068865844
    vertex -194.2711429080265 263.2286457945129 3.6943710693538017
  endloop
endfacet
facet normal -0.6662489174934872 5.126825120578844e-12 -0.7457294281029525
  outer loop
    vertex -194.5582686064169 263.22864579451584 3.030834688634207
    vertex -194.4873267971429 34.62864579451559 2.9674539193838414
    vertex -194.5582686076298 34.628645794515855 3.030834688146249
  endloop
endfacet
facet normal -0.6662489174934872 5.126825120578844e-12 -0.7457294281029525
  outer loop
    vertex -194.4873267971429 34.62864579451559 2.9674539193838414
    vertex -194.5582686064169 263.22864579451584 3.030834688634207
    vertex -194.48732679593002 263.22864579451556 2.9674539198717995
  endloop
endfacet
facet normal -0.36640376074048686 3.93017922721863e-12 -0.9304559549571533
  outer loop
    vertex -195.05034511046387 263.2286457945178 3.3143143425158765
    vertex -194.96183012549625 34.62864579451743 3.2794580722113342
    vertex -195.05034511167676 34.628645794517844 3.3143143420279184
  endloop
endfacet
facet normal -0.36640376074048686 3.93017922721863e-12 -0.9304559549571533
  outer loop
    vertex -194.96183012549625 34.62864579451743 3.2794580722113342
    vertex -195.05034511046387 263.2286457945178 3.3143143425158765
    vertex -194.96183012428338 263.22864579451743 3.279458072699292
  endloop
endfacet
facet normal 0.4206352528399613 -2.952734158279847e-13 -0.9072298408166819
  outer loop
    vertex -188.12711378917078 263.2286457944812 3.2394427195879425
    vertex -188.040808322194 34.62864579448071 3.2794580722113356
    vertex -188.12711379038367 34.62864579448126 3.239442719099985
  endloop
endfacet
facet normal 0.4206352528399613 -2.952734158279847e-13 -0.9072298408166819
  outer loop
    vertex -188.040808322194 34.62864579448071 3.2794580722113356
    vertex -188.12711378917078 263.2286457944812 3.2394427195879425
    vertex -188.0408083209811 263.2286457944807 3.2794580726992932
  endloop
endfacet
facet normal 0.2543081555379157 7.150716109419308e-13 -0.9671232403509407
  outer loop
    vertex -187.86187690766818 263.2286457944796 3.34389021154265
    vertex -187.76987373581466 34.628645794479105 3.368082740269128
    vertex -187.86187690888104 34.6286457944796 3.3438902110546924
  endloop
endfacet
facet normal 0.2543081555379157 7.150716109419308e-13 -0.9671232403509407
  outer loop
    vertex -187.76987373581466 34.628645794479105 3.368082740269128
    vertex -187.86187690766818 263.2286457944796 3.34389021154265
    vertex -187.76987373460176 263.22864579447906 3.368082740757086
  endloop
endfacet
facet normal 0.36034819029129256 -3.903109830246661e-12 0.9328178716951077
  outer loop
    vertex -187.58239243083375 34.628645794477855 3.4999999999999956
    vertex -187.73910108422083 263.22864579447855 3.56053666236115
    vertex -187.73910108543373 34.62864579447854 3.560536661873192
  endloop
endfacet
facet normal 0.36034819029129256 -3.903109830246661e-12 0.9328178716951077
  outer loop
    vertex -187.73910108422083 263.22864579447855 3.56053666236115
    vertex -187.58239243083375 34.628645794477855 3.4999999999999956
    vertex -187.58239242962085 263.2286457944778 3.5000000004879537
  endloop
endfacet
facet normal 0.2970631407126856 -3.6143586919304993e-12 0.954857837811428
  outer loop
    vertex -187.73910108543373 34.62864579447854 3.560536661873192
    vertex -187.89951234094954 263.2286457944793 3.610441758012578
    vertex -187.8995123421624 34.628645794479304 3.61044175752462
  endloop
endfacet
facet normal 0.2970631407126856 -3.6143586919304993e-12 0.954857837811428
  outer loop
    vertex -187.89951234094954 263.2286457944793 3.610441758012578
    vertex -187.73910108543373 34.62864579447854 3.560536661873192
    vertex -187.73910108422083 263.22864579447855 3.56053666236115
  endloop
endfacet
facet normal 0.36034819029138326 -3.903128461744469e-12 0.9328178716950727
  outer loop
    vertex -193.45784096297552 34.62864579450896 3.4999999999999964
    vertex -193.61454961636252 263.22864579450965 3.5605366623611476
    vertex -193.61454961757542 34.628645794509715 3.56053666187319
  endloop
endfacet
facet normal 0.36034819029138326 -3.903128461744469e-12 0.9328178716950727
  outer loop
    vertex -193.61454961636252 263.22864579450965 3.5605366623611476
    vertex -193.45784096297552 34.62864579450896 3.4999999999999964
    vertex -193.4578409617626 263.22864579450896 3.500000000487954
  endloop
endfacet
facet normal -0.1003692029468906 -1.5912296120988114e-12 0.9949502616210552
  outer loop
    vertex -194.60694407059273 34.6286457945147 3.6943710688658458
    vertex -194.77409064924657 263.22864579451556 3.677509554116658
    vertex -194.7740906504595 34.628645794515585 3.6775095536287
  endloop
endfacet
facet normal -0.1003692029468906 -1.5912296120988114e-12 0.9949502616210552
  outer loop
    vertex -194.77409064924657 263.22864579451556 3.677509554116658
    vertex -194.60694407059273 34.6286457945147 3.6943710688658458
    vertex -194.60694406937984 263.22864579451465 3.694371069353804
  endloop
endfacet
facet normal -0.5245225075213532 4.600424461045195e-12 -0.851396581566729
  outer loop
    vertex -194.79172909269076 263.2286457945167 3.1944075569029784
    vertex -194.710735086342 34.6286457945164 3.144509329360517
    vertex -194.79172909390365 34.62864579451674 3.1944075564150203
  endloop
endfacet
facet normal -0.5245225075213532 4.600424461045195e-12 -0.851396581566729
  outer loop
    vertex -194.710735086342 34.6286457945164 3.144509329360517
    vertex -194.79172909269076 263.2286457945167 3.1944075569029784
    vertex -194.71073508512907 263.22864579451635 3.144509329848475
  endloop
endfacet
facet normal 0.7090652519325261 -2.256991884231609e-12 -0.7051428709856347
  outer loop
    vertex -188.5823924308337 34.62864579448445 2.8999999999999972
    vertex -188.51531164933445 263.2286457944839 2.9674539198717995
    vertex -188.51531165054737 34.62864579448392 2.9674539193838414
  endloop
endfacet
facet normal 0.7090652519325261 -2.256991884231609e-12 -0.7051428709856347
  outer loop
    vertex -188.51531164933445 263.2286457944839 2.9674539198717995
    vertex -188.5823924308337 34.62864579448445 2.8999999999999972
    vertex -188.5823924296208 263.2286457944844 2.9000000004879554
  endloop
endfacet
facet normal 0.19683419198631125 1.0484357713880235e-12 -0.980436790856553
  outer loop
    vertex -187.76987373460176 263.22864579447906 3.368082740757086
    vertex -187.6766040345126 34.628645794478544 3.386807727401198
    vertex -187.76987373581466 34.628645794479105 3.368082740269128
  endloop
endfacet
facet normal 0.19683419198631125 1.0484357713880235e-12 -0.980436790856553
  outer loop
    vertex -187.6766040345126 34.628645794478544 3.386807727401198
    vertex -187.76987373460176 263.22864579447906 3.368082740757086
    vertex -187.67660403329972 263.22864579447855 3.3868077278891557
  endloop
endfacet
facet normal -0.1386751456294754 2.8497316137022884e-12 -0.9903379241373339
  outer loop
    vertex -195.42024601564358 263.22864579451965 3.4000000004879523
    vertex -195.3260344131777 34.62864579451913 3.3868077274011963
    vertex -195.4202460168565 34.62864579451965 3.3999999999999946
  endloop
endfacet
facet normal -0.1386751456294754 2.8497316137022884e-12 -0.9903379241373339
  outer loop
    vertex -195.3260344131777 34.62864579451913 3.3868077274011963
    vertex -195.42024601564358 263.22864579451965 3.4000000004879523
    vertex -195.3260344119648 263.22864579451914 3.3868077278891544
  endloop
endfacet
facet normal 0.1667811145402737 -2.9895695796386624e-12 0.9859939451298391
  outer loop
    vertex -188.06290583294864 34.628645794480065 3.649491175266376
    vertex -188.22854779601786 263.2286457944808 3.6775095541166594
    vertex -188.22854779723076 34.62864579448089 3.6775095536287017
  endloop
endfacet
facet normal 0.1667811145402737 -2.9895695796386624e-12 0.9859939451298391
  outer loop
    vertex -188.22854779601786 263.2286457944808 3.6775095541166594
    vertex -188.06290583294864 34.628645794480065 3.649491175266376
    vertex -188.06290583173578 263.22864579448003 3.6494911757543336
  endloop
endfacet
facet normal -0.29706314071264756 -4.620254228053935e-13 0.9548578378114397
  outer loop
    vertex -195.10312610552782 34.62864579451752 3.610441757524619
    vertex -195.26353736104363 263.22864579451846 3.5605366623611485
    vertex -195.26353736225656 34.62864579451848 3.560536661873191
  endloop
endfacet
facet normal -0.29706314071264756 -4.620254228053935e-13 0.9548578378114397
  outer loop
    vertex -195.26353736104363 263.22864579451846 3.5605366623611485
    vertex -195.10312610552782 34.62864579451752 3.610441757524619
    vertex -195.10312610431495 263.2286457945175 3.6104417580125765
  endloop
endfacet
facet normal 1.0 -5.305856211011878e-12 -1.1869288516723437e-23
  outer loop
    vertex -187.58239243083375 34.62864579447807 3.399999999999996
    vertex -187.58239242962085 263.2286457944778 3.5000000004879537
    vertex -187.58239243083375 34.628645794477855 3.4999999999999956
  endloop
endfacet
facet normal 1.0 -5.305856211011878e-12 -1.1869288516723437e-23
  outer loop
    vertex -187.58239242962085 263.2286457944778 3.5000000004879537
    vertex -187.58239243083375 34.62864579447807 3.399999999999996
    vertex -187.58239242962085 263.22864579447804 3.4000000004879536
  endloop
endfacet
facet normal 0.10036920294677627 -2.65632910745413e-12 0.9949502616210666
  outer loop
    vertex -194.10399632937248 34.62864579451207 3.677509553628702
    vertex -194.2711429080265 263.2286457945129 3.6943710693538017
    vertex -194.2711429092394 34.62864579451292 3.694371068865844
  endloop
endfacet
facet normal 0.10036920294677627 -2.65632910745413e-12 0.9949502616210666
  outer loop
    vertex -194.2711429080265 263.2286457945129 3.6943710693538017
    vertex -194.10399632937248 34.62864579451207 3.677509553628702
    vertex -194.10399632815955 263.22864579451203 3.6775095541166603
  endloop
endfacet
facet normal -0.1667811145402737 -1.2197449654986556e-12 0.9859939451298391
  outer loop
    vertex -194.7740906504595 34.628645794515585 3.6775095536287
    vertex -194.93973261352872 263.2286457945165 3.6494911757543322
    vertex -194.9397326147416 34.62864579451652 3.6494911752663746
  endloop
endfacet
facet normal -0.1667811145402737 -1.2197449654986556e-12 0.9859939451298391
  outer loop
    vertex -194.93973261352872 263.2286457945165 3.6494911757543322
    vertex -194.7740906504595 34.628645794515585 3.6775095536287
    vertex -194.77409064924657 263.22864579451556 3.677509554116658
  endloop
endfacet
facet normal 1.1324782363496188e-23 2.134332297945292e-12 -1.0
  outer loop
    vertex -196.0013192226323 263.22864579453 4.879084858355754e-10
    vertex -191.5013192238452 34.628645794506085 0.0
    vertex -196.0013192238452 34.62864579452997 0.0
  endloop
endfacet
facet normal 1.1324782363496188e-23 2.134332297945292e-12 -1.0
  outer loop
    vertex -191.5013192238452 34.628645794506085 0.0
    vertex -196.0013192226323 263.22864579453 4.879084858355754e-10
    vertex -187.0013192226323 263.22864579448225 4.879084858355754e-10
  endloop
endfacet
facet normal 1.1324782363496188e-23 2.134332297945292e-12 -1.0
  outer loop
    vertex -191.5013192238452 34.628645794506085 0.0
    vertex -187.0013192226323 263.22864579448225 4.879084858355754e-10
    vertex -187.0013192238452 34.62864579448221 0.0
  endloop
endfacet
facet normal 1.1108958756377533e-15 -2.1343345184828415e-12 1.0
  outer loop
    vertex -185.62631922384514 34.62864579447271 1.0000000000000002
    vertex -187.0013192226323 263.2286457944801 1.0000000004879108
    vertex -187.00131922384514 34.62864579448008 1.0000000000000018
  endloop
endfacet
facet normal 1.1108958756377533e-15 -2.1343345184828415e-12 1.0
  outer loop
    vertex -187.0013192226323 263.2286457944801 1.0000000004879108
    vertex -185.62631922384514 34.62864579447271 1.0000000000000002
    vertex -185.6263192226323 263.22864579447275 1.000000000487909
  endloop
endfacet
facet normal -3.0549638025900714e-16 -2.1343345184828342e-12 1.0
  outer loop
    vertex -189.00131922384514 34.628645794490716 1.0000000000000018
    vertex -194.00131922263228 263.22864579451726 1.000000000487909
    vertex -194.00131922384512 34.62864579451721 1.0000000000000002
  endloop
endfacet
facet normal -3.0549638025900714e-16 -2.1343345184828342e-12 1.0
  outer loop
    vertex -194.00131922263228 263.22864579451726 1.000000000487909
    vertex -189.00131922384514 34.628645794490716 1.0000000000000018
    vertex -189.0013192226323 263.2286457944907 1.0000000004879108
  endloop
endfacet
facet normal -0.5547001962252474 4.71894575218794e-12 -0.8320502943378315
  outer loop
    vertex -197.50131922263228 263.2286457945359 1.000000000487909
    vertex -196.0013192238452 34.62864579452997 0.0
    vertex -197.50131922384512 34.628645794535885 1.0000000000000002
  endloop
endfacet
facet normal -0.5547001962252474 4.71894575218794e-12 -0.8320502943378315
  outer loop
    vertex -196.0013192238452 34.62864579452997 0.0
    vertex -197.50131922263228 263.2286457945359 1.000000000487909
    vertex -196.0013192226323 263.22864579453 4.879084858355754e-10
  endloop
endfacet
facet normal -1.1435508085286989e-23 -2.134333710529436e-12 1.0
  outer loop
    vertex -196.00131922384512 34.62864579452785 1.0000000000000002
    vertex -197.50131922263228 263.2286457945359 1.000000000487909
    vertex -197.50131922384512 34.628645794535885 1.0000000000000002
  endloop
endfacet
facet normal -1.1435508085286989e-23 -2.134333710529436e-12 1.0
  outer loop
    vertex -197.50131922263228 263.2286457945359 1.000000000487909
    vertex -196.00131922384512 34.62864579452785 1.0000000000000002
    vertex -196.00131922263228 263.2286457945279 1.000000000487909
  endloop
endfacet
endsolid v2
