  0
SECTION
  2
HEADER
  9
$ACADVER
  1
AC1024
  9
$ACADMAINTVER
 70
     6
  9
$DWGCODEPAGE
  3
ANSI_1252
  9
$INSBASE
 10
0.0
 20
0.0
 30
0.0
  9
$EXTMIN
 10
1.000000000000000E+20
 20
1.000000000000000E+20
 30
1.000000000000000E+20
  9
$EXTMAX
 10
-1.000000000000000E+20
 20
-1.000000000000000E+20
 30
-1.000000000000000E+20
  9
$LIMMIN
 10
0.0
 20
0.0
  9
$LIMMAX
 10
12.0
 20
9.0
  9
$ORTHOMODE
 70
     0
  9
$REGENMODE
 70
     1
  9
$FILLMODE
 70
     1
  9
$QTEXTMODE
 70
     0
  9
$MIRRTEXT
 70
     1
  9
$LTSCALE
 40
1.0
  9
$ATTMODE
 70
     1
  9
$TEXTSIZE
 40
0.2
  9
$TRACEWID
 40
0.05
  9
$TEXTSTYLE
  7
Standard
  9
$CLAYER
  8
0
  9
$CELTYPE
  6
ByLayer
  9
$CECOLOR
 62
   256
  9
$CELTSCALE
 40
1.0
  9
$DISPSILH
 70
     0
  9
$DIMSCALE
 40
1.0
  9
$DIMASZ
 40
0.18
  9
$DIMEXO
 40
0.0625
  9
$DIMDLI
 40
0.38
  9
$DIMRND
 40
0.0
  9
$DIMDLE
 40
0.0
  9
$DIMEXE
 40
0.18
  9
$DIMTP
 40
0.0
  9
$DIMTM
 40
0.0
  9
$DIMTXT
 40
0.18
  9
$DIMCEN
 40
0.09
  9
$DIMTSZ
 40
0.0
  9
$DIMTOL
 70
     0
  9
$DIMLIM
 70
     0
  9
$DIMTIH
 70
     1
  9
$DIMTOH
 70
     1
  9
$DIMSE1
 70
     0
  9
$DIMSE2
 70
     0
  9
$DIMTAD
 70
     0
  9
$DIMZIN
 70
     0
  9
$DIMBLK
  1

  9
$DIMASO
 70
     1
  9
$DIMSHO
 70
     1
  9
$DIMPOST
  1

  9
$DIMAPOST
  1

  9
$DIMALT
 70
     0
  9
$DIMALTD
 70
     2
  9
$DIMALTF
 40
25.4
  9
$DIMLFAC
 40
1.0
  9
$DIMTOFL
 70
     0
  9
$DIMTVP
 40
0.0
  9
$DIMTIX
 70
     0
  9
$DIMSOXD
 70
     0
  9
$DIMSAH
 70
     0
  9
$DIMBLK1
  1

  9
$DIMBLK2
  1

  9
$DIMSTYLE
  2
Standard
  9
$DIMCLRD
 70
     0
  9
$DIMCLRE
 70
     0
  9
$DIMCLRT
 70
     0
  9
$DIMTFAC
 40
1.0
  9
$DIMGAP
 40
0.09
  9
$DIMJUST
 70
     0
  9
$DIMSD1
 70
     0
  9
$DIMSD2
 70
     0
  9
$DIMTOLJ
 70
     1
  9
$DIMTZIN
 70
     0
  9
$DIMALTZ
 70
     0
  9
$DIMALTTZ
 70
     0
  9
$DIMUPT
 70
     0
  9
$DIMDEC
 70
     4
  9
$DIMTDEC
 70
     4
  9
$DIMALTU
 70
     2
  9
$DIMALTTD
 70
     2
  9
$DIMTXSTY
  7
Standard
  9
$DIMAUNIT
 70
     0
  9
$DIMADEC
 70
     0
  9
$DIMALTRND
 40
0.0
  9
$DIMAZIN
 70
     0
  9
$DIMDSEP
 70
    46
  9
$DIMATFIT
 70
     3
  9
$DIMFRAC
 70
     0
  9
$DIMLDRBLK
  1

  9
$DIMLUNIT
 70
     2
  9
$DIMLWD
 70
    -2
  9
$DIMLWE
 70
    -2
  9
$DIMTMOVE
 70
     0
  9
$DIMFXL
 40
1.0
  9
$DIMFXLON
 70
     0
  9
$DIMJOGANG
 40
0.7853981633974483
  9
$DIMTFILL
 70
     0
  9
$DIMTFILLCLR
 70
     0
  9
$DIMARCSYM
 70
     0
  9
$DIMLTYPE
  6

  9
$DIMLTEX1
  6

  9
$DIMLTEX2
  6

  9
$DIMTXTDIRECTION
 70
     0
  9
$LUNITS
 70
     2
  9
$LUPREC
 70
     4
  9
$SKETCHINC
 40
0.1
  9
$FILLETRAD
 40
0.5
  9
$AUNITS
 70
     0
  9
$AUPREC
 70
     0
  9
$MENU
  1
.
  9
$ELEVATION
 40
0.0
  9
$PELEVATION
 40
0.0
  9
$THICKNESS
 40
0.0
  9
$LIMCHECK
 70
     0
  9
$CHAMFERA
 40
0.5
  9
$CHAMFERB
 40
0.5
  9
$CHAMFERC
 40
1.0
  9
$CHAMFERD
 40
0.0
  9
$SKPOLY
 70
     0
  9
$TDCREATE
 40
2458634.674302141
  9
$TDUCREATE
 40
2458634.882635475
  9
$TDUPDATE
 40
2458634.674302685
  9
$TDUUPDATE
 40
2458634.882636019
  9
$TDINDWG
 40
0.0000000116
  9
$TDUSRTIMER
 40
0.0000000116
  9
$USRTIMER
 70
     1
  9
$ANGBASE
 50
0.0
  9
$ANGDIR
 70
     0
  9
$PDMODE
 70
     0
  9
$PDSIZE
 40
0.0
  9
$PLINEWID
 40
0.0
  9
$SPLFRAME
 70
     0
  9
$SPLINETYPE
 70
     6
  9
$SPLINESEGS
 70
     8
  9
$HANDSEED
  5
7C
  9
$SURFTAB1
 70
     6
  9
$SURFTAB2
 70
     6
  9
$SURFTYPE
 70
     6
  9
$SURFU
 70
     6
  9
$SURFV
 70
     6
  9
$UCSBASE
  2

  9
$UCSNAME
  2

  9
$UCSORG
 10
0.0
 20
0.0
 30
0.0
  9
$UCSXDIR
 10
1.0
 20
0.0
 30
0.0
  9
$UCSYDIR
 10
0.0
 20
1.0
 30
0.0
  9
$UCSORTHOREF
  2

  9
$UCSORTHOVIEW
 70
     0
  9
$UCSORGTOP
 10
0.0
 20
0.0
 30
0.0
  9
$UCSORGBOTTOM
 10
0.0
 20
0.0
 30
0.0
  9
$UCSORGLEFT
 10
0.0
 20
0.0
 30
0.0
  9
$UCSORGRIGHT
 10
0.0
 20
0.0
 30
0.0
  9
$UCSORGFRONT
 10
0.0
 20
0.0
 30
0.0
  9
$UCSORGBACK
 10
0.0
 20
0.0
 30
0.0
  9
$PUCSBASE
  2

  9
$PUCSNAME
  2

  9
$PUCSORG
 10
0.0
 20
0.0
 30
0.0
  9
$PUCSXDIR
 10
1.0
 20
0.0
 30
0.0
  9
$PUCSYDIR
 10
0.0
 20
1.0
 30
0.0
  9
$PUCSORTHOREF
  2

  9
$PUCSORTHOVIEW
 70
     0
  9
$PUCSORGTOP
 10
0.0
 20
0.0
 30
0.0
  9
$PUCSORGBOTTOM
 10
0.0
 20
0.0
 30
0.0
  9
$PUCSORGLEFT
 10
0.0
 20
0.0
 30
0.0
  9
$PUCSORGRIGHT
 10
0.0
 20
0.0
 30
0.0
  9
$PUCSORGFRONT
 10
0.0
 20
0.0
 30
0.0
  9
$PUCSORGBACK
 10
0.0
 20
0.0
 30
0.0
  9
$USERI1
 70
     0
  9
$USERI2
 70
     0
  9
$USERI3
 70
     0
  9
$USERI4
 70
     0
  9
$USERI5
 70
     0
  9
$USERR1
 40
0.0
  9
$USERR2
 40
0.0
  9
$USERR3
 40
0.0
  9
$USERR4
 40
0.0
  9
$USERR5
 40
0.0
  9
$WORLDVIEW
 70
     1
  9
$SHADEDGE
 70
     3
  9
$SHADEDIF
 70
    70
  9
$TILEMODE
 70
     1
  9
$MAXACTVP
 70
    64
  9
$PINSBASE
 10
0.0
 20
0.0
 30
0.0
  9
$PLIMCHECK
 70
     0
  9
$PEXTMIN
 10
1.000000000000000E+20
 20
1.000000000000000E+20
 30
1.000000000000000E+20
  9
$PEXTMAX
 10
-1.000000000000000E+20
 20
-1.000000000000000E+20
 30
-1.000000000000000E+20
  9
$PLIMMIN
 10
0.0
 20
0.0
  9
$PLIMMAX
 10
12.0
 20
9.0
  9
$UNITMODE
 70
     0
  9
$VISRETAIN
 70
     1
  9
$PLINEGEN
 70
     0
  9
$PSLTSCALE
 70
     1
  9
$TREEDEPTH
 70
  3020
  9
$CMLSTYLE
  2
Standard
  9
$CMLJUST
 70
     0
  9
$CMLSCALE
 40
1.0
  9
$PROXYGRAPHICS
 70
     1
  9
$MEASUREMENT
 70
     0
  9
$CELWEIGHT
370
    -1
  9
$ENDCAPS
280
     0
  9
$JOINSTYLE
280
     0
  9
$LWDISPLAY
290
     1
  9
$INSUNITS
 70
     1
  9
$HYPERLINKBASE
  1

  9
$STYLESHEET
  1

  9
$XEDIT
290
     1
  9
$CEPSNTYPE
380
     0
  9
$PSTYLEMODE
290
     1
  9
$FINGERPRINTGUID
  2
{E4A6D321-7C48-47F8-A43C-910EB2B391A5}
  9
$VERSIONGUID
  2
{FAEB1C32-E019-11D5-929B-00C0DF256EC4}
  9
$EXTNAMES
290
     1
  9
$PSVPSCALE
 40
0.0
  9
$OLESTARTUP
290
     0
  9
$SORTENTS
280
   127
  9
$INDEXCTL
280
     0
  9
$HIDETEXT
280
     1
  9
$XCLIPFRAME
280
     2
  9
$HALOGAP
280
     0
  9
$OBSCOLOR
 70
   257
  9
$OBSLTYPE
280
     0
  9
$INTERSECTIONDISPLAY
280
     0
  9
$INTERSECTIONCOLOR
 70
   257
  9
$DIMASSOC
280
     2
  9
$PROJECTNAME
  1

  9
$CAMERADISPLAY
290
     0
  9
$LENSLENGTH
 40
50.0
  9
$CAMERAHEIGHT
 40
0.0
  9
$STEPSPERSEC
 40
2.0
  9
$STEPSIZE
 40
6.0
  9
$3DDWFPREC
 40
2.0
  9
$PSOLWIDTH
 40
0.25
  9
$PSOLHEIGHT
 40
4.0
  9
$LOFTANG1
 40
1.570796326794897
  9
$LOFTANG2
 40
1.570796326794897
  9
$LOFTMAG1
 40
0.0
  9
$LOFTMAG2
 40
0.0
  9
$LOFTPARAM
 70
     7
  9
$LOFTNORMALS
280
     1
  9
$LATITUDE
 40
37.795
  9
$LONGITUDE
 40
-122.394
  9
$NORTHDIRECTION
 40
0.0
  9
$TIMEZONE
 70
 -8000
  9
$LIGHTGLYPHDISPLAY
280
     1
  9
$TILEMODELIGHTSYNCH
280
     1
  9
$CMATERIAL
347
3C
  9
$SOLIDHIST
280
     1
  9
$SHOWHIST
280
     1
  9
$DWFFRAME
280
     2
  9
$DGNFRAME
280
     2
  9
$REALWORLDSCALE
290
     1
  9
$INTERFERECOLOR
 62
   256
  9
$CSHADOW
280
     0
  9
$SHADOWPLANELOCATION
 40
0.0
  0
ENDSEC
  0
SECTION
  2
CLASSES
  0
CLASS
  1
ACDBDICTIONARYWDFLT
  2
AcDbDictionaryWithDefault
  3
ObjectDBX Classes
 90
        0
 91
        4
280
     0
281
     0
  0
CLASS
  1
VISUALSTYLE
  2
AcDbVisualStyle
  3
ObjectDBX Classes
 90
     4095
 91
        4
280
     0
281
     0
  0
CLASS
  1
MATERIAL
  2
AcDbMaterial
  3
ObjectDBX Classes
 90
     1153
 91
        4
280
     0
281
     0
  0
CLASS
  1
SUN
  2
AcDbSun
  3
SCENEOE
 90
     1024
 91
        4
280
     0
281
     0
  0
ENDSEC
  0
SECTION
  2
TABLES
  0
TABLE
  2
VPORT
  5
8
330
0
100
AcDbSymbolTable
 70
     1
  0
VPORT
  5
29
330
8
100
AcDbSymbolTableRecord
100
AcDbViewportTableRecord
  2
*Active
 70
     0
 10
0.0
 20
0.0
 11
1.0
 21
1.0
 12
0.0
 22
0.0
 13
0.0
 23
0.0
 14
0.5
 24
0.5
 15
0.5
 25
0.5
 16
0.0
 26
0.0
 36
1.0
 17
2.502018113655266
 27
-2.502994612179312
 37
0.0
 40
2.666137416944467
 41
0.9936725487282866
 42
50.0
 43
0.0
 44
0.0
 50
0.0
 51
0.0
 71
     0
 72
   100
 73
     1
 74
     3
 75
     0
 76
     0
 77
     0
 78
     0
281
     0
 65
     1
110
0.0
120
0.0
130
0.0
111
1.0
121
0.0
131
0.0
112
0.0
122
1.0
132
0.0
 79
     0
146
0.0
 60
     3
 61
     5
292
     1
282
     1
141
0.0
142
0.0
 63
   250
361
3F
  0
ENDTAB
  0
TABLE
  2
LTYPE
  5
5
330
0
100
AcDbSymbolTable
 70
     1
  0
LTYPE
  5
14
330
5
100
AcDbSymbolTableRecord
100
AcDbLinetypeTableRecord
  2
ByBlock
 70
     0
  3

 72
    65
 73
     0
 40
0.0
  0
LTYPE
  5
15
330
5
100
AcDbSymbolTableRecord
100
AcDbLinetypeTableRecord
  2
ByLayer
 70
     0
  3

 72
    65
 73
     0
 40
0.0
  0
LTYPE
  5
16
330
5
100
AcDbSymbolTableRecord
100
AcDbLinetypeTableRecord
  2
Continuous
 70
     0
  3
Solid line
 72
    65
 73
     0
 40
0.0
  0
ENDTAB
  0
TABLE
  2
LAYER
  5
2
330
0
100
AcDbSymbolTable
 70
     2
  0
LAYER
  5
10
330
2
100
AcDbSymbolTableRecord
100
AcDbLayerTableRecord
  2
0
 70
     0
 62
     7
  6
Continuous
370
    -3
390
F
347
3E
  0
LAYER
  5
40
330
2
100
AcDbSymbolTableRecord
100
AcDbLayerTableRecord
  2
Layer 1
 70
     0
 62
     7
  6
Continuous
370
    -3
390
F
347
3E
  0
ENDTAB
  0
TABLE
  2
STYLE
  5
3
330
0
100
AcDbSymbolTable
 70
     1
  0
STYLE
  5
11
330
3
100
AcDbSymbolTableRecord
100
AcDbTextStyleTableRecord
  2
Standard
 70
     0
 40
0.0
 41
1.0
 50
0.0
 71
     0
 42
0.2
  3
txt
  4

  0
ENDTAB
  0
TABLE
  2
VIEW
  5
6
330
0
100
AcDbSymbolTable
 70
     0
  0
ENDTAB
  0
TABLE
  2
UCS
  5
7
330
0
100
AcDbSymbolTable
 70
     0
  0
ENDTAB
  0
TABLE
  2
APPID
  5
9
330
0
100
AcDbSymbolTable
 70
     1
  0
APPID
  5
12
330
9
100
AcDbSymbolTableRecord
100
AcDbRegAppTableRecord
  2
ACAD
 70
     0
  0
ENDTAB
  0
TABLE
  2
DIMSTYLE
  5
A
330
0
100
AcDbSymbolTable
 70
     1
100
AcDbDimStyleTable
  0
DIMSTYLE
105
27
330
A
100
AcDbSymbolTableRecord
100
AcDbDimStyleTableRecord
  2
Standard
 70
     0
178
     0
340
11
  0
ENDTAB
  0
TABLE
  2
BLOCK_RECORD
  5
1
330
0
100
AcDbSymbolTable
 70
     4
  0
BLOCK_RECORD
  5
1F
330
1
100
AcDbSymbolTableRecord
100
AcDbBlockTableRecord
  2
*Model_Space
340
22
 70
     0
280
     1
281
     0
  0
BLOCK_RECORD
  5
1B
330
1
100
AcDbSymbolTableRecord
100
AcDbBlockTableRecord
  2
*Paper_Space
340
1E
 70
     0
280
     1
281
     0
  0
BLOCK_RECORD
  5
23
330
1
100
AcDbSymbolTableRecord
100
AcDbBlockTableRecord
  2
*Paper_Space0
340
26
 70
     0
280
     1
281
     0
  0
BLOCK_RECORD
  5
41
330
1
100
AcDbSymbolTableRecord
100
AcDbBlockTableRecord
  2
block 2
340
0
102
{BLKREFS
331
42
102
}
 70
     0
280
     1
281
     0
  0
BLOCK_RECORD
  5
45
330
1
100
AcDbSymbolTableRecord
100
AcDbBlockTableRecord
  2
block 3
340
0
102
{BLKREFS
331
46
102
}
 70
     0
280
     1
281
     0
  0
BLOCK_RECORD
  5
54
330
1
100
AcDbSymbolTableRecord
100
AcDbBlockTableRecord
  2
block 4
340
0
102
{BLKREFS
331
55
102
}
 70
     0
280
     1
281
     0
  0
ENDTAB
  0
ENDSEC
  0
SECTION
  2
BLOCKS
  0
BLOCK
  5
20
330
1F
100
AcDbEntity
  8
0
100
AcDbBlockBegin
  2
*Model_Space
 70
     0
 10
0.0
 20
0.0
 30
0.0
  3
*Model_Space
  1

  0
ENDBLK
  5
21
330
1F
100
AcDbEntity
  8
0
100
AcDbBlockEnd
  0
BLOCK
  5
1C
330
1B
100
AcDbEntity
 67
     1
  8
0
100
AcDbBlockBegin
  2
*Paper_Space
 70
     0
 10
0.0
 20
0.0
 30
0.0
  3
*Paper_Space
  1

  0
ENDBLK
  5
1D
330
1B
100
AcDbEntity
 67
     1
  8
0
100
AcDbBlockEnd
  0
BLOCK
  5
24
330
23
100
AcDbEntity
  8
0
100
AcDbBlockBegin
  2
*Paper_Space0
 70
     0
 10
0.0
 20
0.0
 30
0.0
  3
*Paper_Space0
  1

  0
ENDBLK
  5
25
330
23
100
AcDbEntity
  8
0
100
AcDbBlockEnd
  0
BLOCK
  5
43
330
41
100
AcDbEntity
  8
0
100
AcDbBlockBegin
  2
block 2
 70
     0
 10
0.0
 20
0.0
 30
0.0
  3
block 2
  1

  0
INSERT
  5
46
330
41
100
AcDbEntity
  8
Layer 1
100
AcDbBlockReference
  2
block 3
 10
0.0
 20
0.0
 30
0.0
  0
INSERT
  5
55
330
41
100
AcDbEntity
  8
Layer 1
100
AcDbBlockReference
  2
block 4
 10
0.0
 20
0.0
 30
0.0
  0
ENDBLK
  5
44
330
41
100
AcDbEntity
  8
0
100
AcDbBlockEnd
  0
BLOCK
  5
47
330
45
100
AcDbEntity
  8
0
100
AcDbBlockBegin
  2
block 3
 70
     0
 10
0.0
 20
0.0
 30
0.0
  3
block 3
  1

  0
SPLINE
  5
49
330
45
100
AcDbEntity
  8
Layer 1
370
     0
100
AcDbSpline
210
0.0
220
0.0
230
1.0
 70
    11
 71
     3
 72
    47
 73
    43
 74
     0
 42
0.0000000001
 43
0.0000000001
 12
1.0
 22
0.0
 32
0.0
 13
1.0
 23
0.0
 33
0.0
 40
0.0
 40
0.0
 40
0.0
 40
0.0
 40
1.0
 40
1.0
 40
1.0
 40
2.0
 40
2.0
 40
2.0
 40
3.0
 40
3.0
 40
3.0
 40
4.0
 40
4.0
 40
4.0
 40
5.0
 40
5.0
 40
5.0
 40
6.0
 40
6.0
 40
6.0
 40
7.0
 40
7.0
 40
7.0
 40
8.0
 40
8.0
 40
8.0
 40
9.0
 40
9.0
 40
9.0
 40
10.0
 40
10.0
 40
10.0
 40
11.0
 40
11.0
 40
11.0
 40
12.0
 40
12.0
 40
12.0
 40
13.0
 40
13.0
 40
13.0
 40
14.0
 40
14.0
 40
14.0
 40
14.0
 10
2.106775746012318
 20
-2.709209910152645
 30
0.0
 10
2.106775746012318
 20
-2.709209910152645
 30
0.0
 10
2.179173725549339
 20
-2.620032460179573
 30
0.0
 10
2.179173725549339
 20
-2.620032460179573
 30
0.0
 10
2.217018123943641
 20
-2.658527626929349
 30
0.0
 10
2.259140584765141
 20
-2.673007222836607
 30
0.0
 10
2.288432555852574
 20
-2.673007222836607
 30
0.0
 10
2.318375295295381
 20
-2.673007222836607
 30
0.0
 10
2.329564073951082
 20
-2.657211300028596
 30
0.0
 10
2.329564073951082
 20
-2.64207354067086
 30
0.0
 10
2.329564073951082
 20
-2.622986800611114
 30
0.0
 10
2.320349785646436
 20
-2.613114348856066
 30
0.0
 10
2.269013036520189
 20
-2.596002099147199
 30
0.0
 10
2.19628597525808
 20
-2.571650051484842
 30
0.0
 10
2.123558913995945
 20
-2.536105527619283
 30
0.0
 10
2.123558913995945
 20
-2.438368255244389
 30
0.0
 10
2.123558913995945
 20
-2.35708876667531
 30
0.0
 10
2.191346051833029
 20
-2.295550484068952
 30
0.0
 10
2.283159853154959
 20
-2.293575993717948
 30
0.0
 10
2.348976198188565
 20
-2.292263364364721
 30
0.0
 10
2.407549047721002
 20
-2.317928041380406
 30
0.0
 10
2.452640639163949
 20
-2.357425243495502
 30
0.0
 10
2.452640639163949
 20
-2.357425243495502
 30
0.0
 10
2.381558986527655
 20
-2.448909963092193
 30
0.0
 10
2.381558986527655
 20
-2.448909963092193
 30
0.0
 10
2.340098386703933
 20
-2.416659954025691
 30
0.0
 10
2.314093535320707
 20
-2.4057928620002
 30
0.0
 10
2.290403348656127
 20
-2.4057928620002
 30
0.0
 10
2.267696709619536
 20
-2.4057928620002
 30
0.0
 10
2.256837012688948
 20
-2.41698903575088
 30
0.0
 10
2.256837012688948
 20
-2.43410128545962
 30
0.0
 10
2.256837012688948
 20
-2.450222592445369
 30
0.0
 10
2.26703854616921
 20
-2.463053082179436
 30
0.0
 10
2.315738943946535
 20
-2.481818135608945
 30
0.0
 10
2.400312947314786
 20
-2.514397226400559
 30
0.0
 10
2.464154801997387
 20
-2.535129375086146
 30
0.0
 10
2.464154801997387
 20
-2.627272258133214
 30
0.0
 10
2.464154801997387
 20
-2.747054308546997
 30
0.0
 10
2.364113957546275
 20
-2.785878557021786
 30
0.0
 10
2.283818016605235
 20
-2.785878557021786
 30
0.0
 10
2.221625268095977
 20
-2.785878557021786
 30
0.0
 10
2.15811249513859
 20
-2.761204822729218
 30
0.0
 10
2.106775746012318
 20
-2.709209910152645
 30
0.0
  0
HATCH
  5
4A
330
45
100
AcDbEntity
  8
Layer 1
 62
   154
420
    21670
100
AcDbHatch
 10
0.0
 20
0.0
 30
0.0
210
0.0
220
0.0
230
1.0
  2
SOLID
 70
     1
 71
     0
 91
        1
 92
        1
 93
        1
 72
     4
 94
        3
 73
     0
 74
     1
 95
       47
 96
       43
 40
0.0
 40
0.0
 40
0.0
 40
0.0
 40
1.0
 40
1.0
 40
1.0
 40
2.0
 40
2.0
 40
2.0
 40
3.0
 40
3.0
 40
3.0
 40
4.0
 40
4.0
 40
4.0
 40
5.0
 40
5.0
 40
5.0
 40
6.0
 40
6.0
 40
6.0
 40
7.0
 40
7.0
 40
7.0
 40
8.0
 40
8.0
 40
8.0
 40
9.0
 40
9.0
 40
9.0
 40
10.0
 40
10.0
 40
10.0
 40
11.0
 40
11.0
 40
11.0
 40
12.0
 40
12.0
 40
12.0
 40
13.0
 40
13.0
 40
13.0
 40
14.0
 40
14.0
 40
14.0
 40
14.0
 10
2.106775746012318
 20
-2.709209910152645
 10
2.106775746012318
 20
-2.709209910152645
 10
2.179173725549339
 20
-2.620032460179573
 10
2.179173725549339
 20
-2.620032460179573
 10
2.217018123943641
 20
-2.658527626929349
 10
2.259140584765141
 20
-2.673007222836607
 10
2.288432555852574
 20
-2.673007222836607
 10
2.318375295295381
 20
-2.673007222836607
 10
2.329564073951082
 20
-2.657211300028596
 10
2.329564073951082
 20
-2.64207354067086
 10
2.329564073951082
 20
-2.622986800611114
 10
2.320349785646436
 20
-2.613114348856066
 10
2.269013036520189
 20
-2.596002099147199
 10
2.19628597525808
 20
-2.571650051484842
 10
2.123558913995945
 20
-2.536105527619283
 10
2.123558913995945
 20
-2.438368255244389
 10
2.123558913995945
 20
-2.35708876667531
 10
2.191346051833029
 20
-2.295550484068952
 10
2.283159853154959
 20
-2.293575993717948
 10
2.348976198188565
 20
-2.292263364364721
 10
2.407549047721002
 20
-2.317928041380406
 10
2.452640639163949
 20
-2.357425243495502
 10
2.452640639163949
 20
-2.357425243495502
 10
2.381558986527655
 20
-2.448909963092193
 10
2.381558986527655
 20
-2.448909963092193
 10
2.340098386703933
 20
-2.416659954025691
 10
2.314093535320707
 20
-2.4057928620002
 10
2.290403348656127
 20
-2.4057928620002
 10
2.267696709619536
 20
-2.4057928620002
 10
2.256837012688948
 20
-2.41698903575088
 10
2.256837012688948
 20
-2.43410128545962
 10
2.256837012688948
 20
-2.450222592445369
 10
2.26703854616921
 20
-2.463053082179436
 10
2.315738943946535
 20
-2.481818135608945
 10
2.400312947314786
 20
-2.514397226400559
 10
2.464154801997387
 20
-2.535129375086146
 10
2.464154801997387
 20
-2.627272258133214
 10
2.464154801997387
 20
-2.747054308546997
 10
2.364113957546275
 20
-2.785878557021786
 10
2.283818016605235
 20
-2.785878557021786
 10
2.221625268095977
 20
-2.785878557021786
 10
2.15811249513859
 20
-2.761204822729218
 10
2.106775746012318
 20
-2.709209910152645
 97
        0
 97
        0
 75
     2
 76
     1
 98
        0
  0
SPLINE
  5
4B
330
45
100
AcDbEntity
  8
Layer 1
370
     0
100
AcDbSpline
210
0.0
220
0.0
230
1.0
 70
    11
 71
     3
 72
    38
 73
    34
 74
     0
 42
0.0000000001
 43
0.0000000001
 12
1.0
 22
0.0
 32
0.0
 13
1.0
 23
0.0
 33
0.0
 40
0.0
 40
0.0
 40
0.0
 40
0.0
 40
1.0
 40
1.0
 40
1.0
 40
2.0
 40
2.0
 40
2.0
 40
3.0
 40
3.0
 40
3.0
 40
4.0
 40
4.0
 40
4.0
 40
5.0
 40
5.0
 40
5.0
 40
6.0
 40
6.0
 40
6.0
 40
7.0
 40
7.0
 40
7.0
 40
8.0
 40
8.0
 40
8.0
 40
9.0
 40
9.0
 40
9.0
 40
10.0
 40
10.0
 40
10.0
 40
11.0
 40
11.0
 40
11.0
 40
11.0
 10
2.761444212868835
 20
-2.785878557021786
 30
0.0
 10
2.628166114175782
 20
-2.785878557021786
 30
0.0
 10
2.511671183466357
 20
-2.700328401120512
 30
0.0
 10
2.511671183466357
 20
-2.540723764414098
 30
0.0
 10
2.511671183466357
 20
-2.404151150921886
 30
0.0
 10
2.60183957616237
 20
-2.293250609540236
 30
0.0
 10
2.761440515321358
 20
-2.293250609540236
 30
0.0
 10
2.826927778629801
 20
-2.293250609540236
 30
0.0
 10
2.90261657541843
 20
-2.320897172001853
 30
0.0
 10
2.956582280798481
 20
-2.385726271859943
 30
0.0
 10
2.956582280798481
 20
-2.385726271859943
 30
0.0
 10
2.862793989125622
 20
-2.466022212800908
 30
0.0
 10
2.862793989125622
 20
-2.466022212800908
 30
0.0
 10
2.842723701437838
 20
-2.44364465548948
 30
0.0
 10
2.806195629944189
 20
-2.416659954025691
 30
0.0
 10
2.761440515321358
 20
-2.416659954025691
 30
0.0
 10
2.702205804791118
 20
-2.416659954025691
 30
0.0
 10
2.646590993237699
 20
-2.459436880750117
 30
0.0
 10
2.646590993237699
 20
-2.540720066866571
 30
0.0
 10
2.646590993237699
 20
-2.605549166724662
 30
0.0
 10
2.689700699234713
 20
-2.662480305178734
 30
0.0
 10
2.761436817773882
 20
-2.662480305178734
 30
0.0
 10
2.799288611263137
 20
-2.662480305178734
 30
0.0
 10
2.839436581733606
 20
-2.642410017490975
 30
0.0
 10
2.862797686673073
 20
-2.613779907401345
 30
0.0
 10
2.862797686673073
 20
-2.613779907401345
 30
0.0
 10
2.956585978346033
 20
-2.694404930067523
 30
0.0
 10
2.956585978346033
 20
-2.694404930067523
 30
0.0
 10
2.915121680974835
 20
-2.745079818195917
 30
0.0
 10
2.846672682139872
 20
-2.785878557021786
 30
0.0
 10
2.761436817773882
 20
-2.785878557021786
 30
0.0
 10
2.761436817773882
 20
-2.785878557021786
 30
0.0
 10
2.761444212868835
 20
-2.785878557021786
 30
0.0
 10
2.761444212868835
 20
-2.785878557021786
 30
0.0
  0
HATCH
  5
4C
330
45
100
AcDbEntity
  8
Layer 1
 62
   154
420
    21670
100
AcDbHatch
 10
0.0
 20
0.0
 30
0.0
210
0.0
220
0.0
230
1.0
  2
SOLID
 70
     1
 71
     0
 91
        1
 92
        1
 93
        1
 72
     4
 94
        3
 73
     0
 74
     1
 95
       38
 96
       34
 40
0.0
 40
0.0
 40
0.0
 40
0.0
 40
1.0
 40
1.0
 40
1.0
 40
2.0
 40
2.0
 40
2.0
 40
3.0
 40
3.0
 40
3.0
 40
4.0
 40
4.0
 40
4.0
 40
5.0
 40
5.0
 40
5.0
 40
6.0
 40
6.0
 40
6.0
 40
7.0
 40
7.0
 40
7.0
 40
8.0
 40
8.0
 40
8.0
 40
9.0
 40
9.0
 40
9.0
 40
10.0
 40
10.0
 40
10.0
 40
11.0
 40
11.0
 40
11.0
 40
11.0
 10
2.761444212868835
 20
-2.785878557021786
 10
2.628166114175782
 20
-2.785878557021786
 10
2.511671183466357
 20
-2.700328401120512
 10
2.511671183466357
 20
-2.540723764414098
 10
2.511671183466357
 20
-2.404151150921886
 10
2.60183957616237
 20
-2.293250609540236
 10
2.761440515321358
 20
-2.293250609540236
 10
2.826927778629801
 20
-2.293250609540236
 10
2.90261657541843
 20
-2.320897172001853
 10
2.956582280798481
 20
-2.385726271859943
 10
2.956582280798481
 20
-2.385726271859943
 10
2.862793989125622
 20
-2.466022212800908
 10
2.862793989125622
 20
-2.466022212800908
 10
2.842723701437838
 20
-2.44364465548948
 10
2.806195629944189
 20
-2.416659954025691
 10
2.761440515321358
 20
-2.416659954025691
 10
2.702205804791118
 20
-2.416659954025691
 10
2.646590993237699
 20
-2.459436880750117
 10
2.646590993237699
 20
-2.540720066866571
 10
2.646590993237699
 20
-2.605549166724662
 10
2.689700699234713
 20
-2.662480305178734
 10
2.761436817773882
 20
-2.662480305178734
 10
2.799288611263137
 20
-2.662480305178734
 10
2.839436581733606
 20
-2.642410017490975
 10
2.862797686673073
 20
-2.613779907401345
 10
2.862797686673073
 20
-2.613779907401345
 10
2.956585978346033
 20
-2.694404930067523
 10
2.956585978346033
 20
-2.694404930067523
 10
2.915121680974835
 20
-2.745079818195917
 10
2.846672682139872
 20
-2.785878557021786
 10
2.761436817773882
 20
-2.785878557021786
 10
2.761436817773882
 20
-2.785878557021786
 10
2.761444212868835
 20
-2.785878557021786
 10
2.761444212868835
 20
-2.785878557021786
 97
        0
 97
        0
 75
     2
 76
     1
 98
        0
  0
SPLINE
  5
4D
330
45
100
AcDbEntity
  8
Layer 1
370
     0
100
AcDbSpline
210
0.0
220
0.0
230
1.0
 70
    11
 71
     3
 72
    20
 73
    16
 74
     0
 42
0.0000000001
 43
0.0000000001
 12
1.0
 22
0.0
 32
0.0
 13
1.0
 23
0.0
 33
0.0
 40
0.0
 40
0.0
 40
0.0
 40
0.0
 40
1.0
 40
1.0
 40
1.0
 40
2.0
 40
2.0
 40
2.0
 40
3.0
 40
3.0
 40
3.0
 40
4.0
 40
4.0
 40
4.0
 40
5.0
 40
5.0
 40
5.0
 40
5.0
 10
3.242565149010918
 20
-2.785874859474385
 30
0.0
 10
3.095136536135593
 20
-2.785874859474385
 30
0.0
 10
2.99345028305869
 20
-2.685183246667874
 30
0.0
 10
2.99345028305869
 20
-2.53972912414363
 30
0.0
 10
2.99345028305869
 20
-2.393949617441624
 30
0.0
 10
3.095136536135593
 20
-2.293246911992709
 30
0.0
 10
3.242565149010918
 20
-2.293246911992709
 30
0.0
 10
3.388019271535161
 20
-2.293246911992709
 30
0.0
 10
3.490689072240128
 20
-2.392958674718632
 30
0.0
 10
3.490689072240128
 20
-2.53972912414363
 30
0.0
 10
3.490689072240128
 20
-2.686174189390865
 30
0.0
 10
3.388019271535161
 20
-2.785878557021786
 30
0.0
 10
3.242565149010918
 20
-2.785878557021786
 30
0.0
 10
3.242565149010918
 20
-2.785878557021786
 30
0.0
 10
3.242565149010918
 20
-2.785874859474385
 30
0.0
 10
3.242565149010918
 20
-2.785874859474385
 30
0.0
  0
SPLINE
  5
4E
330
45
100
AcDbEntity
  8
Layer 1
370
     0
100
AcDbSpline
210
0.0
220
0.0
230
1.0
 70
    11
 71
     3
 72
    20
 73
    16
 74
     0
 42
0.0000000001
 43
0.0000000001
 12
1.0
 22
0.0
 32
0.0
 13
1.0
 23
0.0
 33
0.0
 40
0.0
 40
0.0
 40
0.0
 40
0.0
 40
1.0
 40
1.0
 40
1.0
 40
2.0
 40
2.0
 40
2.0
 40
3.0
 40
3.0
 40
3.0
 40
4.0
 40
4.0
 40
4.0
 40
5.0
 40
5.0
 40
5.0
 40
5.0
 10
3.242236067285729
 20
-2.666425588333317
 30
0.0
 10
3.31036337949043
 20
-2.666425588333317
 30
0.0
 10
3.357089286916839
 20
-2.610156310877048
 30
0.0
 10
3.357089286916839
 20
-2.539725426596128
 30
0.0
 10
3.357089286916839
 20
-2.469301937410137
 30
0.0
 10
3.31036337949043
 20
-2.413032659953867
 30
0.0
 10
3.242236067285729
 20
-2.413032659953867
 30
0.0
 10
3.174774313626257
 20
-2.413032659953867
 30
0.0
 10
3.127057463476856
 20
-2.468647471507337
 30
0.0
 10
3.127057463476856
 20
-2.539725426596128
 30
0.0
 10
3.127057463476856
 20
-2.610477997507284
 30
0.0
 10
3.174774313626257
 20
-2.66642189078574
 30
0.0
 10
3.242236067285729
 20
-2.66642189078574
 30
0.0
 10
3.242236067285729
 20
-2.66642189078574
 30
0.0
 10
3.242236067285729
 20
-2.666425588333317
 30
0.0
 10
3.242236067285729
 20
-2.666425588333317
 30
0.0
  0
HATCH
  5
4F
330
45
100
AcDbEntity
  8
Layer 1
 62
   154
420
    21670
100
AcDbHatch
 10
0.0
 20
0.0
 30
0.0
210
0.0
220
0.0
230
1.0
  2
SOLID
 70
     1
 71
     0
 91
        2
 92
        1
 93
        1
 72
     4
 94
        3
 73
     0
 74
     1
 95
       20
 96
       16
 40
0.0
 40
0.0
 40
0.0
 40
0.0
 40
1.0
 40
1.0
 40
1.0
 40
2.0
 40
2.0
 40
2.0
 40
3.0
 40
3.0
 40
3.0
 40
4.0
 40
4.0
 40
4.0
 40
5.0
 40
5.0
 40
5.0
 40
5.0
 10
3.242565149010918
 20
-2.785874859474385
 10
3.095136536135593
 20
-2.785874859474385
 10
2.99345028305869
 20
-2.685183246667874
 10
2.99345028305869
 20
-2.53972912414363
 10
2.99345028305869
 20
-2.393949617441624
 10
3.095136536135593
 20
-2.293246911992709
 10
3.242565149010918
 20
-2.293246911992709
 10
3.388019271535161
 20
-2.293246911992709
 10
3.490689072240128
 20
-2.392958674718632
 10
3.490689072240128
 20
-2.53972912414363
 10
3.490689072240128
 20
-2.686174189390865
 10
3.388019271535161
 20
-2.785878557021786
 10
3.242565149010918
 20
-2.785878557021786
 10
3.242565149010918
 20
-2.785878557021786
 10
3.242565149010918
 20
-2.785874859474385
 10
3.242565149010918
 20
-2.785874859474385
 97
        0
 97
        0
 92
        1
 93
        1
 72
     4
 94
        3
 73
     0
 74
     1
 95
       20
 96
       16
 40
0.0
 40
0.0
 40
0.0
 40
0.0
 40
1.0
 40
1.0
 40
1.0
 40
2.0
 40
2.0
 40
2.0
 40
3.0
 40
3.0
 40
3.0
 40
4.0
 40
4.0
 40
4.0
 40
5.0
 40
5.0
 40
5.0
 40
5.0
 10
3.242236067285729
 20
-2.666425588333317
 10
3.31036337949043
 20
-2.666425588333317
 10
3.357089286916839
 20
-2.610156310877048
 10
3.357089286916839
 20
-2.539725426596128
 10
3.357089286916839
 20
-2.469301937410137
 10
3.31036337949043
 20
-2.413032659953867
 10
3.242236067285729
 20
-2.413032659953867
 10
3.174774313626257
 20
-2.413032659953867
 10
3.127057463476856
 20
-2.468647471507337
 10
3.127057463476856
 20
-2.539725426596128
 10
3.127057463476856
 20
-2.610477997507284
 10
3.174774313626257
 20
-2.66642189078574
 10
3.242236067285729
 20
-2.66642189078574
 10
3.242236067285729
 20
-2.66642189078574
 10
3.242236067285729
 20
-2.666425588333317
 10
3.242236067285729
 20
-2.666425588333317
 97
        0
 97
        0
 75
     2
 76
     1
 98
        0
  0
SPLINE
  5
50
330
45
100
AcDbEntity
  8
Layer 1
370
     0
100
AcDbSpline
210
0.0
220
0.0
230
1.0
 70
    11
 71
     3
 72
    38
 73
    34
 74
     0
 42
0.0000000001
 43
0.0000000001
 12
1.0
 22
0.0
 32
0.0
 13
1.0
 23
0.0
 33
0.0
 40
0.0
 40
0.0
 40
0.0
 40
0.0
 40
1.0
 40
1.0
 40
1.0
 40
2.0
 40
2.0
 40
2.0
 40
3.0
 40
3.0
 40
3.0
 40
4.0
 40
4.0
 40
4.0
 40
5.0
 40
5.0
 40
5.0
 40
6.0
 40
6.0
 40
6.0
 40
7.0
 40
7.0
 40
7.0
 40
8.0
 40
8.0
 40
8.0
 40
9.0
 40
9.0
 40
9.0
 40
10.0
 40
10.0
 40
10.0
 40
11.0
 40
11.0
 40
11.0
 40
11.0
 10
1.920206705729167
 20
-2.301787923177067
 30
0.0
 10
1.920206705729167
 20
-2.301787923177067
 30
0.0
 10
1.920206705729167
 20
-2.571949869791625
 30
0.0
 10
1.920206705729167
 20
-2.571949869791625
 30
0.0
 10
1.920206705729167
 20
-2.625335286458317
 30
0.0
 10
1.893988715277778
 20
-2.659826931423595
 30
0.0
 10
1.853420681423611
 20
-2.659826931423595
 30
0.0
 10
1.805277506510417
 20
-2.659826931423595
 30
0.0
 10
1.788194444444444
 20
-2.612490776909706
 30
0.0
 10
1.788194444444444
 20
-2.571949869791625
 30
0.0
 10
1.788194444444444
 20
-2.571949869791625
 30
0.0
 10
1.788194444444444
 20
-2.422712131076347
 30
0.0
 10
1.788194444444444
 20
-2.422712131076347
 30
0.0
 10
1.788194444444444
 20
-2.356027832031208
 30
0.0
 10
1.73394775390625
 20
-2.301781141493039
 30
0.0
 10
1.667263454861111
 20
-2.301781141493039
 30
0.0
 10
1.667263454861111
 20
-2.301781141493039
 30
0.0
 10
1.653374565972222
 20
-2.301781141493039
 30
0.0
 10
1.653374565972222
 20
-2.301781141493039
 30
0.0
 10
1.653374565972222
 20
-2.301781141493039
 30
0.0
 10
1.653374565972222
 20
-2.57877224392357
 30
0.0
 10
1.653374565972222
 20
-2.57877224392357
 30
0.0
 10
1.653374565972222
 20
-2.707339409722206
 30
0.0
 10
1.730027940538194
 20
-2.787200520833317
 30
0.0
 10
1.853420681423611
 20
-2.787200520833317
 30
0.0
 10
1.977579752604167
 20
-2.787200520833317
 30
0.0
 10
2.054707845052083
 20
-2.707339409722206
 30
0.0
 10
2.054707845052083
 20
-2.578779025607597
 30
0.0
 10
2.054707845052083
 20
-2.578779025607597
 30
0.0
 10
2.054707845052083
 20
-2.301787923177067
 30
0.0
 10
2.054707845052083
 20
-2.301787923177067
 30
0.0
 10
2.054707845052083
 20
-2.301787923177067
 30
0.0
 10
1.920206705729167
 20
-2.301787923177067
 30
0.0
 10
1.920206705729167
 20
-2.301787923177067
 30
0.0
  0
HATCH
  5
51
330
45
100
AcDbEntity
  8
Layer 1
 62
   154
420
    21670
100
AcDbHatch
 10
0.0
 20
0.0
 30
0.0
210
0.0
220
0.0
230
1.0
  2
SOLID
 70
     1
 71
     0
 91
        1
 92
        1
 93
        1
 72
     4
 94
        3
 73
     0
 74
     1
 95
       38
 96
       34
 40
0.0
 40
0.0
 40
0.0
 40
0.0
 40
1.0
 40
1.0
 40
1.0
 40
2.0
 40
2.0
 40
2.0
 40
3.0
 40
3.0
 40
3.0
 40
4.0
 40
4.0
 40
4.0
 40
5.0
 40
5.0
 40
5.0
 40
6.0
 40
6.0
 40
6.0
 40
7.0
 40
7.0
 40
7.0
 40
8.0
 40
8.0
 40
8.0
 40
9.0
 40
9.0
 40
9.0
 40
10.0
 40
10.0
 40
10.0
 40
11.0
 40
11.0
 40
11.0
 40
11.0
 10
1.920206705729167
 20
-2.301787923177067
 10
1.920206705729167
 20
-2.301787923177067
 10
1.920206705729167
 20
-2.571949869791625
 10
1.920206705729167
 20
-2.571949869791625
 10
1.920206705729167
 20
-2.625335286458317
 10
1.893988715277778
 20
-2.659826931423595
 10
1.853420681423611
 20
-2.659826931423595
 10
1.805277506510417
 20
-2.659826931423595
 10
1.788194444444444
 20
-2.612490776909706
 10
1.788194444444444
 20
-2.571949869791625
 10
1.788194444444444
 20
-2.571949869791625
 10
1.788194444444444
 20
-2.422712131076347
 10
1.788194444444444
 20
-2.422712131076347
 10
1.788194444444444
 20
-2.356027832031208
 10
1.73394775390625
 20
-2.301781141493039
 10
1.667263454861111
 20
-2.301781141493039
 10
1.667263454861111
 20
-2.301781141493039
 10
1.653374565972222
 20
-2.301781141493039
 10
1.653374565972222
 20
-2.301781141493039
 10
1.653374565972222
 20
-2.301781141493039
 10
1.653374565972222
 20
-2.57877224392357
 10
1.653374565972222
 20
-2.57877224392357
 10
1.653374565972222
 20
-2.707339409722206
 10
1.730027940538194
 20
-2.787200520833317
 10
1.853420681423611
 20
-2.787200520833317
 10
1.977579752604167
 20
-2.787200520833317
 10
2.054707845052083
 20
-2.707339409722206
 10
2.054707845052083
 20
-2.578779025607597
 10
2.054707845052083
 20
-2.578779025607597
 10
2.054707845052083
 20
-2.301787923177067
 10
2.054707845052083
 20
-2.301787923177067
 10
2.054707845052083
 20
-2.301787923177067
 10
1.920206705729167
 20
-2.301787923177067
 10
1.920206705729167
 20
-2.301787923177067
 97
        0
 97
        0
 75
     2
 76
     1
 98
        0
  0
SPLINE
  5
52
330
45
100
AcDbEntity
  8
Layer 1
370
     0
100
AcDbSpline
210
0.0
220
0.0
230
1.0
 70
    11
 71
     3
 72
    44
 73
    40
 74
     0
 42
0.0000000001
 43
0.0000000001
 12
1.0
 22
0.0
 32
0.0
 13
1.0
 23
0.0
 33
0.0
 40
0.0
 40
0.0
 40
0.0
 40
0.0
 40
1.0
 40
1.0
 40
1.0
 40
2.0
 40
2.0
 40
2.0
 40
3.0
 40
3.0
 40
3.0
 40
4.0
 40
4.0
 40
4.0
 40
5.0
 40
5.0
 40
5.0
 40
6.0
 40
6.0
 40
6.0
 40
7.0
 40
7.0
 40
7.0
 40
8.0
 40
8.0
 40
8.0
 40
9.0
 40
9.0
 40
9.0
 40
10.0
 40
10.0
 40
10.0
 40
11.0
 40
11.0
 40
11.0
 40
12.0
 40
12.0
 40
12.0
 40
13.0
 40
13.0
 40
13.0
 40
13.0
 10
1.177384332477737
 20
-2.301267853749626
 30
0.0
 10
1.177384332477737
 20
-2.301267853749626
 30
0.0
 10
1.304823910879147
 20
-2.301267853749626
 30
0.0
 10
1.304823910879147
 20
-2.301267853749626
 30
0.0
 10
1.304823910879147
 20
-2.301267853749626
 30
0.0
 10
1.304823910879147
 20
-2.488869263579141
 30
0.0
 10
1.304823910879147
 20
-2.488869263579141
 30
0.0
 10
1.304823910879147
 20
-2.488869263579141
 30
0.0
 10
1.446818771077637
 20
-2.488869263579141
 30
0.0
 10
1.446818771077637
 20
-2.488869263579141
 30
0.0
 10
1.446818771077637
 20
-2.488869263579141
 30
0.0
 10
1.446818771118135
 20
-2.428707304578312
 30
0.0
 10
1.446818771118135
 20
-2.428707304578312
 30
0.0
 10
1.446818771165454
 20
-2.358324439342166
 30
0.0
 10
1.503875356745539
 20
-2.301267853714762
 30
0.0
 10
1.574258222039488
 20
-2.301267853749626
 30
0.0
 10
1.574258222039488
 20
-2.301267853749626
 30
0.0
 10
1.574258349479073
 20
-2.301267853749626
 30
0.0
 10
1.574258349479073
 20
-2.301267853749626
 30
0.0
 10
1.574258349479073
 20
-2.301267853749626
 30
0.0
 10
1.574258349479073
 20
-2.77188136330114
 30
0.0
 10
1.574258349479073
 20
-2.77188136330114
 30
0.0
 10
1.574258349479073
 20
-2.77188136330114
 30
0.0
 10
1.446818771077637
 20
-2.77188136330114
 30
0.0
 10
1.446818771077637
 20
-2.77188136330114
 30
0.0
 10
1.446818771077637
 20
-2.77188136330114
 30
0.0
 10
1.446818771077637
 20
-2.600459757356955
 30
0.0
 10
1.446818771077637
 20
-2.600459757356955
 30
0.0
 10
1.446818771077637
 20
-2.600459757356955
 30
0.0
 10
1.304823910879147
 20
-2.600459757356955
 30
0.0
 10
1.304823910879147
 20
-2.600459757356955
 30
0.0
 10
1.304823910879147
 20
-2.600459757356955
 30
0.0
 10
1.304823910882533
 20
-2.771881363294142
 30
0.0
 10
1.304823910882533
 20
-2.771881363294142
 30
0.0
 10
1.304823910882533
 20
-2.771881363294142
 30
0.0
 10
1.177384332477737
 20
-2.77188136330114
 30
0.0
 10
1.177384332477737
 20
-2.77188136330114
 30
0.0
 10
1.177384332477737
 20
-2.77188136330114
 30
0.0
 10
1.177384332477737
 20
-2.301267853749626
 30
0.0
 10
1.177384332477737
 20
-2.301267853749626
 30
0.0
  0
HATCH
  5
53
330
45
100
AcDbEntity
  8
Layer 1
 62
   154
420
    21670
100
AcDbHatch
 10
0.0
 20
0.0
 30
0.0
210
0.0
220
0.0
230
1.0
  2
SOLID
 70
     1
 71
     0
 91
        1
 92
        1
 93
        1
 72
     4
 94
        3
 73
     0
 74
     1
 95
       44
 96
       40
 40
0.0
 40
0.0
 40
0.0
 40
0.0
 40
1.0
 40
1.0
 40
1.0
 40
2.0
 40
2.0
 40
2.0
 40
3.0
 40
3.0
 40
3.0
 40
4.0
 40
4.0
 40
4.0
 40
5.0
 40
5.0
 40
5.0
 40
6.0
 40
6.0
 40
6.0
 40
7.0
 40
7.0
 40
7.0
 40
8.0
 40
8.0
 40
8.0
 40
9.0
 40
9.0
 40
9.0
 40
10.0
 40
10.0
 40
10.0
 40
11.0
 40
11.0
 40
11.0
 40
12.0
 40
12.0
 40
12.0
 40
13.0
 40
13.0
 40
13.0
 40
13.0
 10
1.177384332477737
 20
-2.301267853749626
 10
1.177384332477737
 20
-2.301267853749626
 10
1.304823910879147
 20
-2.301267853749626
 10
1.304823910879147
 20
-2.301267853749626
 10
1.304823910879147
 20
-2.301267853749626
 10
1.304823910879147
 20
-2.488869263579141
 10
1.304823910879147
 20
-2.488869263579141
 10
1.304823910879147
 20
-2.488869263579141
 10
1.446818771077637
 20
-2.488869263579141
 10
1.446818771077637
 20
-2.488869263579141
 10
1.446818771077637
 20
-2.488869263579141
 10
1.446818771118135
 20
-2.428707304578312
 10
1.446818771118135
 20
-2.428707304578312
 10
1.446818771165454
 20
-2.358324439342166
 10
1.503875356745539
 20
-2.301267853714762
 10
1.574258222039488
 20
-2.301267853749626
 10
1.574258222039488
 20
-2.301267853749626
 10
1.574258349479073
 20
-2.301267853749626
 10
1.574258349479073
 20
-2.301267853749626
 10
1.574258349479073
 20
-2.301267853749626
 10
1.574258349479073
 20
-2.77188136330114
 10
1.574258349479073
 20
-2.77188136330114
 10
1.574258349479073
 20
-2.77188136330114
 10
1.446818771077637
 20
-2.77188136330114
 10
1.446818771077637
 20
-2.77188136330114
 10
1.446818771077637
 20
-2.77188136330114
 10
1.446818771077637
 20
-2.600459757356955
 10
1.446818771077637
 20
-2.600459757356955
 10
1.446818771077637
 20
-2.600459757356955
 10
1.304823910879147
 20
-2.600459757356955
 10
1.304823910879147
 20
-2.600459757356955
 10
1.304823910879147
 20
-2.600459757356955
 10
1.304823910882533
 20
-2.771881363294142
 10
1.304823910882533
 20
-2.771881363294142
 10
1.304823910882533
 20
-2.771881363294142
 10
1.177384332477737
 20
-2.77188136330114
 10
1.177384332477737
 20
-2.77188136330114
 10
1.177384332477737
 20
-2.77188136330114
 10
1.177384332477737
 20
-2.301267853749626
 10
1.177384332477737
 20
-2.301267853749626
 97
        0
 97
        0
 75
     2
 76
     1
 98
        0
  0
ENDBLK
  5
48
330
45
100
AcDbEntity
  8
0
100
AcDbBlockEnd
  0
BLOCK
  5
56
330
54
100
AcDbEntity
  8
0
100
AcDbBlockBegin
  2
block 4
 70
     0
 10
0.0
 20
0.0
 30
0.0
  3
block 4
  1

  0
POLYLINE
  5
58
330
54
100
AcDbEntity
  8
Layer 1
370
     0
100
AcDb2dPolyline
 66
     1
 10
0.0
 20
0.0
 30
0.0
  0
VERTEX
  5
59
330
58
100
AcDbEntity
  8
Layer 1
370
     0
100
AcDbVertex
100
AcDb2dVertex
 10
1.726552553377259
 20
-2.054459481631789
 30
0.0
  0
VERTEX
  5
5A
330
58
100
AcDbEntity
  8
Layer 1
370
     0
100
AcDbVertex
100
AcDb2dVertex
 10
1.726552553377259
 20
-1.38588950413666
 30
0.0
  0
VERTEX
  5
5B
330
58
100
AcDbEntity
  8
Layer 1
370
     0
100
AcDbVertex
100
AcDb2dVertex
 10
2.331563152929473
 20
-1.38588950413666
 30
0.0
  0
VERTEX
  5
5C
330
58
100
AcDbEntity
  8
Layer 1
370
     0
100
AcDbVertex
100
AcDb2dVertex
 10
2.331563152929473
 20
-2.054459481631789
 30
0.0
  0
VERTEX
  5
5D
330
58
100
AcDbEntity
  8
Layer 1
370
     0
100
AcDbVertex
100
AcDb2dVertex
 10
2.547526753359054
 20
-2.054459481631789
 30
0.0
  0
VERTEX
  5
5E
330
58
100
AcDbEntity
  8
Layer 1
370
     0
100
AcDbVertex
100
AcDb2dVertex
 10
2.547526753359054
 20
-1.38588950413666
 30
0.0
  0
VERTEX
  5
5F
330
58
100
AcDbEntity
  8
Layer 1
370
     0
100
AcDbVertex
100
AcDb2dVertex
 10
2.547526753359054
 20
-1.169925903707078
 30
0.0
  0
VERTEX
  5
60
330
58
100
AcDbEntity
  8
Layer 1
370
     0
100
AcDbVertex
100
AcDb2dVertex
 10
2.331563152929473
 20
-1.169925903707078
 30
0.0
  0
VERTEX
  5
61
330
58
100
AcDbEntity
  8
Layer 1
370
     0
100
AcDbVertex
100
AcDb2dVertex
 10
1.726552553377259
 20
-1.169925903707078
 30
0.0
  0
VERTEX
  5
62
330
58
100
AcDbEntity
  8
Layer 1
370
     0
100
AcDbVertex
100
AcDb2dVertex
 10
1.510588952947703
 20
-1.169925903707078
 30
0.0
  0
VERTEX
  5
63
330
58
100
AcDbEntity
  8
Layer 1
370
     0
100
AcDbVertex
100
AcDb2dVertex
 10
1.510588952947703
 20
-1.38588950413666
 30
0.0
  0
VERTEX
  5
64
330
58
100
AcDbEntity
  8
Layer 1
370
     0
100
AcDbVertex
100
AcDb2dVertex
 10
1.510588952947703
 20
-2.054459481631789
 30
0.0
  0
VERTEX
  5
65
330
58
100
AcDbEntity
  8
Layer 1
370
     0
100
AcDbVertex
100
AcDb2dVertex
 10
1.726552553377259
 20
-2.054459481631789
 30
0.0
  0
SEQEND
  5
67
330
58
100
AcDbEntity
  8
Layer 1
370
     0
  0
HATCH
  5
66
330
54
100
AcDbEntity
  8
Layer 1
 62
   154
420
    21670
100
AcDbHatch
 10
0.0
 20
0.0
 30
0.0
210
0.0
220
0.0
230
1.0
  2
SOLID
 70
     1
 71
     0
 91
        1
 92
        1
 93
       12
 72
     1
 10
1.726552553377259
 20
-2.054459481631789
 11
1.726552553377259
 21
-1.38588950413666
 72
     1
 10
1.726552553377259
 20
-1.38588950413666
 11
2.331563152929473
 21
-1.38588950413666
 72
     1
 10
2.331563152929473
 20
-1.38588950413666
 11
2.331563152929473
 21
-2.054459481631789
 72
     1
 10
2.331563152929473
 20
-2.054459481631789
 11
2.547526753359054
 21
-2.054459481631789
 72
     1
 10
2.547526753359054
 20
-2.054459481631789
 11
2.547526753359054
 21
-1.38588950413666
 72
     1
 10
2.547526753359054
 20
-1.38588950413666
 11
2.547526753359054
 21
-1.169925903707078
 72
     1
 10
2.547526753359054
 20
-1.169925903707078
 11
2.331563152929473
 21
-1.169925903707078
 72
     1
 10
2.331563152929473
 20
-1.169925903707078
 11
1.726552553377259
 21
-1.169925903707078
 72
     1
 10
1.726552553377259
 20
-1.169925903707078
 11
1.510588952947703
 21
-1.169925903707078
 72
     1
 10
1.510588952947703
 20
-1.169925903707078
 11
1.510588952947703
 21
-1.38588950413666
 72
     1
 10
1.510588952947703
 20
-1.38588950413666
 11
1.510588952947703
 21
-2.054459481631789
 72
     1
 10
1.510588952947703
 20
-2.054459481631789
 11
1.726552553377259
 21
-2.054459481631789
 97
        0
 75
     2
 76
     1
 98
        0
  0
POLYLINE
  5
68
330
54
100
AcDbEntity
  8
Layer 1
370
     0
100
AcDb2dPolyline
 66
     1
 10
0.0
 20
0.0
 30
0.0
  0
VERTEX
  5
69
330
68
100
AcDbEntity
  8
Layer 1
370
     0
100
AcDbVertex
100
AcDb2dVertex
 10
2.331563152929473
 20
-3.0224563093652
 30
0.0
  0
VERTEX
  5
6A
330
68
100
AcDbEntity
  8
Layer 1
370
     0
100
AcDbVertex
100
AcDb2dVertex
 10
2.331563152929473
 20
-3.620099720221964
 30
0.0
  0
VERTEX
  5
6B
330
68
100
AcDbEntity
  8
Layer 1
370
     0
100
AcDbVertex
100
AcDb2dVertex
 10
1.726552553377259
 20
-3.620099720221964
 30
0.0
  0
VERTEX
  5
6C
330
68
100
AcDbEntity
  8
Layer 1
370
     0
100
AcDbVertex
100
AcDb2dVertex
 10
1.726552553377259
 20
-3.0224563093652
 30
0.0
  0
VERTEX
  5
6D
330
68
100
AcDbEntity
  8
Layer 1
370
     0
100
AcDbVertex
100
AcDb2dVertex
 10
1.510588952947703
 20
-3.0224563093652
 30
0.0
  0
VERTEX
  5
6E
330
68
100
AcDbEntity
  8
Layer 1
370
     0
100
AcDbVertex
100
AcDb2dVertex
 10
1.510588952947703
 20
-3.620099720221964
 30
0.0
  0
VERTEX
  5
6F
330
68
100
AcDbEntity
  8
Layer 1
370
     0
100
AcDbVertex
100
AcDb2dVertex
 10
1.510588952947703
 20
-3.836063320651546
 30
0.0
  0
VERTEX
  5
70
330
68
100
AcDbEntity
  8
Layer 1
370
     0
100
AcDbVertex
100
AcDb2dVertex
 10
1.726552553377259
 20
-3.836063320651546
 30
0.0
  0
VERTEX
  5
71
330
68
100
AcDbEntity
  8
Layer 1
370
     0
100
AcDbVertex
100
AcDb2dVertex
 10
2.331563152929473
 20
-3.836063320651546
 30
0.0
  0
VERTEX
  5
72
330
68
100
AcDbEntity
  8
Layer 1
370
     0
100
AcDbVertex
100
AcDb2dVertex
 10
2.547526753359054
 20
-3.836063320651546
 30
0.0
  0
VERTEX
  5
73
330
68
100
AcDbEntity
  8
Layer 1
370
     0
100
AcDbVertex
100
AcDb2dVertex
 10
2.547526753359054
 20
-3.620099720221964
 30
0.0
  0
VERTEX
  5
74
330
68
100
AcDbEntity
  8
Layer 1
370
     0
100
AcDbVertex
100
AcDb2dVertex
 10
2.547526753359054
 20
-3.0224563093652
 30
0.0
  0
VERTEX
  5
75
330
68
100
AcDbEntity
  8
Layer 1
370
     0
100
AcDbVertex
100
AcDb2dVertex
 10
2.331563152929473
 20
-3.0224563093652
 30
0.0
  0
SEQEND
  5
77
330
68
100
AcDbEntity
  8
Layer 1
370
     0
  0
HATCH
  5
76
330
54
100
AcDbEntity
  8
Layer 1
 62
   154
420
    21670
100
AcDbHatch
 10
0.0
 20
0.0
 30
0.0
210
0.0
220
0.0
230
1.0
  2
SOLID
 70
     1
 71
     0
 91
        1
 92
        1
 93
       12
 72
     1
 10
2.331563152929473
 20
-3.0224563093652
 11
2.331563152929473
 21
-3.620099720221964
 72
     1
 10
2.331563152929473
 20
-3.620099720221964
 11
1.726552553377259
 21
-3.620099720221964
 72
     1
 10
1.726552553377259
 20
-3.620099720221964
 11
1.726552553377259
 21
-3.0224563093652
 72
     1
 10
1.726552553377259
 20
-3.0224563093652
 11
1.510588952947703
 21
-3.0224563093652
 72
     1
 10
1.510588952947703
 20
-3.0224563093652
 11
1.510588952947703
 21
-3.620099720221964
 72
     1
 10
1.510588952947703
 20
-3.620099720221964
 11
1.510588952947703
 21
-3.836063320651546
 72
     1
 10
1.510588952947703
 20
-3.836063320651546
 11
1.726552553377259
 21
-3.836063320651546
 72
     1
 10
1.726552553377259
 20
-3.836063320651546
 11
2.331563152929473
 21
-3.836063320651546
 72
     1
 10
2.331563152929473
 20
-3.836063320651546
 11
2.547526753359054
 21
-3.836063320651546
 72
     1
 10
2.547526753359054
 20
-3.836063320651546
 11
2.547526753359054
 21
-3.620099720221964
 72
     1
 10
2.547526753359054
 20
-3.620099720221964
 11
2.547526753359054
 21
-3.0224563093652
 72
     1
 10
2.547526753359054
 20
-3.0224563093652
 11
2.331563152929473
 21
-3.0224563093652
 97
        0
 75
     2
 76
     1
 98
        0
  0
SPLINE
  5
78
330
54
100
AcDbEntity
  8
Layer 1
370
     0
100
AcDbSpline
210
0.0
220
0.0
230
1.0
 70
    11
 71
     3
 72
    59
 73
    55
 74
     0
 42
0.0000000001
 43
0.0000000001
 12
1.0
 22
0.0
 32
0.0
 13
1.0
 23
0.0
 33
0.0
 40
0.0
 40
0.0
 40
0.0
 40
0.0
 40
1.0
 40
1.0
 40
1.0
 40
2.0
 40
2.0
 40
2.0
 40
3.0
 40
3.0
 40
3.0
 40
4.0
 40
4.0
 40
4.0
 40
5.0
 40
5.0
 40
5.0
 40
6.0
 40
6.0
 40
6.0
 40
7.0
 40
7.0
 40
7.0
 40
8.0
 40
8.0
 40
8.0
 40
9.0
 40
9.0
 40
9.0
 40
10.0
 40
10.0
 40
10.0
 40
11.0
 40
11.0
 40
11.0
 40
12.0
 40
12.0
 40
12.0
 40
13.0
 40
13.0
 40
13.0
 40
14.0
 40
14.0
 40
14.0
 40
15.0
 40
15.0
 40
15.0
 40
16.0
 40
16.0
 40
16.0
 40
17.0
 40
17.0
 40
17.0
 40
18.0
 40
18.0
 40
18.0
 40
18.0
 10
3.610688294403214
 20
-1.169925903707078
 30
0.0
 10
3.158001630798581
 20
-1.169925903707078
 30
0.0
 10
2.789714094421419
 20
-1.538213440084228
 30
0.0
 10
2.789714094421419
 20
-1.990901301995412
 30
0.0
 10
2.789714094421419
 20
-1.990901301995412
 30
0.0
 10
2.789714094421419
 20
-2.054459481631789
 30
0.0
 10
2.789714094421419
 20
-2.054459481631789
 30
0.0
 10
2.789714094421419
 20
-2.054459481631789
 30
0.0
 10
3.005677694851026
 20
-2.054459481631789
 30
0.0
 10
3.005677694851026
 20
-2.054459481631789
 30
0.0
 10
3.005677694851026
 20
-2.054459481631789
 30
0.0
 10
3.005677694851026
 20
-1.990901301995412
 30
0.0
 10
3.005677694851026
 20
-1.990901301995412
 30
0.0
 10
3.005677694851026
 20
-1.656761907494178
 30
0.0
 10
3.27655249482167
 20
-1.38588950413666
 30
0.0
 10
3.610688294403214
 20
-1.38588950413666
 30
0.0
 10
3.610688294403214
 20
-1.38588950413666
 30
0.0
 10
3.610688294403214
 20
-3.620099720221964
 30
0.0
 10
3.610688294403214
 20
-3.620099720221964
 30
0.0
 10
3.610688294403214
 20
-3.620099720221964
 30
0.0
 10
3.005677694851026
 20
-3.620099720221964
 30
0.0
 10
3.005677694851026
 20
-3.620099720221964
 30
0.0
 10
3.005677694851026
 20
-3.620099720221964
 30
0.0
 10
3.005677694851026
 20
-3.0224563093652
 30
0.0
 10
3.005677694851026
 20
-3.0224563093652
 30
0.0
 10
3.005677694851026
 20
-3.0224563093652
 30
0.0
 10
2.789714094421419
 20
-3.0224563093652
 30
0.0
 10
2.789714094421419
 20
-3.0224563093652
 30
0.0
 10
2.789714094421419
 20
-3.0224563093652
 30
0.0
 10
2.789714094421419
 20
-3.620099720221964
 30
0.0
 10
2.789714094421419
 20
-3.620099720221964
 30
0.0
 10
2.789714094421419
 20
-3.620099720221964
 30
0.0
 10
2.789714094421419
 20
-3.836063320651546
 30
0.0
 10
2.789714094421419
 20
-3.836063320651546
 30
0.0
 10
2.789714094421419
 20
-3.836063320651546
 30
0.0
 10
3.005677694851026
 20
-3.836063320651546
 30
0.0
 10
3.005677694851026
 20
-3.836063320651546
 30
0.0
 10
3.005677694851026
 20
-3.836063320651546
 30
0.0
 10
3.610688294403214
 20
-3.836063320651546
 30
0.0
 10
3.610688294403214
 20
-3.836063320651546
 30
0.0
 10
3.610688294403214
 20
-3.836063320651546
 30
0.0
 10
3.826651894832796
 20
-3.836063320651546
 30
0.0
 10
3.826651894832796
 20
-3.836063320651546
 30
0.0
 10
3.826651894832796
 20
-3.836063320651546
 30
0.0
 10
3.826651894832796
 20
-3.620099720221964
 30
0.0
 10
3.826651894832796
 20
-3.620099720221964
 30
0.0
 10
3.826651894832796
 20
-3.620099720221964
 30
0.0
 10
3.826651894832796
 20
-1.38588950413666
 30
0.0
 10
3.826651894832796
 20
-1.38588950413666
 30
0.0
 10
3.826651894832796
 20
-1.38588950413666
 30
0.0
 10
3.826651894832796
 20
-1.169925903707078
 30
0.0
 10
3.826651894832796
 20
-1.169925903707078
 30
0.0
 10
3.826651894832796
 20
-1.169925903707078
 30
0.0
 10
3.610688294403214
 20
-1.169925903707078
 30
0.0
 10
3.610688294403214
 20
-1.169925903707078
 30
0.0
  0
HATCH
  5
79
330
54
100
AcDbEntity
  8
Layer 1
 62
   154
420
    21670
100
AcDbHatch
 10
0.0
 20
0.0
 30
0.0
210
0.0
220
0.0
230
1.0
  2
SOLID
 70
     1
 71
     0
 91
        1
 92
        1
 93
        1
 72
     4
 94
        3
 73
     0
 74
     1
 95
       59
 96
       55
 40
0.0
 40
0.0
 40
0.0
 40
0.0
 40
1.0
 40
1.0
 40
1.0
 40
2.0
 40
2.0
 40
2.0
 40
3.0
 40
3.0
 40
3.0
 40
4.0
 40
4.0
 40
4.0
 40
5.0
 40
5.0
 40
5.0
 40
6.0
 40
6.0
 40
6.0
 40
7.0
 40
7.0
 40
7.0
 40
8.0
 40
8.0
 40
8.0
 40
9.0
 40
9.0
 40
9.0
 40
10.0
 40
10.0
 40
10.0
 40
11.0
 40
11.0
 40
11.0
 40
12.0
 40
12.0
 40
12.0
 40
13.0
 40
13.0
 40
13.0
 40
14.0
 40
14.0
 40
14.0
 40
15.0
 40
15.0
 40
15.0
 40
16.0
 40
16.0
 40
16.0
 40
17.0
 40
17.0
 40
17.0
 40
18.0
 40
18.0
 40
18.0
 40
18.0
 10
3.610688294403214
 20
-1.169925903707078
 10
3.158001630798581
 20
-1.169925903707078
 10
2.789714094421419
 20
-1.538213440084228
 10
2.789714094421419
 20
-1.990901301995412
 10
2.789714094421419
 20
-1.990901301995412
 10
2.789714094421419
 20
-2.054459481631789
 10
2.789714094421419
 20
-2.054459481631789
 10
2.789714094421419
 20
-2.054459481631789
 10
3.005677694851026
 20
-2.054459481631789
 10
3.005677694851026
 20
-2.054459481631789
 10
3.005677694851026
 20
-2.054459481631789
 10
3.005677694851026
 20
-1.990901301995412
 10
3.005677694851026
 20
-1.990901301995412
 10
3.005677694851026
 20
-1.656761907494178
 10
3.27655249482167
 20
-1.38588950413666
 10
3.610688294403214
 20
-1.38588950413666
 10
3.610688294403214
 20
-1.38588950413666
 10
3.610688294403214
 20
-3.620099720221964
 10
3.610688294403214
 20
-3.620099720221964
 10
3.610688294403214
 20
-3.620099720221964
 10
3.005677694851026
 20
-3.620099720221964
 10
3.005677694851026
 20
-3.620099720221964
 10
3.005677694851026
 20
-3.620099720221964
 10
3.005677694851026
 20
-3.0224563093652
 10
3.005677694851026
 20
-3.0224563093652
 10
3.005677694851026
 20
-3.0224563093652
 10
2.789714094421419
 20
-3.0224563093652
 10
2.789714094421419
 20
-3.0224563093652
 10
2.789714094421419
 20
-3.0224563093652
 10
2.789714094421419
 20
-3.620099720221964
 10
2.789714094421419
 20
-3.620099720221964
 10
2.789714094421419
 20
-3.620099720221964
 10
2.789714094421419
 20
-3.836063320651546
 10
2.789714094421419
 20
-3.836063320651546
 10
2.789714094421419
 20
-3.836063320651546
 10
3.005677694851026
 20
-3.836063320651546
 10
3.005677694851026
 20
-3.836063320651546
 10
3.005677694851026
 20
-3.836063320651546
 10
3.610688294403214
 20
-3.836063320651546
 10
3.610688294403214
 20
-3.836063320651546
 10
3.610688294403214
 20
-3.836063320651546
 10
3.826651894832796
 20
-3.836063320651546
 10
3.826651894832796
 20
-3.836063320651546
 10
3.826651894832796
 20
-3.836063320651546
 10
3.826651894832796
 20
-3.620099720221964
 10
3.826651894832796
 20
-3.620099720221964
 10
3.826651894832796
 20
-3.620099720221964
 10
3.826651894832796
 20
-1.38588950413666
 10
3.826651894832796
 20
-1.38588950413666
 10
3.826651894832796
 20
-1.38588950413666
 10
3.826651894832796
 20
-1.169925903707078
 10
3.826651894832796
 20
-1.169925903707078
 10
3.826651894832796
 20
-1.169925903707078
 10
3.610688294403214
 20
-1.169925903707078
 10
3.610688294403214
 20
-1.169925903707078
 97
        0
 97
        0
 75
     2
 76
     1
 98
        0
  0
ENDBLK
  5
57
330
54
100
AcDbEntity
  8
0
100
AcDbBlockEnd
  0
ENDSEC
  0
SECTION
  2
ENTITIES
  0
INSERT
  5
42
330
1F
100
AcDbEntity
  8
Layer 1
100
AcDbBlockReference
  2
block 2
 10
0.0
 20
0.0
 30
0.0
  0
ENDSEC
  0
SECTION
  2
OBJECTS
  0
DICTIONARY
  5
C
330
0
100
AcDbDictionary
281
     1
  3
ACAD_GROUP
350
D
  3
ACAD_LAYOUT
350
1A
  3
ACAD_MATERIAL
350
3B
  3
ACAD_MLEADERSTYLE
350
7B
  3
ACAD_MLINESTYLE
350
17
  3
ACAD_PLOTSETTINGS
350
19
  3
ACAD_PLOTSTYLENAME
350
E
  3
ACAD_TABLESTYLE
350
7A
  3
ACAD_VISUALSTYLE
350
2A
  0
SUN
  5
3F
330
29
100
AcDbSun
 90
        1
290
     0
 63
     7
421
 16777215
 40
1.0
291
     1
 91
  2455826
 92
 54000000
292
     0
 70
     2
 71
   256
280
     1
  0
DICTIONARY
  5
D
102
{ACAD_REACTORS
330
C
102
}
330
C
100
AcDbDictionary
281
     1
  0
DICTIONARY
  5
1A
102
{ACAD_REACTORS
330
C
102
}
330
C
100
AcDbDictionary
281
     1
  3
Layout1
350
1E
  3
Layout2
350
26
  3
Model
350
22
  0
DICTIONARY
  5
3B
102
{ACAD_REACTORS
330
C
102
}
330
C
100
AcDbDictionary
281
     1
  3
ByBlock
350
3D
  3
ByLayer
350
3C
  3
Global
350
3E
  0
DICTIONARY
  5
7B
102
{ACAD_REACTORS
330
C
102
}
330
C
100
AcDbDictionary
281
     1
  0
DICTIONARY
  5
17
102
{ACAD_REACTORS
330
C
102
}
330
C
100
AcDbDictionary
281
     1
  3
Standard
350
18
  0
DICTIONARY
  5
19
102
{ACAD_REACTORS
330
C
102
}
330
C
100
AcDbDictionary
281
     1
  0
ACDBDICTIONARYWDFLT
  5
E
102
{ACAD_REACTORS
330
C
102
}
330
C
100
AcDbDictionary
281
     1
  3
Normal
350
F
100
AcDbDictionaryWithDefault
340
F
  0
DICTIONARY
  5
7A
102
{ACAD_REACTORS
330
C
102
}
330
C
100
AcDbDictionary
281
     1
  0
DICTIONARY
  5
2A
102
{ACAD_REACTORS
330
C
102
}
330
C
100
AcDbDictionary
281
     1
  3
2dWireframe
350
2F
  3
3D Hidden
350
31
  3
3dWireframe
350
30
  3
Basic
350
32
  3
Brighten
350
36
  3
ColorChange
350
3A
  3
Conceptual
350
34
  3
Dim
350
35
  3
Facepattern
350
39
  3
Flat
350
2B
  3
FlatWithEdges
350
2C
  3
Gouraud
350
2D
  3
GouraudWithEdges
350
2E
  3
Linepattern
350
38
  3
Realistic
350
33
  3
Thicken
350
37
  0
LAYOUT
  5
1E
102
{ACAD_REACTORS
330
1A
102
}
330
1A
100
AcDbPlotSettings
  1

  2
none_device
  4

  6

 40
0.0
 41
0.0
 42
0.0
 43
0.0
 44
0.0
 45
0.0
 46
0.0
 47
0.0
 48
0.0
 49
0.0
140
0.0
141
0.0
142
1.0
143
1.0
 70
   688
 72
     0
 73
     0
 74
     5
  7

 75
    16
 76
     0
 77
     2
 78
   300
147
1.0
148
0.0
149
0.0
100
AcDbLayout
  1
Layout1
 70
     1
 71
     1
 10
0.0
 20
0.0
 11
12.0
 21
9.0
 12
0.0
 22
0.0
 32
0.0
 14
1.000000000000000E+20
 24
1.000000000000000E+20
 34
1.000000000000000E+20
 15
-1.000000000000000E+20
 25
-1.000000000000000E+20
 35
-1.000000000000000E+20
146
0.0
 13
0.0
 23
0.0
 33
0.0
 16
1.0
 26
0.0
 36
0.0
 17
0.0
 27
1.0
 37
0.0
 76
     0
330
1B
  0
LAYOUT
  5
26
102
{ACAD_REACTORS
330
1A
102
}
330
1A
100
AcDbPlotSettings
  1

  2
none_device
  4

  6

 40
0.0
 41
0.0
 42
0.0
 43
0.0
 44
0.0
 45
0.0
 46
0.0
 47
0.0
 48
0.0
 49
0.0
140
0.0
141
0.0
142
1.0
143
1.0
 70
   688
 72
     0
 73
     0
 74
     5
  7

 75
    16
 76
     0
 77
     2
 78
   300
147
1.0
148
0.0
149
0.0
100
AcDbLayout
  1
Layout2
 70
     1
 71
     2
 10
0.0
 20
0.0
 11
0.0
 21
0.0
 12
0.0
 22
0.0
 32
0.0
 14
0.0
 24
0.0
 34
0.0
 15
0.0
 25
0.0
 35
0.0
146
0.0
 13
0.0
 23
0.0
 33
0.0
 16
1.0
 26
0.0
 36
0.0
 17
0.0
 27
1.0
 37
0.0
 76
     0
330
23
  0
LAYOUT
  5
22
102
{ACAD_REACTORS
330
1A
102
}
330
1A
100
AcDbPlotSettings
  1

  2
none_device
  4

  6

 40
0.0
 41
0.0
 42
0.0
 43
0.0
 44
0.0
 45
0.0
 46
0.0
 47
0.0
 48
0.0
 49
0.0
140
0.0
141
0.0
142
1.0
143
1.0
 70
  1712
 72
     0
 73
     0
 74
     0
  7

 75
     0
 76
     0
 77
     2
 78
   300
147
1.0
148
0.0
149
0.0
100
AcDbLayout
  1
Model
 70
     1
 71
     0
 10
0.0
 20
0.0
 11
12.0
 21
9.0
 12
0.0
 22
0.0
 32
0.0
 14
1.000000000000000E+20
 24
1.000000000000000E+20
 34
1.000000000000000E+20
 15
-1.000000000000000E+20
 25
-1.000000000000000E+20
 35
-1.000000000000000E+20
146
0.0
 13
0.0
 23
0.0
 33
0.0
 16
1.0
 26
0.0
 36
0.0
 17
0.0
 27
1.0
 37
0.0
 76
     0
330
1F
331
29
  0
MATERIAL
  5
3D
102
{ACAD_REACTORS
330
3B
102
}
330
3B
100
AcDbMaterial
  1
ByBlock
 72
     1
 94
      127
  0
MATERIAL
  5
3C
102
{ACAD_REACTORS
330
3B
102
}
330
3B
100
AcDbMaterial
  1
ByLayer
 72
     1
 94
      127
  0
MATERIAL
  5
3E
102
{ACAD_REACTORS
330
3B
102
}
330
3B
100
AcDbMaterial
  1
Global
 72
     1
 94
      127
  0
MLINESTYLE
  5
18
102
{ACAD_REACTORS
330
17
102
}
330
17
100
AcDbMlineStyle
  2
Standard
 70
     0
  3

 62
   256
 51
90.0
 52
90.0
 71
     2
 49
0.5
 62
   256
  6
BYLAYER
 49
-0.5
 62
   256
  6
BYLAYER
  0
ACDBPLACEHOLDER
  5
F
102
{ACAD_REACTORS
330
E
102
}
330
E
  0
VISUALSTYLE
  5
2F
102
{ACAD_REACTORS
330
2A
102
}
330
2A
100
AcDbVisualStyle
  2
2dWireframe
 70
     4
177
     2
291
     0
 71
     0
176
     1
 72
     2
176
     1
 73
     0
176
     1
 90
        0
176
     1
 40
-0.6
176
     1
 41
-30.0
176
     1
 62
     5
 63
     7
421
 16777215
176
     1
 74
     1
176
     1
 91
        4
176
     1
 64
     7
176
     1
 65
   257
176
     1
 75
     1
176
     1
175
     1
176
     1
 42
1.0
176
     1
 92
        0
176
     1
 66
   257
176
     1
 43
1.0
176
     1
 76
     1
176
     1
 77
     6
176
     1
 78
     2
176
     1
 67
     7
176
     1
 79
     5
176
     1
170
     0
176
     1
171
     0
176
     1
290
     0
176
     1
 93
        1
176
     1
 44
0.0
176
     1
173
     0
176
     1
  0
VISUALSTYLE
  5
31
102
{ACAD_REACTORS
330
2A
102
}
330
2A
100
AcDbVisualStyle
  2
3D Hidden
 70
     6
177
     2
291
     0
 71
     1
176
     1
 72
     2
176
     1
 73
     2
176
     1
 90
        0
176
     1
 40
-0.6
176
     1
 41
-30.0
176
     1
 62
     5
 63
     7
421
 16777215
176
     1
 74
     2
176
     1
 91
        2
176
     1
 64
     7
176
     1
 65
   257
176
     1
 75
     2
176
     1
175
     1
176
     1
 42
40.0
176
     1
 92
        0
176
     1
 66
   257
176
     1
 43
1.0
176
     1
 76
     1
176
     1
 77
     6
176
     1
 78
     2
176
     1
 67
     7
176
     1
 79
     3
176
     1
170
     0
176
     1
171
     0
176
     1
290
     0
176
     1
 93
        1
176
     1
 44
0.0
176
     1
173
     0
176
     1
  0
VISUALSTYLE
  5
30
102
{ACAD_REACTORS
330
2A
102
}
330
2A
100
AcDbVisualStyle
  2
3dWireframe
 70
     5
177
     2
291
     0
 71
     0
176
     1
 72
     2
176
     1
 73
     0
176
     1
 90
        0
176
     1
 40
-0.6
176
     1
 41
-30.0
176
     1
 62
     5
 63
     7
421
 16777215
176
     1
 74
     1
176
     1
 91
        4
176
     1
 64
     7
176
     1
 65
   257
176
     1
 75
     1
176
     1
175
     1
176
     1
 42
1.0
176
     1
 92
        0
176
     1
 66
   257
176
     1
 43
1.0
176
     1
 76
     1
176
     1
 77
     6
176
     1
 78
     2
176
     1
 67
     7
176
     1
 79
     5
176
     1
170
     0
176
     1
171
     0
176
     1
290
     0
176
     1
 93
        1
176
     1
 44
0.0
176
     1
173
     0
176
     1
  0
VISUALSTYLE
  5
32
102
{ACAD_REACTORS
330
2A
102
}
330
2A
100
AcDbVisualStyle
  2
Basic
 70
     7
177
     2
291
     1
 71
     1
176
     1
 72
     0
176
     1
 73
     1
176
     1
 90
        0
176
     1
 40
-0.6
176
     1
 41
-30.0
176
     1
 62
     5
 63
     7
421
 16777215
176
     1
 74
     0
176
     1
 91
        4
176
     1
 64
     7
176
     1
 65
   257
176
     1
 75
     1
176
     1
175
     1
176
     1
 42
1.0
176
     1
 92
        8
176
     1
 66
     7
176
     1
 43
1.0
176
     1
 76
     1
176
     1
 77
     6
176
     1
 78
     2
176
     1
 67
     7
176
     1
 79
     5
176
     1
170
     0
176
     1
171
     0
176
     1
290
     0
176
     1
 93
        1
176
     1
 44
0.0
176
     1
173
     0
176
     1
  0
VISUALSTYLE
  5
36
102
{ACAD_REACTORS
330
2A
102
}
330
2A
100
AcDbVisualStyle
  2
Brighten
 70
    12
177
     2
291
     1
 71
     2
176
     1
 72
     2
176
     1
 73
     0
176
     1
 90
        0
176
     1
 40
-0.6
176
     1
 41
-30.0
176
     1
 62
     5
 63
     7
421
 16777215
176
     1
 74
     1
176
     1
 91
        4
176
     1
 64
     7
176
     1
 65
   257
176
     1
 75
     1
176
     1
175
     1
176
     1
 42
1.0
176
     1
 92
        8
176
     1
 66
     7
176
     1
 43
1.0
176
     1
 76
     1
176
     1
 77
     6
176
     1
 78
     2
176
     1
 67
     7
176
     1
 79
     5
176
     1
170
     0
176
     1
171
     0
176
     1
290
     0
176
     1
 93
        1
176
     1
 44
50.0
176
     1
173
     0
176
     1
  0
VISUALSTYLE
  5
3A
102
{ACAD_REACTORS
330
2A
102
}
330
2A
100
AcDbVisualStyle
  2
ColorChange
 70
    16
177
     2
291
     1
 71
     2
176
     1
 72
     2
176
     1
 73
     3
176
     1
 90
        0
176
     1
 40
-0.6
176
     1
 41
-30.0
176
     1
 62
     5
 63
     8
421
  8421504
176
     1
 74
     1
176
     1
 91
        4
176
     1
 64
     7
176
     1
 65
   257
176
     1
 75
     1
176
     1
175
     1
176
     1
 42
1.0
176
     1
 92
        8
176
     1
 66
     8
424
  8421504
176
     1
 43
1.0
176
     1
 76
     1
176
     1
 77
     6
176
     1
 78
     2
176
     1
 67
     7
176
     1
 79
     5
176
     1
170
     0
176
     1
171
     0
176
     1
290
     0
176
     1
 93
        1
176
     1
 44
0.0
176
     1
173
     0
176
     1
  0
VISUALSTYLE
  5
34
102
{ACAD_REACTORS
330
2A
102
}
330
2A
100
AcDbVisualStyle
  2
Conceptual
 70
     9
177
     2
291
     0
 71
     3
176
     1
 72
     2
176
     1
 73
     0
176
     1
 90
        0
176
     1
 40
-0.6
176
     1
 41
-30.0
176
     1
 62
     5
 63
     7
421
 16777215
176
     1
 74
     2
176
     1
 91
        2
176
     1
 64
     7
176
     1
 65
   257
176
     1
 75
     1
176
     1
175
     1
176
     1
 42
40.0
176
     1
 92
        8
176
     1
 66
     7
176
     1
 43
1.0
176
     1
 76
     1
176
     1
 77
     6
176
     1
 78
     2
176
     1
 67
     7
176
     1
 79
     3
176
     1
170
     0
176
     1
171
     0
176
     1
290
     0
176
     1
 93
        1
176
     1
 44
0.0
176
     1
173
     0
176
     1
  0
VISUALSTYLE
  5
35
102
{ACAD_REACTORS
330
2A
102
}
330
2A
100
AcDbVisualStyle
  2
Dim
 70
    11
177
     2
291
     1
 71
     2
176
     1
 72
     2
176
     1
 73
     0
176
     1
 90
        0
176
     1
 40
-0.6
176
     1
 41
-30.0
176
     1
 62
     5
 63
     7
421
 16777215
176
     1
 74
     1
176
     1
 91
        4
176
     1
 64
     7
176
     1
 65
   257
176
     1
 75
     1
176
     1
175
     1
176
     1
 42
1.0
176
     1
 92
        8
176
     1
 66
     7
176
     1
 43
1.0
176
     1
 76
     1
176
     1
 77
     6
176
     1
 78
     2
176
     1
 67
     7
176
     1
 79
     5
176
     1
170
     0
176
     1
171
     0
176
     1
290
     0
176
     1
 93
        1
176
     1
 44
-50.0
176
     1
173
     0
176
     1
  0
VISUALSTYLE
  5
39
102
{ACAD_REACTORS
330
2A
102
}
330
2A
100
AcDbVisualStyle
  2
Facepattern
 70
    15
177
     2
291
     1
 71
     2
176
     1
 72
     2
176
     1
 73
     0
176
     1
 90
        0
176
     1
 40
-0.6
176
     1
 41
-30.0
176
     1
 62
     5
 63
     7
421
 16777215
176
     1
 74
     1
176
     1
 91
        4
176
     1
 64
     7
176
     1
 65
   257
176
     1
 75
     1
176
     1
175
     1
176
     1
 42
1.0
176
     1
 92
        8
176
     1
 66
     7
176
     1
 43
1.0
176
     1
 76
     1
176
     1
 77
     6
176
     1
 78
     2
176
     1
 67
     7
176
     1
 79
     5
176
     1
170
     0
176
     1
171
     0
176
     1
290
     0
176
     1
 93
        1
176
     1
 44
0.0
176
     1
173
     0
176
     1
  0
VISUALSTYLE
  5
2B
102
{ACAD_REACTORS
330
2A
102
}
330
2A
100
AcDbVisualStyle
  2
Flat
 70
     0
177
     2
291
     1
 71
     2
176
     1
 72
     1
176
     1
 73
     1
176
     1
 90
        2
176
     1
 40
-0.6
176
     1
 41
30.0
176
     1
 62
     5
 63
     7
421
 16777215
176
     1
 74
     0
176
     1
 91
        4
176
     1
 64
     7
176
     1
 65
   257
176
     1
 75
     1
176
     1
175
     1
176
     1
 42
1.0
176
     1
 92
        8
176
     1
 66
     7
176
     1
 43
1.0
176
     1
 76
     1
176
     1
 77
     6
176
     1
 78
     2
176
     1
 67
     7
176
     1
 79
     5
176
     1
170
     0
176
     1
171
     0
176
     1
290
     0
176
     1
 93
       13
176
     1
 44
0.0
176
     1
173
     0
176
     1
  0
VISUALSTYLE
  5
2C
102
{ACAD_REACTORS
330
2A
102
}
330
2A
100
AcDbVisualStyle
  2
FlatWithEdges
 70
     1
177
     2
291
     1
 71
     2
176
     1
 72
     1
176
     1
 73
     1
176
     1
 90
        2
176
     1
 40
-0.6
176
     1
 41
30.0
176
     1
 62
     5
 63
     7
421
 16777215
176
     1
 74
     1
176
     1
 91
        4
176
     1
 64
     7
176
     1
 65
   257
176
     1
 75
     1
176
     1
175
     1
176
     1
 42
1.0
176
     1
 92
        0
176
     1
 66
   257
176
     1
 43
1.0
176
     1
 76
     1
176
     1
 77
     6
176
     1
 78
     2
176
     1
 67
     7
176
     1
 79
     5
176
     1
170
     0
176
     1
171
     0
176
     1
290
     0
176
     1
 93
       13
176
     1
 44
0.0
176
     1
173
     0
176
     1
  0
VISUALSTYLE
  5
2D
102
{ACAD_REACTORS
330
2A
102
}
330
2A
100
AcDbVisualStyle
  2
Gouraud
 70
     2
177
     2
291
     1
 71
     2
176
     1
 72
     2
176
     1
 73
     1
176
     1
 90
        2
176
     1
 40
-0.6
176
     1
 41
30.0
176
     1
 62
     5
 63
     7
421
 16777215
176
     1
 74
     0
176
     1
 91
        4
176
     1
 64
     7
176
     1
 65
   257
176
     1
 75
     1
176
     1
175
     1
176
     1
 42
1.0
176
     1
 92
        0
176
     1
 66
     7
176
     1
 43
1.0
176
     1
 76
     1
176
     1
 77
     6
176
     1
 78
     2
176
     1
 67
     7
176
     1
 79
     5
176
     1
170
     0
176
     1
171
     0
176
     1
290
     0
176
     1
 93
       13
176
     1
 44
0.0
176
     1
173
     0
176
     1
  0
VISUALSTYLE
  5
2E
102
{ACAD_REACTORS
330
2A
102
}
330
2A
100
AcDbVisualStyle
  2
GouraudWithEdges
 70
     3
177
     2
291
     1
 71
     2
176
     1
 72
     2
176
     1
 73
     1
176
     1
 90
        2
176
     1
 40
-0.6
176
     1
 41
30.0
176
     1
 62
     5
 63
     7
421
 16777215
176
     1
 74
     1
176
     1
 91
        4
176
     1
 64
     7
176
     1
 65
   257
176
     1
 75
     1
176
     1
175
     1
176
     1
 42
1.0
176
     1
 92
        0
176
     1
 66
   257
176
     1
 43
1.0
176
     1
 76
     1
176
     1
 77
     6
176
     1
 78
     2
176
     1
 67
     7
176
     1
 79
     5
176
     1
170
     0
176
     1
171
     0
176
     1
290
     0
176
     1
 93
       13
176
     1
 44
0.0
176
     1
173
     0
176
     1
  0
VISUALSTYLE
  5
38
102
{ACAD_REACTORS
330
2A
102
}
330
2A
100
AcDbVisualStyle
  2
Linepattern
 70
    14
177
     2
291
     1
 71
     2
176
     1
 72
     2
176
     1
 73
     0
176
     1
 90
        0
176
     1
 40
-0.6
176
     1
 41
-30.0
176
     1
 62
     5
 63
     7
421
 16777215
176
     1
 74
     1
176
     1
 91
        4
176
     1
 64
     7
176
     1
 65
   257
176
     1
 75
     7
176
     1
175
     7
176
     1
 42
1.0
176
     1
 92
        8
176
     1
 66
     7
176
     1
 43
1.0
176
     1
 76
     1
176
     1
 77
     6
176
     1
 78
     2
176
     1
 67
     7
176
     1
 79
     5
176
     1
170
     0
176
     1
171
     0
176
     1
290
     0
176
     1
 93
        1
176
     1
 44
0.0
176
     1
173
     0
176
     1
  0
VISUALSTYLE
  5
33
102
{ACAD_REACTORS
330
2A
102
}
330
2A
100
AcDbVisualStyle
  2
Realistic
 70
     8
177
     2
291
     0
 71
     2
176
     1
 72
     2
176
     1
 73
     0
176
     1
 90
        0
176
     1
 40
-0.6
176
     1
 41
-30.0
176
     1
 62
     5
 63
     7
421
 16777215
176
     1
 74
     1
176
     1
 91
        0
176
     1
 64
     7
176
     1
 65
   257
176
     1
 75
     1
176
     1
175
     1
176
     1
 42
1.0
176
     1
 92
        8
176
     1
 66
     8
424
  7895160
176
     1
 43
1.0
176
     1
 76
     1
176
     1
 77
     6
176
     1
 78
     2
176
     1
 67
     7
176
     1
 79
     5
176
     1
170
     0
176
     1
171
     0
176
     1
290
     0
176
     1
 93
       13
176
     1
 44
0.0
176
     1
173
     0
176
     1
  0
VISUALSTYLE
  5
37
102
{ACAD_REACTORS
330
2A
102
}
330
2A
100
AcDbVisualStyle
  2
Thicken
 70
    13
177
     2
291
     1
 71
     2
176
     1
 72
     2
176
     1
 73
     0
176
     1
 90
        0
176
     1
 40
-0.6
176
     1
 41
-30.0
176
     1
 62
     5
 63
     7
421
 16777215
176
     1
 74
     1
176
     1
 91
        4
176
     1
 64
     7
176
     1
 65
   257
176
     1
 75
     1
176
     1
175
     1
176
     1
 42
1.0
176
     1
 92
       12
176
     1
 66
     7
176
     1
 43
1.0
176
     1
 76
     1
176
     1
 77
     6
176
     1
 78
     2
176
     1
 67
     7
176
     1
 79
     5
176
     1
170
     0
176
     1
171
     0
176
     1
290
     0
176
     1
 93
        1
176
     1
 44
0.0
176
     1
173
     0
176
     1
  0
ENDSEC
  0
EOF
