<?xml version="1.0" encoding="utf-8"?>
<!-- Generator: Adobe Illustrator 23.0.2, SVG Export Plug-In . SVG Version: 6.00 Build 0)  -->
<svg version="1.1" id="adventure_awaits" xmlns="http://www.w3.org/2000/svg" xmlns:xlink="http://www.w3.org/1999/xlink" x="0px"
	 y="0px" viewBox="0 0 864 864" style="enable-background:new 0 0 864 864;" xml:space="preserve">
<path d="M174.1,555.42c-8.21,3.41-17.24,4.31-26.13,4.44c-13.02,0.2-19.23-4.43-29.21-11.43c-6.29-4.41-22.06-12.92-29.9-11.82
	c5.84-0.81,11.58-2.37,17.03-4.62c5.28-2.18,16.28-4.28,15.02-11.26c1.13,3.98,4.9,5.01,7.68,1.09c-0.79-1.53-1.31-3.53-0.87-5.26
	c1,1.5,3.27,1.95,4.77,0.95c1.23,3.31,6.41,3.48,8.78,0.86c2.37-2.61,2.39-6.64,1.39-10.02c-1.37,1.09-3.64,0.76-4.65-0.68
	c0.76-1.54,1.51-3.09,2.27-4.63c-1.97,1.28-5.01-1.01-4.33-3.25c5.73,1.03,11.83-0.1,16.81-3.13c2.32-1.41,4.56-3.26,7.27-3.44
	c1.59-0.11,3.2,0.4,4.78,0.16c1.37-0.21,2.59-0.96,3.74-1.74c9.08-6.1,16.54-14.57,21.43-24.35c1.94-3.87,3.78-9.1,8.43-10.36
	c1.95-0.53,4.43-0.57,6.26-1.33c1.55-0.63,2.81-2.57,4.6-2.48c3,0.17,5.15,1.15,8.42,0.95c2.39-0.14,4.9,0.03,7.26-0.24
	c2.01-0.23,4.36-1.6,6.33-1.29c5.95,0.93,12.11,1.52,17.76-1.61c1.31-0.73,2.55-1.68,4.01-2.03c2.39-0.57,4.82,0.55,7.1,1.46
	c3.92,1.57,8.05,2.6,12.24,3.06c2.1,0.23,4.77,0.68,6.85,0.3c1.98-0.36,3.68-1.65,5.64-2.27c3.36-1.07,6.97-0.89,10.5-0.7
	c2.21,0.12,4.42,0.24,6.61,0.59c1.55,0.25,3.15,0.65,4.35,1.67c-2.7-0.16-5.41-0.31-8.11-0.47c-4.09-0.24-8.61-0.34-11.79,2.24
	c-0.81,0.66-1.5,1.47-2.17,2.27c-2.28,2.7-4.47,5.48-6.69,8.26c-3.92,5.09-7.36,10.54-10.79,15.97c-1.28,2.03-2.59,4.12-3.07,6.47
	c-0.56,2.74,0.04,5.57,0.68,8.3c3.45,14.83,7.74,29.47,12.86,43.81c-2.95,2-6.99,2.28-10.18,0.69c-11.38-5.65-5.1-26.39-15.91-33.05
	c-1.41,7.77-2.82,15.54-4.23,23.31c-3.32-5.25-5.52-11.2-6.39-17.35c-1.56,0.63-3.12,1.25-4.69,1.88
	c-2.76-5.52-7.98-9.74-13.95-11.28c-3.72,7.39-9.61,13.67-16.75,17.86c-2.8,1.64-5.87,3.04-7.93,5.55
	c-2.32,2.83-2.99,6.63-4.32,10.04C189.68,545.82,182.31,552.01,174.1,555.42z M336.03,539.31c0.26,0.81,1.08,1.28,1.84,1.68
	c7.97,4.14,16.28,8.38,25.25,8.68c-6.83-7.07-13.65-14.14-20.48-21.22c-1.38-1.43-2.82-2.99-3.12-4.95c-0.47-3.11,1.5-7.5-1.41-8.68
	c-1.19-0.48-2.51,0.07-3.78,0.18c-3.36,0.31-6.24-2.41-7.97-5.31c-1.73-2.89-2.86-6.22-5.24-8.6c-3-2.99-7.75-4.25-9.68-8.02
	c-1.21-2.35-1.01-5.13-0.97-7.78c0.09-5.4,0.55-13.23-2.23-18.08c-0.9-1.57-12.4-10.16-10.69-11.35
	c-6.49,4.51-13.06,9.1-18.18,15.12c-1.55,1.82-2.95,3.75-4.35,5.68c-0.93,1.28-1.86,2.56-2.79,3.84c-1.1,1.52-2.21,3.05-3.31,4.57
	c-0.48,0.67-0.98,1.37-1.11,2.18c-0.14,0.89,0.17,1.79,0.48,2.63c6.2,16.89,7.66,36.75,18.69,51.47c1.46-4.13,4.06-7.86,7.42-10.66
	c2.38,3.64,6.15,6.34,10.36,7.43c0.02-8.37,0.04-16.73,0.06-25.1c0.01-3.75,0.25-8.02,3.16-10.39c0.84,5.07,3.09,9.91,6.44,13.81
	c2.63,3.07,6.13,7.25,3.72,10.5c6.18-0.41,12.48,1.31,17.6,4.81c0.94,0.64,1.92,1.49,1.96,2.63
	C337.78,536.17,335.49,537.61,336.03,539.31z M412.01,437.08c-2.1-2.81-4.21-5.65-5.71-8.83c-0.51-1.08-0.96-2.22-1.77-3.09
	s-2.11-1.44-3.22-1.01c-0.53,0.21-0.98,0.62-1.54,0.74c-0.54,0.12-1.1-0.05-1.62-0.23c-3.05-1.06-5.94-2.55-8.58-4.41
	c-3.04-2.15-6.07-4.83-9.21-2.37c-2.59,2.04-4.4,5-7.22,6.99c-5.56,3.91-11.95,6.42-17.9,9.65c-3.45,1.87-6.75,4.01-10.05,6.15
	c-10,6.48-20.19,11.23-31.25,15.33c-3.03,1.12,5.34,6.93,6.11,7.12c4.98,1.18,12.22-2.43,17.38-3.36
	c6.03-1.09,12.73-1.66,17.81,1.77c2.92,1.97,4.89,5.02,6.78,7.99c1.49,2.34,3.02,4.76,3.51,7.5c0.49,2.74-0.32,5.9-2.66,7.4
	c-1.73,1.11-4.37,1.56-4.7,3.59c-0.2,1.2,0.61,2.3,1.37,3.25c5.38,6.7,10.75,13.41,16.13,20.11c3.46-4.95,5.03-11.18,4.34-17.18
	c3.22-0.16,6.43-0.32,9.65-0.48c-3.3-3.07-7.17-5.51-11.36-7.17c3.21-2.51,5.62-6.02,6.8-9.92c-2.42,1.05-4.84,2.1-7.26,3.15
	c-1.58-10.01,7.92-17.9,12.32-27.03c2.1-4.36,2.93-9.25,2.63-14.07c-0.08-1.2-3.04-9.61-1.74-9.99c0.95-0.28,0.99,1.45,1.7,2.14
	c0.33,0.33,0.83,0.4,1.29,0.43c2.4,0.17,4.84-0.39,6.92-1.59c0.22-0.12,0.44-0.26,0.69-0.27c0.45-0.01,0.79,0.38,1.06,0.73
	c4.14,5.34,9.07,10.07,14.57,13.99C415.51,441.77,413.76,439.43,412.01,437.08z M70.53,517.14c1.86,1.04,3.63,2.26,5.06,3.85
	c0.75,0.83,1.4,1.74,2.2,2.51c2.99,2.88,8.05,3.28,11.45,0.9c2.4,2.88,5.46,5.2,8.88,6.73c2.5-2.13,3.4-5.52,4.94-8.42
	c1.79-3.38,4.58-6.22,7.93-8.07c-1.35-0.77-3.03-0.26-4.56,0.02s-3.49,0.06-4.08-1.38c-0.49-1.21,0.21-2.88-0.77-3.74
	c-0.48-0.42-1.19-0.44-1.83-0.44c-9.65,0.05-19.46-0.01-29.07,0.83c-2.4,0.21-7.59,1.47-5.31,4.77
	C66.08,515.73,69.36,516.49,70.53,517.14z M56.92,510.2c1.34,0.24,2.52-0.78,3.74-1.37c1.91-0.93,4.16-0.85,6.16-1.56
	c0.31-0.11,0.63-0.25,0.82-0.52c0.3-0.42,0.19-1.02,0.38-1.5c0.36-0.89,1.54-1.05,2.5-0.97c0.96,0.08,2.06,0.21,2.75-0.46
	c0.48-0.47,2.74-7.76,2.49-8.12c1.03,1.5,2.06,2.99,3.09,4.49c0.21,0.3,0.43,0.62,0.76,0.79c0.39,0.21,0.87,0.17,1.31,0.12
	c2.47-0.31,4.88-1.08,7.07-2.26c0.31-0.17,0.64-0.35,0.99-0.36c0.58-0.03,1.07,0.38,1.52,0.74c3.85,3.12,8.91,4.71,13.85,4.36
	c-2.31-1.08-4.62-2.15-6.94-3.23c-1.36-0.63-2.77-1.3-3.72-2.45c-0.62-0.74-1.05-1.69-1.91-2.14c-1.83-0.96-4.02,1.02-6.03,0.56
	c-0.59-0.13-1.12-0.47-1.63-0.8c-1.47-0.95-3.02-1.93-4.24-3.2c-1.15-1.12-0.81-1.66-2.54-1.85c-0.38-0.04-0.77-0.08-1.13,0.04
	c-0.32,0.11-0.58,0.33-0.84,0.55c-2.2,1.9-2.65,2.9-3.11,5.79c-0.13,0.8-0.25,1.61-0.38,2.41c-1.48-0.34-3.28-0.58-4.28,0.57
	c-0.31,0.36-0.5,0.82-0.88,1.11c-0.38,0.3-0.88,0.37-1.36,0.43c-1.25,0.17-3.55,0.02-4.58,0.78c-0.82,0.61-1.34,2.52-1.57,3.45
	c-0.56,2.24-3.19,3.15-5.43,3.69C54.84,508.96,55.82,510,56.92,510.2z M127.54,504.72c1.83-0.82,3.33-2.22,4.79-3.59
	c0.45-0.43,0.91-0.86,1.24-1.39c-2.56,0.69-5.11,1.38-7.67,2.07c-3.65,0.99-7.53,2.14-11.35,2.03c-2.71-0.08-5.28-1.05-8.02-0.53
	c1.95,1.02,3.83,2.07,5.49,3.55c0.34,0.3,0.69,0.63,1.13,0.74c0.35,0.09,0.72,0.02,1.08-0.05c3.09-0.58,6.19-1.17,9.28-1.75
	C124.89,505.55,126.27,505.29,127.54,504.72z M114.36,514.56c-0.09,0.61-0.93,7.99-1.47,8.03c1.77-0.12,3.54-0.65,4.94-1.73
	c4.73-3.64,1.68-4.05-0.93-4.64C115.49,515.9,114.21,515.53,114.36,514.56z M125.15,509.85c2.16,1.48,4.32,2.96,6.48,4.45
	c0.18,0.12,0.38,0.25,0.6,0.23c0.19-0.02,0.35-0.14,0.48-0.27c1.08-1.04,1.26-2.68,1.38-4.17c0.13-1.58,0.26-3.16,0.39-4.74
	c-0.98,0.14-1.96,0.29-2.94,0.43l-0.6,0.96c-2.12,0.02-4.23,0.79-5.87,2.15c-0.15,0.12-0.31,0.28-0.3,0.47
	C124.77,509.57,124.97,509.73,125.15,509.85z M615.51,585.22c-2.37,2.32-1.78,6.89,1.11,8.53c0.81,0.46,1.73,0.7,2.61,1.01
	c3.41,1.18,6.46,3.37,8.66,6.23c0.44,0.58,0.87,1.2,1.5,1.58c0.62,0.38,1.51,0.44,2.03-0.08c0.27-0.27,0.39-0.66,0.51-1.03
	c1.37-4.49,5.82-12.59,2.46-16.9c-1.32-1.69-4.54-1.8-5.63-3.4c-1.36-1.98,0.68-5.81-2.41-6.96c-0.9-0.33-1.89-0.07-2.81,0.19
	c-3.28,0.94-6.56,1.88-9.84,2.82c-0.56,0.16-1.13,0.32-1.7,0.24c-0.97-0.14-1.69-0.94-2.44-1.56c-0.75-0.63-1.84-1.13-2.68-0.62
	c2.9,2.8,5.81,5.61,8.71,8.41c0.21,0.2,0.44,0.44,0.44,0.74C616.02,584.74,615.74,584.99,615.51,585.22z M688.41,585.49
	c0.55-0.42,1.28-0.51,1.96-0.62c8.82-1.32,17.05-6.23,22.4-13.37c1.85-2.47,3.36-5.95,1.63-8.5c-5.04,3.52-13.23,0.22-14.43-5.8
	c-0.3-1.5-0.22-3.05-0.27-4.58c-0.29-9.14-5-17.47-9.6-25.37c-0.47-0.82-1.02-1.7-1.92-1.99c-1.1-0.36-2.26,0.3-3.23,0.94
	c-3.1,2.04-6.21,4.18-8.54,7.07c-5.98,7.4-8.91,23.09-21.68,18.42c-4.83-1.77-6.93-3.15-11.79-0.18
	c-6.18,3.78-11.71,9.4-16.22,15.01c4.02-0.42,8.1-0.19,12.04,0.67c2,0.43,4.45,1.8,3.94,3.78c-0.14,0.55-0.5,1-0.85,1.45
	c-2.01,2.52-4.01,5.04-6.02,7.56c4.67-0.21,8.85,2.66,12.64,5.4c7.27,5.28,14.55,10.55,21.82,15.83c1.76,1.27,3.55,2.57,5.63,3.18
	c4.96,1.47,10.15-1.22,15.33-1.36c-1.15-4.4-2.3-8.8-3.44-13.2C687.44,588.32,687.17,586.43,688.41,585.49z M710.7,611.58
	c9.24,2.88,18.48,5.76,27.72,8.63c-4.63-1.58-8.28-5.13-11.76-8.57c-0.3-0.3-0.61-0.61-0.76-1.01c-0.17-0.48-0.08-1.01-0.13-1.52
	c-0.12-1.34-1.15-2.41-2.11-3.35c-2.35-2.29-10.84-6-11.98-8.56c1.03,2.17,1.95,4.4,2.74,6.67c0.63,1.78,0.88,4.3-0.86,5.03
	c-0.81,0.34-1.73,0.1-2.6,0.21c-0.87,0.11-1.8,0.96-1.4,1.74C709.77,611.27,710.26,611.44,710.7,611.58z M741.54,522.49
	c0.75,0.16,1.53-0.07,2.26-0.31c4.48-1.47,8.81-3.43,12.87-5.83c-6.13,2.33-12.91,2.89-19.34,1.6c-1.08-0.22-2.19-0.49-3.28-0.27
	c-0.94,0.19-1.77,0.72-2.55,1.26c-2.5,1.72-4.87,3.62-7.08,5.69c-0.28,0.26-0.62,0.54-0.99,0.46c-0.22-0.05-0.39-0.21-0.54-0.37
	c-1.62-1.62-3.06-3.41-4.44-5.23c-1.44-1.91-2.77-2.83-4.75-4.18c-0.4-0.27-0.8-0.55-1.12-0.9c-0.28-0.3-0.49-0.65-0.7-1
	c-2.37-3.87-3.96-7.65-7.84-10.17c-3.02-1.96-6.38-3.35-9.34-5.4c-2.48-1.72-5.02-4.22-5.75-7.26c-0.63-2.62-0.49-5.7-4.19-4.93
	c-3.9,0.82-8.14-0.15-11.29-2.59c-10.82,2.97-22.23,4.06-33.42,4.77c-2.13,0.14-5.33,1.23-7.02-0.54c-0.27-0.28-0.5-0.62-0.86-0.75
	c-0.28-0.1-0.58-0.07-0.87-0.02c-3.87,0.62-6.19,2.37-10.32,2.41c-4.22,0.04-8.47-0.26-12.5-1.61c-3.73-1.25-6.99-3.89-11-3.82
	c-0.3,0.01-0.61,0.02-0.89-0.1c-0.26-0.12-0.45-0.37-0.62-0.6c-2.08-2.79-7.14-11.61-11.59-10.76c-9.41,1.78-19.11,2.88-28.03-1.53
	c2.13,4.16,7.47,5.25,12.1,5.86c5.79,0.77,11.82,1.51,17.38-0.29c2.42,4.21,5,8.58,9.13,11.14c6.53,4.06,15.15,2.52,22.27,5.45
	c0.49,0.2,0.82,0.66,0.89,1.17c-2.28,0.42-2.91,2.28-2.66,4.44c0.28,2.42,1.96,4.48,3.88,5.97c4.52,3.5,10.81,4.58,16.23,2.76
	c-5.35,7.11-10.71,14.22-16.06,21.33c-1.8,2.38-3.63,4.86-4.35,7.75c-0.31,1.26-0.4,2.58-0.82,3.82c-1.14,3.35-4.41,5.42-7.45,7.23
	c5.14,0.54,5.5,10.45,10.66,10.07c1.15-0.08,2.17-0.75,3.13-1.38c7.1-4.72,14.19-9.45,21.29-14.17c2.68-1.79,5.44-3.61,8.57-4.38
	c2.87-0.72,5.89-0.51,8.83-0.89c3.28-0.42,6.56-1.64,8.91-3.96c4.57-4.5,4.63-11.71,4.4-18.12c-0.18-4.98-0.37-9.95-0.55-14.93
	c-0.14-3.9-1.28-7.29-1.25-11.08c3.29-0.32,6.58-0.65,9.87-0.97c0.62-0.06,1.28-0.11,1.81,0.2c0.84,0.49,0.98,1.62,1.19,2.56
	c1.01,4.44,5.27,7.2,9,9.81c11.42,8,20.84,18.84,27.19,31.26c2.92-0.99,5.6-2.67,7.75-4.88c1.58-1.61,2.89-3.5,4.7-4.83
	c1.82-1.33,4.39-1.99,6.31-0.82C739.67,521.23,740.42,522.25,741.54,522.49z M530.15,558.74c-1.71-2.51-6.12-6.57-9.43-4.17
	c-0.91,0.66-1.39,1.88-1.17,2.98c-1.12,0.1-2.27-0.13-3.28-0.64c0.42,0.6-0.16,1.5-0.89,1.6c-0.72,0.11-1.42-0.34-1.92-0.87
	c-2.67-2.82-4.76,0.33-6.4,3.13c-1.26,2.16-1.78,4.42-1.99,6.88c-0.11,1.27,0.41,2.72-0.01,3.94c-0.46,1.32-2.47,2.3-2.72,3.26
	c-1.24,4.76,4.34,2.49,7.32,1.93c4.37-0.83,8.85-1.1,13.3-0.81c0.46,0.03,0.99,0.04,1.28-0.32c0.22-0.27,0.22-0.64,0.2-0.99
	c-0.04-0.95-0.07-1.89-0.11-2.84c-0.03-0.82-0.06-1.67,0.23-2.45C526.41,564.38,535.01,565.87,530.15,558.74z M536.58,573.2
	c0,3.07-3.39,5.63-2.65,8.68c3.02-0.91,6.25-1.13,9.37-0.66c1.85,0.28,3.74,0.81,5.57,0.42c1.27-0.27,2.4-0.95,3.5-1.63
	c3.54-2.17,7.76-4.67,9.38-8.68c-4.21,2.17-8.29,5.87-13.3,5.82C544.27,577.11,540.41,574.48,536.58,573.2z M569.7,570.98
	c0.34,0.3,0.73,0.59,1.18,0.61c1.25,0.07,1.63-1.62,2.17-2.76c1.37-2.88,5.34-3,8.18-4.45c5.03-2.56,6.17-9.11,6.71-14.72
	c0.15-1.56,0.26-3.29-0.68-4.55s-3.36-1.34-3.8,0.17c-5.99-10.1-12.16-20.09-18.5-29.97c-0.27,2.1-0.53,4.2-0.8,6.3
	c-5.62-7.95-12.79-14.64-19.91-21.28c-3.47-3.23-6.32-3.35-8.57-7.89c-2.8-5.66-5.64-11.49-6.21-17.78
	c-0.2-2.21-0.33-4.84-2.23-5.99c-0.96-0.58-2.14-0.61-3.2-0.98c-2.99-1.05-4.09-4.31-4.93-7.07c-1.17-3.86-0.82-3.92,3.04-2.48
	c4.04,1.51,8.06,3.04,12.1,4.54c1.79,0.66,9.92,2.38,10.71,3.92c-2.38-4.65-8.67-5.17-13.31-7.57c-3.51-1.82-6.29-4.91-9.95-6.38
	c-2.62-1.05-5.57-1.21-8.04-2.58c-1.26-0.7-2.34-1.68-3.63-2.32c-3.87-1.89-8.93,0.16-12.55-2.02c-2.68-1.61-3.64-5.3-6.31-7.21
	c-2.51,3.36-6.81,3.64-10.71,3.43c-4.46-0.21-8.92-0.43-13.39-0.64c-1.41-0.07-2.88-0.16-4.08-0.91c-1.76-1.11-3.27-3.64-5.17-2.8
	c-1.46,0.64-1.42,2.71-1.13,4.28c0.92,5.08,1.85,10.16,2.78,15.24c0.39,2.15,0.79,4.37,0.4,6.52c-1.23,6.83-9.72,10.77-10.4,17.68
	c-0.17,1.73,0.19,3.46,0.25,5.19c0.11,3.27-0.83,6.47-1.61,9.65c-2.29,9.33-3.2,18.94-4.1,28.5c7.7-9.38,13.57-20.27,17.17-31.86
	c0.97-3.12,2.19-6.75,5.28-7.82c5.12-1.78,9.52,5.04,14.94,5.15c-2.37-4.49-4.75-8.99-7.12-13.48c-0.27-0.51-0.55-1.1-0.38-1.65
	c0.36-1.17,2.07-0.96,3.21-0.5c3.31,1.33,6.61,2.65,9.92,3.98c0.95,0.38,1.95,0.8,2.55,1.63c0.87,1.2,0.62,2.85,0.34,4.3
	c-0.88,4.52-1.76,9.04-2.64,13.56c-0.23,1.2-0.48,2.42-1.11,3.46c-2.2,3.64-7.71,3.34-11.01,6.03c-2.71,2.21-3.46,6.03-5.64,8.76
	c-2.64,3.3-6.98,4.61-10.99,5.96c-12.52,4.22-24.31,10.58-34.72,18.72c7.93-0.31,15.86-0.62,23.79-0.92
	c3.73-0.14,7.5-0.29,11.11-1.25c2.05-0.54,4.25-1.34,6.22-0.55c0.97,0.38,1.76,1.11,2.72,1.52c1.33,0.56,2.89,0.46,4.14,1.18
	c1.27,0.73,1.95,2.14,2.88,3.27c2.45,3,7.04,4,10.51,2.29c0.86-3.06,4.57-4.39,7.74-4.2c3.17,0.2,6.22,1.43,9.39,1.52
	c3.17,0.08,6.82-1.56,7.36-4.68c0.36-2.1-0.79-4.27-0.3-6.35c0.72-3.07,4.37-4.23,6.75-6.29c3.77-3.24,4.32-8.74,5.28-13.63
	s3.43-10.41,8.34-11.24c3.84,2.73,5.93,7.08,8.59,10.83c0.49,0.69,0.99,1.39,1.48,2.08c1.53,2.16,3.08,4.34,5.02,6.15
	c0.86,0.81,1.8,1.54,2.8,2.18c0.6,0.39,1.22,0.74,1.76,1.21c1.24,1.06,2.02,2.68,3.49,3.38c0.76,0.36,1.62,0.44,2.42,0.68
	c3.42,1.06,5.02,4.89,6.19,8.27c2.09,6.06,4.2,12.22,4.51,18.63C566.31,560.63,565.51,567.21,569.7,570.98z M444.67,431.68
	c4.29-0.16,7.85,4.28,12.11,3.77c-1.06-1.13-2.13-2.27-3.19-3.4c-0.47-0.5-0.95-1.01-1.54-1.36c-0.66-0.4-1.43-0.59-2.16-0.87
	c-2.76-1.06-4.84-3.4-6.5-5.85c-2.02,4.73-5,8.37-7.7,12.75c-2.24,3.63-4.64,7.57-8.85,9.13c-1.98,0.73-4.25,1.38-5.32,3.2
	c-0.61,1.04-0.72,2.3-0.72,3.51c-0.01,7.1,2.92,13.84,5.93,20.27c1.98,4.23,4.09,8.52,7.45,11.77c1.33,1.29,2.87,2.43,3.74,4.06
	c1.78,3.34,0.3,7.87,2.53,10.93c1.25-12.67,3.42-25.25,6.51-37.6c-3.68,0.02-6.31-3.91-6.48-7.58c-0.19-4.06,2.66-7.65,3.39-11.43
	C444.12,441.72,442.58,431.76,444.67,431.68z M400.73,473.08c2.47,2.17,6.12,2.16,9.41,2.02c-2.17,0.09-7.28-9.12-7.81-10.98
	c-1.36-4.84-2.35-9.59-4-14.38c-2.84,3.2-8.42,8.58-9.32,12.83c-0.92,4.31,4.37,6.47,1.77,11.53c-0.46,0.9-0.42,1.97-0.33,2.98
	c0.41,4.49,1.5,8.92,3.22,13.09c-0.02-6.56,0.63-13.13,1.94-19.56c0.85-0.59,2.05-0.3,2.89,0.31S399.96,472.39,400.73,473.08z
	 M411.13,507.64c3.97,4.81,11.92,11.98,18.15,13.1c0.45-1.41-0.11-2.93-0.69-4.29c-3.07-7.31-5.94-14.98-10.85-21.3
	c-2.64-3.39-5.28-5.24-9.02-7.06c-1.72-0.84-11.39-5.76-11.39-7.68c0.13,1.98,0.82,3.93,1.97,5.55c2.88,4.07,3.2,8.78,5.15,13.07
	c0.89,1.96,1.78,3.92,2.67,5.88c0.83,1.83,1.67,3.67,2.5,5.5C409.29,509.65,410.68,508.02,411.13,507.64z M352.71,474.82
	c-2.14-13.93-18.11-12.52-26.97-6.55c-0.28,0.19-0.57,0.4-0.7,0.72c-0.19,0.49,0.09,1.03,0.41,1.45c0.66,0.86,1.53,1.57,2.05,2.52
	s0.56,2.32-0.32,2.96c-0.42,0.31-1.07,0.5-1.14,1.02c-0.06,0.47,0.41,0.82,0.82,1.06c6.15,3.54,12.7,6.59,17.9,11.41
	c4.2,3.9,7.42,8.88,12.17,12.08c-1.61-6.73-9.03-11.26-9.52-18.17C351.08,482.75,353.27,478.49,352.71,474.82z M395.23,513.06
	c-0.27,0.2-0.27,0.6-0.25,0.93c0.27,3.6,1.5,16.02,5.07,18.18c2.87,1.7,6.46,3.18,9.8,3.19c0.75,0-4.18-9.2-4.62-9.88
	c-2.14-3.32-3.19-6.91-4.21-10.79c-1.61-0.56-3.22-1.1-4.84-1.64C395.86,512.95,395.49,512.86,395.23,513.06z M323.9,613.92
	c0.5,2.16,2.81,3.46,5.02,3.68c2.21,0.21,4.4-0.38,6.6-0.65c5.91-0.71,12.09,1.09,16.69,4.87c6.21-3.2,10.94-9.15,12.66-15.92
	c-1.6,1.8-4.57,0.62-6.5-0.82c-2.33-1.74-4.47-3.74-6.37-5.95c-5.21-6.06-8.99-14-16.33-17.17c-1.12-0.49-2.37-0.89-3.11-1.86
	c-0.85-1.11-0.8-2.65-0.73-4.05c0.45-9.61-0.33-19.28-2.3-28.69c-0.2-0.96-0.52-2.04-1.42-2.43c-0.75-0.32-1.6-0.02-2.38,0.22
	c-5.07,1.6-9.87,0.4-14.47-1.85c-0.62,0.99-1.6,1.57-2.8,1.62c-2.83,0.12-6.44-0.24-9.19-0.3c-2.6-0.05-4.58-0.33-5.89-3.21
	c-4.6,8.58-11.79,16.5-22.11,13.58c-0.35-0.1-0.74-0.2-1.05-0.01c-0.67,0.4-0.18,1.42,0.35,1.99c3.05,3.25,6.09,6.5,9.14,9.75
	c2.39,2.55,2.09,5.53,0.59,8.52c-0.64,1.28-1.5,2.71-0.96,4.04c0.21,0.52,0.62,0.94,1.02,1.33c5.56,5.45,12.14,9.85,19.31,12.9
	c2.58,1.1,5.32,2.08,7.3,4.06c1.51,1.51,2.52,3.54,4.29,4.74c2.05,1.38,4.68,1.39,7.12,1.8c2.44,0.41,5.13,1.64,5.69,4.04
	C324.51,610.04,323.47,612.04,323.9,613.92z M156.2,651.88c12.64,5.3,25.97,8.93,39.55,10.75c2.48,0.33,5.28,0.52,7.18-1.11
	c1.91-1.63,2.15-4.44,2.26-6.95c0.24-5.89,0.49-11.78,0.73-17.67c0.02-0.48,0.04-0.98-0.15-1.42c-0.23-0.56-0.73-0.94-1.22-1.3
	c-4.04-2.99-8.07-5.98-12.11-8.98c-2.79-2.07-5.6-4.15-8.74-5.61c-5.39-2.5-11.86-3.27-15.96-7.57c-2.53-2.66-4.16-6.63-7.71-7.57
	c0.06,2.52-3.1,4.11-5.54,3.45s-4.2-2.71-5.81-4.66c-3.2-3.89-6.23-8.34-9.88-11.78c-1.74,2.6,0.32,8.89,0.74,12.03
	c0.09,0.69,0.2,1.42,0.66,1.96c0.61,0.71,1.64,0.85,2.4,1.39c1.12,0.78,1.48,2.25,1.77,3.58c2.69,12.37,6.54,25.16,15.55,34.05
	c1.78,1.75,3.91,3.76,3.61,6.24C161.16,651.49,158.68,652.2,156.2,651.88z M402.24,587.27c-1.32-1.1-2.72-2.19-4.37-2.67
	c-1.7-0.5-3.51-0.31-5.27-0.46c-1.94-0.16-3.82-0.72-5.69-1.28c-5.68-1.7-11.37-3.4-17.05-5.11c2.61,1.78,4.58,4.33,6.85,6.54
	c2.26,2.21,5.06,4.17,8.23,4.27c1.24,3.7-0.49,7.89-3.35,10.55c-3.89,3.62-9.94,5.44-15.11,6.11c0.97-0.12,4.17,2.79,5.59,3.08
	c2.28,0.47,3.9-0.18,6.01-1.06c2.36-0.98,4.9-2.13,6.08-4.39c0.41-0.79,0.63-1.67,1.01-2.48c0.52-1.11,1.32-2.05,2.11-2.98
	c2.17-2.54,4.34-5.08,6.51-7.62c0.46-0.53,0.93-1.08,1.55-1.41c1.11-0.57,2.47-0.32,3.62,0.16c4.03,1.7,6.91,6.03,11.26,6.42
	C407.75,592.2,405.08,589.64,402.24,587.27z M367.07,639.27c0.45,1.23,2.01,1.5,3.29,1.77c4.78,1.02,8.55,4.53,12.33,7.62
	c7.23,5.9,15.98,10.83,25.3,10.43c-4.72-4.93-6.92-11.67-10.04-17.75c-2.9-5.65-6.66-10.81-10.4-15.95
	c-4.45-6.1-10.15-9.7-16.7-13.19c-0.27-0.14-0.56-0.29-0.86-0.26c-0.52,0.06-0.83,0.59-1.05,1.06c-1.46,3.09-2.69,4.94-5.01,7.33
	c-2.27,2.33-5.21,5.82-3.73,9.31c1.35,3.2,6.47,3.94,6.74,7.75C366.97,638.03,366.85,638.68,367.07,639.27z M157.27,195.34
	c0.72-7.39,1.49-14.77,2.32-22.15c1.66-14.76,3.54-29.5,5.65-44.21c2.16-15.01,4.53-30.07,7.58-44.96
	c1.63-7.98,2.92-16.01,4.9-23.92c2.15-8.59,3.81-22.5,16.33-24.02c6.73-0.81,10.97,4.65,12.42,9.67c1.81,6.29,2.43,12.92,3.52,19.32
	c1.21,7.11,2.27,14.23,3.39,21.35c2.28,14.53,4.53,29.07,6.73,43.61c2.16,14.27,4.32,28.54,6.48,42.8
	c1.12,7.42,2.25,14.84,3.37,22.26c1.07,7.07,2.88,14.39,2.9,21.53c0.01,2.72-1.41,5.42-4.24,6.77c-2.15,1.02-5.55,0.96-6.35-1.55
	c-2.4-7.48-2.88-15.67-4.05-23.35c-1.22-7.99-2.44-15.97-3.66-23.96c-0.65-4.27-1.3-8.54-1.96-12.81c-0.39-2.54,0.2-8.45-3.38-9.33
	c-3.08-0.76-6.89-0.21-10.05-0.16c-3.88,0.06-7.77,0.09-11.65-0.02c-3.26-0.1-10.42-1.56-12.81,0.53c-2.18,1.91-1.65,5.12-1.93,7.56
	c-0.43,3.64-0.85,7.29-1.25,10.93c-0.81,7.29-1.57,14.58-2.26,21.88c-0.38,3.98-0.74,7.96-1.11,11.94
	c-0.37,3.99-0.15,8.41-1.54,12.26c-2.01,5.54-9.84,11.01-15.63,5.72c-2.07-1.9-0.8-5.09,0.27-7.03c0.77-1.4,2.23-2.15,3.06-3.54
	C157.35,207.36,156.73,200.91,157.27,195.34z M176.43,137.88c0.03,0.88,0.2,1.95,1.14,2.3c0.34,0.13,0.71,0.13,1.08,0.13
	c0.98,0,5.79-0.09,11.31-0.24c8.71-0.24,19.19-0.62,19.19-1.01c-0.63-4.15-1.27-8.31-1.9-12.46c-2.44-15.99-4.77-31.99-7.13-47.99
	c-1.18-8.02-2.16-16.06-3.32-24.08c-0.29-2.02-1.11-8-3.9-8.68c-3.55-0.87-5.05,4.51-5.06,6.42c-0.03,4.24-1.11,8.6-1.7,12.81
	c-1.16,8.43-2.37,16.86-3.7,25.27c-1.54,9.7-2.97,19.41-4.34,29.13C177.24,125.61,176.24,131.7,176.43,137.88z M228.88,42.35
	c5.02-6.56,15.06-7.04,22.92-4.39c8.37,2.83,14.98,8.5,19.24,15.27c9.09,14.45,9.15,32.83,10.86,48.84
	c1.97,18.44,3.45,36.91,4.22,55.41c0.38,9.11,0.58,18.22,0.58,27.33c0,8.52,1.23,18.29-3.7,26.01c-3.6,5.65-9.71,9.32-16.73,11.15
	c-6.03,1.57-16.24,3.72-21.57,0.04c-1.99-1.38-2.12-3.36-1.28-5.16c-0.32-1.44-0.29-3.01-0.39-4.73c-0.23-3.99-0.48-7.98-0.73-11.98
	c-0.48-7.71-0.92-15.43-1.39-23.14c-0.96-15.43-2.02-30.86-3.2-46.29c-1.2-15.72-2.56-31.43-3.85-47.14
	c-0.61-7.45-1.37-14.91-1.78-22.37c-0.25-4.64-0.99-8.82-2.26-13.34c-0.21-0.73-0.72-1.84-1.03-2.91
	C228.5,43.96,228.4,42.98,228.88,42.35z M244.05,65.19c0.57,4.99,1.03,10,1.53,14.99c1.56,15.38,2.82,30.79,4.02,46.19
	c1.22,15.7,2.33,31.41,3.31,47.12c0.47,7.43,0.92,14.87,1.28,22.3c0.12,2.43,0.23,4.86,0.34,7.29c0.09,1.9-0.32,4.6,1.21,6.17
	c2.78,2.86,9.01,1.63,12.38,0.49c7.65-2.57,6.4-9.26,6.45-15.38c0.26-31.05-1.89-62.09-5.28-92.99c-1.46-13.36-1.6-28.43-9.19-40.49
	c-1.86-2.96-4.32-5.62-7.28-7.81c-1.4-1.04-6.98-4.98-8.84-2.54c-0.3,0.4-0.31,0.91-0.31,1.38C243.7,56.47,243.53,60.6,244.05,65.19
	z M288.12,67.19c0.92,8.59,2.33,17.14,3.73,25.68c2.47,15,4.89,30,7.44,44.99c2.51,14.73,4.92,29.48,7.54,44.19
	c2.41,13.51,5.59,26.98,12.79,39.26c3.08,5.24,10.69,0.39,10.99-4.02c1.97-29.14,3.63-58.27,4.22-87.46
	c0.29-14.36,0.37-28.72,0.24-43.08c-0.07-7.47-0.19-14.93-0.38-22.4c-0.18-7.36,0.14-14.95-1.19-22.22
	c-1.17-6.37-9.93-2.09-10.36,2.51c-1.31,14.09,0.41,28.66,0.59,42.8c0.19,14.64,0.15,29.28-0.1,43.92
	c-0.34,19.77-1.03,39.55-2.23,59.3c-1.28-5.29-2.27-10.64-3.2-16c-2.52-14.56-4.96-29.14-7.45-43.7
	c-2.5-14.67-5.14-29.33-7.72-43.99c-1.32-7.49-2.61-14.98-4.29-22.41c-0.86-3.77-1.82-7.53-2.94-11.26
	c-0.59-1.96-1.02-7.88-3.94-7.85c-5.38,0.06-4.85,5.46-4.73,8.63C287.31,58.46,287.65,62.83,288.12,67.19z M360.83,222.47
	c10.14,0.6,23.38,1.4,32.69-2.69c3.34-1.47,8.68-10.13,1.73-10.73c-4.79-0.41-9.45,0.73-14.21,1.15c-4.09,0.37-8.19,0.51-12.29,0.45
	c-2.87-21.97-4.96-43.98-6.58-66.03c2.85,0.34,5.93-0.07,8.36-0.82c3.49-1.09,5.96-4.97,5.6-8.09c-0.35-3.1-3.5-4.72-6.81-3.55
	c-2.62,0.93-5.22,0.68-7.97,0.84c-1.87-27.92-3.1-55.87-4.35-83.81c8.01,0.17,16.45-0.03,23.18-3.16c1.39-0.65,2.41-2.4,1.01-3.46
	c-3.59-2.71-8.2-3.05-12.73-3.79c-5.04-0.83-10.12-1.03-15.23-1.33c-5.02-0.29-8.13,3.93-8.15,7.88
	c-0.25,57.95,5.79,115.77,12.23,173.38C357.49,220.3,358.7,222.34,360.83,222.47z M399.11,86.37c1.51,14.28,3.09,28.55,4.36,42.85
	c1.27,14.3,2.33,28.6,3.27,42.92c0.93,14.18,0.75,28.68,2.68,42.78c0.94,6.86,10.92,2.28,11.17-2.7c0.71-14.17-0.8-28.61-1.71-42.77
	c-0.93-14.58-2.15-29.15-3.52-43.7c-0.85-9-1.74-18-2.73-27c5.17,14.06,10.37,28.12,15.64,42.16c5.75,15.31,11.5,30.62,17.24,45.93
	c1.89,5.04,3.79,10.08,5.72,15.12c1.68,4.39,2.93,9.87,5.69,13.82c1.3,1.87,3.22,3.45,5.55,4.26c3.87,1.34,5.02-3.93,5.35-6.35
	c0.37-2.72-0.15-5.29-0.32-7.95c-0.17-2.85,0.17-5.77,0.08-8.64c-0.25-7.55-0.95-15.08-1.59-22.61c-1.26-14.67-2.52-29.33-3.7-44.01
	c-2.4-29.58-4.48-59.18-6.24-88.8c-0.19-3.27-3.76-4.76-7.05-3.68c-3.72,1.22-6,5.08-5.8,8.38c1.72,29.59,3.87,59.16,6.49,88.7
	c1.07,12.07,2.24,24.13,3.51,36.18c-0.04-0.11-0.08-0.22-0.12-0.33c-5.37-14.2-10.74-28.39-16.11-42.59
	c-5.36-14.18-10.79-28.34-16.29-42.48c-2.72-7-5.7-13.95-8.79-20.83c-1.64-3.65-3.12-7.35-5.1-10.88c-1.28-2.27-2.47-5.93-5.83-6.34
	c-7.63-0.94-4.31,14.39-4,17.89C397.56,72.61,398.38,79.49,399.11,86.37z M462.39,51.52c7.29,3.5,16.6,3,24.68,3.08
	c0.14,0,0.29,0.01,0.43,0.01c-0.15,3.7,0.38,7.57,0.44,10.39c0.16,7.5,0.87,15.01,1.47,22.49c1.21,15.19,2.35,30.39,3.58,45.58
	c1.22,15.17,2.4,30.35,3.54,45.52c0.56,7.43,1.17,14.86,1.77,22.29c0.32,4,0.64,7.99,0.96,11.99c0.27,3.4-0.29,6.98,3.52,8.93
	c2.48,1.27,5.21-0.68,6.51-2.38c2.7-3.54,2.16-6.88,1.88-10.91c-0.27-4.01-0.55-8.03-0.82-12.04c-0.55-8.02-1.12-16.04-1.77-24.06
	c-1.26-15.72-2.57-31.44-3.93-47.15c-1.35-15.69-2.9-31.37-4.44-47.04c-0.76-7.72-1.45-15.58-3.07-23.22
	c5.31,0.16,10.65-0.08,14.9-2.19c5.81-2.89,5.43-15.08-2.92-11.52c-2.5,1.07-7.45,0.31-10.27,0.34c-3.89,0.03-7.78,0.02-11.67,0.08
	c-7.68,0.13-15.56,0.15-22.75,2.78C461.95,45.41,459.12,49.95,462.39,51.52z M536.33,87.88c1.32,13.01,1.76,26.08,2.03,39.13
	c0.53,25.54-0.01,51.44,4.61,76.75c1.49,8.18,4.81,18.51,13.86,22.83c11.59,5.53,23.78-2.38,28.55-11.54
	c2.69-5.17,3.27-10.68,3.4-16.28c0.16-7.31,0.06-14.64,0.01-21.95c-0.08-13.16-0.3-26.32-0.67-39.48
	c-0.85-30.89-2.5-61.76-4.89-92.59c-0.25-3.18-3.63-4.66-6.88-3.59c-3.57,1.18-5.92,4.97-5.66,8.18
	c3.9,49.06,5.89,98.23,5.87,147.41c0,4.89,0.89,11.7-2.26,16.06c-2.34,3.25-6.83,3.73-10.25,1.49c-7.21-4.73-8.05-14.74-9-21.8
	c-3.15-23.33-3.1-46.84-3.59-70.29c-0.27-13.06-0.71-26.12-2.03-39.13c-1.32-13.06-2.82-27.21-8.22-39.54
	c-2.84-6.5-12.11,0.96-11.39,5.62C531.85,62.11,535.01,74.82,536.33,87.88z M597.31,85.23c-0.07-7.18-0.12-14.39,0.09-21.57
	c0.19-6.53-0.24-13.61,3.51-19.49c2.47-3.88,11.92-0.96,15.42,0.21c6.35,2.12,11.85,6.79,15.29,11.81
	c7.99,11.65,11.02,26.3,12.32,39.64c1.32,13.62,2.82,29.39-3.43,42.28c-2.26,4.67-5.8,9.06-10.21,12.45
	c7.16,7.32,9.83,19.52,11.19,28.38c1.48,9.69,1.7,19.33,1.72,29.08c0.01,3.43-0.2,8.1,2.8,10.74c0.9,0.79,2.03,1.27,3.29,1.49
	c0.33,0.06,1.6-0.03,2.11,0.02c1.45-2.09,3.95-4.12,6.86-3.56c3.34,0.65,4.06,4.15,2.93,6.58c-3.35,7.21-12.3,11.02-20.68,7.43
	c-9.21-3.94-9.25-14.27-9.26-21.91c-0.01-11.04-1.14-22.09-3.45-32.95c-1.48-6.97-5.13-17.07-13.82-18.77
	c-1.09,0.1-2.19,0.14-3.31,0.11c0.28,17.14,0.53,34.27,0.71,51.41c0.03,3.02-1.79,6.46-5.26,7.6c-2.92,0.96-6.32-0.35-6.39-3.33
	c-0.72-28.45-1.26-56.9-1.73-85.36C597.78,113.44,597.46,99.34,597.31,85.23z M608.19,52.64c0.36,3.3,0.25,6.7,0.39,9.36
	c0.36,6.85,0.6,13.72,0.74,20.58c0.29,13.8,0.53,27.6,0.79,41.41c0.13,6.9,0.26,13.81,0.38,20.71c0.23-0.06,0.46-0.12,0.69-0.15
	c2.44-0.33,4.67-0.33,6.73-0.09c7.99-1.46,12.44-8.94,13.63-15.95c1.74-10.22,0.59-21.04-0.42-31.28
	c-1.05-10.56-3.04-21.77-8.51-31.37c-2.29-4.03-5.73-7.93-9.79-10.75C611.31,54.06,609.77,53.28,608.19,52.64z M655.02,65.44
	c0.42,7.48,1.25,14.96,2.03,22.42c1.55,14.85,2.98,29.72,4.28,44.59c1.3,14.87,2.49,29.75,3.54,44.64
	c0.53,7.44,1.08,14.87,1.58,22.31c0.44,6.55-0.77,13.29,1.03,19.81c0.83,3,2.36,6.15,5.66,7.67c2.26,1.04,3.95,0.55,6.32,0.38
	c3.39-0.24,6.82-0.08,10.23-0.29c5.72-0.35,11.41-0.95,17.11-1.5c7.27-0.69,11.05-13.81,2.05-12.86
	c-2.51,0.26-27.54,4.05-27.98,2.89c-1.23-3.25-0.71-6.68-1-10.06c-0.3-3.53-0.83-7.04-1.05-10.57c-0.48-7.44-0.96-14.88-1.54-22.32
	c-0.54-7.07-1.17-14.13-1.57-21.2c-0.01-0.24-0.01-0.53,0.21-0.68c0.15-0.11,0.37-0.12,0.57-0.13c5.83-0.2,15.06-0.63,19.18-4.74
	c3.53-3.52,3.55-12.3-4.19-9.77c-4.69,1.53-10.85,0.61-15.78,1.52c-0.41,0.07-0.86,0.17-1.34,0.28c-0.29-3.28-0.57-6.55-0.88-9.83
	c-1.39-14.84-2.9-29.67-4.54-44.5c-0.81-7.36-1.68-14.77-2.94-22.08c-0.55-3.18-1.06-5.57-0.79-8.83c0.02-0.21,0.04-0.43,0.17-0.6
	c0.27-0.38,0.88-0.4,1.4-0.39c7.58,0.23,15.04,0.39,22.55,1.36c7.01,0.91,12.76-11.26,5-12.18c-6.77-0.81-13.6-1.53-20.44-1.67
	c-5.44-0.11-11.89-0.57-16.45,2.54c-3.94,2.69-4.07,7.38-3.99,11.35C653.54,57.19,654.79,61.22,655.02,65.44z M469.17,309.99
	c-0.01,0.08-0.02,0.17-0.03,0.25c0-0.01,0.01-0.03,0.01-0.04c-0.36,3.68-5.29,7.35-8.87,5.24c-2.33-1.37-3.14-4.42-2.76-6.96
	c0.54-3.59,3.39-7.01,7.07-7.59c1.3-0.21,2.49,0.04,3.68,0.58c1.52,0.69,2.39,2.13,2.55,3.76
	C470.98,306.82,470.31,308.65,469.17,309.99z M466.3,306.75C466.3,306.75,466.29,306.75,466.3,306.75
	C466.02,306.75,466.02,306.75,466.3,306.75z M334.94,314.24c2.97-1.36,4.05,1.94,3.41,4.19c-2.86,10.03-3.62,21.88-3.21,32.25
	c0.21,5.32-1.52,16.48,6.34,16.82c6.74,0.29,6.6-6.87,7.46-11.59c0.05-2.83,0.37-5.65,0.99-8.42c0.85-3.8,7.39-5.88,6.3-0.85
	c-0.4,9.11,1.91,18.08,6.91,25.72c2.11,3.22,3.88,6.92,8.18,7.5c12.29,1.65,2.94-23.25,0.91-27.96c-3.72-8.63-9.28-15.14-15.5-22.02
	c-3.34-3.69,1.72-9.97,5.83-9.7c2.65,0.17,4.56,1.42,6.35,3.18c5.1,5.01,10.83,8.52,16.82,12.3c4.34,2.74,8.84,5.24,13.62,1.69
	c0.3-0.22,0.59-0.47,0.87-0.72c4.15-8.03,15.86-19.09,24.65-11.46c0.01-0.03,0.02-0.07,0.03-0.1c0.93-2.61,4.02-5.86,7.1-4.62
	c1.05,0.42,1.69,1.19,2.04,2.11c0.01-0.01,0.02-0.01,0.02-0.02c0.02,0.08,0.04,0.17,0.06,0.26c0.06,0.18,0.1,0.37,0.14,0.56
	c1.37,5.61,0.64,11.93-0.46,17.88c0.08,1.48,0.17,2.96,0.25,4.44c0.28,4.88-0.07,9.95,0.61,14.79c0.46,3.22,2.98,8.86,7.06,7.28
	c4.23-1.64,6.76-10.11,8.13-13.89c3.5-9.6,6-19.45,9.02-29.18c1.27-4.03,8.17-7.16,8.96-1.19c1.37,10.36-0.28,21.14-1.07,31.49
	c-0.24,3.1-2.22,18.01,3.26,18.04c2.17,0.01,7.16-7.3,8.31-8.99c2.57-3.76,4.35-8.14,5.3-12.59c0.96-4.48,0-9.21-0.08-13.84
	c-0.19-11.17,1.02-22.31,2.5-33.37c0.37-2.78,0.78-5.55,1.2-8.32c-2.46,0.51-4.93,1.01-7.41,1.49c-8.59,1.66-17.45,2.44-26.18,1.72
	c-6.69-0.55-15.78-2.23-18.79-9.19c-2.47-5.71,0.02-12.4,4.27-16.53c5.85-5.67,12.36-3.15,19.56-3.07c1.35,0.02,0.77,2.19-0.3,2.18
	c-4.84-0.06-10.62,1.45-14.28,4.84c-3.3,3.06-1.62,6.08,2.26,7.22c7.95,2.32,17.24,1.56,25.31,0.34c6-0.91,11.94-2.18,17.86-3.55
	c1.15-7.27,2.06-15.1,4.97-21.89c1.36-3.17,6.34-5.92,7.31-0.97c1.07,5.46,0.19,11.42-0.26,16.92c-0.09,1.07-0.19,2.13-0.28,3.19
	c4.92-1.14,9.85-2.23,14.83-3.1c14.14-2.47,28.51-3.65,42.86-3.05c27.94,1.16,54.21,8.68,78.11,23.33c1.88,1.15-0.35,4.71-2.29,3.82
	c-17.48-8.02-35.95-11.28-54.97-13.13c-16.45-1.59-33.35-0.68-49.72,1.36c-10.26,1.28-20.28,3.3-30.3,5.42c0,0.02,0,0.03-0.01,0.05
	c-1.16,11.04-2.61,22.04-2.89,33.16c-0.29,11.12,0.58,22.65,3.97,33.3c1.08,3.39,2.33,7.55,5.76,9.29c5.06,2.56,8.4-1.16,12.24-4.03
	c7.44-5.57,13.62-11.24,17.85-19.63c-3.55-3.54-6.33-7.54-6.68-13.42c-0.46-7.83,3.72-19.98,12.81-21.26
	c10.18-1.44,8.09,12.04,6.65,17.8c-0.67,2.68-1.51,5.25-2.48,7.75c3.31,2.69,7.02,5.09,9.48,7.69c6.53,6.9,8.86,17.14,8.94,26.39
	c8.39-1.48,16.84-4.16,22.05-11.41c5.59-7.78,7.97-18.43,9.67-27.67c0.38-2.07,4.55-4.8,4.64-1.3c0.28,10.92-0.18,21.79-5.96,31.42
	c-5.41,9.03-14.09,14.97-24.2,17.53c-2.78,0.71-5.62,1.14-8.48,1.39c-2.62,5.05-7.33,8.73-13.25,11.01
	c-7.12,2.74-18.28,5.4-22.21-3.5c-3.14-7.11,1.45-13.97,8.76-15.36c5.52-1.05,11.25-0.94,16.95-1.06c-0.29-1.71-0.73-3.37-1.01-4.7
	c-1.08-4.99-3.01-9.41-6.65-13.05c-1.7-1.7-3.51-3.25-5.27-4.8c0.41,0.36-15.73,18.9-17.53,20.85
	c-5.66,6.13-13.32,12.01-22.18,10.49c-3.84-0.66-6.95-2.96-9.23-6.05c-1.91-2.59-2.17-7.6-4.51-9.38c-0.13-0.1-0.28-0.2-0.45-0.2
	c-0.28,0-0.48,0.26-0.64,0.5c-4.41,6.86-10.57,25.72-21.14,24.05c-6.75-1.06-10.22-9.15-11.37-15.04
	c-0.25-1.27-0.27-10.67-2.14-8.93c-0.33,0.31-0.8,3.18-1.06,3.81c-1.09,2.6-2.65,5.2-4.61,7.23c-4.07,4.23-9.36,4.92-14.3,1.62
	c-2.87-1.91-4.51-4.52-5.46-7.43c-2.66,6.26-6.71,12.46-13.38,14.91c-6.23,2.29-12.76,0.34-15.77-5.75
	c-3.01-6.08-2.49-14.09-1.95-20.62c0.42-5.07,1.19-10.15,2.65-15.02c-2.26,0.93-4.75,1.21-7.42,0.49
	c-4.89-1.31-9.43-4.39-13.38-8.17c-0.02,0.01-0.04,0.03-0.06,0.04c3.11,5.29,5.58,10.97,7.31,16.58c3.16,10.23,6.58,25.97,0.5,35.71
	c-7.84,12.55-21.44,2.35-27.37-6.18c-2.05-2.95-3.72-6.15-5.01-9.5c-1.73,5.2-4.67,10.45-10.17,11.45
	c-13.45,2.45-14.94-17.49-15.47-26.16c-0.41-6.83-0.14-13.7,0.85-20.46c0.73-5.01,2.11-9.78,3.47-14.58
	c-2.97,0.44-5.95-0.03-8.98-1.4c-1.7-0.76-0.02-3.85,1.41-3.91C327.47,317.62,330.99,316.05,334.94,314.24z M550.66,380.4
	c-2.66-0.14-5.31-0.36-7.93-0.59c-2.22-0.2-5.2-0.86-7.31,0.03c-3.69,1.54-0.76,3.73,1.85,4.37
	C541.07,385.14,547.07,382.87,550.66,380.4z M539.67,324.14c-0.09,2.9,0.99,5.36,2.67,7.55c0.33-1.09,0.63-2.18,0.89-3.28
	c0.48-2.02,1.58-5.12,0.99-7.22c-0.71-2.52-2.94-1.82-3.98,0.12C539.87,322,539.7,323.3,539.67,324.14z M405.67,358.67
	c0.15,3.46-0.39,9.14,1.92,12.07c6.03,7.66,10.63-13.26,11.39-16.1c2.24-8.3,2.54-17.29,4.7-25.6c-10.52-1-16.26,5.09-17.52,15.22
	C405.57,349.06,405.47,353.83,405.67,358.67z M314.56,339.79c-0.28,11.95-0.84,24.05,1.08,35.9c1.56,9.64,5.36,21.48,14.23,26.85
	c7.01,4.24,16.48,0.84,19.1-6.99c1.1-3.29,7.61-6.53,7.92-1.05c0.89,15.88-14.27,26.21-29.15,22.91
	c-14.83-3.29-25.25-16.26-28.02-30.85c-0.97-5.09-1.26-10.28-1.39-15.45c-0.07-2.6-0.09-5.2-0.14-7.79
	c-0.03-1.62,0.59-5.56-0.5-6.87c-0.25-0.3-0.62-0.49-0.99-0.64c-0.55-0.24-1.12-0.44-1.69-0.65c-4.38-1.57-8.66-3.53-13.07-4.86
	c-1.22-0.37-13.51-4.27-13.33-5.09c-0.56,2.54-1.12,5.08-1.67,7.62c-2.18,9.94-3.37,21.49-8.94,30.12c-0.95,1.47-3.5,2.84-4.44,0.56
	c-2.24-5.44-1.29-10.81-0.79-16.56c0.5-5.72,1.25-11.43,2.32-17.08c0.69-3.67,1.45-7.33,2.26-10.97c-2.32-1.57-4.54-3.27-6.6-5.14
	c-3.32-3.01-9.47-8.18-7.55-13.24c1.53-4.03,8.44,0.09,10.55,1.15c2.35,1.19,4.68,2.4,7,3.61c0.89-3.19,1.84-6.36,2.88-9.5
	c6.58-19.91,16.42-39.86,31.46-54.78c5.42-5.38,18.94-11.45,20.81,0.62c0.99,6.39-0.17,13.59-0.29,20.06
	c-0.11,6.23-0.21,12.47-0.31,18.7C315.09,313.51,314.87,326.65,314.56,339.79z M298.4,274.33c-1.75,2.2-3.24,4.58-4.85,6.88
	c-2.79,3.97-5.32,8.13-7.61,12.4c-4.91,9.14-8.56,18.94-11.55,28.86c-0.73,2.41-1.89,5.06-1.46,7.62c0.02,0.12,0.05,0.23,0.1,0.34
	c0.83,2.1,5.76,3.02,7.34,3.55c3.39,1.14,6.83,2.11,10.31,2.93c1.04,0.25,2.37,0.91,3.49,0.73c1.74-0.28,1.52-2.06,1.59-3.51
	c0.24-5.3,0.53-10.59,0.92-15.88c0.79-10.57,1.95-21.12,3.45-31.62c0.6-4.2,1.26-8.39,1.98-12.57
	C302.87,269.54,299.82,272.53,298.4,274.33z M91.85,323.76c3.78-2.36,7.55-4.71,11.33-7.07c3.17-1.98,6.7-3.3,10.02-5.09
	c1.19-0.64,2.58-1.05,2.84-2.56c0.19-1.13-0.16-2.09-1.48-2.03c-11.47,0.49-22.54,3.83-33.4,7.3c-5.41,1.73-10.81,3.63-16.12,5.66
	c-4.02,1.54-8.41,2.75-11.89,5.4c-5.62,4.28-0.17,7.88,4.17,10.33c4,2.26,8.23,4.18,12.35,6.23c7.94,3.95,15.95,7.8,24.71,9.54
	c2.29,0.46,3.02-2.29,2.14-3.72c-1.41-2.27-4.44-4.48-6.32-6.46c-1.22-1.29-3.25-2.74-3.71-4.55c-0.68-2.66,1.36-2.59,3.32-2.6
	c3.72-0.03,7.45-0.23,11.17-0.16c5.92,0.11,11.84,0.18,17.76,0.21c10.9,0.04,21.8,0.04,32.7-0.01c9.08-0.04,17.98,0.03,27,0.36
	c9.41,0.34,18.86-0.64,27.99-2.93c1.02-0.25,2.08-0.55,2.83-1.27s1.08-2.01,0.42-2.83c-0.53-0.66-1.48-0.78-2.32-0.86
	c-7.09-0.61-14.28-1.12-21.46-1.4c-5.15-0.2-10.3-0.28-15.39-0.2c-5.29,0.08-10.58,0.12-15.87,0.26
	c-11.26,0.29-22.52,0.53-33.79,0.73c-9.3,0.16-18.58,0.86-27.88,0.29c-0.72-0.04-1.44-0.1-2.14-0.3c-0.34-0.1-0.7-0.26-0.87-0.57
	C89.52,324.64,91.34,324.08,91.85,323.76z M806.76,314.8c-1.73,1.14-3.56,2.21-5.21,3.45c-1.63,1.08-3.69,1.08-5.6,1.21
	c-1.58,0.11-6.32,0.63-6.77-1.61c-0.39-1.98,2.29-3.16,3.56-4.23c1.77-1.49,3.49-3.04,5.15-4.65c3.27-3.18,6.3-6.6,9.04-10.24
	c1.21-1.61,0.68-5.42-1.9-3.42c-5.86,4.54-11.37,9.38-16.9,14.29c-2.81,2.49-5.76,5.12-8.69,7.43c-2.69,2.12-7.68,1.51-10.88,1.53
	c-1.62,0.01-3.25,0.03-4.87,0.06c-1.03,0.02-2.68,0.47-3.54-0.29c-0.36-0.31-0.52-0.81-0.5-1.29c0.08-1.83,2.33-2.89,3.61-3.91
	c1.44-1.15,2.88-2.31,4.35-3.43c7.08-5.41,14.06-10.85,19.85-17.68c1.02-1.2,1.13-4.89-1.36-3.66c-8.04,3.98-14.82,9.73-21.67,15.44
	c-3.14,2.62-6.37,5.15-9.43,7.87c-2.9,2.58-5.64,4.98-9.08,6.87c-2.05,1.13-4.61,0.82-6.89,0.92c-1.46,0.06-2.92,0.12-4.38,0.19
	c-0.68,0.03-2.65,0.7-2.42-0.67c0.08-0.48,0.47-0.85,0.84-1.17c7.89-6.97,16.81-12.59,24.51-19.85c1.27-1.2,1-4.8-1.36-3.66
	c-7.82,3.79-15.03,8.47-22.02,13.62c-3.63,2.67-7.45,5.07-10.97,7.87c-1.59,1.27-2.81,2.79-4.72,3.59
	c-1.84,0.77-3.84,0.98-5.82,1.05c-3.43,0.11-6.85,0.23-10.28,0.35c-6.69,0.23-13.38,0.48-20.07,0.76c-7,0.29-13.99,0.6-20.99,1.04
	c-6.47,0.41-13.7,0.2-19.64,3.07c-0.9,0.44-2.08,2.41-0.78,3.11c4.79,2.59,11,1.97,16.31,2.01c6.95,0.06,13.9,0.04,20.85-0.06
	c6.86-0.1,13.72-0.22,20.58-0.36c4.17-0.08,8.79-0.77,12.88,0.06c4,0.81,8.45,2.38,11.34,5.3c3.43,3.46,7.86,6.19,11.78,9.05
	c3.62,2.64,7.22,5.27,10.91,7.81c3.32,2.29,6.34,4.74,10.47,4.6c1.47-0.05,2.42-2.11,2.02-3.35c-1.2-3.65-4.36-5.72-7.33-7.97
	c-3.57-2.7-7.23-5.27-10.89-7.84c-2.77-1.95-5.38-3.76-7.79-6.15c-1.18-1.17,0.93-1.74,1.8-1.91c2.39-0.45,5.01-0.4,7.43-0.44
	c2.97-0.05,6-0.47,8.95,0.09c2.9,0.55,4.85,2.62,7.19,4.31c4.19,3.03,8.36,6.08,12.53,9.14c7.99,5.86,16.24,12.93,25.73,16.11
	c1.6,0.54,3.02-2.33,2.1-3.49c-6.45-8.11-16.39-13.66-24.89-19.39c-1.71-1.15-3.35-2.39-5-3.61c-0.85-0.62-4.81-2.44-2.42-3.21
	c3.26-1.04,7.1-1.27,10.48-0.87c3.1,0.37,6.15,1.11,8.69,3c3.24,2.41,6.4,4.94,9.68,7.31c3.38,2.44,6.74,4.91,10.14,7.32
	c3.19,2.26,6.6,5.42,10.62,5.5c1.5,0.03,3.08-1.75,2.43-3.29c-1.48-3.5-4.65-5.25-7.74-7.33c-3.45-2.33-6.95-4.57-10.42-6.85
	c-1.95-1.27-3.89-2.54-5.86-3.79c-0.14-0.09-3.14-1.62-1.8-1.71c3.45-0.24,6.9-0.36,10.36-0.36c1.71,0,3.21,1.46,4.67,2.25
	c1.87,1.02,3.79,1.93,5.67,2.93c6.64,3.5,12.89,6.23,20.29,7.65c1.76,0.34,3.21-2.59,1.75-3.69c-5.96-4.53-12.27-7.65-18.96-10.94
	c-1.5-0.73-2.98-1.52-4.44-2.31c-0.73-0.4-2.46-0.84-2.59-1.74c-0.03-0.24,0.05-0.48,0.14-0.71c1.04-2.61,2.8-3.74,4.94-5.38
	c4.55-3.48,9.3-6.64,12.17-11.73c0.52-0.92,0.66-3.54-1.16-3.06c-5.38,1.42-9.05,5.52-13.1,9.13
	C809.88,312.18,808.51,313.64,806.76,314.8z M702.44,149.92c0.79,2.48,5.06,5.69,6.96,7.58c2.91,2.9,5.77,5.84,8.59,8.82
	c5.64,5.97,11.09,12.11,16.34,18.42c22.82,27.41,41.93,57.89,56.58,90.41c1.5,3.33,2.95,6.69,4.36,10.06
	c0.64,1.55,2.46,8.8,4.28,8.88c0.65,0.03,1.25-0.34,1.81-0.66c1.4-0.8,2.91-1.39,4.47-1.77c4.01-0.96,7.23,2.81,5.11,6.6
	c-1.16,2.07-3.8,3.6-3.84,6.18c-0.01,0.58,0.57,1.04,1.14,1.11s1.15-0.15,1.69-0.38c2.02-0.88,3.93-2.01,5.66-3.37
	c-2.16-7.77-5.3-16.58-9.1-23.71c-20.5-48.47-49.85-92-87.23-129.39c-2.83-2.83-5.7-5.61-8.61-8.35c-1.44-1.36-4.35-5.28-6.58-5.23
	c-1.49,0.03-0.18,5.85-0.2,6.92C703.83,144.53,701.65,147.44,702.44,149.92z M838.49,436.54c0,54.95-10.76,108.26-31.99,158.45
	c-20.5,48.47-49.85,92-87.23,129.39c-37.38,37.38-80.91,66.73-129.39,87.23c-50.19,21.23-103.5,31.99-158.45,31.99
	s-108.26-10.76-158.45-31.99c-48.47-20.5-92-49.85-129.39-87.23C106.22,687,76.87,643.46,56.36,594.99
	c-21.23-50.19-31.99-103.5-31.99-158.45c0-54.95,10.76-108.26,31.99-158.45c20.5-48.47,49.85-92,87.23-129.39
	c2.19-2.19,4.41-4.36,6.65-6.5c1.33-1.27,5.77-6.96,7.03-3.66c0.58,1.52-0.83,5.12-1.08,6.7c-0.48,2.93-0.41,6.43-1.39,9.2
	c-0.9,2.55-3.1,5-4.83,7.03c-3.91,4.58-8.53,8.47-12.54,12.95c-6.3,7.05-12.35,14.33-18.12,21.82
	c-18.13,23.5-33.61,49.03-46.03,75.99c-4.39,9.52-8.39,19.22-12,29.07c-1.81,4.95-3.52,9.94-5.14,14.96
	c-1.84,5.68-7.32,7.56-10.71,12.17c-0.58,0.79-1.09,1.81-0.73,2.73c0.21,0.54,0.68,0.92,1.14,1.28c1.2,0.95,2.4,1.91,3.6,2.86
	c0.25,0.2,0.51,0.41,0.63,0.71c0.21,0.54-0.5,2.8-0.65,3.47c-0.49,2.09-1,4.19-1.49,6.28c-0.97,4.09-1.87,8.2-2.71,12.31
	c-1.72,8.5-3.16,17.05-4.32,25.64c-2.35,17.5-3.52,35.15-3.52,52.81c0,22.98,1.99,45.51,5.78,67.43c2.51-0.19,5-0.9,7.43-1.62
	c-1.11,2.64-1.39,5.74-0.18,8.33c1.21,2.59,4.14,4.45,6.95,3.9c0.21,2.93,0.11,6.5-2.44,7.95c-0.88,0.5-1.91,0.65-2.91,0.78
	c-1.62,0.22-3.23,0.43-4.85,0.65c1.05,4.6,2.17,9.17,3.38,13.7c0.48-0.43,1.04-0.78,1.59-1.11c4.96-3.01,9.93-6.02,14.89-9.02
	c0.22-0.13,0.45-0.27,0.7-0.26c0.19,0.01,0.35,0.09,0.5,0.2c0.4-0.54,0.8-1.07,1.18-1.63c0.29,1.11,0.44,2.23,0.52,3.36
	c0.69,0.73,1.38,1.46,2.07,2.19l-2.09,1.15c-0.34,5.14-1.83,10.38-1.21,15.53c0.17,1.43,0.51,2.85,0.88,4.28
	c5.15,5.54,6.67,14.03,10.25,20.96c0.36,0.7,0.76,1.41,0.84,2.2c0.08,0.73-0.11,1.47-0.33,2.17c-1.62,5.11-4.86,9.52-7.47,14.19
	c-0.68,1.23-1.32,2.48-1.92,3.74c2.71,6.12,5.58,12.16,8.59,18.12c0.01-0.04,0.03-0.08,0.04-0.12c2.38-6.64,4.44-13.39,6.15-20.23
	c4.44,4.55,6.95,10.34,11.88,14.34c5.14,4.17,11.45,6.93,18.03,7.73c0.69,0.08,1.42,0.16,2.01,0.52c0.59,0.37,0.99,0.99,1.26,1.63
	c0.96,2.27,0.62,4.86,0.92,7.3c0.3,2.45,1.75,5.17,4.21,5.38c-0.42,2.1-1.89,3.82-2.78,5.78c-0.21,0.47-0.38,0.95-0.54,1.43
	c5.68,2.02,10.71,5.85,13.81,11.04c2.19,3.68,4.1,8.4,8.3,9.23c1.13,0.22,2.3,0.11,3.43,0.33c2.76,0.52,4.83,2.88,6.06,5.41
	c2.76,5.67,2.3,12.38,1.02,18.56c-1.2,5.83-3.09,11.56-6.09,16.69c-1.24,2.13-2.67,4.14-4.15,6.11c4.9,5.26,9.94,10.38,15.12,15.37
	c14.08,1.87,28.46,1.46,42.4-1.24c4.26-0.82,10.32-0.73,11.04,3.55c7.06-0.66,14.16-0.96,21.26-0.89c1.67-3.73,2.22-8.01,1.78-12.11
	c-0.64-6.12-3.25-11.88-6.43-17.15c-1.03-1.72-0.49-3.68-1.2-5.12c-0.76-1.52-2.82-2.79-4.12-3.85c-3.18-2.61-6.55-5.07-10.54-6.3
	c2.42-4.96,2.22-11.12-0.53-15.9c-1.11-1.94-2.32-4.98-0.28-5.89c0.43-0.19,0.92-0.21,1.39-0.22c3.21-0.08,6.41-0.16,9.62-0.23
	c1.55-1.27,0.25-3.74-1.08-5.23c-2.1-2.36-4.21-4.72-6.31-7.09c4.81-1.67,5.93-5.75,5.13-10.36c-0.68-3.94-4.81-6.23-8.61-7.49
	c-6.84-2.26-14.57-3.29-19.61-8.44c-3.66-3.74-5.2-9-6.61-14.04c-0.91-3.25-1.82-6.5-2.73-9.75c3.51,6.25,11,9.22,15.27,14.98
	c2,2.69,3.22,5.91,5.33,8.52c2.11,2.61,5.61,4.59,8.77,3.45c-1.41-5.08-2.82-10.15-4.22-15.23c-1.27-4.59-1.91-11.17-4.14-15.3
	c-2.15-3.99-7.29-4.5-11.26-5.33c-7.16-1.5-13.82-4.72-20.4-7.91c-3.99-1.93-7.76-3.7-11.97-4.99c-1.58-0.48-3.16-0.72-4.56-1.72
	c-0.48-0.34-3.55-4.3-2.96-4.3c7.43,0.23,14.91-1.64,21.35-5.33c1.79-1.02,3.51-2.19,5.42-2.97c3.66-1.49,7.72-1.47,11.65-1.85
	c1.91-0.19,3.94-0.55,5.3-1.9c2.89-2.86,0.91-7.65,0.68-11.71c-0.23-4.19,1.7-8.27,4.42-11.46c2.72-3.19,6.2-5.63,9.64-8.04
	c-1.44,10.28,0.63,21.01,5.78,30.02c1.94,3.38,4.92,6.85,8.81,6.77c1.45-0.03,2.85-0.57,4.3-0.66c1.45-0.1,3.13,0.44,3.65,1.79
	c0.28,0.73,0.16,1.55,0.15,2.33c-0.13,6.47,5.45,10.65,11.1,11.64c3.35,0.59,5.69,1.23,8.63,3.02c2.38,1.45,4.76,3.57,7.78,2.87
	c3.69-0.86,8.72,1.25,11.74,3.75c4.33,3.59,6.77,10.05,12.31,11.09c1.15,0.22,2.5,0.23,3.23,1.15c0.45,0.56,0.53,1.31,0.56,2.02
	c0.21,5.23-1.92,10.57-0.5,15.61c0.89,3.17,3.08,5.8,5.36,8.18c4.33,4.52,9.47,8.7,15.63,9.84c11.27,2.09,22.12-6.45,33.58-5.89
	c1.16,0.06,2.5,0.33,3.02,1.36c0.35,0.69,0.21,1.52,0.07,2.28c-0.86,4.64-5.34,13.41-1.91,17.19c3.6,3.98,11.81,5.02,16.77,4.54
	c3.13-0.31,6.25-1.21,9.38-0.82c0.05,0.21,0.08,0.41,0.1,0.62c0.58-0.34,1.15-0.52,1.77-0.25c0.7,0.31,1.02,1.1,1.34,1.8
	c1.72,3.77,5.29,6.57,9.29,7.59c0.85-1,1.79-1.95,2.71-2.87c0.93,2.96,3.04,5.53,5.76,7.01c1.81,0.99,3.88,1.52,5.54,2.76
	c3.53,2.64,4.17,7.82,2.95,12.06c-1.22,4.23-3.9,7.86-6.06,11.69c-3.35,5.96-5.49,12.59-6.26,19.39c-0.21,1.84-0.31,3.71,0.05,5.53
	c0.37,1.84,1.22,3.54,1.86,5.31c1.14,3.14,1.66,6.5,1.51,9.83c-0.12,2.74-0.69,5.48-0.35,8.19c0.29,2.28,1.21,4.43,1.71,6.68
	c0.58,2.63,0.57,5.32,0.28,8c0.17,0.16,0.34,0.32,0.47,0.51c0.53,0.75,0.65,1.71,0.72,2.63c0.33,3.96,0.29,7.96-0.13,11.91
	c-0.19,1.81-0.41,3.78-0.01,5.52c0.21,0.08,0.43,0.15,0.65,0.24c7.29-2.47,14.07-6.46,19.76-11.65c0.95,1.63-0.27,4.05-2.14,4.25
	c9.51-1.03,18.21-5.75,25.55-11.61c0.87,2.9,3.44,1.96,4.67-0.04c1.58-2.56-0.79-5.46,1.44-7.77c6.19-6.42,12.76-12.47,19.67-18.1
	c-0.41,1.34-1.02,2.63-1.8,3.79c-2.95,4.37,0.76,4.92,3.8,2.26c2.37,3.14,2.72,7.42,2.97,11.2c0.25,3.87,1.27,5.54,2.59,9.16
	c11.32-1.91,22.54-4.41,33.6-7.49c0.28-1.67-0.97-3.17-2.13-4.41c-4.41-4.67-8.81-9.33-13.22-14c4.79,0.1,9.58,0.21,14.37,0.31
	c1.57,0.03,3.23,0.05,4.61-0.7c0.14-0.07,0.26-0.17,0.39-0.26c-1.13-1.15-2.26-2.31-3.38-3.46c-1.25-1.27-2.52-2.59-3.21-4.23
	c-0.85-2.04-0.7-4.33-0.64-6.53c0.15-4.82-0.14-9.65-0.87-14.41c-0.23-1.5-0.53-3.05-1.41-4.28c-0.96-1.33-2.5-2.12-3.97-2.85
	c-10.39-5.17-20.85-10.22-31.17-15.52c-2.86-1.47-3.87-2.31-4.26-3.7c-0.37-0.11-0.74-0.2-1.11-0.32l0.94-0.53
	c-0.12-0.93-0.11-2.11-0.21-3.76c-0.26-4.4-2.16-8.39-5.11-11.65c-3.89-4.3-8.98-7.32-13.34-11.13
	c-6.75-5.91-11.84-14.11-12.55-23.05c-0.15-1.89-0.11-3.8-0.56-5.64c-0.4-1.63-1.18-3.14-2.06-4.57c-2.15-3.47-6.57-5.8-8.47-9.02
	c-1.42-2.41-1.29-1.88,1.32-3.34c2.53-1.42,6.06-1.74,8.78-2.91c5.88-2.53,5.55-4.49,6.01-10.6c4.28,0.57,6.6,5.34,10.33,7.5
	c2.72,1.58,6.02,1.67,9.17,1.7c4.42,0.03,8.85-0.01,13.27-0.12c-3.77-4.45-9.84-6-15.26-8.15s-11.11-6.01-11.68-11.82
	c-0.13-1.28,0.01-2.58-0.23-3.83c-0.71-3.63-4.52-7.01-2.89-10.33c0.15-0.31,0.36-0.61,0.66-0.77c0.61-0.33,1.35-0.03,1.96,0.3
	c2.74,1.49,5.15,3.58,7.02,6.08c1.92,2.57,4.35,6.01,7.4,5.03c-4.58-7.77-5.89-17.41-3.55-26.12c14.68,5.34,23.92,19.58,36.16,29.28
	c1.76,1.39,3.62,2.71,5.74,3.42c2.37,0.79,4.93,0.77,7.43,0.73c6.67-0.08,13.34-0.17,20.01-0.25c0.95-0.01,2.04,0.03,2.67,0.74
	c0.49,0.56,0.56,1.36,0.6,2.11c0.07,1.25,0.14,2.51,0.2,3.76c0.97-0.31,1.98-0.46,3-0.39c4.97,0.34,8.59,5.39,13.54,5.95
	c2.81,0.32,5.54-0.88,8.32-1.38c4.6-0.83,9.42,0.22,13.97-0.85c5.2-1.22,9.92-5.15,15.2-4.43c3.02,0.41,5.77,2.34,8.81,2.28
	c3.02-0.07,5.6-2.05,8.4-3.18c2.8-1.13,6.76-0.95,7.95,1.83c0.63,1.48,0.21,3.18-0.21,4.74c-1.35,4.94-2.7,9.87-4.05,14.81
	c-0.69,2.51-1.5,5.22-3.61,6.74c-2.11,1.53-5.86,0.84-6.29-1.73c-4.46,4.53-4.21,11.69-4.95,18.01c-0.55,4.71-1.81,9.34-3.73,13.68
	c-0.91,2.07-1.98,4.1-2.41,6.32c-0.52,2.68-0.07,5.44-0.03,8.17c0.07,4.16-0.82,8.34-2.57,12.12c-0.77,1.67-1.7,3.7-0.63,5.2
	c3.98-0.09,7.96-0.18,11.95-0.27c-2.53,12.06-14,21.73-13.52,34.19c0.03,0.83,0.56,1.95,1.32,1.63c0.2-0.09,0.34-0.26,0.47-0.43
	c5.69-7.2,10.09-15.42,12.93-24.14c-1.89,9.07,4.21,19.08,13.14,21.57c3.23,0.9,6.77,0.94,9.67,2.62c-2.61-3.86-8.03-4.82-11.1-8.33
	c-3.46-3.96-3-9.88-2.34-15.09c0.4-3.19,3.25-5.72,3.58-8.31c0.43-3.43-3.59-6.15-6.5-6.89c-3.89-0.98-8.13-0.48-11.82-2.06
	c3.23-11.79,6.45-23.59,9.68-35.38c1.01-3.7,2.03-7.4,3.02-11.11c2.53,1.14,4.06,4.66,6.81,4.32c1.23-0.15,2.2-1.1,3-2.05
	c3.25-3.88,5.29-8.76,5.76-13.79c0.37-3.95,0.08-8.57,3.11-11.12c3.56,7.38,6.71,14.96,9.41,22.69c0.37,1.07,0.73,2.28,0.21,3.29
	c-0.53,1.01-1.74,1.41-2.63,2.13c-1.78,1.43-2.14,4.05-1.74,6.3c0.4,2.25,1.39,4.36,1.8,6.61c0.91,5.06-0.9,11.23,2.85,14.75
	c0.71,0.67,1.57,1.16,2.28,1.84c4.41,4.23,0.4,12.12,3.13,17.59c0.86,1.72,2.22,2.93,3.84,3.9c4.33,2.59,10.46,3.41,13.57,7.53
	c2.07,2.73,0.53,3.63-0.21,6.12c-0.77,2.62-0.77,5.37-1.08,8.29c2.72,1.17,5.3-1.84,6.75-4.43c2.71-4.84,5.42-9.68,8.13-14.52
	c0.34-0.6,0.68-1.23,0.72-1.91c0.09-1.68-1.68-2.9-3.34-3.2s-3.41-0.07-5.01-0.61c-2.75-0.94-4.25-3.93-4.84-6.77
	c-0.59-2.85-0.57-5.84-1.62-8.55c-1.51-3.91-5.04-6.71-6.88-10.48c-2.69-5.53-1.56-12.71-5.53-17.41c-1.15-1.37-2.68-2.43-3.64-3.94
	c-1-1.58-1.3-3.49-1.57-5.34c-0.87-5.91-1.74-11.81-2.61-17.72c1.34-1.24,3.64-0.63,4.88,0.72c1.24,1.35,1.75,3.19,2.43,4.88
	c1.78,4.39,5.01,8.17,9.06,10.61c1.85-5.16-4.33-11.34-1.25-15.88c0.72-1.06,1.89-1.79,3.16-1.99c3.22-0.49,6.02,2.51,6.9,5.65
	c0.88,3.13,0.48,6.47,0.88,9.7c0.99,7.99,6.86,15.43,5.22,23.32c-0.29,1.39-0.81,2.79-0.55,4.18c0.58,3.16,4.43,4.22,7.39,5.45
	c3.84,1.59,7.12,4.49,9.17,8.1c1.1,1.93,1.96,4.18,3.84,5.36c3.36,2.11,7.78-0.32,11.7,0.32c4.74,0.77,7.51,5.66,11.45,8.4
	c4.89,3.41,11.31,3.34,17.26,3.14c9.85-0.33,19.32,1.36,28.3-3.23c0.78-0.4,1.55-0.83,2.31-1.26c2.29-3.04,4.54-6.11,6.74-9.22
	c-5.26,3.16-10.52,6.31-15.78,9.47c-1.09,0.66-2.29,1.33-3.56,1.19c-1.81-0.21-2.97-1.99-4.57-2.87c-3.06-1.69-6.88,0.18-10.33-0.33
	c-6.94-1.03-12.38-11.05-15.73-16.48c-3.83-6.22-9.21-11.64-11.85-18.51c-1.74-4.79-1.99-10.09-4.23-14.67
	c-1.26-2.58-3.17-5.47-1.94-8.07c1.33-2.79,5.57-2.85,8.02-0.97c2.44,1.89,3.6,4.94,4.89,7.74c1.36,2.96,3.03,5.86,5.54,7.94
	c2.51,2.08,5.99,3.21,9.1,2.25c-1.55-4.2-3.1-8.41-4.64-12.61c2.6-0.68,5.34,0.15,7.9,0.97c7.5,2.4,15.01,4.79,22.51,7.19
	c3.32,1.06,7.16,2.06,10.1,0.2c1.87-1.19,3.57-3.53,5.7-2.88c1.1,0.34,1.79,1.4,2.49,2.32c3.69,4.86,9.85,7.04,16.03,7.51
	c3.73-6.44,7.27-12.99,10.64-19.66c-0.99-0.27-2.02-0.44-3.03-0.58c1.2-0.47,2.39-0.61,3.59-0.53c1.57-3.14,3.11-6.29,4.6-9.48
	c-10.28-1.27-20.56-2.55-30.84-3.82c1.15-0.9,0.48-3.14-0.98-3.25c2.6-1.28,5.2-2.56,7.79-3.84c0.76-0.37,1.57-0.81,1.89-1.59
	c0.68-1.7-1.39-3.13-3.09-3.82c-8.04-3.27-15.79-7.24-23.14-11.85c3.2-0.46,6.39-0.92,9.59-1.38c1.01-0.15,2.09-0.33,2.8-1.05
	c1.1-1.12,0.79-3.05-0.15-4.31c-0.94-1.25-2.34-2.06-3.55-3.05c-4.67-3.85-6.17-10.24-7.39-16.16c-1.4-6.74-2.79-13.48-4.19-20.22
	c6.02-0.75,10.71,4.89,14.11,9.91c-0.83-4.54-0.88-9.22-0.15-13.78c0.15-0.95,0.4-1.99,1.19-2.53c1.04-0.71,2.44-0.21,3.71-0.23
	c2.53-0.04,4.48-2.24,5.72-4.45s2.24-4.7,4.3-6.18c1.97-1.41,4.53-1.62,6.94-1.77c7.67-0.5,15.34-0.99,23.01-1.49
	c6.06-0.39,12.54-0.94,17.29-4.72c0.67-0.53,1.35-1.15,2.2-1.24c0.91-0.09,1.75,0.45,2.46,1.02c0.53,0.43,1.03,0.89,1.52,1.37
	c3.87-22.13,5.9-44.88,5.9-68.11c0-19-1.36-38-4.08-56.8c-1.19-8.2-2.65-16.36-4.36-24.47c2.97-1.87,4.71-5.77,3.49-9.05
	c-0.54-1.45-1.59-2.75-1.69-4.29c3.18,1.15,6.33,2.38,9.46,3.66C835.08,375.21,838.49,405.62,838.49,436.54z M372.47,818.5
	c0.06,2.25,1.52,4.18,2.93,5.94c0.73,0.91,1.49,1.84,2.42,2.53c1.62,0.22,3.24,0.43,4.87,0.63c0.67-0.26,1.28-0.65,1.79-1.16
	c0.22,0.48,0.4,0.96,0.55,1.45c9.89,1.17,19.9,1.96,30,2.38c2.85-4.92,5.71-9.83,8.56-14.75c-3.34,0.82-6.27,4.57-9.43,3.22
	c-0.9-0.39-1.58-1.14-2.36-1.73c-2.01-1.51-4.63-1.89-7.14-2.14C399.39,814.33,372.27,810.21,372.47,818.5z M238.27,779.92
	c9.88,5.58,20.02,10.75,30.4,15.47c-0.22-2.73-0.83-5.48-1.11-7.56c-1.13-8.33-1.95-16.69-2.29-25.1
	c5.21,1.52,10.65,2.02,16.05,2.51c9.44,0.86,18.88,1.73,28.32,2.59c2.06,0.19,4.21,0.4,5.99,1.46c1.99,1.18,4.07,3.43,6.12,2.38
	c0.77-4.67-3.39-9.4-1.81-13.86c0.83-2.35,3.05-3.87,5.15-5.21c2.18-1.39,4.81-2.8,7.22-1.87c2.62,1.01,3.56,4.27,3.48,7.07
	c-0.08,2.8-0.82,5.66-0.08,8.37c1.84,6.79,11.11,8.5,17.08,9.16c0.48,0.05,0.92,0.07,1.33,0.05c0.13-0.46,0.26-0.91,0.38-1.37
	c-0.46-0.01-0.91-0.02-1.34-0.02l1.92-2.66c0.37-1.97,0.62-3.96,0.74-5.96c-0.29-0.47-0.59-0.91-0.91-1.32
	c-0.91-1.16-2.13-2.02-3.21-3.01c-3.83-3.5-5.75-8.56-8.53-12.95c-1.66-2.63-3.68-5.09-4.81-7.99c-1.15-2.94-1.32-6.17-1.34-9.33
	c-0.07-9.53,1.12-19.07,3.53-28.29c3.72,0.13,6.36,4.46,10.08,4.35c0.42-0.01,0.82-0.09,1.22-0.21c0.13-4.01,0.25-8.03,0.38-12.04
	c0.07-2.15-0.06-4.69-1.85-5.87c-1.08-0.71-2.58-0.76-3.44-1.74c-1.41-1.6,0.04-4.14-0.43-6.22c-0.67-2.93-4.49-3.57-7.5-3.59
	c-1.58-0.01-3.26,0.04-4.89,0.25c-0.01,0.01-0.02,0.02-0.03,0.02c-7.16,5.67-6.61,17.18-12.89,23.81c-3.68,3.88-9.58,5.5-14.73,4.04
	c-2.29-0.65-5.2-1.68-6.69,0.17c-1.5,1.86-0.23,5.45-2.39,6.48c-0.8,0.38-1.74,0.18-2.63,0.11c-3.23-0.23-6.32,1.63-8.38,4.13
	c-2.07,2.49-3.28,5.56-4.47,8.57c-2.15,5.46-4.34,11.11-4.15,16.98c0.03,0.86,0.03,1.89-0.67,2.38c-0.42,0.29-0.98,0.29-1.49,0.26
	c-1.8-0.11-3.58-0.48-5.28-1.08c-0.68,2.15-2.87,3.57-5.09,3.95c-0.86,0.15-1.72,0.17-2.59,0.11c-0.77,3.44-1.54,6.89-2.31,10.33
	c-0.83,3.71-1.87,7.76-4.95,9.99c-2.62,1.9-6.11,2.02-9.07,3.34C242.44,772.75,240.09,776.07,238.27,779.92z M646.87,766.35
	c0.27-1.01,0.5-2.04,0.66-3.14c0.37-2.52,0.18-5.08-0.01-7.61c-0.4-5.28-0.79-10.56-1.19-15.84c-0.2-2.71-0.39-6.39-2.4-8.48
	c-1.53-1.6-3.86-1.53-5.44-3.24c-0.75-0.81-1.3-1.83-2.23-2.41c-1.21-0.75-6.87,0.47-8.81,0.24c-3.98-0.47-7.97-1.13-11.98-0.6
	c-8.76,1.16-15.45,7.48-22.62,12.95c-6.26,6.15-13.13,11.87-21.57,13.82c-3.37,0.78-6.95,0.95-10.04,2.5
	c-2.74,1.37-4.84,3.7-6.96,5.91c-12.78,13.37-29.35,24.69-47.84,25.21c-3.98,0.11-8.01-0.27-11.89,0.57
	c-3.89,0.84-7.76,3.26-8.91,7.07c-1.64,5.42-7.15,8.99-10.44,13.87c-4.3,6.38-6.19,13.96-6.13,21.65
	C534.23,822.61,594.82,800.47,646.87,766.35z M716.4,708.44c-0.45-0.23-0.9-0.46-1.34-0.7c-10.11-5.51-19.45,3.09-29.08,6.86
	c-6.59,2.58-7.3,2.3-8.48,9.51c-1.14,6.98-5.64,12.27-4.82,19.83c0.12,1.12,0.36,2.27,0.7,3.42
	C688.65,735.46,703.04,722.44,716.4,708.44z"/>
</svg>
