<?xml version="1.0" encoding="UTF-8" standalone="no"?>
<!DOCTYPE svg PUBLIC "-//W3C//DTD SVG 1.1//EN" "http://www.w3.org/Graphics/SVG/1.1/DTD/svg11.dtd">
<svg width="100%" height="100%" viewBox="0 0 493 343" version="1.1" xmlns="http://www.w3.org/2000/svg" xmlns:xlink="http://www.w3.org/1999/xlink" xml:space="preserve" xmlns:serif="http://www.serif.com/" style="fill-rule:evenodd;clip-rule:evenodd;stroke-linejoin:round;stroke-miterlimit:1.41421;">
    <g transform="matrix(1,0,0,1,-32.9595,-128.716)">
        <g>
            <path d="M87.888,317.924L56.407,351.146L32.959,351.907L65.787,315.721L38.691,271.536L60.576,271.536L88.879,311.501L101.716,311.501L75.667,271.398L85.335,271.398L111.379,311.501L122.5,311.501L96.096,271.398L105.796,271.398L132.203,311.501L141.449,311.501L117.175,271.917L139.06,271.917L167.092,311.501L261.886,311.501C262.022,310.147 262.309,308.807 262.718,307.52C263.992,303.576 267.258,300.397 271.202,299.151C274.062,298.26 277.16,297.938 280.117,298.502C283.765,299.265 286.869,301.507 289.674,303.856C290.218,304.326 290.739,304.821 291.264,305.311C293.45,303.15 295.937,301.273 298.649,299.824C301.213,298.514 304.142,297.973 307.003,298.304C310.977,298.568 315,300.214 317.521,303.387C319.394,305.69 320.347,308.564 320.612,311.501L466.926,311.501C466.327,302.433 461.128,294.096 452.699,275.871L452.699,275.871L525.714,313.188L452.585,353.554C460.911,335.962 465.347,325.926 466.605,317.924L320.034,317.924C318.845,321.851 316.254,325.275 313.382,328.165C306.429,334.9 299.465,341.624 292.465,348.31C291.962,348.706 291.295,348.763 290.689,348.632C289.651,348.257 289.034,347.242 288.202,346.562C281.582,340.176 274.952,333.801 268.341,327.407C265.827,324.653 263.583,321.532 262.504,317.924L166.732,317.924L134.891,351.528L111.182,351.907L142.586,317.924L130.776,317.924L100.685,352.109L89.892,352.109L119.981,317.924L109.892,317.924L78.258,352.109L67.306,352.109C67.435,351.905 67.582,351.713 67.745,351.535L98.849,317.924L87.888,317.924Z"/>
            <g transform="matrix(1,0,0,1,-0.739583,-1.28646)">
                <path d="M294.11,356.536C294.548,356.591 294.617,356.64 294.797,356.73C295.441,357.052 295.843,357.739 295.86,358.476L295.463,386.478C295.372,388.24 294.893,388.205 293.802,388.353C292.708,388.503 291.65,387.604 291.623,386.424L292.02,358.421C292.043,357.981 292.086,357.909 292.162,357.722C292.471,356.967 293.257,356.492 294.11,356.536ZM269.039,350.79C269.966,350.881 270.064,351.123 270.314,351.389C270.923,352.034 271.085,352.892 270.493,353.806L254.465,376.771C253.853,377.586 253.443,377.556 253.031,377.587C251.595,377.693 250.37,376.031 251.315,374.573L267.343,351.608C267.747,351.07 268.345,350.77 269.039,350.79ZM316.473,352.173C316.871,352.219 317.119,352.277 317.533,352.656L335.162,369.854C335.797,370.514 335.688,370.736 335.68,371.119C335.655,372.421 333.89,373.354 332.758,372.317L315.13,355.12C314.536,354.502 314.604,354.228 314.611,353.855C314.63,352.899 315.084,352.103 316.473,352.173ZM331.776,334.507C332.052,334.527 332.314,334.596 332.566,334.712L357.562,347.339C359.312,348.303 358.288,351.9 355.831,350.767L330.834,338.139C330.39,337.895 330.289,337.762 330.119,337.515C329.342,336.388 329.997,334.618 331.639,334.506C331.684,334.506 331.73,334.507 331.776,334.507ZM249.07,330.543C250.107,330.693 250.22,330.991 250.486,331.334C251.24,332.307 251.059,333.737 249.799,334.448L221.14,349.249C219.166,350.179 216.632,347.032 219.237,345.563L247.895,330.762C248.265,330.588 248.657,330.513 249.07,330.543ZM223.208,284.167C223.582,284.212 223.79,284.236 224.276,284.574L250.08,303.928C250.998,304.667 250.934,305.154 250.907,305.691C250.832,307.185 249.077,308.282 247.591,307.246L221.787,287.893C220.933,287.204 221.004,286.837 220.966,286.419C220.861,285.252 221.666,284.187 223.063,284.16C223.111,284.162 223.16,284.165 223.208,284.167ZM359.727,289.909C363.338,290.415 361.567,292.888 360.395,293.533L335.398,306.161C333.576,307.001 331.297,304.038 333.666,302.733L358.663,290.105C358.999,289.95 359.354,289.884 359.727,289.909ZM256.708,260.947C257.365,261.029 257.913,261.397 258.239,261.97L271.22,286.784C271.989,288.39 271.453,288.647 270.642,289.232C269.751,289.875 268.398,289.584 267.817,288.564L254.836,263.75C254.439,262.921 254.587,262.765 254.669,262.418C254.923,261.341 256.485,260.935 256.708,260.947ZM337.93,264.103C338.72,264.181 338.766,264.352 338.989,264.558C339.603,265.126 339.777,265.965 339.23,266.806L325.118,286.99C322.888,289.958 321.45,286.324 322.298,285.018L336.41,264.834C336.772,264.353 337.308,264.085 337.93,264.103ZM296.491,249.673C297.476,249.769 298.233,250.361 298.295,251.562L298.692,279.564C298.651,281.328 298.171,281.307 297.085,281.486C295.996,281.666 294.913,280.798 294.852,279.619L294.455,251.616C294.486,250.301 296.261,249.667 296.491,249.673Z"/>
            </g>
            <path d="M359.113,387.674C359.68,386.794 360.483,385.974 361.378,385.675C363.927,384.943 375.736,384.419 379.493,383.896C379.896,383.896 380.969,383.373 381.372,382.745C382.311,379.188 389.825,365.378 393.314,363.495C394.656,362.971 398.413,365.273 399.487,366.215C401.634,368.307 392.643,381.385 393.046,381.595C392.778,382.013 393.314,382.955 393.717,382.85C396.132,382.85 411.832,381.49 417.87,381.49L417.87,381.385C418.273,381.595 420.286,382.85 420.286,383.896C410.222,385.57 397.071,386.303 393.583,386.93C392.778,387.035 391.301,387.14 390.631,388.604C389.289,391.639 381.908,422.398 381.908,437.987C381.908,444.265 382.177,464.039 384.726,464.039C387.683,464.039 401.077,438.515 407.856,426.15C406.259,423.715 405.123,421.315 405.123,419.364C405.123,410.89 419.615,399.172 428.739,399.172C434.644,399.172 437.059,408.483 434.778,411.203C430.216,416.749 431.155,410.366 429.276,408.902C428.069,407.96 415.455,415.807 415.455,420.096C415.455,426.897 427.263,434.953 427.263,434.953C429.008,434.639 445.244,422.398 447.928,421.457C448.733,421.247 450.478,423.444 449.807,424.491C448.733,425.955 432.363,434.744 431.021,438.197C431.021,438.824 431.021,439.347 431.423,439.871C440.816,450.647 430.618,469.584 413.04,469.584C407.672,469.584 399.218,465.713 398.95,459.435C398.95,455.146 406.599,448.659 412.771,444.788C418.273,441.335 419.883,440.603 417.334,437.569C416.021,436.034 413.072,432.997 410.401,429.634C401.805,446.555 391.17,471.153 382.714,471.153C367.953,471.153 367.416,450.333 367.416,437.673C367.416,436.539 367.44,435.407 367.485,434.279C363.162,442.733 357.578,451.275 351.18,451.275C342.789,451.275 338.037,445.312 336.532,439.388C331.382,452.203 325.786,464.535 320.719,465.713C317.231,466.55 303.678,462.26 303.678,453.263C303.678,446.357 307.435,435.999 308.374,431.501C308.508,430.768 307.435,430.35 306.898,430.977C299.652,436.627 290.93,453.053 283.416,453.367C276.17,453.681 271.473,448.659 271.339,444.056C271.176,439.182 272.586,430.479 277.765,422.673C274.062,424.179 270.33,425.348 267.716,425.537C265.166,425.537 260.604,465.504 253.895,465.922C248.527,466.236 242.22,464.771 239.537,459.645C236.45,453.89 238.195,421.561 235.779,421.561C232.693,421.561 221.287,456.924 211.492,456.715C205.587,456.611 199.147,452.216 199.147,445.102C199.147,443.774 199.237,440.641 199.403,436.674C193.961,450.408 187.931,464.452 182.507,465.713C179.019,466.55 165.466,462.26 165.466,453.263C165.466,446.357 169.223,435.999 170.162,431.501C170.296,430.768 169.223,430.35 168.686,430.977C161.44,436.627 152.718,453.053 145.204,453.367C137.958,453.681 133.261,448.659 133.127,444.056C132.858,435.999 136.884,417.481 155.133,409.843C158.488,408.483 174.725,413.505 173.517,417.272C173.517,417.69 174.188,417.795 174.322,417.481C175.261,415.493 175.53,411.936 178.884,411.936C183.031,411.414 189.712,414.948 189.753,417.665C189.028,419.86 177.419,457.399 181.836,458.285C184.952,458.598 194.317,438.073 199.892,426.872C200.467,416.985 201.336,406.591 202.367,404.926C205.051,400.636 220.616,407.542 220.08,409.111C212.297,431.291 211.089,447.404 215.249,447.404C220.348,447.404 231.083,415.284 235.511,416.225C237.658,414.97 248.393,421.457 249.064,423.549C250.272,427.316 247.99,457.448 250.808,459.749C252.687,462.156 262.617,428.676 262.08,425.537C254.566,425.118 249.869,418.946 249.869,407.437C249.869,404.089 252.687,394.15 256.847,394.15C267.313,394.15 269.058,416.016 267.179,420.829C266.11,423.121 276.28,419.648 283.236,416.259C285.984,413.744 289.319,411.529 293.345,409.843C296.7,408.483 312.937,413.505 311.729,417.272C311.729,417.69 312.4,417.795 312.534,417.481C313.473,415.493 313.742,411.936 317.096,411.936C321.243,411.414 327.924,414.948 327.965,417.665C327.24,419.86 315.631,457.399 320.048,458.285C322.898,458.571 330.975,441.426 336.6,429.926C337.457,422.625 339.293,411.093 342.323,409.948C344.739,407.018 353.193,412.145 353.193,415.388C353.729,416.853 349.704,437.046 349.972,440.08C350.106,441.858 350.777,446.671 355.205,445.311C357.635,444.856 364.216,432.606 368.273,425.286C370.723,406.818 377.624,391.256 378.285,389.023C378.42,388.604 377.883,388.291 377.48,388.291C372.47,388.591 366.23,389.275 359.231,390.067L359.231,390.069C358.828,391.534 356.279,397.393 355.205,398.021C353.998,398.962 346.752,398.021 345.007,396.661C342.726,395.3 344.739,385.57 347.288,384.315C351.72,383.219 357.72,384.703 359.113,387.674ZM420.957,445.102C421.225,445.102 421.896,445.206 422.03,445.416C427.8,453.053 418.944,461.109 410.088,461.109C407.672,461.109 405.525,460.272 405.525,458.494C405.525,453.995 418.139,445.102 420.957,445.102ZM166.673,417.062C167.881,418.527 168.552,420.306 168.149,422.084C167.747,425.537 149.766,448.554 147.485,444.997C144.533,438.51 156.207,416.435 162.111,416.435C163.05,416.435 165.868,416.225 166.673,417.062ZM304.885,417.062C306.093,418.527 306.764,420.306 306.361,422.084C305.959,425.537 287.978,448.554 285.697,444.997C282.745,438.51 294.419,416.435 300.323,416.435C301.262,416.435 304.08,416.225 304.885,417.062ZM262.214,421.457C249.869,421.457 254.029,398.125 257.92,398.125C263.422,398.125 265.032,421.457 262.214,421.457ZM189.753,417.665C189.799,417.526 189.801,417.528 189.753,417.69L189.753,417.665ZM327.965,417.665C328.011,417.526 328.013,417.528 327.965,417.69L327.965,417.665Z"/>
            <path d="M330.555,204.062C332.547,181.231 339.354,161.579 339.984,158.849C340.108,158.356 339.615,157.987 339.246,157.987C334.444,158.356 328.41,159.218 321.638,160.203C321.392,159.095 322.746,155.648 324.47,154.909C326.81,154.047 337.645,153.431 341.093,152.816C341.462,152.816 342.447,152.2 342.816,151.461C343.678,147.275 350.573,131.022 353.775,128.805C355.006,128.19 358.454,130.899 359.439,132.007C361.409,134.469 353.159,149.86 353.529,150.107C353.282,150.599 353.775,151.707 354.144,151.584C356.361,151.584 370.767,149.984 376.307,149.984L376.307,149.86C376.677,150.107 378.524,151.584 378.524,152.816C369.289,154.786 357.222,155.648 354.021,156.386C353.282,156.509 351.928,156.633 351.312,158.356C350.081,161.927 343.309,198.127 343.309,216.473C343.309,223.861 343.555,247.132 345.895,247.132C348.351,247.132 358.664,222.494 365.209,207.036C366.911,196.6 370.468,186.859 374.214,181.751C375.569,181.751 381.232,183.475 381.109,185.198C377.416,192.955 370.52,230.14 378.031,230.14C381.479,230.14 398.224,178.303 398.47,180.889C399.825,180.273 407.828,181.258 407.705,184.213C407.705,184.583 400.317,226.57 407.089,226.57C410.295,226.57 420.366,204.711 422.961,197.293C419.695,194.546 416.94,191.305 416.94,188.153C417.186,182.613 425.189,161.927 433.808,160.203C437.256,160.203 440.211,164.02 440.457,167.222C441.319,168.822 436.271,184.336 433.685,189.015C433.439,189.508 433.808,189.385 433.808,189.631C437.502,193.817 443.782,194.31 445.629,200.836C448.461,210.44 431.961,245.531 438.98,245.531C442.903,245.531 454.325,222.799 459.993,207.574C461.875,193.153 469.719,176.333 484.784,176.333C486.261,176.333 493.895,179.042 495.496,186.922C496.481,195.541 481.459,201.821 475.549,201.944C472.471,201.944 472.225,215.488 472.348,218.32C472.348,221.768 474.687,225.092 480.105,225.092C490.448,225.092 506.331,200.343 507.193,199.358C508.547,199.112 511.626,196.649 512.857,198.373L512.364,199.235C506.577,208.1 492.541,231.987 478.75,231.987C471.257,231.987 462.707,226.445 460.241,218.706C454.031,234.599 445.045,253.535 438.734,253.535C434.055,253.535 426.421,250.949 426.421,243.192C426.421,231.618 434.178,213.641 435.286,209.824C436.025,207.608 436.025,205.391 433.439,204.283C432.837,203.9 429.507,202.129 425.995,199.63C417.137,222.62 411.239,234.573 404.873,234.573C395.146,234.819 393.792,221.891 394.161,208.593C394.284,207.238 393.176,206.746 392.683,208.223C390.467,215.119 381.602,238.021 377.539,238.021C373.475,238.021 366.826,236.666 365.595,231.618C364.673,228.14 364.23,224.291 364.17,220.297C357.481,237.621 350.147,255.505 344.048,255.505C330.504,255.505 330.011,231.002 330.011,216.104C330.011,215.181 330.021,214.259 330.041,213.339C324.285,224.737 316.36,239.498 311.419,239.498C306.124,239.498 299.844,232.603 299.721,228.54C298.121,214.01 311.049,189.262 311.049,184.213C311.049,183.228 309.941,182.736 309.449,182.736C304.77,182.736 280.883,225.215 284.823,235.681C283.961,238.267 272.264,235.804 272.264,227.801C272.264,224.349 272.649,218.981 273.262,213.054C266.482,222.356 257.626,231.987 248.869,231.987C240.004,231.987 229.661,224.23 229.661,214.257C229.661,207.784 231.055,199.984 233.994,193.145C231.912,193.677 230.328,193.948 230.154,193.817C228.307,193.694 227.814,196.28 227.691,196.649C225.352,206.253 214.27,244.916 208.483,244.916C202.573,244.3 194.57,240.36 194.57,232.603C194.57,230.401 195.017,224.325 195.185,216.667C190.708,228.987 184.519,243.315 179.917,243.315C163.172,243.315 161.571,224.23 161.571,206.869C161.571,205.638 160.709,206.253 160.34,206.992C160.094,207.854 149.258,236.174 141.378,236.174C138.439,236.174 134.115,232.759 131.203,229.546C127.593,239.861 123.886,248.076 120.446,249.102C117.245,250.087 104.809,245.039 104.809,234.45C104.809,226.323 108.256,214.134 109.118,208.839C109.241,207.977 108.256,207.485 107.764,208.223C101.115,214.872 93.112,234.204 86.216,234.573C79.567,234.942 75.258,229.032 75.135,223.615C74.889,214.134 78.582,192.34 95.328,183.351C98.406,181.751 113.305,187.661 112.197,192.094C112.197,192.586 112.812,192.709 112.935,192.34C113.797,190 114.043,185.814 117.122,185.814C120.927,185.2 127.058,189.359 127.095,192.557C126.427,195.149 115.778,239.318 119.831,240.36C121.387,240.561 124.643,233.494 128.112,224.885C128.091,224.782 128.08,224.687 128.08,224.6C128.08,205.145 143.471,182.366 150.859,182.366C154.183,181.997 159.478,183.105 162.556,184.336C162.556,173.994 168.959,137.055 183.488,137.055C207.375,137.055 187.059,171.901 180.533,181.505C178.44,184.583 177.208,184.706 176.593,192.832C176.1,199.604 177.701,230.387 181.641,233.711C184.918,233.711 191.004,217.021 195.157,204.885C194.913,196.861 194.131,188.415 192.23,181.381C191.491,178.673 208.729,183.967 208.729,189.508C208.729,193.448 204.05,222.629 204.05,232.726C204.05,234.942 207.621,236.666 207.744,236.666C210.33,236.666 218.949,212.287 223.505,196.034C223.751,195.049 224.244,193.325 223.751,192.709C222.15,190.493 216.117,185.568 216.117,181.258C216.117,171.531 219.195,157.002 224.49,157.002C228.676,157.002 231.508,161.311 231.508,166.852C231.508,173.378 230.892,183.105 229.661,189.015C229.538,190.37 230.769,190.247 231.385,190.247C232.3,190.054 234.042,189.711 235.899,189.254C240.026,181.84 246.282,176.333 254.903,176.333C256.38,176.333 264.014,179.042 265.615,186.922C266.6,195.541 251.578,201.821 245.668,201.944C242.59,201.944 242.343,215.488 242.467,218.32C242.467,221.768 244.806,225.092 250.224,225.092C258.088,225.092 269.155,210.784 274.387,203.493C275.778,192.91 277.598,182.772 279.036,180.027C281.991,180.027 289.748,182.736 289.748,185.937C289.748,190.493 284.453,204.653 284.453,210.809C284.453,212.164 285.438,212.902 285.438,212.902C287.532,204.406 307.109,170.546 313.635,170.546C317.206,170.546 323.485,174.979 323.485,179.781C323.116,194.064 310.31,215.981 312.034,230.263C312.157,230.633 313.019,231.002 313.389,230.756C320.091,225.413 325.491,213.251 330.555,204.062ZM161.079,196.157C161.079,199.112 148.519,224.476 143.594,228.909C137.561,221.768 146.549,196.896 157.754,193.079C160.094,192.586 161.079,194.679 161.079,196.157ZM105.917,191.847C107.025,193.571 107.641,195.664 107.271,197.758C106.902,201.821 90.403,228.909 88.31,224.723C85.601,217.089 96.313,191.109 101.731,191.109C102.593,191.109 105.178,190.862 105.917,191.847ZM490.201,189.015C489.216,191.724 484.537,195.541 479.366,196.526C478.258,196.649 475.056,196.896 475.795,194.433C477.15,190 480.474,185.445 485.892,183.844C489.093,183.475 490.694,186.06 490.201,189.015ZM260.32,189.015C259.335,191.724 254.656,195.541 249.485,196.526C248.377,196.649 245.175,196.896 245.914,194.433C247.269,190 250.593,185.445 256.011,183.844C259.212,183.475 260.813,186.06 260.32,189.015ZM127.095,192.557C127.137,192.393 127.139,192.396 127.095,192.586L127.095,192.557ZM225.967,162.666C230.277,162.666 226.46,188.769 225.598,188.769C223.505,188.769 221.042,183.475 221.042,180.027C221.042,177.688 222.52,162.666 225.967,162.666ZM427.529,184.213C428.637,180.15 429.499,178.303 430.607,176.087C431.838,173.501 433.932,174.24 432.823,180.027C432.331,182.366 432.208,183.721 431.223,185.445C429.991,187.661 427.529,184.952 427.529,184.213ZM176.839,177.318C175.854,168.576 181.272,143.458 185.581,143.458C198.633,143.458 180.779,173.747 178.686,177.441C178.44,178.057 176.962,178.18 176.839,177.318Z"/>
        </g>
    </g>
</svg>
