solid projekt
facet normal -1.0 0.0 0.0
outer loop
vertex 126.73202568228508 75.09659804608495 50.41007660861892
vertex 126.73202568228508 35.09659804608493 44.41007660861893
vertex 126.73202568228508 35.09659804608493 50.41007660861892
endloop
endfacet
facet normal -1.0 0.0 0.0
outer loop
vertex 126.73202568228508 35.09659804608493 44.41007660861893
vertex 126.73202568228508 75.09659804608495 50.41007660861892
vertex 126.73202568228508 75.09659804608495 44.41007660861893
endloop
endfacet
facet normal -3.5974617667184464e-31 1.0 -2.8420428521577296e-15
outer loop
vertex 112.73202568228506 75.09659804608495 50.41007660861892
vertex 126.73202568228508 75.09659804608495 44.41007660861893
vertex 112.73202568228506 75.09659804608495 44.41007660861893
endloop
endfacet
facet normal -3.5974617667184464e-31 1.0 -2.8420428521577296e-15
outer loop
vertex 126.73202568228508 75.09659804608495 44.41007660861893
vertex 112.73202568228506 75.09659804608495 50.41007660861892
vertex 126.73202568228508 75.09659804608495 50.41007660861892
endloop
endfacet
facet normal -3.5974617667184464e-31 1.0 -2.8420428521577296e-15
outer loop
vertex 126.73202568228508 75.09659804608495 50.41007660861892
vertex 112.73202568228506 75.09659804608495 50.41007660861892
vertex 113.69271283703644 75.09659804608498 51.29133315311831
endloop
endfacet
facet normal -3.5974617667184464e-31 1.0 -2.8420428521577296e-15
outer loop
vertex 126.73202568228508 75.09659804608495 50.41007660861892
vertex 113.69271283703644 75.09659804608498 51.29133315311831
vertex 125.77133852753371 75.09659804608498 51.29133315311831
endloop
endfacet
facet normal -3.5974617667184464e-31 1.0 -2.8420428521577296e-15
outer loop
vertex 125.77133852753371 75.09659804608498 51.29133315311831
vertex 113.69271283703644 75.09659804608498 51.29133315311831
vertex 114.76324077445108 75.09659804608498 52.03531086900907
endloop
endfacet
facet normal -3.5974617667184464e-31 1.0 -2.8420428521577296e-15
outer loop
vertex 125.77133852753371 75.09659804608498 51.29133315311831
vertex 114.76324077445108 75.09659804608498 52.03531086900907
vertex 124.70081059011905 75.09659804608498 52.03531086900907
endloop
endfacet
facet normal -3.5974617667184464e-31 1.0 -2.8420428521577296e-15
outer loop
vertex 124.70081059011905 75.09659804608498 52.03531086900907
vertex 114.76324077445108 75.09659804608498 52.03531086900907
vertex 115.92413912935311 75.09659804608498 52.62847856546015
endloop
endfacet
facet normal -3.5974617667184464e-31 1.0 -2.8420428521577296e-15
outer loop
vertex 124.70081059011905 75.09659804608498 52.03531086900907
vertex 115.92413912935311 75.09659804608498 52.62847856546015
vertex 123.53991223521703 75.09659804608498 52.62847856546015
endloop
endfacet
facet normal -3.5974617667184464e-31 1.0 -2.8420428521577296e-15
outer loop
vertex 123.53991223521703 75.09659804608498 52.62847856546015
vertex 115.92413912935311 75.09659804608498 52.62847856546015
vertex 117.15429391292254 75.09659804608498 53.06004792835398
endloop
endfacet
facet normal -3.5974617667184464e-31 1.0 -2.8420428521577296e-15
outer loop
vertex 123.53991223521703 75.09659804608498 52.62847856546015
vertex 117.15429391292254 75.09659804608498 53.06004792835398
vertex 122.3097574516476 75.09659804608498 53.06004792835398
endloop
endfacet
facet normal -3.5974617667184464e-31 1.0 -2.8420428521577296e-15
outer loop
vertex 122.3097574516476 75.09659804608498 53.06004792835398
vertex 117.15429391292254 75.09659804608498 53.06004792835398
vertex 118.43133152609491 75.09659804608498 53.32216973414337
endloop
endfacet
facet normal -3.5974617667184464e-31 1.0 -2.8420428521577296e-15
outer loop
vertex 122.3097574516476 75.09659804608498 53.06004792835398
vertex 118.43133152609491 75.09659804608498 53.32216973414337
vertex 121.03271983847522 75.09659804608498 53.32216973414337
endloop
endfacet
facet normal -3.5974617667184464e-31 1.0 -2.8420428521577296e-15
outer loop
vertex 121.03271983847522 75.09659804608498 53.32216973414337
vertex 118.43133152609491 75.09659804608498 53.32216973414337
vertex 119.73202568228507 75.09659804608498 53.41007660861893
endloop
endfacet
facet normal 0.0 -1.0 0.0
outer loop
vertex 126.73202568228508 35.09659804608493 50.41007660861892
vertex 112.73202568228506 35.09659804608493 44.41007660861893
vertex 126.73202568228508 35.09659804608493 44.41007660861893
endloop
endfacet
facet normal 0.0 -1.0 0.0
outer loop
vertex 112.73202568228506 35.09659804608493 44.41007660861893
vertex 126.73202568228508 35.09659804608493 50.41007660861892
vertex 112.73202568228506 35.09659804608493 50.41007660861892
endloop
endfacet
facet normal 0.0 -1.0 0.0
outer loop
vertex 112.73202568228506 35.09659804608493 50.41007660861892
vertex 126.73202568228508 35.09659804608493 50.41007660861892
vertex 125.77133852753371 35.09659804608493 51.29133315311831
endloop
endfacet
facet normal 0.0 -1.0 0.0
outer loop
vertex 112.73202568228506 35.09659804608493 50.41007660861892
vertex 125.77133852753371 35.09659804608493 51.29133315311831
vertex 113.69271283703644 35.09659804608493 51.29133315311831
endloop
endfacet
facet normal 0.0 -1.0 0.0
outer loop
vertex 113.69271283703644 35.09659804608493 51.29133315311831
vertex 125.77133852753371 35.09659804608493 51.29133315311831
vertex 124.70081059011905 35.09659804608493 52.03531086900907
endloop
endfacet
facet normal 0.0 -1.0 0.0
outer loop
vertex 113.69271283703644 35.09659804608493 51.29133315311831
vertex 124.70081059011905 35.09659804608493 52.03531086900907
vertex 114.76324077445108 35.09659804608493 52.03531086900907
endloop
endfacet
facet normal 0.0 -1.0 0.0
outer loop
vertex 114.76324077445108 35.09659804608493 52.03531086900907
vertex 124.70081059011905 35.09659804608493 52.03531086900907
vertex 123.53991223521703 35.09659804608493 52.62847856546015
endloop
endfacet
facet normal 0.0 -1.0 0.0
outer loop
vertex 114.76324077445108 35.09659804608493 52.03531086900907
vertex 123.53991223521703 35.09659804608493 52.62847856546015
vertex 115.92413912935311 35.09659804608493 52.62847856546015
endloop
endfacet
facet normal 0.0 -1.0 0.0
outer loop
vertex 115.92413912935311 35.09659804608493 52.62847856546015
vertex 123.53991223521703 35.09659804608493 52.62847856546015
vertex 122.3097574516476 35.09659804608493 53.06004792835398
endloop
endfacet
facet normal 0.0 -1.0 0.0
outer loop
vertex 115.92413912935311 35.09659804608493 52.62847856546015
vertex 122.3097574516476 35.09659804608493 53.06004792835398
vertex 117.15429391292254 35.09659804608493 53.06004792835398
endloop
endfacet
facet normal 0.0 -1.0 0.0
outer loop
vertex 117.15429391292254 35.09659804608493 53.06004792835398
vertex 122.3097574516476 35.09659804608493 53.06004792835398
vertex 121.03271983847522 35.09659804608493 53.32216973414337
endloop
endfacet
facet normal 0.0 -1.0 0.0
outer loop
vertex 117.15429391292254 35.09659804608493 53.06004792835398
vertex 121.03271983847522 35.09659804608493 53.32216973414337
vertex 118.43133152609491 35.09659804608493 53.32216973414337
endloop
endfacet
facet normal 0.0 -1.0 0.0
outer loop
vertex 118.43133152609491 35.09659804608493 53.32216973414337
vertex 121.03271983847522 35.09659804608493 53.32216973414337
vertex 119.73202568228507 35.09659804608493 53.41007660861893
endloop
endfacet
facet normal 1.0 -0.0 -0.0
outer loop
vertex 112.73202568228506 75.09659804608495 44.41007660861893
vertex 112.73202568228506 35.09659804608493 50.41007660861892
vertex 112.73202568228506 35.09659804608493 44.41007660861893
endloop
endfacet
facet normal 1.0 -0.0 -0.0
outer loop
vertex 112.73202568228506 35.09659804608493 50.41007660861892
vertex 112.73202568228506 75.09659804608495 44.41007660861893
vertex 112.73202568228506 75.09659804608495 50.41007660861892
endloop
endfacet
facet normal 0.5140122318448933 0.0 0.8577828545231196
outer loop
vertex 124.70081059011905 35.09659804608493 52.03531086900907
vertex 123.53991223521703 75.09659804608498 52.62847856546015
vertex 123.53991223521703 35.09659804608493 52.62847856546015
endloop
endfacet
facet normal 0.39391929857916785 0.0 0.9191450300180578
outer loop
vertex 123.53991223521703 75.09659804608498 52.62847856546015
vertex 124.70081059011905 35.09659804608493 52.03531086900907
vertex 124.70081059011905 75.09659804608498 52.03531086900907
endloop
endfacet
facet normal -0.2666619071754339 0.0 0.9637901365243162
outer loop
vertex 117.15429391292254 35.09659804608493 53.06004792835398
vertex 115.92413912935311 75.09659804608498 52.62847856546015
vertex 115.92413912935311 35.09659804608493 52.62847856546015
endloop
endfacet
facet normal -0.39391929857916785 0.0 0.9191450300180578
outer loop
vertex 115.92413912935311 75.09659804608498 52.62847856546015
vertex 117.15429391292254 35.09659804608493 53.06004792835398
vertex 117.15429391292254 75.09659804608498 53.06004792835398
endloop
endfacet
facet normal -0.13455456788174058 0.0 0.990906185399081
outer loop
vertex 118.43133152609491 35.09659804608493 53.32216973414337
vertex 117.15429391292254 75.09659804608498 53.06004792835398
vertex 117.15429391292254 35.09659804608493 53.06004792835398
endloop
endfacet
facet normal -0.2666619071754339 0.0 0.9637901365243162
outer loop
vertex 117.15429391292254 75.09659804608498 53.06004792835398
vertex 118.43133152609491 35.09659804608493 53.32216973414337
vertex 118.43133152609491 75.09659804608498 53.32216973414337
endloop
endfacet
facet normal -0.39391929857916785 0.0 0.9191450300180578
outer loop
vertex 115.92413912935311 35.09659804608493 52.62847856546015
vertex 114.76324077445108 75.09659804608498 52.03531086900907
vertex 114.76324077445108 35.09659804608493 52.03531086900907
endloop
endfacet
facet normal -0.5140122318448976 0.0 0.8577828545231172
outer loop
vertex 114.76324077445108 75.09659804608498 52.03531086900907
vertex 115.92413912935311 35.09659804608493 52.62847856546015
vertex 115.92413912935311 75.09659804608498 52.62847856546015
endloop
endfacet
facet normal 0.2666619071754339 0.0 0.9637901365243162
outer loop
vertex 122.3097574516476 35.09659804608493 53.06004792835398
vertex 121.03271983847522 75.09659804608498 53.32216973414337
vertex 121.03271983847522 35.09659804608493 53.32216973414337
endloop
endfacet
facet normal 0.13455456788174058 0.0 0.990906185399081
outer loop
vertex 121.03271983847522 75.09659804608498 53.32216973414337
vertex 122.3097574516476 35.09659804608493 53.06004792835398
vertex 122.3097574516476 75.09659804608498 53.06004792835398
endloop
endfacet
facet normal 0.13455456788174058 0.0 0.990906185399081
outer loop
vertex 121.03271983847522 35.09659804608493 53.32216973414337
vertex 119.73202568228507 75.09659804608498 53.41007660861893
vertex 119.73202568228507 35.09659804608493 53.41007660861893
endloop
endfacet
facet normal 0.0 0.0 1.0
outer loop
vertex 119.73202568228507 75.09659804608498 53.41007660861893
vertex 121.03271983847522 35.09659804608493 53.32216973414337
vertex 121.03271983847522 75.09659804608498 53.32216973414337
endloop
endfacet
facet normal 0.6247565012326154 3.0305588422947458e-19 0.7808196425344208
outer loop
vertex 125.77133852753371 35.09659804608493 51.29133315311831
vertex 124.70081059011905 75.09659804608498 52.03531086900907
vertex 124.70081059011905 35.09659804608493 52.03531086900907
endloop
endfacet
facet normal 0.5140122318448933 0.0 0.8577828545231196
outer loop
vertex 124.70081059011905 75.09659804608498 52.03531086900907
vertex 125.77133852753371 35.09659804608493 51.29133315311831
vertex 125.77133852753371 75.09659804608498 51.29133315311831
endloop
endfacet
facet normal 0.39391929857916785 0.0 0.9191450300180578
outer loop
vertex 123.53991223521703 35.09659804608493 52.62847856546015
vertex 122.3097574516476 75.09659804608498 53.06004792835398
vertex 122.3097574516476 35.09659804608493 53.06004792835398
endloop
endfacet
facet normal 0.2666619071754339 0.0 0.9637901365243162
outer loop
vertex 122.3097574516476 75.09659804608498 53.06004792835398
vertex 123.53991223521703 35.09659804608493 52.62847856546015
vertex 123.53991223521703 75.09659804608498 52.62847856546015
endloop
endfacet
facet normal 0.6759857894241484 6.047322315032052e-19 0.7369146575395356
outer loop
vertex 126.73202568228508 35.09659804608493 50.41007660861892
vertex 125.77133852753371 75.09659804608498 51.29133315311831
vertex 125.77133852753371 35.09659804608493 51.29133315311831
endloop
endfacet
facet normal 0.6247565012326152 3.030558842294729e-19 0.7808196425344212
outer loop
vertex 125.77133852753371 75.09659804608498 51.29133315311831
vertex 126.73202568228508 35.09659804608493 50.41007660861892
vertex 126.73202568228508 75.09659804608495 50.41007660861892
endloop
endfacet
facet normal 0.0 0.0 1.0
outer loop
vertex 119.73202568228507 35.09659804608493 53.41007660861893
vertex 118.43133152609491 75.09659804608498 53.32216973414337
vertex 118.43133152609491 35.09659804608493 53.32216973414337
endloop
endfacet
facet normal -0.13455456788174058 0.0 0.990906185399081
outer loop
vertex 118.43133152609491 75.09659804608498 53.32216973414337
vertex 119.73202568228507 35.09659804608493 53.41007660861893
vertex 119.73202568228507 75.09659804608498 53.41007660861893
endloop
endfacet
facet normal -0.5140122318448976 0.0 0.8577828545231172
outer loop
vertex 114.76324077445108 35.09659804608493 52.03531086900907
vertex 113.69271283703644 75.09659804608498 51.29133315311831
vertex 113.69271283703644 35.09659804608493 51.29133315311831
endloop
endfacet
facet normal -0.6247565012326144 3.03055884229447e-19 0.7808196425344218
outer loop
vertex 113.69271283703644 75.09659804608498 51.29133315311831
vertex 114.76324077445108 35.09659804608493 52.03531086900907
vertex 114.76324077445108 75.09659804608498 52.03531086900907
endloop
endfacet
facet normal -0.6247565012326147 3.0305588422944867e-19 0.7808196425344215
outer loop
vertex 113.69271283703644 35.09659804608493 51.29133315311831
vertex 112.73202568228506 75.09659804608495 50.41007660861892
vertex 112.73202568228506 35.09659804608493 50.41007660861892
endloop
endfacet
facet normal -0.6759857894241398 6.04732231503154e-19 0.7369146575395434
outer loop
vertex 112.73202568228506 75.09659804608495 50.41007660861892
vertex 113.69271283703644 35.09659804608493 51.29133315311831
vertex 113.69271283703644 75.09659804608498 51.29133315311831
endloop
endfacet
facet normal 0.0 0.0 -1.0
outer loop
vertex 131.23202568228507 76.09659804608494 42.41007660861893
vertex 108.23202568228507 34.09659804608494 42.41007660861893
vertex 108.23202568228507 76.09659804608494 42.41007660861893
endloop
endfacet
facet normal 0.0 0.0 -1.0
outer loop
vertex 108.23202568228507 34.09659804608494 42.41007660861893
vertex 131.23202568228507 76.09659804608494 42.41007660861893
vertex 131.23202568228507 34.09659804608494 42.41007660861893
endloop
endfacet
facet normal 1.0 0.0 0.0
outer loop
vertex 131.23202568228507 76.09659804608494 42.41007660861893
vertex 131.23202568228507 34.09659804608494 44.41007660861893
vertex 131.23202568228507 34.09659804608494 42.41007660861893
endloop
endfacet
facet normal 1.0 0.0 0.0
outer loop
vertex 131.23202568228507 34.09659804608494 44.41007660861893
vertex 131.23202568228507 76.09659804608494 42.41007660861893
vertex 131.23202568228507 76.09659804608494 44.41007660861893
endloop
endfacet
facet normal -0.0 -0.0 -1.0
outer loop
vertex 108.23202568228507 76.09659804608494 44.41007660861893
vertex 112.73202568228506 75.09659804608495 44.41007660861893
vertex 108.23202568228507 34.09659804608494 44.41007660861893
endloop
endfacet
facet normal -0.0 -0.0 -1.0
outer loop
vertex 112.73202568228506 75.09659804608495 44.41007660861893
vertex 108.23202568228507 76.09659804608494 44.41007660861893
vertex 131.23202568228507 76.09659804608494 44.41007660861893
endloop
endfacet
facet normal -0.0 -0.0 -1.0
outer loop
vertex 112.73202568228506 75.09659804608495 44.41007660861893
vertex 131.23202568228507 76.09659804608494 44.41007660861893
vertex 126.73202568228508 75.09659804608495 44.41007660861893
endloop
endfacet
facet normal -0.0 -0.0 -1.0
outer loop
vertex 126.73202568228508 75.09659804608495 44.41007660861893
vertex 131.23202568228507 76.09659804608494 44.41007660861893
vertex 126.73202568228508 35.09659804608493 44.41007660861893
endloop
endfacet
facet normal -0.0 -0.0 -1.0
outer loop
vertex 108.23202568228507 34.09659804608494 44.41007660861893
vertex 112.73202568228506 35.09659804608493 44.41007660861893
vertex 131.23202568228507 34.09659804608494 44.41007660861893
endloop
endfacet
facet normal -0.0 -0.0 -1.0
outer loop
vertex 112.73202568228506 35.09659804608493 44.41007660861893
vertex 108.23202568228507 34.09659804608494 44.41007660861893
vertex 112.73202568228506 75.09659804608495 44.41007660861893
endloop
endfacet
facet normal -0.0 -0.0 -1.0
outer loop
vertex 131.23202568228507 34.09659804608494 44.41007660861893
vertex 112.73202568228506 35.09659804608493 44.41007660861893
vertex 126.73202568228508 35.09659804608493 44.41007660861893
endloop
endfacet
facet normal -0.0 -0.0 -1.0
outer loop
vertex 131.23202568228507 34.09659804608494 44.41007660861893
vertex 126.73202568228508 35.09659804608493 44.41007660861893
vertex 131.23202568228507 76.09659804608494 44.41007660861893
endloop
endfacet
facet normal -0.0 -1.0 -0.0
outer loop
vertex 131.23202568228507 34.09659804608494 44.41007660861893
vertex 108.23202568228507 34.09659804608494 42.41007660861893
vertex 131.23202568228507 34.09659804608494 42.41007660861893
endloop
endfacet
facet normal -0.0 -1.0 -0.0
outer loop
vertex 108.23202568228507 34.09659804608494 42.41007660861893
vertex 131.23202568228507 34.09659804608494 44.41007660861893
vertex 108.23202568228507 34.09659804608494 44.41007660861893
endloop
endfacet
facet normal -1.0 0.0 0.0
outer loop
vertex 108.23202568228507 76.09659804608494 44.41007660861893
vertex 108.23202568228507 34.09659804608494 42.41007660861893
vertex 108.23202568228507 34.09659804608494 44.41007660861893
endloop
endfacet
facet normal -1.0 0.0 0.0
outer loop
vertex 108.23202568228507 34.09659804608494 42.41007660861893
vertex 108.23202568228507 76.09659804608494 44.41007660861893
vertex 108.23202568228507 76.09659804608494 42.41007660861893
endloop
endfacet
facet normal 0.0 1.0 0.0
outer loop
vertex 108.23202568228507 76.09659804608494 44.41007660861893
vertex 131.23202568228507 76.09659804608494 42.41007660861893
vertex 108.23202568228507 76.09659804608494 42.41007660861893
endloop
endfacet
facet normal 0.0 1.0 0.0
outer loop
vertex 131.23202568228507 76.09659804608494 42.41007660861893
vertex 108.23202568228507 76.09659804608494 44.41007660861893
vertex 131.23202568228507 76.09659804608494 44.41007660861893
endloop
endfacet
endsolid projekt
