solid solidname
 facet normal 0.00000000 -1.00000000 0.00000000
  outer loop
    vertex -24.62500191 -29.99999619 1.99999952
    vertex -24.62500191 -29.99999619 0.00000000
    vertex 24.62500191 -29.99999619 0.00000000
  endloop
 endfacet
 facet normal -0.00000000 -1.00000000 -0.00000000
  outer loop
    vertex 24.62500191 -29.99999619 0.00000000
    vertex 24.62500191 -29.99999619 1.99999952
    vertex -24.62500191 -29.99999619 1.99999952
  endloop
 endfacet
 facet normal -0.06617599 -0.99780804 -0.00000000
  outer loop
    vertex -24.62500191 -29.99999619 0.00000000
    vertex -26.36533546 -29.88457489 7.34614944
    vertex -26.36533546 -29.88457489 0.00000000
  endloop
 endfacet
 facet normal -0.06617633 -0.99780798 -0.00000000
  outer loop
    vertex -25.00000000 -29.97512627 1.99999952
    vertex -25.00000000 -29.97512627 7.34614944
    vertex -26.36533546 -29.88457489 7.34614944
  endloop
 endfacet
 facet normal -0.06617475 -0.99780798 -0.00000000
  outer loop
    vertex -24.62500191 -29.99999619 0.00000000
    vertex -24.62500191 -29.99999619 1.99999952
    vertex -25.00000000 -29.97512627 1.99999952
  endloop
 endfacet
 facet normal -0.06618069 -0.99780774 -0.00000112
  outer loop
    vertex -24.62500191 -29.99999619 0.00000000
    vertex -25.00000000 -29.97512627 1.99999952
    vertex -26.36533546 -29.88457489 7.34614944
  endloop
 endfacet
 facet normal -0.00000157 0.00000018 -1.00000000
  outer loop
    vertex -35.75000381 29.99999619 0.00001073
    vertex -35.61303329 -22.09157181 0.00000119
    vertex -35.75000381 -20.62499809 0.00000167
  endloop
 endfacet
 facet normal -0.00000004 0.00000015 -1.00000000
  outer loop
    vertex -34.53744888 -24.88115692 0.00000072
    vertex -35.20550537 -23.52203178 0.00000095
    vertex -35.61303329 -22.09157181 0.00000119
  endloop
 endfacet
 facet normal 0.00000066 0.00000067 -0.99999994
  outer loop
    vertex -32.49156570 -27.25412178 0.00000048
    vertex -33.62531662 -26.13548279 0.00000048
    vertex -34.53744888 -24.88115692 0.00000072
  endloop
 endfacet
 facet normal -0.00000011 0.00000010 -0.99999994
  outer loop
    vertex -29.67564583 -28.97818184 0.00000000
    vertex -31.16411209 -28.20952988 0.00000024
    vertex -32.49156570 -27.25412178 0.00000048
  endloop
 endfacet
 facet normal 0.00000000 0.00000000 -0.99999994
  outer loop
    vertex -26.36533546 -29.88457489 0.00000000
    vertex -28.06281471 -29.54115105 0.00000000
    vertex -29.67564583 -28.97818184 0.00000000
  endloop
 endfacet
 facet normal 0.00000000 0.00000000 -0.99999994
  outer loop
    vertex 24.62500191 -29.99999619 0.00000000
    vertex -24.62500191 -29.99999619 0.00000000
    vertex -26.36533546 -29.88457489 0.00000000
  endloop
 endfacet
 facet normal -0.00000000 0.00000000 -1.00000000
  outer loop
    vertex 28.06281471 -29.54115105 0.00000000
    vertex 26.36533546 -29.88457489 0.00000000
    vertex 24.62500191 -29.99999619 0.00000000
  endloop
 endfacet
 facet normal -0.00000033 0.00000096 -0.99999994
  outer loop
    vertex 31.16411209 -28.20953178 0.00000024
    vertex 29.67564583 -28.97818184 0.00000000
    vertex 28.06281471 -29.54115105 0.00000000
  endloop
 endfacet
 facet normal 0.00000066 -0.00000067 -1.00000000
  outer loop
    vertex 33.62531662 -26.13548279 0.00000048
    vertex 32.49156570 -27.25412178 0.00000048
    vertex 31.16411209 -28.20953178 0.00000024
  endloop
 endfacet
 facet normal 0.00000006 0.00000014 -1.00000000
  outer loop
    vertex 35.20550537 -23.52203178 0.00000095
    vertex 34.53744888 -24.88115692 0.00000072
    vertex 33.62531662 -26.13548279 0.00000048
  endloop
 endfacet
 facet normal -0.00000083 0.00000040 -1.00000000
  outer loop
    vertex 35.75000381 -20.62499809 0.00000167
    vertex 35.61303329 -22.09157181 0.00000119
    vertex 35.20550537 -23.52203178 0.00000095
  endloop
 endfacet
 facet normal 0.00000000 0.00000018 -1.00000000
  outer loop
    vertex -35.75000381 29.99999619 0.00001073
    vertex 35.75000381 29.99999619 0.00001073
    vertex 35.75000381 -20.62499809 0.00000167
  endloop
 endfacet
 facet normal 0.00000003 0.00000018 -0.99999994
  outer loop
    vertex -35.75000381 29.99999619 0.00001073
    vertex -34.53744888 -24.88115692 0.00000072
    vertex -35.61303329 -22.09157181 0.00000119
  endloop
 endfacet
 facet normal -0.00000023 -0.00000010 -1.00000000
  outer loop
    vertex -29.67564583 -28.97818184 0.00000000
    vertex -32.49156570 -27.25412178 0.00000048
    vertex -34.53744888 -24.88115692 0.00000072
  endloop
 endfacet
 facet normal 0.00000000 0.00000000 -1.00000000
  outer loop
    vertex 24.62500191 -29.99999619 0.00000000
    vertex -26.36533546 -29.88457489 0.00000000
    vertex -29.67564583 -28.97818184 0.00000000
  endloop
 endfacet
 facet normal -0.00000003 0.00000026 -1.00000000
  outer loop
    vertex 31.16411209 -28.20953178 0.00000024
    vertex 28.06281471 -29.54115105 0.00000000
    vertex 24.62500191 -29.99999619 0.00000000
  endloop
 endfacet
 facet normal -0.00000012 0.00000025 -1.00000000
  outer loop
    vertex 35.20550537 -23.52203178 0.00000095
    vertex 33.62531662 -26.13548279 0.00000048
    vertex 31.16411209 -28.20953178 0.00000024
  endloop
 endfacet
 facet normal 0.00000004 0.00000024 -1.00000000
  outer loop
    vertex -35.75000381 29.99999619 0.00001073
    vertex 35.75000381 -20.62499809 0.00000167
    vertex 35.20550537 -23.52203178 0.00000095
  endloop
 endfacet
 facet normal 0.00000001 0.00000018 -1.00000000
  outer loop
    vertex -35.75000381 29.99999619 0.00001073
    vertex -29.67564583 -28.97818184 0.00000000
    vertex -34.53744888 -24.88115692 0.00000072
  endloop
 endfacet
 facet normal 0.00000000 0.00000012 -0.99999994
  outer loop
    vertex 31.16411209 -28.20953178 0.00000024
    vertex 24.62500191 -29.99999619 0.00000000
    vertex -29.67564583 -28.97818184 0.00000000
  endloop
 endfacet
 facet normal -0.00000001 0.00000016 -1.00000000
  outer loop
    vertex -35.75000381 29.99999619 0.00001073
    vertex 35.20550537 -23.52203178 0.00000095
    vertex 31.16411209 -28.20953178 0.00000024
  endloop
 endfacet
 facet normal 0.00000000 0.00000018 -1.00000000
  outer loop
    vertex -35.75000381 29.99999619 0.00001073
    vertex 31.16411209 -28.20953178 0.00000024
    vertex -29.67564583 -28.97818184 0.00000000
  endloop
 endfacet
 facet normal 0.06617598 -0.99780792 0.00000000
  outer loop
    vertex 26.36533546 -29.88457489 0.00000000
    vertex 24.62500191 -29.99999619 1.99999952
    vertex 24.62500191 -29.99999619 0.00000000
  endloop
 endfacet
 facet normal 0.06617633 -0.99780798 0.00000000
  outer loop
    vertex 26.36533546 -29.88457489 7.34614944
    vertex 25.00000000 -29.97512627 7.34614944
    vertex 25.00000000 -29.97512627 1.99999952
  endloop
 endfacet
 facet normal 0.06617475 -0.99780798 -0.00000108
  outer loop
    vertex 26.36533546 -29.88457489 0.00000000
    vertex 25.00000000 -29.97512627 1.99999952
    vertex 24.62500191 -29.99999619 1.99999952
  endloop
 endfacet
 facet normal 0.06617632 -0.99780792 0.00000000
  outer loop
    vertex 26.36533546 -29.88457489 0.00000000
    vertex 26.36533546 -29.88457489 7.34614944
    vertex 25.00000000 -29.97512627 1.99999952
  endloop
 endfacet
 facet normal 0.00000000 0.00000000 -0.99999994
  outer loop
    vertex -35.75000381 -20.71922302 7.34615088
    vertex -35.75000381 -20.62500000 7.34615088
    vertex -35.61303329 -22.09157181 7.34615088
  endloop
 endfacet
 facet normal 0.00000000 0.00000000 -0.99999994
  outer loop
    vertex -25.00000000 -29.97512627 7.34614944
    vertex -25.00000000 -29.98254204 7.34614944
    vertex -26.36533546 -29.88457489 7.34614944
  endloop
 endfacet
 facet normal 0.00000000 0.00000000 -1.00000000
  outer loop
    vertex -35.61441422 -22.17105865 7.34615088
    vertex -35.75000381 -20.71922302 7.34615088
    vertex -35.61303329 -22.09157181 7.34615088
  endloop
 endfacet
 facet normal 0.00000000 0.00000000 -1.00000000
  outer loop
    vertex -25.00000000 -29.98254204 7.34614944
    vertex -26.45965767 -29.88573647 7.34614944
    vertex -26.36533546 -29.88457489 7.34614944
  endloop
 endfacet
 facet normal -0.00000110 0.00000002 -1.00000000
  outer loop
    vertex -35.61441422 -22.17105865 7.34615088
    vertex -35.61303329 -22.09157181 7.34615088
    vertex -35.20550537 -23.52203369 7.34615040
  endloop
 endfacet
 facet normal 0.00000000 0.00000000 -0.99999994
  outer loop
    vertex -26.45965767 -29.88573647 7.34614944
    vertex -28.06281471 -29.54115295 7.34614944
    vertex -26.36533546 -29.88457489 7.34614944
  endloop
 endfacet
 facet normal -0.00000091 0.00000008 -1.00000000
  outer loop
    vertex -35.21097946 -23.58714104 7.34615040
    vertex -35.61441422 -22.17105865 7.34615088
    vertex -35.20550537 -23.52203369 7.34615040
  endloop
 endfacet
 facet normal 0.00000000 0.00000000 -1.00000000
  outer loop
    vertex -26.45965767 -29.88573647 7.34614944
    vertex -28.14007950 -29.54576302 7.34614944
    vertex -28.06281471 -29.54115295 7.34614944
  endloop
 endfacet
 facet normal 0.00000000 -0.00000000 -0.99999994
  outer loop
    vertex -35.21097946 -23.58714104 7.34615040
    vertex -35.20550537 -23.52203369 7.34615040
    vertex -34.53744888 -24.88115883 7.34615040
  endloop
 endfacet
 facet normal 0.00000000 0.00000000 -1.00000000
  outer loop
    vertex -28.14007950 -29.54576302 7.34614944
    vertex -29.67564583 -28.97818375 7.34614944
    vertex -28.06281471 -29.54115295 7.34614944
  endloop
 endfacet
 facet normal 0.00000000 0.00000000 -1.00000000
  outer loop
    vertex -34.54964066 -24.93260574 7.34615040
    vertex -35.21097946 -23.58714104 7.34615040
    vertex -34.53744888 -24.88115883 7.34615040
  endloop
 endfacet
 facet normal 0.00000000 0.00000000 -0.99999994
  outer loop
    vertex -28.14007950 -29.54576302 7.34614944
    vertex -29.73669815 -28.98845291 7.34614944
    vertex -29.67564583 -28.97818375 7.34614944
  endloop
 endfacet
 facet normal -0.00000039 0.00000009 -1.00000000
  outer loop
    vertex -34.54964066 -24.93260574 7.34615040
    vertex -34.53744888 -24.88115883 7.34615040
    vertex -33.62531662 -26.13548279 7.34614992
  endloop
 endfacet
 facet normal 0.00000000 0.00000000 -0.99999994
  outer loop
    vertex -29.73669815 -28.98845291 7.34614944
    vertex -31.16411209 -28.20953178 7.34614944
    vertex -29.67564583 -28.97818375 7.34614944
  endloop
 endfacet
 facet normal -0.00000030 0.00000017 -1.00000000
  outer loop
    vertex -33.64667511 -26.17432404 7.34614992
    vertex -34.54964066 -24.93260574 7.34615040
    vertex -33.62531662 -26.13548279 7.34614992
  endloop
 endfacet
 facet normal 0.00000000 0.00000000 -0.99999994
  outer loop
    vertex -29.73669815 -28.98845291 7.34614944
    vertex -31.21020699 -28.22752762 7.34614944
    vertex -31.16411209 -28.20953178 7.34614944
  endloop
 endfacet
 facet normal 0.00000000 -0.00000000 -1.00000000
  outer loop
    vertex -33.64667511 -26.17432404 7.34614992
    vertex -33.62531662 -26.13548279 7.34614992
    vertex -32.49156570 -27.25412369 7.34614992
  endloop
 endfacet
 facet normal -0.00000013 0.00000032 -1.00000000
  outer loop
    vertex -31.21020699 -28.22752762 7.34614944
    vertex -32.49156570 -27.25412369 7.34614992
    vertex -31.16411209 -28.20953178 7.34614944
  endloop
 endfacet
 facet normal 0.00000000 0.00000000 -1.00000000
  outer loop
    vertex -32.52431870 -27.28172112 7.34614992
    vertex -33.64667511 -26.17432404 7.34614992
    vertex -32.49156570 -27.25412369 7.34614992
  endloop
 endfacet
 facet normal -0.00000020 0.00000023 -1.00000000
  outer loop
    vertex -31.21020699 -28.22752762 7.34614944
    vertex -32.52431870 -27.28172112 7.34614992
    vertex -32.49156570 -27.25412369 7.34614992
  endloop
 endfacet
 facet normal -0.19829647 -0.98014206 -0.00000025
  outer loop
    vertex -28.06281471 -29.54115295 7.34614944
    vertex -28.06281471 -29.54115105 0.00000000
    vertex -26.36533546 -29.88457489 0.00000000
  endloop
 endfacet
 facet normal -0.19829541 -0.98014224 -0.00000000
  outer loop
    vertex -26.36533546 -29.88457489 0.00000000
    vertex -26.36533546 -29.88457489 7.34614944
    vertex -28.06281471 -29.54115295 7.34614944
  endloop
 endfacet
 facet normal -1.00000000 -0.00000000 0.00000000
  outer loop
    vertex -35.75000381 29.99999619 7.34615993
    vertex -35.75000381 29.99999619 0.00001073
    vertex -35.75000381 -20.62499809 0.00000167
  endloop
 endfacet
 facet normal -1.00000000 0.00000000 0.00000000
  outer loop
    vertex -35.75000381 -20.62499809 0.00000167
    vertex -35.75000381 -20.62500000 7.34615088
    vertex -35.75000381 29.99999619 7.34615993
  endloop
 endfacet
 facet normal -0.00000000 1.00000000 0.00000000
  outer loop
    vertex 33.75000381 29.99999619 2.00000644
    vertex 33.75000381 29.99999619 7.34615993
    vertex 35.75000000 29.99999619 7.34615993
  endloop
 endfacet
 facet normal 0.00000000 1.00000000 0.00000000
  outer loop
    vertex -35.75000381 29.99999619 7.34615993
    vertex -33.75000381 29.99999619 7.34615993
    vertex -33.75000381 29.99999619 2.00000644
  endloop
 endfacet
 facet normal 0.00000000 1.00000000 0.00000000
  outer loop
    vertex 35.75000381 29.99999619 7.34615993
    vertex 33.75000381 29.99999619 2.00000644
    vertex 35.75000000 29.99999619 7.34615993
  endloop
 endfacet
 facet normal 0.00000000 1.00000000 0.00000000
  outer loop
    vertex -35.75000381 29.99999619 0.00001073
    vertex -35.75000381 29.99999619 7.34615993
    vertex -33.75000381 29.99999619 2.00000644
  endloop
 endfacet
 facet normal 0.00000000 1.00000000 -0.00000000
  outer loop
    vertex 35.75000381 29.99999619 7.34615993
    vertex 35.75000381 29.99999619 0.00001073
    vertex 33.75000381 29.99999619 2.00000644
  endloop
 endfacet
 facet normal -0.00000000 1.00000000 0.00000000
  outer loop
    vertex -35.75000381 29.99999619 0.00001073
    vertex -33.75000381 29.99999619 2.00000644
    vertex 33.75000381 29.99999619 2.00000644
  endloop
 endfacet
 facet normal 0.00000000 1.00000000 0.00000000
  outer loop
    vertex 35.75000381 29.99999619 0.00001073
    vertex -35.75000381 29.99999619 0.00001073
    vertex 33.75000381 29.99999619 2.00000644
  endloop
 endfacet
 facet normal 1.00000000 0.00000000 0.00000000
  outer loop
    vertex 35.75000381 29.99999619 0.00001073
    vertex 35.75000381 29.99999619 7.34615993
    vertex 35.75000381 -20.62500000 7.34615088
  endloop
 endfacet
 facet normal 1.00000000 0.00000000 -0.00000000
  outer loop
    vertex 35.75000381 -20.62500000 7.34615088
    vertex 35.75000381 -20.62499809 0.00000167
    vertex 35.75000381 29.99999619 0.00001073
  endloop
 endfacet
 facet normal 0.99566698 -0.09299023 0.00000000
  outer loop
    vertex 35.75000381 -20.62499809 0.00000167
    vertex 35.61303329 -22.09157181 7.34615088
    vertex 35.61303329 -22.09157181 0.00000119
  endloop
 endfacet
 facet normal 0.99549544 -0.09480909 -0.00000002
  outer loop
    vertex 35.75000381 -20.62499809 0.00000167
    vertex 35.75000381 -20.62500000 7.34615088
    vertex 35.75000000 -20.62504005 7.34615088
  endloop
 endfacet
 facet normal 0.99566692 -0.09299030 -0.00000001
  outer loop
    vertex 35.75000381 -20.62499809 0.00000167
    vertex 35.75000000 -20.62504005 7.34615088
    vertex 35.61303329 -22.09157181 7.34615088
  endloop
 endfacet
 facet normal 0.96173233 -0.27399075 -0.00000007
  outer loop
    vertex 35.20550537 -23.52203369 7.34615040
    vertex 35.20550537 -23.52203178 0.00000095
    vertex 35.61303329 -22.09157181 0.00000119
  endloop
 endfacet
 facet normal 0.96173245 -0.27399039 0.00000000
  outer loop
    vertex 35.61303329 -22.09157181 0.00000119
    vertex 35.61303329 -22.09157181 7.34615088
    vertex 35.20550537 -23.52203369 7.34615040
  endloop
 endfacet
 facet normal 0.89744556 -0.44112521 -0.00000011
  outer loop
    vertex 34.53744888 -24.88115883 7.34615040
    vertex 34.53744888 -24.88115692 0.00000072
    vertex 35.20550537 -23.52203178 0.00000095
  endloop
 endfacet
 facet normal 0.89744556 -0.44112521 -0.00000011
  outer loop
    vertex 35.20550537 -23.52203178 0.00000095
    vertex 35.20550537 -23.52203369 7.34615040
    vertex 34.53744888 -24.88115883 7.34615040
  endloop
 endfacet
 facet normal 0.80876821 -0.58812755 0.00000000
  outer loop
    vertex 33.62531662 -26.13548279 7.34614992
    vertex 33.62531662 -26.13548279 0.00000048
    vertex 34.53744888 -24.88115692 0.00000072
  endloop
 endfacet
 facet normal 0.80876780 -0.58812815 -0.00000015
  outer loop
    vertex 34.53744888 -24.88115692 0.00000072
    vertex 34.53744888 -24.88115883 7.34615040
    vertex 33.62531662 -26.13548279 7.34614992
  endloop
 endfacet
 facet normal 0.70234674 -0.71183491 -0.00000018
  outer loop
    vertex 32.49156570 -27.25412369 7.34614992
    vertex 32.49156570 -27.25412178 0.00000048
    vertex 33.62531662 -26.13548279 0.00000048
  endloop
 endfacet
 facet normal 0.70234740 -0.71183437 0.00000000
  outer loop
    vertex 33.62531662 -26.13548279 0.00000048
    vertex 33.62531662 -26.13548279 7.34614992
    vertex 32.49156570 -27.25412369 7.34614992
  endloop
 endfacet
 facet normal 0.58416110 -0.81163770 0.00000000
  outer loop
    vertex 31.16411209 -28.20953178 7.34614944
    vertex 31.16411209 -28.20953178 0.00000024
    vertex 32.49156570 -27.25412178 0.00000048
  endloop
 endfacet
 facet normal 0.58416033 -0.81163830 -0.00000021
  outer loop
    vertex 32.49156570 -27.25412178 0.00000048
    vertex 32.49156570 -27.25412369 7.34614992
    vertex 31.16411209 -28.20953178 7.34614944
  endloop
 endfacet
 facet normal 0.45883590 -0.88852102 -0.00000023
  outer loop
    vertex 29.67564583 -28.97818375 7.34614944
    vertex 29.67564583 -28.97818184 0.00000000
    vertex 31.16411209 -28.20953178 0.00000024
  endloop
 endfacet
 facet normal 0.45883676 -0.88852054 0.00000000
  outer loop
    vertex 31.16411209 -28.20953178 0.00000024
    vertex 31.16411209 -28.20953178 7.34614944
    vertex 29.67564583 -28.97818375 7.34614944
  endloop
 endfacet
 facet normal 0.32955670 -0.94413573 -0.00000025
  outer loop
    vertex 28.06281471 -29.54115295 7.34614944
    vertex 28.06281471 -29.54115105 0.00000000
    vertex 29.67564583 -28.97818184 0.00000000
  endloop
 endfacet
 facet normal 0.32955670 -0.94413573 -0.00000025
  outer loop
    vertex 29.67564583 -28.97818184 0.00000000
    vertex 29.67564583 -28.97818375 7.34614944
    vertex 28.06281471 -29.54115295 7.34614944
  endloop
 endfacet
 facet normal 0.19829647 -0.98014206 0.00000000
  outer loop
    vertex 26.36533546 -29.88457489 7.34614944
    vertex 26.36533546 -29.88457489 0.00000000
    vertex 28.06281471 -29.54115105 0.00000000
  endloop
 endfacet
 facet normal 0.19829541 -0.98014224 -0.00000025
  outer loop
    vertex 28.06281471 -29.54115105 0.00000000
    vertex 28.06281471 -29.54115295 7.34614944
    vertex 26.36533546 -29.88457489 7.34614944
  endloop
 endfacet
 facet normal -0.32955670 -0.94413573 -0.00000025
  outer loop
    vertex -29.67564583 -28.97818375 7.34614944
    vertex -29.67564583 -28.97818184 0.00000000
    vertex -28.06281471 -29.54115105 0.00000000
  endloop
 endfacet
 facet normal -0.32955670 -0.94413573 -0.00000025
  outer loop
    vertex -28.06281471 -29.54115105 0.00000000
    vertex -28.06281471 -29.54115295 7.34614944
    vertex -29.67564583 -28.97818375 7.34614944
  endloop
 endfacet
 facet normal -0.45883676 -0.88852054 -0.00000023
  outer loop
    vertex -31.16411209 -28.20953178 7.34614944
    vertex -31.16411209 -28.20952988 0.00000024
    vertex -29.67564583 -28.97818184 0.00000000
  endloop
 endfacet
 facet normal -0.45883676 -0.88852054 -0.00000023
  outer loop
    vertex -29.67564583 -28.97818184 0.00000000
    vertex -29.67564583 -28.97818375 7.34614944
    vertex -31.16411209 -28.20953178 7.34614944
  endloop
 endfacet
 facet normal -0.58416033 -0.81163830 -0.00000021
  outer loop
    vertex -32.49156570 -27.25412369 7.34614992
    vertex -32.49156570 -27.25412178 0.00000048
    vertex -31.16411209 -28.20952988 0.00000024
  endloop
 endfacet
 facet normal -0.58416033 -0.81163830 -0.00000021
  outer loop
    vertex -31.16411209 -28.20952988 0.00000024
    vertex -31.16411209 -28.20953178 7.34614944
    vertex -32.49156570 -27.25412369 7.34614992
  endloop
 endfacet
 facet normal -0.70234674 -0.71183491 0.00000000
  outer loop
    vertex -33.62531662 -26.13548279 7.34614992
    vertex -33.62531662 -26.13548279 0.00000048
    vertex -32.49156570 -27.25412178 0.00000048
  endloop
 endfacet
 facet normal -0.70234740 -0.71183437 -0.00000018
  outer loop
    vertex -32.49156570 -27.25412178 0.00000048
    vertex -32.49156570 -27.25412369 7.34614992
    vertex -33.62531662 -26.13548279 7.34614992
  endloop
 endfacet
 facet normal -0.80876821 -0.58812755 -0.00000015
  outer loop
    vertex -34.53744888 -24.88115883 7.34615040
    vertex -34.53744888 -24.88115692 0.00000072
    vertex -33.62531662 -26.13548279 0.00000048
  endloop
 endfacet
 facet normal -0.80876780 -0.58812815 -0.00000000
  outer loop
    vertex -33.62531662 -26.13548279 0.00000048
    vertex -33.62531662 -26.13548279 7.34614992
    vertex -34.53744888 -24.88115883 7.34615040
  endloop
 endfacet
 facet normal -0.89744556 -0.44112521 -0.00000011
  outer loop
    vertex -35.20550537 -23.52203369 7.34615040
    vertex -35.20550537 -23.52203178 0.00000095
    vertex -34.53744888 -24.88115692 0.00000072
  endloop
 endfacet
 facet normal -0.89744556 -0.44112521 -0.00000011
  outer loop
    vertex -34.53744888 -24.88115692 0.00000072
    vertex -34.53744888 -24.88115883 7.34615040
    vertex -35.20550537 -23.52203369 7.34615040
  endloop
 endfacet
 facet normal -0.96173233 -0.27399075 0.00000000
  outer loop
    vertex -35.61303329 -22.09157181 7.34615088
    vertex -35.61303329 -22.09157181 0.00000119
    vertex -35.20550537 -23.52203178 0.00000095
  endloop
 endfacet
 facet normal -0.96173245 -0.27399039 -0.00000007
  outer loop
    vertex -35.20550537 -23.52203178 0.00000095
    vertex -35.20550537 -23.52203369 7.34615040
    vertex -35.61303329 -22.09157181 7.34615088
  endloop
 endfacet
 facet normal -0.99566698 -0.09299023 -0.00000002
  outer loop
    vertex -35.75000381 -20.62500000 7.34615088
    vertex -35.75000381 -20.62499809 0.00000167
    vertex -35.61303329 -22.09157181 0.00000119
  endloop
 endfacet
 facet normal -0.99566698 -0.09299035 -0.00000000
  outer loop
    vertex -35.61303329 -22.09157181 0.00000119
    vertex -35.61303329 -22.09157181 7.34615088
    vertex -35.75000381 -20.62500000 7.34615088
  endloop
 endfacet
 facet normal 0.00000000 0.00000000 -0.99999994
  outer loop
    vertex 25.00000000 -29.98254204 7.34614944
    vertex 25.00000000 -29.97512627 7.34614944
    vertex 26.36533546 -29.88457489 7.34614944
  endloop
 endfacet
 facet normal -0.00000000 0.00000000 -1.00000000
  outer loop
    vertex 35.75000000 -20.62504005 7.34615088
    vertex 35.75000000 -20.71922493 7.34615088
    vertex 35.61303329 -22.09157181 7.34615088
  endloop
 endfacet
 facet normal 0.00000000 0.00000000 -1.00000000
  outer loop
    vertex 26.45965004 -29.88573647 7.34614944
    vertex 25.00000000 -29.98254204 7.34614944
    vertex 26.36533546 -29.88457489 7.34614944
  endloop
 endfacet
 facet normal 0.00000000 0.00000000 -1.00000000
  outer loop
    vertex 35.75000000 -20.71922493 7.34615088
    vertex 35.61440659 -22.17105865 7.34615088
    vertex 35.61303329 -22.09157181 7.34615088
  endloop
 endfacet
 facet normal 0.00000000 0.00000000 -0.99999994
  outer loop
    vertex 26.45965004 -29.88573647 7.34614944
    vertex 26.36533546 -29.88457489 7.34614944
    vertex 28.06281471 -29.54115295 7.34614944
  endloop
 endfacet
 facet normal 0.00000110 0.00000002 -1.00000000
  outer loop
    vertex 35.61440659 -22.17105865 7.34615088
    vertex 35.20550537 -23.52203369 7.34615040
    vertex 35.61303329 -22.09157181 7.34615088
  endloop
 endfacet
 facet normal 0.00000000 0.00000000 -1.00000000
  outer loop
    vertex 28.14007187 -29.54576302 7.34614944
    vertex 26.45965004 -29.88573647 7.34614944
    vertex 28.06281471 -29.54115295 7.34614944
  endloop
 endfacet
 facet normal 0.00000091 0.00000008 -1.00000000
  outer loop
    vertex 35.61440659 -22.17105865 7.34615088
    vertex 35.21097565 -23.58714294 7.34615040
    vertex 35.20550537 -23.52203369 7.34615040
  endloop
 endfacet
 facet normal 0.00000000 0.00000000 -1.00000000
  outer loop
    vertex 28.14007187 -29.54576302 7.34614944
    vertex 28.06281471 -29.54115295 7.34614944
    vertex 29.67564583 -28.97818375 7.34614944
  endloop
 endfacet
 facet normal 0.00000000 0.00000000 -0.99999994
  outer loop
    vertex 35.21097565 -23.58714294 7.34615040
    vertex 34.53744888 -24.88115883 7.34615040
    vertex 35.20550537 -23.52203369 7.34615040
  endloop
 endfacet
 facet normal 0.00000000 0.00000000 -1.00000000
  outer loop
    vertex 29.73669052 -28.98845291 7.34614944
    vertex 28.14007187 -29.54576302 7.34614944
    vertex 29.67564583 -28.97818375 7.34614944
  endloop
 endfacet
 facet normal 0.00000000 0.00000000 -1.00000000
  outer loop
    vertex 35.21097565 -23.58714294 7.34615040
    vertex 34.54963303 -24.93260765 7.34615040
    vertex 34.53744888 -24.88115883 7.34615040
  endloop
 endfacet
 facet normal 0.00000000 0.00000000 -1.00000000
  outer loop
    vertex 29.73669052 -28.98845291 7.34614944
    vertex 29.67564583 -28.97818375 7.34614944
    vertex 31.16411209 -28.20953178 7.34614944
  endloop
 endfacet
 facet normal 0.00000039 0.00000009 -1.00000000
  outer loop
    vertex 34.54963303 -24.93260765 7.34615040
    vertex 33.62531662 -26.13548279 7.34614992
    vertex 34.53744888 -24.88115883 7.34615040
  endloop
 endfacet
 facet normal 0.00000000 0.00000000 -1.00000000
  outer loop
    vertex 31.21019936 -28.22752762 7.34614944
    vertex 29.73669052 -28.98845291 7.34614944
    vertex 31.16411209 -28.20953178 7.34614944
  endloop
 endfacet
 facet normal 0.00000030 0.00000017 -1.00000000
  outer loop
    vertex 34.54963303 -24.93260765 7.34615040
    vertex 33.64666367 -26.17432404 7.34614992
    vertex 33.62531662 -26.13548279 7.34614992
  endloop
 endfacet
 facet normal 0.00000013 0.00000032 -1.00000000
  outer loop
    vertex 31.21019936 -28.22752762 7.34614944
    vertex 31.16411209 -28.20953178 7.34614944
    vertex 32.49156570 -27.25412369 7.34614992
  endloop
 endfacet
 facet normal 0.00000000 0.00000000 -1.00000000
  outer loop
    vertex 33.64666367 -26.17432404 7.34614992
    vertex 32.49156570 -27.25412369 7.34614992
    vertex 33.62531662 -26.13548279 7.34614992
  endloop
 endfacet
 facet normal 0.00000020 0.00000023 -1.00000000
  outer loop
    vertex 32.52431107 -27.28172302 7.34614992
    vertex 31.21019936 -28.22752762 7.34614944
    vertex 32.49156570 -27.25412369 7.34614992
  endloop
 endfacet
 facet normal 0.00000000 0.00000000 -1.00000000
  outer loop
    vertex 33.64666367 -26.17432404 7.34614992
    vertex 32.52431107 -27.28172302 7.34614992
    vertex 32.49156570 -27.25412369 7.34614992
  endloop
 endfacet
 facet normal -0.06617666 -0.99780786 -0.00000000
  outer loop
    vertex -25.00000000 -29.98254395 9.34614754
    vertex -26.45965767 -29.88573647 9.34614754
    vertex -26.45965767 -29.88573647 7.34614944
  endloop
 endfacet
 facet normal -0.06617536 -0.99780798 -0.00000095
  outer loop
    vertex -26.45965767 -29.88573647 7.34614944
    vertex -25.00000000 -29.98254204 7.34614944
    vertex -25.00000000 -29.98254395 9.34614754
  endloop
 endfacet
 facet normal -0.19829595 -0.98014224 -0.00000000
  outer loop
    vertex -26.45965767 -29.88573647 7.34614944
    vertex -26.45965767 -29.88573647 9.34614754
    vertex -28.14007759 -29.54576492 9.34614754
  endloop
 endfacet
 facet normal -0.19829680 -0.98014206 -0.00000075
  outer loop
    vertex -28.14007759 -29.54576492 9.34614754
    vertex -28.14007950 -29.54576302 7.34614944
    vertex -26.45965767 -29.88573647 7.34614944
  endloop
 endfacet
 facet normal -0.32955739 -0.94413555 -0.00000059
  outer loop
    vertex -28.14007950 -29.54576302 7.34614944
    vertex -28.14007759 -29.54576492 9.34614754
    vertex -29.73669815 -28.98845291 9.34614754
  endloop
 endfacet
 facet normal -0.32955667 -0.94413567 0.00000000
  outer loop
    vertex -29.73669815 -28.98845291 9.34614754
    vertex -29.73669815 -28.98845291 7.34614944
    vertex -28.14007950 -29.54576302 7.34614944
  endloop
 endfacet
 facet normal -0.45883557 -0.88852119 -0.00000000
  outer loop
    vertex -29.73669815 -28.98845291 7.34614944
    vertex -29.73669815 -28.98845291 9.34614754
    vertex -31.21020699 -28.22752762 9.34614754
  endloop
 endfacet
 facet normal -0.45883557 -0.88852119 0.00000000
  outer loop
    vertex -31.21020699 -28.22752762 9.34614754
    vertex -31.21020699 -28.22752762 7.34614944
    vertex -29.73669815 -28.98845291 7.34614944
  endloop
 endfacet
 facet normal -0.58416003 -0.81163853 -0.00000000
  outer loop
    vertex -31.21020699 -28.22752762 7.34614944
    vertex -31.21020699 -28.22752762 9.34614754
    vertex -32.52431870 -27.28172302 9.34614849
  endloop
 endfacet
 facet normal -0.58416080 -0.81163800 -0.00000077
  outer loop
    vertex -32.52431870 -27.28172302 9.34614849
    vertex -32.52431870 -27.28172112 7.34614992
    vertex -31.21020699 -28.22752762 7.34614944
  endloop
 endfacet
 facet normal -0.70234823 -0.71183354 -0.00000068
  outer loop
    vertex -32.52431870 -27.28172112 7.34614992
    vertex -32.52431870 -27.28172302 9.34614849
    vertex -33.64667130 -26.17432594 9.34614849
  endloop
 endfacet
 facet normal -0.70234698 -0.71183467 0.00000066
  outer loop
    vertex -33.64667130 -26.17432594 9.34614849
    vertex -33.64667511 -26.17432404 7.34614992
    vertex -32.52431870 -27.28172112 7.34614992
  endloop
 endfacet
 facet normal -0.80876619 -0.58813035 0.00000098
  outer loop
    vertex -33.64667511 -26.17432404 7.34614992
    vertex -33.64667130 -26.17432594 9.34614849
    vertex -34.54964066 -24.93260956 9.34614944
  endloop
 endfacet
 facet normal -0.80876786 -0.58812815 -0.00000112
  outer loop
    vertex -34.54964066 -24.93260956 9.34614944
    vertex -34.54964066 -24.93260574 7.34615040
    vertex -33.64667511 -26.17432404 7.34614992
  endloop
 endfacet
 facet normal -0.89744669 -0.44112304 -0.00000084
  outer loop
    vertex -34.54964066 -24.93260574 7.34615040
    vertex -34.54964066 -24.93260956 9.34614944
    vertex -35.21097946 -23.58714294 9.34614944
  endloop
 endfacet
 facet normal -0.89744639 -0.44112352 -0.00000042
  outer loop
    vertex -35.21097946 -23.58714294 9.34614944
    vertex -35.21097946 -23.58714104 7.34615040
    vertex -34.54964066 -24.93260574 7.34615040
  endloop
 endfacet
 facet normal -0.96173185 -0.27399221 -0.00000026
  outer loop
    vertex -35.21097946 -23.58714104 7.34615040
    vertex -35.21097946 -23.58714294 9.34614944
    vertex -35.61441422 -22.17105865 9.34614944
  endloop
 endfacet
 facet normal -0.96173185 -0.27399254 0.00000000
  outer loop
    vertex -35.61441422 -22.17105865 9.34614944
    vertex -35.61441422 -22.17105865 7.34615088
    vertex -35.21097946 -23.58714104 7.34615040
  endloop
 endfacet
 facet normal -0.99566728 -0.09298732 -0.00000000
  outer loop
    vertex -35.61441422 -22.17105865 7.34615088
    vertex -35.61441422 -22.17105865 9.34614944
    vertex -35.75000381 -20.71922493 9.34614944
  endloop
 endfacet
 facet normal -0.99566728 -0.09298719 -0.00000009
  outer loop
    vertex -35.75000381 -20.71922493 9.34614944
    vertex -35.75000381 -20.71922302 7.34615088
    vertex -35.61441422 -22.17105865 7.34615088
  endloop
 endfacet
 facet normal -0.99999994 0.00000000 0.00000000
  outer loop
    vertex -35.75000381 29.99999619 9.34615898
    vertex -35.75000381 -20.71922302 7.34615088
    vertex -35.75000381 -20.71922493 9.34614944
  endloop
 endfacet
 facet normal -1.00000000 -0.00000000 0.00000000
  outer loop
    vertex -35.75000381 29.99999619 9.34615898
    vertex -35.75000381 29.99999619 7.34615993
    vertex -35.75000381 -20.62500000 7.34615088
  endloop
 endfacet
 facet normal -1.00000000 0.00000000 0.00000000
  outer loop
    vertex -35.75000381 29.99999619 9.34615898
    vertex -35.75000381 -20.62500000 7.34615088
    vertex -35.75000381 -20.71922302 7.34615088
  endloop
 endfacet
 facet normal 0.00000000 -0.00000018 1.00000000
  outer loop
    vertex 35.75000381 29.99999619 7.34615993
    vertex 35.75000000 29.99999619 7.34615993
    vertex 35.75000000 -20.62504005 7.34615088
  endloop
 endfacet
 facet normal 0.00000188 -0.00000018 0.99999994
  outer loop
    vertex 35.75000000 -20.62504005 7.34615088
    vertex 35.75000381 -20.62500000 7.34615088
    vertex 35.75000381 29.99999619 7.34615993
  endloop
 endfacet
 facet normal 1.00000000 0.00000000 0.00000000
  outer loop
    vertex -33.75000381 29.99999619 2.00000644
    vertex -33.75000381 29.99999619 7.34615993
    vertex -33.75000381 -18.62499809 7.34615135
  endloop
 endfacet
 facet normal 1.00000000 0.00000000 -0.00000000
  outer loop
    vertex -33.75000381 -18.62499809 7.34615135
    vertex -33.75000381 -18.62499619 1.99999762
    vertex -33.75000381 29.99999619 2.00000644
  endloop
 endfacet
 facet normal 0.00000020 -0.00000018 1.00000000
  outer loop
    vertex 33.75000381 29.99999619 2.00000644
    vertex 33.61303329 -20.09156990 1.99999738
    vertex 33.75000381 -18.62499619 1.99999762
  endloop
 endfacet
 facet normal -0.00000004 -0.00000015 0.99999994
  outer loop
    vertex 32.53744888 -22.88115883 1.99999690
    vertex 33.20550537 -21.52202988 1.99999714
    vertex 33.61303329 -20.09156990 1.99999738
  endloop
 endfacet
 facet normal -0.00000008 -0.00000013 1.00000000
  outer loop
    vertex 30.49156570 -25.25412178 1.99999642
    vertex 31.62531853 -24.13548279 1.99999666
    vertex 32.53744888 -22.88115883 1.99999690
  endloop
 endfacet
 facet normal -0.00000006 -0.00000005 1.00000000
  outer loop
    vertex 27.67564583 -26.97818375 1.99999619
    vertex 29.16411400 -26.20952988 1.99999630
    vertex 30.49156570 -25.25412178 1.99999642
  endloop
 endfacet
 facet normal 0.00000010 -0.00000050 1.00000000
  outer loop
    vertex 24.36533737 -27.88457489 1.99999607
    vertex 26.06281662 -27.54115105 1.99999607
    vertex 27.67564583 -26.97818375 1.99999619
  endloop
 endfacet
 facet normal 0.00000000 -0.00000103 1.00000000
  outer loop
    vertex -22.62500191 -27.99999619 1.99999595
    vertex 22.62500191 -27.99999619 1.99999595
    vertex 24.36533737 -27.88457489 1.99999607
  endloop
 endfacet
 facet normal 0.00000010 0.00000050 1.00000000
  outer loop
    vertex -26.06281662 -27.54115295 1.99999607
    vertex -24.36533737 -27.88457680 1.99999607
    vertex -22.62500191 -27.99999619 1.99999595
  endloop
 endfacet
 facet normal 0.00000006 -0.00000004 1.00000000
  outer loop
    vertex -29.16411400 -26.20953369 1.99999630
    vertex -27.67564583 -26.97818375 1.99999619
    vertex -26.06281662 -27.54115295 1.99999607
  endloop
 endfacet
 facet normal -0.00000024 -0.00000045 1.00000000
  outer loop
    vertex -31.62531662 -24.13548470 1.99999666
    vertex -30.49156570 -25.25412369 1.99999642
    vertex -29.16411400 -26.20953369 1.99999630
  endloop
 endfacet
 facet normal 0.00000006 -0.00000014 0.99999994
  outer loop
    vertex -33.20550537 -21.52203369 1.99999714
    vertex -32.53744888 -22.88116074 1.99999690
    vertex -31.62531662 -24.13548470 1.99999666
  endloop
 endfacet
 facet normal 0.00000002 -0.00000016 0.99999994
  outer loop
    vertex -33.75000381 -18.62499619 1.99999762
    vertex -33.61303329 -20.09157181 1.99999738
    vertex -33.20550537 -21.52203369 1.99999714
  endloop
 endfacet
 facet normal 0.00000000 -0.00000018 1.00000000
  outer loop
    vertex 33.75000381 29.99999619 2.00000644
    vertex -33.75000381 29.99999619 2.00000644
    vertex -33.75000381 -18.62499619 1.99999762
  endloop
 endfacet
 facet normal 0.00000003 -0.00000018 1.00000000
  outer loop
    vertex 33.75000381 29.99999619 2.00000644
    vertex 32.53744888 -22.88115883 1.99999690
    vertex 33.61303329 -20.09156990 1.99999738
  endloop
 endfacet
 facet normal 0.00000008 -0.00000027 1.00000000
  outer loop
    vertex 27.67564583 -26.97818375 1.99999619
    vertex 30.49156570 -25.25412178 1.99999642
    vertex 32.53744888 -22.88115883 1.99999690
  endloop
 endfacet
 facet normal -0.00000000 -0.00000012 0.99999994
  outer loop
    vertex -22.62500191 -27.99999619 1.99999595
    vertex 24.36533737 -27.88457489 1.99999607
    vertex 27.67564583 -26.97818375 1.99999619
  endloop
 endfacet
 facet normal 0.00000002 -0.00000014 1.00000000
  outer loop
    vertex -29.16411400 -26.20953369 1.99999630
    vertex -26.06281662 -27.54115295 1.99999607
    vertex -22.62500191 -27.99999619 1.99999595
  endloop
 endfacet
 facet normal -0.00000002 -0.00000019 1.00000000
  outer loop
    vertex -33.20550537 -21.52203369 1.99999714
    vertex -31.62531662 -24.13548470 1.99999666
    vertex -29.16411400 -26.20953369 1.99999630
  endloop
 endfacet
 facet normal -0.00000001 -0.00000017 1.00000000
  outer loop
    vertex 33.75000381 29.99999619 2.00000644
    vertex -33.75000381 -18.62499619 1.99999762
    vertex -33.20550537 -21.52203369 1.99999714
  endloop
 endfacet
 facet normal 0.00000000 -0.00000018 1.00000000
  outer loop
    vertex 33.75000381 29.99999619 2.00000644
    vertex 27.67564583 -26.97818375 1.99999619
    vertex 32.53744888 -22.88115883 1.99999690
  endloop
 endfacet
 facet normal -0.00000000 -0.00000020 1.00000000
  outer loop
    vertex -29.16411400 -26.20953369 1.99999630
    vertex -22.62500191 -27.99999619 1.99999595
    vertex 27.67564583 -26.97818375 1.99999619
  endloop
 endfacet
 facet normal -0.00000000 -0.00000018 1.00000000
  outer loop
    vertex 33.75000381 29.99999619 2.00000644
    vertex -33.20550537 -21.52203369 1.99999714
    vertex -29.16411400 -26.20953369 1.99999630
  endloop
 endfacet
 facet normal -0.00000000 -0.00000018 1.00000000
  outer loop
    vertex 33.75000381 29.99999619 2.00000644
    vertex -29.16411400 -26.20953369 1.99999630
    vertex 27.67564583 -26.97818375 1.99999619
  endloop
 endfacet
 facet normal -1.00000000 -0.00000000 0.00000000
  outer loop
    vertex 33.75000381 29.99999619 7.34615993
    vertex 33.75000381 29.99999619 2.00000644
    vertex 33.75000381 -18.62499619 1.99999762
  endloop
 endfacet
 facet normal -1.00000000 0.00000000 0.00000000
  outer loop
    vertex 33.75000381 -18.62499619 1.99999762
    vertex 33.75000381 -18.62499809 7.34615135
    vertex 33.75000381 29.99999619 7.34615993
  endloop
 endfacet
 facet normal 0.99999994 0.00000000 0.00000000
  outer loop
    vertex 35.75000000 -20.71922302 9.34614944
    vertex 35.75000000 -20.71922493 7.34615088
    vertex 35.75000000 -20.62504005 7.34615088
  endloop
 endfacet
 facet normal 1.00000000 0.00000000 0.00000000
  outer loop
    vertex 35.75000000 29.99999619 7.34615993
    vertex 35.75000000 29.99999619 9.34615898
    vertex 35.75000000 -20.71922302 9.34614944
  endloop
 endfacet
 facet normal 1.00000000 0.00000000 0.00000000
  outer loop
    vertex 35.75000000 29.99999619 7.34615993
    vertex 35.75000000 -20.71922302 9.34614944
    vertex 35.75000000 -20.62504005 7.34615088
  endloop
 endfacet
 facet normal 0.99566692 -0.09298990 0.00000000
  outer loop
    vertex 35.61440659 -22.17105865 9.34614944
    vertex 35.61440659 -22.17105865 7.34615088
    vertex 35.75000000 -20.71922493 7.34615088
  endloop
 endfacet
 facet normal 0.99566704 -0.09298979 0.00000009
  outer loop
    vertex 35.75000000 -20.71922493 7.34615088
    vertex 35.75000000 -20.71922302 9.34614944
    vertex 35.61440659 -22.17105865 9.34614944
  endloop
 endfacet
 facet normal 0.96173263 -0.27398986 0.00000026
  outer loop
    vertex 35.21097565 -23.58714104 9.34614944
    vertex 35.21097565 -23.58714294 7.34615040
    vertex 35.61440659 -22.17105865 7.34615088
  endloop
 endfacet
 facet normal 0.96173245 -0.27399012 0.00000000
  outer loop
    vertex 35.61440659 -22.17105865 7.34615088
    vertex 35.61440659 -22.17105865 9.34614944
    vertex 35.21097565 -23.58714104 9.34614944
  endloop
 endfacet
 facet normal 0.89744538 -0.44112557 0.00000042
  outer loop
    vertex 34.54963303 -24.93260574 9.34614944
    vertex 34.54963303 -24.93260765 7.34615040
    vertex 35.21097565 -23.58714294 7.34615040
  endloop
 endfacet
 facet normal 0.89744538 -0.44112557 0.00000042
  outer loop
    vertex 35.21097565 -23.58714294 7.34615040
    vertex 35.21097565 -23.58714104 9.34614944
    vertex 34.54963303 -24.93260574 9.34614944
  endloop
 endfacet
 facet normal 0.80876619 -0.58813035 0.00000000
  outer loop
    vertex 33.64666367 -26.17432404 9.34614849
    vertex 33.64666367 -26.17432404 7.34614992
    vertex 34.54963303 -24.93260765 7.34615040
  endloop
 endfacet
 facet normal 0.80876654 -0.58812976 0.00000056
  outer loop
    vertex 34.54963303 -24.93260765 7.34615040
    vertex 34.54963303 -24.93260574 9.34614944
    vertex 33.64666367 -26.17432404 9.34614849
  endloop
 endfacet
 facet normal 0.70234883 -0.71183294 0.00000000
  outer loop
    vertex 32.52431107 -27.28172302 9.34614849
    vertex 32.52431107 -27.28172302 7.34614992
    vertex 33.64666367 -26.17432404 7.34614992
  endloop
 endfacet
 facet normal 0.70234883 -0.71183294 0.00000000
  outer loop
    vertex 33.64666367 -26.17432404 7.34614992
    vertex 33.64666367 -26.17432404 9.34614849
    vertex 32.52431107 -27.28172302 9.34614849
  endloop
 endfacet
 facet normal 0.58416003 -0.81163853 0.00000000
  outer loop
    vertex 31.21019936 -28.22752762 9.34614754
    vertex 31.21019936 -28.22752762 7.34614944
    vertex 32.52431107 -27.28172302 7.34614992
  endloop
 endfacet
 facet normal 0.58415997 -0.81163853 0.00000000
  outer loop
    vertex 32.52431107 -27.28172302 7.34614992
    vertex 32.52431107 -27.28172302 9.34614849
    vertex 31.21019936 -28.22752762 9.34614754
  endloop
 endfacet
 facet normal 0.45883557 -0.88852119 0.00000000
  outer loop
    vertex 29.73669052 -28.98845291 9.34614754
    vertex 29.73669052 -28.98845291 7.34614944
    vertex 31.21019936 -28.22752762 7.34614944
  endloop
 endfacet
 facet normal 0.45883557 -0.88852119 0.00000000
  outer loop
    vertex 31.21019936 -28.22752762 7.34614944
    vertex 31.21019936 -28.22752762 9.34614754
    vertex 29.73669052 -28.98845291 9.34614754
  endloop
 endfacet
 facet normal 0.32955667 -0.94413567 -0.00000090
  outer loop
    vertex 28.14007187 -29.54576492 9.34614754
    vertex 28.14007187 -29.54576302 7.34614944
    vertex 29.73669052 -28.98845291 7.34614944
  endloop
 endfacet
 facet normal 0.32955775 -0.94413549 0.00000000
  outer loop
    vertex 29.73669052 -28.98845291 7.34614944
    vertex 29.73669052 -28.98845291 9.34614754
    vertex 28.14007187 -29.54576492 9.34614754
  endloop
 endfacet
 facet normal 0.19829680 -0.98014206 0.00000000
  outer loop
    vertex 26.45965004 -29.88573647 9.34614754
    vertex 26.45965004 -29.88573647 7.34614944
    vertex 28.14007187 -29.54576302 7.34614944
  endloop
 endfacet
 facet normal 0.19829573 -0.98014224 -0.00000093
  outer loop
    vertex 28.14007187 -29.54576302 7.34614944
    vertex 28.14007187 -29.54576492 9.34614754
    vertex 26.45965004 -29.88573647 9.34614754
  endloop
 endfacet
 facet normal 0.06617571 -0.99780798 0.00000000
  outer loop
    vertex 25.00000000 -29.98254204 7.34614944
    vertex 26.45965004 -29.88573647 7.34614944
    vertex 26.45965004 -29.88573647 9.34614754
  endloop
 endfacet
 facet normal 0.06617571 -0.99780798 0.00000000
  outer loop
    vertex 26.45965004 -29.88573647 9.34614754
    vertex 25.00000000 -29.98254204 9.34614754
    vertex 25.00000000 -29.98254204 7.34614944
  endloop
 endfacet
 facet normal -0.00000003 -0.00000040 1.00000000
  outer loop
    vertex -25.00000000 -25.24567413 9.34614944
    vertex -26.45965767 -29.88573647 9.34614754
    vertex -25.00000000 -29.98254395 9.34614754
  endloop
 endfacet
 facet normal -0.00000000 -0.00000000 0.99999994
  outer loop
    vertex -29.73669815 -28.98845291 9.34614754
    vertex -28.14007759 -29.54576492 9.34614754
    vertex -26.45965767 -29.88573647 9.34614754
  endloop
 endfacet
 facet normal -0.00000184 -0.00000357 1.00000000
  outer loop
    vertex -32.52431870 -27.28172302 9.34614849
    vertex -31.21020699 -28.22752762 9.34614754
    vertex -29.73669815 -28.98845291 9.34614754
  endloop
 endfacet
 facet normal -0.00000268 -0.00000272 1.00000000
  outer loop
    vertex -34.54964066 -24.93260956 9.34614944
    vertex -33.64667130 -26.17432594 9.34614849
    vertex -32.52431870 -27.28172302 9.34614849
  endloop
 endfacet
 facet normal -0.00000000 -0.00000000 1.00000000
  outer loop
    vertex -35.61441422 -22.17105865 9.34614944
    vertex -35.21097946 -23.58714294 9.34614944
    vertex -34.54964066 -24.93260956 9.34614944
  endloop
 endfacet
 facet normal -0.00000201 -0.00000019 0.99999994
  outer loop
    vertex -35.75000381 29.99999619 9.34615898
    vertex -35.75000381 -20.71922493 9.34614944
    vertex -35.61441422 -22.17105865 9.34614944
  endloop
 endfacet
 facet normal 0.00000000 -0.00000018 0.99999994
  outer loop
    vertex -31.75000381 -16.71870422 9.34615040
    vertex -31.75000381 29.99999619 9.34615898
    vertex -35.75000381 29.99999619 9.34615898
  endloop
 endfacet
 facet normal -0.00000013 -0.00000037 1.00000000
  outer loop
    vertex -25.00000000 -25.24567413 9.34614944
    vertex -25.73698425 -24.98839951 9.34614944
    vertex -26.45965767 -29.88573647 9.34614754
  endloop
 endfacet
 facet normal 0.00000001 -0.00000018 1.00000000
  outer loop
    vertex -31.75000381 -16.71870422 9.34615040
    vertex -35.75000381 29.99999619 9.34615898
    vertex -35.61441422 -22.17105865 9.34614944
  endloop
 endfacet
 facet normal -0.00000019 -0.00000036 1.00000000
  outer loop
    vertex -25.73698425 -24.98839951 9.34614944
    vertex -27.21041870 -24.22742844 9.34614944
    vertex -26.45965767 -29.88573647 9.34614754
  endloop
 endfacet
 facet normal 0.00000060 -0.00000060 1.00000000
  outer loop
    vertex -31.61441994 -18.17061996 9.34614944
    vertex -31.75000381 -16.71870422 9.34615040
    vertex -35.61441422 -22.17105865 9.34614944
  endloop
 endfacet
 facet normal -0.00000027 -0.00000037 0.99999994
  outer loop
    vertex -27.21041870 -24.22742844 9.34614944
    vertex -28.52446747 -23.28157043 9.34614944
    vertex -26.45965767 -29.88573647 9.34614754
  endloop
 endfacet
 facet normal 0.00000000 0.00000000 1.00000000
  outer loop
    vertex -31.21100807 -19.58678055 9.34614944
    vertex -31.61441994 -18.17061996 9.34614944
    vertex -35.61441422 -22.17105865 9.34614944
  endloop
 endfacet
 facet normal -0.00000041 -0.00000042 1.00000000
  outer loop
    vertex -28.52446747 -23.28157043 9.34614944
    vertex -29.64677238 -22.17411423 9.34614944
    vertex -26.45965767 -29.88573647 9.34614754
  endloop
 endfacet
 facet normal 0.00000000 0.00000000 1.00000000
  outer loop
    vertex -30.54969406 -20.93232346 9.34614944
    vertex -31.21100807 -19.58678055 9.34614944
    vertex -35.61441422 -22.17105865 9.34614944
  endloop
 endfacet
 facet normal -0.00000079 -0.00000057 1.00000000
  outer loop
    vertex -29.64677238 -22.17411423 9.34614944
    vertex -30.54969406 -20.93232346 9.34614944
    vertex -26.45965767 -29.88573647 9.34614754
  endloop
 endfacet
 facet normal -0.00000028 -0.00000101 0.99999994
  outer loop
    vertex -32.52431870 -27.28172302 9.34614849
    vertex -29.73669815 -28.98845291 9.34614754
    vertex -26.45965767 -29.88573647 9.34614754
  endloop
 endfacet
 facet normal 0.00000085 0.00000033 1.00000000
  outer loop
    vertex -35.61441422 -22.17105865 9.34614944
    vertex -34.54964066 -24.93260956 9.34614944
    vertex -32.52431870 -27.28172302 9.34614849
  endloop
 endfacet
 facet normal 0.00000005 -0.00000019 1.00000000
  outer loop
    vertex -30.54969406 -20.93232346 9.34614944
    vertex -35.61441422 -22.17105865 9.34614944
    vertex -26.45965767 -29.88573647 9.34614754
  endloop
 endfacet
 facet normal 0.00000010 -0.00000012 1.00000000
  outer loop
    vertex -35.61441422 -22.17105865 9.34614944
    vertex -32.52431870 -27.28172302 9.34614849
    vertex -26.45965767 -29.88573647 9.34614754
  endloop
 endfacet
 facet normal -0.00000000 1.00000000 0.00000000
  outer loop
    vertex -35.75000381 29.99999619 7.34615993
    vertex -35.75000381 29.99999619 9.34615898
    vertex -31.75000381 29.99999619 9.34615898
  endloop
 endfacet
 facet normal 0.00000000 1.00000000 -0.00000000
  outer loop
    vertex -31.75000381 29.99999619 9.34615898
    vertex -33.75000381 29.99999619 7.34615993
    vertex -35.75000381 29.99999619 7.34615993
  endloop
 endfacet
 facet normal 0.99566704 0.09299012 0.00000003
  outer loop
    vertex -33.61303329 -20.09157181 1.99999738
    vertex -33.75000381 -18.62499619 1.99999762
    vertex -33.75000381 -18.62499809 7.34615135
  endloop
 endfacet
 facet normal 0.99566704 0.09299023 -0.00000000
  outer loop
    vertex -33.61303329 -20.09157181 7.34615088
    vertex -33.61303329 -20.09157181 1.99999738
    vertex -33.75000381 -18.62499809 7.34615135
  endloop
 endfacet
 facet normal 0.96173239 0.27399039 -0.00000020
  outer loop
    vertex -33.20550537 -21.52202988 7.34615088
    vertex -33.20550537 -21.52203369 1.99999714
    vertex -33.61303329 -20.09157181 1.99999738
  endloop
 endfacet
 facet normal 0.96173227 0.27399108 0.00000000
  outer loop
    vertex -33.61303329 -20.09157181 1.99999738
    vertex -33.61303329 -20.09157181 7.34615088
    vertex -33.20550537 -21.52202988 7.34615088
  endloop
 endfacet
 facet normal 0.89744574 0.44112468 -0.00000000
  outer loop
    vertex -32.53744888 -22.88116074 7.34615040
    vertex -32.53744888 -22.88116074 1.99999690
    vertex -33.20550537 -21.52203369 1.99999714
  endloop
 endfacet
 facet normal 0.89744633 0.44112372 -0.00000031
  outer loop
    vertex -33.20550537 -21.52203369 1.99999714
    vertex -33.20550537 -21.52202988 7.34615088
    vertex -32.53744888 -22.88116074 7.34615040
  endloop
 endfacet
 facet normal 0.80876780 0.58812815 0.00000029
  outer loop
    vertex -31.62531853 -24.13548470 7.34615040
    vertex -31.62531662 -24.13548470 1.99999666
    vertex -32.53744888 -22.88116074 1.99999690
  endloop
 endfacet
 facet normal 0.80876839 0.58812732 0.00000000
  outer loop
    vertex -32.53744888 -22.88116074 1.99999690
    vertex -32.53744888 -22.88116074 7.34615040
    vertex -31.62531853 -24.13548470 7.34615040
  endloop
 endfacet
 facet normal 0.70234680 0.71183491 -0.00000000
  outer loop
    vertex -30.49156570 -25.25412369 7.34615040
    vertex -30.49156570 -25.25412369 1.99999642
    vertex -31.62531662 -24.13548470 1.99999666
  endloop
 endfacet
 facet normal 0.70234621 0.71183556 0.00000025
  outer loop
    vertex -31.62531662 -24.13548470 1.99999666
    vertex -31.62531853 -24.13548470 7.34615040
    vertex -30.49156570 -25.25412369 7.34615040
  endloop
 endfacet
 facet normal 0.58416170 0.81163734 -0.00000029
  outer loop
    vertex -29.16411400 -26.20953178 7.34614992
    vertex -29.16411400 -26.20953369 1.99999630
    vertex -30.49156570 -25.25412369 1.99999642
  endloop
 endfacet
 facet normal 0.58416092 0.81163788 0.00000000
  outer loop
    vertex -30.49156570 -25.25412369 1.99999642
    vertex -30.49156570 -25.25412369 7.34615040
    vertex -29.16411400 -26.20953178 7.34614992
  endloop
 endfacet
 facet normal 0.45883545 0.88852125 -0.00000000
  outer loop
    vertex -27.67564583 -26.97818375 7.34614992
    vertex -27.67564583 -26.97818375 1.99999619
    vertex -29.16411400 -26.20953369 1.99999630
  endloop
 endfacet
 facet normal 0.45883632 0.88852078 -0.00000032
  outer loop
    vertex -29.16411400 -26.20953369 1.99999630
    vertex -29.16411400 -26.20953178 7.34614992
    vertex -27.67564583 -26.97818375 7.34614992
  endloop
 endfacet
 facet normal 0.32955706 0.94413561 -0.00000000
  outer loop
    vertex -26.06281662 -27.54115295 7.34614992
    vertex -26.06281662 -27.54115295 1.99999607
    vertex -27.67564583 -26.97818375 1.99999619
  endloop
 endfacet
 facet normal 0.32955706 0.94413561 0.00000000
  outer loop
    vertex -27.67564583 -26.97818375 1.99999619
    vertex -27.67564583 -26.97818375 7.34614992
    vertex -26.06281662 -27.54115295 7.34614992
  endloop
 endfacet
 facet normal 0.19829679 0.98014200 0.00000000
  outer loop
    vertex -26.06281662 -27.54115295 7.34614992
    vertex -25.00000000 -27.75617599 7.34614992
    vertex -25.00000000 -27.75617599 1.99999988
  endloop
 endfacet
 facet normal 0.19829598 0.98014224 -0.00000000
  outer loop
    vertex -24.36533737 -27.88457680 1.99999988
    vertex -24.36533737 -27.88457680 1.99999607
    vertex -25.00000000 -27.75617599 1.99999988
  endloop
 endfacet
 facet normal 0.19829680 0.98014206 0.00000000
  outer loop
    vertex -26.06281662 -27.54115295 1.99999607
    vertex -26.06281662 -27.54115295 7.34614992
    vertex -25.00000000 -27.75617599 1.99999988
  endloop
 endfacet
 facet normal 0.19757211 0.97656173 0.08539626
  outer loop
    vertex -24.36533737 -27.88457680 1.99999607
    vertex -26.06281662 -27.54115295 1.99999607
    vertex -25.00000000 -27.75617599 1.99999988
  endloop
 endfacet
 facet normal 0.06617482 0.99780798 -0.00000000
  outer loop
    vertex -22.62500191 -27.99999619 1.99999976
    vertex -22.62500191 -27.99999619 1.99999595
    vertex -24.36533737 -27.88457680 1.99999607
  endloop
 endfacet
 facet normal 0.06617482 0.99780798 0.00000000
  outer loop
    vertex -24.36533737 -27.88457680 1.99999607
    vertex -24.36533737 -27.88457680 1.99999988
    vertex -22.62500191 -27.99999619 1.99999976
  endloop
 endfacet
 facet normal 0.00000000 1.00000000 -0.00000000
  outer loop
    vertex 22.62500191 -27.99999619 1.99999976
    vertex 22.62500191 -27.99999619 1.99999595
    vertex -22.62500191 -27.99999619 1.99999595
  endloop
 endfacet
 facet normal -0.00000000 1.00000000 0.00000000
  outer loop
    vertex -22.62500191 -27.99999619 1.99999595
    vertex -22.62500191 -27.99999619 1.99999976
    vertex 22.62500191 -27.99999619 1.99999976
  endloop
 endfacet
 facet normal -0.06617592 0.99780798 0.00000000
  outer loop
    vertex 24.36533737 -27.88457489 1.99999988
    vertex 24.36533737 -27.88457489 1.99999607
    vertex 22.62500191 -27.99999619 1.99999595
  endloop
 endfacet
 facet normal -0.06617592 0.99780798 0.00000000
  outer loop
    vertex 22.62500191 -27.99999619 1.99999595
    vertex 22.62500191 -27.99999619 1.99999976
    vertex 24.36533737 -27.88457489 1.99999988
  endloop
 endfacet
 facet normal -0.19829510 0.98014241 0.00000070
  outer loop
    vertex 25.00000000 -27.75617599 7.34614992
    vertex 26.06281662 -27.54115486 7.34614992
    vertex 26.06281662 -27.54115105 1.99999607
  endloop
 endfacet
 facet normal -0.19829647 0.98014206 0.00000000
  outer loop
    vertex 24.36533737 -27.88457489 1.99999607
    vertex 24.36533737 -27.88457489 1.99999988
    vertex 26.06281662 -27.54115105 1.99999607
  endloop
 endfacet
 facet normal -0.19829677 0.98014200 0.00000035
  outer loop
    vertex 25.00000000 -27.75617409 1.99999988
    vertex 25.00000000 -27.75617599 7.34614992
    vertex 26.06281662 -27.54115105 1.99999607
  endloop
 endfacet
 facet normal -0.19302563 0.95409185 0.22901921
  outer loop
    vertex 24.36533737 -27.88457489 1.99999988
    vertex 25.00000000 -27.75617409 1.99999988
    vertex 26.06281662 -27.54115105 1.99999607
  endloop
 endfacet
 facet normal -0.32955706 0.94413561 0.00000067
  outer loop
    vertex 26.06281662 -27.54115105 1.99999607
    vertex 26.06281662 -27.54115486 7.34614992
    vertex 27.67564583 -26.97818565 7.34614992
  endloop
 endfacet
 facet normal -0.32955611 0.94413602 0.00000034
  outer loop
    vertex 27.67564583 -26.97818565 7.34614992
    vertex 27.67564583 -26.97818375 1.99999619
    vertex 26.06281662 -27.54115105 1.99999607
  endloop
 endfacet
 facet normal -0.45883632 0.88852078 0.00000032
  outer loop
    vertex 27.67564583 -26.97818375 1.99999619
    vertex 27.67564583 -26.97818565 7.34614992
    vertex 29.16411400 -26.20953369 7.34614992
  endloop
 endfacet
 facet normal -0.45883718 0.88852030 0.00000063
  outer loop
    vertex 29.16411400 -26.20953369 7.34614992
    vertex 29.16411400 -26.20952988 1.99999630
    vertex 27.67564583 -26.97818375 1.99999619
  endloop
 endfacet
 facet normal -0.58416092 0.81163788 0.00000058
  outer loop
    vertex 29.16411400 -26.20952988 1.99999630
    vertex 29.16411400 -26.20953369 7.34614992
    vertex 30.49156570 -25.25412560 7.34615040
  endloop
 endfacet
 facet normal -0.58416092 0.81163788 0.00000058
  outer loop
    vertex 30.49156570 -25.25412560 7.34615040
    vertex 30.49156570 -25.25412178 1.99999642
    vertex 29.16411400 -26.20952988 1.99999630
  endloop
 endfacet
 facet normal -0.70234680 0.71183491 0.00000051
  outer loop
    vertex 30.49156570 -25.25412178 1.99999642
    vertex 30.49156570 -25.25412560 7.34615040
    vertex 31.62531662 -24.13548660 7.34615040
  endloop
 endfacet
 facet normal -0.70234621 0.71183556 0.00000026
  outer loop
    vertex 31.62531662 -24.13548660 7.34615040
    vertex 31.62531853 -24.13548279 1.99999666
    vertex 30.49156570 -25.25412178 1.99999642
  endloop
 endfacet
 facet normal -0.80876821 0.58812755 0.00000013
  outer loop
    vertex 31.62531853 -24.13548279 1.99999666
    vertex 31.62531662 -24.13548660 7.34615040
    vertex 32.53744888 -22.88116074 7.34615040
  endloop
 endfacet
 facet normal -0.80876839 0.58812732 0.00000021
  outer loop
    vertex 32.53744888 -22.88116074 7.34615040
    vertex 32.53744888 -22.88115883 1.99999690
    vertex 31.62531853 -24.13548279 1.99999666
  endloop
 endfacet
 facet normal -0.89744574 0.44112468 0.00000016
  outer loop
    vertex 32.53744888 -22.88115883 1.99999690
    vertex 32.53744888 -22.88116074 7.34615040
    vertex 33.20550537 -21.52203369 7.34615088
  endloop
 endfacet
 facet normal -0.89744604 0.44112420 0.00000031
  outer loop
    vertex 33.20550537 -21.52203369 7.34615088
    vertex 33.20550537 -21.52202988 1.99999714
    vertex 32.53744888 -22.88115883 1.99999690
  endloop
 endfacet
 facet normal -0.96173227 0.27399072 0.00000020
  outer loop
    vertex 33.20550537 -21.52202988 1.99999714
    vertex 33.20550537 -21.52203369 7.34615088
    vertex 33.61303329 -20.09157372 7.34615088
  endloop
 endfacet
 facet normal -0.96173227 0.27399072 0.00000020
  outer loop
    vertex 33.61303329 -20.09157372 7.34615088
    vertex 33.61303329 -20.09156990 1.99999738
    vertex 33.20550537 -21.52202988 1.99999714
  endloop
 endfacet
 facet normal -0.99566698 0.09299023 0.00000003
  outer loop
    vertex 33.61303329 -20.09156990 1.99999738
    vertex 33.75000381 -18.62499809 7.34615135
    vertex 33.75000381 -18.62499619 1.99999762
  endloop
 endfacet
 facet normal -0.99566704 0.09299012 0.00000007
  outer loop
    vertex 33.61303329 -20.09156990 1.99999738
    vertex 33.61303329 -20.09157372 7.34615088
    vertex 33.75000381 -18.62499809 7.34615135
  endloop
 endfacet
 facet normal -0.00000000 1.00000000 0.00000000
  outer loop
    vertex 33.75000381 29.99999619 7.34615993
    vertex 31.75000381 29.99999619 9.34615898
    vertex 35.75000000 29.99999619 9.34615898
  endloop
 endfacet
 facet normal 0.00000000 1.00000000 -0.00000000
  outer loop
    vertex 35.75000000 29.99999619 9.34615898
    vertex 35.75000000 29.99999619 7.34615993
    vertex 33.75000381 29.99999619 7.34615993
  endloop
 endfacet
 facet normal 0.00000201 -0.00000019 1.00000000
  outer loop
    vertex 35.75000000 29.99999619 9.34615898
    vertex 35.61440659 -22.17105865 9.34614944
    vertex 35.75000000 -20.71922302 9.34614944
  endloop
 endfacet
 facet normal 0.00000000 -0.00000000 1.00000000
  outer loop
    vertex 34.54963303 -24.93260574 9.34614944
    vertex 35.21097565 -23.58714104 9.34614944
    vertex 35.61440659 -22.17105865 9.34614944
  endloop
 endfacet
 facet normal 0.00000268 -0.00000272 1.00000000
  outer loop
    vertex 32.52431107 -27.28172302 9.34614849
    vertex 33.64666367 -26.17432404 9.34614849
    vertex 34.54963303 -24.93260574 9.34614944
  endloop
 endfacet
 facet normal 0.00000184 -0.00000357 1.00000000
  outer loop
    vertex 29.73669052 -28.98845291 9.34614754
    vertex 31.21019936 -28.22752762 9.34614754
    vertex 32.52431107 -27.28172302 9.34614849
  endloop
 endfacet
 facet normal 0.00000000 -0.00000000 1.00000000
  outer loop
    vertex 26.45965004 -29.88573647 9.34614754
    vertex 28.14007187 -29.54576492 9.34614754
    vertex 29.73669052 -28.98845291 9.34614754
  endloop
 endfacet
 facet normal 0.00000003 -0.00000040 1.00000000
  outer loop
    vertex 25.00000000 -25.24567413 9.34614944
    vertex 25.00000000 -29.98254204 9.34614754
    vertex 26.45965004 -29.88573647 9.34614754
  endloop
 endfacet
 facet normal 0.00000000 -0.00000018 1.00000000
  outer loop
    vertex 35.75000000 29.99999619 9.34615898
    vertex 31.75000381 29.99999619 9.34615898
    vertex 31.75000381 -16.71870422 9.34615040
  endloop
 endfacet
 facet normal 0.00000013 -0.00000037 1.00000000
  outer loop
    vertex 25.73698044 -24.98839951 9.34614944
    vertex 25.00000000 -25.24567413 9.34614944
    vertex 26.45965004 -29.88573647 9.34614754
  endloop
 endfacet
 facet normal -0.00000001 -0.00000018 1.00000000
  outer loop
    vertex 35.75000000 29.99999619 9.34615898
    vertex 31.75000381 -16.71870422 9.34615040
    vertex 35.61440659 -22.17105865 9.34614944
  endloop
 endfacet
 facet normal 0.00000019 -0.00000036 0.99999994
  outer loop
    vertex 27.21041870 -24.22743225 9.34614944
    vertex 25.73698044 -24.98839951 9.34614944
    vertex 26.45965004 -29.88573647 9.34614754
  endloop
 endfacet
 facet normal -0.00000060 -0.00000060 1.00000000
  outer loop
    vertex 31.75000381 -16.71870422 9.34615040
    vertex 31.61441994 -18.17061996 9.34614944
    vertex 35.61440659 -22.17105865 9.34614944
  endloop
 endfacet
 facet normal 0.00000027 -0.00000037 1.00000000
  outer loop
    vertex 28.52446747 -23.28157043 9.34614944
    vertex 27.21041870 -24.22743225 9.34614944
    vertex 26.45965004 -29.88573647 9.34614754
  endloop
 endfacet
 facet normal -0.00000000 0.00000000 1.00000000
  outer loop
    vertex 31.61441994 -18.17061996 9.34614944
    vertex 31.21100807 -19.58678246 9.34614944
    vertex 35.61440659 -22.17105865 9.34614944
  endloop
 endfacet
 facet normal 0.00000041 -0.00000042 1.00000000
  outer loop
    vertex 29.64677238 -22.17411423 9.34614944
    vertex 28.52446747 -23.28157043 9.34614944
    vertex 26.45965004 -29.88573647 9.34614754
  endloop
 endfacet
 facet normal -0.00000000 0.00000000 1.00000000
  outer loop
    vertex 31.21100807 -19.58678246 9.34614944
    vertex 30.54969406 -20.93232536 9.34614944
    vertex 35.61440659 -22.17105865 9.34614944
  endloop
 endfacet
 facet normal 0.00000079 -0.00000057 1.00000000
  outer loop
    vertex 30.54969406 -20.93232536 9.34614944
    vertex 29.64677238 -22.17411423 9.34614944
    vertex 26.45965004 -29.88573647 9.34614754
  endloop
 endfacet
 facet normal 0.00000028 -0.00000101 0.99999994
  outer loop
    vertex 26.45965004 -29.88573647 9.34614754
    vertex 29.73669052 -28.98845291 9.34614754
    vertex 32.52431107 -27.28172302 9.34614849
  endloop
 endfacet
 facet normal -0.00000085 0.00000033 1.00000000
  outer loop
    vertex 32.52431107 -27.28172302 9.34614849
    vertex 34.54963303 -24.93260574 9.34614944
    vertex 35.61440659 -22.17105865 9.34614944
  endloop
 endfacet
 facet normal -0.00000005 -0.00000019 1.00000000
  outer loop
    vertex 30.54969406 -20.93232536 9.34614944
    vertex 26.45965004 -29.88573647 9.34614754
    vertex 35.61440659 -22.17105865 9.34614944
  endloop
 endfacet
 facet normal -0.00000010 -0.00000012 1.00000000
  outer loop
    vertex 26.45965004 -29.88573647 9.34614754
    vertex 32.52431107 -27.28172302 9.34614849
    vertex 35.61440659 -22.17105865 9.34614944
  endloop
 endfacet
 facet normal 0.20352840 0.58302259 -0.78654993
  outer loop
    vertex -27.73698425 -26.98839569 7.34614992
    vertex -25.00000000 -26.40530396 8.48658562
    vertex -26.14043427 -27.54573822 7.34614992
  endloop
 endfacet
 facet normal 0.20352791 0.58302242 -0.78655022
  outer loop
    vertex -25.73698425 -24.98839951 9.34614944
    vertex -25.00000000 -25.24567413 9.34614944
    vertex -25.00000000 -26.40530396 8.48658562
  endloop
 endfacet
 facet normal 0.20352845 0.58302253 -0.78655005
  outer loop
    vertex -27.73698425 -26.98839569 7.34614992
    vertex -25.73698425 -24.98839951 9.34614944
    vertex -25.00000000 -26.40530396 8.48658562
  endloop
 endfacet
 facet normal 0.27347860 0.52952445 -0.80300272
  outer loop
    vertex -29.21041870 -26.22742653 7.34614992
    vertex -27.21041870 -24.22742844 9.34614944
    vertex -25.73698425 -24.98839951 9.34614944
  endloop
 endfacet
 facet normal 0.27347821 0.52952504 -0.80300242
  outer loop
    vertex -25.73698425 -24.98839951 9.34614944
    vertex -27.73698425 -26.98839569 7.34614992
    vertex -29.21041870 -26.22742653 7.34614992
  endloop
 endfacet
 facet normal 0.34023347 0.47267500 -0.81290811
  outer loop
    vertex -30.52446556 -25.28156853 7.34615040
    vertex -28.52446747 -23.28157043 9.34614944
    vertex -27.21041870 -24.22742844 9.34614944
  endloop
 endfacet
 facet normal 0.34023359 0.47267482 -0.81290811
  outer loop
    vertex -27.21041870 -24.22742844 9.34614944
    vertex -29.21041870 -26.22742653 7.34614992
    vertex -30.52446556 -25.28156853 7.34615040
  endloop
 endfacet
 facet normal 0.40552694 0.41096419 -0.81649023
  outer loop
    vertex -31.64677048 -24.17411041 7.34615040
    vertex -29.64677238 -22.17411423 9.34614944
    vertex -28.52446747 -23.28157043 9.34614944
  endloop
 endfacet
 facet normal 0.40552711 0.41096371 -0.81649041
  outer loop
    vertex -28.52446747 -23.28157043 9.34614944
    vertex -30.52446556 -25.28156853 7.34615040
    vertex -31.64677048 -24.17411041 7.34615040
  endloop
 endfacet
 facet normal 0.47079745 0.34232274 -0.81312054
  outer loop
    vertex -32.54969406 -22.93232346 7.34615040
    vertex -30.54969406 -20.93232346 9.34614944
    vertex -29.64677238 -22.17411423 9.34614944
  endloop
 endfacet
 facet normal 0.47079688 0.34232411 -0.81312031
  outer loop
    vertex -29.64677238 -22.17411423 9.34614944
    vertex -31.64677048 -24.17411041 7.34615040
    vertex -32.54969406 -22.93232346 7.34615040
  endloop
 endfacet
 facet normal 0.53713125 0.26399189 -0.80112320
  outer loop
    vertex -33.21100616 -21.58678055 7.34615088
    vertex -31.21100807 -19.58678055 9.34614944
    vertex -30.54969406 -20.93232346 9.34614944
  endloop
 endfacet
 facet normal 0.53713137 0.26399148 -0.80112314
  outer loop
    vertex -30.54969406 -20.93232346 9.34614944
    vertex -32.54969406 -22.93232346 7.34615040
    vertex -33.21100616 -21.58678055 7.34615088
  endloop
 endfacet
 facet normal 0.60500395 0.17234327 -0.77734685
  outer loop
    vertex -33.61441803 -20.17061615 7.34615088
    vertex -31.61441994 -18.17061996 9.34614944
    vertex -31.21100807 -19.58678055 9.34614944
  endloop
 endfacet
 facet normal 0.60500407 0.17234284 -0.77734685
  outer loop
    vertex -31.21100807 -19.58678055 9.34614944
    vertex -33.21100616 -21.58678055 7.34615088
    vertex -33.61441803 -20.17061615 7.34615088
  endloop
 endfacet
 facet normal 0.67355585 0.06289899 -0.73645508
  outer loop
    vertex -33.75000381 -18.71870041 7.34615135
    vertex -31.75000381 -16.71870422 9.34615040
    vertex -31.61441994 -18.17061996 9.34614944
  endloop
 endfacet
 facet normal 0.67355579 0.06289961 -0.73645520
  outer loop
    vertex -31.61441994 -18.17061996 9.34614944
    vertex -33.61441803 -20.17061615 7.34615088
    vertex -33.75000381 -18.71870041 7.34615135
  endloop
 endfacet
 facet normal 0.70710665 0.00000012 -0.70710695
  outer loop
    vertex -31.75000381 29.99999619 9.34615898
    vertex -33.75000381 -18.62499809 7.34615135
    vertex -33.75000381 29.99999619 7.34615993
  endloop
 endfacet
 facet normal 0.70710659 0.00000000 -0.70710695
  outer loop
    vertex -31.75000381 -16.71870422 9.34615040
    vertex -33.75000381 -18.71870041 7.34615135
    vertex -33.75000381 -18.62499809 7.34615135
  endloop
 endfacet
 facet normal 0.70710653 0.00000013 -0.70710701
  outer loop
    vertex -31.75000381 29.99999619 9.34615898
    vertex -31.75000381 -16.71870422 9.34615040
    vertex -33.75000381 -18.62499809 7.34615135
  endloop
 endfacet
 facet normal 0.00000000 0.00000000 1.00000000
  outer loop
    vertex -25.00000000 -27.75617599 7.34614992
    vertex -26.14043427 -27.54573822 7.34614992
    vertex -25.00000000 -27.77648926 7.34614992
  endloop
 endfacet
 facet normal 0.00000352 -0.00000000 1.00000000
  outer loop
    vertex -33.75000381 -18.62499809 7.34615135
    vertex -33.75000381 -18.71870041 7.34615135
    vertex -33.61441803 -20.17061615 7.34615088
  endloop
 endfacet
 facet normal 0.00000000 0.00000000 1.00000000
  outer loop
    vertex -25.00000000 -27.75617599 7.34614992
    vertex -26.06281662 -27.54115295 7.34614992
    vertex -26.14043427 -27.54573822 7.34614992
  endloop
 endfacet
 facet normal 0.00000293 -0.00000005 1.00000000
  outer loop
    vertex -33.61303329 -20.09157181 7.34615088
    vertex -33.75000381 -18.62499809 7.34615135
    vertex -33.61441803 -20.17061615 7.34615088
  endloop
 endfacet
 facet normal 0.00000000 0.00000000 1.00000000
  outer loop
    vertex -26.06281662 -27.54115295 7.34614992
    vertex -27.73698425 -26.98839569 7.34614992
    vertex -26.14043427 -27.54573822 7.34614992
  endloop
 endfacet
 facet normal -0.00000000 0.00000000 1.00000000
  outer loop
    vertex -33.61303329 -20.09157181 7.34615088
    vertex -33.61441803 -20.17061615 7.34615088
    vertex -33.21100616 -21.58678055 7.34615088
  endloop
 endfacet
 facet normal 0.00000000 0.00000000 0.99999994
  outer loop
    vertex -26.06281662 -27.54115295 7.34614992
    vertex -27.67564583 -26.97818375 7.34614992
    vertex -27.73698425 -26.98839569 7.34614992
  endloop
 endfacet
 facet normal 0.00000000 0.00000000 1.00000000
  outer loop
    vertex -33.20550537 -21.52202988 7.34615088
    vertex -33.61303329 -20.09157181 7.34615088
    vertex -33.21100616 -21.58678055 7.34615088
  endloop
 endfacet
 facet normal 0.00000000 0.00000000 1.00000000
  outer loop
    vertex -27.67564583 -26.97818375 7.34614992
    vertex -29.21041870 -26.22742653 7.34614992
    vertex -27.73698425 -26.98839569 7.34614992
  endloop
 endfacet
 facet normal 0.00000061 -0.00000005 1.00000000
  outer loop
    vertex -33.20550537 -21.52202988 7.34615088
    vertex -33.21100616 -21.58678055 7.34615088
    vertex -32.54969406 -22.93232346 7.34615040
  endloop
 endfacet
 facet normal 0.00000000 0.00000000 1.00000000
  outer loop
    vertex -27.67564583 -26.97818375 7.34614992
    vertex -29.16411400 -26.20953178 7.34614992
    vertex -29.21041870 -26.22742653 7.34614992
  endloop
 endfacet
 facet normal 0.00000048 -0.00000011 1.00000000
  outer loop
    vertex -32.53744888 -22.88116074 7.34615040
    vertex -33.20550537 -21.52202988 7.34615088
    vertex -32.54969406 -22.93232346 7.34615040
  endloop
 endfacet
 facet normal 0.00000013 -0.00000033 1.00000000
  outer loop
    vertex -29.16411400 -26.20953178 7.34614992
    vertex -30.52446556 -25.28156853 7.34615040
    vertex -29.21041870 -26.22742653 7.34614992
  endloop
 endfacet
 facet normal -0.00000000 0.00000000 1.00000000
  outer loop
    vertex -32.53744888 -22.88116074 7.34615040
    vertex -32.54969406 -22.93232346 7.34615040
    vertex -31.64677048 -24.17411041 7.34615040
  endloop
 endfacet
 facet normal 0.00000019 -0.00000023 1.00000000
  outer loop
    vertex -29.16411400 -26.20953178 7.34614992
    vertex -30.49156570 -25.25412369 7.34615040
    vertex -30.52446556 -25.28156853 7.34615040
  endloop
 endfacet
 facet normal 0.00000000 0.00000000 1.00000000
  outer loop
    vertex -31.62531853 -24.13548470 7.34615040
    vertex -32.53744888 -22.88116074 7.34615040
    vertex -31.64677048 -24.17411041 7.34615040
  endloop
 endfacet
 facet normal 0.00000000 0.00000000 1.00000000
  outer loop
    vertex -30.49156570 -25.25412369 7.34615040
    vertex -31.64677048 -24.17411041 7.34615040
    vertex -30.52446556 -25.28156853 7.34615040
  endloop
 endfacet
 facet normal 0.00000000 0.00000000 1.00000000
  outer loop
    vertex -30.49156570 -25.25412369 7.34615040
    vertex -31.62531853 -24.13548470 7.34615040
    vertex -31.64677048 -24.17411041 7.34615040
  endloop
 endfacet
 facet normal -0.00000352 0.00000000 1.00000000
  outer loop
    vertex 33.75000381 -18.62499809 7.34615135
    vertex 33.61441803 -20.17061615 7.34615088
    vertex 33.75000381 -18.71870041 7.34615135
  endloop
 endfacet
 facet normal 0.00000000 0.00000000 1.00000000
  outer loop
    vertex 25.00000000 -27.75617599 7.34614992
    vertex 25.00000000 -27.77648926 7.34614992
    vertex 26.14043617 -27.54573822 7.34614992
  endloop
 endfacet
 facet normal -0.00000293 -0.00000005 1.00000000
  outer loop
    vertex 33.75000381 -18.62499809 7.34615135
    vertex 33.61303329 -20.09157372 7.34615088
    vertex 33.61441803 -20.17061615 7.34615088
  endloop
 endfacet
 facet normal 0.00000000 0.00000000 1.00000000
  outer loop
    vertex 26.06281662 -27.54115486 7.34614992
    vertex 25.00000000 -27.75617599 7.34614992
    vertex 26.14043617 -27.54573822 7.34614992
  endloop
 endfacet
 facet normal 0.00000000 0.00000000 1.00000000
  outer loop
    vertex 33.61303329 -20.09157372 7.34615088
    vertex 33.21100616 -21.58678055 7.34615088
    vertex 33.61441803 -20.17061615 7.34615088
  endloop
 endfacet
 facet normal 0.00000000 -0.00000000 1.00000000
  outer loop
    vertex 26.06281662 -27.54115486 7.34614992
    vertex 26.14043617 -27.54573822 7.34614992
    vertex 27.73698425 -26.98839569 7.34614992
  endloop
 endfacet
 facet normal -0.00000000 0.00000000 1.00000000
  outer loop
    vertex 33.61303329 -20.09157372 7.34615088
    vertex 33.20550537 -21.52203369 7.34615088
    vertex 33.21100616 -21.58678055 7.34615088
  endloop
 endfacet
 facet normal 0.00000000 0.00000000 0.99999994
  outer loop
    vertex 27.67564583 -26.97818565 7.34614992
    vertex 26.06281662 -27.54115486 7.34614992
    vertex 27.73698425 -26.98839569 7.34614992
  endloop
 endfacet
 facet normal -0.00000061 -0.00000005 1.00000000
  outer loop
    vertex 33.20550537 -21.52203369 7.34615088
    vertex 32.54969406 -22.93232346 7.34615040
    vertex 33.21100616 -21.58678055 7.34615088
  endloop
 endfacet
 facet normal 0.00000000 -0.00000000 1.00000000
  outer loop
    vertex 27.67564583 -26.97818565 7.34614992
    vertex 27.73698425 -26.98839569 7.34614992
    vertex 29.21042252 -26.22742653 7.34614992
  endloop
 endfacet
 facet normal -0.00000048 -0.00000011 1.00000000
  outer loop
    vertex 33.20550537 -21.52203369 7.34615088
    vertex 32.53744888 -22.88116074 7.34615040
    vertex 32.54969406 -22.93232346 7.34615040
  endloop
 endfacet
 facet normal 0.00000000 0.00000000 1.00000000
  outer loop
    vertex 29.16411400 -26.20953369 7.34614992
    vertex 27.67564583 -26.97818565 7.34614992
    vertex 29.21042252 -26.22742653 7.34614992
  endloop
 endfacet
 facet normal 0.00000000 0.00000000 1.00000000
  outer loop
    vertex 32.53744888 -22.88116074 7.34615040
    vertex 31.64677429 -24.17410851 7.34615040
    vertex 32.54969406 -22.93232346 7.34615040
  endloop
 endfacet
 facet normal -0.00000013 -0.00000033 1.00000000
  outer loop
    vertex 29.16411400 -26.20953369 7.34614992
    vertex 29.21042252 -26.22742653 7.34614992
    vertex 30.52446556 -25.28156853 7.34615040
  endloop
 endfacet
 facet normal -0.00000000 0.00000000 0.99999994
  outer loop
    vertex 32.53744888 -22.88116074 7.34615040
    vertex 31.62531662 -24.13548660 7.34615040
    vertex 31.64677429 -24.17410851 7.34615040
  endloop
 endfacet
 facet normal -0.00000019 -0.00000023 1.00000000
  outer loop
    vertex 30.49156570 -25.25412560 7.34615040
    vertex 29.16411400 -26.20953369 7.34614992
    vertex 30.52446556 -25.28156853 7.34615040
  endloop
 endfacet
 facet normal 0.00000000 0.00000000 1.00000000
  outer loop
    vertex 31.62531662 -24.13548660 7.34615040
    vertex 30.52446556 -25.28156853 7.34615040
    vertex 31.64677429 -24.17410851 7.34615040
  endloop
 endfacet
 facet normal -0.00000000 0.00000000 1.00000000
  outer loop
    vertex 31.62531662 -24.13548660 7.34615040
    vertex 30.49156570 -25.25412560 7.34615040
    vertex 30.52446556 -25.28156853 7.34615040
  endloop
 endfacet
 facet normal -0.70710653 0.00000013 -0.70710701
  outer loop
    vertex 31.75000381 29.99999619 9.34615898
    vertex 33.75000381 -18.71870041 7.34615135
    vertex 31.75000381 -16.71870422 9.34615040
  endloop
 endfacet
 facet normal -0.70710665 0.00000012 -0.70710695
  outer loop
    vertex 31.75000381 29.99999619 9.34615898
    vertex 33.75000381 29.99999619 7.34615993
    vertex 33.75000381 -18.62499809 7.34615135
  endloop
 endfacet
 facet normal -0.70710814 -0.00000000 -0.70710540
  outer loop
    vertex 31.75000381 29.99999619 9.34615898
    vertex 33.75000381 -18.62499809 7.34615135
    vertex 33.75000381 -18.71870041 7.34615135
  endloop
 endfacet
 facet normal -0.67355621 0.06289901 -0.73645496
  outer loop
    vertex 33.61441803 -20.17061615 7.34615088
    vertex 31.61441994 -18.17061996 9.34614944
    vertex 31.75000381 -16.71870422 9.34615040
  endloop
 endfacet
 facet normal -0.67355555 0.06289960 -0.73645544
  outer loop
    vertex 31.75000381 -16.71870422 9.34615040
    vertex 33.75000381 -18.71870041 7.34615135
    vertex 33.61441803 -20.17061615 7.34615088
  endloop
 endfacet
 facet normal -0.60500395 0.17234305 -0.77734679
  outer loop
    vertex 33.21100616 -21.58678055 7.34615088
    vertex 31.21100807 -19.58678246 9.34614944
    vertex 31.61441994 -18.17061996 9.34614944
  endloop
 endfacet
 facet normal -0.60500419 0.17234288 -0.77734673
  outer loop
    vertex 31.61441994 -18.17061996 9.34614944
    vertex 33.61441803 -20.17061615 7.34615088
    vertex 33.21100616 -21.58678055 7.34615088
  endloop
 endfacet
 facet normal -0.53713119 0.26399186 -0.80112314
  outer loop
    vertex 32.54969406 -22.93232346 7.34615040
    vertex 30.54969406 -20.93232536 9.34614944
    vertex 31.21100807 -19.58678246 9.34614944
  endloop
 endfacet
 facet normal -0.53713161 0.26399159 -0.80112302
  outer loop
    vertex 31.21100807 -19.58678246 9.34614944
    vertex 33.21100616 -21.58678055 7.34615088
    vertex 32.54969406 -22.93232346 7.34615040
  endloop
 endfacet
 facet normal -0.47079733 0.34232318 -0.81312037
  outer loop
    vertex 31.64677429 -24.17410851 7.34615040
    vertex 29.64677238 -22.17411423 9.34614944
    vertex 30.54969406 -20.93232536 9.34614944
  endloop
 endfacet
 facet normal -0.47079709 0.34232333 -0.81312042
  outer loop
    vertex 30.54969406 -20.93232536 9.34614944
    vertex 32.54969406 -22.93232346 7.34615040
    vertex 31.64677429 -24.17410851 7.34615040
  endloop
 endfacet
 facet normal -0.40552679 0.41096407 -0.81649041
  outer loop
    vertex 30.52446556 -25.28156853 7.34615040
    vertex 28.52446747 -23.28157043 9.34614944
    vertex 29.64677238 -22.17411423 9.34614944
  endloop
 endfacet
 facet normal -0.40552679 0.41096407 -0.81649041
  outer loop
    vertex 29.64677238 -22.17411423 9.34614944
    vertex 31.64677429 -24.17410851 7.34615040
    vertex 30.52446556 -25.28156853 7.34615040
  endloop
 endfacet
 facet normal -0.34023434 0.47267425 -0.81290811
  outer loop
    vertex 29.21042252 -26.22742653 7.34614992
    vertex 27.21041870 -24.22743225 9.34614944
    vertex 28.52446747 -23.28157043 9.34614944
  endloop
 endfacet
 facet normal -0.34023419 0.47267431 -0.81290811
  outer loop
    vertex 28.52446747 -23.28157043 9.34614944
    vertex 30.52446556 -25.28156853 7.34615040
    vertex 29.21042252 -26.22742653 7.34614992
  endloop
 endfacet
 facet normal -0.27347714 0.52952564 -0.80300242
  outer loop
    vertex 27.73698425 -26.98839569 7.34614992
    vertex 25.73698044 -24.98839951 9.34614944
    vertex 27.21041870 -24.22743225 9.34614944
  endloop
 endfacet
 facet normal -0.27347773 0.52952546 -0.80300230
  outer loop
    vertex 27.21041870 -24.22743225 9.34614944
    vertex 29.21042252 -26.22742653 7.34614992
    vertex 27.73698425 -26.98839569 7.34614992
  endloop
 endfacet
 facet normal -0.20352851 0.58302230 -0.78655022
  outer loop
    vertex 26.14043617 -27.54573822 7.34614992
    vertex 25.73698044 -24.98839951 9.34614944
    vertex 27.73698425 -26.98839569 7.34614992
  endloop
 endfacet
 facet normal -0.20352893 0.58302230 -0.78655010
  outer loop
    vertex 25.00000000 -26.40530396 8.48658562
    vertex 25.00000000 -25.24567413 9.34614944
    vertex 25.73698044 -24.98839951 9.34614944
  endloop
 endfacet
 facet normal -0.20352864 0.58302224 -0.78655022
  outer loop
    vertex 26.14043617 -27.54573822 7.34614992
    vertex 25.00000000 -26.40530396 8.48658562
    vertex 25.73698044 -24.98839951 9.34614944
  endloop
 endfacet
 facet normal 0.12831429 0.63416392 -0.76247722
  outer loop
    vertex -26.14043427 -27.54573822 7.34614992
    vertex -25.00000000 -26.40530396 8.48658562
    vertex -25.00000000 -27.77648926 7.34614992
  endloop
 endfacet
 facet normal -0.12831408 0.63416392 -0.76247728
  outer loop
    vertex 25.00000000 -27.77648926 7.34614992
    vertex 25.00000000 -26.40530396 8.48658562
    vertex 26.14043617 -27.54573822 7.34614992
  endloop
 endfacet
 facet normal 1.00000000 0.00000000 0.00000000
  outer loop
    vertex -25.00000000 -29.98254204 7.34614944
    vertex -25.00000000 -25.24567413 9.34614944
    vertex -25.00000000 -29.98254395 9.34614754
  endloop
 endfacet
 facet normal 1.00000000 0.00000000 -0.00000000
  outer loop
    vertex -25.00000000 -29.98254204 7.34614944
    vertex -25.00000000 -26.40530396 8.48658562
    vertex -25.00000000 -25.24567413 9.34614944
  endloop
 endfacet
 facet normal 1.00000000 0.00000000 -0.00000000
  outer loop
    vertex -25.00000000 -29.97512627 7.34614944
    vertex -25.00000000 -27.77648926 7.34614992
    vertex -25.00000000 -26.40530396 8.48658562
  endloop
 endfacet
 facet normal 1.00000000 0.00000000 -0.00000000
  outer loop
    vertex -25.00000000 -29.98254204 7.34614944
    vertex -25.00000000 -29.97512627 7.34614944
    vertex -25.00000000 -26.40530396 8.48658562
  endloop
 endfacet
 facet normal -1.00000000 0.00000000 0.00000000
  outer loop
    vertex 25.00000000 -29.98254204 9.34614754
    vertex 25.00000000 -25.24567413 9.34614944
    vertex 25.00000000 -26.40530396 8.48658562
  endloop
 endfacet
 facet normal -1.00000000 0.00000000 0.00000000
  outer loop
    vertex 25.00000000 -29.97512627 7.34614944
    vertex 25.00000000 -26.40530396 8.48658562
    vertex 25.00000000 -27.77648926 7.34614992
  endloop
 endfacet
 facet normal -1.00000000 0.00000000 0.00000000
  outer loop
    vertex 25.00000000 -29.97512627 7.34614944
    vertex 25.00000000 -29.98254204 7.34614944
    vertex 25.00000000 -29.98254204 9.34614754
  endloop
 endfacet
 facet normal -0.99999994 0.00000000 0.00000000
  outer loop
    vertex 25.00000000 -29.97512627 7.34614944
    vertex 25.00000000 -29.98254204 9.34614754
    vertex 25.00000000 -26.40530396 8.48658562
  endloop
 endfacet
 facet normal 1.00000000 0.00000000 0.00000000
  outer loop
    vertex -25.00000000 -27.75617599 7.34614992
    vertex -25.00000000 -29.97512627 1.99999952
    vertex -25.00000000 -27.75617599 1.99999988
  endloop
 endfacet
 facet normal 1.00000000 -0.00000000 0.00000000
  outer loop
    vertex -25.00000000 -27.75617599 7.34614992
    vertex -25.00000000 -27.77648926 7.34614992
    vertex -25.00000000 -29.97512627 1.99999952
  endloop
 endfacet
 facet normal 1.00000000 -0.00000000 0.00000000
  outer loop
    vertex -25.00000000 -27.77648926 7.34614992
    vertex -25.00000000 -29.97512627 7.34614944
    vertex -25.00000000 -29.97512627 1.99999952
  endloop
 endfacet
 facet normal 0.00000001 -0.00000016 1.00000000
  outer loop
    vertex 25.00000000 -27.75617409 1.99999988
    vertex 24.62500191 -29.99999619 1.99999952
    vertex 25.00000000 -29.97512627 1.99999952
  endloop
 endfacet
 facet normal 0.00000000 -0.00000000 1.00000000
  outer loop
    vertex -25.00000000 -29.97512627 1.99999952
    vertex -24.62500191 -29.99999619 1.99999952
    vertex 24.62500191 -29.99999619 1.99999952
  endloop
 endfacet
 facet normal -0.00000003 -0.00000016 1.00000000
  outer loop
    vertex -24.36533737 -27.88457680 1.99999988
    vertex -25.00000000 -27.75617599 1.99999988
    vertex -25.00000000 -29.97512627 1.99999952
  endloop
 endfacet
 facet normal 0.00000003 -0.00000016 1.00000000
  outer loop
    vertex 25.00000000 -27.75617409 1.99999988
    vertex 24.36533737 -27.88457489 1.99999988
    vertex 24.62500191 -29.99999619 1.99999952
  endloop
 endfacet
 facet normal 0.00000006 -0.00000019 0.99999994
  outer loop
    vertex -22.62500191 -27.99999619 1.99999976
    vertex -24.36533737 -27.88457680 1.99999988
    vertex -25.00000000 -29.97512627 1.99999952
  endloop
 endfacet
 facet normal -0.00000006 -0.00000018 1.00000000
  outer loop
    vertex 24.36533737 -27.88457489 1.99999988
    vertex 22.62500191 -27.99999619 1.99999976
    vertex 24.62500191 -29.99999619 1.99999952
  endloop
 endfacet
 facet normal 0.00000000 -0.00000012 1.00000000
  outer loop
    vertex 22.62500191 -27.99999619 1.99999976
    vertex -22.62500191 -27.99999619 1.99999976
    vertex -25.00000000 -29.97512627 1.99999952
  endloop
 endfacet
 facet normal -0.00000000 -0.00000012 1.00000000
  outer loop
    vertex 22.62500191 -27.99999619 1.99999976
    vertex -25.00000000 -29.97512627 1.99999952
    vertex 24.62500191 -29.99999619 1.99999952
  endloop
 endfacet
 facet normal -1.00000000 0.00000000 0.00000000
  outer loop
    vertex 25.00000000 -27.75617409 1.99999988
    vertex 25.00000000 -27.77648926 7.34614992
    vertex 25.00000000 -27.75617599 7.34614992
  endloop
 endfacet
 facet normal -1.00000000 0.00000000 0.00000000
  outer loop
    vertex 25.00000000 -27.75617409 1.99999988
    vertex 25.00000000 -29.97512627 1.99999952
    vertex 25.00000000 -29.97512627 7.34614944
  endloop
 endfacet
 facet normal -1.00000000 0.00000000 0.00000000
  outer loop
    vertex 25.00000000 -27.75617409 1.99999988
    vertex 25.00000000 -29.97512627 7.34614944
    vertex 25.00000000 -27.77648926 7.34614992
  endloop
 endfacet
endsolid solidname
