  0
SECTION
  2
HEADER
  9
$ACADVER
  1
AC1027
  9
$ACADMAINTVER
 70
     8
  9
$DWGCODEPAGE
  3
ANSI_1252
  9
$REQUIREDVERSIONS
160
                 0
  9
$COMMENTS
  1
File was created by SpaceClaim
  9
$INSBASE
 10
0.0
 20
0.0
 30
0.0
  9
$EXTMIN
 10
73.06124356192986
 20
-83.2198641240644
 30
-45.49489729106427
  9
$EXTMAX
 10
176.9387564380703
 20
3.21986412414752
 30
-45.49489729106423
  9
$LIMMIN
 10
0.0
 20
0.0
  9
$LIMMAX
 10
420.0
 20
297.0
  9
$ORTHOMODE
 70
     0
  9
$REGENMODE
 70
     1
  9
$FILLMODE
 70
     1
  9
$QTEXTMODE
 70
     0
  9
$MIRRTEXT
 70
     1
  9
$LTSCALE
 40
1.0
  9
$ATTMODE
 70
     1
  9
$TEXTSIZE
 40
2.5
  9
$TRACEWID
 40
1.0
  9
$TEXTSTYLE
  7
Standard
  9
$CLAYER
  8
0
  9
$CELTYPE
  6
ByLayer
  9
$CECOLOR
 62
   256
  9
$CELTSCALE
 40
1.0
  9
$DISPSILH
 70
     0
  9
$DIMSCALE
 40
1.0
  9
$DIMASZ
 40
2.5
  9
$DIMEXO
 40
0.625
  9
$DIMDLI
 40
3.75
  9
$DIMRND
 40
0.0
  9
$DIMDLE
 40
0.0
  9
$DIMEXE
 40
1.25
  9
$DIMTP
 40
0.0
  9
$DIMTM
 40
0.0
  9
$DIMTXT
 40
2.5
  9
$DIMCEN
 40
2.5
  9
$DIMTSZ
 40
0.0
  9
$DIMTOL
 70
     0
  9
$DIMLIM
 70
     0
  9
$DIMTIH
 70
     1
  9
$DIMTOH
 70
     0
  9
$DIMSE1
 70
     0
  9
$DIMSE2
 70
     0
  9
$DIMTAD
 70
     1
  9
$DIMZIN
 70
     8
  9
$DIMBLK
  1

  9
$DIMASO
 70
     1
  9
$DIMSHO
 70
     1
  9
$DIMPOST
  1
mm
  9
$DIMAPOST
  1

  9
$DIMALT
 70
     0
  9
$DIMALTD
 70
     3
  9
$DIMALTF
 40
0.0393700787401575
  9
$DIMLFAC
 40
1.0
  9
$DIMTOFL
 70
     1
  9
$DIMTVP
 40
0.0
  9
$DIMTIX
 70
     0
  9
$DIMSOXD
 70
     0
  9
$DIMSAH
 70
     0
  9
$DIMBLK1
  1

  9
$DIMBLK2
  1

  9
$DIMSTYLE
  2
ISO-25
  9
$DIMCLRD
 70
     0
  9
$DIMCLRE
 70
     0
  9
$DIMCLRT
 70
     0
  9
$DIMTFAC
 40
1.0
  9
$DIMGAP
 40
0.625
  9
$DIMJUST
 70
     0
  9
$DIMSD1
 70
     0
  9
$DIMSD2
 70
     0
  9
$DIMTOLJ
 70
     0
  9
$DIMTZIN
 70
     8
  9
$DIMALTZ
 70
     0
  9
$DIMALTTZ
 70
     8
  9
$DIMUPT
 70
     0
  9
$DIMDEC
 70
     3
  9
$DIMTDEC
 70
     3
  9
$DIMALTU
 70
     2
  9
$DIMALTTD
 70
     3
  9
$DIMTXSTY
  7
Standard
  9
$DIMAUNIT
 70
     0
  9
$DIMADEC
 70
     1
  9
$DIMALTRND
 40
0.0
  9
$DIMAZIN
 70
     0
  9
$DIMDSEP
 70
    46
  9
$DIMATFIT
 70
     3
  9
$DIMFRAC
 70
     0
  9
$DIMLDRBLK
  1

  9
$DIMLUNIT
 70
     2
  9
$DIMLWD
 70
    -2
  9
$DIMLWE
 70
    -2
  9
$DIMTMOVE
 70
     0
  9
$DIMFXL
 40
1.0
  9
$DIMFXLON
 70
     0
  9
$DIMJOGANG
 40
0.7853981633974483
  9
$DIMTFILL
 70
     0
  9
$DIMTFILLCLR
 70
     0
  9
$DIMARCSYM
 70
     0
  9
$DIMLTYPE
  6

  9
$DIMLTEX1
  6

  9
$DIMLTEX2
  6

  9
$DIMTXTDIRECTION
 70
     0
  9
$LUNITS
 70
     2
  9
$LUPREC
 70
     4
  9
$SKETCHINC
 40
1.0
  9
$FILLETRAD
 40
10.0
  9
$AUNITS
 70
     0
  9
$AUPREC
 70
     0
  9
$MENU
  1
.
  9
$ELEVATION
 40
0.0
  9
$PELEVATION
 40
0.0
  9
$THICKNESS
 40
0.0
  9
$LIMCHECK
 70
     0
  9
$CHAMFERA
 40
0.0
  9
$CHAMFERB
 40
0.0
  9
$CHAMFERC
 40
0.0
  9
$CHAMFERD
 40
0.0
  9
$SKPOLY
 70
     0
  9
$TDCREATE
 40
2458051.938864699
  9
$TDUCREATE
 40
2458052.188864699
  9
$TDUPDATE
 40
2458051.938866123
  9
$TDUUPDATE
 40
2458052.188866123
  9
$TDINDWG
 40
0.0000000116
  9
$TDUSRTIMER
 40
0.0000000116
  9
$USRTIMER
 70
     1
  9
$ANGBASE
 50
0.0
  9
$ANGDIR
 70
     0
  9
$PDMODE
 70
     0
  9
$PDSIZE
 40
0.0
  9
$PLINEWID
 40
0.0
  9
$SPLFRAME
 70
     0
  9
$SPLINETYPE
 70
     6
  9
$SPLINESEGS
 70
     8
  9
$HANDSEED
  5
146
  9
$SURFTAB1
 70
     6
  9
$SURFTAB2
 70
     6
  9
$SURFTYPE
 70
     6
  9
$SURFU
 70
     6
  9
$SURFV
 70
     6
  9
$UCSBASE
  2

  9
$UCSNAME
  2

  9
$UCSORG
 10
0.0
 20
0.0
 30
0.0
  9
$UCSXDIR
 10
1.0
 20
0.0
 30
0.0
  9
$UCSYDIR
 10
0.0
 20
1.0
 30
0.0
  9
$UCSORTHOREF
  2

  9
$UCSORTHOVIEW
 70
     0
  9
$UCSORGTOP
 10
0.0
 20
0.0
 30
0.0
  9
$UCSORGBOTTOM
 10
0.0
 20
0.0
 30
0.0
  9
$UCSORGLEFT
 10
0.0
 20
0.0
 30
0.0
  9
$UCSORGRIGHT
 10
0.0
 20
0.0
 30
0.0
  9
$UCSORGFRONT
 10
0.0
 20
0.0
 30
0.0
  9
$UCSORGBACK
 10
0.0
 20
0.0
 30
0.0
  9
$PUCSBASE
  2

  9
$PUCSNAME
  2

  9
$PUCSORG
 10
0.0
 20
0.0
 30
0.0
  9
$PUCSXDIR
 10
1.0
 20
0.0
 30
0.0
  9
$PUCSYDIR
 10
0.0
 20
1.0
 30
0.0
  9
$PUCSORTHOREF
  2

  9
$PUCSORTHOVIEW
 70
     0
  9
$PUCSORGTOP
 10
0.0
 20
0.0
 30
0.0
  9
$PUCSORGBOTTOM
 10
0.0
 20
0.0
 30
0.0
  9
$PUCSORGLEFT
 10
0.0
 20
0.0
 30
0.0
  9
$PUCSORGRIGHT
 10
0.0
 20
0.0
 30
0.0
  9
$PUCSORGFRONT
 10
0.0
 20
0.0
 30
0.0
  9
$PUCSORGBACK
 10
0.0
 20
0.0
 30
0.0
  9
$USERI1
 70
     0
  9
$USERI2
 70
     0
  9
$USERI3
 70
     0
  9
$USERI4
 70
     0
  9
$USERI5
 70
     0
  9
$USERR1
 40
0.0
  9
$USERR2
 40
0.0
  9
$USERR3
 40
0.0
  9
$USERR4
 40
0.0
  9
$USERR5
 40
0.0
  9
$WORLDVIEW
 70
     1
  9
$SHADEDGE
 70
     3
  9
$SHADEDIF
 70
    70
  9
$TILEMODE
 70
     1
  9
$MAXACTVP
 70
    64
  9
$PINSBASE
 10
0.0
 20
0.0
 30
0.0
  9
$PLIMCHECK
 70
     0
  9
$PEXTMIN
 10
1.000000000000000E+20
 20
1.000000000000000E+20
 30
1.000000000000000E+20
  9
$PEXTMAX
 10
-1.000000000000000E+20
 20
-1.000000000000000E+20
 30
-1.000000000000000E+20
  9
$PLIMMIN
 10
0.0
 20
0.0
  9
$PLIMMAX
 10
420.0
 20
297.0
  9
$UNITMODE
 70
     0
  9
$VISRETAIN
 70
     1
  9
$PLINEGEN
 70
     0
  9
$PSLTSCALE
 70
     1
  9
$TREEDEPTH
 70
  3020
  9
$CMLSTYLE
  2
Standard
  9
$CMLJUST
 70
     0
  9
$CMLSCALE
 40
20.0
  9
$PROXYGRAPHICS
 70
     1
  9
$MEASUREMENT
 70
     1
  9
$CELWEIGHT
370
    -1
  9
$ENDCAPS
280
     0
  9
$JOINSTYLE
280
     0
  9
$LWDISPLAY
290
     0
  9
$INSUNITS
 70
     4
  9
$HYPERLINKBASE
  1

  9
$STYLESHEET
  1

  9
$XEDIT
290
     1
  9
$CEPSNTYPE
380
     0
  9
$PSTYLEMODE
290
     1
  9
$FINGERPRINTGUID
  2
{86ECECE8-8F4C-4DE8-9B1A-F994D6699CAD}
  9
$VERSIONGUID
  2
{FAEB1C32-E019-11D5-929B-00C0DF256EC4}
  9
$EXTNAMES
290
     1
  9
$PSVPSCALE
 40
0.0
  9
$OLESTARTUP
290
     0
  9
$SORTENTS
280
   127
  9
$INDEXCTL
280
     0
  9
$HIDETEXT
280
     1
  9
$XCLIPFRAME
280
     2
  9
$HALOGAP
280
     0
  9
$OBSCOLOR
 70
   257
  9
$OBSLTYPE
280
     0
  9
$INTERSECTIONDISPLAY
280
     0
  9
$INTERSECTIONCOLOR
 70
   257
  9
$DIMASSOC
280
     2
  9
$PROJECTNAME
  1

  9
$CAMERADISPLAY
290
     0
  9
$LENSLENGTH
 40
50.0
  9
$CAMERAHEIGHT
 40
0.0
  9
$STEPSPERSEC
 40
2.0
  9
$STEPSIZE
 40
6.0
  9
$3DDWFPREC
 40
2.0
  9
$PSOLWIDTH
 40
5.0
  9
$PSOLHEIGHT
 40
80.0
  9
$LOFTANG1
 40
1.570796326794897
  9
$LOFTANG2
 40
1.570796326794897
  9
$LOFTMAG1
 40
0.0
  9
$LOFTMAG2
 40
0.0
  9
$LOFTPARAM
 70
     7
  9
$LOFTNORMALS
280
     1
  9
$LATITUDE
 40
37.795
  9
$LONGITUDE
 40
-122.394
  9
$NORTHDIRECTION
 40
0.0
  9
$TIMEZONE
 70
 -8000
  9
$LIGHTGLYPHDISPLAY
280
     1
  9
$TILEMODELIGHTSYNCH
280
     1
  9
$CMATERIAL
347
44
  9
$SOLIDHIST
280
     1
  9
$SHOWHIST
280
     1
  9
$DWFFRAME
280
     2
  9
$DGNFRAME
280
     2
  9
$REALWORLDSCALE
290
     1
  9
$INTERFERECOLOR
 62
   256
  9
$CSHADOW
280
     0
  9
$SHADOWPLANELOCATION
 40
0.0
  0
ENDSEC
  0
SECTION
  2
CLASSES
  0
CLASS
  1
ACDBDICTIONARYWDFLT
  2
AcDbDictionaryWithDefault
  3
ObjectDBX Classes
 90
        0
 91
        4
280
     0
281
     0
  0
CLASS
  1
VISUALSTYLE
  2
AcDbVisualStyle
  3
ObjectDBX Classes
 90
     4095
 91
        4
280
     0
281
     0
  0
CLASS
  1
MATERIAL
  2
AcDbMaterial
  3
ObjectDBX Classes
 90
     1153
 91
        4
280
     0
281
     0
  0
CLASS
  1
SCALE
  2
AcDbScale
  3
ObjectDBX Classes
 90
     1153
 91
        4
280
     0
281
     0
  0
CLASS
  1
SUN
  2
AcDbSun
  3
SCENEOE
 90
     1153
 91
        4
280
     0
281
     0
  0
CLASS
  1
DICTIONARYVAR
  2
AcDbDictionaryVar
  3
ObjectDBX Classes
 90
        0
 91
        4
280
     0
281
     0
  0
ENDSEC
  0
SECTION
  2
TABLES
  0
TABLE
  2
VPORT
  5
8
330
0
100
AcDbSymbolTable
 70
     1
  0
VPORT
  5
29
330
8
100
AcDbSymbolTableRecord
100
AcDbViewportTableRecord
  2
*Active
 70
     0
 10
0.0
 20
0.0
 11
1.0
 21
1.0
 12
125.0000000000001
 22
-39.99999999995844
 13
0.0
 23
0.0
 14
10.0
 24
10.0
 15
10.0
 25
10.0
 16
0.0
 26
0.0
 36
1.0
 17
0.0
 27
0.0
 37
0.0
 40
86.43972824821192
 41
1.201733450362729
 42
50.0
 43
0.0
 44
0.0
 50
0.0
 51
0.0
 71
     0
 72
   100
 73
     1
 74
     3
 75
     0
 76
     0
 77
     0
 78
     0
281
     0
 65
     1
110
0.0
120
0.0
130
0.0
111
1.0
121
0.0
131
0.0
112
0.0
122
1.0
132
0.0
 79
     0
146
0.0
 60
     3
 61
     5
292
     1
282
     1
141
0.0
142
0.0
 63
   250
361
69
  0
ENDTAB
  0
TABLE
  2
LTYPE
  5
5
330
0
100
AcDbSymbolTable
 70
     2
  0
LTYPE
  5
14
330
5
100
AcDbSymbolTableRecord
100
AcDbLinetypeTableRecord
  2
ByBlock
 70
     0
  3

 72
    65
 73
     0
 40
0.0
  0
LTYPE
  5
15
330
5
100
AcDbSymbolTableRecord
100
AcDbLinetypeTableRecord
  2
ByLayer
 70
     0
  3

 72
    65
 73
     0
 40
0.0
  0
LTYPE
  5
16
330
5
100
AcDbSymbolTableRecord
100
AcDbLinetypeTableRecord
  2
Continuous
 70
     0
  3
Solid line
 72
    65
 73
     0
 40
0.0
  0
LTYPE
  5
11F
330
5
100
AcDbSymbolTableRecord
100
AcDbLinetypeTableRecord
  2
HIDDEN
 70
     0
  3
- - - - - - - - - - - - - - - - - - - - -
 72
    65
 73
     2
 40
9.524999999999999
 49
6.35
 74
     0
 49
-3.175
 74
     0
  0
ENDTAB
  0
TABLE
  2
LAYER
  5
2
330
0
100
AcDbSymbolTable
 70
     2
  0
LAYER
  5
10
330
2
100
AcDbSymbolTableRecord
100
AcDbLayerTableRecord
  2
0
 70
     0
 62
   253
420
  9416591
  6
Continuous
370
    70
390
F
347
46
348
0
  0
LAYER
  5
11E
330
2
100
AcDbSymbolTableRecord
100
AcDbLayerTableRecord
  2
Hidden
 70
     0
 62
    38
420
  4728325
  6
HIDDEN
370
    70
390
F
347
46
348
0
  0
ENDTAB
  0
TABLE
  2
STYLE
  5
3
330
0
100
AcDbSymbolTable
 70
     1
  0
STYLE
  5
11
330
3
100
AcDbSymbolTableRecord
100
AcDbTextStyleTableRecord
  2
Standard
 70
     0
 40
0.0
 41
1.0
 50
0.0
 71
     0
 42
2.5
  3
txt
  4

  0
ENDTAB
  0
TABLE
  2
VIEW
  5
6
330
0
100
AcDbSymbolTable
 70
     0
  0
ENDTAB
  0
TABLE
  2
UCS
  5
7
330
0
100
AcDbSymbolTable
 70
     0
  0
ENDTAB
  0
TABLE
  2
APPID
  5
9
330
0
100
AcDbSymbolTable
 70
     1
  0
APPID
  5
12
330
9
100
AcDbSymbolTableRecord
100
AcDbRegAppTableRecord
  2
ACAD
 70
     0
  0
ENDTAB
  0
TABLE
  2
DIMSTYLE
  5
A
330
0
100
AcDbSymbolTable
 70
     1
100
AcDbDimStyleTable
  0
DIMSTYLE
105
27
330
A
100
AcDbSymbolTableRecord
100
AcDbDimStyleTableRecord
  2
ISO-25
 70
     0
 41
2.5
 42
0.625
 43
3.75
 44
1.25
 73
     0
 74
     0
 77
     1
 78
     8
140
2.5
141
2.5
143
0.03937007874016
147
0.625
171
     3
172
     1
178
     0
271
     2
272
     2
274
     3
278
    44
283
     0
284
     8
340
11
  0
ENDTAB
  0
TABLE
  2
BLOCK_RECORD
  5
1
330
0
100
AcDbSymbolTable
 70
     1
  0
BLOCK_RECORD
  5
1F
330
1
100
AcDbSymbolTableRecord
100
AcDbBlockTableRecord
  2
*Model_Space
340
22
 70
     0
280
     1
281
     0
  0
BLOCK_RECORD
  5
1B
330
1
100
AcDbSymbolTableRecord
100
AcDbBlockTableRecord
  2
*Paper_Space
340
1E
 70
     0
280
     1
281
     0
  0
BLOCK_RECORD
  5
23
330
1
100
AcDbSymbolTableRecord
100
AcDbBlockTableRecord
  2
*Paper_Space0
340
26
 70
     0
280
     1
281
     0
  0
ENDTAB
  0
ENDSEC
  0
SECTION
  2
BLOCKS
  0
BLOCK
  5
20
330
1F
100
AcDbEntity
  8
0
100
AcDbBlockBegin
  2
*Model_Space
 70
     0
 10
0.0
 20
0.0
 30
0.0
  3
*Model_Space
  1
*Model_Space
  0
ENDBLK
  5
21
330
1F
100
AcDbEntity
  8
0
100
AcDbBlockEnd
  0
BLOCK
  5
1C
330
1B
100
AcDbEntity
 67
     1
  8
0
100
AcDbBlockBegin
  2
*Paper_Space
 70
     0
 10
0.0
 20
0.0
 30
0.0
  3
*Paper_Space
  1
*Paper_Space
  0
ENDBLK
  5
1D
330
1B
100
AcDbEntity
 67
     1
  8
0
100
AcDbBlockEnd
  0
BLOCK
  5
24
330
23
100
AcDbEntity
  8
0
100
AcDbBlockBegin
  2
*Paper_Space0
 70
     0
 10
0.0
 20
0.0
 30
0.0
  3
*Paper_Space0
  1
*Paper_Space0
  0
ENDBLK
  5
25
330
23
100
AcDbEntity
  8
0
100
AcDbBlockEnd
  0
ENDSEC
  0
SECTION
  2
ENTITIES
  0
LINE
  5
6A
330
1F
100
AcDbEntity
  8
0
 62
    38
420
  4728325
370
    -3
100
AcDbLine
 10
130.5857864376269
 20
1.000000000041567
 30
0.0
 11
131.7071067811866
 21
-0.2928932187719014
 31
0.0
  0
SPLINE
  5
6B
330
1F
100
AcDbEntity
  8
0
 62
    38
420
  4728325
370
    -3
100
AcDbSpline
210
0.0
220
0.0
230
1.0
 70
     8
 71
     3
 72
    12
 73
     8
 74
     0
 42
0.000000001
 43
0.00000001
 40
0.0
 40
0.0
 40
0.0
 40
0.0
 40
0.0000072618165433
 40
0.0000072618165433
 40
0.0003361622587166
 40
0.0003361622587166
 40
0.0006163961793642
 40
0.0006163961793642
 40
0.0006163961793642
 40
0.0006163961793642
 10
107.7232393000509
 20
-1.499999999999867
 30
-0.000000000000001
 10
107.7252157161772
 20
-1.501397537245221
 30
-0.000000000000001
 10
107.7275874082824
 20
-1.503074575417404
 30
-0.000000000000001
 10
107.8190784241248
 20
-1.567767522717263
 30
-0.000000000000001
 10
107.916514541513
 20
-1.636716098326635
 30
-0.0000000000000009
 10
108.0926275012106
 20
-1.757034358281362
 30
-0.0000000000000009
 10
108.1719850931621
 20
-1.809419517432861
 30
-0.0000000000000009
 10
108.2442446833311
 20
-1.853553390593241
 30
-0.0000000000000009
  0
SPLINE
  5
6C
330
1F
100
AcDbEntity
  8
0
 62
    38
420
  4728325
370
    -3
100
AcDbSpline
210
0.0
220
0.0
230
1.0
 70
     8
 71
     3
 72
    10
 73
     6
 74
     0
 42
0.000000001
 43
0.00000001
 40
0.0008642652002124
 40
0.0008642652002124
 40
0.0008642652002124
 40
0.0008642652002124
 40
0.0008917660665815
 40
0.0008917660665815
 40
0.0011184694322731
 40
0.0011184694322731
 40
0.0011184694322731
 40
0.0011184694322731
 10
108.430346081238
 20
-1.955089860562349
 30
-0.0000000000000009
 10
108.4369742375059
 20
-1.958104897973306
 30
-0.0000000000000009
 10
108.443545137813
 20
-1.961006510562754
 30
-0.0000000000000009
 10
108.5035327231158
 20
-1.986580902921859
 30
-0.0000000000000009
 10
108.5514808095534
 20
-1.999999999999855
 30
-0.0000000000000009
 10
108.5892647038353
 20
-1.999999999999855
 30
-0.0000000000000009
  0
SPLINE
  5
6D
330
1F
100
AcDbEntity
  8
0
 62
    38
420
  4728325
370
    -3
100
AcDbSpline
210
0.0
220
0.0
230
1.0
 70
     8
 71
     3
 72
    10
 73
     6
 74
     0
 42
0.000000001
 43
0.00000001
 40
0.0006163961793642
 40
0.0006163961793642
 40
0.0006163961793642
 40
0.0006163961793642
 40
0.0006650627008899
 40
0.0006650627008899
 40
0.0008642652002124
 40
0.0008642652002124
 40
0.0008642652002124
 40
0.0008642652002124
 10
108.2442446833311
 20
-1.853553390593241
 30
-0.0000000000000009
 10
108.2567812305344
 20
-1.861202529051409
 30
-0.0000000000000009
 10
108.269113902139
 20
-1.86861547763525
 30
-0.0000000000000009
 10
108.3306896760992
 20
-1.904960455495198
 30
-0.0000000000000009
 10
108.3822585899684
 20
-1.933189863886637
 30
-0.0000000000000009
 10
108.430346081238
 20
-1.955089860562349
 30
-0.0000000000000009
  0
SPLINE
  5
6E
330
1F
100
AcDbEntity
  8
0
 62
    38
420
  4728325
370
    -3
100
AcDbSpline
210
0.0
220
0.0
230
1.0
 70
     8
 71
     3
 72
    12
 73
     8
 74
     0
 42
0.000000001
 43
0.00000001
 40
0.0031744981557492
 40
0.0031744981557492
 40
0.0031744981557492
 40
0.0031744981557492
 40
0.0034547320763969
 40
0.0034547320763969
 40
0.0037836325185702
 40
0.0037836325185702
 40
0.0037908943351134
 40
0.0037908943351134
 40
0.0037908943351134
 40
0.0037908943351134
 10
115.2022339167708
 20
-1.853553390593124
 30
-0.0000000000000005
 10
115.2744935069398
 20
-1.809419517432756
 30
-0.0000000000000005
 10
115.3538510988912
 20
-1.757034358281252
 30
-0.0000000000000005
 10
115.5299640585889
 20
-1.636716098326528
 30
-0.0000000000000005
 10
115.6274001759774
 20
-1.567767522717642
 30
-0.0000000000000005
 10
115.7188911918194
 20
-1.503074575417238
 30
-0.0000000000000005
 10
115.7212628839247
 20
-1.501397537245104
 30
-0.0000000000000005
 10
115.7232393000509
 20
-1.499999999999756
 30
-0.0000000000000005
  0
SPLINE
  5
6F
330
1F
100
AcDbEntity
  8
0
 62
    38
420
  4728325
370
    -3
100
AcDbSpline
210
0.0
220
0.0
230
1.0
 70
     8
 71
     3
 72
    10
 73
     6
 74
     0
 42
0.000000001
 43
0.00000001
 40
0.0026724249028404
 40
0.0026724249028404
 40
0.0026724249028404
 40
0.0026724249028404
 40
0.002899128268532
 40
0.002899128268532
 40
0.002926629134901
 40
0.002926629134901
 40
0.002926629134901
 40
0.002926629134901
 10
114.8572138962665
 20
-1.999999999999768
 30
-0.0000000000000006
 10
114.8949977905484
 20
-1.999999999999766
 30
-0.0000000000000006
 10
114.942945876986
 20
-1.98658090292177
 30
-0.0000000000000006
 10
115.0029334622888
 20
-1.961006510562662
 30
-0.0000000000000006
 10
115.0095043625959
 20
-1.958104897973215
 30
-0.0000000000000006
 10
115.0161325188638
 20
-1.955089860562267
 30
-0.0000000000000006
  0
SPLINE
  5
70
330
1F
100
AcDbEntity
  8
0
 62
    38
420
  4728325
370
    -3
100
AcDbSpline
210
0.0
220
0.0
230
1.0
 70
     8
 71
     3
 72
    10
 73
     6
 74
     0
 42
0.000000001
 43
0.00000001
 40
0.002926629134901
 40
0.002926629134901
 40
0.002926629134901
 40
0.002926629134901
 40
0.0031258316342236
 40
0.0031258316342236
 40
0.0031744981557492
 40
0.0031744981557492
 40
0.0031744981557492
 40
0.0031744981557492
 10
115.0161325188638
 20
-1.955089860562267
 30
-0.0000000000000006
 10
115.0642200101334
 20
-1.933189863886544
 30
-0.0000000000000005
 10
115.1157889240026
 20
-1.904960455495106
 30
-0.0000000000000005
 10
115.1773646979628
 20
-1.868615477635152
 30
-0.0000000000000005
 10
115.1896973695675
 20
-1.861202529051309
 30
-0.0000000000000005
 10
115.2022339167708
 20
-1.853553390593124
 30
-0.0000000000000005
  0
LINE
  5
71
330
1F
100
AcDbEntity
  8
0
 62
    38
420
  4728325
370
    -3
100
AcDbLine
 10
115.7232393000509
 20
-1.499999999999755
 30
0.0
 11
107.7232393000509
 21
-1.499999999999866
 31
0.0
  0
SPLINE
  5
72
330
1F
100
AcDbEntity
  8
0
 62
    38
420
  4728325
370
    -3
100
AcDbSpline
210
0.0
220
0.0
230
1.0
 70
     8
 71
     3
 72
    10
 73
     6
 74
     0
 42
0.000000001
 43
0.00000001
 40
0.0
 40
0.0
 40
0.0
 40
0.0
 40
0.0000072618165425
 40
0.0000072618165425
 40
0.0006172721834316
 40
0.0006172721834316
 40
0.0006172721834316
 40
0.0006172721834316
 10
115.723239300051
 20
-4.999999999999759
 30
-0.0000000000000005
 10
115.7212628839249
 20
-4.998602462754545
 30
-0.0000000000000005
 10
115.7188911918205
 20
-4.996925424581693
 30
-0.0000000000000005
 10
115.5508923827542
 20
-4.878134109401984
 30
-0.0000000000000005
 10
115.3561548149182
 20
-4.740399275306229
 30
-0.0000000000000005
 10
115.202233916771
 20
-4.64644660940649
 30
-0.0000000000000005
  0
SPLINE
  5
73
330
1F
100
AcDbEntity
  8
0
 62
    38
420
  4728325
370
    -3
100
AcDbSpline
210
0.0
220
0.0
230
1.0
 70
     8
 71
     3
 72
    10
 73
     6
 74
     0
 42
0.000000001
 43
0.00000001
 40
0.0008631484378902
 40
0.0008631484378902
 40
0.0008631484378902
 40
0.0008631484378902
 40
0.0008680823718493
 40
0.0008680823718493
 40
0.001118892560267
 40
0.001118892560267
 40
0.001118892560267
 40
0.001118892560267
 10
115.0161325754945
 20
-4.544910165209286
 30
-0.0000000000000005
 10
115.014947917537
 20
-4.544371067536695
 30
-0.0000000000000005
 10
115.0137652926908
 20
-4.543835712626549
 30
-0.0000000000000005
 10
114.9525934239113
 20
-4.516296853005449
 30
-0.0000000000000005
 10
114.8990155943362
 20
-4.499999999999769
 30
-0.0000000000000005
 10
114.8572138962665
 20
-4.499999999999772
 30
-0.0000000000000005
  0
SPLINE
  5
74
330
1F
100
AcDbEntity
  8
0
 62
    38
420
  4728325
370
    -3
100
AcDbSpline
210
0.0
220
0.0
230
1.0
 70
     8
 71
     3
 72
     8
 73
     4
 74
     0
 42
0.000000001
 43
0.00000001
 40
0.0006172721834316
 40
0.0006172721834316
 40
0.0006172721834316
 40
0.0006172721834316
 40
0.0008631484378902
 40
0.0008631484378902
 40
0.0008631484378902
 40
0.0008631484378902
 10
115.202233916771
 20
-4.64644660940649
 30
-0.0000000000000005
 10
115.1401931778368
 20
-4.608577204488611
 30
-0.0000000000000005
 10
115.0751869685062
 20
-4.571788029755002
 30
-0.0000000000000005
 10
115.0161325754945
 20
-4.544910165209286
 30
-0.0000000000000005
  0
SPLINE
  5
75
330
1F
100
AcDbEntity
  8
0
 62
    38
420
  4728325
370
    -3
100
AcDbSpline
210
0.0
220
0.0
230
1.0
 70
     8
 71
     3
 72
    10
 73
     6
 74
     0
 42
0.000000001
 43
0.00000001
 40
0.0031736221516819
 40
0.0031736221516819
 40
0.0031736221516819
 40
0.0031736221516819
 40
0.003783632518571
 40
0.003783632518571
 40
0.0037908943351135
 40
0.0037908943351135
 40
0.0037908943351135
 40
0.0037908943351135
 10
108.2442446833309
 20
-4.646446609406587
 30
-0.0000000000000009
 10
108.0903237851837
 20
-4.740399275306338
 30
-0.0000000000000009
 10
107.8955862173473
 20
-4.878134109401441
 30
-0.0000000000000009
 10
107.7275874082814
 20
-4.996925424581855
 30
-0.0000000000000009
 10
107.725215716177
 20
-4.998602462754663
 30
-0.0000000000000009
 10
107.7232393000509
 20
-4.99999999999987
 30
-0.0000000000000009
  0
SPLINE
  5
76
330
1F
100
AcDbEntity
  8
0
 62
    38
420
  4728325
370
    -3
100
AcDbSpline
210
0.0
220
0.0
230
1.0
 70
     8
 71
     3
 72
    10
 73
     6
 74
     0
 42
0.000000001
 43
0.00000001
 40
0.0026720017748465
 40
0.0026720017748465
 40
0.0026720017748465
 40
0.0026720017748465
 40
0.0029228119632642
 40
0.0029228119632642
 40
0.0029277458972234
 40
0.0029277458972234
 40
0.0029277458972234
 40
0.0029277458972234
 10
108.5892647038354
 20
-4.499999999999859
 30
-0.0000000000000009
 10
108.5474630057658
 20
-4.499999999999857
 30
-0.0000000000000009
 10
108.4938851761906
 20
-4.516296853005531
 30
-0.0000000000000009
 10
108.4327133074111
 20
-4.543835712626636
 30
-0.0000000000000009
 10
108.431530682565
 20
-4.544371067536783
 30
-0.0000000000000009
 10
108.4303460246075
 20
-4.544910165209375
 30
-0.0000000000000009
  0
SPLINE
  5
77
330
1F
100
AcDbEntity
  8
0
 62
    38
420
  4728325
370
    -3
100
AcDbSpline
210
0.0
220
0.0
230
1.0
 70
     8
 71
     3
 72
     8
 73
     4
 74
     0
 42
0.000000001
 43
0.00000001
 40
0.0029277458972234
 40
0.0029277458972234
 40
0.0029277458972234
 40
0.0029277458972234
 40
0.0031736221516819
 40
0.0031736221516819
 40
0.0031736221516819
 40
0.0031736221516819
 10
108.4303460246075
 20
-4.544910165209375
 30
-0.0000000000000009
 10
108.3712916315957
 20
-4.571788029755093
 30
-0.0000000000000009
 10
108.3062854222652
 20
-4.608577204488712
 30
-0.0000000000000009
 10
108.2442446833309
 20
-4.646446609406587
 30
-0.0000000000000009
  0
LINE
  5
78
330
1F
100
AcDbEntity
  8
0
 62
    38
420
  4728325
370
    -3
100
AcDbLine
 10
115.723239300051
 20
-4.999999999999758
 30
0.0
 11
107.7232393000509
 21
-4.999999999999869
 31
0.0
  0
SPLINE
  5
79
330
1F
100
AcDbEntity
  8
0
 62
    38
420
  4728325
370
    -3
100
AcDbSpline
210
0.0
220
0.0
230
1.0
 70
     8
 71
     3
 72
    12
 73
     8
 74
     0
 42
0.000000001
 43
0.00000001
 40
0.0
 40
0.0
 40
0.0
 40
0.0
 40
0.0000072618165417
 40
0.0000072618165417
 40
0.0003361622587158
 40
0.0003361622587158
 40
0.0006163961793643
 40
0.0006163961793643
 40
0.0006163961793643
 40
0.0006163961793643
 10
142.2767606997406
 20
-4.99999999999971
 30
0.000000000000001
 10
142.2747842836148
 20
-4.99860246275465
 30
0.000000000000001
 10
142.2724125915112
 20
-4.996925424581224
 30
0.000000000000001
 10
142.1809215756565
 20
-4.932232477299102
 30
0.000000000000001
 10
142.0834854582792
 20
-4.863283901673332
 30
0.000000000000001
 10
141.9073724985812
 20
-4.742965641718389
 30
0.000000000000001
 10
141.8280149066296
 20
-4.690580482566824
 30
0.000000000000001
 10
141.7557553164605
 20
-4.646446609406355
 30
0.000000000000001
  0
SPLINE
  5
7A
330
1F
100
AcDbEntity
  8
0
 62
    38
420
  4728325
370
    -3
100
AcDbSpline
210
0.0
220
0.0
230
1.0
 70
     8
 71
     3
 72
    10
 73
     6
 74
     0
 42
0.000000001
 43
0.00000001
 40
0.0008642652002126
 40
0.0008642652002126
 40
0.0008642652002126
 40
0.0008642652002126
 40
0.0008917660665815
 40
0.0008917660665815
 40
0.0011184694322731
 40
0.0011184694322731
 40
0.0011184694322731
 40
0.0011184694322731
 10
141.5696539185535
 20
-4.544910139437207
 30
0.000000000000001
 10
141.5630257622856
 20
-4.541895102026268
 30
0.000000000000001
 10
141.5564548619785
 20
-4.538993489436825
 30
0.000000000000001
 10
141.4964672766757
 20
-4.513419097077724
 30
0.000000000000001
 10
141.4485191902381
 20
-4.499999999999717
 30
0.0000000000000009
 10
141.4107352959562
 20
-4.49999999999972
 30
0.0000000000000009
  0
SPLINE
  5
7B
330
1F
100
AcDbEntity
  8
0
 62
    38
420
  4728325
370
    -3
100
AcDbSpline
210
0.0
220
0.0
230
1.0
 70
     8
 71
     3
 72
    10
 73
     6
 74
     0
 42
0.000000001
 43
0.00000001
 40
0.0006163961793643
 40
0.0006163961793643
 40
0.0006163961793643
 40
0.0006163961793643
 40
0.0006650627008899
 40
0.0006650627008899
 40
0.0008642652002126
 40
0.0008642652002126
 40
0.0008642652002126
 40
0.0008642652002126
 10
141.7557553164605
 20
-4.646446609406355
 30
0.000000000000001
 10
141.7432187692572
 20
-4.638797470948179
 30
0.000000000000001
 10
141.7308860976525
 20
-4.631384522364334
 30
0.000000000000001
 10
141.6693103236923
 20
-4.595039544504372
 30
0.000000000000001
 10
141.6177414098231
 20
-4.56681013611293
 30
0.000000000000001
 10
141.5696539185535
 20
-4.544910139437207
 30
0.000000000000001
  0
SPLINE
  5
7C
330
1F
100
AcDbEntity
  8
0
 62
    38
420
  4728325
370
    -3
100
AcDbSpline
210
0.0
220
0.0
230
1.0
 70
     8
 71
     3
 72
    12
 73
     8
 74
     0
 42
0.000000001
 43
0.00000001
 40
0.0031740750277554
 40
0.0031740750277554
 40
0.0031740750277554
 40
0.0031740750277554
 40
0.0034543089484039
 40
0.0034543089484039
 40
0.003783209390578
 40
0.003783209390578
 40
0.0037904712071197
 40
0.0037904712071197
 40
0.0037904712071197
 40
0.0037904712071197
 10
134.7977660830207
 20
-4.646446609406431
 30
0.0000000000000006
 10
134.7255064928516
 20
-4.690580482566898
 30
0.0000000000000006
 10
134.6461489009
 20
-4.742965641718473
 30
0.0000000000000006
 10
134.470035941202
 20
-4.863283901673453
 30
0.0000000000000006
 10
134.3725998238243
 20
-4.932232477298669
 30
0.0000000000000006
 10
134.28110880797
 20
-4.996925424581395
 30
0.0000000000000006
 10
134.2787371158664
 20
-4.998602462754766
 30
0.0000000000000006
 10
134.2767606997406
 20
-4.999999999999821
 30
0.0000000000000006
  0
SPLINE
  5
7D
330
1F
100
AcDbEntity
  8
0
 62
    38
420
  4728325
370
    -3
100
AcDbSpline
210
0.0
220
0.0
230
1.0
 70
     8
 71
     3
 72
    10
 73
     6
 74
     0
 42
0.000000001
 43
0.00000001
 40
0.0026720017748465
 40
0.0026720017748465
 40
0.0026720017748465
 40
0.0026720017748465
 40
0.0028987051405381
 40
0.0028987051405381
 40
0.0029262060069072
 40
0.0029262060069072
 40
0.0029262060069072
 40
0.0029262060069072
 10
135.142786103525
 20
-4.499999999999808
 30
0.0000000000000006
 10
135.1050022092431
 20
-4.49999999999981
 30
0.0000000000000006
 10
135.0570541228055
 20
-4.513419097077809
 30
0.0000000000000006
 10
134.9970665375027
 20
-4.538993489436917
 30
0.0000000000000006
 10
134.9904956371955
 20
-4.541895102026365
 30
0.0000000000000006
 10
134.9838674809277
 20
-4.544910139437323
 30
0.0000000000000006
  0
SPLINE
  5
7E
330
1F
100
AcDbEntity
  8
0
 62
    38
420
  4728325
370
    -3
100
AcDbSpline
210
0.0
220
0.0
230
1.0
 70
     8
 71
     3
 72
    10
 73
     6
 74
     0
 42
0.000000001
 43
0.00000001
 40
0.0029262060069072
 40
0.0029262060069072
 40
0.0029262060069072
 40
0.0029262060069072
 40
0.0031254085062297
 40
0.0031254085062297
 40
0.0031740750277554
 40
0.0031740750277554
 40
0.0031740750277554
 40
0.0031740750277554
 10
134.9838674809277
 20
-4.544910139437323
 30
0.0000000000000006
 10
134.9357799896581
 20
-4.566810136113034
 30
0.0000000000000006
 10
134.8842110757889
 20
-4.595039544504473
 30
0.0000000000000006
 10
134.8226353018287
 20
-4.631384522364423
 30
0.0000000000000006
 10
134.810302630224
 20
-4.638797470948257
 30
0.0000000000000006
 10
134.7977660830207
 20
-4.646446609406432
 30
0.0000000000000006
  0
LINE
  5
7F
330
1F
100
AcDbEntity
  8
0
 62
    38
420
  4728325
370
    -3
100
AcDbLine
 10
134.2767606997406
 20
-4.999999999999822
 30
0.0
 11
142.2767606997406
 21
-4.999999999999711
 31
0.0
  0
SPLINE
  5
80
330
1F
100
AcDbEntity
  8
0
 62
    38
420
  4728325
370
    -3
100
AcDbSpline
210
0.0
220
0.0
230
1.0
 70
     8
 71
     3
 72
    12
 73
     8
 74
     0
 42
0.000000001
 43
0.00000001
 40
0.0
 40
0.0
 40
0.0
 40
0.0
 40
0.0000072618165424
 40
0.0000072618165424
 40
0.0003361622587161
 40
0.0003361622587161
 40
0.0006163961793643
 40
0.0006163961793643
 40
0.0006163961793643
 40
0.0006163961793643
 10
134.2767606997405
 20
-1.499999999999817
 30
0.0000000000000005
 10
134.2787371158666
 20
-1.501397537244999
 30
0.0000000000000005
 10
134.2811088079711
 20
-1.503074575417589
 30
0.0000000000000005
 10
134.3725998238181
 20
-1.56776752271061
 30
0.0000000000000005
 10
134.4700359412022
 20
-1.636716098326318
 30
0.0000000000000005
 10
134.6461489009
 20
-1.757034358281176
 30
0.0000000000000005
 10
134.7255064928516
 20
-1.809419517432751
 30
0.0000000000000005
 10
134.7977660830207
 20
-1.85355339059319
 30
0.0000000000000005
  0
SPLINE
  5
81
330
1F
100
AcDbEntity
  8
0
 62
    38
420
  4728325
370
    -3
100
AcDbSpline
210
0.0
220
0.0
230
1.0
 70
     8
 71
     3
 72
    10
 73
     6
 74
     0
 42
0.000000001
 43
0.00000001
 40
0.0008642652002125
 40
0.0008642652002125
 40
0.0008642652002125
 40
0.0008642652002125
 40
0.0008917660665815
 40
0.0008917660665815
 40
0.0011184694322731
 40
0.0011184694322731
 40
0.0011184694322731
 40
0.0011184694322731
 10
134.9838674809277
 20
-1.95508986056231
 30
0.0000000000000006
 10
134.9904956371955
 20
-1.95810489797326
 30
0.0000000000000006
 10
134.9970665375027
 20
-1.961006510562701
 30
0.0000000000000006
 10
135.0570541228054
 20
-1.9865809029218
 30
0.0000000000000006
 10
135.105002209243
 20
-1.999999999999804
 30
0.0000000000000006
 10
135.1427861035249
 20
-1.999999999999805
 30
0.0000000000000006
  0
SPLINE
  5
82
330
1F
100
AcDbEntity
  8
0
 62
    38
420
  4728325
370
    -3
100
AcDbSpline
210
0.0
220
0.0
230
1.0
 70
     8
 71
     3
 72
    10
 73
     6
 74
     0
 42
0.000000001
 43
0.00000001
 40
0.0006163961793643
 40
0.0006163961793643
 40
0.0006163961793643
 40
0.0006163961793643
 40
0.0006650627008899
 40
0.0006650627008899
 40
0.0008642652002125
 40
0.0008642652002125
 40
0.0008642652002125
 40
0.0008642652002125
 10
134.7977660830207
 20
-1.85355339059319
 30
0.0000000000000005
 10
134.810302630224
 20
-1.861202529051364
 30
0.0000000000000005
 10
134.8226353018287
 20
-1.868615477635205
 30
0.0000000000000005
 10
134.8842110757888
 20
-1.904960455495162
 30
0.0000000000000005
 10
134.9357799896581
 20
-1.933189863886599
 30
0.0000000000000005
 10
134.9838674809277
 20
-1.95508986056231
 30
0.0000000000000006
  0
SPLINE
  5
83
330
1F
100
AcDbEntity
  8
0
 62
    38
420
  4728325
370
    -3
100
AcDbSpline
210
0.0
220
0.0
230
1.0
 70
     8
 71
     3
 72
    12
 73
     8
 74
     0
 42
0.000000001
 43
0.00000001
 40
0.0031744981557493
 40
0.0031744981557493
 40
0.0031744981557493
 40
0.0031744981557493
 40
0.0034547320763974
 40
0.0034547320763974
 40
0.0037836325185712
 40
0.0037836325185712
 40
0.0037908943351135
 40
0.0037908943351135
 40
0.0037908943351135
 40
0.0037908943351135
 10
141.7557553164604
 20
-1.853553390593114
 30
0.0000000000000009
 10
141.8280149066294
 20
-1.809419517432655
 30
0.0000000000000009
 10
141.9073724985811
 20
-1.757034358281086
 30
0.0000000000000009
 10
142.0834854582789
 20
-1.636716098326207
 30
0.0000000000000009
 10
142.1809215756633
 20
-1.567767522710932
 30
0.0000000000000009
 10
142.27241259151
 20
-1.50307457541743
 30
0.0000000000000009
 10
142.2747842836145
 20
-1.501397537244883
 30
0.0000000000000009
 10
142.2767606997406
 20
-1.499999999999706
 30
0.0000000000000009
  0
SPLINE
  5
84
330
1F
100
AcDbEntity
  8
0
 62
    38
420
  4728325
370
    -3
100
AcDbSpline
210
0.0
220
0.0
230
1.0
 70
     8
 71
     3
 72
    10
 73
     6
 74
     0
 42
0.000000001
 43
0.00000001
 40
0.0026724249028404
 40
0.0026724249028404
 40
0.0026724249028404
 40
0.0026724249028404
 40
0.002899128268532
 40
0.002899128268532
 40
0.002926629134901
 40
0.002926629134901
 40
0.002926629134901
 40
0.002926629134901
 10
141.4107352959561
 20
-1.999999999999719
 30
0.0000000000000009
 10
141.4485191902381
 20
-1.999999999999716
 30
0.0000000000000009
 10
141.4964672766757
 20
-1.986580902921715
 30
0.0000000000000009
 10
141.5564548619784
 20
-1.961006510562609
 30
0.0000000000000009
 10
141.5630257622856
 20
-1.958104897973162
 30
0.0000000000000009
 10
141.5696539185534
 20
-1.955089860562211
 30
0.0000000000000009
  0
SPLINE
  5
85
330
1F
100
AcDbEntity
  8
0
 62
    38
420
  4728325
370
    -3
100
AcDbSpline
210
0.0
220
0.0
230
1.0
 70
     8
 71
     3
 72
    10
 73
     6
 74
     0
 42
0.000000001
 43
0.00000001
 40
0.002926629134901
 40
0.002926629134901
 40
0.002926629134901
 40
0.002926629134901
 40
0.0031258316342236
 40
0.0031258316342236
 40
0.0031744981557493
 40
0.0031744981557493
 40
0.0031744981557493
 40
0.0031744981557493
 10
141.5696539185534
 20
-1.955089860562211
 30
0.0000000000000009
 10
141.617741409823
 20
-1.933189863886495
 30
0.0000000000000009
 10
141.6693103236923
 20
-1.904960455495062
 30
0.0000000000000009
 10
141.7308860976524
 20
-1.86861547763511
 30
0.0000000000000009
 10
141.7432187692571
 20
-1.861202529051269
 30
0.0000000000000009
 10
141.7557553164604
 20
-1.853553390593112
 30
0.0000000000000009
  0
LINE
  5
86
330
1F
100
AcDbEntity
  8
0
 62
    38
420
  4728325
370
    -3
100
AcDbLine
 10
134.2767606997405
 20
-1.499999999999819
 30
0.0
 11
142.2767606997405
 21
-1.499999999999708
 31
0.0
  0
SPLINE
  5
87
330
1F
100
AcDbEntity
  8
0
 62
    38
420
  4728325
370
    -3
100
AcDbSpline
210
0.0
220
0.0
230
1.0
 70
     8
 71
     3
 72
    10
 73
     6
 74
     0
 42
0.000000001
 43
0.00000001
 40
0.0
 40
0.0
 40
0.0
 40
0.0
 40
0.0000072618165417
 40
0.0000072618165417
 40
0.0006172721834316
 40
0.0006172721834316
 40
0.0006172721834316
 40
0.0006172721834316
 10
115.7232393002598
 20
-78.99999999999974
 30
0.0000000000000006
 10
115.7212628841339
 20
-78.99860246275469
 30
0.0000000000000006
 10
115.7188911920303
 20
-78.99692542458133
 30
0.0000000000000006
 10
115.5508923829541
 20
-78.87813410941556
 30
0.0000000000000006
 10
115.3561548151273
 20
-78.74039927530633
 30
0.0000000000000006
 10
115.2022339169798
 20
-78.64644660940647
 30
0.0000000000000006
  0
SPLINE
  5
88
330
1F
100
AcDbEntity
  8
0
 62
    38
420
  4728325
370
    -3
100
AcDbSpline
210
0.0
220
0.0
230
1.0
 70
     8
 71
     3
 72
    10
 73
     6
 74
     0
 42
0.000000001
 43
0.00000001
 40
0.0008631484378902
 40
0.0008631484378902
 40
0.0008631484378902
 40
0.0008631484378902
 40
0.0008680823718493
 40
0.0008680823718493
 40
0.0011188925602671
 40
0.0011188925602671
 40
0.0011188925602671
 40
0.0011188925602671
 10
115.0161325757032
 20
-78.54491016520926
 30
0.0000000000000006
 10
115.0149479177458
 20
-78.54437106753664
 30
0.0000000000000006
 10
115.0137652928996
 20
-78.5438357126265
 30
0.0000000000000006
 10
114.9525934241201
 20
-78.51629685300541
 30
0.0000000000000006
 10
114.899015594545
 20
-78.49999999999974
 30
0.0000000000000006
 10
114.8572138964754
 20
-78.49999999999974
 30
0.0000000000000006
  0
SPLINE
  5
89
330
1F
100
AcDbEntity
  8
0
 62
    38
420
  4728325
370
    -3
100
AcDbSpline
210
0.0
220
0.0
230
1.0
 70
     8
 71
     3
 72
     8
 73
     4
 74
     0
 42
0.000000001
 43
0.00000001
 40
0.0006172721834316
 40
0.0006172721834316
 40
0.0006172721834316
 40
0.0006172721834316
 40
0.0008631484378902
 40
0.0008631484378902
 40
0.0008631484378902
 40
0.0008631484378902
 10
115.2022339169798
 20
-78.64644660940647
 30
0.0000000000000006
 10
115.1401931780456
 20
-78.60857720448858
 30
0.0000000000000006
 10
115.075186968715
 20
-78.57178802975497
 30
0.0000000000000006
 10
115.0161325757032
 20
-78.54491016520926
 30
0.0000000000000006
  0
SPLINE
  5
8A
330
1F
100
AcDbEntity
  8
0
 62
    38
420
  4728325
370
    -3
100
AcDbSpline
210
0.0
220
0.0
230
1.0
 70
     8
 71
     3
 72
    10
 73
     6
 74
     0
 42
0.000000001
 43
0.00000001
 40
0.003173622151682
 40
0.003173622151682
 40
0.003173622151682
 40
0.003173622151682
 40
0.0037836325185719
 40
0.0037836325185719
 40
0.0037908943351136
 40
0.0037908943351136
 40
0.0037908943351136
 40
0.0037908943351136
 10
108.2442446835397
 20
-78.64644660940655
 30
0.0000000000000002
 10
108.0903237853923
 20
-78.74039927530643
 30
0.0000000000000002
 10
107.8955862175647
 20
-78.87813410941466
 30
0.0000000000000002
 10
107.7275874084893
 20
-78.99692542458152
 30
0.0000000000000002
 10
107.7252157163856
 20
-78.9986024627548
 30
0.0000000000000002
 10
107.7232393002598
 20
-78.99999999999984
 30
0.0000000000000002
  0
SPLINE
  5
8B
330
1F
100
AcDbEntity
  8
0
 62
    38
420
  4728325
370
    -3
100
AcDbSpline
210
0.0
220
0.0
230
1.0
 70
     8
 71
     3
 72
    10
 73
     6
 74
     0
 42
0.000000001
 43
0.00000001
 40
0.0026720017748465
 40
0.0026720017748465
 40
0.0026720017748465
 40
0.0026720017748465
 40
0.0029228119632642
 40
0.0029228119632642
 40
0.0029277458972234
 40
0.0029277458972234
 40
0.0029277458972234
 40
0.0029277458972234
 10
108.5892647040442
 20
-78.49999999999983
 30
0.0000000000000002
 10
108.5474630059745
 20
-78.49999999999983
 30
0.0000000000000002
 10
108.4938851763994
 20
-78.5162968530055
 30
0.0000000000000002
 10
108.4327133076199
 20
-78.5438357126266
 30
0.0000000000000002
 10
108.4315306827738
 20
-78.54437106753674
 30
0.0000000000000002
 10
108.4303460248163
 20
-78.54491016520934
 30
0.0000000000000002
  0
SPLINE
  5
8C
330
1F
100
AcDbEntity
  8
0
 62
    38
420
  4728325
370
    -3
100
AcDbSpline
210
0.0
220
0.0
230
1.0
 70
     8
 71
     3
 72
     8
 73
     4
 74
     0
 42
0.000000001
 43
0.00000001
 40
0.0029277458972234
 40
0.0029277458972234
 40
0.0029277458972234
 40
0.0029277458972234
 40
0.003173622151682
 40
0.003173622151682
 40
0.003173622151682
 40
0.003173622151682
 10
108.4303460248163
 20
-78.54491016520934
 30
0.0000000000000002
 10
108.3712916318045
 20
-78.57178802975507
 30
0.0000000000000002
 10
108.306285422474
 20
-78.60857720448867
 30
0.0000000000000002
 10
108.2442446835397
 20
-78.64644660940655
 30
0.0000000000000002
  0
LINE
  5
8D
330
1F
100
AcDbEntity
  8
0
 62
    38
420
  4728325
370
    -3
100
AcDbLine
 10
107.7232393002598
 20
-78.99999999999984
 30
0.0
 11
115.7232393002598
 21
-78.99999999999974
 31
0.0
  0
SPLINE
  5
8E
330
1F
100
AcDbEntity
  8
0
 62
    38
420
  4728325
370
    -3
100
AcDbSpline
210
0.0
220
0.0
230
1.0
 70
     8
 71
     3
 72
    12
 73
     8
 74
     0
 42
0.000000001
 43
0.00000001
 40
0.0
 40
0.0
 40
0.0
 40
0.0
 40
0.0000072618165424
 40
0.0000072618165424
 40
0.0003361622587162
 40
0.0003361622587162
 40
0.0006163961793643
 40
0.0006163961793643
 40
0.0006163961793643
 40
0.0006163961793643
 10
107.7232393002597
 20
-75.49999999999984
 30
0.0000000000000001
 10
107.7252157163858
 20
-75.50139753724504
 30
0.0000000000000001
 10
107.7275874084902
 20
-75.5030745754177
 30
0.0000000000000001
 10
107.8190784243378
 20
-75.56776752271006
 30
0.0000000000000001
 10
107.9165145417214
 20
-75.63671609832637
 30
0.0000000000000001
 10
108.0926275014193
 20
-75.75703435828125
 30
0.0000000000000002
 10
108.1719850933708
 20
-75.80941951743279
 30
0.0000000000000002
 10
108.2442446835399
 20
-75.8535533905932
 30
0.0000000000000002
  0
SPLINE
  5
8F
330
1F
100
AcDbEntity
  8
0
 62
    38
420
  4728325
370
    -3
100
AcDbSpline
210
0.0
220
0.0
230
1.0
 70
     8
 71
     3
 72
    10
 73
     6
 74
     0
 42
0.000000001
 43
0.00000001
 40
0.0008642652002125
 40
0.0008642652002125
 40
0.0008642652002125
 40
0.0008642652002125
 40
0.0008917660665815
 40
0.0008917660665815
 40
0.0011184694322731
 40
0.0011184694322731
 40
0.0011184694322731
 40
0.0011184694322731
 10
108.4303460814469
 20
-75.95508986056234
 30
0.0000000000000002
 10
108.4369742377147
 20
-75.95810489797329
 30
0.0000000000000002
 10
108.4435451380219
 20
-75.96100651056273
 30
0.0000000000000002
 10
108.5035327233247
 20
-75.98658090292182
 30
0.0000000000000002
 10
108.5514808097622
 20
-75.99999999999983
 30
0.0000000000000002
 10
108.5892647040441
 20
-75.99999999999983
 30
0.0000000000000002
  0
SPLINE
  5
90
330
1F
100
AcDbEntity
  8
0
 62
    38
420
  4728325
370
    -3
100
AcDbSpline
210
0.0
220
0.0
230
1.0
 70
     8
 71
     3
 72
    10
 73
     6
 74
     0
 42
0.000000001
 43
0.00000001
 40
0.0006163961793643
 40
0.0006163961793643
 40
0.0006163961793643
 40
0.0006163961793643
 40
0.0006650627008899
 40
0.0006650627008899
 40
0.0008642652002125
 40
0.0008642652002125
 40
0.0008642652002125
 40
0.0008642652002125
 10
108.2442446835399
 20
-75.8535533905932
 30
0.0000000000000002
 10
108.2567812307432
 20
-75.86120252905137
 30
0.0000000000000002
 10
108.2691139023479
 20
-75.8686154776352
 30
0.0000000000000002
 10
108.330689676308
 20
-75.90496045549517
 30
0.0000000000000002
 10
108.3822585901773
 20
-75.9331898638866
 30
0.0000000000000002
 10
108.4303460814469
 20
-75.95508986056234
 30
0.0000000000000002
  0
SPLINE
  5
91
330
1F
100
AcDbEntity
  8
0
 62
    38
420
  4728325
370
    -3
100
AcDbSpline
210
0.0
220
0.0
230
1.0
 70
     8
 71
     3
 72
    12
 73
     8
 74
     0
 42
0.000000001
 43
0.00000001
 40
0.0031744981557492
 40
0.0031744981557492
 40
0.0031744981557492
 40
0.0031744981557492
 40
0.0034547320763974
 40
0.0034547320763974
 40
0.0037836325185711
 40
0.0037836325185711
 40
0.0037908943351135
 40
0.0037908943351135
 40
0.0037908943351135
 40
0.0037908943351135
 10
115.2022339169796
 20
-75.85355339059312
 30
0.0000000000000005
 10
115.2744935071487
 20
-75.80941951743269
 30
0.0000000000000006
 10
115.3538510991002
 20
-75.75703435828112
 30
0.0000000000000006
 10
115.5299640587981
 20
-75.63671609832625
 30
0.0000000000000006
 10
115.6274001761819
 20
-75.56776752271024
 30
0.0000000000000006
 10
115.7188911920292
 20
-75.50307457541756
 30
0.0000000000000006
 10
115.7212628841337
 20
-75.50139753724493
 30
0.0000000000000006
 10
115.7232393002597
 20
-75.49999999999973
 30
0.0000000000000006
  0
SPLINE
  5
92
330
1F
100
AcDbEntity
  8
0
 62
    38
420
  4728325
370
    -3
100
AcDbSpline
210
0.0
220
0.0
230
1.0
 70
     8
 71
     3
 72
    10
 73
     6
 74
     0
 42
0.000000001
 43
0.00000001
 40
0.0026724249028404
 40
0.0026724249028404
 40
0.0026724249028404
 40
0.0026724249028404
 40
0.002899128268532
 40
0.002899128268532
 40
0.002926629134901
 40
0.002926629134901
 40
0.002926629134901
 40
0.002926629134901
 10
114.8572138964753
 20
-75.99999999999974
 30
0.0000000000000005
 10
114.8949977907572
 20
-75.99999999999974
 30
0.0000000000000005
 10
114.9429458771948
 20
-75.98658090292173
 30
0.0000000000000005
 10
115.0029334624976
 20
-75.96100651056263
 30
0.0000000000000005
 10
115.0095043628048
 20
-75.95810489797319
 30
0.0000000000000005
 10
115.0161325190726
 20
-75.95508986056224
 30
0.0000000000000005
  0
SPLINE
  5
93
330
1F
100
AcDbEntity
  8
0
 62
    38
420
  4728325
370
    -3
100
AcDbSpline
210
0.0
220
0.0
230
1.0
 70
     8
 71
     3
 72
    10
 73
     6
 74
     0
 42
0.000000001
 43
0.00000001
 40
0.002926629134901
 40
0.002926629134901
 40
0.002926629134901
 40
0.002926629134901
 40
0.0031258316342236
 40
0.0031258316342236
 40
0.0031744981557492
 40
0.0031744981557492
 40
0.0031744981557492
 40
0.0031744981557492
 10
115.0161325190726
 20
-75.95508986056224
 30
0.0000000000000005
 10
115.0642200103422
 20
-75.93318986388651
 30
0.0000000000000005
 10
115.1157889242114
 20
-75.90496045549509
 30
0.0000000000000005
 10
115.1773646981716
 20
-75.86861547763513
 30
0.0000000000000005
 10
115.1896973697763
 20
-75.86120252905128
 30
0.0000000000000005
 10
115.2022339169796
 20
-75.85355339059312
 30
0.0000000000000005
  0
LINE
  5
94
330
1F
100
AcDbEntity
  8
0
 62
    38
420
  4728325
370
    -3
100
AcDbLine
 10
107.7232393002597
 20
-75.49999999999984
 30
0.0
 11
115.7232393002597
 21
-75.49999999999973
 31
0.0
  0
SPLINE
  5
95
330
1F
100
AcDbEntity
  8
0
 62
    38
420
  4728325
370
    -3
100
AcDbSpline
210
0.0
220
0.0
230
1.0
 70
     8
 71
     3
 72
    10
 73
     6
 74
     0
 42
0.000000001
 43
0.00000001
 40
0.0
 40
0.0
 40
0.0
 40
0.0
 40
0.0000072618165415
 40
0.0000072618165415
 40
0.0006172721834316
 40
0.0006172721834316
 40
0.0006172721834316
 40
0.0006172721834316
 10
134.2767606997406
 20
-75.49999999999979
 30
0.0000000000000016
 10
134.2787371158664
 20
-75.50139753724481
 30
0.0000000000000016
 10
134.2811088079702
 20
-75.50307457541788
 30
0.0000000000000016
 10
134.4491076170429
 20
-75.62186589058852
 30
0.0000000000000016
 10
134.6438451848731
 20
-75.75960072469316
 30
0.0000000000000016
 10
134.7977660830206
 20
-75.85355339059306
 30
0.0000000000000016
  0
SPLINE
  5
96
330
1F
100
AcDbEntity
  8
0
 62
    38
420
  4728325
370
    -3
100
AcDbSpline
210
0.0
220
0.0
230
1.0
 70
     8
 71
     3
 72
    10
 73
     6
 74
     0
 42
0.000000001
 43
0.00000001
 40
0.0008631484378902
 40
0.0008631484378902
 40
0.0008631484378902
 40
0.0008631484378902
 40
0.0008680823718494
 40
0.0008680823718494
 40
0.0011188925602671
 40
0.0011188925602671
 40
0.0011188925602671
 40
0.0011188925602671
 10
134.9838674242972
 20
-75.95508983479029
 30
0.0000000000000016
 10
134.9850520822546
 20
-75.95562893246284
 30
0.0000000000000016
 10
134.9862347071008
 20
-75.956164287373
 30
0.0000000000000016
 10
135.0474065758803
 20
-75.98370314699412
 30
0.0000000000000016
 10
135.1009844054554
 20
-75.99999999999977
 30
0.0000000000000017
 10
135.1427861035251
 20
-75.99999999999977
 30
0.0000000000000017
  0
SPLINE
  5
97
330
1F
100
AcDbEntity
  8
0
 62
    38
420
  4728325
370
    -3
100
AcDbSpline
210
0.0
220
0.0
230
1.0
 70
     8
 71
     3
 72
     8
 73
     4
 74
     0
 42
0.000000001
 43
0.00000001
 40
0.0006172721834316
 40
0.0006172721834316
 40
0.0006172721834316
 40
0.0006172721834316
 40
0.0008631484378902
 40
0.0008631484378902
 40
0.0008631484378902
 40
0.0008631484378902
 10
134.7977660830206
 20
-75.85355339059306
 30
0.0000000000000016
 10
134.8598068219548
 20
-75.89142279551093
 30
0.0000000000000016
 10
134.9248130312854
 20
-75.92821197024456
 30
0.0000000000000016
 10
134.9838674242972
 20
-75.95508983479029
 30
0.0000000000000016
  0
SPLINE
  5
98
330
1F
100
AcDbEntity
  8
0
 62
    38
420
  4728325
370
    -3
100
AcDbSpline
210
0.0
220
0.0
230
1.0
 70
     8
 71
     3
 72
    10
 73
     6
 74
     0
 42
0.000000001
 43
0.00000001
 40
0.0031736221516819
 40
0.0031736221516819
 40
0.0031736221516819
 40
0.0031736221516819
 40
0.0037836325185712
 40
0.0037836325185712
 40
0.0037908943351135
 40
0.0037908943351135
 40
0.0037908943351135
 40
0.0037908943351135
 10
141.7557553164607
 20
-75.85355339059296
 30
0.000000000000002
 10
141.909676214608
 20
-75.75960072469319
 30
0.000000000000002
 10
142.1044137824477
 20
-75.62186589060259
 30
0.000000000000002
 10
142.2724125915101
 20
-75.5030745754174
 30
0.000000000000002
 10
142.2747842836146
 20
-75.50139753724486
 30
0.000000000000002
 10
142.2767606997407
 20
-75.49999999999967
 30
0.000000000000002
  0
SPLINE
  5
99
330
1F
100
AcDbEntity
  8
0
 62
    38
420
  4728325
370
    -3
100
AcDbSpline
210
0.0
220
0.0
230
1.0
 70
     8
 71
     3
 72
    10
 73
     6
 74
     0
 42
0.000000001
 43
0.00000001
 40
0.0026720017748465
 40
0.0026720017748465
 40
0.0026720017748465
 40
0.0026720017748465
 40
0.0029228119632642
 40
0.0029228119632642
 40
0.0029277458972233
 40
0.0029277458972233
 40
0.0029277458972233
 40
0.0029277458972233
 10
141.4107352959562
 20
-75.99999999999969
 30
0.000000000000002
 10
141.4525369940258
 20
-75.99999999999969
 30
0.000000000000002
 10
141.506114823601
 20
-75.98370314699402
 30
0.000000000000002
 10
141.5672866923805
 20
-75.95616428737293
 30
0.000000000000002
 10
141.5684693172267
 20
-75.95562893246279
 30
0.000000000000002
 10
141.5696539751841
 20
-75.95508983479019
 30
0.000000000000002
  0
SPLINE
  5
9A
330
1F
100
AcDbEntity
  8
0
 62
    38
420
  4728325
370
    -3
100
AcDbSpline
210
0.0
220
0.0
230
1.0
 70
     8
 71
     3
 72
     8
 73
     4
 74
     0
 42
0.000000001
 43
0.00000001
 40
0.0029277458972233
 40
0.0029277458972233
 40
0.0029277458972233
 40
0.0029277458972233
 40
0.0031736221516819
 40
0.0031736221516819
 40
0.0031736221516819
 40
0.0031736221516819
 10
141.5696539751841
 20
-75.95508983479019
 30
0.000000000000002
 10
141.6287083681959
 20
-75.92821197024446
 30
0.000000000000002
 10
141.6937145775264
 20
-75.89142279551085
 30
0.000000000000002
 10
141.7557553164607
 20
-75.85355339059296
 30
0.000000000000002
  0
LINE
  5
9B
330
1F
100
AcDbEntity
  8
0
 62
    38
420
  4728325
370
    -3
100
AcDbLine
 10
142.2767606997407
 20
-75.49999999999967
 30
0.0
 11
134.2767606997406
 21
-75.49999999999979
 31
0.0
  0
SPLINE
  5
9C
330
1F
100
AcDbEntity
  8
0
 62
    38
420
  4728325
370
    -3
100
AcDbSpline
210
0.0
220
0.0
230
1.0
 70
     8
 71
     3
 72
    10
 73
     6
 74
     0
 42
0.000000001
 43
0.00000001
 40
0.0
 40
0.0
 40
0.0
 40
0.0
 40
0.0000072618165417
 40
0.0000072618165417
 40
0.0006172721834316
 40
0.0006172721834316
 40
0.0006172721834316
 40
0.0006172721834316
 10
142.2767606997407
 20
-78.99999999999969
 30
0.0000000000000021
 10
142.2747842836148
 20
-78.99860246275463
 30
0.0000000000000021
 10
142.2724125915113
 20
-78.99692542458118
 30
0.0000000000000021
 10
142.104413782434
 20
-78.87813410941696
 30
0.0000000000000021
 10
141.9096762146082
 20
-78.74039927530627
 30
0.0000000000000021
 10
141.7557553164607
 20
-78.64644660940642
 30
0.0000000000000021
  0
SPLINE
  5
9D
330
1F
100
AcDbEntity
  8
0
 62
    38
420
  4728325
370
    -3
100
AcDbSpline
210
0.0
220
0.0
230
1.0
 70
     8
 71
     3
 72
    10
 73
     6
 74
     0
 42
0.000000001
 43
0.00000001
 40
0.0008631484378902
 40
0.0008631484378902
 40
0.0008631484378902
 40
0.0008631484378902
 40
0.0008680823718493
 40
0.0008680823718493
 40
0.0011188925602671
 40
0.0011188925602671
 40
0.0011188925602671
 40
0.0011188925602671
 10
141.5696539751842
 20
-78.5449101652092
 30
0.000000000000002
 10
141.5684693172267
 20
-78.5443710675366
 30
0.000000000000002
 10
141.5672866923805
 20
-78.54383571262646
 30
0.000000000000002
 10
141.506114823601
 20
-78.51629685300537
 30
0.000000000000002
 10
141.4525369940259
 20
-78.4999999999997
 30
0.000000000000002
 10
141.4107352959563
 20
-78.4999999999997
 30
0.000000000000002
  0
SPLINE
  5
9E
330
1F
100
AcDbEntity
  8
0
 62
    38
420
  4728325
370
    -3
100
AcDbSpline
210
0.0
220
0.0
230
1.0
 70
     8
 71
     3
 72
     8
 73
     4
 74
     0
 42
0.000000001
 43
0.00000001
 40
0.0006172721834316
 40
0.0006172721834316
 40
0.0006172721834316
 40
0.0006172721834316
 40
0.0008631484378902
 40
0.0008631484378902
 40
0.0008631484378902
 40
0.0008631484378902
 10
141.7557553164607
 20
-78.64644660940642
 30
0.0000000000000021
 10
141.6937145775265
 20
-78.60857720448854
 30
0.0000000000000021
 10
141.6287083681959
 20
-78.57178802975493
 30
0.000000000000002
 10
141.5696539751842
 20
-78.5449101652092
 30
0.000000000000002
  0
SPLINE
  5
9F
330
1F
100
AcDbEntity
  8
0
 62
    38
420
  4728325
370
    -3
100
AcDbSpline
210
0.0
220
0.0
230
1.0
 70
     8
 71
     3
 72
    12
 73
     8
 74
     0
 42
0.000000001
 43
0.00000001
 40
0.0031744981557494
 40
0.0031744981557494
 40
0.0031744981557494
 40
0.0031744981557494
 40
0.0034547320763982
 40
0.0034547320763982
 40
0.0037836325185728
 40
0.0037836325185728
 40
0.0037908943351137
 40
0.0037908943351137
 40
0.0037908943351137
 40
0.0037908943351137
 10
134.7977660830208
 20
-78.64644660940641
 30
0.0000000000000017
 10
134.7255064928516
 20
-78.69058048256696
 30
0.0000000000000017
 10
134.6461489008998
 20
-78.7429656417186
 30
0.0000000000000017
 10
134.4700359412017
 20
-78.8632839016737
 30
0.0000000000000017
 10
134.3725998238286
 20
-78.93223247730604
 30
0.0000000000000017
 10
134.2811088079691
 20
-78.99692542458104
 30
0.0000000000000016
 10
134.2787371158663
 20
-78.9986024627549
 30
0.0000000000000016
 10
134.2767606997407
 20
-78.99999999999979
 30
0.0000000000000016
  0
SPLINE
  5
A0
330
1F
100
AcDbEntity
  8
0
 62
    38
420
  4728325
370
    -3
100
AcDbSpline
210
0.0
220
0.0
230
1.0
 70
     8
 71
     3
 72
    10
 73
     6
 74
     0
 42
0.000000001
 43
0.00000001
 40
0.0026724249028405
 40
0.0026724249028405
 40
0.0026724249028405
 40
0.0026724249028405
 40
0.0028991282685321
 40
0.0028991282685321
 40
0.0029266291349011
 40
0.0029266291349011
 40
0.0029266291349011
 40
0.0029266291349011
 10
135.1427861035251
 20
-78.49999999999977
 30
0.0000000000000017
 10
135.1050022092431
 20
-78.49999999999979
 30
0.0000000000000017
 10
135.0570541228055
 20
-78.5134190970778
 30
0.0000000000000017
 10
134.9970665375028
 20
-78.53899348943692
 30
0.0000000000000017
 10
134.9904956371956
 20
-78.54189510202637
 30
0.0000000000000017
 10
134.9838674809278
 20
-78.5449101394373
 30
0.0000000000000017
  0
SPLINE
  5
A1
330
1F
100
AcDbEntity
  8
0
 62
    38
420
  4728325
370
    -3
100
AcDbSpline
210
0.0
220
0.0
230
1.0
 70
     8
 71
     3
 72
    10
 73
     6
 74
     0
 42
0.000000001
 43
0.00000001
 40
0.0029266291349011
 40
0.0029266291349011
 40
0.0029266291349011
 40
0.0029266291349011
 40
0.0031258316342237
 40
0.0031258316342237
 40
0.0031744981557494
 40
0.0031744981557494
 40
0.0031744981557494
 40
0.0031744981557494
 10
134.9838674809278
 20
-78.5449101394373
 30
0.0000000000000017
 10
134.9357799896582
 20
-78.56681013611302
 30
0.0000000000000017
 10
134.884211075789
 20
-78.59503954450446
 30
0.0000000000000017
 10
134.8226353018287
 20
-78.63138452236441
 30
0.0000000000000017
 10
134.8103026302241
 20
-78.63879747094825
 30
0.0000000000000017
 10
134.7977660830208
 20
-78.64644660940641
 30
0.0000000000000017
  0
LINE
  5
A2
330
1F
100
AcDbEntity
  8
0
 62
    38
420
  4728325
370
    -3
100
AcDbLine
 10
142.2767606997407
 20
-78.99999999999969
 30
0.0
 11
134.2767606997407
 21
-78.99999999999979
 31
0.0
  0
LINE
  5
A3
330
1F
100
AcDbEntity
  8
0
 62
    38
420
  4728325
370
    -3
100
AcDbLine
 10
114.7232393002598
 20
-75.99999999999973
 30
0.0
 11
114.7232393002598
 21
-78.49999999999973
 31
0.0
  0
LINE
  5
A4
330
1F
100
AcDbEntity
  8
0
 62
    38
420
  4728325
370
    -3
100
AcDbLine
 10
108.7232393002597
 20
-78.4999999999998
 30
0.0
 11
108.7232393002597
 21
-75.9999999999998
 31
0.0
  0
LINE
  5
A5
330
1F
100
AcDbEntity
  8
0
 62
    38
420
  4728325
370
    -3
100
AcDbLine
 10
141.2767606997407
 20
-75.99999999999969
 30
0.0
 11
141.2767606997407
 21
-78.4999999999997
 31
0.0
  0
LINE
  5
A6
330
1F
100
AcDbEntity
  8
0
 62
    38
420
  4728325
370
    -3
100
AcDbLine
 10
135.2767606997407
 20
-78.49999999999976
 30
0.0
 11
135.2767606997406
 21
-75.99999999999976
 31
0.0
  0
LINE
  5
A7
330
1F
100
AcDbEntity
  8
0
 62
    38
420
  4728325
370
    -3
100
AcDbLine
 10
114.7232393000509
 20
-1.999999999999771
 30
0.0
 11
114.723239300051
 21
-4.499999999999774
 31
0.0
  0
LINE
  5
A8
330
1F
100
AcDbEntity
  8
0
 62
    38
420
  4728325
370
    -3
100
AcDbLine
 10
108.7232393000509
 20
-4.499999999999846
 30
0.0
 11
108.7232393000509
 21
-1.999999999999844
 31
0.0
  0
LINE
  5
A9
330
1F
100
AcDbEntity
  8
0
 62
    38
420
  4728325
370
    -3
100
AcDbLine
 10
141.2767606997406
 20
-1.999999999999724
 30
0.0
 11
141.2767606997406
 21
-4.499999999999726
 31
0.0
  0
LINE
  5
AA
330
1F
100
AcDbEntity
  8
0
 62
    38
420
  4728325
370
    -3
100
AcDbLine
 10
135.2767606997406
 20
-4.499999999999799
 30
0.0
 11
135.2767606997405
 21
-1.999999999999797
 31
0.0
  0
LINE
  5
AB
330
1F
100
AcDbEntity
  8
0
 62
    38
420
  4728325
370
    -3
100
AcDbLine
 10
135.1427861035249
 20
-1.999999999999804
 30
0.0
 11
141.4107352959561
 21
-1.999999999999716
 31
0.0
  0
LINE
  5
AC
330
1F
100
AcDbEntity
  8
0
 62
    38
420
  4728325
370
    -3
100
AcDbLine
 10
108.5892647038353
 20
-1.999999999999851
 30
0.0
 11
114.8572138962665
 21
-1.999999999999764
 31
0.0
  0
LINE
  5
AD
330
1F
100
AcDbEntity
  8
0
 62
    38
420
  4728325
370
    -3
100
AcDbLine
 10
141.4107352959563
 20
-78.4999999999997
 30
0.0
 11
135.1427861035251
 21
-78.49999999999977
 31
0.0
  0
LINE
  5
AE
330
1F
100
AcDbEntity
  8
0
 62
    38
420
  4728325
370
    -3
100
AcDbLine
 10
114.8572138964754
 20
-78.49999999999974
 30
0.0
 11
108.5892647040442
 21
-78.49999999999983
 31
0.0
  0
LINE
  5
AF
330
1F
100
AcDbEntity
  8
0
 62
    38
420
  4728325
370
    -3
100
AcDbLine
 10
134.2767606997405
 20
-1.499999999999819
 30
0.0
 11
134.2767606997406
 21
-4.999999999999822
 31
0.0
  0
SPLINE
  5
B0
330
1F
100
AcDbEntity
  8
0
 62
    38
420
  4728325
370
    -3
100
AcDbSpline
210
0.0
220
0.0
230
1.0
 70
     8
 71
     3
 72
    10
 73
     6
 74
     0
 42
0.000000001
 43
0.00000001
 40
-0.0036865874480121
 40
-0.0036865874480121
 40
-0.0036865874480121
 40
-0.0036865874480121
 40
-0.0019461542988771
 40
-0.0019461542988771
 40
0.0
 40
0.0
 40
0.0
 40
0.0
 10
163.7282572858049
 20
-69.59567425011248
 30
0.0000000000000031
 10
164.2114497584439
 20
-69.27556041112514
 30
0.0000000000000032
 10
164.671951177921
 20
-68.91785530640257
 30
0.0000000000000032
 10
165.5942940031895
 20
-68.10664233347309
 30
0.0000000000000032
 10
166.0534489600919
 20
-67.64368523467544
 30
0.0000000000000032
 10
166.4839069731765
 20
-67.15835949689375
 30
0.0000000000000033
  0
SPLINE
  5
B1
330
1F
100
AcDbEntity
  8
0
 62
    38
420
  4728325
370
    -3
100
AcDbSpline
210
0.0
220
0.0
230
1.0
 70
     8
 71
     3
 72
    26
 73
    22
 74
     0
 42
0.000000001
 43
0.00000001
 40
0.1860912265248183
 40
0.1860912265248183
 40
0.1860912265248183
 40
0.1860912265248183
 40
0.1894520193370985
 40
0.1894520193370985
 40
0.1957939050709456
 40
0.1957939050709456
 40
0.2021357908047928
 40
0.2021357908047928
 40
0.2081557272387397
 40
0.2081557272387397
 40
0.2141756636726866
 40
0.2141756636726866
 40
0.2201956001066336
 40
0.2201956001066336
 40
0.2262155365405805
 40
0.2262155365405805
 40
0.2325574222744276
 40
0.2325574222744276
 40
0.2388993080082747
 40
0.2388993080082747
 40
0.2422601008205905
 40
0.2422601008205905
 40
0.2422601008205905
 40
0.2422601008205905
 10
166.4839069574738
 20
-67.15835953741352
 30
0.0000000000000033
 10
167.2756369736853
 20
-66.26571277551304
 30
0.0000000000000033
 10
168.0130729128682
 20
-65.35902433053079
 30
0.0000000000000033
 10
169.9558477407502
 20
-62.77332423872647
 30
0.0000000000000034
 10
171.211692152743
 20
-60.82171858246176
 30
0.0000000000000034
 10
173.3599583585917
 20
-56.72850397624218
 30
-0.0000000000000035
 10
174.2520046354527
 20
-54.58669795245061
 30
-0.0000000000000034
 10
175.5423146381082
 20
-50.67332276554227
 30
-0.0000000000000034
 10
176.0793815131772
 20
-48.53685662918143
 30
-0.0000000000000034
 10
176.7776576617479
 20
-44.20352688784094
 30
-0.0000000000000035
 10
176.9387564380702
 20
-42.00664547798196
 30
0.0000000000000035
 10
176.9387564380702
 20
-37.99335452201735
 30
0.0000000000000034
 10
176.7776576617478
 20
-35.79647311215836
 30
0.0000000000000034
 10
176.0793815131771
 20
-31.46314337081787
 30
0.0000000000000033
 10
175.5423146381082
 20
-29.32667723445704
 30
0.0000000000000032
 10
174.2520046354527
 20
-25.41330204754872
 30
0.0000000000000031
 10
173.3599583585916
 20
-23.27149602375715
 30
0.000000000000003
 10
171.211692152743
 20
-19.17828141753758
 30
0.0000000000000028
 10
169.9558477407501
 20
-17.22667576127288
 30
0.0000000000000027
 10
168.013072912861
 20
-14.6409756694591
 30
0.0000000000000026
 10
167.2756369736742
 20
-13.73428722446318
 30
0.0000000000000025
 10
166.4839069574531
 20
-12.84164046255353
 30
0.0000000000000025
  0
SPLINE
  5
B2
330
1F
100
AcDbEntity
  8
0
 62
    38
420
  4728325
370
    -3
100
AcDbSpline
210
0.0
220
0.0
230
1.0
 70
     8
 71
     3
 72
    10
 73
     6
 74
     0
 42
0.000000001
 43
0.00000001
 40
-0.0036831937021821
 40
-0.0036831937021821
 40
-0.0036831937021821
 40
-0.0036831937021821
 40
-0.0017367827854299
 40
-0.0017367827854299
 40
0.0
 40
0.0
 40
0.0
 40
0.0
 10
166.4839069731624
 20
-12.84164050309029
 30
0.0000000000000025
 10
166.0529953751774
 20
-12.35580336484565
 30
0.0000000000000024
 10
165.593324533143
 20
-11.89238001208014
 30
0.0000000000000024
 10
164.6708652992261
 20
-11.08130155447149
 30
0.0000000000000023
 10
164.2108808110548
 20
-10.72406266255121
 30
0.0000000000000023
 10
163.7282572858405
 20
-10.40432574987429
 30
0.0000000000000023
  0
SPLINE
  5
B3
330
1F
100
AcDbEntity
  8
0
 62
    38
420
  4728325
370
    -3
100
AcDbSpline
210
0.0
220
0.0
230
1.0
 70
     8
 71
     3
 72
    10
 73
     6
 74
     0
 42
0.000000001
 43
0.00000001
 40
-0.0029002756965644
 40
-0.0029002756965644
 40
-0.0029002756965644
 40
-0.0029002756965644
 40
-0.0014477491867546
 40
-0.0014477491867546
 40
-0.0000026861311562
 40
-0.0000026861311562
 40
-0.0000026861311562
 40
-0.0000026861311562
 10
163.7282572857917
 20
-10.40432574994791
 30
0.0000000000000023
 10
163.3246240751909
 20
-10.13691973031569
 30
0.0000000000000022
 10
162.9178744767833
 20
-9.87411411483546
 30
0.0000000000000022
 10
162.1008520980781
 20
-9.358980042621672
 30
0.0000000000000022
 10
161.690510526946
 20
-9.106543017524965
 30
0.0000000000000021
 10
161.2775685652669
 20
-8.85854671308597
 30
0.0000000000000021
  0
SPLINE
  5
B4
330
1F
100
AcDbEntity
  8
0
 62
    38
420
  4728325
370
    -3
100
AcDbSpline
210
0.0
220
0.0
230
1.0
 70
     8
 71
     3
 72
    10
 73
     6
 74
     0
 42
0.000000001
 43
0.00000001
 40
-0.0027202250552146
 40
-0.0027202250552146
 40
-0.0027202250552146
 40
-0.0027202250552146
 40
-0.0013006750777974
 40
-0.0013006750777974
 40
0.0
 40
0.0
 40
0.0
 40
0.0
 10
161.2775685652575
 20
-8.85854671306594
 30
0.0000000000000021
 10
160.8716184639201
 20
-8.614749438241155
 30
0.0000000000000021
 10
160.4494490546082
 20
-8.395861310635203
 30
0.0000000000000021
 10
159.6150403134982
 20
-8.040123962564811
 30
0.000000000000002
 10
159.203675105635
 20
-7.897420392226672
 30
0.000000000000002
 10
158.7836721115904
 20
-7.789854896444477
 30
0.000000000000002
  0
SPLINE
  5
B5
330
1F
100
AcDbEntity
  8
0
 62
    38
420
  4728325
370
    -3
100
AcDbSpline
210
0.0
220
0.0
230
1.0
 70
     8
 71
     3
 72
    10
 73
     6
 74
     0
 42
0.000000001
 43
0.00000001
 40
-0.0038918325760364
 40
-0.0038918325760364
 40
-0.0038918325760364
 40
-0.0038918325760364
 40
-0.0019268273806992
 40
-0.0019268273806992
 40
0.0
 40
0.0
 40
0.0
 40
0.0
 10
158.7836721134145
 20
-7.789854900440329
 30
0.000000000000002
 10
158.0477094087167
 20
-7.605833035739214
 30
0.0000000000000019
 10
157.3323607087451
 20
-7.541917744765889
 30
0.0000000000000019
 10
155.9907894749095
 20
-7.649568092921688
 30
0.0000000000000018
 10
155.3615832644321
 20
-7.816665871272716
 30
0.0000000000000018
 10
154.7840170460138
 20
-8.097620419809205
 30
0.0000000000000017
  0
SPLINE
  5
B6
330
1F
100
AcDbEntity
  8
0
 62
    38
420
  4728325
370
    -3
100
AcDbSpline
210
0.0
220
0.0
230
1.0
 70
     8
 71
     3
 72
    10
 73
     6
 74
     0
 42
0.000000001
 43
0.00000001
 40
-0.0012113291867578
 40
-0.0012113291867578
 40
-0.0012113291867578
 40
-0.0012113291867578
 40
-0.0007175889771137
 40
-0.0007175889771137
 40
0.0
 40
0.0
 40
0.0
 40
0.0
 10
154.7840170161575
 20
-8.097620435003204
 30
0.0000000000000017
 10
154.6360138676598
 20
-8.1696159174225
 30
0.0000000000000017
 10
154.4880090120986
 20
-8.241615120398334
 30
0.0000000000000017
 10
154.1249190404029
 20
-8.418252971211983
 30
0.0000000000000017
 10
153.9098114928123
 20
-8.522905812610764
 30
0.0000000000000017
 10
153.6947226205292
 20
-8.627555988198482
 30
0.0000000000000017
  0
SPLINE
  5
B7
330
1F
100
AcDbEntity
  8
0
 62
    38
420
  4728325
370
    -3
100
AcDbSpline
210
0.0
220
0.0
230
1.0
 70
     8
 71
     3
 72
    10
 73
     6
 74
     0
 42
0.000000001
 43
0.00000001
 40
-0.0025455995794226
 40
-0.0025455995794226
 40
-0.0025455995794226
 40
-0.0025455995794226
 40
-0.0012576507500881
 40
-0.0012576507500881
 40
-0.0003851187271933
 40
-0.0003851187271933
 40
-0.0003851187271933
 40
-0.0003851187271933
 10
153.6947226205292
 20
-8.627555988198502
 30
0.0000000000000017
 10
153.4822387549646
 20
-8.254509889874694
 30
0.0000000000000017
 10
153.267145223817
 20
-7.882928824570331
 30
0.0000000000000017
 10
152.9021702068576
 20
-7.26210315915386
 30
0.0000000000000016
 10
152.7536227466092
 20
-7.012041002792172
 30
0.0000000000000016
 10
152.6039657228679
 20
-6.762648935286143
 30
0.0000000000000016
  0
SPLINE
  5
B8
330
1F
100
AcDbEntity
  8
0
 62
    38
420
  4728325
370
    -3
100
AcDbSpline
210
0.0
220
0.0
230
1.0
 70
     8
 71
     3
 72
    10
 73
     6
 74
     0
 42
0.000000001
 43
0.00000001
 40
-0.0062329480396033
 40
-0.0062329480396033
 40
-0.0062329480396033
 40
-0.0062329480396033
 40
-0.0030042759131827
 40
-0.0030042759131827
 40
0.0
 40
0.0
 40
0.0
 40
0.0
 10
152.6039657192472
 20
-6.762648928673662
 30
0.0000000000000016
 10
152.04952739092
 20
-5.83871954956819
 30
0.0000000000000016
 10
151.425287479053
 20
-4.95577114485499
 30
0.0000000000000015
 10
150.0853134026278
 20
-3.366160935098011
 30
0.0000000000000014
 10
149.37796169931
 20
-2.650421958685262
 30
0.0000000000000014
 10
148.6121025280247
 20
-2.005199229669033
 30
0.0000000000000013
  0
SPLINE
  5
B9
330
1F
100
AcDbEntity
  8
0
 62
    38
420
  4728325
370
    -3
100
AcDbSpline
210
0.0
220
0.0
230
1.0
 70
     8
 71
     3
 72
    10
 73
     6
 74
     0
 42
0.000000001
 43
0.00000001
 40
-0.0029850712695672
 40
-0.0029850712695672
 40
-0.0029850712695672
 40
-0.0029850712695672
 40
-0.0014583126638359
 40
-0.0014583126638359
 40
0.0
 40
0.0
 40
0.0
 40
0.0
 10
148.6121025253532
 20
-2.005199224667909
 30
0.0000000000000013
 10
148.2220363683865
 20
-1.678114439086339
 30
0.0000000000000013
 10
147.8165868306822
 20
-1.36904008927414
 30
0.0000000000000013
 10
146.9956501315713
 20
-0.8065364263639717
 30
0.0000000000000012
 10
146.581106700051
 20
-0.5510183551947251
 30
0.0000000000000012
 10
146.1543814246942
 20
-0.3182032927169834
 30
0.0000000000000011
  0
SPLINE
  5
BA
330
1F
100
AcDbEntity
  8
0
 62
    38
420
  4728325
370
    -3
100
AcDbSpline
210
0.0
220
0.0
230
1.0
 70
     8
 71
     3
 72
    10
 73
     6
 74
     0
 42
0.000000001
 43
0.00000001
 40
-0.0027281982987733
 40
-0.0027281982987733
 40
-0.0027281982987733
 40
-0.0027281982987733
 40
-0.0013582979965766
 40
-0.0013582979965766
 40
-0.0000117564297081
 40
-0.0000117564297081
 40
-0.0000117564297081
 40
-0.0000117564297081
 10
146.1543814021999
 20
-0.3182032639795959
 30
0.0000000000000011
 10
145.7535278059219
 20
-0.0995034111000958
 30
0.0000000000000011
 10
145.3511811229663
 20
0.1165144633086661
 30
0.0000000000000011
 10
144.5506422604181
 20
0.5396348220865563
 30
0.000000000000001
 10
144.1524530656493
 20
0.7468493155846997
 30
0.000000000000001
 10
143.7530167645284
 20
0.9515803667443139
 30
0.000000000000001
  0
SPLINE
  5
BB
330
1F
100
AcDbEntity
  8
0
 62
    38
420
  4728325
370
    -3
100
AcDbSpline
210
0.0
220
0.0
230
1.0
 70
     8
 71
     3
 72
    10
 73
     6
 74
     0
 42
0.000000001
 43
0.00000001
 40
-0.0028438626784251
 40
-0.0028438626784251
 40
-0.0028438626784251
 40
-0.0028438626784251
 40
-0.0013875939851698
 40
-0.0013875939851698
 40
0.0
 40
0.0
 40
0.0
 40
0.0
 10
143.7530167692262
 20
0.9515803611212771
 30
0.000000000000001
 10
143.3208811352694
 20
1.173071462389434
 30
0.000000000000001
 10
142.8767294362302
 20
1.37154355556288
 30
0.0000000000000009
 10
141.9898990624895
 20
1.706915049981559
 30
0.0000000000000009
 10
141.5478753109316
 20
1.846370196449455
 30
0.0000000000000009
 10
141.0990221677232
 20
1.95802182238506
 30
0.0000000000000008
  0
SPLINE
  5
BC
330
1F
100
AcDbEntity
  8
0
 62
    38
420
  4728325
370
    -3
100
AcDbSpline
210
0.0
220
0.0
230
1.0
 70
     8
 71
     3
 72
    10
 73
     6
 74
     0
 42
0.000000001
 43
0.00000001
 40
0.2703562726109435
 40
0.2703562726109435
 40
0.2703562726109435
 40
0.2703562726109435
 40
0.2744348746405388
 40
0.2744348746405388
 40
0.2759204188024563
 40
0.2759204188024563
 40
0.2759204188024563
 40
0.2759204188024563
 10
141.0990221674428
 20
1.958021822697248
 30
0.0000000000000008
 10
139.6760689026812
 20
2.311979568551453
 30
0.0000000000000007
 10
138.2237910341219
 20
2.617791965119745
 30
0.0000000000000007
 10
136.2299483170298
 20
2.965696262426142
 30
0.0000000000000005
 10
135.6963628880364
 20
3.051893983811962
 30
0.0000000000000005
 10
135.1624982822859
 20
3.131415074345566
 30
0.0000000000000005
  0
SPLINE
  5
BD
330
1F
100
AcDbEntity
  8
0
 62
    38
420
  4728325
370
    -3
100
AcDbSpline
210
0.0
220
0.0
230
1.0
 70
     8
 71
     3
 72
    10
 73
     6
 74
     0
 42
0.000000001
 43
0.00000001
 40
-0.0021576420910589
 40
-0.0021576420910589
 40
-0.0021576420910589
 40
-0.0021576420910589
 40
-0.0010782369934206
 40
-0.0010782369934206
 40
0.0
 40
0.0
 40
0.0
 40
0.0
 10
135.1624982822859
 20
3.13141507434556
 30
0.0000000000000005
 10
134.8066222459784
 20
3.184424114652358
 30
0.0000000000000005
 10
134.4477811381225
 20
3.212842208001147
 30
0.0000000000000004
 10
133.7286087480672
 20
3.219864050382882
 30
0.0000000000000004
 10
133.3696688372553
 20
3.198508051509931
 30
0.0000000000000004
 10
133.0132078023459
 20
3.15254334366858
 30
0.0000000000000004
  0
SPLINE
  5
BE
330
1F
100
AcDbEntity
  8
0
 62
    38
420
  4728325
370
    -3
100
AcDbSpline
210
0.0
220
0.0
230
1.0
 70
     8
 71
     3
 72
    10
 73
     6
 74
     0
 42
0.000000001
 43
0.00000001
 40
-0.001955403679899
 40
-0.001955403679899
 40
-0.001955403679899
 40
-0.001955403679899
 40
-0.0009813591984244
 40
-0.0009813591984244
 40
-0.0000013080081407
 40
-0.0000013080081407
 40
-0.0000013080081407
 40
-0.0000013080081407
 10
133.0132078023305
 20
3.152543343787679
 30
0.0000000000000004
 10
132.6911924373011
 20
3.111020313889048
 30
0.0000000000000004
 10
132.3691762524182
 20
3.069511202350335
 30
0.0000000000000003
 10
131.7231525690144
 20
2.98626428172603
 30
0.0000000000000003
 10
131.3991470306923
 20
2.944526897875279
 30
0.0000000000000003
 10
131.0751387108538
 20
2.902803206520834
 30
0.0000000000000003
  0
SPLINE
  5
BF
330
1F
100
AcDbEntity
  8
0
 62
    38
420
  4728325
370
    -3
100
AcDbSpline
210
0.0
220
0.0
230
1.0
 70
     8
 71
     3
 72
    10
 73
     6
 74
     0
 42
0.000000001
 43
0.00000001
 40
-0.0020444469124853
 40
-0.0020444469124853
 40
-0.0020444469124853
 40
-0.0020444469124853
 40
-0.0010264533954927
 40
-0.0010264533954927
 40
0.0
 40
0.0
 40
0.0
 40
0.0
 10
131.0751387108477
 20
2.902803206051459
 30
0.0000000000000003
 10
130.7386094815934
 20
2.85946715313726
 30
0.0000000000000002
 10
130.4054540864699
 20
2.794355292645734
 30
0.0000000000000002
 10
129.7463650084518
 20
2.621204967664215
 30
0.0000000000000002
 10
129.421577188437
 20
2.513094744271596
 30
0.0000000000000002
 10
129.1043594032344
 20
2.384875113308426
 30
0.0000000000000002
  0
SPLINE
  5
C0
330
1F
100
AcDbEntity
  8
0
 62
    38
420
  4728325
370
    -3
100
AcDbSpline
210
0.0
220
0.0
230
1.0
 70
     8
 71
     3
 72
    10
 73
     6
 74
     0
 42
0.000000001
 43
0.00000001
 40
-0.0039839336667796
 40
-0.0039839336667796
 40
-0.0039839336667796
 40
-0.0039839336667796
 40
-0.002023588775071
 40
-0.002023588775071
 40
0.0
 40
0.0
 40
0.0
 40
0.0
 10
129.1043594001802
 20
2.384875036636466
 30
0.0000000000000002
 10
128.4995960966055
 20
2.138850151380924
 30
0.0000000000000001
 10
127.9273560211629
 20
1.821642193588849
 30
0.0000000000000001
 10
126.8454854181199
 20
1.05260304465721
 30
0.0000000000000001
 10
126.3431994978053
 20
0.6001794258557198
 30
0.0
 10
125.8921961751812
 20
0.0985957608028174
 30
0.0
  0
SPLINE
  5
C1
330
1F
100
AcDbEntity
  8
0
 62
    38
420
  4728325
370
    -3
100
AcDbSpline
210
0.0
220
0.0
230
1.0
 70
     8
 71
     3
 72
    10
 73
     6
 74
     0
 42
0.000000001
 43
0.00000001
 40
-0.0013366082836996
 40
-0.0013366082836996
 40
-0.0013366082836996
 40
-0.0013366082836996
 40
-0.0007779027303299
 40
-0.0007779027303299
 40
0.0
 40
0.0
 40
0.0
 40
0.0
 10
125.8921961727517
 20
0.0985957764685015
 30
0.0
 10
125.7676697502111
 20
-0.0398963748396965
 30
0.0
 10
125.643225064879
 20
-0.1784719644672963
 30
0.0
 10
125.3457523840687
 20
-0.5101525707972496
 30
0.0
 10
125.1727749581406
 20
-0.7033698285943485
 30
0.0
 10
124.9999999999999
 20
-0.8967238454218532
 30
0.0
  0
SPLINE
  5
C2
330
1F
100
AcDbEntity
  8
0
 62
    38
420
  4728325
370
    -3
100
AcDbSpline
210
0.0
220
0.0
230
1.0
 70
     8
 71
     3
 72
    10
 73
     6
 74
     0
 42
0.000000001
 43
0.00000001
 40
-0.0015539423529228
 40
-0.0015539423529228
 40
-0.0015539423529228
 40
-0.0015539423529228
 40
-0.0007760270601258
 40
-0.0007760270601258
 40
-0.0002173366610474
 40
-0.0002173366610474
 40
-0.0002173366610474
 40
-0.0002173366610474
 10
124.9999999999999
 20
-0.8967238454218464
 30
0.0
 10
124.8272219173076
 20
-0.7033663318803891
 30
0.0
 10
124.6542413591118
 20
-0.5101455818761077
 30
0.0
 10
124.3567686686901
 20
-0.1784649864754632
 30
-0.0000000000000001
 10
124.232327110556
 20
-0.0398928957116905
 30
-0.0000000000000001
 10
124.1078038255331
 20
0.0985957662370229
 30
-0.0000000000000001
  0
SPLINE
  5
C3
330
1F
100
AcDbEntity
  8
0
 62
    38
420
  4728325
370
    -3
100
AcDbSpline
210
0.0
220
0.0
230
1.0
 70
     8
 71
     3
 72
    10
 73
     6
 74
     0
 42
0.000000001
 43
0.00000001
 40
-0.0039805378855324
 40
-0.0039805378855324
 40
-0.0039805378855324
 40
-0.0039805378855324
 40
-0.0019582140309017
 40
-0.0019582140309017
 40
0.0
 40
0.0
 40
0.0
 40
0.0
 10
124.1078038250761
 20
0.0985957678275354
 30
-0.0000000000000001
 10
123.6566979304774
 20
0.6002935161292283
 30
-0.0000000000000001
 10
123.1542865252225
 20
1.052808396675635
 30
-0.0000000000000001
 10
122.0723761392293
 20
1.821790760640659
 30
-0.0000000000000002
 10
121.5002620165662
 20
2.138907943752308
 30
-0.0000000000000003
 10
120.8956405963656
 20
2.384875112955201
 30
-0.0000000000000003
  0
SPLINE
  5
C4
330
1F
100
AcDbEntity
  8
0
 62
    38
420
  4728325
370
    -3
100
AcDbSpline
210
0.0
220
0.0
230
1.0
 70
     8
 71
     3
 72
    10
 73
     6
 74
     0
 42
0.000000001
 43
0.00000001
 40
-0.0020443074475189
 40
-0.0020443074475189
 40
-0.0020443074475189
 40
-0.0020443074475189
 40
-0.0010179145374542
 40
-0.0010179145374542
 40
0.0
 40
0.0
 40
0.0
 40
0.0
 10
120.8956405967655
 20
2.384875113344195
 30
-0.0000000000000003
 10
120.5784198636911
 20
2.513095935838946
 30
-0.0000000000000003
 10
120.2536289605184
 20
2.621206974825559
 30
-0.0000000000000003
 10
119.594539676249
 20
2.794356511991527
 30
-0.0000000000000004
 10
119.2613873655601
 20
2.859467559128126
 30
-0.0000000000000004
 10
118.9248612891523
 20
2.902803206039184
 30
-0.0000000000000004
  0
SPLINE
  5
C5
330
1F
100
AcDbEntity
  8
0
 62
    38
420
  4728325
370
    -3
100
AcDbSpline
210
0.0
220
0.0
230
1.0
 70
     8
 71
     3
 72
    10
 73
     6
 74
     0
 42
0.000000001
 43
0.00000001
 40
-0.0019611900380939
 40
-0.0019611900380939
 40
-0.0019611900380939
 40
-0.0019611900380939
 40
-0.0009811368553999
 40
-0.0009811368553999
 40
-0.0000070944230378
 40
-0.0000070944230378
 40
-0.0000070944230378
 40
-0.0000070944230378
 10
118.9248612891462
 20
2.902803206520715
 30
-0.0000000000000004
 10
118.6008523004459
 20
2.944526984006854
 30
-0.0000000000000004
 10
118.2768460942557
 20
2.986264453919349
 30
-0.0000000000000004
 10
117.630822411236
 20
3.069511374610339
 30
-0.0000000000000005
 10
117.3088068944826
 20
3.111020397814151
 30
-0.0000000000000005
 10
116.9867921978826
 20
3.152543341520561
 30
-0.0000000000000005
  0
SPLINE
  5
C6
330
1F
100
AcDbEntity
  8
0
 62
    38
420
  4728325
370
    -3
100
AcDbSpline
210
0.0
220
0.0
230
1.0
 70
     8
 71
     3
 72
    10
 73
     6
 74
     0
 42
0.000000001
 43
0.00000001
 40
-0.0021576458312828
 40
-0.0021576458312828
 40
-0.0021576458312828
 40
-0.0021576458312828
 40
-0.0010794050457533
 40
-0.0010794050457533
 40
0.0
 40
0.0
 40
0.0
 40
0.0
 10
116.9867921978678
 20
3.15254334140625
 30
-0.0000000000000005
 10
116.630330527214
 20
3.198508131221819
 30
-0.0000000000000005
 10
116.2713899730293
 20
3.219864124147519
 30
-0.0000000000000006
 10
115.5522175846496
 20
3.212842104686541
 30
-0.0000000000000006
 10
115.1933771201507
 20
3.18442401798093
 30
-0.0000000000000006
 10
114.8375017178388
 20
3.131415072130052
 30
-0.0000000000000006
  0
SPLINE
  5
C7
330
1F
100
AcDbEntity
  8
0
 62
    38
420
  4728325
370
    -3
100
AcDbSpline
210
0.0
220
0.0
230
1.0
 70
     8
 71
     3
 72
    10
 73
     6
 74
     0
 42
0.000000001
 43
0.00000001
 40
0.0096471327613109
 40
0.0096471327613109
 40
0.0096471327613109
 40
0.0096471327613109
 40
0.0111326769230434
 40
0.0111326769230434
 40
0.0152112789526349
 40
0.0152112789526349
 40
0.0152112789526349
 40
0.0152112789526349
 10
114.8375017178388
 20
3.131415072130073
 30
-0.0000000000000006
 10
114.303637112155
 20
3.051893981603336
 30
-0.0000000000000007
 10
113.7700516829038
 20
2.965696262414519
 30
-0.0000000000000007
 10
111.7762089658793
 20
2.617791965119915
 30
-0.0000000000000008
 10
110.3239310973181
 20
2.311979568565148
 30
-0.0000000000000009
 10
108.9009778325578
 20
1.958021822711388
 30
-0.0000000000000009
  0
SPLINE
  5
C8
330
1F
100
AcDbEntity
  8
0
 62
    38
420
  4728325
370
    -3
100
AcDbSpline
210
0.0
220
0.0
230
1.0
 70
     8
 71
     3
 72
    10
 73
     6
 74
     0
 42
0.000000001
 43
0.00000001
 40
-0.002844852741405
 40
-0.002844852741405
 40
-0.002844852741405
 40
-0.002844852741405
 40
-0.0014561404057819
 40
-0.0014561404057819
 40
0.0
 40
0.0
 40
0.0
 40
0.0
 10
108.9009778322774
 20
1.958021822399193
 30
-0.0000000000000009
 10
108.45191929679
 20
1.846319105389395
 30
-0.000000000000001
 10
108.0096963941022
 20
1.706787423248414
 30
-0.000000000000001
 10
107.122883072276
 20
1.371370392516845
 30
-0.000000000000001
 10
106.6789303930773
 20
1.172974861253806
 30
-0.0000000000000011
 10
106.246983230777
 20
0.9515803611271155
 30
-0.0000000000000011
  0
SPLINE
  5
C9
330
1F
100
AcDbEntity
  8
0
 62
    38
420
  4728325
370
    -3
100
AcDbSpline
210
0.0
220
0.0
230
1.0
 70
     8
 71
     3
 72
    10
 73
     6
 74
     0
 42
0.000000001
 43
0.00000001
 40
-0.0027185755199417
 40
-0.0027185755199417
 40
-0.0027185755199417
 40
-0.0027185755199417
 40
-0.0013714676540941
 40
-0.0013714676540941
 40
-0.000002139748597
 40
-0.000002139748597
 40
-0.000002139748597
 40
-0.000002139748597
 10
106.2469832354656
 20
0.9515803667680477
 30
-0.0000000000000011
 10
105.8473780504781
 20
0.7467627541927235
 30
-0.0000000000000011
 10
105.4490210176501
 20
0.5394595941760584
 30
-0.0000000000000011
 10
104.6484844431077
 20
0.1163349067452694
 30
-0.0000000000000012
 10
104.246305602047
 20
-0.099594301273074
 30
-0.0000000000000012
 10
103.8456185977996
 20
-0.3182032639798445
 30
-0.0000000000000012
  0
SPLINE
  5
CA
330
1F
100
AcDbEntity
  8
0
 62
    38
420
  4728325
370
    -3
100
AcDbSpline
210
0.0
220
0.0
230
1.0
 70
     8
 71
     3
 72
    10
 73
     6
 74
     0
 42
0.000000001
 43
0.00000001
 40
-0.002985860301836
 40
-0.002985860301836
 40
-0.002985860301836
 40
-0.002985860301836
 40
-0.0015263821937362
 40
-0.0015263821937362
 40
0.0
 40
0.0
 40
0.0
 40
0.0
 10
103.8456185753034
 20
-0.3182032927198132
 30
-0.0000000000000012
 10
103.4186651608399
 20
-0.5511428245539409
 30
-0.0000000000000012
 10
103.0039065658989
 20
-0.8068096677288411
 30
-0.0000000000000012
 10
102.1829988833636
 20
-1.369355913908416
 30
-0.0000000000000013
 10
101.7777643875415
 20
-1.678281512506111
 30
-0.0000000000000013
 10
101.3878974747324
 20
-2.00519922454872
 30
-0.0000000000000013
  0
SPLINE
  5
CB
330
1F
100
AcDbEntity
  8
0
 62
    38
420
  4728325
370
    -3
100
AcDbSpline
210
0.0
220
0.0
230
1.0
 70
     8
 71
     3
 72
    10
 73
     6
 74
     0
 42
0.000000001
 43
0.00000001
 40
-0.0062404338098567
 40
-0.0062404338098567
 40
-0.0062404338098567
 40
-0.0062404338098567
 40
-0.0032210296698704
 40
-0.0032210296698704
 40
0.0
 40
0.0
 40
0.0
 40
0.0
 10
101.3878974724172
 20
-2.005199237236474
 30
-0.0000000000000013
 10
100.6191072312004
 20
-2.652891369030057
 30
-0.0000000000000013
 10
99.90927265473458
 20
-3.371639927677636
 30
-0.0000000000000014
 10
98.57025989502748
 20
-4.962071220770448
 30
-0.0000000000000014
 10
97.94849542846502
 20
-5.84201437754818
 30
-0.0000000000000014
 10
97.39603426561712
 20
-6.762648947715716
 30
-0.0000000000000015
  0
SPLINE
  5
CC
330
1F
100
AcDbEntity
  8
0
 62
    38
420
  4728325
370
    -3
100
AcDbSpline
210
0.0
220
0.0
230
1.0
 70
     8
 71
     3
 72
    10
 73
     6
 74
     0
 42
0.000000001
 43
0.00000001
 40
-0.0021604827059063
 40
-0.0021604827059063
 40
-0.0021604827059063
 40
-0.0021604827059063
 40
-0.0012874496544101
 40
-0.0012874496544101
 40
0.0
 40
0.0
 40
0.0
 40
0.0
 10
97.39603426754037
 20
-6.762648951269929
 30
-0.0000000000000015
 10
97.24629143496686
 20
-7.012184012787426
 30
-0.0000000000000015
 10
97.09765943686435
 20
-7.262389934747315
 30
-0.0000000000000015
 10
96.73268767116153
 20
-7.883217504926753
 30
-0.0000000000000015
 10
96.517678707879
 20
-8.254654795766962
 30
-0.0000000000000015
 10
96.30527737947051
 20
-8.627555988198742
 30
-0.0000000000000015
  0
SPLINE
  5
CD
330
1F
100
AcDbEntity
  8
0
 62
    38
420
  4728325
370
    -3
100
AcDbSpline
210
0.0
220
0.0
230
1.0
 70
     8
 71
     3
 72
    10
 73
     6
 74
     0
 42
0.000000001
 43
0.00000001
 40
-0.0014351521328893
 40
-0.0014351521328893
 40
-0.0014351521328893
 40
-0.0014351521328893
 40
-0.0007175746878954
 40
-0.0007175746878954
 40
-0.0002238238043757
 40
-0.0002238238043757
 40
-0.0002238238043757
 40
-0.0002238238043757
 10
96.30527737947051
 20
-8.627555988198763
 30
-0.0000000000000015
 10
96.09019180606141
 20
-8.522907417658047
 30
-0.0000000000000015
 10
95.87508755813946
 20
-8.418256181495952
 30
-0.0000000000000015
 10
95.51199757960038
 20
-8.241618327030398
 30
-0.0000000000000015
 10
95.36398941669785
 20
-8.169617515079842
 30
-0.0000000000000015
 10
95.21598296099437
 20
-8.097620423885083
 30
-0.0000000000000016
  0
SPLINE
  5
CE
330
1F
100
AcDbEntity
  8
0
 62
    38
420
  4728325
370
    -3
100
AcDbSpline
210
0.0
220
0.0
230
1.0
 70
     8
 71
     3
 72
    10
 73
     6
 74
     0
 42
0.000000001
 43
0.00000001
 40
-0.0045075450710083
 40
-0.0045075450710083
 40
-0.0045075450710083
 40
-0.0045075450710083
 40
-0.0022750006463112
 40
-0.0022750006463112
 40
0.0
 40
0.0
 40
0.0
 40
0.0
 10
95.21598295957058
 20
-8.097620430257527
 30
-0.0000000000000016
 10
94.63818305139132
 20
-7.816552200496143
 30
-0.0000000000000016
 10
94.00870667026163
 20
-7.649435461254954
 30
-0.0000000000000016
 10
92.6670909772799
 20
-7.541967916691868
 30
-0.0000000000000017
 10
91.9520121677908
 20
-7.605902721874111
 30
-0.0000000000000017
 10
91.2163279009896
 20
-7.789854973211002
 30
-0.0000000000000018
  0
SPLINE
  5
CF
330
1F
100
AcDbEntity
  8
0
 62
    38
420
  4728325
370
    -3
100
AcDbSpline
210
0.0
220
0.0
230
1.0
 70
     8
 71
     3
 72
    10
 73
     6
 74
     0
 42
0.000000001
 43
0.00000001
 40
-0.0027222297088704
 40
-0.0027222297088704
 40
-0.0027222297088704
 40
-0.0027222297088704
 40
-0.0014201284664642
 40
-0.0014201284664642
 40
0.0
 40
0.0
 40
0.0
 40
0.0
 10
91.21632788840932
 20
-7.789854896444909
 30
-0.0000000000000018
 10
90.79617400584124
 20
-7.89745903575839
 30
-0.0000000000000018
 10
90.38466400523474
 20
-8.04022651126327
 30
-0.0000000000000018
 10
89.55027269855188
 20
-8.396005604702564
 30
-0.0000000000000019
 10
89.1282478963982
 20
-8.614829696904804
 30
-0.0000000000000019
 10
88.72243143470584
 20
-8.858546713143204
 30
-0.0000000000000019
  0
SPLINE
  5
D0
330
1F
100
AcDbEntity
  8
0
 62
    38
420
  4728325
370
    -3
100
AcDbSpline
210
0.0
220
0.0
230
1.0
 70
     8
 71
     3
 72
    10
 73
     6
 74
     0
 42
0.000000001
 43
0.00000001
 40
-0.002916156604616
 40
-0.002916156604616
 40
-0.002916156604616
 40
-0.002916156604616
 40
-0.0014703463355305
 40
-0.0014703463355305
 40
-0.0000185769497557
 40
-0.0000185769497557
 40
-0.0000185769497557
 40
-0.0000185769497557
 10
88.72243143473274
 20
-8.858546713086351
 30
-0.0000000000000019
 10
88.30927453482255
 20
-9.106672100766447
 30
-0.0000000000000019
 10
87.89872070736217
 20
-9.359242848654308
 30
-0.0000000000000019
 10
87.08170424767312
 20
-9.874386307920146
 30
-0.000000000000002
 10
86.67516691257798
 20
-10.13705820048831
 30
-0.000000000000002
 10
86.27174271419925
 20
-10.40432575003294
 30
-0.000000000000002
  0
SPLINE
  5
D1
330
1F
100
AcDbEntity
  8
0
 62
    38
420
  4728325
370
    -3
100
AcDbSpline
210
0.0
220
0.0
230
1.0
 70
     8
 71
     3
 72
    10
 73
     6
 74
     0
 42
0.000000001
 43
0.00000001
 40
-0.0036865874500292
 40
-0.0036865874500292
 40
-0.0036865874500292
 40
-0.0036865874500292
 40
-0.0019461543002134
 40
-0.0019461543002134
 40
0.0
 40
0.0
 40
0.0
 40
0.0
 10
86.2717427141321
 20
-10.40432574993159
 30
-0.000000000000002
 10
85.78855024139122
 20
-10.72443958897523
 30
-0.000000000000002
 10
85.32804882177507
 20
-11.08214469388951
 30
-0.0000000000000021
 10
84.4057059969804
 20
-11.89335766641684
 30
-0.0000000000000021
 10
83.94655104021702
 20
-12.35631476497553
 30
-0.0000000000000021
 10
83.51609302683725
 20
-12.8416405030907
 30
-0.0000000000000021
  0
SPLINE
  5
D2
330
1F
100
AcDbEntity
  8
0
 62
    38
420
  4728325
370
    -3
100
AcDbSpline
210
0.0
220
0.0
230
1.0
 70
     8
 71
     3
 72
    26
 73
    22
 74
     0
 42
0.000000001
 43
0.00000001
 40
0.0433074507429918
 40
0.0433074507429918
 40
0.0433074507429918
 40
0.0433074507429918
 40
0.0466682435553074
 40
0.0466682435553074
 40
0.0530101292891545
 40
0.0530101292891545
 40
0.0593520150230017
 40
0.0593520150230017
 40
0.0653719514569486
 40
0.0653719514569486
 40
0.0713918878908955
 40
0.0713918878908955
 40
0.0774118243248424
 40
0.0774118243248424
 40
0.0834317607587894
 40
0.0834317607587894
 40
0.0897736464926365
 40
0.0897736464926365
 40
0.0961155322264836
 40
0.0961155322264836
 40
0.0994763250387648
 40
0.0994763250387648
 40
0.0994763250387648
 40
0.0994763250387648
 10
83.51609304254663
 20
-12.84164046255369
 30
-0.0000000000000021
 10
82.72436302632559
 20
-13.73428722446329
 30
-0.0000000000000022
 10
81.986927087139
 20
-14.64097566945931
 30
-0.0000000000000022
 10
80.0441522592499
 20
-17.22667576127305
 30
-0.0000000000000023
 10
78.78830784725703
 20
-19.17828141753777
 30
-0.0000000000000023
 10
76.6400416414084
 20
-23.27149602375734
 30
-0.0000000000000024
 10
75.74799536454739
 20
-25.41330204754889
 30
-0.0000000000000024
 10
74.4576853618919
 20
-29.32667723445723
 30
-0.0000000000000024
 10
73.92061848682289
 20
-31.46314337081808
 30
-0.0000000000000024
 10
73.22234233825228
 20
-35.79647311215858
 30
-0.0000000000000024
 10
73.0612435619299
 20
-37.99335452201756
 30
-0.0000000000000023
 10
73.0612435619299
 20
-42.00664547798218
 30
-0.0000000000000023
 10
73.22234233825229
 20
-44.20352688784115
 30
-0.0000000000000022
 10
73.92061848682292
 20
-48.53685662918165
 30
-0.0000000000000021
 10
74.45768536189193
 20
-50.67332276554249
 30
-0.0000000000000021
 10
75.74799536454745
 20
-54.58669795245082
 30
-0.0000000000000019
 10
76.64004164140846
 20
-56.72850397624237
 30
-0.0000000000000019
 10
78.78830784725713
 20
-60.82171858246194
 30
-0.0000000000000017
 10
80.04415225924997
 20
-62.77332423872665
 30
-0.0000000000000016
 10
81.98692708713219
 20
-65.35902433053121
 30
-0.0000000000000014
 10
82.72436302631539
 20
-66.26571277551353
 30
-0.0000000000000014
 10
83.51609304252722
 20
-67.15835953741428
 30
-0.0000000000000013
  0
SPLINE
  5
D3
330
1F
100
AcDbEntity
  8
0
 62
    38
420
  4728325
370
    -3
100
AcDbSpline
210
0.0
220
0.0
230
1.0
 70
     8
 71
     3
 72
    10
 73
     6
 74
     0
 42
0.000000001
 43
0.00000001
 40
-0.0036831937047241
 40
-0.0036831937047241
 40
-0.0036831937047241
 40
-0.0036831937047241
 40
-0.0017367827862089
 40
-0.0017367827862089
 40
0.0
 40
0.0
 40
0.0
 40
0.0
 10
83.51609302682459
 20
-67.15835949689472
 30
-0.0000000000000013
 10
83.94700462497818
 20
-67.6441966353288
 30
-0.0000000000000013
 10
84.40667546687794
 20
-68.10761998790676
 30
-0.0000000000000013
 10
85.32913470042809
 20
-68.91869844518853
 30
-0.0000000000000012
 10
85.78911918879857
 20
-69.27593733734288
 30
-0.0000000000000012
 10
86.27174271422423
 20
-69.59567425017087
 30
-0.0000000000000011
  0
SPLINE
  5
D4
330
1F
100
AcDbEntity
  8
0
 62
    38
420
  4728325
370
    -3
100
AcDbSpline
210
0.0
220
0.0
230
1.0
 70
     8
 71
     3
 72
    10
 73
     6
 74
     0
 42
0.000000001
 43
0.00000001
 40
-0.0029002756947438
 40
-0.0029002756947438
 40
-0.0029002756947438
 40
-0.0029002756947438
 40
-0.0014477491859303
 40
-0.0014477491859303
 40
-0.0000026861311652
 40
-0.0000026861311652
 40
-0.0000026861311652
 40
-0.0000026861311652
 10
86.27174271425054
 20
-69.5956742501312
 30
-0.0000000000000011
 10
86.67537592462726
 20
-69.86308026961393
 30
-0.0000000000000011
 10
87.08212552345576
 20
-70.12588588531453
 30
-0.0000000000000011
 10
87.89914790163817
 20
-70.64101995719965
 30
-0.000000000000001
 10
88.30948947328902
 20
-70.89345698261558
 30
-0.000000000000001
 10
88.72243143473288
 20
-71.14145328691326
 30
-0.000000000000001
  0
SPLINE
  5
D5
330
1F
100
AcDbEntity
  8
0
 62
    38
420
  4728325
370
    -3
100
AcDbSpline
210
0.0
220
0.0
230
1.0
 70
     8
 71
     3
 72
    10
 73
     6
 74
     0
 42
0.000000001
 43
0.00000001
 40
-0.0027202250523002
 40
-0.0027202250523002
 40
-0.0027202250523002
 40
-0.0027202250523002
 40
-0.0013006750766001
 40
-0.0013006750766001
 40
0.0
 40
0.0
 40
0.0
 40
0.0
 10
88.72243143470598
 20
-71.1414532868564
 30
-0.000000000000001
 10
89.12838153463282
 20
-71.38525056083404
 30
-0.000000000000001
 10
89.55055094480721
 20
-71.60413868918535
 30
-0.0000000000000009
 10
90.3849596873256
 20
-71.95987603784855
 30
-0.0000000000000009
 10
90.7963248947519
 20
-72.1025796078716
 30
-0.0000000000000009
 10
91.21632788840982
 20
-72.21014510355478
 30
-0.0000000000000008
  0
SPLINE
  5
D6
330
1F
100
AcDbEntity
  8
0
 62
    38
420
  4728325
370
    -3
100
AcDbSpline
210
0.0
220
0.0
230
1.0
 70
     8
 71
     3
 72
    10
 73
     6
 74
     0
 42
0.000000001
 43
0.00000001
 40
-0.0038918279430521
 40
-0.0038918279430521
 40
-0.0038918279430521
 40
-0.0038918279430521
 40
-0.0019268273265346
 40
-0.0019268273265346
 40
0.0
 40
0.0
 40
0.0
 40
0.0
 10
91.21632788874315
 20
-72.21014510642425
 30
-0.0000000000000008
 10
91.95229224051533
 20
-72.39416738301576
 30
-0.0000000000000008
 10
92.66764082924813
 20
-72.45808213175727
 30
-0.0000000000000007
 10
94.00921054421966
 20
-72.35043190569706
 30
-0.0000000000000007
 10
94.63841675180714
 20
-72.18333412080133
 30
-0.0000000000000006
 10
95.21598295398815
 20
-71.90237958015965
 30
-0.0000000000000006
  0
SPLINE
  5
D7
330
1F
100
AcDbEntity
  8
0
 62
    38
420
  4728325
370
    -3
100
AcDbSpline
210
0.0
220
0.0
230
1.0
 70
     8
 71
     3
 72
    10
 73
     6
 74
     0
 42
0.000000001
 43
0.00000001
 40
-0.0012113291933168
 40
-0.0012113291933168
 40
-0.0012113291933168
 40
-0.0012113291933168
 40
-0.0007175777768462
 40
-0.0007175777768462
 40
0.0
 40
0.0
 40
0.0
 40
0.0
 10
95.2159829838175
 20
-71.90237956500822
 30
-0.0000000000000006
 10
95.36398948975663
 20
-71.83038244937626
 30
-0.0000000000000006
 10
95.51199770372239
 20
-71.7583816125881
 30
-0.0000000000000006
 10
95.8750876747235
 20
-71.58174376178395
 30
-0.0000000000000006
 10
96.0901918643362
 20
-71.47709255398841
 30
-0.0000000000000006
 10
96.30527737947061
 20
-71.37244401180087
 30
-0.0000000000000006
  0
SPLINE
  5
D8
330
1F
100
AcDbEntity
  8
0
 62
    38
420
  4728325
370
    -3
100
AcDbSpline
210
0.0
220
0.0
230
1.0
 70
     8
 71
     3
 72
    10
 73
     6
 74
     0
 42
0.000000001
 43
0.00000001
 40
-0.0025456384203477
 40
-0.0025456384203477
 40
-0.0025456384203477
 40
-0.0025456384203477
 40
-0.0012576697085579
 40
-0.0012576697085579
 40
-0.0003851575604072
 40
-0.0003851575604072
 40
-0.0003851575604072
 40
-0.0003851575604072
 10
96.3052773794706
 20
-71.37244401180082
 30
-0.0000000000000006
 10
96.5177645252201
 20
-71.74549586896259
 30
-0.0000000000000005
 10
96.73286141727314
 20
-72.11708264813092
 30
-0.0000000000000005
 10
97.09783656463631
 20
-72.73790823987918
 30
-0.0000000000000005
 10
97.24638066646453
 20
-72.98796468505593
 30
-0.0000000000000005
 10
97.39603428154892
 20
-73.23735107223094
 30
-0.0000000000000005
  0
SPLINE
  5
D9
330
1F
100
AcDbEntity
  8
0
 62
    38
420
  4728325
370
    -3
100
AcDbSpline
210
0.0
220
0.0
230
1.0
 70
     8
 71
     3
 72
    10
 73
     6
 74
     0
 42
0.000000001
 43
0.00000001
 40
-0.006232948226161
 40
-0.006232948226161
 40
-0.006232948226161
 40
-0.006232948226161
 40
-0.0030042759531869
 40
-0.0030042759531869
 40
0.0
 40
0.0
 40
0.0
 40
0.0
 10
97.39603428068062
 20
-73.23735107129009
 30
-0.0000000000000005
 10
97.95047259690774
 20
-74.16128043016037
 30
-0.0000000000000004
 10
98.57471252031976
 20
-75.04422885486554
 30
-0.0000000000000004
 10
99.91468658437394
 20
-76.63383904894947
 30
-0.0000000000000003
 10
100.6220382969007
 20
-77.34957804230865
 30
-0.0000000000000002
 10
101.3878974784958
 20
-77.99480077978383
 30
-0.0000000000000002
  0
SPLINE
  5
DA
330
1F
100
AcDbEntity
  8
0
 62
    38
420
  4728325
370
    -3
100
AcDbSpline
210
0.0
220
0.0
230
1.0
 70
     8
 71
     3
 72
    10
 73
     6
 74
     0
 42
0.000000001
 43
0.00000001
 40
-0.0029850712742009
 40
-0.0029850712742009
 40
-0.0029850712742009
 40
-0.0029850712742009
 40
-0.0014583126657438
 40
-0.0014583126657438
 40
0.0
 40
0.0
 40
0.0
 40
0.0
 10
101.3878974747325
 20
-77.99480077545086
 30
-0.0000000000000002
 10
101.7779636332339
 20
-78.32188556231746
 30
-0.0000000000000002
 10
102.1834131700624
 20
-78.63095991115024
 30
-0.0000000000000001
 10
103.0043498671019
 20
-79.19346357265279
 30
-0.0000000000000001
 10
103.4188932993885
 20
-79.44898164449747
 30
0.0
 10
103.8456185753036
 20
-79.68179670727982
 30
0.0
  0
SPLINE
  5
DB
330
1F
100
AcDbEntity
  8
0
 62
    38
420
  4728325
370
    -3
100
AcDbSpline
210
0.0
220
0.0
230
1.0
 70
     8
 71
     3
 72
    10
 73
     6
 74
     0
 42
0.000000001
 43
0.00000001
 40
-0.002728198296679
 40
-0.002728198296679
 40
-0.002728198296679
 40
-0.002728198296679
 40
-0.0013582979955943
 40
-0.0013582979955943
 40
-0.000011756429625
 40
-0.000011756429625
 40
-0.000011756429625
 40
-0.000011756429625
 10
103.8456185978022
 20
-79.68179673602272
 30
0.0
 10
104.2464721935245
 20
-79.90049658859897
 30
0.0
 10
104.6488188778091
 20
-80.11651446371775
 30
0.0
 10
105.4493577387799
 20
-80.53963482166246
 30
0.0000000000000001
 10
105.8475469345732
 20
-80.74684931566699
 30
0.0000000000000001
 10
106.2469832354495
 20
-80.95158036670144
 30
0.0000000000000001
  0
SPLINE
  5
DC
330
1F
100
AcDbEntity
  8
0
 62
    38
420
  4728325
370
    -3
100
AcDbSpline
210
0.0
220
0.0
230
1.0
 70
     8
 71
     3
 72
    10
 73
     6
 74
     0
 42
0.000000001
 43
0.00000001
 40
-0.0028438626785916
 40
-0.0028438626785916
 40
-0.0028438626785916
 40
-0.0028438626785916
 40
-0.0013875939852895
 40
-0.0013875939852895
 40
0.0
 40
0.0
 40
0.0
 40
0.0
 10
106.2469832307455
 20
-80.9515803610863
 30
0.0000000000000001
 10
106.6791188647281
 20
-81.17307146239001
 30
0.0000000000000002
 10
107.1232705637499
 20
-81.37154355555742
 30
0.0000000000000002
 10
108.010100937579
 20
-81.70691505000008
 30
0.0000000000000002
 10
108.4521246891991
 20
-81.84637019647857
 30
0.0000000000000003
 10
108.9009778324459
 20
-81.95802182242491
 30
0.0000000000000003
  0
SPLINE
  5
DD
330
1F
100
AcDbEntity
  8
0
 62
    38
420
  4728325
370
    -3
100
AcDbSpline
210
0.0
220
0.0
230
1.0
 70
     8
 71
     3
 72
    10
 73
     6
 74
     0
 42
0.000000001
 43
0.00000001
 40
0.1275724968293137
 40
0.1275724968293137
 40
0.1275724968293137
 40
0.1275724968293137
 40
0.1316510988587477
 40
0.1316510988587477
 40
0.1331366430206434
 40
0.1331366430206434
 40
0.1331366430206434
 40
0.1331366430206434
 10
108.9009778327265
 20
-81.95802182273725
 30
0.0000000000000003
 10
110.3239310974341
 20
-82.31197956857368
 30
0.0000000000000004
 10
111.776208965936
 20
-82.61779196512931
 30
0.0000000000000005
 10
113.7700516829625
 20
-82.96569626242427
 30
0.0000000000000006
 10
114.3036371119481
 20
-83.05189398380907
 30
0.0000000000000006
 10
114.8375017176908
 20
-83.1314150743417
 30
0.0000000000000006
  0
SPLINE
  5
DE
330
1F
100
AcDbEntity
  8
0
 62
    38
420
  4728325
370
    -3
100
AcDbSpline
210
0.0
220
0.0
230
1.0
 70
     8
 71
     3
 72
    10
 73
     6
 74
     0
 42
0.000000001
 43
0.00000001
 40
-0.0021576420930179
 40
-0.0021576420930179
 40
-0.0021576420930179
 40
-0.0021576420930179
 40
-0.0010782369942132
 40
-0.0010782369942132
 40
0.0
 40
0.0
 40
0.0
 40
0.0
 10
114.8375017176908
 20
-83.13141507434166
 30
0.0000000000000006
 10
115.1933777540011
 20
-83.18442411463708
 30
0.0000000000000007
 10
115.5522188618593
 20
-83.2128422079749
 30
0.0000000000000007
 10
116.2713912517932
 20
-83.21986405033235
 30
0.0000000000000007
 10
116.6303311624836
 20
-83.19850805149888
 30
0.0000000000000007
 10
116.9867921976533
 20
-83.15254334360974
 30
0.0000000000000008
  0
SPLINE
  5
DF
330
1F
100
AcDbEntity
  8
0
 62
    38
420
  4728325
370
    -3
100
AcDbSpline
210
0.0
220
0.0
230
1.0
 70
     8
 71
     3
 72
    10
 73
     6
 74
     0
 42
0.000000001
 43
0.00000001
 40
-0.0019554036882519
 40
-0.0019554036882519
 40
-0.0019554036882519
 40
-0.0019554036882519
 40
-0.0009813592011689
 40
-0.0009813592011689
 40
-0.0000013080081469
 40
-0.0000013080081469
 40
-0.0000013080081469
 40
-0.0000013080081469
 10
116.9867921976755
 20
-83.15254334378238
 30
0.0000000000000008
 10
117.3088075628659
 20
-83.11102031386301
 30
0.0000000000000008
 10
117.6308237457649
 20
-83.06951120258397
 30
0.0000000000000008
 10
118.2768474317717
 20
-82.98626428162422
 30
0.0000000000000008
 10
118.6008529684093
 20
-82.9445268979905
 30
0.0000000000000008
 10
118.9248612891462
 20
-82.90280320652036
 30
0.0000000000000009
  0
SPLINE
  5
E0
330
1F
100
AcDbEntity
  8
0
 62
    38
420
  4728325
370
    -3
100
AcDbSpline
210
0.0
220
0.0
230
1.0
 70
     8
 71
     3
 72
    10
 73
     6
 74
     0
 42
0.000000001
 43
0.00000001
 40
-0.002044446920024
 40
-0.002044446920024
 40
-0.002044446920024
 40
-0.002044446920024
 40
-0.0010264533987661
 40
-0.0010264533987661
 40
0.0
 40
0.0
 40
0.0
 40
0.0
 10
118.9248612891524
 20
-82.90280320603864
 30
0.0000000000000009
 10
119.261390518506
 20
-82.85946715311167
 30
0.0000000000000009
 10
119.5945459137268
 20
-82.7943552925682
 30
0.0000000000000009
 10
120.2536349910232
 20
-82.62120496777597
 30
0.0000000000000009
 10
120.5784228105514
 20
-82.51309474472788
 30
0.0000000000000009
 10
120.8956405967657
 20
-82.3848751133559
 30
0.000000000000001
  0
SPLINE
  5
E1
330
1F
100
AcDbEntity
  8
0
 62
    38
420
  4728325
370
    -3
100
AcDbSpline
210
0.0
220
0.0
230
1.0
 70
     8
 71
     3
 72
    10
 73
     6
 74
     0
 42
0.000000001
 43
0.00000001
 40
-0.0039839323744766
 40
-0.0039839323744766
 40
-0.0039839323744766
 40
-0.0039839323744766
 40
-0.0020235887774369
 40
-0.0020235887774369
 40
0.0
 40
0.0
 40
0.0
 40
0.0
 10
120.8956405995277
 20
-82.384875094254
 30
0.000000000000001
 10
121.5004041030443
 20
-82.13885012800802
 30
0.000000000000001
 10
122.0726443323975
 20
-81.82164194206871
 30
0.000000000000001
 10
123.1545145816772
 20
-81.0526030445265
 30
0.0000000000000011
 10
123.6568005016503
 20
-80.60017942645261
 30
0.0000000000000011
 10
124.1078038247928
 20
-80.09859576080521
 30
0.0000000000000011
  0
SPLINE
  5
E2
330
1F
100
AcDbEntity
  8
0
 62
    38
420
  4728325
370
    -3
100
AcDbSpline
210
0.0
220
0.0
230
1.0
 70
     8
 71
     3
 72
    10
 73
     6
 74
     0
 42
0.000000001
 43
0.00000001
 40
-0.0013366082854343
 40
-0.0013366082854343
 40
-0.0013366082854343
 40
-0.0013366082854343
 40
-0.0007778906043685
 40
-0.0007778906043685
 40
0.0
 40
0.0
 40
0.0
 40
0.0
 10
124.107803827238
 20
-80.09859577647936
 30
0.0000000000000011
 10
124.2323329522873
 20
-79.96010061957425
 30
0.0000000000000011
 10
124.356780337103
 20
-79.82152202014719
 30
0.0000000000000011
 10
124.6542530090199
 20
-79.48984140507547
 30
0.0000000000000011
 10
124.8272277350784
 20
-79.29662715739939
 30
0.0000000000000011
 10
125.0000000000001
 20
-79.10327615457769
 30
0.0000000000000011
  0
SPLINE
  5
E3
330
1F
100
AcDbEntity
  8
0
 62
    38
420
  4728325
370
    -3
100
AcDbSpline
210
0.0
220
0.0
230
1.0
 70
     8
 71
     3
 72
    10
 73
     6
 74
     0
 42
0.000000001
 43
0.00000001
 40
-0.0015539665529607
 40
-0.0015539665529607
 40
-0.0015539665529607
 40
-0.0015539665529607
 40
-0.0007760391292397
 40
-0.0007760391292397
 40
-0.0002173608628466
 40
-0.0002173608628466
 40
-0.0002173608628466
 40
-0.0002173608628466
 10
125.0000000000001
 20
-79.10327615457763
 30
0.0000000000000011
 10
125.1727807770154
 20
-79.2966366833603
 30
0.0000000000000012
 10
125.3457640361872
 20
-79.48986044471876
 30
0.0000000000000012
 10
125.64323673552
 20
-79.82154103138988
 30
0.0000000000000012
 10
125.7676755930629
 20
-79.96011011111962
 30
0.0000000000000012
 10
125.8921961744657
 20
-80.09859576623515
 30
0.0000000000000012
  0
SPLINE
  5
E4
330
1F
100
AcDbEntity
  8
0
 62
    38
420
  4728325
370
    -3
100
AcDbSpline
210
0.0
220
0.0
230
1.0
 70
     8
 71
     3
 72
    10
 73
     6
 74
     0
 42
0.000000001
 43
0.00000001
 40
-0.0039805379325706
 40
-0.0039805379325706
 40
-0.0039805379325706
 40
-0.0039805379325706
 40
-0.0019582140418667
 40
-0.0019582140418667
 40
0.0
 40
0.0
 40
0.0
 40
0.0
 10
125.8921961749229
 20
-80.09859576778365
 30
0.0000000000000012
 10
126.3433020693813
 20
-80.60029351593144
 30
0.0000000000000012
 10
126.845713474727
 20
-81.0528083966387
 30
0.0000000000000013
 10
127.9276238543982
 20
-81.82179075610584
 30
0.0000000000000013
 10
128.499737979636
 20
-82.13890794320082
 30
0.0000000000000014
 10
129.1043594032105
 20
-82.38487511380988
 30
0.0000000000000014
  0
SPLINE
  5
E5
330
1F
100
AcDbEntity
  8
0
 62
    38
420
  4728325
370
    -3
100
AcDbSpline
210
0.0
220
0.0
230
1.0
 70
     8
 71
     3
 72
    10
 73
     6
 74
     0
 42
0.000000001
 43
0.00000001
 40
-0.0020443074475236
 40
-0.0020443074475236
 40
-0.0020443074475236
 40
-0.0020443074475236
 40
-0.0010179145371076
 40
-0.0010179145371076
 40
0.0
 40
0.0
 40
0.0
 40
0.0
 10
129.1043594032347
 20
-82.38487511330794
 30
0.0000000000000014
 10
129.4215801354395
 20
-82.51309593545129
 30
0.0000000000000014
 10
129.7463710390308
 20
-82.62120697473415
 30
0.0000000000000015
 10
130.4054603239728
 20
-82.79435651207685
 30
0.0000000000000015
 10
130.7386126345547
 20
-82.85946755915465
 30
0.0000000000000015
 10
131.0751387108479
 20
-82.90280320605093
 30
0.0000000000000015
  0
SPLINE
  5
E6
330
1F
100
AcDbEntity
  8
0
 62
    38
420
  4728325
370
    -3
100
AcDbSpline
210
0.0
220
0.0
230
1.0
 70
     8
 71
     3
 72
    10
 73
     6
 74
     0
 42
0.000000001
 43
0.00000001
 40
-0.0019611900374358
 40
-0.0019611900374358
 40
-0.0019611900374358
 40
-0.0019611900374358
 40
-0.0009811368560768
 40
-0.0009811368560768
 40
-0.0000070944224534
 40
-0.0000070944224534
 40
-0.0000070944224534
 40
-0.0000070944224534
 10
131.0751387108538
 20
-82.90280320652029
 30
0.0000000000000015
 10
131.3991476998481
 20
-82.94452698404427
 30
0.0000000000000015
 10
131.7231539046189
 20
-82.98626445377387
 30
0.0000000000000016
 10
132.369177590657
 20
-83.0695113748538
 30
0.0000000000000016
 10
132.6911931053417
 20
-83.11102040002476
 30
0.0000000000000016
 10
133.0132078023268
 20
-83.15254334378083
 30
0.0000000000000016
  0
SPLINE
  5
E7
330
1F
100
AcDbEntity
  8
0
 62
    38
420
  4728325
370
    -3
100
AcDbSpline
210
0.0
220
0.0
230
1.0
 70
     8
 71
     3
 72
    10
 73
     6
 74
     0
 42
0.000000001
 43
0.00000001
 40
-0.0021576458184035
 40
-0.0021576458184035
 40
-0.0021576458184035
 40
-0.0021576458184035
 40
-0.0010794050454675
 40
-0.0010794050454675
 40
0.0
 40
0.0
 40
0.0
 40
0.0
 10
133.013207802562
 20
-83.1525433419567
 30
0.0000000000000016
 10
133.3696694812821
 20
-83.19850813280608
 30
0.0000000000000017
 10
133.728610031342
 20
-83.2198641240644
 30
0.0000000000000017
 10
134.4477824154436
 20
-83.21284210465315
 30
0.0000000000000017
 10
134.8066228798556
 20
-83.18442401796348
 30
0.0000000000000017
 10
135.1624982820757
 20
-83.13141507214323
 30
0.0000000000000018
  0
SPLINE
  5
E8
330
1F
100
AcDbEntity
  8
0
 62
    38
420
  4728325
370
    -3
100
AcDbSpline
210
0.0
220
0.0
230
1.0
 70
     8
 71
     3
 72
    10
 73
     6
 74
     0
 42
0.000000001
 43
0.00000001
 40
0.1524309085430225
 40
0.1524309085430225
 40
0.1524309085430225
 40
0.1524309085430225
 40
0.1539164527048344
 40
0.1539164527048344
 40
0.1579950547342634
 40
0.1579950547342634
 40
0.1579950547342634
 40
0.1579950547342634
 10
135.1624982820757
 20
-83.13141507214326
 30
0.0000000000000018
 10
135.6963628877881
 20
-83.05189398161298
 30
0.0000000000000018
 10
136.2299483170678
 20
-82.965696262419
 30
0.0000000000000018
 10
138.2237910340625
 20
-82.61779196512958
 30
0.0000000000000019
 10
139.6760689025658
 20
-82.31197956858763
 30
0.000000000000002
 10
141.0990221672718
 20
-81.95802182275177
 30
0.0000000000000021
  0
SPLINE
  5
E9
330
1F
100
AcDbEntity
  8
0
 62
    38
420
  4728325
370
    -3
100
AcDbSpline
210
0.0
220
0.0
230
1.0
 70
     8
 71
     3
 72
    10
 73
     6
 74
     0
 42
0.000000001
 43
0.00000001
 40
-0.0028448527417661
 40
-0.0028448527417661
 40
-0.0028448527417661
 40
-0.0028448527417661
 40
-0.0014561404059291
 40
-0.0014561404059291
 40
0.0
 40
0.0
 40
0.0
 40
0.0
 10
141.0990221675523
 20
-81.95802182243938
 30
0.0000000000000021
 10
141.5480807030888
 20
-81.84631910541621
 30
0.0000000000000021
 10
141.9903036058502
 20
-81.70678742325862
 30
0.0000000000000021
 10
142.877116927745
 20
-81.37137039250956
 30
0.0000000000000022
 10
143.3210696069166
 20
-81.17297486125877
 30
0.0000000000000022
 10
143.7530167692514
 20
-80.95158036109198
 30
0.0000000000000022
  0
SPLINE
  5
EA
330
1F
100
AcDbEntity
  8
0
 62
    38
420
  4728325
370
    -3
100
AcDbSpline
210
0.0
220
0.0
230
1.0
 70
     8
 71
     3
 72
    10
 73
     6
 74
     0
 42
0.000000001
 43
0.00000001
 40
-0.002718575516404
 40
-0.002718575516404
 40
-0.002718575516404
 40
-0.002718575516404
 40
-0.0013714676523165
 40
-0.0013714676523165
 40
-0.0000021397486092
 40
-0.0000021397486092
 40
-0.0000021397486092
 40
-0.0000021397486092
 10
143.7530167645566
 20
-80.95158036672498
 30
0.0000000000000022
 10
144.1526219492695
 20
-80.74676275429017
 30
0.0000000000000022
 10
144.5509789830879
 20
-80.5394595937852
 30
0.0000000000000022
 10
145.3515155560404
 20
-80.11633490719531
 30
0.0000000000000023
 10
145.7536943984682
 20
-79.90040569844706
 30
0.0000000000000023
 10
146.1543814021978
 20
-79.68179673602282
 30
0.0000000000000023
  0
SPLINE
  5
EB
330
1F
100
AcDbEntity
  8
0
 62
    38
420
  4728325
370
    -3
100
AcDbSpline
210
0.0
220
0.0
230
1.0
 70
     8
 71
     3
 72
    10
 73
     6
 74
     0
 42
0.000000001
 43
0.00000001
 40
-0.0029858603068362
 40
-0.0029858603068362
 40
-0.0029858603068362
 40
-0.0029858603068362
 40
-0.0015263821937914
 40
-0.0015263821937914
 40
0.0
 40
0.0
 40
0.0
 40
0.0
 10
146.1543814248325
 20
-79.6817967071081
 30
0.0000000000000023
 10
146.5813348385764
 20
-79.44885717566659
 30
0.0000000000000023
 10
146.9960934329679
 20
-79.19319033305287
 30
0.0000000000000024
 10
147.8170011166567
 20
-78.6306440860713
 30
0.0000000000000024
 10
148.2222356124471
 20
-78.3217184875015
 30
0.0000000000000024
 10
148.6121025252704
 20
-77.99480077544703
 30
0.0000000000000024
  0
SPLINE
  5
EC
330
1F
100
AcDbEntity
  8
0
 62
    38
420
  4728325
370
    -3
100
AcDbSpline
210
0.0
220
0.0
230
1.0
 70
     8
 71
     3
 72
    10
 73
     6
 74
     0
 42
0.000000001
 43
0.00000001
 40
-0.0062404337046595
 40
-0.0062404337046595
 40
-0.0062404337046595
 40
-0.0062404337046595
 40
-0.0032210296980269
 40
-0.0032210296980269
 40
0.0
 40
0.0
 40
0.0
 40
0.0
 10
148.6121025156468
 20
-77.99480077844356
 30
0.0000000000000024
 10
149.3808927668504
 20
-77.34710863864817
 30
0.0000000000000025
 10
150.0907273544044
 20
-76.62836005860733
 30
0.0000000000000025
 10
151.4297400942577
 20
-75.0379287942968
 30
0.0000000000000025
 10
152.051504566864
 20
-74.15798563025479
 30
0.0000000000000026
 10
152.6039657345443
 20
-73.2373510520414
 30
0.0000000000000026
  0
SPLINE
  5
ED
330
1F
100
AcDbEntity
  8
0
 62
    38
420
  4728325
370
    -3
100
AcDbSpline
210
0.0
220
0.0
230
1.0
 70
     8
 71
     3
 72
    10
 73
     6
 74
     0
 42
0.000000001
 43
0.00000001
 40
-0.002160482697361
 40
-0.002160482697361
 40
-0.002160482697361
 40
-0.002160482697361
 40
-0.0012874298258706
 40
-0.0012874298258706
 40
0.0
 40
0.0
 40
0.0
 40
0.0
 10
152.6039657372637
 20
-73.2373510405547
 30
0.0000000000000026
 10
152.7537119691032
 20
-72.98781031435016
 30
0.0000000000000026
 10
152.9023473163493
 20
-72.7375986969203
 30
0.0000000000000026
 10
153.2673189518669
 20
-72.11677105349902
 30
0.0000000000000026
 10
153.4823245634007
 20
-71.74533946102868
 30
0.0000000000000026
 10
153.6947226205293
 20
-71.37244401180091
 30
0.0000000000000026
  0
SPLINE
  5
EE
330
1F
100
AcDbEntity
  8
0
 62
    38
420
  4728325
370
    -3
100
AcDbSpline
210
0.0
220
0.0
230
1.0
 70
     8
 71
     3
 72
    10
 73
     6
 74
     0
 42
0.000000001
 43
0.00000001
 40
-0.0014351745372675
 40
-0.0014351745372675
 40
-0.0014351745372675
 40
-0.0014351745372675
 40
-0.0007175858898601
 40
-0.0007175858898601
 40
-0.0002238462090952
 40
-0.0002238462090952
 40
-0.0002238462090952
 40
-0.0002238462090952
 10
153.6947226205293
 20
-71.37244401180091
 30
0.0000000000000026
 10
153.9098115515464
 20
-71.47709421596525
 30
0.0000000000000026
 10
154.1249191579201
 20
-71.58174708596107
 30
0.0000000000000026
 10
154.4880091363873
 20
-71.75838494006327
 30
0.0000000000000027
 10
154.6360139410566
 20
-71.83038411828484
 30
0.0000000000000027
 10
154.7840170389743
 20
-71.90237957609942
 30
0.0000000000000027
  0
SPLINE
  5
EF
330
1F
100
AcDbEntity
  8
0
 62
    38
420
  4728325
370
    -3
100
AcDbSpline
210
0.0
220
0.0
230
1.0
 70
     8
 71
     3
 72
    10
 73
     6
 74
     0
 42
0.000000001
 43
0.00000001
 40
-0.0045076757039195
 40
-0.0045076757039195
 40
-0.0045076757039195
 40
-0.0045076757039195
 40
-0.0022750445105974
 40
-0.0022750445105974
 40
0.0
 40
0.0
 40
0.0
 40
0.0
 10
154.7840170403702
 20
-71.90237956973078
 30
0.0000000000000027
 10
155.3618169415185
 20
-72.18344779606967
 30
0.0000000000000027
 10
155.9912933197719
 20
-72.35056453732507
 30
0.0000000000000028
 10
157.3328957618798
 20
-72.45803102172434
 30
0.0000000000000028
 10
158.0479736141398
 20
-72.39410088639293
 30
0.0000000000000029
 10
158.7836720659848
 20
-72.21014508953624
 30
0.0000000000000029
  0
SPLINE
  5
F0
330
1F
100
AcDbEntity
  8
0
 62
    38
420
  4728325
370
    -3
100
AcDbSpline
210
0.0
220
0.0
230
1.0
 70
     8
 71
     3
 72
    10
 73
     6
 74
     0
 42
0.000000001
 43
0.00000001
 40
-0.0027222297167505
 40
-0.0027222297167505
 40
-0.0027222297167505
 40
-0.0027222297167505
 40
-0.0014201284710165
 40
-0.0014201284710165
 40
0.0
 40
0.0
 40
0.0
 40
0.0
 10
158.7836721115905
 20
-72.21014510355496
 30
0.0000000000000029
 10
159.2038259945043
 20
-72.10254096415295
 30
0.0000000000000029
 10
159.6153359955575
 20
-71.95977348832864
 30
0.0000000000000029
 10
160.4497273007592
 20
-71.60399439552943
 30
0.000000000000003
 10
160.8717521022645
 20
-71.3851703039531
 30
0.000000000000003
 10
161.2775685652578
 20
-71.14145328693346
 30
0.000000000000003
  0
SPLINE
  5
F1
330
1F
100
AcDbEntity
  8
0
 62
    38
420
  4728325
370
    -3
100
AcDbSpline
210
0.0
220
0.0
230
1.0
 70
     8
 71
     3
 72
    10
 73
     6
 74
     0
 42
0.000000001
 43
0.00000001
 40
-0.0029161566035477
 40
-0.0029161566035477
 40
-0.0029161566035477
 40
-0.0029161566035477
 40
-0.0014703463348738
 40
-0.0014703463348738
 40
-0.0000185769496993
 40
-0.0000185769496993
 40
-0.0000185769496993
 40
-0.0000185769496993
 10
161.2775685652671
 20
-71.14145328691335
 30
0.000000000000003
 10
161.6907254649055
 20
-70.89332789939648
 30
0.000000000000003
 10
162.1012792928509
 20
-70.64075715121082
 30
0.0000000000000031
 10
162.9182957519415
 20
-70.12561369232354
 30
0.0000000000000031
 10
163.3248330875318
 20
-69.86294179948909
 30
0.0000000000000031
 10
163.7282572857602
 20
-69.59567425004509
 30
0.0000000000000031
  0
LINE
  5
F2
330
1F
100
AcDbEntity
  8
0
 62
    38
420
  4728325
370
    -3
100
AcDbLine
 10
142.2767606997406
 20
-4.999999999999711
 30
0.0
 11
142.2767606997405
 21
-1.499999999999708
 31
0.0
  0
LINE
  5
F3
330
1F
100
AcDbEntity
  8
0
 62
    38
420
  4728325
370
    -3
100
AcDbLine
 10
115.723239300051
 20
-4.999999999999758
 30
0.0
 11
115.7232393000509
 21
-1.499999999999755
 31
0.0
  0
LINE
  5
F4
330
1F
100
AcDbEntity
  8
0
 62
    38
420
  4728325
370
    -3
100
AcDbLine
 10
107.7232393000509
 20
-1.499999999999866
 30
0.0
 11
107.7232393000509
 21
-4.999999999999869
 31
0.0
  0
LINE
  5
F5
330
1F
100
AcDbEntity
  8
0
 62
    38
420
  4728325
370
    -3
100
AcDbLine
 10
142.2767606997407
 20
-78.99999999999969
 30
0.0
 11
142.2767606997407
 21
-75.49999999999967
 31
0.0
  0
LINE
  5
F6
330
1F
100
AcDbEntity
  8
0
 62
    38
420
  4728325
370
    -3
100
AcDbLine
 10
134.2767606997406
 20
-75.49999999999979
 30
0.0
 11
134.2767606997407
 21
-78.99999999999979
 31
0.0
  0
LINE
  5
F7
330
1F
100
AcDbEntity
  8
0
 62
    38
420
  4728325
370
    -3
100
AcDbLine
 10
115.7232393002598
 20
-78.99999999999974
 30
0.0
 11
115.7232393002597
 21
-75.49999999999973
 31
0.0
  0
LINE
  5
F8
330
1F
100
AcDbEntity
  8
0
 62
    38
420
  4728325
370
    -3
100
AcDbLine
 10
107.7232393002597
 20
-75.49999999999984
 30
0.0
 11
107.7232393002598
 21
-78.99999999999984
 31
0.0
  0
LINE
  5
F9
330
1F
100
AcDbEntity
  8
0
 62
    38
420
  4728325
370
    -3
100
AcDbLine
 10
127.2928932188134
 20
-2.292893218771898
 30
0.0
 11
130.5857864376269
 21
1.00000000004156
 31
0.0
  0
LINE
  5
FA
330
1F
100
AcDbEntity
  8
0
 62
    38
420
  4728325
370
    -3
100
AcDbLine
 10
131.7071067811866
 20
-0.2928932187719014
 30
0.0
 11
133.7071067811866
 21
-2.292893218771893
 31
0.0
  0
LINE
  5
FB
330
1F
100
AcDbEntity
  8
0
 62
    38
420
  4728325
370
    -3
100
AcDbLine
 10
133.0
 20
-2.999999999958432
 30
0.0
 11
133.7071067811866
 21
-2.292893218771865
 31
0.0
  0
LINE
  5
FC
330
1F
100
AcDbEntity
  8
0
 62
    38
420
  4728325
370
    -3
100
AcDbLine
 10
130.9999999999999
 20
-0.9999999999584269
 30
0.0
 11
133.0
 21
-2.999999999958426
 31
0.0
  0
LINE
  5
FD
330
1F
100
AcDbEntity
  8
0
 62
    38
420
  4728325
370
    -3
100
AcDbLine
 10
131.0
 20
-4.970670186404767
 30
0.0
 11
130.9999999999999
 21
-0.9999999999584344
 31
0.0
  0
LINE
  5
FE
330
1F
100
AcDbEntity
  8
0
 62
    38
420
  4728325
370
    -3
100
AcDbLine
 10
130.0
 20
-4.999999999958426
 30
0.0
 11
131.0
 21
-4.97067018640476
 31
0.0
  0
LINE
  5
FF
330
1F
100
AcDbEntity
  8
0
 62
    38
420
  4728325
370
    -3
100
AcDbLine
 10
130.0
 20
-4.999999999958432
 30
0.0
 11
130.0
 21
-0.999999999958436
 31
0.0
  0
LINE
  5
100
330
1F
100
AcDbEntity
  8
0
 62
    38
420
  4728325
370
    -3
100
AcDbLine
 10
130.0
 20
-0.9999999999584287
 30
0.0
 11
128.0
 21
-2.999999999958448
 31
0.0
  0
LINE
  5
101
330
1F
100
AcDbEntity
  8
0
 62
    38
420
  4728325
370
    -3
100
AcDbLine
 10
127.2928932188134
 20
-2.292893218771884
 30
0.0
 11
128.0
 21
-2.999999999958427
 31
0.0
  0
ARC
  5
102
330
1F
100
AcDbEntity
  8
0
 62
    38
420
  4728325
370
    -3
100
AcDbCircle
 10
124.9999999114039
 20
-77.81944601030185
 30
0.0000000000000011
 40
72.81944601030217
100
AcDbArc
 50
63.73097917428279
 51
119.6290066452417
  0
SPLINE
  5
103
330
1F
100
AcDbEntity
  8
0
 62
    38
420
  4728325
370
    -3
100
AcDbSpline
210
0.0
220
0.0
230
1.0
 70
     8
 71
     3
 72
     8
 73
     4
 74
     0
 42
0.000000001
 43
0.00000001
 40
-0.0038582639850475
 40
-0.0038582639850475
 40
-0.0038582639850475
 40
-0.0038582639850475
 40
-0.0028188410366275
 40
-0.0028188410366275
 40
-0.0028188410366275
 40
-0.0028188410366275
 10
157.5720606778137
 20
-12.57774144346822
 30
0.000000000000002
 10
157.4327728607028
 20
-12.5436582582365
 30
0.000000000000002
 10
157.3187789045364
 20
-12.52717426418229
 30
0.0000000000000019
 10
157.2288968151845
 20
-12.52036545312415
 30
0.0000000000000019
  0
SPLINE
  5
104
330
1F
100
AcDbEntity
  8
0
 62
    38
420
  4728325
370
    -3
100
AcDbSpline
210
0.0
220
0.0
230
1.0
 70
     8
 71
     3
 72
    10
 73
     6
 74
     0
 42
0.000000001
 43
0.00000001
 40
-0.002720225159359
 40
-0.002720225159359
 40
-0.002720225159359
 40
-0.002720225159359
 40
-0.0012991226295955
 40
-0.0012991226295955
 40
-0.0000384558608845
 40
-0.0000384558608845
 40
-0.0000384558608845
 40
-0.0000384558608845
 10
158.734857089319
 20
-13.09244958214924
 30
0.000000000000002
 10
158.505718261128
 20
-12.95483803411451
 30
0.000000000000002
 10
158.2829944204338
 20
-12.8410511907833
 30
0.000000000000002
 10
157.8932268376832
 20
-12.67495609541246
 30
0.000000000000002
 10
157.7222997519139
 20
-12.61700785909697
 30
0.000000000000002
 10
157.5720606778137
 20
-12.57774144346822
 30
0.000000000000002
  0
SPLINE
  5
105
330
1F
100
AcDbEntity
  8
0
 62
    38
420
  4728325
370
    -3
100
AcDbSpline
210
0.0
220
0.0
230
1.0
 70
     8
 71
     3
 72
    18
 73
    14
 74
     0
 42
0.000000001
 43
0.00000001
 40
-0.0029002778854147
 40
-0.0029002778854147
 40
-0.0029002778854147
 40
-0.0029002778854147
 40
-0.0025489258596247
 40
-0.0025489258596247
 40
-0.0023168361576612
 40
-0.0023168361576612
 40
-0.0015130495829631
 40
-0.0015130495829631
 40
-0.0009973841258121
 40
-0.0009973841258121
 40
-0.000507998542239
 40
-0.000507998542239
 40
-0.0000026861311668
 40
-0.0000026861311668
 40
-0.0000026861311668
 40
-0.0000026861311668
 10
161.0006230997298
 20
-14.52152456035354
 30
0.0000000000000022
 10
160.9106077858273
 20
-14.46188963408894
 30
0.0000000000000022
 10
160.8203924127903
 20
-14.40248171680533
 30
0.0000000000000022
 10
160.6702590917518
 20
-14.30420879451101
 30
0.0000000000000022
 10
160.6104515038205
 20
-14.26521562020266
 30
0.0000000000000022
 10
160.3431389838815
 20
-14.09162232429555
 30
0.0000000000000021
 10
160.1347083188393
 20
-13.95811421694336
 30
0.0000000000000021
 10
159.7909862696029
 20
-13.74091709016972
 30
0.0000000000000021
 10
159.6562531087328
 20
-13.6565208654845
 30
0.0000000000000021
 10
159.3928824637221
 20
-13.49297333507701
 30
0.0000000000000021
 10
159.2642864461047
 20
-13.41377531553217
 30
0.0000000000000021
 10
159.0022122608308
 20
-13.25369269747289
 30
0.000000000000002
 10
158.868711407904
 20
-13.17283709279422
 30
0.000000000000002
 10
158.7348570892844
 20
-13.09244958212368
 30
0.000000000000002
  0
SPLINE
  5
106
330
1F
100
AcDbEntity
  8
0
 62
    38
420
  4728325
370
    -3
100
AcDbSpline
210
0.0
220
0.0
230
1.0
 70
     8
 71
     3
 72
    10
 73
     6
 74
     0
 42
0.000000001
 43
0.00000001
 40
-0.003683199267521
 40
-0.003683199267521
 40
-0.003683199267521
 40
-0.003683199267521
 40
-0.0017291341871671
 40
-0.0017291341871671
 40
0.0
 40
0.0
 40
0.0
 40
0.0
 10
162.7890730947568
 20
-16.11876084960882
 30
0.0000000000000023
 10
162.4793678894807
 20
-15.76957950630298
 30
0.0000000000000023
 10
162.1600826634866
 20
-15.44970004181213
 30
0.0000000000000023
 10
161.5585653036326
 20
-14.92138891116668
 30
0.0000000000000022
 10
161.2743984458329
 20
-14.70290016577296
 30
0.0000000000000022
 10
161.0006230372132
 20
-14.52152462282642
 30
0.0000000000000022
  0
SPLINE
  5
107
330
1F
100
AcDbEntity
  8
0
 62
    38
420
  4728325
370
    -3
100
AcDbSpline
210
0.0
220
0.0
230
1.0
 70
     8
 71
     3
 72
    28
 73
    24
 74
     0
 42
0.000000001
 43
0.00000001
 40
-0.0994763250387657
 40
-0.0994763250387657
 40
-0.0994763250387657
 40
-0.0994763250387657
 40
-0.0926654802255744
 40
-0.0926654802255744
 40
-0.0881664967936189
 40
-0.0881664967936189
 40
-0.0842712114235646
 40
-0.0842712114235646
 40
-0.0803759260535103
 40
-0.0803759260535103
 40
-0.076480640683456
 40
-0.076480640683456
 40
-0.0725853553134017
 40
-0.0725853553134017
 40
-0.0625893480432517
 40
-0.0625893480432517
 40
-0.0578460578117024
 40
-0.0578460578117024
 40
-0.053102767580153
 40
-0.053102767580153
 40
-0.048205109161572
 40
-0.048205109161572
 40
-0.043307450742991
 40
-0.043307450742991
 40
-0.043307450742991
 40
-0.043307450742991
 10
162.7890730795456
 20
-63.88123916834168
 30
0.000000000000003
 10
164.2106526314903
 20
-62.27845999115
 30
0.0000000000000031
 10
165.3928909920068
 20
-60.70517938734123
 30
0.0000000000000031
 10
167.2873169217511
 20
-57.67690621251608
 30
0.0000000000000032
 10
167.9888077526645
 20
-56.39590113915994
 30
0.0000000000000032
 10
169.1307517288986
 20
-53.97476162875638
 30
0.0000000000000032
 10
169.5900762588823
 20
-52.85014061900139
 30
0.0000000000000032
 10
170.3750515388728
 20
-50.62703046367423
 30
0.0000000000000032
 10
170.7040869821742
 20
-49.52973789513472
 30
0.0000000000000032
 10
171.2801593385686
 20
-47.17419610900659
 30
0.0000000000000032
 10
171.516666647848
 20
-45.93522275260695
 30
0.0000000000000032
 10
171.8502232898473
 20
-43.46823736552756
 30
0.0000000000000032
 10
171.9481272769908
 20
-42.24034096650593
 30
0.0000000000000032
 10
172.0754949536174
 20
-38.04632795416761
 30
0.0000000000000031
 10
171.7635229379982
 20
-34.86787899868959
 30
0.0000000000000031
 10
170.6853308273206
 20
-30.36499461958722
 30
0.0000000000000029
 10
170.281072771118
 20
-29.04869898921899
 30
0.0000000000000029
 10
169.2722491297828
 20
-26.33856099035089
 30
0.0000000000000028
 10
168.6580428926663
 20
-24.94831703282729
 30
0.0000000000000028
 10
167.2272644168581
 20
-22.20584310102798
 30
0.0000000000000026
 10
166.4056858379385
 20
-20.85875101002855
 30
0.0000000000000026
 10
164.6933364665173
 20
-18.39452495848187
 30
0.0000000000000024
 10
163.8113267427978
 20
-17.27131461102539
 30
0.0000000000000024
 10
162.7890730795239
 20
-16.11876083163326
 30
0.0000000000000023
  0
SPLINE
  5
108
330
1F
100
AcDbEntity
  8
0
 62
    38
420
  4728325
370
    -3
100
AcDbSpline
210
0.0
220
0.0
230
1.0
 70
     8
 71
     3
 72
    10
 73
     6
 74
     0
 42
0.000000001
 43
0.00000001
 40
-0.0036865741141374
 40
-0.0036865741141374
 40
-0.0036865741141374
 40
-0.0036865741141374
 40
-0.0019253777609885
 40
-0.0019253777609885
 40
0.0
 40
0.0
 40
0.0
 40
0.0
 10
161.0006230371194
 20
-65.47847537718984
 30
0.0000000000000029
 10
161.2792176725379
 20
-65.2939071082034
 30
0.0000000000000029
 10
161.5685716422059
 20
-65.07089115473744
 30
0.000000000000003
 10
162.1700645873191
 20
-64.54030482678542
 30
0.000000000000003
 10
162.4841955480862
 20
-64.22497748438283
 30
0.000000000000003
 10
162.7890730947682
 20
-63.88123915037777
 30
0.000000000000003
  0
ARC
  5
109
330
1F
100
AcDbEntity
  8
0
 62
    38
420
  4728325
370
    -3
100
AcDbCircle
 10
124.9999999137837
 20
-2.180553989786568
 30
0.0
 40
72.81944601021311
100
AcDbArc
 50
240.3709933578771
 51
299.6290067600953
  0
SPLINE
  5
10A
330
1F
100
AcDbEntity
  8
0
 62
    38
420
  4728325
370
    -3
100
AcDbSpline
210
0.0
220
0.0
230
1.0
 70
     8
 71
     3
 72
    10
 73
     6
 74
     0
 42
0.000000001
 43
0.00000001
 40
-0.0036832022706926
 40
-0.0036832022706926
 40
-0.0036832022706926
 40
-0.0036832022706926
 40
-0.0017246446066263
 40
-0.0017246446066263
 40
0.0
 40
0.0
 40
0.0
 40
0.0
 10
87.21092690522647
 20
-63.8812391503723
 30
-0.0000000000000012
 10
87.52134410964281
 20
-64.23122324678617
 30
-0.0000000000000012
 10
87.84139008760518
 20
-64.55177294357573
 30
-0.0000000000000011
 10
88.44291012440887
 20
-65.07974774728744
 30
-0.0000000000000011
 10
88.72631239360945
 20
-65.29757076357953
 30
-0.0000000000000011
 10
88.99937696292199
 20
-65.47847537721726
 30
-0.0000000000000011
  0
SPLINE
  5
10B
330
1F
100
AcDbEntity
  8
0
 62
    38
420
  4728325
370
    -3
100
AcDbSpline
210
0.0
220
0.0
230
1.0
 70
     8
 71
     3
 72
    28
 73
    24
 74
     0
 42
0.000000001
 43
0.00000001
 40
-0.24226010082059
 40
-0.24226010082059
 40
-0.24226010082059
 40
-0.24226010082059
 40
-0.2354492560073991
 40
-0.2354492560073991
 40
-0.2309502725754439
 40
-0.2309502725754439
 40
-0.2270549872053899
 40
-0.2270549872053899
 40
-0.2231597018353358
 40
-0.2231597018353358
 40
-0.2192644164652817
 40
-0.2192644164652817
 40
-0.2153691310952277
 40
-0.2153691310952277
 40
-0.2053731238250783
 40
-0.2053731238250783
 40
-0.2006298335935293
 40
-0.2006298335935293
 40
-0.1958865433619803
 40
-0.1958865433619803
 40
-0.1909888849433996
 40
-0.1909888849433996
 40
-0.1860912265248188
 40
-0.1860912265248188
 40
-0.1860912265248188
 40
-0.1860912265248188
 10
87.21092692047492
 20
-16.11876083163428
 30
-0.0000000000000019
 10
85.78934736852835
 20
-17.72154000882542
 30
-0.0000000000000019
 10
84.60710900801082
 20
-19.29482061263302
 30
-0.000000000000002
 10
82.71268307826483
 20
-22.32309378745511
 30
-0.000000000000002
 10
82.01119224735034
 20
-23.60409886081046
 30
-0.0000000000000021
 10
80.86924827111389
 20
-26.02523837121341
 30
-0.0000000000000021
 10
80.40992374112858
 20
-27.1498593809694
 30
-0.0000000000000021
 10
79.62494846113613
 20
-29.37296953629591
 30
-0.0000000000000021
 10
79.29591301783424
 20
-30.47026210483373
 30
-0.0000000000000021
 10
78.71984066143771
 20
-32.82580389096098
 30
-0.0000000000000021
 10
78.48333335215726
 20
-34.06477724735979
 30
-0.0000000000000021
 10
78.14977671015565
 20
-36.53176263443884
 30
-0.0000000000000021
 10
78.05187272301099
 20
-37.759659033461
 30
-0.0000000000000021
 10
77.92450504638045
 20
-41.9536720458025
 30
-0.000000000000002
 10
78.23647706199633
 20
-45.13212100127535
 30
-0.0000000000000019
 10
79.31466917267004
 20
-49.63500538038054
 30
-0.0000000000000018
 10
79.71892722887169
 20
-50.95130101074974
 30
-0.0000000000000018
 10
80.7277508702041
 20
-53.66143900961794
 30
-0.0000000000000017
 10
81.34195710731868
 20
-55.05168296714074
 30
-0.0000000000000016
 10
82.77273558312405
 20
-57.79415689894115
 30
-0.0000000000000015
 10
83.59431416204308
 20
-59.14124898994238
 30
-0.0000000000000014
 10
85.30666353346241
 20
-61.60547504149105
 30
-0.0000000000000013
 10
86.18867325718055
 20
-62.7286853889478
 30
-0.0000000000000012
 10
87.21092692045279
 20
-63.88123916834021
 30
-0.0000000000000012
  0
SPLINE
  5
10C
330
1F
100
AcDbEntity
  8
0
 62
    38
420
  4728325
370
    -3
100
AcDbSpline
210
0.0
220
0.0
230
1.0
 70
     8
 71
     3
 72
    10
 73
     6
 74
     0
 42
0.000000001
 43
0.00000001
 40
-0.0036865792350363
 40
-0.0036865792350363
 40
-0.0036865792350363
 40
-0.0036865792350363
 40
-0.0019330521431315
 40
-0.0019330521431315
 40
0.0
 40
0.0
 40
0.0
 40
0.0
 10
88.99937696274235
 20
-14.52152462285606
 30
-0.0000000000000018
 10
88.7219953250649
 20
-14.70528928378179
 30
-0.0000000000000018
 10
88.43394752075706
 20
-14.92716347299991
 30
-0.0000000000000018
 10
87.83244740629694
 20
-15.45717794965195
 30
-0.0000000000000019
 10
87.51701966632069
 20
-15.77365240561537
 30
-0.0000000000000019
 10
87.21092690524574
 20
-16.11876084960586
 30
-0.0000000000000019
  0
LINE
  5
10D
330
1F
100
AcDbEntity
  8
0
 62
    38
420
  4728325
370
    -3
100
AcDbLine
 10
135.1427861035251
 20
-75.99999999999977
 30
0.0
 11
141.4107352959562
 21
-75.99999999999969
 31
0.0
  0
LINE
  5
10E
330
1F
100
AcDbEntity
  8
0
 62
    38
420
  4728325
370
    -3
100
AcDbLine
 10
108.5892647040441
 20
-75.99999999999983
 30
0.0
 11
114.8572138964753
 21
-75.99999999999974
 31
0.0
  0
LINE
  5
10F
330
1F
100
AcDbEntity
  8
0
 62
    38
420
  4728325
370
    -3
100
AcDbLine
 10
141.4107352959562
 20
-4.499999999999718
 30
0.0
 11
135.142786103525
 21
-4.499999999999806
 31
0.0
  0
LINE
  5
110
330
1F
100
AcDbEntity
  8
0
 62
    38
420
  4728325
370
    -3
100
AcDbLine
 10
114.8572138962665
 20
-4.499999999999766
 30
0.0
 11
108.5892647038354
 21
-4.499999999999854
 31
0.0
  0
LINE
  5
111
330
1F
100
AcDbEntity
  8
0
 62
    38
420
  4728325
370
    -3
100
AcDbLine
 10
157.1911286752661
 20
-13.01893698019634
 30
0.0
 11
157.094500687807
 21
-13.01161714913455
 31
0.0
  0
LINE
  5
112
330
1F
100
AcDbEntity
  8
0
 62
    38
420
  4728325
370
    -3
100
AcDbLine
 10
157.094500687807
 20
-13.01161714913448
 30
0.0
 11
157.0076036121353
 21
-12.96872838455821
 31
0.0
  0
ARC
  5
113
330
1F
100
AcDbEntity
  8
0
 62
    38
420
  4728325
370
    -3
100
AcDbCircle
 10
124.9999999114039
 20
-77.81944601030185
 30
0.0000000000000011
 40
72.31944601030217
100
AcDbArc
 50
63.73097917428279
 51
119.6152852158108
  0
SPLINE
  5
114
330
1F
100
AcDbEntity
  8
0
 62
    38
420
  4728325
370
    -3
100
AcDbSpline
210
0.0
220
0.0
230
1.0
 70
     8
 71
     3
 72
    10
 73
     6
 74
     0
 42
0.000000001
 43
0.00000001
 40
-0.0036548500542245
 40
-0.0036548500542245
 40
-0.0036548500542245
 40
-0.0036548500542245
 40
-0.0019330521431315
 40
-0.0019330521431315
 40
0.0
 40
0.0
 40
0.0
 40
0.0
 10
89.26162369952871
 20
-14.94758635134575
 30
-0.0000000000000018
 10
89.00994929493378
 20
-15.115338077305
 30
-0.0000000000000018
 10
88.74400774637151
 20
-15.32036702858518
 30
-0.0000000000000018
 10
88.18020591848413
 20
-15.81716349388826
 30
-0.0000000000000018
 10
87.87862596798338
 20
-16.11947522723096
 30
-0.0000000000000018
 10
87.58499211019564
 20
-16.45053671136465
 30
-0.0000000000000019
  0
SPLINE
  5
115
330
1F
100
AcDbEntity
  8
0
 62
    38
420
  4728325
370
    -3
100
AcDbSpline
210
0.0
220
0.0
230
1.0
 70
     8
 71
     3
 72
    28
 73
    24
 74
     0
 42
0.000000001
 43
0.00000001
 40
-0.24226010082059
 40
-0.24226010082059
 40
-0.24226010082059
 40
-0.24226010082059
 40
-0.2354492560073991
 40
-0.2354492560073991
 40
-0.2309502725754439
 40
-0.2309502725754439
 40
-0.2270549872053899
 40
-0.2270549872053899
 40
-0.2231597018353358
 40
-0.2231597018353358
 40
-0.2192644164652817
 40
-0.2192644164652817
 40
-0.2153691310952277
 40
-0.2153691310952277
 40
-0.2053731238250783
 40
-0.2053731238250783
 40
-0.2006298335935293
 40
-0.2006298335935293
 40
-0.1958865433619803
 40
-0.1958865433619803
 40
-0.1909888849433996
 40
-0.1909888849433996
 40
-0.1860912265248188
 40
-0.1860912265248188
 40
-0.1860912265248188
 40
-0.1860912265248188
 10
87.58499212426958
 20
-16.45053669469555
 30
-0.0000000000000019
 10
86.17987810861477
 20
-18.03475157931962
 30
-0.0000000000000019
 10
85.01504928095473
 20
-19.58549056515705
 30
-0.0000000000000019
 10
83.14710668894209
 20
-22.57142965872612
 30
-0.000000000000002
 10
82.45491236384437
 20
-23.8354206644067
 30
-0.000000000000002
 10
81.32883359523242
 20
-26.2229229020364
 30
-0.0000000000000021
 10
80.87620972059099
 20
-27.33102227215858
 30
-0.0000000000000021
 10
80.10160645837853
 20
-29.52475807819591
 30
-0.0000000000000021
 10
79.77738098885159
 20
-30.60629126517367
 30
-0.0000000000000021
 10
79.2097456993291
 20
-32.92733414963779
 30
-0.0000000000000021
 10
78.97640259901684
 20
-34.14968606621724
 30
-0.0000000000000021
 10
78.64769028265356
 20
-36.58084281415328
 30
-0.0000000000000021
 10
78.55110910631973
 20
-37.79239418670512
 30
-0.000000000000002
 10
78.4256429463361
 20
-41.92379331009597
 30
-0.000000000000002
 10
78.73352783330184
 20
-45.06077712944769
 30
-0.0000000000000019
 10
79.79580116002454
 20
-49.49717943835613
 30
-0.0000000000000018
 10
80.19397641066604
 20
-50.79423009237846
 30
-0.0000000000000018
 10
81.189878299839
 20
-53.46965465858653
 30
-0.0000000000000017
 10
81.79523380347995
 20
-54.83953752332984
 30
-0.0000000000000016
 10
83.20572923994024
 20
-57.54313352426797
 30
-0.0000000000000015
 10
84.01683449194833
 20
-58.8730831846877
 30
-0.0000000000000014
 10
85.70534431386629
 20
-61.30300196231263
 30
-0.0000000000000013
 10
86.57500666659801
 20
-62.41074148097255
 30
-0.0000000000000012
 10
87.58499212424775
 20
-63.54946330527926
 30
-0.0000000000000012
  0
SPLINE
  5
116
330
1F
100
AcDbEntity
  8
0
 62
    38
420
  4728325
370
    -3
100
AcDbSpline
210
0.0
220
0.0
230
1.0
 70
     8
 71
     3
 72
    10
 73
     6
 74
     0
 42
0.000000001
 43
0.00000001
 40
-0.0036832022706926
 40
-0.0036832022706926
 40
-0.0036832022706926
 40
-0.0036832022706926
 40
-0.0017246446066263
 40
-0.0017246446066263
 40
-0.0000316990311861
 40
-0.0000316990311861
 40
-0.0000316990311861
 40
-0.0000316990311861
 10
87.58499211017582
 20
-63.5494632886129
 30
-0.0000000000000012
 10
87.88276894218924
 20
-63.88519582534894
 30
-0.0000000000000011
 10
88.18875774913745
 20
-64.19138427236823
 30
-0.0000000000000011
 10
88.75241115004651
 20
-64.68612222870921
 30
-0.0000000000000011
 10
89.01392784181178
 20
-64.88731431788815
 30
-0.0000000000000011
 10
89.26162353584382
 20
-65.05241355424378
 30
-0.000000000000001
  0
ARC
  5
117
330
1F
100
AcDbEntity
  8
0
 62
    38
420
  4728325
370
    -3
100
AcDbCircle
 10
124.9999999137837
 20
-2.180553989786568
 30
0.0
 40
72.31944601021311
100
AcDbArc
 50
240.3847146328126
 51
299.6152862591783
  0
SPLINE
  5
118
330
1F
100
AcDbEntity
  8
0
 62
    38
420
  4728325
370
    -3
100
AcDbSpline
210
0.0
220
0.0
230
1.0
 70
     8
 71
     3
 72
    10
 73
     6
 74
     0
 42
0.000000001
 43
0.00000001
 40
-0.0036548423415409
 40
-0.0036548423415409
 40
-0.0036548423415409
 40
-0.0036548423415409
 40
-0.0019253777609885
 40
-0.0019253777609885
 40
0.0
 40
0.0
 40
0.0
 40
0.0
 10
160.7383772705333
 20
-65.05241299785693
 30
0.0000000000000029
 10
160.9911692289711
 20
-64.88391615316377
 30
0.0000000000000029
 10
161.2583549061575
 20
-64.67780585907317
 30
0.0000000000000029
 10
161.8221962957095
 20
-64.18043255675875
 30
0.000000000000003
 10
162.1225382990717
 20
-63.87921210405159
 30
0.000000000000003
 10
162.4150078898185
 20
-63.54946328861874
 30
0.000000000000003
  0
SPLINE
  5
119
330
1F
100
AcDbEntity
  8
0
 62
    38
420
  4728325
370
    -3
100
AcDbSpline
210
0.0
220
0.0
230
1.0
 70
     8
 71
     3
 72
    28
 73
    24
 74
     0
 42
0.000000001
 43
0.00000001
 40
-0.0994763250387657
 40
-0.0994763250387657
 40
-0.0994763250387657
 40
-0.0994763250387657
 40
-0.0926654802255744
 40
-0.0926654802255744
 40
-0.0881664967936189
 40
-0.0881664967936189
 40
-0.0842712114235646
 40
-0.0842712114235646
 40
-0.0803759260535103
 40
-0.0803759260535103
 40
-0.076480640683456
 40
-0.076480640683456
 40
-0.0725853553134017
 40
-0.0725853553134017
 40
-0.0625893480432517
 40
-0.0625893480432517
 40
-0.0578460578117024
 40
-0.0578460578117024
 40
-0.053102767580153
 40
-0.053102767580153
 40
-0.048205109161572
 40
-0.048205109161572
 40
-0.043307450742991
 40
-0.043307450742991
 40
-0.043307450742991
 40
-0.043307450742991
 10
162.4150078757506
 20
-63.54946330528072
 30
0.000000000000003
 10
163.8201218914036
 20
-61.96524842065612
 30
0.000000000000003
 10
164.9849507190627
 20
-60.41450943481754
 30
0.0000000000000031
 10
166.8528933110736
 20
-57.42857034124545
 30
0.0000000000000031
 10
167.5450876361702
 20
-56.16457933556414
 30
0.0000000000000032
 10
168.6711664047798
 20
-53.77707709793377
 30
0.0000000000000032
 10
169.1237902794197
 20
-52.66897772781261
 30
0.0000000000000032
 10
169.8983935416303
 20
-50.47524192177467
 30
0.0000000000000032
 10
170.2226190111567
 20
-49.39370873479521
 30
0.0000000000000032
 10
170.7902543006772
 20
-47.07266585033026
 30
0.0000000000000032
 10
171.0235974009884
 20
-45.85031393374997
 30
0.0000000000000032
 10
171.3523097173494
 20
-43.41915718581358
 30
0.0000000000000032
 10
171.448890893682
 20
-42.20760581326222
 30
0.0000000000000032
 10
171.5743570536618
 20
-38.0762066898747
 30
0.0000000000000031
 10
171.2664721666927
 20
-34.93922287051761
 30
0.000000000000003
 10
170.2041988399663
 20
-30.50282056161215
 30
0.0000000000000029
 10
169.8060235893238
 20
-29.2057699075907
 30
0.0000000000000029
 10
168.8101217001481
 20
-26.53034534138271
 30
0.0000000000000028
 10
168.2047661965052
 20
-25.16046247663861
 30
0.0000000000000027
 10
166.7942707600422
 20
-22.45686647570157
 30
0.0000000000000026
 10
165.9831655080335
 20
-21.12691681528363
 30
0.0000000000000025
 10
164.2946556861136
 20
-18.69699803766063
 30
0.0000000000000024
 10
163.4249933333806
 20
-17.58925851900097
 30
0.0000000000000024
 10
162.4150078757293
 20
-16.45053669469455
 30
0.0000000000000023
  0
SPLINE
  5
11A
330
1F
100
AcDbEntity
  8
0
 62
    38
420
  4728325
370
    -3
100
AcDbSpline
210
0.0
220
0.0
230
1.0
 70
     8
 71
     3
 72
    10
 73
     6
 74
     0
 42
0.000000001
 43
0.00000001
 40
-0.003683199267521
 40
-0.003683199267521
 40
-0.003683199267521
 40
-0.003683199267521
 40
-0.0017291341871671
 40
-0.0017291341871671
 40
0.0
 40
0.0
 40
0.0
 40
0.0
 10
162.4150078898072
 20
-16.45053671136802
 30
0.0000000000000023
 10
162.1179131606553
 20
-16.11557322077415
 30
0.0000000000000023
 10
161.8126506300975
 20
-15.81002233684159
 30
0.0000000000000022
 10
161.2440787326351
 20
-15.31064712001573
 30
0.0000000000000022
 10
160.9769290521854
 20
-15.1055988364277
 30
0.0000000000000022
 10
160.7244771811741
 20
-14.93835008533129
 30
0.0000000000000022
  0
SPLINE
  5
11B
330
1F
100
AcDbEntity
  8
0
 62
    38
420
  4728325
370
    -3
100
AcDbSpline
210
0.0
220
0.0
230
1.0
 70
     8
 71
     3
 72
    18
 73
    14
 74
     0
 42
0.000000001
 43
0.00000001
 40
-0.0029002778854147
 40
-0.0029002778854147
 40
-0.0029002778854147
 40
-0.0029002778854147
 40
-0.0025489258596247
 40
-0.0025489258596247
 40
-0.0023168361576612
 40
-0.0023168361576612
 40
-0.0015130495829631
 40
-0.0015130495829631
 40
-0.0009973841258121
 40
-0.0009973841258121
 40
-0.000507998542239
 40
-0.000507998542239
 40
-0.0000026861311668
 40
-0.0000026861311668
 40
-0.0000026861311668
 40
-0.0000026861311668
 10
160.7244772451772
 20
-14.93835002384325
 30
0.0000000000000022
 10
160.6352333168911
 20
-14.87922613867111
 30
0.0000000000000022
 10
160.5457875322785
 20
-14.82032499090442
 30
0.0000000000000022
 10
160.3969291963011
 20
-14.72288663689225
 30
0.0000000000000021
 10
160.3376279959434
 20
-14.68422361180555
 30
0.0000000000000021
 10
160.0725722248807
 20
-14.51209585322363
 30
0.0000000000000021
 10
159.8658832750082
 20
-14.37970322867638
 30
0.0000000000000021
 10
159.5250048452187
 20
-14.16430297811387
 30
0.0000000000000021
 10
159.3913793097515
 20
-14.08060052633204
 30
0.0000000000000021
 10
159.1301599698079
 20
-13.91838891030054
 30
0.0000000000000021
 10
159.002608158716
 20
-13.83983395160664
 30
0.0000000000000021
 10
158.7426494600662
 20
-13.68104353497848
 30
0.000000000000002
 10
158.610219658602
 20
-13.60083658585957
 30
0.000000000000002
 10
158.4774328259234
 20
-13.52109016423539
 30
0.000000000000002
  0
SPLINE
  5
11C
330
1F
100
AcDbEntity
  8
0
 62
    38
420
  4728325
370
    -3
100
AcDbSpline
210
0.0
220
0.0
230
1.0
 70
     8
 71
     3
 72
     9
 73
     5
 74
     0
 42
0.000000001
 43
0.00000001
 40
-0.002720225159359
 40
-0.002720225159359
 40
-0.002720225159359
 40
-0.002720225159359
 40
-0.0012991226295955
 40
-0.0000513189022105
 40
-0.0000513189022105
 40
-0.0000513189022105
 40
-0.0000513189022105
 10
158.4774328259567
 20
-13.52109016426014
 30
0.000000000000002
 10
158.2665991823893
 20
-13.39447197235085
 30
0.000000000000002
 10
157.8784400875724
 20
-13.19646545634735
 30
0.000000000000002
 10
157.5912274246491
 20
-13.09980473581188
 30
0.000000000000002
 10
157.4494183092971
 20
-13.06248623303716
 30
0.000000000000002
  0
SPLINE
  5
11D
330
1F
100
AcDbEntity
  8
0
 62
    38
420
  4728325
370
    -3
100
AcDbSpline
210
0.0
220
0.0
230
1.0
 70
     8
 71
     3
 72
     8
 73
     4
 74
     0
 42
0.000000001
 43
0.00000001
 40
-0.0038467091259506
 40
-0.0038467091259506
 40
-0.0038467091259506
 40
-0.0038467091259506
 40
-0.0028188410366275
 40
-0.0028188410366275
 40
-0.0028188410366275
 40
-0.0028188410366275
 10
157.4494183092971
 20
-13.06248623303716
 30
0.000000000000002
 10
157.333809644138
 20
-13.03440786358434
 30
0.000000000000002
 10
157.2514739638927
 20
-13.02350829886872
 30
0.0000000000000019
 10
157.1911286752661
 20
-13.01893698019634
 30
0.0000000000000019
  0
LINE
  5
120
330
1F
100
AcDbEntity
  8
Hidden
370
    -3
100
AcDbLine
 10
108.7232393002597
 20
-75.99999999999982
 30
0.0
 11
108.2232393002597
 21
-75.49999999999984
 31
0.0
  0
LINE
  5
121
330
1F
100
AcDbEntity
  8
Hidden
370
    -3
100
AcDbLine
 10
114.7232393002597
 20
-75.99999999999973
 30
0.0
 11
115.2232393002597
 21
-75.49999999999976
 31
0.0
  0
LINE
  5
122
330
1F
100
AcDbEntity
  8
Hidden
370
    -3
100
AcDbLine
 10
114.7232393002598
 20
-78.49999999999973
 30
0.0
 11
115.2232393002598
 21
-78.99999999999972
 31
0.0
  0
LINE
  5
123
330
1F
100
AcDbEntity
  8
Hidden
370
    -3
100
AcDbLine
 10
108.7232393002598
 20
-78.49999999999977
 30
0.0
 11
108.2232393002598
 21
-78.9999999999998
 31
0.0
  0
LINE
  5
124
330
1F
100
AcDbEntity
  8
Hidden
370
    -3
100
AcDbLine
 10
135.2767606997406
 20
-75.99999999999976
 30
0.0
 11
134.7767606997406
 21
-75.49999999999979
 31
0.0
  0
LINE
  5
125
330
1F
100
AcDbEntity
  8
Hidden
370
    -3
100
AcDbLine
 10
141.2767606997407
 20
-75.99999999999969
 30
0.0
 11
141.7767606997406
 21
-75.49999999999973
 31
0.0
  0
LINE
  5
126
330
1F
100
AcDbEntity
  8
Hidden
370
    -3
100
AcDbLine
 10
141.2767606997407
 20
-78.4999999999997
 30
0.0
 11
141.7767606997407
 21
-78.99999999999966
 31
0.0
  0
LINE
  5
127
330
1F
100
AcDbEntity
  8
Hidden
370
    -3
100
AcDbLine
 10
135.2767606997407
 20
-78.49999999999973
 30
0.0
 11
134.7767606997407
 21
-78.99999999999974
 31
0.0
  0
LINE
  5
128
330
1F
100
AcDbEntity
  8
Hidden
370
    -3
100
AcDbLine
 10
114.723239300051
 20
-4.499999999999766
 30
0.0
 11
115.223239300051
 21
-4.999999999999766
 31
0.0
  0
LINE
  5
129
330
1F
100
AcDbEntity
  8
Hidden
370
    -3
100
AcDbLine
 10
108.7232393000509
 20
-4.499999999999839
 30
0.0
 11
108.223239300051
 21
-4.99999999999984
 31
0.0
  0
LINE
  5
12A
330
1F
100
AcDbEntity
  8
Hidden
370
    -3
100
AcDbLine
 10
108.7232393000509
 20
-1.999999999999851
 30
0.0
 11
108.2232393000509
 21
-1.499999999999886
 31
0.0
  0
LINE
  5
12B
330
1F
100
AcDbEntity
  8
Hidden
370
    -3
100
AcDbLine
 10
114.7232393000509
 20
-1.999999999999778
 30
0.0
 11
115.2232393000509
 21
-1.499999999999784
 31
0.0
  0
LINE
  5
12C
330
1F
100
AcDbEntity
  8
Hidden
370
    -3
100
AcDbLine
 10
141.2767606997406
 20
-4.499999999999747
 30
0.0
 11
141.7767606997406
 21
-4.999999999999719
 31
0.0
  0
LINE
  5
12D
330
1F
100
AcDbEntity
  8
Hidden
370
    -3
100
AcDbLine
 10
135.2767606997406
 20
-4.499999999999779
 30
0.0
 11
134.7767606997406
 21
-4.99999999999978
 31
0.0
  0
LINE
  5
12E
330
1F
100
AcDbEntity
  8
Hidden
370
    -3
100
AcDbLine
 10
135.2767606997405
 20
-1.999999999999804
 30
0.0
 11
134.7767606997405
 21
-1.499999999999811
 31
0.0
  0
LINE
  5
12F
330
1F
100
AcDbEntity
  8
Hidden
370
    -3
100
AcDbLine
 10
141.2767606997406
 20
-1.999999999999717
 30
0.0
 11
141.7767606997405
 21
-1.499999999999743
 31
0.0
  0
LINE
  5
130
330
1F
100
AcDbEntity
  8
Hidden
370
    -3
100
AcDbLine
 10
141.7767606997405
 20
-1.499999999999709
 30
0.0
 11
141.7767606997406
 21
-4.999999999999711
 31
0.0
  0
LINE
  5
131
330
1F
100
AcDbEntity
  8
Hidden
370
    -3
100
AcDbLine
 10
134.7767606997405
 20
-1.499999999999811
 30
0.0
 11
141.7767606997405
 21
-1.499999999999716
 31
0.0
  0
LINE
  5
132
330
1F
100
AcDbEntity
  8
Hidden
370
    -3
100
AcDbLine
 10
134.7767606997406
 20
-4.999999999999814
 30
0.0
 11
134.7767606997405
 21
-1.499999999999811
 31
0.0
  0
LINE
  5
133
330
1F
100
AcDbEntity
  8
Hidden
370
    -3
100
AcDbLine
 10
141.7767606997406
 20
-4.999999999999719
 30
0.0
 11
134.7767606997406
 21
-4.999999999999814
 31
0.0
  0
LINE
  5
134
330
1F
100
AcDbEntity
  8
Hidden
370
    -3
100
AcDbLine
 10
115.223239300051
 20
-4.999999999999766
 30
0.0
 11
108.2232393000509
 21
-4.999999999999861
 31
0.0
  0
LINE
  5
135
330
1F
100
AcDbEntity
  8
Hidden
370
    -3
100
AcDbLine
 10
115.2232393000509
 20
-1.499999999999763
 30
0.0
 11
115.223239300051
 21
-4.999999999999766
 31
0.0
  0
LINE
  5
136
330
1F
100
AcDbEntity
  8
Hidden
370
    -3
100
AcDbLine
 10
108.2232393000509
 20
-1.499999999999858
 30
0.0
 11
115.2232393000509
 21
-1.499999999999763
 31
0.0
  0
LINE
  5
137
330
1F
100
AcDbEntity
  8
Hidden
370
    -3
100
AcDbLine
 10
108.2232393000509
 20
-4.999999999999869
 30
0.0
 11
108.2232393000509
 21
-1.499999999999858
 31
0.0
  0
LINE
  5
138
330
1F
100
AcDbEntity
  8
Hidden
370
    -3
100
AcDbLine
 10
108.2232393002597
 20
-75.49999999999983
 30
0.0
 11
115.2232393002597
 21
-75.49999999999973
 31
0.0
  0
LINE
  5
139
330
1F
100
AcDbEntity
  8
Hidden
370
    -3
100
AcDbLine
 10
108.2232393002598
 20
-78.99999999999983
 30
0.0
 11
108.2232393002597
 21
-75.49999999999983
 31
0.0
  0
LINE
  5
13A
330
1F
100
AcDbEntity
  8
Hidden
370
    -3
100
AcDbLine
 10
115.2232393002598
 20
-78.99999999999974
 30
0.0
 11
108.2232393002598
 21
-78.99999999999983
 31
0.0
  0
LINE
  5
13B
330
1F
100
AcDbEntity
  8
Hidden
370
    -3
100
AcDbLine
 10
115.2232393002597
 20
-75.49999999999973
 30
0.0
 11
115.2232393002598
 21
-78.99999999999974
 31
0.0
  0
LINE
  5
13C
330
1F
100
AcDbEntity
  8
Hidden
370
    -3
100
AcDbLine
 10
134.7767606997406
 20
-75.49999999999979
 30
0.0
 11
141.7767606997407
 21
-75.49999999999969
 31
0.0
  0
LINE
  5
13D
330
1F
100
AcDbEntity
  8
Hidden
370
    -3
100
AcDbLine
 10
134.7767606997407
 20
-78.99999999999979
 30
0.0
 11
134.7767606997406
 21
-75.49999999999979
 31
0.0
  0
LINE
  5
13E
330
1F
100
AcDbEntity
  8
Hidden
370
    -3
100
AcDbLine
 10
141.7767606997407
 20
-78.9999999999997
 30
0.0
 11
134.7767606997407
 21
-78.99999999999979
 31
0.0
  0
LINE
  5
13F
330
1F
100
AcDbEntity
  8
Hidden
370
    -3
100
AcDbLine
 10
141.7767606997407
 20
-75.49999999999969
 30
0.0
 11
141.7767606997407
 21
-78.9999999999997
 31
0.0
  0
ENDSEC
  0
SECTION
  2
OBJECTS
  0
DICTIONARY
  5
C
330
0
100
AcDbDictionary
281
     1
  3
ACAD_DETAILVIEWSTYLE
350
144
  3
ACAD_GROUP
350
D
  3
ACAD_LAYOUT
350
1A
  3
ACAD_MATERIAL
350
43
  3
ACAD_MLEADERSTYLE
350
143
  3
ACAD_MLINESTYLE
350
17
  3
ACAD_PLOTSETTINGS
350
19
  3
ACAD_PLOTSTYLENAME
350
E
  3
ACAD_SCALELIST
350
47
  3
ACAD_SECTIONVIEWSTYLE
350
145
  3
ACAD_TABLESTYLE
350
142
  3
ACAD_VISUALSTYLE
350
2A
  3
AcDbVariableDictionary
350
140
  0
SUN
  5
69
330
29
100
AcDbSun
 90
        1
290
     0
 63
     7
421
 16777215
 40
1.0
291
     1
 91
  2455826
 92
 54000000
292
     0
 70
     2
 71
   256
280
     1
  0
DICTIONARY
  5
144
102
{ACAD_REACTORS
330
C
102
}
330
C
100
AcDbDictionary
281
     1
  0
DICTIONARY
  5
D
102
{ACAD_REACTORS
330
C
102
}
330
C
100
AcDbDictionary
281
     1
  0
DICTIONARY
  5
1A
102
{ACAD_REACTORS
330
C
102
}
330
C
100
AcDbDictionary
281
     1
  3
Layout1
350
1E
  3
Layout2
350
26
  3
Model
350
22
  0
DICTIONARY
  5
43
102
{ACAD_REACTORS
330
C
102
}
330
C
100
AcDbDictionary
281
     1
  3
ByBlock
350
45
  3
ByLayer
350
44
  3
Global
350
46
  0
DICTIONARY
  5
143
102
{ACAD_REACTORS
330
C
102
}
330
C
100
AcDbDictionary
281
     1
  0
DICTIONARY
  5
17
102
{ACAD_REACTORS
330
C
102
}
330
C
100
AcDbDictionary
281
     1
  3
Standard
350
18
  0
DICTIONARY
  5
19
102
{ACAD_REACTORS
330
C
102
}
330
C
100
AcDbDictionary
281
     1
  0
ACDBDICTIONARYWDFLT
  5
E
102
{ACAD_REACTORS
330
C
102
}
330
C
100
AcDbDictionary
281
     1
  3
Normal
350
F
100
AcDbDictionaryWithDefault
340
F
  0
DICTIONARY
  5
47
102
{ACAD_REACTORS
330
C
102
}
330
C
100
AcDbDictionary
281
     1
  3
A0
350
48
  3
A1
350
49
  3
A2
350
4A
  3
A3
350
4B
  3
A4
350
4C
  3
A5
350
4D
  3
A6
350
4E
  3
A7
350
4F
  3
A8
350
50
  3
A9
350
51
  3
B0
350
52
  3
B1
350
53
  3
B2
350
54
  3
B3
350
55
  3
B4
350
56
  3
B5
350
57
  3
B6
350
58
  3
B7
350
59
  3
B8
350
5A
  3
B9
350
5B
  3
C0
350
5C
  3
C1
350
5D
  3
C2
350
5E
  3
C3
350
5F
  3
C4
350
60
  3
C5
350
61
  3
C6
350
62
  3
C7
350
63
  3
C8
350
64
  3
C9
350
65
  3
D0
350
66
  3
D1
350
67
  3
D2
350
68
  0
DICTIONARY
  5
145
102
{ACAD_REACTORS
330
C
102
}
330
C
100
AcDbDictionary
281
     1
  0
DICTIONARY
  5
142
102
{ACAD_REACTORS
330
C
102
}
330
C
100
AcDbDictionary
281
     1
  0
DICTIONARY
  5
2A
102
{ACAD_REACTORS
330
C
102
}
330
C
100
AcDbDictionary
281
     1
  3
2dWireframe
350
2F
  3
Basic
350
32
  3
Brighten
350
36
  3
ColorChange
350
3A
  3
Conceptual
350
34
  3
Dim
350
35
  3
EdgeColorOff
350
3D
  3
Facepattern
350
39
  3
Flat
350
2B
  3
FlatWithEdges
350
2C
  3
Gouraud
350
2D
  3
GouraudWithEdges
350
2E
  3
Hidden
350
31
  3
JitterOff
350
3B
  3
Linepattern
350
38
  3
OverhangOff
350
3C
  3
Realistic
350
33
  3
Shaded
350
42
  3
Shaded with edges
350
41
  3
Shades of Gray
350
3E
  3
Sketchy
350
3F
  3
Thicken
350
37
  3
Wireframe
350
30
  3
X-Ray
350
40
  0
DICTIONARY
  5
140
102
{ACAD_REACTORS
330
C
102
}
330
C
100
AcDbDictionary
281
     1
  3
CANNOSCALE
350
141
  0
LAYOUT
  5
1E
102
{ACAD_REACTORS
330
1A
102
}
330
1A
100
AcDbPlotSettings
  1

  2
none_device
  4

  6

 40
0.0
 41
0.0
 42
0.0
 43
0.0
 44
0.0
 45
0.0
 46
0.0
 47
0.0
 48
0.0
 49
0.0
140
0.0
141
0.0
142
1.0
143
1.0
 70
   688
 72
     1
 73
     0
 74
     5
  7

 75
    16
 76
     0
 77
     2
 78
   300
147
1.0
148
0.0
149
0.0
100
AcDbLayout
  1
Layout1
 70
     1
 71
     1
 10
0.0
 20
0.0
 11
420.0
 21
297.0
 12
0.0
 22
0.0
 32
0.0
 14
1.000000000000000E+20
 24
1.000000000000000E+20
 34
1.000000000000000E+20
 15
-1.000000000000000E+20
 25
-1.000000000000000E+20
 35
-1.000000000000000E+20
146
0.0
 13
0.0
 23
0.0
 33
0.0
 16
1.0
 26
0.0
 36
0.0
 17
0.0
 27
1.0
 37
0.0
 76
     0
330
1B
  0
LAYOUT
  5
26
102
{ACAD_REACTORS
330
1A
102
}
330
1A
100
AcDbPlotSettings
  1

  2
none_device
  4

  6

 40
0.0
 41
0.0
 42
0.0
 43
0.0
 44
0.0
 45
0.0
 46
0.0
 47
0.0
 48
0.0
 49
0.0
140
0.0
141
0.0
142
1.0
143
1.0
 70
   688
 72
     1
 73
     0
 74
     5
  7

 75
    16
 76
     0
 77
     2
 78
   300
147
1.0
148
0.0
149
0.0
100
AcDbLayout
  1
Layout2
 70
     1
 71
     2
 10
0.0
 20
0.0
 11
0.0
 21
0.0
 12
0.0
 22
0.0
 32
0.0
 14
0.0
 24
0.0
 34
0.0
 15
0.0
 25
0.0
 35
0.0
146
0.0
 13
0.0
 23
0.0
 33
0.0
 16
1.0
 26
0.0
 36
0.0
 17
0.0
 27
1.0
 37
0.0
 76
     0
330
23
  0
LAYOUT
  5
22
102
{ACAD_REACTORS
330
1A
102
}
330
1A
100
AcDbPlotSettings
  1

  2
none_device
  4
Letter_(8.50_x_11.00_Inches)
  6

 40
6.35
 41
6.35
 42
6.35000508
 43
6.35000508
 44
215.9
 45
279.4
 46
0.0
 47
0.0
 48
0.0
 49
0.0
140
0.0
141
0.0
142
1.0
143
1.0
 70
  1712
 72
     1
 73
     0
 74
     0
  7

 75
     0
 76
     0
 77
     2
 78
   300
147
1.0
148
0.0
149
0.0
100
AcDbLayout
  1
Model
 70
     1
 71
     0
 10
0.0
 20
0.0
 11
420.0
 21
297.0
 12
0.0
 22
0.0
 32
0.0
 14
73.06124356192986
 24
-83.2198641240644
 34
-45.49489729106427
 15
176.9387564380703
 25
3.21986412414752
 35
-45.49489729106423
146
0.0
 13
0.0
 23
0.0
 33
0.0
 16
1.0
 26
0.0
 36
0.0
 17
0.0
 27
1.0
 37
0.0
 76
     0
330
1F
331
29
  0
MATERIAL
  5
45
102
{ACAD_REACTORS
330
43
102
}
330
43
100
AcDbMaterial
  1
ByBlock
 72
     1
 94
      127
  0
MATERIAL
  5
44
102
{ACAD_REACTORS
330
43
102
}
330
43
100
AcDbMaterial
  1
ByLayer
 72
     1
 94
      127
  0
MATERIAL
  5
46
102
{ACAD_REACTORS
330
43
102
}
330
43
100
AcDbMaterial
  1
Global
 72
     1
 94
      127
  0
MLINESTYLE
  5
18
102
{ACAD_REACTORS
330
17
102
}
330
17
100
AcDbMlineStyle
  2
Standard
 70
     0
  3

 62
   256
 51
90.0
 52
90.0
 71
     2
 49
0.5
 62
   256
  6
BYLAYER
 49
-0.5
 62
   256
  6
BYLAYER
  0
ACDBPLACEHOLDER
  5
F
102
{ACAD_REACTORS
330
E
102
}
330
E
  0
SCALE
  5
48
102
{ACAD_REACTORS
330
47
102
}
330
47
100
AcDbScale
 70
     0
300
1:1
140
1.0
141
1.0
290
     1
  0
SCALE
  5
49
102
{ACAD_REACTORS
330
47
102
}
330
47
100
AcDbScale
 70
     0
300
1:2
140
1.0
141
2.0
290
     0
  0
SCALE
  5
4A
102
{ACAD_REACTORS
330
47
102
}
330
47
100
AcDbScale
 70
     0
300
1:4
140
1.0
141
4.0
290
     0
  0
SCALE
  5
4B
102
{ACAD_REACTORS
330
47
102
}
330
47
100
AcDbScale
 70
     0
300
1:5
140
1.0
141
5.0
290
     0
  0
SCALE
  5
4C
102
{ACAD_REACTORS
330
47
102
}
330
47
100
AcDbScale
 70
     0
300
1:8
140
1.0
141
8.0
290
     0
  0
SCALE
  5
4D
102
{ACAD_REACTORS
330
47
102
}
330
47
100
AcDbScale
 70
     0
300
1:10
140
1.0
141
10.0
290
     0
  0
SCALE
  5
4E
102
{ACAD_REACTORS
330
47
102
}
330
47
100
AcDbScale
 70
     0
300
1:16
140
1.0
141
16.0
290
     0
  0
SCALE
  5
4F
102
{ACAD_REACTORS
330
47
102
}
330
47
100
AcDbScale
 70
     0
300
1:20
140
1.0
141
20.0
290
     0
  0
SCALE
  5
50
102
{ACAD_REACTORS
330
47
102
}
330
47
100
AcDbScale
 70
     0
300
1:30
140
1.0
141
30.0
290
     0
  0
SCALE
  5
51
102
{ACAD_REACTORS
330
47
102
}
330
47
100
AcDbScale
 70
     0
300
1:40
140
1.0
141
40.0
290
     0
  0
SCALE
  5
52
102
{ACAD_REACTORS
330
47
102
}
330
47
100
AcDbScale
 70
     0
300
1:50
140
1.0
141
50.0
290
     0
  0
SCALE
  5
53
102
{ACAD_REACTORS
330
47
102
}
330
47
100
AcDbScale
 70
     0
300
1:100
140
1.0
141
100.0
290
     0
  0
SCALE
  5
54
102
{ACAD_REACTORS
330
47
102
}
330
47
100
AcDbScale
 70
     0
300
2:1
140
2.0
141
1.0
290
     0
  0
SCALE
  5
55
102
{ACAD_REACTORS
330
47
102
}
330
47
100
AcDbScale
 70
     0
300
4:1
140
4.0
141
1.0
290
     0
  0
SCALE
  5
56
102
{ACAD_REACTORS
330
47
102
}
330
47
100
AcDbScale
 70
     0
300
8:1
140
8.0
141
1.0
290
     0
  0
SCALE
  5
57
102
{ACAD_REACTORS
330
47
102
}
330
47
100
AcDbScale
 70
     0
300
10:1
140
10.0
141
1.0
290
     0
  0
SCALE
  5
58
102
{ACAD_REACTORS
330
47
102
}
330
47
100
AcDbScale
 70
     0
300
100:1
140
100.0
141
1.0
290
     0
  0
SCALE
  5
59
102
{ACAD_REACTORS
330
47
102
}
330
47
100
AcDbScale
 70
     0
300
1/128" = 1'-0"
140
0.0078125
141
12.0
290
     0
  0
SCALE
  5
5A
102
{ACAD_REACTORS
330
47
102
}
330
47
100
AcDbScale
 70
     0
300
1/64" = 1'-0"
140
0.015625
141
12.0
290
     0
  0
SCALE
  5
5B
102
{ACAD_REACTORS
330
47
102
}
330
47
100
AcDbScale
 70
     0
300
1/32" = 1'-0"
140
0.03125
141
12.0
290
     0
  0
SCALE
  5
5C
102
{ACAD_REACTORS
330
47
102
}
330
47
100
AcDbScale
 70
     0
300
1/16" = 1'-0"
140
0.0625
141
12.0
290
     0
  0
SCALE
  5
5D
102
{ACAD_REACTORS
330
47
102
}
330
47
100
AcDbScale
 70
     0
300
3/32" = 1'-0"
140
0.09375
141
12.0
290
     0
  0
SCALE
  5
5E
102
{ACAD_REACTORS
330
47
102
}
330
47
100
AcDbScale
 70
     0
300
1/8" = 1'-0"
140
0.125
141
12.0
290
     0
  0
SCALE
  5
5F
102
{ACAD_REACTORS
330
47
102
}
330
47
100
AcDbScale
 70
     0
300
3/16" = 1'-0"
140
0.1875
141
12.0
290
     0
  0
SCALE
  5
60
102
{ACAD_REACTORS
330
47
102
}
330
47
100
AcDbScale
 70
     0
300
1/4" = 1'-0"
140
0.25
141
12.0
290
     0
  0
SCALE
  5
61
102
{ACAD_REACTORS
330
47
102
}
330
47
100
AcDbScale
 70
     0
300
3/8" = 1'-0"
140
0.375
141
12.0
290
     0
  0
SCALE
  5
62
102
{ACAD_REACTORS
330
47
102
}
330
47
100
AcDbScale
 70
     0
300
1/2" = 1'-0"
140
0.5
141
12.0
290
     0
  0
SCALE
  5
63
102
{ACAD_REACTORS
330
47
102
}
330
47
100
AcDbScale
 70
     0
300
3/4" = 1'-0"
140
0.75
141
12.0
290
     0
  0
SCALE
  5
64
102
{ACAD_REACTORS
330
47
102
}
330
47
100
AcDbScale
 70
     0
300
1" = 1'-0"
140
1.0
141
12.0
290
     0
  0
SCALE
  5
65
102
{ACAD_REACTORS
330
47
102
}
330
47
100
AcDbScale
 70
     0
300
1-1/2" = 1'-0"
140
1.5
141
12.0
290
     0
  0
SCALE
  5
66
102
{ACAD_REACTORS
330
47
102
}
330
47
100
AcDbScale
 70
     0
300
3" = 1'-0"
140
3.0
141
12.0
290
     0
  0
SCALE
  5
67
102
{ACAD_REACTORS
330
47
102
}
330
47
100
AcDbScale
 70
     0
300
6" = 1'-0"
140
6.0
141
12.0
290
     0
  0
SCALE
  5
68
102
{ACAD_REACTORS
330
47
102
}
330
47
100
AcDbScale
 70
     0
300
1'-0" = 1'-0"
140
12.0
141
12.0
290
     0
  0
VISUALSTYLE
  5
2F
102
{ACAD_REACTORS
330
2A
102
}
330
2A
100
AcDbVisualStyle
  2
2dWireframe
 70
     4
177
     3
291
     0
 70
    58
 90
        0
176
     1
 90
        2
176
     1
 90
        0
176
     1
 90
        0
176
     1
 40
0.6
176
     1
 40
30.0
176
     1
 62
     7
420
 16777215
176
     1
 90
        1
176
     1
 90
        4
176
     1
 62
     7
176
     1
 62
   257
176
     1
 90
        1
176
     1
 90
        1
176
     1
 40
1.0
176
     1
 90
        0
176
     1
 62
   257
176
     1
 40
1.0
176
     1
 90
        1
176
     1
 90
        6
176
     1
 90
        2
176
     1
 62
     7
176
     1
 90
        5
176
     1
 90
        0
176
     1
 90
        0
176
     1
290
     0
176
     1
 90
        1
176
     1
 40
0.0
176
     1
 90
        0
176
     1
290
     1
176
     1
290
     1
176
     1
290
     0
176
     1
290
     0
176
     1
290
     0
176
     1
290
     0
176
     1
290
     0
176
     1
290
     0
176
     1
290
     0
176
     1
 90
       50
176
     1
 40
0.0
176
     1
 40
1.0
176
     1
 90
        0
176
     1
 62
    18
420
        0
176
     1
 90
       50
176
     1
 90
        3
176
     1
 62
     5
420
      255
176
     1
290
     0
176
     1
 90
       50
176
     1
 90
       50
176
     1
 90
       50
176
     1
290
     0
176
     1
 90
       50
176
     1
 62
   256
176
     0
 40
1.0
176
     0
 90
        2
176
     1
  1
strokes_ogs.tif
176
     1
290
     0
176
     1
 40
1.0
176
     1
 40
1.0
176
     1
  0
VISUALSTYLE
  5
32
102
{ACAD_REACTORS
330
2A
102
}
330
2A
100
AcDbVisualStyle
  2
Basic
 70
     7
177
     3
291
     1
 70
    58
 90
        1
176
     1
 90
        0
176
     1
 90
        1
176
     1
 90
        0
176
     1
 40
0.6
176
     1
 40
30.0
176
     1
 62
     7
420
 16777215
176
     1
 90
        0
176
     1
 90
        4
176
     1
 62
     7
176
     1
 62
   257
176
     1
 90
        1
176
     1
 90
        1
176
     1
 40
1.0
176
     1
 90
        8
176
     1
 62
     7
176
     1
 40
1.0
176
     1
 90
        1
176
     1
 90
        6
176
     1
 90
        2
176
     1
 62
     7
176
     1
 90
        5
176
     1
 90
        0
176
     1
 90
        0
176
     1
290
     0
176
     1
 90
        1
176
     1
 40
0.0
176
     1
 90
        0
176
     1
290
     0
176
     1
290
     1
176
     1
290
     1
176
     1
290
     0
176
     1
290
     0
176
     1
290
     0
176
     1
290
     0
176
     1
290
     0
176
     1
290
     0
176
     1
 90
       50
176
     1
 40
0.0
176
     1
 40
1.0
176
     1
 90
        0
176
     1
 62
    18
420
        0
176
     1
 90
       50
176
     1
 90
        3
176
     1
 62
     5
420
      255
176
     1
290
     0
176
     1
 90
       50
176
     1
 90
       50
176
     1
 90
       50
176
     1
290
     0
176
     1
 90
       50
176
     1
 62
   256
176
     0
 40
1.0
176
     0
 90
        2
176
     1
  1
strokes_ogs.tif
176
     1
290
     0
176
     1
 40
1.0
176
     1
 40
1.0
176
     1
  0
VISUALSTYLE
  5
36
102
{ACAD_REACTORS
330
2A
102
}
330
2A
100
AcDbVisualStyle
  2
Brighten
 70
    12
177
     3
291
     1
 70
    58
 90
        2
176
     1
 90
        2
176
     1
 90
        0
176
     1
 90
        0
176
     1
 40
0.6
176
     1
 40
30.0
176
     1
 62
     7
420
 16777215
176
     1
 90
        1
176
     1
 90
        4
176
     1
 62
     7
176
     1
 62
   257
176
     1
 90
        1
176
     1
 90
        1
176
     1
 40
1.0
176
     1
 90
        8
176
     1
 62
     7
176
     1
 40
1.0
176
     1
 90
        1
176
     1
 90
        6
176
     1
 90
        2
176
     1
 62
     7
176
     1
 90
        5
176
     1
 90
        0
176
     1
 90
        0
176
     1
290
     0
176
     1
 90
        1
176
     1
 40
50.0
176
     1
 90
        0
176
     1
290
     0
176
     1
290
     1
176
     1
290
     1
176
     1
290
     0
176
     1
290
     0
176
     1
290
     0
176
     1
290
     0
176
     1
290
     0
176
     1
290
     0
176
     1
 90
       50
176
     1
 40
0.0
176
     1
 40
1.0
176
     1
 90
        0
176
     1
 62
    18
420
        0
176
     1
 90
       50
176
     1
 90
        3
176
     1
 62
     5
420
      255
176
     1
290
     0
176
     1
 90
       50
176
     1
 90
       50
176
     1
 90
       50
176
     1
290
     0
176
     1
 90
       50
176
     1
 62
   256
176
     0
 40
1.0
176
     0
 90
        2
176
     1
  1
strokes_ogs.tif
176
     1
290
     0
176
     1
 40
1.0
176
     1
 40
1.0
176
     1
  0
VISUALSTYLE
  5
3A
102
{ACAD_REACTORS
330
2A
102
}
330
2A
100
AcDbVisualStyle
  2
ColorChange
 70
    16
177
     3
291
     1
 70
    58
 90
        2
176
     1
 90
        2
176
     1
 90
        3
176
     1
 90
        0
176
     1
 40
0.6
176
     1
 40
30.0
176
     1
 62
     8
420
  8421504
176
     1
 90
        1
176
     1
 90
        4
176
     1
 62
     7
176
     1
 62
   257
176
     1
 90
        1
176
     1
 90
        1
176
     1
 40
1.0
176
     1
 90
        8
176
     1
 62
     8
420
  8421504
176
     1
 40
1.0
176
     1
 90
        1
176
     1
 90
        6
176
     1
 90
        2
176
     1
 62
     7
176
     1
 90
        5
176
     1
 90
        0
176
     1
 90
        0
176
     1
290
     0
176
     1
 90
        1
176
     1
 40
0.0
176
     1
 90
        0
176
     1
290
     0
176
     1
290
     1
176
     1
290
     1
176
     1
290
     0
176
     1
290
     0
176
     1
290
     0
176
     1
290
     0
176
     1
290
     0
176
     1
290
     0
176
     1
 90
       50
176
     1
 40
0.0
176
     1
 40
1.0
176
     1
 90
        0
176
     1
 62
    18
420
        0
176
     1
 90
       50
176
     1
 90
        3
176
     1
 62
     5
420
      255
176
     1
290
     0
176
     1
 90
       50
176
     1
 90
       50
176
     1
 90
       50
176
     1
290
     0
176
     1
 90
       50
176
     1
 62
   256
176
     0
 40
1.0
176
     0
 90
        2
176
     1
  1
strokes_ogs.tif
176
     1
290
     0
176
     1
 40
1.0
176
     1
 40
1.0
176
     1
  0
VISUALSTYLE
  5
34
102
{ACAD_REACTORS
330
2A
102
}
330
2A
100
AcDbVisualStyle
  2
Conceptual
 70
     9
177
     3
291
     0
 70
    58
 90
        3
176
     1
 90
        2
176
     1
 90
        0
176
     1
 90
        0
176
     1
 40
0.6
176
     1
 40
30.0
176
     1
 62
     7
420
 16777215
176
     1
 90
        2
176
     1
 90
        2
176
     1
 62
     7
176
     1
 62
   257
176
     1
 90
        1
176
     1
 90
        1
176
     1
 40
179.0
176
     1
 90
        8
176
     1
 62
     7
176
     1
 40
1.0
176
     1
 90
        1
176
     1
 90
        6
176
     1
 90
        2
176
     1
 62
     7
176
     1
 90
        3
176
     1
 90
        0
176
     1
 90
        0
176
     1
290
     0
176
     1
 90
        1
176
     1
 40
0.0
176
     1
 90
        0
176
     1
290
     0
176
     1
290
     1
176
     1
290
     1
176
     1
290
     0
176
     1
290
     0
176
     1
290
     0
176
     1
290
     0
176
     1
290
     0
176
     1
290
     0
176
     1
 90
       50
176
     1
 40
0.0
176
     1
 40
1.0
176
     1
 90
        0
176
     1
 62
    18
420
        0
176
     1
 90
       50
176
     1
 90
        3
176
     1
 62
     5
420
      255
176
     1
290
     0
176
     1
 90
       50
176
     1
 90
       50
176
     1
 90
       50
176
     1
290
     0
176
     1
 90
       50
176
     1
 62
   256
176
     0
 40
1.0
176
     0
 90
        2
176
     1
  1
strokes_ogs.tif
176
     1
290
     0
176
     1
 40
1.0
176
     1
 40
1.0
176
     1
  0
VISUALSTYLE
  5
35
102
{ACAD_REACTORS
330
2A
102
}
330
2A
100
AcDbVisualStyle
  2
Dim
 70
    11
177
     3
291
     1
 70
    58
 90
        2
176
     1
 90
        2
176
     1
 90
        0
176
     1
 90
        0
176
     1
 40
0.6
176
     1
 40
30.0
176
     1
 62
     7
420
 16777215
176
     1
 90
        1
176
     1
 90
        4
176
     1
 62
     7
176
     1
 62
   257
176
     1
 90
        1
176
     1
 90
        1
176
     1
 40
1.0
176
     1
 90
        8
176
     1
 62
     7
176
     1
 40
1.0
176
     1
 90
        1
176
     1
 90
        6
176
     1
 90
        2
176
     1
 62
     7
176
     1
 90
        5
176
     1
 90
        0
176
     1
 90
        0
176
     1
290
     0
176
     1
 90
        1
176
     1
 40
-50.0
176
     1
 90
        0
176
     1
290
     0
176
     1
290
     1
176
     1
290
     1
176
     1
290
     0
176
     1
290
     0
176
     1
290
     0
176
     1
290
     0
176
     1
290
     0
176
     1
290
     0
176
     1
 90
       50
176
     1
 40
0.0
176
     1
 40
1.0
176
     1
 90
        0
176
     1
 62
    18
420
        0
176
     1
 90
       50
176
     1
 90
        3
176
     1
 62
     5
420
      255
176
     1
290
     0
176
     1
 90
       50
176
     1
 90
       50
176
     1
 90
       50
176
     1
290
     0
176
     1
 90
       50
176
     1
 62
   256
176
     0
 40
1.0
176
     0
 90
        2
176
     1
  1
strokes_ogs.tif
176
     1
290
     0
176
     1
 40
1.0
176
     1
 40
1.0
176
     1
  0
VISUALSTYLE
  5
3D
102
{ACAD_REACTORS
330
2A
102
}
330
2A
100
AcDbVisualStyle
  2
EdgeColorOff
 70
    22
177
     3
291
     1
 70
    58
 90
        2
176
     0
 90
        2
176
     0
 90
        0
176
     0
 90
        0
176
     0
 40
0.6
176
     0
 40
30.0
176
     0
 62
     7
420
 16777215
176
     0
 90
        1
176
     0
 90
        4
176
     0
 62
     7
176
     0
 62
   257
176
     0
 90
        1
176
     0
 90
        1
176
     0
 40
1.0
176
     0
 90
        8
176
     2
 62
     7
176
     0
 40
1.0
176
     0
 90
        1
176
     0
 90
        6
176
     0
 90
        2
176
     0
 62
     7
176
     0
 90
        5
176
     0
 90
        0
176
     0
 90
        0
176
     0
290
     0
176
     0
 90
        1
176
     0
 40
0.0
176
     0
 90
        0
176
     0
290
     0
176
     0
290
     1
176
     0
290
     1
176
     0
290
     0
176
     0
290
     0
176
     0
290
     0
176
     0
290
     0
176
     0
290
     0
176
     0
290
     0
176
     0
 90
       50
176
     0
 40
0.0
176
     0
 40
1.0
176
     0
 90
        0
176
     0
 62
    18
420
        0
176
     0
 90
       50
176
     0
 90
        3
176
     0
 62
     5
420
      255
176
     0
290
     0
176
     0
 90
       50
176
     0
 90
       50
176
     0
 90
       50
176
     0
290
     0
176
     0
 90
       50
176
     0
 62
   256
176
     0
 40
1.0
176
     0
 90
        2
176
     0
  1
strokes_ogs.tif
176
     0
290
     0
176
     0
 40
1.0
176
     0
 40
1.0
176
     0
  0
VISUALSTYLE
  5
39
102
{ACAD_REACTORS
330
2A
102
}
330
2A
100
AcDbVisualStyle
  2
Facepattern
 70
    15
177
     3
291
     1
 70
    58
 90
        2
176
     1
 90
        2
176
     1
 90
        0
176
     1
 90
        0
176
     1
 40
0.6
176
     1
 40
30.0
176
     1
 62
     7
420
 16777215
176
     1
 90
        1
176
     1
 90
        4
176
     1
 62
     7
176
     1
 62
   257
176
     1
 90
        1
176
     1
 90
        1
176
     1
 40
1.0
176
     1
 90
        8
176
     1
 62
     7
176
     1
 40
1.0
176
     1
 90
        1
176
     1
 90
        6
176
     1
 90
        2
176
     1
 62
     7
176
     1
 90
        5
176
     1
 90
        0
176
     1
 90
        0
176
     1
290
     0
176
     1
 90
        1
176
     1
 40
0.0
176
     1
 90
        0
176
     1
290
     0
176
     1
290
     1
176
     1
290
     1
176
     1
290
     0
176
     1
290
     0
176
     1
290
     0
176
     1
290
     0
176
     1
290
     0
176
     1
290
     0
176
     1
 90
       50
176
     1
 40
0.0
176
     1
 40
1.0
176
     1
 90
        0
176
     1
 62
    18
420
        0
176
     1
 90
       50
176
     1
 90
        3
176
     1
 62
     5
420
      255
176
     1
290
     0
176
     1
 90
       50
176
     1
 90
       50
176
     1
 90
       50
176
     1
290
     0
176
     1
 90
       50
176
     1
 62
   256
176
     0
 40
1.0
176
     0
 90
        2
176
     1
  1
strokes_ogs.tif
176
     1
290
     0
176
     1
 40
1.0
176
     1
 40
1.0
176
     1
  0
VISUALSTYLE
  5
2B
102
{ACAD_REACTORS
330
2A
102
}
330
2A
100
AcDbVisualStyle
  2
Flat
 70
     0
177
     3
291
     1
 70
    58
 90
        2
176
     1
 90
        1
176
     1
 90
        1
176
     1
 90
        2
176
     1
 40
0.6
176
     1
 40
30.0
176
     1
 62
     7
420
 16777215
176
     1
 90
        0
176
     1
 90
        0
176
     1
 62
     7
176
     1
 62
   257
176
     1
 90
        1
176
     1
 90
        1
176
     1
 40
1.0
176
     1
 90
        8
176
     1
 62
     7
176
     1
 40
1.0
176
     1
 90
        1
176
     1
 90
        6
176
     1
 90
        2
176
     1
 62
     7
176
     1
 90
        5
176
     1
 90
        0
176
     1
 90
        0
176
     1
290
     0
176
     1
 90
       13
176
     1
 40
0.0
176
     1
 90
        0
176
     1
290
     0
176
     1
290
     1
176
     1
290
     1
176
     1
290
     0
176
     1
290
     0
176
     1
290
     0
176
     1
290
     0
176
     1
290
     0
176
     1
290
     0
176
     1
 90
       50
176
     1
 40
0.0
176
     1
 40
1.0
176
     1
 90
        0
176
     1
 62
    18
420
        0
176
     1
 90
       50
176
     1
 90
        3
176
     1
 62
     5
420
      255
176
     1
290
     0
176
     1
 90
       50
176
     1
 90
       50
176
     1
 90
       50
176
     1
290
     0
176
     1
 90
       50
176
     1
 62
   256
176
     0
 40
1.0
176
     0
 90
        2
176
     1
  1
strokes_ogs.tif
176
     1
290
     0
176
     1
 40
1.0
176
     1
 40
1.0
176
     1
  0
VISUALSTYLE
  5
2C
102
{ACAD_REACTORS
330
2A
102
}
330
2A
100
AcDbVisualStyle
  2
FlatWithEdges
 70
     1
177
     3
291
     1
 70
    58
 90
        2
176
     1
 90
        1
176
     1
 90
        1
176
     1
 90
        2
176
     1
 40
0.6
176
     1
 40
30.0
176
     1
 62
     7
420
 16777215
176
     1
 90
        1
176
     1
 90
        0
176
     1
 62
     7
176
     1
 62
   257
176
     1
 90
        1
176
     1
 90
        1
176
     1
 40
1.0
176
     1
 90
        0
176
     1
 62
   257
176
     1
 40
1.0
176
     1
 90
        1
176
     1
 90
        6
176
     1
 90
        2
176
     1
 62
     7
176
     1
 90
        5
176
     1
 90
        0
176
     1
 90
        0
176
     1
290
     0
176
     1
 90
       13
176
     1
 40
0.0
176
     1
 90
        0
176
     1
290
     0
176
     1
290
     1
176
     1
290
     1
176
     1
290
     0
176
     1
290
     0
176
     1
290
     0
176
     1
290
     0
176
     1
290
     0
176
     1
290
     0
176
     1
 90
       50
176
     1
 40
0.0
176
     1
 40
1.0
176
     1
 90
        0
176
     1
 62
    18
420
        0
176
     1
 90
       50
176
     1
 90
        3
176
     1
 62
     5
420
      255
176
     1
290
     0
176
     1
 90
       50
176
     1
 90
       50
176
     1
 90
       50
176
     1
290
     0
176
     1
 90
       50
176
     1
 62
   256
176
     0
 40
1.0
176
     0
 90
        2
176
     1
  1
strokes_ogs.tif
176
     1
290
     0
176
     1
 40
1.0
176
     1
 40
1.0
176
     1
  0
VISUALSTYLE
  5
2D
102
{ACAD_REACTORS
330
2A
102
}
330
2A
100
AcDbVisualStyle
  2
Gouraud
 70
     2
177
     3
291
     1
 70
    58
 90
        2
176
     1
 90
        2
176
     1
 90
        1
176
     1
 90
        2
176
     1
 40
0.6
176
     1
 40
30.0
176
     1
 62
     7
420
 16777215
176
     1
 90
        0
176
     1
 90
        0
176
     1
 62
     7
176
     1
 62
   257
176
     1
 90
        1
176
     1
 90
        1
176
     1
 40
1.0
176
     1
 90
        0
176
     1
 62
     7
176
     1
 40
1.0
176
     1
 90
        1
176
     1
 90
        6
176
     1
 90
        2
176
     1
 62
     7
176
     1
 90
        5
176
     1
 90
        0
176
     1
 90
        0
176
     1
290
     0
176
     1
 90
       13
176
     1
 40
0.0
176
     1
 90
        0
176
     1
290
     0
176
     1
290
     1
176
     1
290
     1
176
     1
290
     0
176
     1
290
     0
176
     1
290
     0
176
     1
290
     0
176
     1
290
     0
176
     1
290
     0
176
     1
 90
       50
176
     1
 40
0.0
176
     1
 40
1.0
176
     1
 90
        0
176
     1
 62
    18
420
        0
176
     1
 90
       50
176
     1
 90
        3
176
     1
 62
     5
420
      255
176
     1
290
     0
176
     1
 90
       50
176
     1
 90
       50
176
     1
 90
       50
176
     1
290
     0
176
     1
 90
       50
176
     1
 62
   256
176
     0
 40
1.0
176
     0
 90
        2
176
     1
  1
strokes_ogs.tif
176
     1
290
     0
176
     1
 40
1.0
176
     1
 40
1.0
176
     1
  0
VISUALSTYLE
  5
2E
102
{ACAD_REACTORS
330
2A
102
}
330
2A
100
AcDbVisualStyle
  2
GouraudWithEdges
 70
     3
177
     3
291
     1
 70
    58
 90
        2
176
     1
 90
        2
176
     1
 90
        1
176
     1
 90
        2
176
     1
 40
0.6
176
     1
 40
30.0
176
     1
 62
     7
420
 16777215
176
     1
 90
        1
176
     1
 90
        0
176
     1
 62
     7
176
     1
 62
   257
176
     1
 90
        1
176
     1
 90
        1
176
     1
 40
1.0
176
     1
 90
        0
176
     1
 62
   257
176
     1
 40
1.0
176
     1
 90
        1
176
     1
 90
        6
176
     1
 90
        2
176
     1
 62
     7
176
     1
 90
        5
176
     1
 90
        0
176
     1
 90
        0
176
     1
290
     0
176
     1
 90
       13
176
     1
 40
0.0
176
     1
 90
        0
176
     1
290
     0
176
     1
290
     1
176
     1
290
     1
176
     1
290
     0
176
     1
290
     0
176
     1
290
     0
176
     1
290
     0
176
     1
290
     0
176
     1
290
     0
176
     1
 90
       50
176
     1
 40
0.0
176
     1
 40
1.0
176
     1
 90
        0
176
     1
 62
    18
420
        0
176
     1
 90
       50
176
     1
 90
        3
176
     1
 62
     5
420
      255
176
     1
290
     0
176
     1
 90
       50
176
     1
 90
       50
176
     1
 90
       50
176
     1
290
     0
176
     1
 90
       50
176
     1
 62
   256
176
     0
 40
1.0
176
     0
 90
        2
176
     1
  1
strokes_ogs.tif
176
     1
290
     0
176
     1
 40
1.0
176
     1
 40
1.0
176
     1
  0
VISUALSTYLE
  5
31
102
{ACAD_REACTORS
330
2A
102
}
330
2A
100
AcDbVisualStyle
  2
Hidden
 70
     6
177
     3
291
     0
 70
    58
 90
        1
176
     1
 90
        2
176
     1
 90
        2
176
     1
 90
        0
176
     1
 40
0.6
176
     1
 40
30.0
176
     1
 62
     7
420
 16777215
176
     1
 90
        2
176
     1
 90
        2
176
     1
 62
     7
176
     1
 62
   257
176
     1
 90
        2
176
     1
 90
        1
176
     1
 40
40.0
176
     1
 90
        0
176
     1
 62
   257
176
     1
 40
1.0
176
     1
 90
        1
176
     1
 90
        6
176
     1
 90
        2
176
     1
 62
     7
176
     1
 90
        3
176
     1
 90
        0
176
     1
 90
        0
176
     1
290
     0
176
     1
 90
        1
176
     1
 40
0.0
176
     1
 90
        0
176
     1
290
     0
176
     1
290
     1
176
     1
290
     1
176
     1
290
     0
176
     1
290
     0
176
     1
290
     0
176
     1
290
     0
176
     1
290
     0
176
     1
290
     0
176
     1
 90
       50
176
     1
 40
0.0
176
     1
 40
1.0
176
     1
 90
        0
176
     1
 62
    18
420
        0
176
     1
 90
       50
176
     1
 90
        3
176
     1
 62
     5
420
      255
176
     1
290
     0
176
     1
 90
       50
176
     1
 90
       50
176
     1
 90
       50
176
     1
290
     0
176
     1
 90
       50
176
     1
 62
   256
176
     0
 40
1.0
176
     0
 90
        2
176
     1
  1
strokes_ogs.tif
176
     1
290
     0
176
     1
 40
1.0
176
     1
 40
1.0
176
     1
  0
VISUALSTYLE
  5
3B
102
{ACAD_REACTORS
330
2A
102
}
330
2A
100
AcDbVisualStyle
  2
JitterOff
 70
    20
177
     3
291
     1
 70
    58
 90
        2
176
     0
 90
        2
176
     0
 90
        0
176
     0
 90
        0
176
     0
 40
0.6
176
     0
 40
30.0
176
     0
 62
     7
420
 16777215
176
     0
 90
        1
176
     0
 90
        4
176
     0
 62
     7
176
     0
 62
   257
176
     0
 90
        1
176
     0
 90
        1
176
     0
 40
1.0
176
     0
 90
       10
176
     2
 62
     7
176
     0
 40
1.0
176
     0
 90
        1
176
     0
 90
        6
176
     0
 90
        2
176
     0
 62
     7
176
     0
 90
        5
176
     0
 90
        0
176
     0
 90
        0
176
     0
290
     0
176
     0
 90
        1
176
     0
 40
0.0
176
     0
 90
        0
176
     0
290
     0
176
     0
290
     1
176
     0
290
     1
176
     0
290
     0
176
     0
290
     0
176
     0
290
     0
176
     0
290
     0
176
     0
290
     0
176
     0
290
     0
176
     0
 90
       50
176
     0
 40
0.0
176
     0
 40
1.0
176
     0
 90
        0
176
     0
 62
    18
420
        0
176
     0
 90
       50
176
     0
 90
        3
176
     0
 62
     5
420
      255
176
     0
290
     0
176
     0
 90
       50
176
     0
 90
       50
176
     0
 90
       50
176
     0
290
     0
176
     0
 90
       50
176
     0
 62
   256
176
     0
 40
1.0
176
     0
 90
        2
176
     0
  1
strokes_ogs.tif
176
     0
290
     0
176
     0
 40
1.0
176
     0
 40
1.0
176
     0
  0
VISUALSTYLE
  5
38
102
{ACAD_REACTORS
330
2A
102
}
330
2A
100
AcDbVisualStyle
  2
Linepattern
 70
    14
177
     3
291
     1
 70
    58
 90
        2
176
     1
 90
        2
176
     1
 90
        0
176
     1
 90
        0
176
     1
 40
0.6
176
     1
 40
30.0
176
     1
 62
     7
420
 16777215
176
     1
 90
        1
176
     1
 90
        4
176
     1
 62
     7
176
     1
 62
   257
176
     1
 90
        7
176
     1
 90
        7
176
     1
 40
1.0
176
     1
 90
        8
176
     1
 62
     7
176
     1
 40
1.0
176
     1
 90
        1
176
     1
 90
        6
176
     1
 90
        2
176
     1
 62
     7
176
     1
 90
        5
176
     1
 90
        0
176
     1
 90
        0
176
     1
290
     0
176
     1
 90
        1
176
     1
 40
0.0
176
     1
 90
        0
176
     1
290
     0
176
     1
290
     1
176
     1
290
     1
176
     1
290
     0
176
     1
290
     0
176
     1
290
     0
176
     1
290
     0
176
     1
290
     0
176
     1
290
     0
176
     1
 90
       50
176
     1
 40
0.0
176
     1
 40
1.0
176
     1
 90
        0
176
     1
 62
    18
420
        0
176
     1
 90
       50
176
     1
 90
        3
176
     1
 62
     5
420
      255
176
     1
290
     0
176
     1
 90
       50
176
     1
 90
       50
176
     1
 90
       50
176
     1
290
     0
176
     1
 90
       50
176
     1
 62
   256
176
     0
 40
1.0
176
     0
 90
        2
176
     1
  1
strokes_ogs.tif
176
     1
290
     0
176
     1
 40
1.0
176
     1
 40
1.0
176
     1
  0
VISUALSTYLE
  5
3C
102
{ACAD_REACTORS
330
2A
102
}
330
2A
100
AcDbVisualStyle
  2
OverhangOff
 70
    21
177
     3
291
     1
 70
    58
 90
        2
176
     0
 90
        2
176
     0
 90
        0
176
     0
 90
        0
176
     0
 40
0.6
176
     0
 40
30.0
176
     0
 62
     7
420
 16777215
176
     0
 90
        1
176
     0
 90
        4
176
     0
 62
     7
176
     0
 62
   257
176
     0
 90
        1
176
     0
 90
        1
176
     0
 40
1.0
176
     0
 90
        9
176
     2
 62
     7
176
     0
 40
1.0
176
     0
 90
        1
176
     0
 90
        6
176
     0
 90
        2
176
     0
 62
     7
176
     0
 90
        5
176
     0
 90
        0
176
     0
 90
        0
176
     0
290
     0
176
     0
 90
        1
176
     0
 40
0.0
176
     0
 90
        0
176
     0
290
     0
176
     0
290
     1
176
     0
290
     1
176
     0
290
     0
176
     0
290
     0
176
     0
290
     0
176
     0
290
     0
176
     0
290
     0
176
     0
290
     0
176
     0
 90
       50
176
     0
 40
0.0
176
     0
 40
1.0
176
     0
 90
        0
176
     0
 62
    18
420
        0
176
     0
 90
       50
176
     0
 90
        3
176
     0
 62
     5
420
      255
176
     0
290
     0
176
     0
 90
       50
176
     0
 90
       50
176
     0
 90
       50
176
     0
290
     0
176
     0
 90
       50
176
     0
 62
   256
176
     0
 40
1.0
176
     0
 90
        2
176
     0
  1
strokes_ogs.tif
176
     0
290
     0
176
     0
 40
1.0
176
     0
 40
1.0
176
     0
  0
VISUALSTYLE
  5
33
102
{ACAD_REACTORS
330
2A
102
}
330
2A
100
AcDbVisualStyle
  2
Realistic
 70
     8
177
     3
291
     0
 70
    58
 90
        2
176
     1
 90
        3
176
     1
 90
        0
176
     1
 90
        2
176
     1
 40
0.6
176
     1
 40
30.0
176
     1
 62
     7
420
 16777215
176
     1
 90
        0
176
     1
 90
        0
176
     1
 62
     7
176
     1
 62
   257
176
     1
 90
        1
176
     1
 90
        1
176
     1
 40
1.0
176
     1
 90
        8
176
     1
 62
   257
176
     1
 40
1.0
176
     1
 90
        1
176
     1
 90
        6
176
     1
 90
        2
176
     1
 62
     7
176
     1
 90
        3
176
     1
 90
        0
176
     1
 90
        0
176
     1
290
     0
176
     1
 90
       13
176
     1
 40
0.0
176
     1
 90
        0
176
     1
290
     0
176
     1
290
     1
176
     1
290
     1
176
     1
290
     0
176
     1
290
     0
176
     1
290
     0
176
     1
290
     0
176
     1
290
     0
176
     1
290
     0
176
     1
 90
       50
176
     1
 40
0.0
176
     1
 40
1.0
176
     1
 90
        0
176
     1
 62
    18
420
        0
176
     1
 90
       50
176
     1
 90
        3
176
     1
 62
     5
420
      255
176
     1
290
     0
176
     1
 90
       50
176
     1
 90
       50
176
     1
 90
       50
176
     1
290
     0
176
     1
 90
       50
176
     1
 62
   256
176
     0
 40
1.0
176
     0
 90
        2
176
     1
  1
strokes_ogs.tif
176
     1
290
     0
176
     1
 40
1.0
176
     1
 40
1.0
176
     1
  0
VISUALSTYLE
  5
42
102
{ACAD_REACTORS
330
2A
102
}
330
2A
100
AcDbVisualStyle
  2
Shaded
 70
    27
177
     3
291
     0
 70
    58
 90
        2
176
     1
 90
        2
176
     1
 90
        1
176
     1
 90
        2
176
     1
 40
0.6
176
     1
 40
30.0
176
     1
 62
     7
420
 16777215
176
     1
 90
        0
176
     1
 90
        4
176
     1
 62
     7
176
     1
 62
   257
176
     1
 90
        1
176
     1
 90
        1
176
     1
 40
1.0
176
     1
 90
        8
176
     1
 62
   257
176
     1
 40
1.0
176
     1
 90
        1
176
     1
 90
        6
176
     1
 90
        2
176
     1
 62
     8
420
  7895160
176
     1
 90
        3
176
     1
 90
        0
176
     1
 90
        0
176
     1
290
     0
176
     1
 90
        5
176
     1
 40
0.0
176
     1
 90
        0
176
     1
290
     0
176
     1
290
     1
176
     1
290
     1
176
     1
290
     0
176
     1
290
     0
176
     1
290
     0
176
     1
290
     0
176
     1
290
     0
176
     1
290
     0
176
     1
 90
       50
176
     1
 40
0.0
176
     1
 40
1.0
176
     1
 90
        0
176
     1
 62
    18
420
        0
176
     1
 90
       50
176
     1
 90
        3
176
     1
 62
     5
420
      255
176
     1
290
     0
176
     1
 90
       50
176
     1
 90
       50
176
     1
 90
       50
176
     1
290
     0
176
     1
 90
       50
176
     1
 62
   256
176
     0
 40
1.0
176
     0
 90
        2
176
     1
  1
strokes_ogs.tif
176
     1
290
     0
176
     1
 40
1.0
176
     1
 40
1.0
176
     1
  0
VISUALSTYLE
  5
41
102
{ACAD_REACTORS
330
2A
102
}
330
2A
100
AcDbVisualStyle
  2
Shaded with edges
 70
    26
177
     3
291
     0
 70
    58
 90
        2
176
     1
 90
        2
176
     1
 90
        1
176
     1
 90
        2
176
     1
 40
0.6
176
     1
 40
30.0
176
     1
 62
     7
420
 16777215
176
     1
 90
        1
176
     1
 90
       10
176
     1
 62
     7
176
     1
 62
   257
176
     1
 90
        2
176
     1
 90
        1
176
     1
 40
1.0
176
     1
 90
        8
176
     1
 62
   257
176
     1
 40
1.0
176
     1
 90
        1
176
     1
 90
        6
176
     1
 90
        2
176
     1
 62
     7
176
     1
 90
        3
176
     1
 90
        0
176
     1
 90
        0
176
     1
290
     0
176
     1
 90
        5
176
     1
 40
0.0
176
     1
 90
        0
176
     1
290
     0
176
     1
290
     1
176
     1
290
     1
176
     1
290
     0
176
     1
290
     0
176
     1
290
     0
176
     1
290
     0
176
     1
290
     0
176
     1
290
     0
176
     1
 90
       50
176
     1
 40
0.0
176
     1
 40
1.0
176
     1
 90
        0
176
     1
 62
    18
420
        0
176
     1
 90
       50
176
     1
 90
        3
176
     1
 62
     5
420
      255
176
     1
290
     0
176
     1
 90
       50
176
     1
 90
       50
176
     1
 90
       50
176
     1
290
     0
176
     1
 90
       50
176
     1
 62
   256
176
     0
 40
1.0
176
     0
 90
        2
176
     1
  1
strokes_ogs.tif
176
     1
290
     0
176
     1
 40
1.0
176
     1
 40
1.0
176
     1
  0
VISUALSTYLE
  5
3E
102
{ACAD_REACTORS
330
2A
102
}
330
2A
100
AcDbVisualStyle
  2
Shades of Gray
 70
    23
177
     3
291
     0
 70
    58
 90
        2
176
     1
 90
        2
176
     1
 90
        3
176
     1
 90
        0
176
     1
 40
0.6
176
     1
 40
30.0
176
     1
 62
     7
420
 16777215
176
     1
 90
        2
176
     1
 90
        2
176
     1
 62
     7
176
     1
 62
     7
176
     1
 90
        1
176
     1
 90
        1
176
     1
 40
40.0
176
     1
 90
        8
176
     1
 62
     7
176
     1
 40
1.0
176
     1
 90
        1
176
     1
 90
        6
176
     1
 90
        2
176
     1
 62
     7
176
     1
 90
        3
176
     1
 90
        0
176
     1
 90
        0
176
     1
290
     0
176
     1
 90
        1
176
     1
 40
0.0
176
     1
 90
        0
176
     1
290
     0
176
     1
290
     1
176
     1
290
     1
176
     1
290
     0
176
     1
290
     0
176
     1
290
     0
176
     1
290
     0
176
     1
290
     0
176
     1
290
     0
176
     1
 90
       50
176
     1
 40
0.0
176
     1
 40
1.0
176
     1
 90
        0
176
     1
 62
    18
420
        0
176
     1
 90
       50
176
     1
 90
        3
176
     1
 62
     5
420
      255
176
     1
290
     0
176
     1
 90
       50
176
     1
 90
       50
176
     1
 90
       50
176
     1
290
     0
176
     1
 90
       50
176
     1
 62
   256
176
     0
 40
1.0
176
     0
 90
        2
176
     1
  1
strokes_ogs.tif
176
     1
290
     0
176
     1
 40
1.0
176
     1
 40
1.0
176
     1
  0
VISUALSTYLE
  5
3F
102
{ACAD_REACTORS
330
2A
102
}
330
2A
100
AcDbVisualStyle
  2
Sketchy
 70
    24
177
     3
291
     0
 70
    58
 90
        1
176
     1
 90
        2
176
     1
 90
        2
176
     1
 90
        0
176
     1
 40
0.6
176
     1
 40
30.0
176
     1
 62
     7
420
 16777215
176
     1
 90
        2
176
     1
 90
        2
176
     1
 62
     7
176
     1
 62
     7
176
     1
 90
        1
176
     1
 90
        1
176
     1
 40
40.0
176
     1
 90
       11
176
     1
 62
     7
176
     1
 40
1.0
176
     1
 90
        1
176
     1
 90
        6
176
     1
 90
        2
176
     1
 62
     7
176
     1
 90
        6
176
     1
 90
        0
176
     1
 90
        0
176
     1
290
     0
176
     1
 90
        1
176
     1
 40
0.0
176
     1
 90
        0
176
     1
290
     0
176
     1
290
     1
176
     1
290
     1
176
     1
290
     0
176
     1
290
     0
176
     1
290
     0
176
     1
290
     0
176
     1
290
     0
176
     1
290
     0
176
     1
 90
       50
176
     1
 40
0.0
176
     1
 40
1.0
176
     1
 90
        0
176
     1
 62
    18
420
        0
176
     1
 90
       50
176
     1
 90
        3
176
     1
 62
     5
420
      255
176
     1
290
     0
176
     1
 90
       50
176
     1
 90
       50
176
     1
 90
       50
176
     1
290
     0
176
     1
 90
       50
176
     1
 62
   256
176
     0
 40
1.0
176
     0
 90
        2
176
     1
  1
strokes_ogs.tif
176
     1
290
     0
176
     1
 40
1.0
176
     1
 40
1.0
176
     1
  0
VISUALSTYLE
  5
37
102
{ACAD_REACTORS
330
2A
102
}
330
2A
100
AcDbVisualStyle
  2
Thicken
 70
    13
177
     3
291
     1
 70
    58
 90
        2
176
     1
 90
        2
176
     1
 90
        0
176
     1
 90
        0
176
     1
 40
0.6
176
     1
 40
30.0
176
     1
 62
     7
420
 16777215
176
     1
 90
        1
176
     1
 90
        4
176
     1
 62
     7
176
     1
 62
   257
176
     1
 90
        1
176
     1
 90
        1
176
     1
 40
1.0
176
     1
 90
       12
176
     1
 62
     7
176
     1
 40
1.0
176
     1
 90
        1
176
     1
 90
        6
176
     1
 90
        2
176
     1
 62
     7
176
     1
 90
        5
176
     1
 90
        0
176
     1
 90
        0
176
     1
290
     0
176
     1
 90
        1
176
     1
 40
0.0
176
     1
 90
        0
176
     1
290
     0
176
     1
290
     1
176
     1
290
     1
176
     1
290
     0
176
     1
290
     0
176
     1
290
     0
176
     1
290
     0
176
     1
290
     0
176
     1
290
     0
176
     1
 90
       50
176
     1
 40
0.0
176
     1
 40
1.0
176
     1
 90
        0
176
     1
 62
    18
420
        0
176
     1
 90
       50
176
     1
 90
        3
176
     1
 62
     5
420
      255
176
     1
290
     0
176
     1
 90
       50
176
     1
 90
       50
176
     1
 90
       50
176
     1
290
     0
176
     1
 90
       50
176
     1
 62
   256
176
     0
 40
1.0
176
     0
 90
        2
176
     1
  1
strokes_ogs.tif
176
     1
290
     0
176
     1
 40
1.0
176
     1
 40
1.0
176
     1
  0
VISUALSTYLE
  5
30
102
{ACAD_REACTORS
330
2A
102
}
330
2A
100
AcDbVisualStyle
  2
Wireframe
 70
     5
177
     3
291
     0
 70
    58
 90
        0
176
     1
 90
        2
176
     1
 90
        0
176
     1
 90
        0
176
     1
 40
0.6
176
     1
 40
30.0
176
     1
 62
     7
420
 16777215
176
     1
 90
        1
176
     1
 90
        4
176
     1
 62
     7
176
     1
 62
   257
176
     1
 90
        1
176
     1
 90
        1
176
     1
 40
1.0
176
     1
 90
        0
176
     1
 62
   257
176
     1
 40
1.0
176
     1
 90
        1
176
     1
 90
        6
176
     1
 90
        2
176
     1
 62
     7
176
     1
 90
        3
176
     1
 90
        0
176
     1
 90
        0
176
     1
290
     0
176
     1
 90
        1
176
     1
 40
0.0
176
     1
 90
        0
176
     1
290
     0
176
     1
290
     1
176
     1
290
     1
176
     1
290
     0
176
     1
290
     0
176
     1
290
     0
176
     1
290
     0
176
     1
290
     0
176
     1
290
     0
176
     1
 90
       50
176
     1
 40
0.0
176
     1
 40
1.0
176
     1
 90
        0
176
     1
 62
    18
420
        0
176
     1
 90
       50
176
     1
 90
        3
176
     1
 62
     5
420
      255
176
     1
290
     0
176
     1
 90
       50
176
     1
 90
       50
176
     1
 90
       50
176
     1
290
     0
176
     1
 90
       50
176
     1
 62
   256
176
     0
 40
1.0
176
     0
 90
        2
176
     1
  1
strokes_ogs.tif
176
     1
290
     0
176
     1
 40
1.0
176
     1
 40
1.0
176
     1
  0
VISUALSTYLE
  5
40
102
{ACAD_REACTORS
330
2A
102
}
330
2A
100
AcDbVisualStyle
  2
X-Ray
 70
    25
177
     3
291
     0
 70
    58
 90
        2
176
     1
 90
        2
176
     1
 90
        1
176
     1
 90
        1
176
     1
 40
0.5
176
     1
 40
30.0
176
     1
 62
     7
420
 16777215
176
     1
 90
        1
176
     1
 90
        0
176
     1
 62
     7
176
     1
 62
   257
176
     1
 90
        1
176
     1
 90
        1
176
     1
 40
1.0
176
     1
 90
        8
176
     1
 62
     7
176
     1
 40
1.0
176
     1
 90
        1
176
     1
 90
        6
176
     1
 90
        2
176
     1
 62
     7
176
     1
 90
        3
176
     1
 90
        0
176
     1
 90
        0
176
     1
290
     0
176
     1
 90
       13
176
     1
 40
0.0
176
     1
 90
        0
176
     1
290
     0
176
     1
290
     1
176
     1
290
     1
176
     1
290
     0
176
     1
290
     0
176
     1
290
     0
176
     1
290
     0
176
     1
290
     0
176
     1
290
     0
176
     1
 90
       50
176
     1
 40
0.0
176
     1
 40
1.0
176
     1
 90
        0
176
     1
 62
    18
420
        0
176
     1
 90
       50
176
     1
 90
        3
176
     1
 62
     5
420
      255
176
     1
290
     0
176
     1
 90
       50
176
     1
 90
       50
176
     1
 90
       50
176
     1
290
     0
176
     1
 90
       50
176
     1
 62
   256
176
     0
 40
1.0
176
     0
 90
        2
176
     1
  1
strokes_ogs.tif
176
     1
290
     0
176
     1
 40
1.0
176
     1
 40
1.0
176
     1
  0
DICTIONARYVAR
  5
141
102
{ACAD_REACTORS
330
140
102
}
330
140
100
DictionaryVariables
280
     0
  1
1:1
  0
ENDSEC
  0
EOF
