<?xml version="1.0" encoding="UTF-8" standalone="no"?>
<svg
   xmlns:dc="http://purl.org/dc/elements/1.1/"
   xmlns:cc="http://creativecommons.org/ns#"
   xmlns:rdf="http://www.w3.org/1999/02/22-rdf-syntax-ns#"
   xmlns:svg="http://www.w3.org/2000/svg"
   xmlns="http://www.w3.org/2000/svg"
   xmlns:sodipodi="http://sodipodi.sourceforge.net/DTD/sodipodi-0.dtd"
   xmlns:inkscape="http://www.inkscape.org/namespaces/inkscape"
   inkscape:version="1.0 (4035a4fb49, 2020-05-01)"
   id="svg8"
   version="1.1"
   viewBox="0 0 210 297"
   height="297mm"
   width="210mm">
  <defs
     id="defs2" />
  <sodipodi:namedview
     inkscape:window-maximized="1"
     inkscape:window-y="-8"
     inkscape:window-x="1991"
     inkscape:window-height="1057"
     inkscape:window-width="1841"
     showgrid="false"
     inkscape:document-rotation="0"
     inkscape:current-layer="layer1"
     inkscape:document-units="mm"
     inkscape:cy="331.7607"
     inkscape:cx="48.373325"
     inkscape:zoom="3.959798"
     inkscape:pageshadow="2"
     inkscape:pageopacity="0.0"
     borderopacity="1.0"
     bordercolor="#666666"
     pagecolor="#ffffff"
     id="base" />
  <metadata
     id="metadata5">
    <rdf:RDF>
      <cc:Work
         rdf:about="">
        <dc:format>image/svg+xml</dc:format>
        <dc:type
           rdf:resource="http://purl.org/dc/dcmitype/StillImage" />
        <dc:title></dc:title>
      </cc:Work>
    </rdf:RDF>
  </metadata>
  <g
     id="layer1"
     inkscape:groupmode="layer"
     inkscape:label="Layer 1">
    <path
       d="m 107.63672,266.98047 c -12.161037,0.0887 -24.326173,2.34189 -35.812501,6.77148 l -8.28711,3.19727 0.310547,32.15234 0.3125,32.1543 2.589844,5.5 c 4.854478,10.30809 9.337635,14.12948 28.910156,24.65234 6.325004,3.40054 11.982974,6.10823 12.572264,6.01563 0.58929,-0.0926 6.95095,-3.25354 14.13672,-7.02344 16.19206,-8.4949 22.10862,-13.4988 26.49805,-22.41016 l 3.29297,-6.68554 0.3125,-32.125 0.31054,-32.125 -4.81054,-2.05078 c -12.77624,-5.44425 -26.55344,-8.12401 -40.33594,-8.02344 z m -0.41211,6.9082 c 1.5411,0.02 3.14734,0.068 4.83789,0.14258 11.85842,0.52335 22.66857,2.68 30.84766,6.15625 l 3.75,1.59375 -0.008,23.73828 c -0.004,13.05512 -0.47931,26.64667 -1.05664,30.20508 -2.14265,13.20643 -7.8967,19.35743 -27.49023,29.39258 -4.97969,2.55043 -9.47969,4.63098 -10,4.62304 -2.5744,-0.0392 -23.591546,-12.27286 -28.138673,-16.3789 -8.806681,-7.95241 -9.306641,-10.31511 -9.306641,-44.01172 v -28.33008 l 7.75,-2.56055 c 10.462101,-3.45655 18.026718,-4.71033 28.814454,-4.57031 z m -2.16992,17.86719 c -6.580763,0 -7.209547,0.18227 -7.763674,2.25 -1.018976,3.80228 -0.716027,4.75 1.523437,4.75 1.980397,0 2.030307,0.14178 0.595703,1.75 -0.858591,0.9625 -3.245416,8.1625 -5.302734,16 -2.380037,9.06693 -4.211609,14.25 -5.035156,14.25 -1.530403,0 -1.918243,0.59041 -2.792969,4.25 -0.615908,2.57678 -0.450242,2.75 2.638672,2.75 5.333616,0 7.489478,-2.29847 9.886719,-10.54883 l 2.164062,-7.45117 h 7.30664 7.30859 l 1.09375,4.25 c 2.18236,8.47194 3.17357,10.76981 5.28125,12.24609 3.18136,2.22831 5.62207,1.84255 6.72657,-1.0625 1.38004,-3.62979 1.22611,-4.43359 -0.84375,-4.43359 -1.51215,0 -2.62837,-3.03704 -6.63672,-18.04102 -3.65122,-13.66715 -5.32457,-18.39351 -6.9043,-19.5 -1.35708,-0.95054 -4.58549,-1.45898 -9.24609,-1.45898 z m 3.10547,7.5 c 1.3823,0 2.25929,1.55745 3.65625,6.5 1.01043,3.575 1.83774,6.8375 1.83984,7.25 0.005,1.03931 -9.75435,0.94779 -10.40039,-0.0977 -0.28794,-0.46588 0.28819,-3.72839 1.28125,-7.25 1.37055,-4.86029 2.24313,-6.40234 3.62305,-6.40234 z"
       transform="scale(0.26458333)"
       style="fill:#000000;stroke-width:0.999999"
       id="path849" />
  </g>
</svg>
