<?xml version="1.0" encoding="UTF-8" standalone="no"?>
<svg
   xmlns:dc="http://purl.org/dc/elements/1.1/"
   xmlns:cc="http://creativecommons.org/ns#"
   xmlns:rdf="http://www.w3.org/1999/02/22-rdf-syntax-ns#"
   xmlns:svg="http://www.w3.org/2000/svg"
   xmlns="http://www.w3.org/2000/svg"
   xmlns:sodipodi="http://sodipodi.sourceforge.net/DTD/sodipodi-0.dtd"
   xmlns:inkscape="http://www.inkscape.org/namespaces/inkscape"
   inkscape:version="1.0 (4035a4fb49, 2020-05-01)"
   width="210mm"
   height="297mm"
   viewBox="0 0 210 297"
   version="1.1"
   id="svg8">
  <defs
     id="defs2" />
  <sodipodi:namedview
     inkscape:window-maximized="0"
     inkscape:window-y="0"
     inkscape:window-x="2129"
     inkscape:window-height="1080"
     inkscape:window-width="1375"
     showgrid="false"
     inkscape:document-rotation="0"
     inkscape:current-layer="layer1"
     inkscape:document-units="mm"
     inkscape:cy="534.04486"
     inkscape:cx="435.37808"
     inkscape:zoom="2.8"
     inkscape:pageshadow="2"
     inkscape:pageopacity="0.0"
     borderopacity="1.0"
     bordercolor="#666666"
     pagecolor="#ffffff"
     id="base" />
  <metadata
     id="metadata5">
    <rdf:RDF>
      <cc:Work
         rdf:about="">
        <dc:format>image/svg+xml</dc:format>
        <dc:type
           rdf:resource="http://purl.org/dc/dcmitype/StillImage" />
        <dc:title></dc:title>
      </cc:Work>
    </rdf:RDF>
  </metadata>
  <g
     id="layer1"
     inkscape:groupmode="layer"
     inkscape:label="Layer 1">
    <path
       id="path105"
       d="m 123.80385,164.77557 c -0.94589,-0.5474 -3.02091,-1.69624 -4.61117,-2.55298 -4.69208,-2.52784 -6.98212,-5.18554 -7.79393,-9.04522 -0.18523,-0.88065 -0.2949,-4.92645 -0.2949,-10.87864 v -9.47655 l 1.88634,-0.84345 c 4.81746,-2.15406 11.11322,-3.04267 16.5022,-2.32918 3.38237,0.44782 6.80748,1.34429 9.23093,2.41606 l 1.48469,0.6566 v 4.78953 4.78953 l -1.05071,-0.84438 -1.05071,-0.84438 -0.0738,-3.3346 -0.0738,-3.3346 -1.5875,-0.57345 c -1.96575,-0.71008 -5.14148,-1.51837 -5.30867,-1.35117 -0.0683,0.0683 0.008,0.76715 0.1693,1.55292 0.16145,0.78577 0.33785,1.67075 0.392,1.96661 0.0694,0.37897 0.4364,0.62832 1.24207,0.84381 0.93273,0.24947 1.35486,0.58938 2.28911,1.84331 0.63002,0.8456 1.25813,1.77973 1.39581,2.07584 0.13768,0.29612 0.78618,0.82266 1.4411,1.17009 1.33012,0.70563 2.21574,1.6797 2.21574,2.43704 0,0.66622 -1.11828,2.84673 -1.99324,3.88655 -0.40611,0.48264 -0.95164,0.83147 -1.30032,0.83147 -0.33038,0 -1.24254,0.341 -2.027,0.75778 -0.78447,0.41679 -1.70966,0.84643 -2.05597,0.95478 -0.61781,0.19328 -0.62616,0.17358 -0.44329,-1.04587 0.14835,-0.9893 0.093,-1.34603 -0.27124,-1.74853 -0.73769,-0.81513 -1.98014,-0.65396 -2.98991,0.38786 l -0.86603,0.89351 0.81413,0.57971 c 0.63835,0.45455 0.81412,0.77576 0.81412,1.48774 0,0.63074 0.1212,0.90802 0.39688,0.90802 0.46379,0 0.50575,0.36052 0.1248,1.07233 -0.20416,0.38147 -0.11673,0.97158 0.35023,2.36386 l 0.6223,1.85548 -1.07783,0.006 c -1.15459,0.006 -2.93206,0.69558 -3.65337,1.4169 -0.41277,0.41276 -0.46064,0.40678 -0.72695,-0.0908 -0.33348,-0.62312 -1.59626,-1.33191 -2.37292,-1.33191 -0.32757,0 -0.5423,-0.17287 -0.5423,-0.43658 0,-0.26539 -0.29343,-0.032 -0.74835,0.59532 -0.41159,0.56753 -1.18058,1.41088 -1.70887,1.87411 l -0.96053,0.84223 3.04277,1.61195 3.04277,1.61195 2.43642,-1.25162 c 3.18791,-1.63768 5.40574,-2.92799 6.47977,-3.76984 2.02986,-1.59106 3.49727,-4.79498 3.49727,-7.63591 0,-1.17488 0.13651,-1.61016 0.75252,-2.39937 0.41388,-0.53027 0.88651,-1.20224 1.05029,-1.49328 0.23429,-0.41638 0.29948,0.12162 0.30581,2.52409 0.0187,7.08742 -2.09113,10.16109 -9.5251,13.87671 -1.08693,0.54327 -2.64665,1.39134 -3.46605,1.88462 -0.8194,0.49328 -1.53378,0.88485 -1.5875,0.87016 -0.0537,-0.0147 -0.87159,-0.47458 -1.81747,-1.02197 z m -4.99387,-7.21852 0.55482,-1.08754 0.44314,0.58748 0.44313,0.58748 0.53692,-0.60647 c 0.81107,-0.91613 1.33265,-1.83736 1.76584,-3.11886 l 0.39156,-1.15833 0.43023,0.83197 c 0.23662,0.45759 0.47259,1.21889 0.52436,1.69179 0.0742,0.6777 0.24812,0.901 0.82118,1.05426 0.39987,0.10694 0.93735,0.38476 1.19438,0.61738 0.4295,0.38868 0.53969,0.38128 1.36064,-0.0914 0.49131,-0.28288 1.28865,-0.59669 1.77185,-0.69737 0.63,-0.13126 0.83586,-0.29435 0.72761,-0.57644 -0.083,-0.21637 -0.15096,-0.57171 -0.15096,-0.78965 0,-0.30383 -0.18768,-0.35504 -0.80459,-0.21954 -0.51778,0.11372 -0.9572,0.0505 -1.23273,-0.17742 -0.54129,-0.44773 -1.66084,-2.82621 -1.66426,-3.53575 -0.002,-0.31698 0.80246,-1.33546 1.96867,-2.49389 1.08419,-1.07696 1.9106,-2.05624 1.83647,-2.17619 -0.0741,-0.11995 0.36833,-0.21809 0.98326,-0.21809 0.61492,0 1.03909,0.0789 0.9426,0.17544 -0.0965,0.0965 0.18132,0.39239 0.61736,0.65757 0.67372,0.4097 0.7928,0.64534 0.7928,1.5687 v 1.08658 l 0.8599,-0.51017 c 0.47294,-0.28059 0.84768,-0.68232 0.83276,-0.89271 -0.02,-0.28199 0.20699,-0.35521 0.86354,-0.27857 0.91142,0.10641 1.51379,-0.2135 1.95526,-1.0384 0.19117,-0.35721 0.0331,-0.74884 -0.6785,-1.6811 l -0.92774,-1.2154 0.73021,0.19751 c 0.40161,0.10863 1.14692,0.20049 1.65624,0.20413 1.37652,0.01 1.17548,-0.59964 -0.60641,-1.83842 -0.84685,-0.58873 -1.92795,-1.65723 -2.41645,-2.38829 -1.32748,-1.98661 -2.06993,-2.54513 -4.45715,-3.35297 -1.95936,-0.66306 -2.07438,-0.73736 -1.14913,-0.74244 l 1.02815,-0.006 -0.16466,-1.20129 c -0.0906,-0.66072 -0.30269,-1.45923 -0.47141,-1.77447 -0.3044,-0.56878 -0.31215,-0.56672 -1.0091,0.26811 l -0.70234,0.8413 -0.42668,-0.72047 c -0.23467,-0.39626 -0.73408,-1.00854 -1.10979,-1.36061 -0.68216,-0.63925 -0.68733,-0.63973 -3.692,-0.34535 -2.40899,0.23602 -7.20504,1.18836 -7.50923,1.49109 -0.0354,0.0352 0.17299,0.55518 0.46302,1.15549 0.29004,0.60031 0.52735,1.37398 0.52735,1.71927 0,0.56759 -0.15859,0.65129 -1.65365,0.87268 l -1.65365,0.24488 -0.0826,1.30386 c -0.0645,1.0181 0.0749,1.59797 0.63603,2.64583 l 0.7186,1.34197 -0.70218,-0.64143 -0.70218,-0.64143 v 5.33778 c 0,5.19152 0.0147,5.33779 0.53828,5.33779 0.49044,0 0.52321,0.11361 0.36872,1.27826 -0.13244,0.99837 -0.053,1.5067 0.36271,2.32161 0.62257,1.22033 3.11388,3.64577 3.4998,3.40726 0.14583,-0.0901 0.51481,-0.65326 0.81996,-1.25141 z m 2.61262,-8.29107 c -0.36381,-0.20175 -0.78052,-0.41186 -0.92605,-0.46693 -0.14552,-0.0551 0.0106,-0.39982 0.347,-0.76611 l 0.61159,-0.66598 -1.39114,-0.69323 c -0.76512,-0.38128 -1.72495,-0.69323 -2.13294,-0.69323 -1.01562,0 -0.93119,-0.43094 0.31707,-1.61838 1.00463,-0.95569 3.05374,-1.82121 4.31168,-1.82121 0.38186,0 0.47681,-0.1346 0.37353,-0.52953 -0.0762,-0.29124 -0.0305,-0.46281 0.10143,-0.38126 0.13195,0.0815 0.23991,0.37937 0.23991,0.66183 0,0.35541 -0.18331,0.51434 -0.59531,0.51613 -1.15201,0.005 -4.36032,1.83254 -3.87416,2.20682 0.0571,0.044 0.5482,0.34715 1.0913,0.67372 0.5431,0.32657 1.22695,0.93011 1.51967,1.3412 0.4817,0.67648 0.49072,0.76336 0.095,0.91521 -0.37462,0.14375 -0.32942,0.28028 0.31576,0.9537 0.80348,0.83866 0.66786,0.96183 -0.40436,0.36725 z m 11.14853,-4.25603 c -0.0573,-0.91258 0.24101,-1.4107 0.8449,-1.4107 h 0.55973 l -0.56994,0.3992 c -0.31347,0.21956 -0.62141,0.66604 -0.6843,0.99219 -0.11312,0.58655 -0.11475,0.58676 -0.15039,0.0193 z m -3.09892,-5.29611 c -0.44766,-0.91896 -0.71172,-1.67084 -0.58681,-1.67084 0.12491,0 0.66977,0.20111 1.2108,0.44691 0.54103,0.24581 1.14527,0.45493 1.34277,0.46472 0.37265,0.0185 1.58459,1.87313 1.35735,2.07719 -0.0709,0.0637 -0.66471,0.16912 -1.31956,0.23432 l -1.19062,0.11855 z m 1.73997,0.47822 c 0,-0.52293 -0.36069,-0.90155 -1.11439,-1.16977 -0.42496,-0.15124 -0.42602,-0.10475 -0.0171,0.75267 0.46895,0.9834 1.13154,1.22764 1.13154,0.4171 z m -11.20426,-3.14125 c -0.79712,-1.59056 -1.07444,-3.07438 -0.70397,-3.76661 0.60071,-1.12245 3.99253,-0.22306 5.57946,1.47948 0.60372,0.6477 0.56269,0.63887 -0.71935,-0.1548 -1.53466,-0.95005 -3.31332,-1.31275 -3.92956,-0.80132 -0.53963,0.44786 -0.50251,1.57715 0.10434,3.17427 0.63498,1.67111 0.48742,1.70187 -0.33092,0.069 z m 1.73349,-1.07435 c -0.63796,-0.4909 -0.54336,-0.84388 0.22614,-0.84388 0.42141,0 0.77796,0.49497 0.77796,1.07997 0,0.36258 -0.32561,0.28602 -1.0041,-0.23609 z m 7.2089,17.79337 c 1.14763,-0.75195 1.0167,-1.09626 -0.40617,-1.06812 -0.7136,0.0141 -1.29818,0.0885 -1.29908,0.16523 -0.002,0.20338 0.79969,1.31564 0.94872,1.31564 0.0696,0 0.41007,-0.18574 0.75653,-0.41275 z m 0.25428,-2.29122 c 0.19944,-0.56944 0.15058,-0.83168 -0.23412,-1.25677 -0.61499,-0.67955 -1.62529,-0.6925 -1.98231,-0.0254 -0.38225,0.71423 -0.35022,0.89402 0.27973,1.5702 0.72362,0.77671 1.60997,0.6449 1.9367,-0.28803 z m -13.49247,-16.54447 c -0.28252,-1.57294 -0.37949,-1.65063 -1.49942,-1.20134 -0.87337,0.35038 -0.99219,0.50555 -0.99219,1.29579 v 0.89774 h 1.33491 1.3349 z"
       style="fill:#000000;stroke-width:0.264583;fill-opacity:1" />
  </g>
</svg>
